<svg id="Layer_1" data-name="Layer 1" xmlns="http://www.w3.org/2000/svg" viewBox="0 0 2142.75 755.01"><defs><style>.cls-1{fill:none;}.cls-1,.cls-2{stroke:#000;stroke-linecap:round;stroke-miterlimit:10;stroke-width:35px;}</style></defs><line class="cls-1" x1="246.75" y1="17.5" x2="2124.75" y2="17.5"/><line x1="246.75" y1="17.5" x2="2124.75" y2="17.5"/><line class="cls-2" x1="243.68" y1="163.56" x2="243.68" y2="18"/><line class="cls-2" x1="2123.25" y1="161.5" x2="2125.25" y2="18.5"/><line class="cls-1" x1="17.5" y1="737.5" x2="17.75" y2="608"/><line class="cls-2" x1="1941.34" y1="736.5" x2="1941.34" y2="592.5"/><line class="cls-1" x1="17.75" y1="737.51" x2="1941.25" y2="737.51"/><line x1="17.75" y1="737.51" x2="1941.25" y2="737.51"/><line class="cls-2" x1="246.75" y1="163.5" x2="371.75" y2="163.5"/><line class="cls-2" x1="17.75" y1="597.5" x2="372.25" y2="597.5"/><line class="cls-2" x1="372.25" y1="164" x2="372.25" y2="596"/><line class="cls-2" x1="520.75" y1="598.5" x2="805.25" y2="598.5"/><line class="cls-2" x1="516.25" y1="596" x2="516.25" y2="167"/><line class="cls-2" x1="517.75" y1="167" x2="804.75" y2="597"/><line class="cls-2" x1="965.75" y1="162.5" x2="676.25" y2="162.5"/><line class="cls-2" x1="965.98" y1="164" x2="965.98" y2="593"/><line class="cls-2" x1="962.75" y1="593" x2="678.6" y2="166.38"/><line class="cls-2" x1="1098.25" y1="166.5" x2="1381.75" y2="167"/><line class="cls-2" x1="1097.87" y1="167" x2="1097.75" y2="593"/><line class="cls-2" x1="1097.75" y1="593" x2="1381.75" y2="167"/><line class="cls-2" x1="1816.25" y1="592.5" x2="1667.25" y2="161.5"/><line class="cls-2" x1="1667.25" y1="161.5" x2="2122.75" y2="161.5"/><line class="cls-2" x1="1816.25" y1="592.5" x2="1941.25" y2="592.5"/><line class="cls-2" x1="1668.25" y1="592.5" x2="1249.25" y2="594.5"/><line class="cls-2" x1="1249.25" y1="594.5" x2="1520.25" y2="194.5"/><line class="cls-2" x1="1668.25" y1="592.5" x2="1520.25" y2="194.5"/></svg>