<svg id="Layer_1" data-name="Layer 1" xmlns="http://www.w3.org/2000/svg" viewBox="0 0 3484 2468"><defs><style>.cls-1{fill:#262626;}.cls-2{fill:#474747;}.cls-3{fill:#4f4f4f;}.cls-4{fill:#2b2b2b;}.cls-5{fill:#393939;}.cls-6{fill:#242424;}.cls-7{fill:#414141;}</style></defs><path class="cls-1" d="M0,1586.15v-58c7.62-9.27,18.92-7.91,28.74-8.6,50.23-3.54,99.71.14,147.22,18.68,29.56,11.54,57.73,25.55,81.27,44.74,1.88,2.29,2.13,0,1.24,1-.39.43-.75.46-1,0-15.62-26.88-31.82-53.38-51.14-77.84-51.07-64.65-112.61-116.64-186.2-154.1-7.32-3.73-15.29-6.58-20.14-13.91V992.25A80.85,80.85,0,0,1,14,974q179.3-179.06,358.52-358.17c3.93-3.92,7.47-11.23,13.86-8.88,7.4,2.73,4.56,10.9,4.57,16.81q.18,285.85.19,571.71c0,5.1-2.62,12.49,2.57,14.77s8.69-4.75,12.28-8.33Q694.83,913.35,983.67,624.74c11-11,15.7-22.63,15.56-38.07C998.67,527,999,467.4,999,407.77c0-11.16,0-22.26,1.71-33.42.86-5.78.86-12.11-3.12-18.19-2.88-4.4-.44-11,.24-16.55,1.65-28.12,2.25-56.21-.53-84.29-.34-8-3.21-16.28,3.07-23.54,1.15-1.32,1-4,.71-5.75-4.39-28.06-1.6-56.29-2-84.42C998.59,100.08,999,58.53,999,17c0-6-.63-12.25,5-16.58h2a14.2,14.2,0,0,1,5,11.41c-.11,4,0,8,0,12q0,275.16.06,550.31c0,8.79-1.72,18.24,6,25.29,9.08,7.27,19.55,8.09,30.79,8.08q243.81-.33,487.63-.18c5,0,10-.31,14.54,2.1,4.39,7,3.94,8.61-4,9.82-18.11,2.77-36.19,5.62-54.1,9.6q-156,34.73-275.42,141-152.74,136.35-193.95,337c-6.71,32.29-11.28,65-11.52,98.07-.05,6.31-.37,13,6.92,16.29,1.91.71,3.82,1.64,5.8,1.57,20.33-.71,40.08,4.75,60.48,4.73q457.38-.48,914.77-.22c72-7.85,144.31-2.35,216.45-4,4.33-.1,8.67-.13,13,.1,16.89.92,22.38,6.61,22.47,23.26,0,5,.23,10-.21,15-.28,3.16.4,6.92-3.83,8.33-13.81,3.14-27.86,1.46-41.74,1.44q-567-.8-1134-.1c-16.47,0-32.94-.69-49.41.53-9.74.72-10,.88-6,9.88,3.75,3.92,8.58,4.94,13.67,5.26,6.66.43,13.33.27,20,.27q586.36,0,1172.73-.06c33.91,0,28.85,5.51,28.66,28.82-.05,6.1,3,13.45-4.11,18.17-4.82,1.9-9.87,1-14.82,1q-593.64.06-1187.27,0c-6.32,0-12.66-.16-19,.32-6.14.47-10.18,2.93-9.27,9.89.76.86,1.4,1.73,2.17,2.53,2,1.44,4.06,2.79,6.41,2.71,16-.51,31.59,4.42,47.47,4.43q555.84.21,1111.68.08c15.91,0,31.35-5.61,47.48-4,5.38.53,10.61.64,15,4.22,3.29.85,3.7,3.55,3.9,6.24a236.77,236.77,0,0,1,.1,31c-.43,8-6.69,9.19-12.54,10.22-5.57,1-11.31.41-17,.41l-1172.61,0c-6.66,0-13.33-.18-20,.31-5.11.37-9.89,1.54-13.22,5.9-3.26,6.5-2.48,9.25,5.94,9.44,16,.35,32,.28,47.94.3,313.9.4,627.8-.39,941.71.39,76.5.19,153-.29,229.51-.28a55.16,55.16,0,0,1,5.78.78c2.76.48,3.86,2.38,4.13,4.9a138.56,138.56,0,0,1,0,32.88c-.87,6.65-7.09,8.16-12.69,9s-11.31.35-17,.35H1048.4c-6.33,0-12.66-.14-19,.24-5.44.33-10.62,1.32-14.18,6-3.36,6.66-2.19,9.3,6,9.45,16.67.32,33.34.24,50,.24q462.24,0,924.49,0,122.46,0,244.93,0a18.92,18.92,0,0,1,5.82,1.14c.31.15.73.2.9.43,5.25,7.15,5,34.63-.32,42.54-12.46,4.64-25.5,1.21-38.28,2.16-10.65.8-21.62-.27-32.45-.27q-554.37,0-1108.75,0c-15.58,0-31.17.6-46.76-.34-6.1-.37-9.24,3-8.78,9.35.4,5.51,1.41,9,8.7,8.95,16.87-.15,33.76,0,50.64,0q558.39.11,1116.76.16c19.46,0,39-1.62,58.43,1.12.32.16.72.22.89.45,5.15,7.08,4.87,35-.37,42.41-12.17,4.49-24.85,1.3-37.29,2.07-11.29.71-22.74-.14-34.11-.14q-554.79,0-1109.57,0c-14.79,0-29.59-.69-44.39.47-9.72.76-10,.91-6.09,9.92,3.72,4,8.56,5,13.65,5.29,5.33.35,10.66.26,16,.26q590.43,0,1180.88,0c3,0,6-.11,9,0,11.67.52,15.36,4.42,15.69,16.31.18,6.33.21,12.66,0,19-.33,10.78-2.47,13.12-13.28,14.39-5.63.65-11.31.29-17,.29q-587.94,0-1175.88,0c-7,0-14-.46-21,.77-3.63.65-7.78,1.59-7.82,6.22s4.16,5.58,7.78,6.22c6.93,1.22,14,.76,21,.76q590.44,0,1180.89.05c8.41,0,17.26-1.42,24.27,5.28a156,156,0,0,1-.12,41.68,5,5,0,0,1-3.37,2.21c-16.93,5-34,3.31-51,.38-4.26-.73-8.42-1.61-12.76-1.61q-557.41,0-1114.83.29c-14.43,0-28.84,4.2-43.49,4.25a8.85,8.85,0,0,0-6.1,3,26,26,0,0,0-1,2.86c1.29,6.09,6.35,5,10.42,5.59,40,5.52,80.25,4,120.44,4q431.28,0,862.55-.22c24.79,0,49.45-4.54,74.45-3.94,47.94,1.16,95.92,0,143.88.22,6.2,0,12.55-.51,17.55,4.41,6.6,4.92,2.58,12.11,2.37,17.6-.24,6.69-1.82,13.63-2,20.54-.15,6.53-4.08,8.8-9.69,9.2-5.31.37-10.65.19-16,.19H1048.06c-6.33,0-12.66-.14-19,.25-5.44.34-10.62,1.35-14.2,6-3.51,8.76-3.48,8.36,6.24,9.13,17.13,1.34,34.25.49,51.37.5q463,.15,926,0c79.37,0,158.73.68,238.1-.26,3.14,0,7.1-.7,10.2,1.67,7.81,8.09,3.08,18,3.79,27,.28,3.58-.41,7.4-4.84,8.77-12.07,4-24.76,2.19-37,2.28-27,.2-54.11.49-81.11,0-28.56-.46-57.18-.94-85.69-.86-38,.11-76-.43-114,.27-23.63.44-47.3.71-70.89.69-21,0-42.28-.82-63.35-.83-15.52,0-31.19-1-46.82.75-6.38.72-13.08-.65-19.49,1.43-29-3.55-58.09-1.62-87.14-1.71-112.45-.35-224.9-.13-337.34-.26-92.74-.11-185.48.42-278.23-.15-5.48,0-12.87-1.17-12.71,8.28-1.4,6.59-1,13.27-1,19.92q0,286.65,0,573.28c0,6.6.93,13.37-2.31,19.62a29.89,29.89,0,0,1-2.65,3H794a14,14,0,0,1-5-11.38c.15-4.33,0-8.66,0-13q0-340.93,0-681.86c0-6.33.32-12.68-.52-19-1.32-9.86-5.51-14.22-15.49-15.16a172.33,172.33,0,0,0-32,0c-10,.94-14.17,5.3-15.49,15.16-.84,6.3-.52,12.65-.52,19q0,343.43,0,686.86c0,6.78,1.7,14.2-5,19.37H672a14,14,0,0,1-5-11.38c.15-4.33,0-8.66,0-13q0-340.93,0-681.86c0-6.33.32-12.68-.52-19-1.32-9.86-5.51-14.22-15.49-15.16a172.33,172.33,0,0,0-32,0c-10,.94-14.17,5.3-15.49,15.16-.84,6.3-.52,12.65-.52,19q0,343.43,0,686.86c0,6.78,1.7,14.2-5,19.37H0V2360c3.61-6,9.12-9.51,15.25-12.53,57-28.1,107.17-65.51,151.59-110.72a450.17,450.17,0,0,0,41.32-48.62c2.08-2.84,6.51-5.55,4.89-9.13-1.69-3.75-6.59-1.9-10.05-1.9q-81.36-.15-162.71-.07c-9.31,0-18.63-.08-27.95,0-4.89.05-9.26-.82-12.34-5v-56c4-5.73,10-5,15.74-5,70.31,0,140.64-1,210.92.52,25.09.56,37.62-8.76,47.25-31.26,23.15-54.06,38.85-109.79,46.14-168.05,3.55-28.34,1.23-31.18-27.4-31.19q-138,0-275.91,0c-6,0-12.49,1.14-16.74-5v-56c3.81-5.48,9.56-5,15.18-5q132.87-.08,265.75,0c8.32,0,16.66.31,25-.17,12.2-.71,15.55-5,13.17-17.79-8-43.12-26-81.82-54.08-115.41-56.26-67.29-128.83-98.74-216.26-96.44-12.66.33-25.17,2.43-37.63,4.62C6.48,1590.71,2.74,1590.24,0,1586.15Z"/><path class="cls-2" d="M1638,.41h608c4.08,5.25,3,11.45,3,17.35q.08,190.94,0,381.88v171c0,4.33-.08,8.66.13,13,.71,14.57,5,18.92,19.48,19.6,5,.23,10,.12,15,.12h554.93c4.34,0,8.67,0,13,0,13.93.15,17.15,3.38,17.49,17.47,1.29,53.44-7.66,105.43-21.73,156.77-20.71,75.53-55.35,144.26-102.13,206.68-42.9,57.23-94.52,105.53-154.2,145.31-68,45.33-142.13,75.74-221.93,92.33-34.93,7.26-70.35,11.43-106.15,11.3-4,0-8,.37-11.88-1.08-2.64-7.68-8.19-13.18-13.8-18.78q-292.36-292.18-584.64-584.47c-3.53-3.53-7.2-6.94-10.49-10.71-5.45-6.24-3.22-13.22,5-14.15,10.25-1.16,20.71-1.55,30.77,1.17a63,63,0,0,0,16.68,2.17q248.92,0,497.84-.08c11.59,0,22.77-2.89,33.7-6.2,1.57-6.07-3.77-8.19-6.78-11.21q-141.41-141.17-282.58-282.56Q1791.43,162.21,1646.28,17q-3.88-3.89-7.6-7.94C1636.1,6.31,1635,3.56,1638,.41Z"/><path class="cls-2" d="M3484,890.26v58c-2,14-2.06,28.18-3.62,42.27a148.32,148.32,0,0,1-11,42.3c-46.76,109.35-128.05,177.28-245.63,197.27-63.28,10.76-125.21,1.24-184.06-26.85-45.89-21.91-84.23-53-114.59-92.87-40.75-53.54-63.45-114.14-64.3-182.43-.46-37.71,3.31-74.51,15.73-110.15,19.85-57,52.85-104.9,99.63-143.37,32.69-26.89,69.68-45.25,109.76-57.95,12.55-4,25.57-4.85,38.58-5.8-10.75.76-21.39,2.63-32.2,2.63q-105.48,0-211,0c-16.5,0-20.28-3.7-20.28-20.15q-.08-288.39,0-576.77c0-5.61-2-12.55,6.28-14.94q304-.09,607.87,0c2.92,0,6-.84,8.77,1v605.9c-3,4.29-7.36,5-12.2,5-72.24,0-144.48.14-216.73-.11-10.8,0-21.45-2.58-32.27-2.93,42.6,1.68,80.6,17.51,116.21,39.32,66.49,40.73,111.4,98.85,136.29,172.63,6.07,18,6.25,36.74,7.73,55.35C3483.36,881.79,3481.9,886.17,3484,890.26Z"/><path class="cls-3" d="M3484,2426v42H2252c-3.35-2.67-2.87-6.39-2.95-10.08-2.56-129.07,40.46-243,115.84-345.83,52-70.88,116.87-127.46,193.43-170.5a621,621,0,0,1,239.07-76.87,645.05,645.05,0,0,1,97.74-3.42c79.35,3.37,155.63,20.7,228.43,52.76,59,26,113,59.87,161,102.85,71.26,63.79,127.15,138.78,162.39,228.28,14.47,36.75,27.72,73.88,32.31,113.44,2.22,19.15,3.84,38.35,3.76,57.66C3483.05,2419.52,3482,2422.94,3484,2426Z"/><path class="cls-4" d="M1004,342.28c0,84.64-.08,169.28.18,253.92,0,10.38-3,18.24-10.47,25.68Q695.45,919.6,397.5,1217.59c-2.66,2.67-5.11,8-9.23,6.19s-2.2-7.18-2.2-11Q386,921.88,386,631a124.73,124.73,0,0,0-.32-13c-.46-4.34-2.52-5-6-2.16-2.8,2.34-5.3,5.06-7.89,7.65L16.19,979.05c-5,5-9.71,10.13-16.19,13.2V.41H608c4.37,6-1.2,6.66-4.56,7.86-14.75,5.28-29.48,10.57-43.35,18C461.69,78.73,404.4,159.83,393.22,271.1c-8.66,86.18,16.85,162.64,73.78,228,52.44,60.21,118.86,94.47,198.34,102.24,87,8.5,164-15.72,230.4-72.8C951,481,983.67,420.79,996.66,349.41,997.27,346.05,995.21,338.1,1004,342.28Z"/><path class="cls-3" d="M2866,2.44q0,291.44,0,582.88c0,4.33-.14,8.68.23,13,.62,7.15,2.76,9.2,10.05,9.81,4,.33,8,.21,12,.21h251.8l.22,2c-6.08,1.09-12.15,2.22-18.24,3.25a305.93,305.93,0,0,0-118.12,46.83c-49.41,32.53-86,76.26-110.7,129.89-18.38,39.92-27.12,81.88-27.45,125.94-.27,37.15,5.14,73.16,18,107.84,14.87,40,36,76.47,66.21,107.18,18.76,19,38.58,36.62,61.58,50.63,38.14,23.25,79.09,38.27,123.36,44q83.1,10.68,160.59-21.48c28-11.64,53.87-26.85,76.72-46.38,32.37-27.67,59.57-59.85,79.15-98.22,14.41-28.22,23.44-58,29.44-88.87,1.47-7.52.28-15.39,3.16-22.69v857.85c-7.67,4.07-6.8-2.36-6.8-6.09,0-13.72-1.9-27.22-3.89-40.72a628.56,628.56,0,0,0-50.56-170.85C3391.27,1519.67,3348,1459.27,3294,1407c-86.08-83.31-188.32-137.12-305.89-161.63a593.88,593.88,0,0,0-155.95-11.76c-99.38,5.77-192.47,33.45-278.43,84.29-107.75,63.73-188.46,152.26-243,264.66-30.21,62.28-48.66,128.08-56,197-.74,7-1.71,13.86-2,20.86-.12,2.62-.44,5.75-3.65,6.39a4.87,4.87,0,0,1-6-3.89c-1.87-6.36-.13-12.24.75-18.6,2-14.5,3.45-29.55-1-44.11-2.41-7.88-2.86-15.36,2.81-22.13a321,321,0,0,0,0-38c-5.1-8-4.65-15.68-2.09-25.11,3.62-13.34,2.79-27.85.2-41.48-1-5.3-2.61-10.1-1.39-15.5a126.93,126.93,0,0,0,.3-54.15c-.6-2.93-1.57-6-.58-8.83,4.95-13.92,2.18-28.31,2.85-42.48a20.07,20.07,0,0,0-.86-7.83c-2.63-7.6-1.78-14.74-.16-23a108.75,108.75,0,0,0-.21-41.54,54.08,54.08,0,0,1,0-22c2.74-13.69,3.13-28.29-.44-42.32-1.14-4.47-2.89-8.81-1.35-13.41a85.27,85.27,0,0,0,2.54-42.39c-4.58-24.64,4-48.71.39-73,2.83-2.65,5-1.06,7.14,1.07,73.5.18,144.35-14,213-39.63a582.36,582.36,0,0,0,102.22-50c34.33-21.2,66.26-45.67,96.5-72.58,28.57-25.41,53.05-54.31,76.58-84.06,18.19-23,33.41-48.16,47.7-73.8a603.27,603.27,0,0,0,55.68-137.67,644.35,644.35,0,0,0,18.56-102.12,395,395,0,0,0,1.67-46.89c-.17-10.72-2.33-12.71-13-13.09-4-.14-8-.06-12-.06H2269.09c-4.33,0-8.68.13-13-.2-7.47-.57-10-2.82-11.24-10.25a74.32,74.32,0,0,1-.78-11.94c-.09-14.33,0-28.66,0-43q0-260.37,0-520.74c0-7.32-.45-14.69,2-21.8h618C2864.55,1.19,2866,1.1,2866,2.44Z"/><path class="cls-4" d="M2245.64,1718.07q.18,43,.37,86c4.15,1.63,4.65,5.23,4.83,9,.22,4.66.16,9.32.16,14q0,277.17,0,554.33c0,25.87-2.82,51.67-1.87,77.58.1,2.78.49,6.94-3.12,9h-2c-8.46-2.89-14.09-9.28-19.56-15.85-20.85-25.1-41.55-50.32-62.77-75.11-5.64-6.59-12.22-9.92-20.78-10q-30.48-.15-61,0c-3.19,0-7.26-.68-8.56,3.38-1.17,3.67,2,6.09,4.08,8.6,20.49,24.53,41,49,61.27,73.76,3.31,4,10.37,7.78,5.29,15.16H1006v-2a14.24,14.24,0,0,1,11.38-5.05c4,.1,8,0,12,0q280.14,0,560.27-.05c8.8,0,18.24,1.7,25.32-6,5.08-6.34,4-13.88,4-21.13q.09-175.35,0-350.7c0-25.31.09-50.63,0-75.94-.08-21.57,8-43,3.53-64.36-5.58-26.53-2.4-53-3.3-79.51-.14-4.23-1.55-9.6,3.87-12.37,7.13-4.08,11.15,1.53,14.65,5.7,21,25,42.65,49.43,62.78,75.09,9.69,12.34,20.43,18.69,36.52,17.59,16.91-1.15,34-.16,51-.33,3.24,0,7.18.54,8.92-3s-1.35-6.29-3.38-8.75c-21.82-26.46-44.28-52.38-65.83-79.06-2.91-3.59-5.54-6.87-1.34-11.21,9.61-5,19.94-2.57,30-2.69,31.32-.34,62.65-.07,94-.18,112.8-.39,225.6.64,338.4-.36,14.53-.13,29.16-.22,43.73.43,4,.17,8.72.48,11.35-4.05l0-31.87c-6.17-6.57-14.33-2.9-21.32-3.3-9.13-.51-18.47-.12-27.71-.12q-569.49.06-1139,.09c-12.94,0-25.88.37-38.81,0-10.92-.31-12.08-1.52-12-12,0-2.93-.82-6,1-8.77l1208.59,0c4,0,8,0,12,0,16-.11,17.25-1.31,17.35-16.88,0-7.67,0-15.33,0-23-3.72-2.23-7.82-1-11.71-1q-606.53-.09-1213.05-.06a54.3,54.3,0,0,0-7,.05c-5.75.75-7.92-1.64-7.2-7.29.67-5.22-1.09-10.61,1-15.75,3.78-2,7.86-1,11.77-1q607.23-.09,1214.47-.11c3.91,0,8,1.06,11.77-1Z"/><path class="cls-2" d="M2246,2468c-.08-5.66-.22-11.31-.22-17q0-318.48,0-637c0-3.33.13-6.66.21-10,3-8.65,2.47-17.79,3.45-26.69,5.41-48.94,16.93-96.39,33.51-142.7,19.58-54.69,47.57-104.94,81-152.17a448.83,448.83,0,0,1,48.78-58.14c17.9-17.89,35.15-36.49,54.76-52.59,11.58-9.51,23.34-18.83,35.52-27.54a628.6,628.6,0,0,1,202.16-95.91c33.46-9.11,67.64-14.78,102.24-18.15,31-3,62-3,92.88-1.57a589.79,589.79,0,0,1,148.17,26.63,631.92,631.92,0,0,1,119.26,51.11,572.15,572.15,0,0,1,78.14,52c20.89,16.61,41.26,33.77,59.92,52.81a649.67,649.67,0,0,1,86.45,109.65c49.61,79,78.06,165.23,89.08,257.56,1.1,9.23-.73,18.73,2.63,27.74V2426a30.43,30.43,0,0,1-1.9-9.76c-2.58-50-14.22-98.1-30.88-145.11-15.87-44.78-36.27-87.41-62.73-126.89-19.47-29.06-40.82-56.7-65.13-82.06-26.1-27.23-53.5-52.88-84-75.09-63.44-46.17-132.81-79.94-208.82-99.91a615.64,615.64,0,0,0-105.21-18.53,649,649,0,0,0-99.78-1,661.34,661.34,0,0,0-105.57,16.1c-72.46,17-139.2,47.24-201.14,88.4A599,599,0,0,0,2408.45,2067c-46.27,50.51-83.35,107.21-110,170.45a592.66,592.66,0,0,0-44,169.67A441.51,441.51,0,0,0,2252,2468Z"/><path class="cls-5" d="M1004,342.28c-2.21,5.64-2.84,11.65-4,17.52-13,64.81-43.72,119.91-91.75,165-50.2,47.13-109.9,74.52-178.54,81.79-73.68,7.79-142.27-7.69-203.77-49-79.37-53.27-126.16-127.86-137.49-223.18C378,246.84,402.18,168.5,457.85,100.65A299.25,299.25,0,0,1,594.13,6c4.73-1.62,9.55-3,13.87-5.63H784c52.93,8,93.75,37.36,131.49,73,33.3,31.47,57.09,68.84,74.71,110.78,8.86,21.09,11.3,43.12,12.81,65.48.16,2.26-.7,4.68,1,6.72Q1004,299.36,1004,342.28Z"/><path class="cls-5" d="M1638,.41c4.3,4.64,8.45,9.42,12.91,13.89q290.4,290.41,580.83,580.81c4.23,4.23,8.18,8.74,12.27,13.13-3.75,2.15-7.83,1-11.73,1q-288.35.11-576.68-.15c-10.18,0-19.7,4.95-30,2.65a4.59,4.59,0,0,1-2.72-2.81c-3.54-4.42-3.55-9.68-4-15-1.23-16.06,3.85-31.61,3.88-47.43q.39-243.21.09-486.43c0-15.21-5.19-30-3.94-45.47.49-6,1.59-11,7-14.18Z"/><path class="cls-6" d="M1006,606.31V.41h618c1.7,2.42,1,5.17,1,7.77q0,298.08,0,596.18a31.53,31.53,0,0,1-.25,5c-3,5.45-8.48,3.56-13,4.17-3.9.52-7.84.79-11.74,1.36-9.64.9-19.32.55-29,.34-7.53-.16-13.25-6.48-21.15-6.55-12.54-.12-25.08-.26-37.62-.28-165.21-.39-330.41.52-495.61-.37C1012.91,608,1009.3,608.48,1006,606.31Z"/><path class="cls-5" d="M0,1876.1l305,.13c4,0,8-.11,12,.14,8.81.55,11.15,3,10.73,12-.38,8-1.24,16-2.18,23.88a577.4,577.4,0,0,1-56.69,190.69c-4.87,9.79-11.18,13.3-21.84,13.27-82.32-.28-164.64-.12-247-.1Z"/><path class="cls-5" d="M0,1586.15c23-4,46-6.83,69.49-6.14,44.84,1.31,86.87,12.64,125.6,35.18,37.72,22,68.83,51.13,92.31,88.11,19.88,31.31,33.1,65.2,38.79,101.92a48.25,48.25,0,0,1,.76,5.94c.16,5.76-1.48,7.86-7.35,8.53a114.34,114.34,0,0,1-13,.35L0,1820.11Z"/><path class="cls-5" d="M720,2468q0-223.93-.08-447.88,0-138.46,0-276.93a113.89,113.89,0,0,1,.3-12c.66-6.16,2.67-8.67,8.79-8.78q28-.53,56,0c6.12.11,8,2.63,8.81,8.78a64.3,64.3,0,0,1,.28,8q0,362.42,0,724.81c0,1.33,0,2.67-.06,4Z"/><path class="cls-5" d="M598,2468q0-364.39,0-728.8c0-15.89,1.23-17.07,17-17.13,14.66-.06,29.33-.14,44,.07,10.75.16,12.65,2.27,13,13.06.08,2,.05,4,.05,6V2459c0,3-.06,6-.09,9Z"/><path class="cls-5" d="M0,1338.19c15.41,3.82,28.74,12.2,42.37,19.76,53.81,29.81,100.62,68.51,142,113.81a542.58,542.58,0,0,1,77.4,110c1.56,2.92,2.79,6,4.06,9.09.2.49-.21,1.23-.45,2.48-5-.43-8-4.27-11.55-6.87-41.81-30.73-88.19-50.54-139.44-58.86-34.12-5.53-68.28-5-102.47-.67-4,.5-7.94.85-11.91,1.27Z"/><path class="cls-5" d="M0,2172.05q102.93,0,205.87.16c5.48,0,13.14-2.66,15.93,2.29,3,5.4-4.05,9.74-7.25,14-54.48,72.42-122.85,128-204.37,167.41C6.89,2357.5,3.4,2358.66,0,2360Z"/><path class="cls-3" d="M3484,890.26c-3.1-10.61-2.76-21.72-4.89-32.52-8.45-42.88-26-81.73-50.7-117.51-28.58-41.42-65.82-73.27-110.2-96.48a296.57,296.57,0,0,0-98.46-31.68c-2.31-.31-4.61-.67-6.9-1.11a21.7,21.7,0,0,1-2.95-1c1.51-.4-.38.2.37-.9a1.23,1.23,0,0,1,.87-.4c3-.12,6-.29,9-.29l263.88,0Z"/><path class="cls-4" d="M1004,256.41c-2.66-12-4.92-24.15-8.05-36.06a303.52,303.52,0,0,0-76.58-136c-35.73-37-77.58-63.63-126.2-80C790,3.35,787,1.76,784,.41h220Z"/><path class="cls-6" d="M2142,2468c-19.55-25.25-40.7-49.18-60.92-73.87-6.53-8-13.28-15.77-19.7-23.84-4.08-5.13-3-7.62,3.68-8,8-.45,16-.25,23.94-.25,18.3,0,36.59.13,54.89,0,7.82-.06,14.17,2.29,19.29,8.44q37,44.48,74.2,88.79c2.34,2.81,4.42,5.83,6.62,8.75Z"/><path class="cls-7" d="M2866,2.44l-2-2q306,0,612,.11c2.62,0,6.14-2,8,1.89Z"/><path class="cls-6" d="M1624,608.11q0-303.85,0-607.7h2q-.06,100.95-.1,201.88,0,191.88,0,383.76c0,7.33-.12,14.66-.19,22C1625.16,608.79,1624.59,608.81,1624,608.11Z"/><path class="cls-5" d="M1624,608.11c.57,0,1.14,0,1.7-.07l.66.48c8.48,2.53,14.43,8.53,20.47,14.56q294,294,588,588c3.29,3.29,7,6.26,9.6,10.14,3.31,5,2,8.16-4.53,8q-611.08,0-1222.1,0c-3.92,0-8,1-11.78-.93-1.84-86.76,16.89-169.29,51.22-248.61,23.87-55.15,55.64-105.41,94.39-151.23A619.66,619.66,0,0,1,1497.1,622.14c13.69-2.85,27.57-4.81,41.35-7.26,3.92-.69,7.8-1.65,11.7-2.48,2.13-4.55,6.06-2.31,9.4-2.61,13.51-1.2,27.12.6,40.59-1.44Z"/><path class="cls-6" d="M1624,2466H1006V1852.1c-3.31-6.88,2-6.83,6.08-7.21,17.74-1.64,35.53-.73,53.3-.7,168.83.22,337.66-.76,506.49.41,16.11.11,32.2-1.4,48.34.81,4.82.66,6.58,1.66,5.37,6.32-1.12,4.27-.55,8.61-.55,12.91q0,294.79-.08,589.59C1625,2458.14,1626,2462.21,1624,2466Z"/><path class="cls-4" d="M1006,1228.23H2244c.58-.8,1.11-.73,1.59.08q.11,64.47.21,128.94,0,161.41-.12,322.84a40,40,0,0,0-12.8-1.89c-4.66,0-9.33,0-14,0H1029.09c-5.33,0-10.69.17-16-.35-6.64-.65-8.79-3.59-8.93-10.83-.15-7.75,2.17-11.44,8.66-12.29a116.67,116.67,0,0,1,15-.51q373.44,0,746.87,0H2221.6c4.33,0,8.68.12,13-.3,6.28-.62,8.57-2.56,9-8.61a167.63,167.63,0,0,0,0-22c-.39-6.15-2.62-8.13-8.82-8.78a127.55,127.55,0,0,0-13-.32h-294l-921.83,0a2.84,2.84,0,0,1-.44-.89c-.6-6.24-2.81-13.5,1.2-18.29,3.31-4,10.19-.44,15.21-1.1,11.07-1.48,22-.38,33-.38q570.3-.1,1140.61,0c13.34,0,26.67-.76,40-.08,2.86.15,6.35-.19,8.28-3.34v-39.74c-7.65-6.57-17.14-3.42-25.31-3.4-154.24.38-308.49-.1-462.73,0q-352.45.18-704.91.08c-12.12,0-24.26,0-36.38.62-6.26.33-9.91-1.7-9.84-9.36s3.15-9.06,9.92-9.06q592.06.75,1184.12.29c12.28,0,24.55-.73,36.85-.06,2.85.16,6.35-.18,8.27-3.34q0-19.87,0-39.74c-6.26-6.46-14.41-2.74-21.46-3.21-8.49-.57-17.21-.23-25.82-.23q-570.83.09-1141.64.11c-13.48,0-27,0-40.47.28-6.47.14-10.76-1.57-9.55-9.29.61-3.89-1-8,1-11.77l1210.58,0c4.33,0,8.66,0,13,0,12.43-.27,14.18-2,14.35-14.83.11-8.33,0-16.66,0-25-6.25-6.46-14.41-2.73-21.46-3.21-8.48-.58-17.21-.23-25.82-.23Q1625.8,1419,1055,1419c-13.49,0-27,0-40.48.28-6.47.14-10.76-1.57-9.55-9.29.61-3.89-1-8,1-11.77l1209.61,0c4,0,8,0,12,0,14.68-.15,16.19-1.58,16.33-15.89.08-8,0-16,0-24-3.74-2.19-7.83-1-11.73-1q-607.21-.11-1214.44-.12c-3.92,0-8,1.06-11.77-.94h0c-.08-7.1-5.17-15,3.5-20.86q604.55-.15,1209.18-.18c6.92,0,13.85-.21,20.77-.14,2-.23,3.23-1.59,4.46-2.93,0-7.66.09-15.32,0-23-.1-15.56-1.37-16.77-17.37-16.87-4,0-8,0-12,0l-1208.58,0a3,3,0,0,1-.44-.9c-.6-6.23-2.81-13.5,1.2-18.28,3.31-4,10.19-.45,15.21-1.11,11.08-1.48,22-.38,33-.38q571.37-.11,1142.72,0c12.63,0,25.26-.79,37.91-.08,2.86.16,6.35-.19,8.28-3.33,0-7,.09-14,0-21-.1-15.35-1.44-16.71-16.37-16.87-4,0-8,0-12,0q-593.91,0-1187.81,0C1020.48,1230.18,1013.07,1231,1006,1228.23Z"/><path class="cls-5" d="M327.87,2112.6c2.89,2.83,2,6,2,8.75q.09,137.94,0,275.9c0,1,0,2-.06,3-.53,9.2-2.39,11.15-11.29,11.72-2,.13-4,.1-6,.1q-135.48,0-270.95,0c-3.53,0-7.26.78-12.25-2.06C163.79,2345.1,262,2245.1,327.87,2112.6Z"/><path class="cls-5" d="M327.67,1585.25c-64.58-132.91-162.43-231.32-294.18-296.53,4.06-3.51,7.51-2.61,10.67-2.61q134.88-.09,269.77,0a54.1,54.1,0,0,1,7,.28c6.09.81,8,2.72,8.74,8.92a89.63,89.63,0,0,1,.28,10q0,133.37,0,266.73C329.9,1575.79,330.68,1579.81,327.67,1585.25Z"/><path class="cls-5" d="M597.94,1336.24q0-44.43,0-88.86a89.59,89.59,0,0,1,.28-10c.69-6.15,2.62-8.62,8.79-8.73q27.94-.53,55.9,0c6.21.11,8.13,2.55,8.88,8.67a76.6,76.6,0,0,1,.28,9q0,89.85,0,179.72c0,17.16-.9,18-18.06,18.07-14,0-28,.11-41.94,0-12.11-.14-14-2-14.07-14-.13-31.29,0-62.57,0-93.86Z"/><path class="cls-5" d="M719.92,1336.23q0-44.43,0-88.86a89.45,89.45,0,0,1,.29-10c.7-6.15,2.63-8.61,8.81-8.72q27.94-.53,55.9,0c6.2.12,8.13,2.56,8.87,8.68a76.6,76.6,0,0,1,.28,9q0,89.87,0,179.72c0,17.15-.91,18-18.08,18.06-14,0-28,.11-41.94,0-12.1-.14-14-2-14.07-14-.13-31.28,0-62.57,0-93.85Z"/><path class="cls-4" d="M2243.9,1526c-1.69,4.35-5.2,5.83-9.51,5.94q-7.5.18-15,.18l-1188.95,0c-5.33,0-10.67,0-16,.38-3.42.23-7,1.28-7,5.61s3.55,5.37,7,5.61c5.31.36,10.65.37,16,.37q594.48,0,1189,0,7.48,0,15,.18c4.3.11,7.82,1.59,9.52,5.94-7,0-14-.12-21-.12q-596.47,0-1192.95,0c-5.33,0-10.7.18-16-.33-7.36-.72-9.9-4.21-9.79-12.32.1-7.61,2.43-10.47,9.78-11.08,5-.41,10-.24,15-.24l1193,0C2229.24,1526.15,2236.57,1526.07,2243.9,1526Z"/><path class="cls-4" d="M1006,1784.13c0,1.33,0,2.66.06,4,.66,11,3,13.35,13.87,13.86,5,.23,10,.13,15,.13H2219.4q7.5,0,15,.18c4.31.11,7.82,1.59,9.51,5.94-6.67,0-13.33-.12-20-.12l-1193.52,0c-5,0-10,.15-15-.2-8.52-.6-10.93-3.33-11.25-12A29.11,29.11,0,0,1,1006,1784.13Z"/><path class="cls-4" d="M1006,1398.19c.25,17.36.85,18,19.25,18H2219.41q7.5,0,15,.19c4.3.1,7.81,1.59,9.51,5.93-6.67,0-13.33-.12-20-.12H1030.38c-5,0-10,.14-15-.2-8.52-.6-10.93-3.33-11.25-12A29.13,29.13,0,0,1,1006,1398.19Z"/><path class="cls-4" d="M1006,1462.18c.25,17.36.85,18,19.25,18H2219.41q7.5,0,15,.19c4.3.1,7.81,1.59,9.51,5.93-6.67,0-13.33-.12-20-.12H1030.38c-5,0-10,.14-15-.2-8.52-.6-10.93-3.33-11.25-12A29.13,29.13,0,0,1,1006,1462.18Z"/><path class="cls-4" d="M2243.91,1590c-1.7,4.34-5.21,5.83-9.51,5.94q-7.5.18-15,.18H1032.24c-4.66,0-9.33-.11-14,.1-9.64.43-11.56,2.36-12.17,11.89-.12,2-.06,4-.08,6a8,8,0,0,1-.32-.94c-4.5-18.63-1.18-23,17.7-23q149.45,0,298.89,0h901.65C2230.58,1590.14,2237.24,1590.06,2243.91,1590Z"/><path class="cls-4" d="M2243.91,1268.08c-1.7,4.33-5.21,5.83-9.51,5.93q-7.5.18-15,.18H1032.24c-4.66,0-9.33-.1-14,.1-9.64.43-11.56,2.37-12.17,11.89-.12,2-.06,4-.08,6a8.84,8.84,0,0,1-.32-1c-4.5-18.63-1.18-23,17.7-23q149,0,297.89,0h902.65C2230.59,1268.2,2237.25,1268.12,2243.91,1268.08Z"/><path class="cls-1" d="M1624,2466q0-297.89,0-595.76c0-4.66,0-9.34-.43-14s-3.16-7.25-7.73-7.73a84.19,84.19,0,0,0-9-.4q-292.44,0-584.87,0c-5.61,0-11.47-.65-16,4-3.4-4.25-2.3-7.6,2.53-9.29a48.39,48.39,0,0,1,11.7-2.34c5.3-.44,10.65-.35,16-.35q278.8,0,557.61,0c8.33,0,16.64.07,24.92,1.3a38.15,38.15,0,0,0,10,.27c26.25-3.08,52.58-1,78.87-1.48a44.62,44.62,0,0,1,18.44,3.91c2,1.48,1.53,3.17.41,4.91-2.9,5.11-8,4-12.4,4-28.67-.28-57.37,1.1-86-.89-2.65,6.72-2,13.78-2,20.74q0,270.21,0,540.42,0,19,0,38C1626,2456.25,1625.9,2461.25,1624,2466Z"/><path class="cls-4" d="M1010,1338.19c-5.23,5.13-3.66,11.77-4,18-.11-.31-.24-.62-.32-.94-4.51-18.63-1.18-23,17.7-23q146.94,0,293.88,0h906.66c6.66,0,13.33-.08,20-.12l0,4.09c-3.77,2.07-7.85,1-11.76,1q-605.17.09-1210.35.11C1017.86,1337.24,1013.78,1336.19,1010,1338.19Z"/><path class="cls-1" d="M1726,1848.11v-4c3.47-3,7.65-3.87,12.08-3.91s8.67-.08,13-.08h492.79c-.76,5.09-3.9,7.53-8.87,7.73-4.65.18-9.31.25-14,.25l-473.31,0c-6.63,0-13.35-.56-19.74,2C1726,1850.79,1725.2,1850.22,1726,1848.11Z"/><path class="cls-4" d="M1006,1720.13c.06,4-.12,8,.23,12,.63,7.14,2.74,9.24,10.06,9.78,5,.37,10,.22,15,.22q595.46,0,1190.91,0c7.29,0,14.71-.87,21.73,2.08-6.33,0-12.66-.11-19-.11H1029.05c-5,0-10,.15-15-.24-7.22-.57-9.29-2.82-9.86-10A30.58,30.58,0,0,1,1006,1720.13Z"/><path class="cls-4" d="M1006,1356.19q608.1,0,1216.21,0c7.29,0,14.7-.85,21.73,2-9,0-18-.09-27-.09q-594.6,0-1189.21,0C1020.47,1358.15,1013.07,1358.93,1006,1356.19Z"/><path class="cls-4" d="M2244,1718.12a32.3,32.3,0,0,1-11.76,2q-7,0-14,0H1006a34.24,34.24,0,0,1,12.76-2c5,0,10,0,15,0Z"/><path class="cls-6" d="M1600.14,608.35a54.84,54.84,0,0,1-7.7,1.59c-14.09.91-28.19,1.65-42.29,2.46-8.13-2.31-16.46-2.09-24.79-2.09q-249.64,0-499.3,0c-6.89,0-14.13,1.16-20.06-4C1204,607.42,1402.1,603.94,1600.14,608.35Z"/><path class="cls-2" d="M2245.58,1228.3c-.53,0-1.06,0-1.59-.08-4.3-4.63-8.47-9.39-12.94-13.85q-296.28-296.31-592.61-592.59c-4.24-4.23-8.8-8.17-12.09-13.26,6.33,0,12.66-.15,19-.15H2224c6.66,0,13.33-.08,20-.12-6.38,2.64-13.11,2-19.75,2q-248,0-495.9,0c-24.33,0-48.66,0-73,.07-3.18,0-7.6-1.34-9.08,2.2s2.7,5.64,4.92,7.87q31.37,31.56,62.88,62.95,263,263,526,525.9c5.39,5.39,11.71,10.23,11.93,18.9Z"/><path class="cls-3" d="M3175.38,764.28c82-2.44,155.19,69.33,155,155-.14,75-59.61,154.86-155.8,154.55-87.72-.28-154.8-70.4-154.44-155.86C3020.53,829.48,3094.62,762.08,3175.38,764.28Z"/><path class="cls-6" d="M3198,171.05c0,19.13,0,19.16-19.51,19.14-18.15,0-18.41-.26-18.43-18.25,0-4.31-.14-8.64.27-12.91.58-6.1,2.57-8.12,8.83-8.5a169.87,169.87,0,0,1,18.88-.07c7.38.37,9.2,2.4,9.89,9.66.06.66.07,1.32.07,2C3198,165.09,3198,168.07,3198,171.05Z"/><path class="cls-6" d="M3198.07,493.18c0,18.81-.15,18.94-18.77,18.95-19.23,0-19.23,0-19.24-19.46,0-20.49,0-20.49,19.26-20.48,18.56,0,18.72.17,18.75,19Z"/><path class="cls-6" d="M3198,299.14c0,19.34,0,19.38-19.33,19.37-18.45,0-18.61-.18-18.62-19.13,0-4-.13-8,.23-11.92.58-6.23,2.42-8.24,8.7-8.63a166.9,166.9,0,0,1,19.88,0c6.67.4,8.39,2.51,9.06,9.39.06.66.07,1.32.07,2Q3198,294.68,3198,299.14Z"/><path class="cls-6" d="M3160.11,234.05c0-2.65-.09-5.31,0-8,.41-9.32,2.1-11.21,11.07-11.54a169.26,169.26,0,0,1,17.88.15c6.28.44,8.35,2.4,8.7,8.6a198.89,198.89,0,0,1,0,21.84c-.36,6.58-2.58,8.62-9.42,9a167.31,167.31,0,0,1-18.87,0c-6.73-.38-8.71-2.47-9.25-9.16-.3-3.62-.06-7.28-.06-10.92Z"/><path class="cls-6" d="M3160.2,105.91c0-3.33-.22-6.68.05-10,.54-6.9,2.43-9.11,9-9.48a162.1,162.1,0,0,1,20,0c6.2.4,8.22,2.46,8.57,8.81a201.08,201.08,0,0,1,0,22c-.34,6.15-2.4,8.08-8.85,8.5a153.93,153.93,0,0,1-19,0c-7.32-.44-9.19-2.53-9.73-9.9C3160,112.58,3160.2,109.23,3160.2,105.91Z"/><path class="cls-6" d="M3197.94,429c.11,18.82-.06,19-18.76,19s-19.09-.38-19.11-18.91c0-4-.12-8,.26-12,.6-6.26,2.5-8.31,8.72-8.71a164.45,164.45,0,0,1,19-.09c7.39.37,9.33,2.41,9.87,9.72C3198.17,421.66,3197.94,425.34,3197.94,429Z"/><path class="cls-6" d="M3197.87,362.55c0,3.65.28,7.33-.06,11-.58,6.32-2.41,8.4-8.6,8.8a163.61,163.61,0,0,1-19.93.05c-6.29-.35-8.53-2.41-8.89-8.47a195.65,195.65,0,0,1,0-21.93c.33-6.25,2.37-8.4,8.55-8.84a143.94,143.94,0,0,1,19.92,0c6.69.47,8.5,2.64,9,9.49.27,3.3.05,6.64.05,10Z"/><path class="cls-1" d="M118,228.48c0,10.33.18,20.65,0,31s-2.31,12.57-12.27,12.79c-12,.26-24,.28-36,0-9-.23-11.37-2.45-11.49-11.46q-.39-31.47,0-62.94c.11-8.53,2.47-11,10.69-11.19q19-.54,38,0c8.35.21,10.69,2.6,11,10.92.34,10.32.08,20.65.08,31Z"/><path class="cls-1" d="M117.92,367.59c0,10.31.23,20.63-.06,30.93-.26,9.07-2.46,11.43-11.3,11.64q-18.94.46-37.91-.06c-7.82-.23-10.29-2.59-10.4-10.39q-.45-31.92,0-63.85c.12-8.26,2.81-11,10.87-11.21q19.44-.58,38.9,0c7.14.21,9.47,2.69,9.72,10,.38,11,.1,21.95.1,32.92Z"/><path class="cls-2" d="M2553.78,554.3q-117,0-233.93,0c-19.28,0-19.82-.53-19.83-19.42q0-109,0-217.91c0-17.68,2.18-19.85,20.07-20.47,3.33-.12,6.67-.09,10-.09H2700c23.24,0,24.75,1,36.41,21,36.26,62.12,58.52,129,68.7,200.08,1.14,7.9,1.87,15.88,2.46,23.85.72,9.75-1.82,12.4-11.84,12.87-3.66.17-7.33.09-11,.09Z"/><path class="cls-2" d="M2491.3,242.37q-86,0-172,0c-18.59,0-19.3-.69-19.31-19q0-77.47,0-154.95c0-17.64,1.26-18.29,19.14-16.7a545,545,0,0,1,134.31,29.73c59.77,21.19,113.19,53.23,161.95,93.39A549.55,549.55,0,0,1,2675,232.41a30.92,30.92,0,0,1,2.62,3c2.37,3.49,1.67,5.75-2.38,6.41a69,69,0,0,1-11,.53Q2577.79,242.4,2491.3,242.37Z"/><path class="cls-2" d="M2814.06,348.35C2747.71,204,2642.11,102.13,2498.61,39.46c1.33-3.88,4.07-2.63,6.11-3a25.26,25.26,0,0,1,4-.07h290.86c1.66,0,3.33,0,5,.09,9,.57,11.63,2.93,12.86,12a67.16,67.16,0,0,1,.5,9q0,136.92,0,273.82C2817.91,336.18,2818.35,341.25,2814.06,348.35Z"/><path class="cls-6" d="M2048.91,2297.94c-12.65,0-25.3,0-38,0-6.69,0-12.13-2-16.6-7.4-24.85-30-49.92-59.78-74.83-89.71-2-2.39-6-4.56-3.93-8.32,1.83-3.35,6-2.37,9.16-2.38,25-.09,50,.16,74.92-.16,9.22-.11,15.84,3.65,21.48,10.48q26.07,31.56,52.37,62.94c5.54,6.65,11.12,13.26,16.63,19.93a64.34,64.34,0,0,1,5.45,7.13c2.76,4.52,1.72,6.48-3.75,7.23a58.91,58.91,0,0,1-8,.29c-11.65,0-23.31,0-35,0Z"/><path class="cls-6" d="M1821,2020.1c12.31,0,24.62.18,36.93-.07,8.3-.16,14.61,2.91,19.92,9.29,23.57,28.4,47.34,56.65,71,85,.43.51.87,1,1.25,1.55,1.51,2.16,3.85,4.32,2.72,7.12-1.37,3.41-4.94,3-7.83,3q-39.93.07-79.85,0c-6,0-10.76-2.4-14.68-7.11-23.84-28.62-47.85-57.1-71.66-85.74-2.44-2.93-7.12-6-5.47-9.94,2-4.73,7.59-2.9,11.7-3,12-.21,24-.07,35.93-.07Z"/><path class="cls-6" d="M1726,1848.11l2,2,74.67,89.6a56.36,56.36,0,0,1,4.95,6.23c3,4.85,1.82,7.12-4.06,7.88a64,64,0,0,1-8,.25c-22.61,0-45.22-.33-67.82.16-10.51.22-18-3-24.76-11.5-24.48-30.63-50.87-59.68-75-90.59,2.38-5.27,7.25-3.93,11.32-4C1668.21,1848.06,1697.1,1848.11,1726,1848.11Z"/><path class="cls-3" d="M3162.25,1828.11H2917.4c-21.31,0-21.38-.06-21.38-20.87q0-113.91,0-227.82c0-18.53.69-19.23,19-19.23q208.38,0,416.75,0c3,0,6,.13,9,.13,6.3,0,10.48,3,13.55,8.48,29,52.16,50.39,107.16,62.2,165.8,5.4,26.84,8.61,53.9,10.68,81.14.71,9.38-1.42,11.78-11.1,12.28-3.66.19-7.33.1-11,.1Z"/><path class="cls-3" d="M2658,1577.12q0,115.44,0,230.9c0,4,0,8-.42,12-.42,4.58-3.19,7.23-7.77,7.7a89.52,89.52,0,0,1-9,.39q-160,0-319.92,0c-15.59,0-17.24-1.51-16.79-17.35.67-23.37,4.52-46.37,8.67-69.34,10.77-59.63,31.95-115.55,61.18-168.36,19.56-35.34,43.28-67.87,70.08-98.24,55.37-62.75,121.67-110.24,198.13-143.85,13.32-5.86,15.78-4.37,15.79,10.27Q2658,1459.17,2658,1577.12Z"/><path class="cls-3" d="M3012.09,1504.13H2743.2c-6.32,0-12.68.25-18.92-1.08-7.57-1.6-9.47-3.75-10.1-11.37-.22-2.65-.16-5.32-.16-8q0-80,0-159.9c0-18.08,1.07-19.13,18.83-23.17,27.64-6.28,55.45-12.11,83.77-13.47,22.53-1.08,45-3.7,67.78-1.61,19.53,1.78,39.24,1.86,58.71,4.71,56.41,8.22,110.55,23.86,162.17,48.4,42.06,20,81.26,44.37,117.12,74,27.79,22.95,53,48.63,76.32,76.08,2.67,3.15,7.43,6.47,5.65,10.94-2,5-8,3.86-12.42,4.25-4.64.41-9.32.23-14,.23Z"/><path class="cls-3" d="M2714,1693.12V1582.17c0-2.34,0-4.67,0-7,.24-13.12,1.91-14.91,15.24-15,32-.09,64,0,96,0,2,0,4,.12,6,.29,5,.44,8,3.16,8.38,8.23.28,3.32.35,6.66.35,10q0,115.44,0,230.89c0,17.63-.88,18.48-18.75,18.5q-44.49,0-89,0c-2.66,0-5.34.06-8-.19-7.27-.69-9.34-2.68-10-9.86-.31-3.3-.21-6.65-.21-10Q2714,1750.59,2714,1693.12Z"/><path class="cls-4" d="M541.92,298.13c-2-86.79,73.09-154.9,155.05-154.31,74.79.54,153.17,58.82,154,154.1.8,89.26-70.24,156.2-155.27,156C604.63,453.6,538.93,378,541.92,298.13Z"/><path class="cls-1" d="M1398,42.41a129.44,129.44,0,0,1,2,24.79q-.09,100.18,0,200.37a129.44,129.44,0,0,1-2,24.79c-8.71,3.54-17.83,1.87-26.77,1.88-73.53.05-147,.45-220.58-.11-4.36,0-8.63.24-12.65-1.76-46.28-76.93-69-160.82-74-250,7.33-3.24,15-1.68,22.61-1.73,99.87-.66,199.75-.06,299.62-.26C1390.2,40.41,1394.33,40.28,1398,42.41Z"/><path class="cls-1" d="M1180,354.35c.2-4.26,3-5.66,6.67-5.8,4-.14,8-.19,12-.19H1566c3.42,2.61,3,6.37,3,10q0,91.19,0,182.37c0,9.86-.14,9.86-15,11.58h-2c-5.66-3.77-11.94-1.84-18-2h-2c-13.46-5.13-27.91-5.27-41.82-8.17-36-7.5-70.65-18.86-104.56-33-29.78-12.43-57.24-29-84.84-45.36a9.81,9.81,0,0,1-2.78-1.44h-2c-.61-.72-1.35-1.32-2-2h0c-1.9-1.48-4.1-2.52-6-4h0c-.65-.69-1.39-1.28-2-2l-14-10c-.61-.72-1.35-1.31-2-2h0c-1.9-1.48-4.1-2.52-6-4l-2-2h0l-2-2h0c-1.9-1.48-4.1-2.52-6-4-.67-.66-1.33-1.33-2-2h0c-.67-.66-1.33-1.33-2-2h0c-.67-.66-1.33-1.33-2-2h0c-.67-.66-1.33-1.33-2-2h0c-.67-.66-1.33-1.33-2-2h0c-.65-.68-1.39-1.27-2-2h-2c-.61-.72-1.35-1.31-2-2h0l-2-2h0l-2-2h0c-.67-.67-1.33-1.34-2-2h0c-.67-.67-1.33-1.34-2-2h0c-.67-.67-1.33-1.34-2-2h0c-.67-.67-1.33-1.34-2-2h0c-.67-.67-1.33-1.34-2-2h0c-.67-.67-1.33-1.34-2-2h0c-.67-.67-1.33-1.34-2-2h0c-.67-.67-1.33-1.34-2-2h0c-.67-.67-1.33-1.34-2-2h0l-2-2h0l-2-2h0l-2-2h0l-2-2h0l-2-2h0l-2-2h0l-2-2h0c-.69-.65-1.28-1.39-2-2v-2c-.72-.61-1.31-1.35-2-2h0l-2-2h0c-.67-.66-1.33-1.33-2-2h0c-.67-.66-1.33-1.33-2-2h0c-.67-.66-1.33-1.33-2-2h0c-.69-.64-1.28-1.38-2-2v-2c-.72-.61-1.31-1.35-2-2h0c-.67-.66-1.33-1.33-2-2h0c-.67-.66-1.33-1.33-2-2h0C1181.31,355.71,1180.72,355,1180,354.35Z"/><path class="cls-1" d="M1334,548.32h2a109.67,109.67,0,0,1,14.38,6.79c1.73,1,3.65,1.86,3.16,4.37-.58,3-3.33,2.76-5.26,2.88-5.26.34-10.57.24-15.82.21-89.57-.56-179.13-.19-268.7-.16-4,0-8.09,0-11.76-2.09q.15-153.35.36-306.68c0-.9.67-1.79,1.24-3.19,4.21,1.36,5.21,5.15,6.32,8.28,4.69,13.22,12.49,25,17,38.32,2.58,7.6,8.31,13.59,12.36,20.47a602.92,602.92,0,0,0,59.53,83.77c10.11,11.93,20.77,23.38,31.18,35,.72.61,1.31,1.36,2,2h0l2,2h0l2,2h0l2,2h0l2,2h0c1.91,1.47,4.09,2.53,6,4,3.78,4.22,8.81,7.19,12,12,.72.61,1.31,1.35,2,2h0c1.9,1.48,4.1,2.52,6,4,.67.66,1.33,1.33,2,2h0l2,2h0l2,2h0c.65.69,1.39,1.28,2,2l22,16c.61.72,1.35,1.31,2,2h0l2,2h0c.65.69,1.39,1.28,2,2h2c.59.74,1.41,1.26,2,2l18,12c1.88,1.51,4.11,2.5,6,4s4.1,2.52,6,4c.65.68,1.39,1.28,2,2h2c1.88,1.51,4.11,2.5,6,4,.65.68,1.39,1.27,2,2h2c1.88,1.5,4.11,2.5,6,4,.65.69,1.39,1.28,2,2h2c.59.75,1.41,1.26,2,2h2c5.58,4.08,12.41,5.92,18,10C1332.65,547,1333.39,547.6,1334,548.32Z"/><path class="cls-6" d="M1398,42.41H1064c5.47-4,11.84-4,18.19-4q44.94,0,89.88,0,102.87,0,205.74,0C1384.79,38.43,1391.89,37.94,1398,42.41Z"/><path class="cls-6" d="M1052,560.32c98-.42,196.06.85,294.08-.73.77,0,1.53-1.05,2.75-1.94-3.28-4.82-9.07-5.76-12.83-9.33,7.06,1.08,13.21,4.4,19.24,7.94,1.7,1,3.67,2.23,3,4.62-.63,2.22-2.83,2.64-4.81,2.9a55.87,55.87,0,0,1-7,.48q-139.65,0-279.3,0C1061.77,564.27,1056.54,563.62,1052,560.32Z"/><path class="cls-6" d="M1138,292.37h260c-5.79,4.25-12.52,4-19.18,4H1216.08l-60.89,0C1149.15,296.34,1143.16,296.15,1138,292.37Z"/><path class="cls-6" d="M1456,292.37c-4.47-6.11-4-13.21-4-20.18q0-88.83,0-177.67,0-18.47,0-36.93c0-5.4.64-10.64,4-15.18a16.15,16.15,0,0,0,1.73.78c3.3,3.62,3.18,8.1,3.19,12.58q.21,111.6,0,223.21c0,4.49.11,9-3.2,12.6A16.18,16.18,0,0,0,1456,292.37Z"/><path class="cls-6" d="M1570,42.41c4.47,6.1,4,13.2,4,20.17q0,88.83,0,177.67,0,18.47,0,36.93c0,5.4-.64,10.64-4,15.19a16.18,16.18,0,0,0-1.73-.79c-3.3-3.62-3.18-8.1-3.19-12.58q-.21-111.6,0-223.21c0-4.48-.11-9,3.2-12.59A18.42,18.42,0,0,0,1570,42.41Z"/><path class="cls-1" d="M1554,552.32c9.77-3.87,12.24-11.21,12.18-21.34-.37-60.87-.18-121.75-.18-182.62h4c3.67,8.76,1.79,18,1.85,26.95.33,55.08.09,110.17.14,165.25,0,4,.13,8.09-2,11.76-.65.69-1.39,1.28-2,2h-4c-2.55-1.11-5.65-.05-8-2Z"/><path class="cls-1" d="M1300,462.34c5.86,1.61,10.94,4.74,16,8a474.76,474.76,0,0,0,99.38,48.28c21.38,7.46,42.89,14.19,64.86,19.69,13.3,3.33,27,4,40.29,6.8,4.35.93,8.46,1.69,11.47,5.24h-4c-2.55-1.11-5.65-.05-8-2-10.17-.06-20-2.57-30-4-1-1.27-3-.72-4-2-7.46-.62-14.73-2.33-22-4-1-1.27-3-.72-4-2h-2c-1-1.27-3-.72-4-2h-4c-1-1.27-3-.72-4-2h-2c-1-1.27-3-.72-4-2h-4c-1-1.28-3-.73-4-2h-2c-1.59-1.91-4.41-.12-6-2-.65-.69-1.39-1.28-2-2h-2c-1-1.28-3-.73-4-2h-2c-1-1.28-3-.73-4-2h-2c-1.59-1.91-4.41-.11-6-2-.65-.69-1.39-1.28-2-2h-2c-1.59-1.91-4.41-.11-6-2-.66-.68-1.35-1.31-2-2h-2c-.6-.73-1.38-1.29-2-2l-20-8c-.6-.73-1.38-1.29-2-2h-2c-.6-.73-1.38-1.29-2-2h-2c-.6-.73-1.38-1.29-2-2h-2c-.6-.73-1.38-1.29-2-2l-10-4c-1-1.25-2.94-.78-4-2h0c-1.9-1.48-4.1-2.52-6-4h0c-.66-.67-1.36-1.31-2-2h-2c-1-1.25-2.94-.78-4-2h0c-.67-.66-1.33-1.33-2-2h0c-.66-.67-1.36-1.31-2-2l-18-10c-.63-.71-1.32-1.35-2-2h0c-.58-.45-.77-.89-.58-1.34S1299.81,462.34,1300,462.34Z"/><path class="cls-6" d="M1570,552.32v-204c3.3,4.54,4,9.77,4,15.17V537.14C1574,542.54,1573.3,547.78,1570,552.32Z"/><path class="cls-6" d="M1570,292.37c-4.54,3.29-9.76,3.94-15.16,3.94h-83.68c-5.4,0-10.62-.65-15.16-3.94h0c3.27-3.94,7.63-5.09,12.54-5.07q44.46.17,88.92,0c4.91,0,9.26,1.13,12.54,5.07Z"/><path class="cls-6" d="M1456,42.41c4.54-3.3,9.76-3.95,15.16-3.95h83.68c5.4,0,10.62.65,15.16,3.95h0c-3.28,3.93-7.63,5.08-12.54,5.06q-44.46-.16-88.92,0c-4.91,0-9.26-1.13-12.54-5.06Z"/><path class="cls-1" d="M1534,550.32c6.36-2.61,12.59-4,18,2h-4a2.62,2.62,0,0,0-4,0h-6c-.6-.73-1.38-1.29-2-2Z"/><path class="cls-6" d="M1332,546.32c-6.65-2.16-13.07-4.74-18-10C1320.65,538.49,1327.07,541.06,1332,546.32Z"/><path class="cls-6" d="M1520,548.32l8,2A9.77,9.77,0,0,1,1520,548.32Z"/><path class="cls-6" d="M1556,552.32l8,2A9.77,9.77,0,0,1,1556,552.32Z"/><path class="cls-6" d="M1332,484.33l6,4Z"/><path class="cls-6" d="M1306,532.32l-6-4Z"/><path class="cls-6" d="M1216,468.34l-6-4Z"/><path class="cls-6" d="M1288,456.34l6,4Z"/><path class="cls-6" d="M1280,516.33l-6-4Z"/><path class="cls-6" d="M1264,438.34l6,4Z"/><path class="cls-6" d="M1286,520.33l-6-4Z"/><path class="cls-6" d="M1254,430.34l6,4Z"/><path class="cls-6" d="M1296,526.33l-6-4Z"/><path class="cls-6" d="M1196,450.34l-6-4Z"/><path class="cls-6" d="M1392,514.33l6,2Z"/><path class="cls-6" d="M1424,526.33l6,2Z"/><path class="cls-6" d="M1402,518.33l6,2Z"/><path class="cls-6" d="M1432,528.33l4,2Z"/><path class="cls-6" d="M1338,488.33l4,2Z"/><path class="cls-6" d="M1446,532.33l4,2Z"/><path class="cls-6" d="M1454,534.33l4,2Z"/><path class="cls-6" d="M1460,536.33l4,2Z"/><path class="cls-6" d="M1324,480.33l4,2Z"/><path class="cls-6" d="M1410,520.33l4,2Z"/><path class="cls-6" d="M1486,542.32l4,2Z"/><path class="cls-6" d="M1440,530.33l4,2Z"/><path class="cls-6" d="M1416,522.33l4,2Z"/><path class="cls-6" d="M1212,390.35l2,2Z"/><path class="cls-6" d="M1214,392.35l2,2Z"/><path class="cls-6" d="M1250,496.33l-2-2Z"/><path class="cls-6" d="M1352,494.33l2,2Z"/><path class="cls-6" d="M1252,498.33l-2-2Z"/><path class="cls-6" d="M1356,496.33l2,2Z"/><path class="cls-6" d="M1256,500.33l-2-2Z"/><path class="cls-6" d="M1360,498.33l2,2Z"/><path class="cls-6" d="M1364,500.33l2,2Z"/><path class="cls-6" d="M1386,510.33l2,2Z"/><path class="cls-6" d="M1390,512.33l2,2Z"/><path class="cls-6" d="M1400,516.33l2,2Z"/><path class="cls-6" d="M1288,522.32l-2-2Z"/><path class="cls-6" d="M1422,524.33c.67.66,1.33,1.33,2,2C1423.33,525.66,1422.67,525,1422,524.33Z"/><path class="cls-6" d="M1298,528.32l-2-2Z"/><path class="cls-6" d="M1248,494.33l-2-2Z"/><path class="cls-6" d="M1308,534.32l-2-2Z"/><path class="cls-6" d="M1312,536.32l-2-2Z"/><path class="cls-6" d="M1334,548.32l-2-2Z"/><path class="cls-6" d="M1536,550.32l2,2Z"/><path class="cls-6" d="M1180,354.35c.67.67,1.33,1.34,2,2C1181.33,355.69,1180.67,355,1180,354.35Z"/><path class="cls-6" d="M1182,356.35c.67.67,1.33,1.34,2,2C1183.33,357.69,1182.67,357,1182,356.35Z"/><path class="cls-6" d="M1568,554.32l2-2Z"/><path class="cls-6" d="M1330,482.33c.67.67,1.33,1.34,2,2C1331.33,483.67,1330.67,483,1330,482.33Z"/><path class="cls-6" d="M1184,358.35c.67.67,1.33,1.34,2,2C1185.33,359.69,1184.67,359,1184,358.35Z"/><path class="cls-6" d="M1322,478.33c.67.67,1.33,1.34,2,2C1323.33,479.67,1322.67,479,1322,478.33Z"/><path class="cls-6" d="M1320,476.34l2,2Z"/><path class="cls-6" d="M1224,476.33c-.67-.66-1.33-1.33-2-2C1222.67,475,1223.33,475.67,1224,476.33Z"/><path class="cls-6" d="M1222,474.33l-2-2Z"/><path class="cls-6" d="M1220,472.33l-2-2Z"/><path class="cls-6" d="M1218,470.34c-.67-.67-1.33-1.34-2-2C1216.67,469,1217.33,469.67,1218,470.34Z"/><path class="cls-6" d="M1300,464.34c.67.66,1.33,1.33,2,2C1301.33,465.67,1300.67,465,1300,464.34Z"/><path class="cls-6" d="M1186,360.35c.67.67,1.33,1.34,2,2C1187.33,361.69,1186.67,361,1186,360.35Z"/><path class="cls-6" d="M1300,462.34v2c-.67-.67-1.33-1.34-2-2Z"/><path class="cls-6" d="M1210,464.34c-.67-.67-1.33-1.34-2-2C1208.67,463,1209.33,463.67,1210,464.34Z"/><path class="cls-6" d="M1294,460.34c.67.66,1.33,1.33,2,2C1295.33,461.67,1294.67,461,1294,460.34Z"/><path class="cls-6" d="M1188,364.35c.67.67,1.33,1.34,2,2C1189.33,365.69,1188.67,365,1188,364.35Z"/><path class="cls-6" d="M1286,454.34l2,2Z"/><path class="cls-6" d="M1190,366.35c.67.67,1.33,1.34,2,2C1191.33,367.69,1190.67,367,1190,366.35Z"/><path class="cls-6" d="M1190,446.34l-2-2Z"/><path class="cls-6" d="M1270,442.34l2,2Z"/><path class="cls-6" d="M1188,444.34l-2-2Z"/><path class="cls-6" d="M1186,442.34l-2-2Z"/><path class="cls-6" d="M1192,368.35c.67.67,1.33,1.34,2,2C1193.33,369.69,1192.67,369,1192,368.35Z"/><path class="cls-6" d="M1184,440.34l-2-2Z"/><path class="cls-6" d="M1262,436.34l2,2Z"/><path class="cls-6" d="M1182,438.34l-2-2Z"/><path class="cls-6" d="M1260,434.34l2,2Z"/><path class="cls-6" d="M1194,370.35c.67.67,1.33,1.34,2,2C1195.33,371.69,1194.67,371,1194,370.35Z"/><path class="cls-6" d="M1196,372.35c.67.67,1.33,1.34,2,2C1197.33,373.69,1196.67,373,1196,372.35Z"/><path class="cls-6" d="M1250,426.34c.67.67,1.33,1.34,2,2C1251.33,427.68,1250.67,427,1250,426.34Z"/><path class="cls-6" d="M1248,424.34c.67.67,1.33,1.34,2,2C1249.33,425.68,1248.67,425,1248,424.34Z"/><path class="cls-6" d="M1246,422.34c.67.67,1.33,1.34,2,2C1247.33,423.68,1246.67,423,1246,422.34Z"/><path class="cls-6" d="M1244,420.34c.67.67,1.33,1.34,2,2C1245.33,421.68,1244.67,421,1244,420.34Z"/><path class="cls-6" d="M1242,418.35l2,2Z"/><path class="cls-6" d="M1198,374.35l2,2Z"/><path class="cls-6" d="M1238,416.34c.67.67,1.33,1.34,2,2C1239.33,417.68,1238.67,417,1238,416.34Z"/><path class="cls-6" d="M1236,414.35l2,2Z"/><path class="cls-6" d="M1234,412.35l2,2Z"/><path class="cls-6" d="M1232,410.35c.67.66,1.33,1.33,2,2C1233.33,411.68,1232.67,411,1232,410.35Z"/><path class="cls-6" d="M1230,408.35c.67.66,1.33,1.33,2,2C1231.33,409.68,1230.67,409,1230,408.35Z"/><path class="cls-6" d="M1228,406.35c.67.66,1.33,1.33,2,2C1229.33,407.68,1228.67,407,1228,406.35Z"/><path class="cls-6" d="M1200,378.35l2,2Z"/><path class="cls-6" d="M1202,380.35l2,2Z"/><path class="cls-6" d="M1252,428.34c.67.67,1.33,1.34,2,2C1253.33,429.68,1252.67,429,1252,428.34Z"/><path class="cls-6" d="M1204,382.35l2,2Z"/><path class="cls-6" d="M1206,384.35l2,2Z"/><path class="cls-6" d="M1208,386.35l2,2Z"/><path class="cls-6" d="M1210,388.35l2,2Z"/><path class="cls-6" d="M1226,404.35c.67.66,1.33,1.33,2,2C1227.33,405.68,1226.67,405,1226,404.35Z"/><path class="cls-6" d="M1224,402.35c.67.66,1.33,1.33,2,2C1225.33,403.68,1224.67,403,1224,402.35Z"/><path class="cls-6" d="M1222,400.35c.67.66,1.33,1.33,2,2C1223.33,401.68,1222.67,401,1222,400.35Z"/><path class="cls-6" d="M1220,398.35c.67.66,1.33,1.33,2,2C1221.33,399.68,1220.67,399,1220,398.35Z"/><path class="cls-6" d="M1218,396.35c.67.66,1.33,1.33,2,2C1219.33,397.68,1218.67,397,1218,396.35Z"/><path class="cls-6" d="M1216,394.35c.67.66,1.33,1.33,2,2C1217.33,395.68,1216.67,395,1216,394.35Z"/><path class="cls-4" d="M1312.92,2410q-115.92,0-231.84,0c-4.33,0-8.67-.05-13-.43-4.59-.41-7.23-3.2-7.7-7.77a89.78,89.78,0,0,1-.39-9q0-109.9,0-219.81v-1c.19-14.34,1.68-15.94,16.29-15.94q145.9-.07,291.8,0c33.65,0,67.3.34,100.93-.17,11-.17,17.68,3.87,23.28,13.33,41.73,70.46,67.37,146.11,74.8,227.78.92,10-1.18,12.47-11.35,12.95-3.66.18-7.33.1-11,.1Z"/><path class="cls-4" d="M1158,1924.07l4,0c1,1.27,3,.73,4,2l4,0c.59.74,1.4,1.25,2,2l6,0c1,1.26,3,.72,4,2h2c.59.74,1.4,1.25,2,2l6,0c.6.74,1.41,1.25,2,2h4c.6.74,1.41,1.25,2,2h4c.6.74,1.41,1.25,2,2,26.17,8.13,51.06,19.33,75.18,32.19,27.36,14.6,53.75,30.82,78.22,49.94,27.08,21.17,52.32,44.34,74.64,70.55,1.79,2.1,5.42,4.06,3.55,7.44-1.4,2.54-4.8,1.68-7.4,1.8s-5.33.06-8,.06q-170.39,0-340.78,0c-21.4,0-21.41,0-21.42-21.84q0-73.95,0-147.88c0-19.95.25-20.18,20-20.24h2c3,2.42,7-.43,10,2l8,0c1.59,1.91,4.41.08,6,2l8,0c1.59,1.91,4.41.08,6,2l16,2c1,1.26,3,.72,4,2l14,2C1155,1923.36,1157,1922.82,1158,1924.07Z"/><path class="cls-4" d="M1260.16,1898.26c3.64-3,7.08-2.11,10.22-2.11q144.49-.09,289,0c1.67,0,3.34,0,5,.08,9,.59,11,2.53,11.56,11.54.15,2.32.1,4.66.1,7q0,138.46,0,276.93c0,3.85.67,7.87-2.16,13.57C1507.32,2063,1402.68,1961.44,1260.16,1898.26Z"/><path class="cls-1" d="M1092,1912.08a27.25,27.25,0,0,1-10-2A27.41,27.41,0,0,1,1092,1912.08Z"/><path class="cls-1" d="M1120,1916.08l-6-2Z"/><path class="cls-1" d="M1106,1914.08l-6-2Z"/><path class="cls-1" d="M1140,1920.07l-4-2Z"/><path class="cls-1" d="M1158,1924.07l-4-2Z"/><path class="cls-1" d="M1166,1926.07l-4-2Z"/><path class="cls-1" d="M1182,1930.08l-4-2Z"/><path class="cls-1" d="M1172,1928.07l-2-2Z"/><path class="cls-1" d="M1186,1932.07l-2-2Z"/><path class="cls-1" d="M1194,1934.08l-2-2Z"/><path class="cls-1" d="M1200,1936.08l-2-2Z"/><path class="cls-1" d="M1206,1938.08l-2-2Z"/><path class="cls-4" d="M1010,1338.19a34.21,34.21,0,0,1,12.76-2l14,0,1207.13,0a30.83,30.83,0,0,1-11.75,2c-4.66,0-9.33,0-14,0Z"/><ellipse class="cls-1" cx="1513" cy="167.39" rx="80.61" ry="176.75"/></svg>