<svg id="Layer_1" data-name="Layer 1" xmlns="http://www.w3.org/2000/svg" viewBox="0 0 3512 2482"><defs><style>.cls-1{fill:#262626;}.cls-2{fill:#2b2b2b;}.cls-3{fill:#393939;}.cls-4{fill:#474747;}.cls-5{fill:#373737;}.cls-6{fill:#333;}.cls-7{fill:#343434;}.cls-8{fill:#3c3c3c;}.cls-9{fill:#3d3d3d;}.cls-10{fill:#2d2d2d;}.cls-11{fill:#3e3e3e;}.cls-12{fill:#4f4f4f;}.cls-13{fill:#242424;}</style></defs><path class="cls-1" d="M3306,0h206V1856c-6.21,4.85-9.14-1.14-12.27-4.23-24-23.62-47.73-47.49-71.52-71.3Q3170.92,1523,2913.5,1265.69c-2.54-2.54-4.85-5.45-8.84-7.13-2.79,4.54-1.6,9.29-1.6,13.72q-.11,287.49-.07,575c0,4.33.54,8.75-.48,13-1.36,5.64-4.63,7.78-9.93,3.93a76.12,76.12,0,0,1-8.8-8.14Q2590,1562.26,2296.2,1268.46c-3.78-3.77-8.12-7.18-11-11.58-3.23-4.94-7.43-6.68-12.88-6.77-18.95-1.21-37.82-3.17-56.84-3.16q-268.3.12-536.62,0c-27.16,0-28.94-1-27.62-28,8.49-174.65,1.75-349.4,3.28-524.09.19-21.33-4.37-42.82-3.53-64.43q0-303.93,0-607.87c0-6.61-.93-13.38,2.31-19.64A28.68,28.68,0,0,1,1656,0H3110a26.71,26.71,0,0,1,2.6,2.92c3.4,6.57,2.36,13.69,2.36,20.63Q3115,367,3115,710.39c0,6.33-.31,12.68.52,19,1.26,9.56,5.21,14,14.51,15a157.73,157.73,0,0,0,33.93,0c9.29-1,13.24-5.43,14.5-15,.83-6.3.52-12.65.52-19q0-343.42,0-686.84c0-6.94-1-14.06,2.37-20.63A26.71,26.71,0,0,1,3184,0h48a26.71,26.71,0,0,1,2.6,2.92c3.4,6.57,2.36,13.69,2.36,20.63Q3237,367,3237,710.39c0,6.33-.31,12.68.52,19,1.26,9.56,5.21,14,14.51,15a157.73,157.73,0,0,0,33.93,0c9.29-1,13.24-5.43,14.5-15,.83-6.3.52-12.65.52-19q0-343.42,0-686.84c0-6.94-1-14.06,2.37-20.63A26.71,26.71,0,0,1,3306,0Z"/><path class="cls-2" d="M2277.89,1244.07c5.26,3.62,9.5,8.35,14,12.82q295.86,295.83,591.69,591.67c2.83,2.82,5.61,5.72,8.65,8.3,2.88,2.45,5.08,1.49,5.42-2.2.39-4.31.37-8.65.37-13q0-288.92,0-577.83a127.35,127.35,0,0,1,.46-13c.31-3,2.36-4.17,4.9-2.05,3.06,2.55,5.86,5.43,8.69,8.25q293,293,586,586c4.47,4.47,9.25,8.63,13.89,12.93v252c-6.42,4.15-6.31-1.31-7.13-5a280.24,280.24,0,0,0-45.25-101.68c-53.73-76-126.84-120.41-219.76-130.28-94.28-10-176.06,19.31-244.12,84.11-53.29,50.74-82.85,114.27-90.8,187.75-6.2,57.25,3.92,111.72,28.47,163.27,26.64,55.91,67.42,99.42,120.84,131,32.25,19.1,67.05,30.89,103.77,37.56,3.51.63,10.38-.45,6,7.2H2278c-7.44-5-7.2-12.58-7-20.18,8.64-172.29,1.87-344.71,3.89-517.05.18-15.52.81-31-2.65-46.57-4.22-19,.83-38.44.82-57.72q-.18-288.4,0-576.82C2273,1256.82,2271.36,1249.37,2277.89,1244.07Z"/><path class="cls-1" d="M0,1904v-40a18.52,18.52,0,0,1,4.62-3.73c4.1-3.51,9.11-2.94,14-3.25C35,1856,51,1860.59,67,1860.69c98.26.62,196.52.25,294.78.39,10.72,0,20.63-4.72,31.46-4,17.22,1.07,34.66-1.09,51.7.39,88.38,7.67,176.88,2.29,265.3,3.34,88.59,1,177.2.57,265.8-.11,14.71-.11,29.42-4.45,44.42-3.6,4.28.25,8.7-.43,12.59,2,6.12,3.49,8.4,8.63,7.94,15.73-1,15.3-.34,30.63-.18,46a29,29,0,0,1-4,15.88c-4.55,7.77-4.75,17.66-4.84,26.55-.27,25.57-7.67,49.61-14.63,73.63q-37,127.48-122.46,229.33a628.12,628.12,0,0,1-178.19,146.34,618.29,618.29,0,0,1-153.19,59.74c-20.12,4.91-40.47,7-61.07,7.6-4.87.15-9.88.12-14.51,2.17H412c-5.46-4.37-6.27-10.64-7-17a741.77,741.77,0,0,0-62.86-225.14A674.85,674.85,0,0,0,228.19,2067.1c-47-52-101.11-95.46-163.1-128.74-17-9.15-34.43-17.48-52.17-25.12a34,34,0,0,1-11-7.3C1.29,1905.3.65,1904.64,0,1904Z"/><path class="cls-3" d="M3164,2482c-13.7-4.25-28-5.81-41.79-9.84-43.87-12.82-83.11-34-117.41-64.19-60.92-53.64-96.52-120.73-104.84-201.54-9-87.22,14.75-165.13,71.12-232.22,55.16-65.65,126.45-102.53,211.73-109.43,82.11-6.64,156.38,16,220.77,68.17,54.37,44,89.69,100.38,106.39,168.37.55,2.26,1.35,4.46,2,6.68v132c-13.4,100-73.89,165.29-157.45,213.49-10.36,6-21.45,10.59-32.57,15.11-21,8.53-42.87,11.64-65.27,12.4-1.63.06-3.34-.28-4.71,1Z"/><path class="cls-1" d="M0,1904H2c4.55,4.46,5.05,10.08,5,16.07-.07,32,.26,63.92-.18,95.87-.18,12.83,4.72,20.65,16.07,27,95.32,53.47,166.69,129.93,216.93,226.76a596.79,596.79,0,0,1,62.27,196c.84,6.13,1.68,12-4.13,16.3H0Z"/><path class="cls-2" d="M488,2482a32.23,32.23,0,0,1,12.32-3.79c61-7.68,119.13-25,175-50.68A622.77,622.77,0,0,0,818,2336.24a605.19,605.19,0,0,0,134.44-161.12c20.51-35.6,37.94-72.67,51.2-111.58,15.54-45.61,25.88-92.46,29.84-140.48,1.62-19.53.42-39.3.51-59,4.71-2.32,5.86.81,6.5,4.39.7,4,.49,8,.49,12q0,241.95.1,483.91c0,11.61-1.44,23.12-2,34.68-.59,12.68,6.05,24.16,4,36.79-.7,4.22,0,8.65-.4,13-2.53,10,.17,20.63-4.15,30.35A26.39,26.39,0,0,1,1036,2482Z"/><path class="cls-2" d="M298,2482c-1.06-24.43-6.08-48.28-11.63-71.94-21.15-90.1-61.1-171.1-120.28-242.23A500.93,500.93,0,0,0,13.43,2043.89C5.23,2039.57,1.86,2034,1.92,2025c.23-40.32.09-80.65.08-121,18.14,4.94,34.7,13.74,51.31,22.09a587.2,587.2,0,0,1,96.84,61.47c35.61,27.72,67.69,59.09,97,93.35a682.85,682.85,0,0,1,70.67,100.33c30.68,52.7,53.38,108.7,69.84,167.32C399.9,2392.29,408.4,2436.69,412,2482Z"/><path class="cls-2" d="M3252,2482c3.88-.89,7.74-1.9,11.65-2.64,53.4-10.13,101.35-31.86,143.07-67q79.38-66.81,103.69-167.66c.39-1.61,1.05-3.15,1.59-4.72v242Z"/><path class="cls-4" d="M1036,2482c0-.68.09-1.36.13-2,3-3.65,7-5,11.56-5,5.66.05,11.31,0,17,0H2234.77c2.67,0,5.35-.18,8,0,13,1,24.43-1.57,31.38-14.1a4,4,0,0,1,3.64,1.25L2278,2482Z"/><path class="cls-5" d="M1656,0l-.06,2.07A14,14,0,0,1,1644.33,7c-3.33-.07-6.65,0-10,0Q1228.59,7,822.85,7c-9.43,0-18.84-.28-28.21-1.19-6.43-.62-12.32-.9-18.57,2.73-5.81,3.37-13-.32-19.55,0a260.6,260.6,0,0,0-61.28,0c-8.72.2-17.48,2.69-25.9-2.75-3.35-2.17-8.23-.3-12.43-.08-49.23,2.56-98.5.67-147.75,1.15-26.32.25-52.63,0-79,0-5,0-10.21.39-14.37-3.4A3.18,3.18,0,0,1,416,0Z"/><path class="cls-6" d="M416,0c0,.67,0,1.34,0,2-.24.57-.47,1.14-.67,1.76C409.71,8.12,403.05,7,396.7,7L39.92,7c-5.66,0-11.35-.24-17,.46C13,8.71,8.82,12.84,7.52,22.72,6.7,29,7,35.36,7,41.69Q7,303.53,7,565.37c0,7.16.88,14.51-3.53,20.94A3.2,3.2,0,0,1,0,586V0Z"/><path class="cls-7" d="M0,1224V744a2.88,2.88,0,0,1,3.49-.48C6.79,748.26,7,753.74,7,759.17q0,225.06,0,450.11c0,5.29-.16,10.49-3.35,15.06A3,3,0,0,1,0,1224Z"/><path class="cls-7" d="M0,1742V1280a3.41,3.41,0,0,1,3.73-.51C9.2,1283.74,9,1289.78,9,1295.82q0,79.38,0,158.76,0,132.8,0,265.6c0,7.77-.24,15.32-5.29,21.8A3.28,3.28,0,0,1,0,1742Z"/><path class="cls-8" d="M2,744H0V586l2-.09,1.86.39c5.13,2,5.09,6.56,5,10.88-.33,23.66.37,47.31-.15,71a32.46,32.46,0,0,0-.18,3.55c-.06,4.06.79,8.09.41,12.17-.19,1.13-.37,2.26-.6,3.38,1.15,14.89.54,29.82.53,44.74,0,3.75.94,8.11-3.31,10.69A8.11,8.11,0,0,1,2,744Z"/><path class="cls-9" d="M0,1742H1.83l1.91.29c5.07,1.44,5,5.73,5.07,9.67.21,13,.66,26-.18,38.93-.44,6.88,2.5,13.74-.11,20.54,0,1.14,0,2.3,0,3.45.23,14.54,1.74,29.13-.82,43.63a27.42,27.42,0,0,0-1.55,2.81,17,17,0,0,1-2,2.45L0,1864Z"/><path class="cls-10" d="M3184,0V2c-2.9,4.05-7.08,4.81-11.71,4.87-16.9.21-33.79,0-50.68.1-4.65,0-8.53-1.34-11.55-4.92,0-.69,0-1.38-.05-2.07Z"/><path class="cls-10" d="M3306,0c0,.66,0,1.32,0,2-2.89,4.06-7.08,4.85-11.72,4.91-16.89.21-33.78,0-50.66.1-4.64,0-8.53-1.29-11.55-4.89,0-.7,0-1.4-.08-2.1Z"/><path class="cls-11" d="M2,1280l-2,0v-56l2,0c5,1.84,6.64,5.71,6.75,10.72q.38,17.25,0,34.5C8.61,1274.17,7.11,1278.13,2,1280Z"/><path class="cls-12" d="M756.28,2.13q59-.06,118-.13Q1255.09,2,1636,2c6.67,0,13.33,0,20,.07.1,6.33.28,12.66.28,19q0,304.44,0,608.9c1.55,3.86.74,7.9.74,11.85q.07,299,0,598c2.16,8.37-4,13.05-8.71,17.84-19.94,20.49-40.26,40.59-60.5,60.77q-68.49,68.3-136.83,136.74c-4.55,4.53-9.06,8.79-15.85,9.36-5.22-1.93-6.75-7-9.2-11.14-11.65-19.74-23.1-39.59-34.74-59.33-2.21-3.74-4.54-7.5-9.5-8-8.51-.85-13.8,7.13-9.74,15.54,5.48,11.37,12.54,21.88,18.81,32.84,9.22,16.13,19.44,31.69,27.64,48.43-8.67,15.3-20.05,27.95-35.66,36.43-7,1.34-7.85-5-10.17-8.75-25.76-41.62-50.88-83.64-76-125.67-9.22-15.44-18.81-30.65-28.11-46-2.09-3.44-4.29-6.9-8.64-7.77-4-.8-7.21.86-9.79,3.73-3.45,3.84-2.66,8.08-.46,12.08,6.42,11.67,13.49,23,20.38,34.37q45.51,75.21,90.81,150.55c1.36,2.25,3.23,4.31,3.16,7.21-7.08,11.2-16.84,20-26.08,29.27-3.06,3.07-6.29,5.89-10.62,7-6.56,3.26-8.11-2.56-10.23-6.16q-32.1-54.62-64-109.35c-3.86-6.6-7.71-13.21-11.82-19.67-3.48-5.48-7.9-8.13-14.21-4.57-6.81,3.85-6.64,9.3-3.14,15.29q24.2,41.33,48.27,82.73,17.12,29.28,34.18,58.6c1,1.73,2.07,3.46,1.29,5.62-8.11,8-15.34,16.78-23.74,24.45-4.54,4.16-9.12,8.15-15.7,8.5-16.15-23.61-30.33-48.47-45-73-33.66-56.3-68-112.17-101.56-168.54a50.17,50.17,0,0,0-4.51-6.59c-3.85-4.61-8.41-5-13.33-2-4.6,2.87-6,7-3.94,12.08s5.07,9.36,7.83,13.91q70.74,116.55,140.74,233.55c2.2,3.69,6.32,7.3,3.27,12.53-24.15,28.12-51.62,53-77.62,79.3q-62.87,63.59-126.42,126.45c-4.56,4.54-9.36,10-14.89.86-2.68-6.09-1.65-12.51-1.65-18.77q-.09-279.48-.06-558.95c0-6.33.32-12.69-.51-19-1.29-9.89-5.47-14-15.45-15.21a112.58,112.58,0,0,0-14-.44H442.09c-5.65,0-11.35-.33-16.78,1.67a21.2,21.2,0,0,1-3.32.66,3.52,3.52,0,0,0-2.53,1.71c-1.71,19.75-.36,39.47-.37,59.16,0,55.83.12,111.67.07,167.5,0,46.9-.54,93.81-.31,140.7.29,60.88-.33,121.76.39,182.64.21,18.11,1,36.37-.84,54.59-.51,5.23-1.18,7.06-5.91,7.33-2,.11-4,0-6,0q-196.37,0-392.74,0c-3.27,0-6.67.75-9.81-.92l0,0a242.31,242.31,0,0,1,0-48l0,0c4.15-5.74,10.33-4.92,16.21-4.92q107.43,0,214.87,0,50.46,0,100.93,0c22.55,0,25-2.53,25-25.46q0-166.89,0-333.79c0-5.5,0-11,1.34-16.32-4.07,20.41-13.1,39-21.5,57.77-32.89,73.27-79.27,137-137.85,191.86-52.58,49.19-112.35,87.43-178.71,115.36A91.57,91.57,0,0,1,14,1802.26c-8.1,2.32-10.89.35-10.94-8.17-.12-17,0-34,0-51a15.43,15.43,0,0,1,.25-3.26c3.08-5.35,8.16-8,13.57-10.44a514.48,514.48,0,0,0,159.23-112.18c83.58-86.66,133.49-190,148.44-309.88q.5-4,.6-8c.27-10-2.55-13.24-12.43-14.16-4.65-.43-9.33-.24-14-.24q-139.44,0-278.89,0c-5.82,0-12.17,1.26-16.42-4.63-.82-17.31,0-34.62-.4-51.93-.13-6.63,3.15-9.39,9.41-9.38,3.66,0,7.32,0,11,0q140.37,0,280.74,0c21.46,0,24.62-3.21,22.46-24.5-11.66-114.66-54.05-216.13-129.62-303.65C145.78,831.6,84.09,786.83,13.41,754,7,751,3,747.22,3,740c.61-18.66-1.24-37.36,1-56v0c4.77-3.92,9.47-1.36,14,.36a471.38,471.38,0,0,1,62.38,29.3c45.84,25.57,88.15,55.81,126.28,92.28,64.09,61.32,113.14,132.42,145.5,215,2.9,7.4,6.66,14.46,8.53,22.31.63,2.65.64,5.34,1.47,7.93-1.43-6.54-1.16-13.16-1.16-19.76q0-163.44,0-326.88c0-25.95-1.59-27.51-27.94-27.51L21.17,677C15,677,8.4,678.2,3.94,672.07L4,672c-2.2-15.37-.54-30.83-.9-46.24C2.77,613.59,3,601.39,3,589.22c-.14-9.68,7.63-11.55,14.37-14.17a602.05,602.05,0,0,0,83.7-40,613.64,613.64,0,0,0,132.22-102.4c94.69-96.71,151.18-212.18,171-345.83,3.58-24,4.22-48.35,6.48-72.51.45-4.82,1-9.23,5.24-12.24l0,0,279.7.12c4.34,7.71-2.39,6.37-5.94,6.86-23.51,3.21-46.72,7.88-68.79,16.7C506,71.63,439.05,156,423.42,278.85c-10.47,82.28,12.22,157,63.26,221.79,53.25,67.53,124.08,105.49,209.94,114.29,73.57,7.54,141.2-10.23,201.74-51.91,75.81-52.2,119.14-125.19,130.29-216.5,9.72-79.7-10.52-152.44-57.94-216.64C922.49,64.6,857.12,25.46,777,11.33c-5.89-1-11.82-2-17.78-2.67C755.06,8.19,752.89,6.3,756.28,2.13Z"/><path class="cls-3" d="M1656,1244c-.06-5.66-.16-11.32-.16-17q0-290.05,0-580.11c0-5.65.22-11.31.34-17,2.19,6.81,1.62,13.85,1.62,20.83q0,283.8,0,567.61c0,4.66-.14,9.34.26,14,.58,6.62,2.77,8.87,9.29,9.47,4.63.43,9.31.28,14,.28q269.31,0,538.62-.08c19.34,0,38.55,2.62,57.88,2,0,5.66.07,11.32.07,17q0,593.55.07,1187.12c0,4.66-.16,9.32-.24,14q-.84-.16-1.68-.3c-5.72-.23-4.65-4.87-4.89-8.15-.52-7.31-.34-14.66-1.51-21.91-.5-9.11-1-17.77,2.19-27.1,3.48-10.35.91-22,0-33.05-.55-6.43-.85-12.82-.85-19.25q0-229,0-457.91c0-25.74-1-26.16-26.95-27.64-74.19-4.22-145.61-20.54-214-50-62.69-27-119.57-63.2-170-109.08-75.22-68.39-132.14-149.51-167.77-245.11-20.73-55.6-33.86-112.85-37.8-172.16-.92-13.87-3-27.64.1-41.46C1655,1247.32,1656.4,1245.92,1656,1244Z"/><path class="cls-3" d="M2572.79,593.94h-245c-3.67,0-7.35.11-11-.15-8.3-.57-10.23-2.62-10.78-11.16-.17-2.66-.11-5.33-.11-8q0-100.49,0-201c0-19.13.43-19.54,19.65-19.55h430c2,0,4,.17,6,0,8.45-.66,13.31,3.47,17.13,10.85a547.54,547.54,0,0,1,59.55,204.11c.45,5,1.31,10,1.34,14.92,0,6.7-2.16,9-8.8,9.68a116.78,116.78,0,0,1-12,.28Z"/><path class="cls-3" d="M2573.27,650.09q123.45,0,246.92,0c4,0,8,0,12,.4,4.75.43,7.15,3.19,6.82,8.06-.09,1.33-.26,2.66-.46,4-8.43,55-31.32,102.87-69.42,143.48-43.09,45.94-95.74,73.79-158,82.67-57.85,8.25-112.88-1.19-164.34-29.21-64.54-35.14-107.46-88.21-129.91-158a245.82,245.82,0,0,1-8.34-37c-2-12.57-.53-14.18,11.86-14.3,12.67-.11,25.33,0,38,0Z"/><path class="cls-3" d="M2307.78,810.31c56.6,76.13,130,122.19,222.46,134.69s175.4-12.59,248.81-70.35c1.46,4-.69,6-1.86,8.24-20.52,38.32-44.46,74.32-72.9,107.27a564.53,564.53,0,0,1-348.46,190.47c-13.2,1.86-26.44,3.46-39.79,3.75-7.9.17-9.42-1.18-10-8.87-.24-3.32-.14-6.66-.14-10q0-169.47,0-338.93C2305.94,822,2305.26,817.29,2307.78,810.31Z"/><path class="cls-3" d="M2009.9,906.44q0-98.45.06-196.89c0-4.49-2.22-11,2-13,4.77-2.28,7.51,4.21,10.58,7.28Q2129.45,810.38,2236.24,917c8.51,8.44,12.1,17.12,12,29-.4,73.62-.2,147.24-.21,220.87,0,3,.09,6-.16,9-.64,7.51-2.42,9.07-10.2,8.69a445.49,445.49,0,0,1-47.67-5A562.24,562.24,0,0,1,2021.49,1125c-8.71-4.45-11.75-10.31-11.71-19.72C2010,1039,2009.9,972.73,2009.9,906.44Z"/><path class="cls-3" d="M2032,298q-99.49,0-199-.08c-4.47,0-10.6,2.14-13-2.33-2.55-4.72,3.11-8.21,5.76-11.71Q1926.24,151.44,2081.91,93c46.84-17.48,95.28-27.72,144.94-32.54a67.43,67.43,0,0,1,12-.21c6.15.5,8.2,2.58,9,8.66a70.84,70.84,0,0,1,.31,9q0,101,0,202c0,17.15-.94,18.08-18.11,18.09Q2131,298,2032,298Z"/><path class="cls-3" d="M1952.07,867.22q0,98.92-.09,197.85c0,4.71,2.31,11.28-3.08,13.54-4.46,1.87-8.11-3.59-11.72-6.31q-95.9-72.35-154-177.55a550.43,550.43,0,0,1-67.57-221c-.4-4.64-1.26-9.27-1.25-13.91,0-6.61,2.26-8.78,9-9.56a62.38,62.38,0,0,1,7-.22q102.44,0,204.85,0c.66,0,1.33,0,2,0,13.15.25,14.82,1.79,14.84,15.27Q1952.13,766.31,1952.07,867.22Z"/><path class="cls-3" d="M2521.94,297.94q-98.45,0-196.9,0c-18.58,0-19.15-.57-19.16-19q0-100.45,0-200.9c0-17.06,2.25-19.08,19.14-17.61,72.89,6.37,142.15,25.74,207.33,59a555,555,0,0,1,128.83,90.35,593.22,593.22,0,0,1,68.46,76.58c2.09,2.78,6.24,5.54,4.3,9.36s-6.62,2.23-10.11,2.23Q2622.89,298,2521.94,297.94Z"/><path class="cls-3" d="M2248.09,474.06q0,50.47,0,100.94a85,85,0,0,1-.3,10c-.72,6.09-2.71,8-8.92,8.72a89.63,89.63,0,0,1-10,.28Q2129,594,2029,594c-18.53,0-19.11-.58-19.11-19.07q0-100.93,0-201.87c0-18.4.57-18.95,19.21-19q99.93,0,199.87,0c18.55,0,19.09.56,19.11,19.06Q2248.12,423.59,2248.09,474.06Z"/><path class="cls-3" d="M3232.08,2.1,3306,2c0,11,.11,22,.11,33q0,345.89,0,691.77c0,4.66.14,9.35-.3,14-.59,6.19-2.61,8.68-8.75,8.8q-28,.53-56,0c-6.21-.11-8.09-2.54-8.84-8.7a64.46,64.46,0,0,1-.27-8Q3232,370,3232,7.1C3232,5.43,3232.06,3.77,3232.08,2.1Z"/><path class="cls-3" d="M3110.05,2.07,3184,2c0,5,.12,10,.12,15q0,354.89,0,709.77c0,4.66.14,9.35-.3,14-.59,6.17-2.64,8-8.78,8.88a21.25,21.25,0,0,1-3,.19c-16.66,0-33.32.19-50-.06-9.6-.14-11.55-2.38-12-11.94-.11-2.33-.07-4.67-.07-7q0-359.39,0-718.77C3110,8.73,3110,5.4,3110.05,2.07Z"/><path class="cls-3" d="M1952.08,474q0,50.44,0,100.88a89.63,89.63,0,0,1-.29,10c-.71,6.13-2.66,8-8.85,8.77a76.6,76.6,0,0,1-9,.28q-100.89,0-201.78,0c-17.74,0-18.67-1.55-17.15-18.91a579.1,579.1,0,0,1,23.06-119.41c9.78-31.94,22.8-62.5,38-92.21,3.8-7.42,9.43-9.4,17.05-9.37,35.29.13,70.58,0,105.88,0,13,0,26-.1,39,.06,12.07.15,14,2,14,14,.12,35.29,0,70.58,0,105.88Z"/><path class="cls-3" d="M1715.27,357c-4-4.18-3.06-7.68-3.06-10.85q-.11-136.44,0-272.88a47.69,47.69,0,0,1,.23-6c.82-6.6,2.76-8.49,9.6-9.13,3-.28,6-.2,9-.2q134.43,0,268.87,0c3.81,0,7.84-.79,13.16,2.23C1879.37,125.3,1780.66,223.91,1715.27,357Z"/><path class="cls-3" d="M2840.06,358.71c-66.35-133.52-164.43-233.57-298.56-298.13,4.11-3.45,7.56-2.55,10.71-2.55Q2689.09,58,2826,58a54.1,54.1,0,0,1,7,.27c6.11.8,8,2.68,8.7,8.92a79,79,0,0,1,.27,9q0,134.88,0,269.75C2841.88,349.52,2842.55,353.24,2840.06,358.71Z"/><path class="cls-3" d="M1714.91,886c64.44,134.2,163.81,231.48,295.75,298.2-5,2.33-8.34,1.8-11.51,1.8q-135,.06-269.94,0h-1c-14.57-.16-16-1.48-16-16.11q-.08-136,0-271.93C1712.18,894.78,1711.72,891.41,1714.91,886Z"/><path class="cls-3" d="M2542.6,1183.87c65.63-32.27,123.49-72.49,173.91-123.23a620.37,620.37,0,0,0,121.63-172.76c4.36,1.38,3.5,4.09,3.67,6.2.22,2.65.11,5.33.11,8q0,131.92,0,263.83c0,20-.17,20.15-20,20.15q-132.4,0-264.82,0C2553,1186,2548.62,1186.75,2542.6,1183.87Z"/><path class="cls-3" d="M2149,650.08q40,0,79.9,0c3,0,6-.09,9,.18,7.31.65,9.31,2.62,10,9.81.25,2.64.18,5.32.18,8q0,81.9-.06,163.79c0,4.13,2,10.12-2.31,11.86s-7-4-9.9-6.92q-87.69-87.46-175.15-175.14c-2.69-2.69-7.93-5.17-6.42-9.18,1.58-4.19,7.1-2.29,10.88-2.31C2093.08,650,2121.05,650.08,2149,650.08Z"/><path class="cls-3" d="M3184.11,1136q0,43.49,0,87a85.05,85.05,0,0,1-.3,10c-.72,6.13-2.7,8.64-8.83,8.75q-28,.51-55.95,0c-6.12-.12-8.05-2.63-8.78-8.79a74.65,74.65,0,0,1-.28-9q0-89,0-177.9c0-17.16.93-18,18.09-18.1,14.32,0,28.65-.13,43,.09,10.73.16,12.94,2.28,13,13.06.16,31.64.06,63.29.06,94.94Z"/><path class="cls-3" d="M3306.13,1135q0,44,0,87.94a87.28,87.28,0,0,1-.29,10c-.72,6.14-2.7,8.66-8.81,8.78q-28,.51-56,0c-6.12-.11-8-2.6-8.78-8.77a74.82,74.82,0,0,1-.28-9q0-88.93,0-177.88c0-17.2.92-18.08,18-18.13,14.33,0,28.66-.13,43,.09,10.72.16,12.95,2.29,13,13,.16,31.31,0,62.63,0,93.94Z"/><path class="cls-1" d="M2629.93,2102.93c0,10.33.22,20.66-.06,31-.26,9.46-2.53,11.74-12.06,12q-18,.41-36,0c-9.1-.23-11.54-2.46-11.66-11.3q-.42-31.47,0-62.95c.11-9,2.49-11.19,11.53-11.43,12-.31,24-.29,36,0,9.92.22,12,2.48,12.24,12.81.22,10,.05,20,.05,30Z"/><path class="cls-1" d="M2629.93,2242c0,10,.22,20-.07,30-.27,9.42-2.54,11.67-12.13,11.88q-18,.4-36,0c-9.05-.23-11.45-2.47-11.58-11.38q-.4-30.48,0-61c.12-8.9,2.53-11.13,11.59-11.36q18-.45,36,0c9.58.21,11.84,2.47,12.12,11.9C2630.15,2222,2629.93,2232,2629.93,2242Z"/><path class="cls-4" d="M1656,1244a32.53,32.53,0,0,1,1.92,11.77,606.87,606.87,0,0,0,21,148.09,613.13,613.13,0,0,0,71.68,165.43,622.15,622.15,0,0,0,109,131,607.33,607.33,0,0,0,162.94,107.33,618.52,618.52,0,0,0,172.47,49.12c21.79,2.88,43.67,5.13,65.71,5.26a47.86,47.86,0,0,1,6,.26c6.22.81,8.14,2.65,9,8.73a52.37,52.37,0,0,1,.28,7q0,275.49-.05,551c0,.33,0,.66,0,1-6.58,4-6.35-1.38-6.8-5.18-1.68-14.22-3.24-28.46-5.66-42.58-19.85-115.86-68.16-218.48-146.29-306.16Q1989,1932.17,1801,1885.88a593.67,593.67,0,0,0-175.48-16.52c-78.55,4.48-154,22.22-225.74,55.4-74.47,34.45-140.07,81.24-195.37,141.59-80.7,88.09-132.69,190.92-153.45,309-4,22.65-8,45.26-8.11,68.37,0,3.65,1.08,10.21-6.71,6.19-.07-7.65-.21-15.31-.21-23q0-272.1.06-544.19c0-6.27.87-12.7-2-18.69-5.33-.09-10.67-.26-16-.26q-295.47,0-590.94,0-202.48,0-405,.12c-6,0-12-.12-18-.19L4,1862.05l389.89-.07c4.33,0,8.69.12,13-.32,6.16-.65,8.19-2.65,8.81-8.82.46-4.63.33-9.32.33-14q0-296.41,0-592.83c-.52-.44-.69-.89-.51-1.34s.35-.66.52-.66h0c7.11-2.43,10.34.69,10.82,7.61.29,4.31.17,8.63.17,12.94q0,278.88,0,557.74c0,6-.25,12,.4,18,1.18,10.89,5.55,15.18,16.57,16.33,5.64.6,11.32.38,17,.38q277.86,0,555.74,0c6.78,0,14.16-1.58,19.36,4.94,4.16-3.83,8.46-7.52,12.46-11.52q93.7-93.6,187.34-187.28c4-4,7.84-8.2,12.74-11.18,5.12-4.49,6.91.16,8.88,3.43,9.44,15.66,19.26,31.09,28.6,46.8,6.63,11.15,10.87,13.32,17.45,9.24s6.82-8.86.25-19.83c-11.45-19.1-22.84-38.24-34.42-57.27-2-3.38-6.21-7.16.46-10.28,3.61.34,6.39-1.3,8.79-3.76,7.84-8,16.36-15.41,23.36-24.25,5.31-5.78,6.59.26,8.29,3.13,12,20.32,23.77,40.81,35.78,61.13,20.14,34.06,39.76,68.43,60.07,102.4,2.58,4.33,5.09,8.86,11.29,8.15,8.09-.93,11.81-8.37,7.61-16.55-6.68-13-14.67-25.31-22.06-37.94q-38.52-65.88-76.82-131.89c-2.07-3.56-7.89-7.83-.63-12.24,11.74-10.54,24.18-20.41,32.48-34.21,5.33-5.77,6.58.3,8.29,3.16,13.61,22.87,27.87,45.34,41.42,68.24q14.22,24.06,28.77,47.91c3.61,6,7.85,10.22,15.37,6.22,6.41-3.4,7.36-8.6,2.4-17-23.56-40.16-48.52-79.5-71.89-119.78-1.74-3-8.18-7.15-.17-10.8,8.82-7.12,16.3-15.63,24.34-23.56A18.91,18.91,0,0,0,1412,1482c5.42-5.34,6.65.5,8.37,3.44,11.1,19,22.4,37.8,33.43,56.8,32.91,56.73,66.15,113.26,99.18,169.91.5.86,1,1.75,1.49,2.6,3.53,5.66,7.36,10.83,15.18,6.92,6.48-3.24,7.47-8.7,2.95-17-4-7.31-8.24-14.47-12.43-21.65-41.3-70.72-82.76-141.34-123.8-212.2-1.76-3-8.11-7.17-.19-10.84,5.55-2,9.25-6.39,13.24-10.38q97.08-97,194.14-194.08C1647.56,1251.5,1651.87,1247.82,1656,1244Z"/><path class="cls-2" d="M3053.93,2173c-2.36-76.4,60.93-154.61,154.6-154.29,89.56.31,155.43,70.93,155,155.61-.48,85.75-66.88,155.33-155.78,154.74C3111.26,2328.44,3050.85,2248.58,3053.93,2173Z"/><path class="cls-12" d="M1036.11,2449.94a34.71,34.71,0,0,0,1.83-10.79c1.54-44.62,11-87.86,23-130.62a560.94,560.94,0,0,1,41.08-104,626,626,0,0,1,209.88-236.74c57.3-38.19,119.14-66.44,185.93-83.87,40.47-10.56,81.53-17.61,123.2-19.45,52-2.29,103.78.23,155.17,10.61,45.34,9.17,89.16,22.58,131.34,41.25a641.76,641.76,0,0,1,185,125.77,635.33,635.33,0,0,1,50.62,56.55,579.11,579.11,0,0,1,67,104.07c31.87,64,53.92,131.21,62.15,202.58.95,8.24,1.11,16.65,3.71,24.66q.1,15.95.19,31.89c-.57,17.69-1,18.12-19.21,18.12H1105.12q-34.5,0-69,0Q1036.11,2464.94,1036.11,2449.94Z"/><path class="cls-4" d="M756.28,2.13c6.34,2.33,13.09,2.41,19.65,3.48,52.42,8.54,100,28.75,141.4,61.78,58.84,46.92,97,107.21,112.27,181.44,14.11,68.66,5.9,134.76-24.23,197.78a299.58,299.58,0,0,1-81.26,103.87c-49.15,40.2-105,63.5-168.21,69.85-54.68,5.5-106.78-3.66-157-25.67a298.39,298.39,0,0,1-94-65c-49.14-50.19-78.13-110.54-86.85-180.43A308.65,308.65,0,0,1,523.92,76.33c47.29-40.27,101.66-64,163-72.3,2.95-.39,5.84-1.26,8.76-1.9Z"/><path class="cls-3" d="M416.05,2C414.59,69.69,404.91,136,383,200.22c-25.59,74.93-63.78,142.72-115.22,202.86-50.27,58.76-109.09,107.1-177.28,144-27.91,15.12-57,27.33-86.4,39q-.87,2.13-1.95.1L2,585.91Q2,305.52,2,25.11a135.59,135.59,0,0,1,.34-14C3,5,5,3.05,11.2,2.33a85.29,85.29,0,0,1,10-.31Z"/><path class="cls-4" d="M4.09,1740.14,4,1742c-.64,1.5-1.24,1.49-1.83,0l-.34,0c.09-2.66.25-5.32.25-8Q2.06,1507,2,1280q0-28-.07-56c0-28.33.15-56.66.14-85q0-197.49-.09-395l.06-2Q3,739.78,4,742A26.47,26.47,0,0,0,13,748c49.62,22.15,95.43,50.67,135.91,86.76,48.79,43.5,89.66,93.61,120.55,151.72a546.79,546.79,0,0,1,52.61,144,540.93,540.93,0,0,1,11,83.1c.39,7.25-1.62,9.55-9,10.21-4,.35-8,.22-12,.22q-143.88,0-287.75,0C4.41,1224,4,1224.4,4,1243.89c0,12,0,24,.08,36,4.34,3.9,4.93,9,4.93,14.44q0,33.48,0,67,0,179.41,0,358.83C9,1727.21,9.38,1734.35,4.09,1740.14Z"/><path class="cls-4" d="M3.94,672.07q172.43,0,344.85-.05c15.82,0,17.16,1.34,17.16,17.06q.06,182.92,0,365.85c0,3.47.76,7.21-1.35,10.4-2.53-.58-2.74-2.41-3.19-3.9-8.09-26.52-19.08-51.92-30.62-77-13.53-29.42-30.61-56.85-49-83.5A546.42,546.42,0,0,0,215.93,822c-23.45-23.14-48.06-45-75.17-64.09a651.32,651.32,0,0,0-91.91-54.33C34.16,696.47,19,690.46,4,684Q4,678,3.94,672.07Z"/><path class="cls-4" d="M2.12,586.22c.65-.05,1.3-.08,2-.1Q4,629.07,4,672c-1.94-4.69-2-9.64-2-14.59Q2,621.81,2.12,586.22Z"/><path class="cls-4" d="M4,742H2.07Q2,720.28,2,698.56c0-4.95,0-9.89,2-14.57Q4,713,4,742Z"/><path class="cls-4" d="M2.17,1742,4,1742q0,19.49,0,39c0,19.3.81,19.84,19,12.19A613.07,613.07,0,0,0,120.66,1741a579.36,579.36,0,0,0,108.23-91.22c49.8-53.77,89.28-114.3,116.38-182.66,4.92-12.39,9.79-24.77,13.88-37.46,1-3.12,1.76-6.4,3.83-8.94,3.36.26,2.7,2.76,2.83,4.47.25,3.32.16,6.66.16,10q0,178.9,0,357.8a108.48,108.48,0,0,1-.34,12c-.69,6.12-2.71,8-8.9,8.76a64.3,64.3,0,0,1-8,.28q-172.41,0-344.8,0C1.19,1790,1.91,1766,2.17,1742Z"/><path class="cls-4" d="M4,1814v48A124.15,124.15,0,0,1,4,1814Z"/><path class="cls-4" d="M1036.06,1862l-594.56,0c-18.9,0-19.49-.6-19.49-19.77q0-287.79,0-575.58,0-6.5-.17-13c-.11-4.29-1.57-7.82-5.81-9.65,6.74-2.65,13.8-2,20.77-2q288.48,0,576.94,0c3,0,6,0,9,0,10.84.38,12.81,2.3,13.2,13,.14,4,.06,8,.06,12q0,287,0,573.94C1036,1848,1036,1855,1036.06,1862Z"/><path class="cls-4" d="M4.09,1740.14q0-230.13,0-460.28,153.36.06,306.7.14c4.33,0,8.67,0,13,.4,5.1.44,7.7,3.55,7.88,8.61a42.67,42.67,0,0,1-.24,6c-8.07,75.79-29.63,147.25-67.43,213.74-19.69,34.62-43.28,66.17-69.4,96.16s-56.35,55.71-88.4,79C74.58,1706.82,40.75,1726.19,4.09,1740.14Z"/><path class="cls-4" d="M982,919.17q0,110.43,0,220.86c0,4,.13,8-.22,12-.69,7.61-3.35,10.16-11,9.42-10.27-1-20.52-2.43-30.69-4.18a579.93,579.93,0,0,1-160.94-52.46c-9.83-4.9-13.23-11.33-13.21-21.92q.33-195.37.16-390.75a52.37,52.37,0,0,1,.28-7c.82-6.15,2.7-8.1,8.85-8.83a85.05,85.05,0,0,1,10-.31q89,0,177.89,0c18.23,0,18.93.72,18.94,19.31Q982,807.24,982,919.17Z"/><path class="cls-4" d="M710,869.16q0,88-.07,176c0,4.5,2,10.54-2.39,13.08-4.81,2.79-8.22-2.92-11.75-5.5-34.09-24.86-64-54.06-91.22-86.31a511.06,511.06,0,0,1-80.73-132.7,500.52,500.52,0,0,1-35.46-137c-.5-4.3-.6-8.64-.8-13s2-6.93,6.38-7.35c3-.29,6-.37,9-.37q95,0,190,0h1c14.44.18,16,1.65,16.05,16.18Q710.05,780.67,710,869.16Z"/><path class="cls-4" d="M851,1193c-4.51,1.54-8.19,1-11.81,1q-181.86,0-363.73,0c-18.85,0-19.39-.56-19.39-19.85q0-169.38,0-338.75c0-4.23-.61-8.59,1.16-12.86,3.73.69,3.72,3.8,4.64,6,7.36,17.85,14,36,22.35,53.45,16.74,35,37.4,67.48,60.78,98.4,19.75,26.13,41.79,50.11,65.34,72.72a391.68,391.68,0,0,0,41.24,34.68c11.59,8.42,22.71,17.5,34.58,25.48,47,31.61,97.55,55.94,151.13,74.13q6.15,2.08,12.27,4.25C849.82,1191.76,850,1192.09,851,1193Z"/><path class="cls-13" d="M1436.19,1460q33.45,57.43,66.92,114.88,38,65.19,76.16,130.33c7.48,12.81,7.35,13.16-5.3,20.69-14.13,8.41-14.19,8.44-22.51-5.81q-67.1-114.8-134.15-229.61c-1.68-2.87-3.53-5.63-5.3-8.45l-43.92-75.87c-1.16-2-2.35-4-3.48-6-4.93-8.89-4.7-9.9,3.63-15,3.11-1.91,6.27-3.76,9.49-5.48,7.3-3.88,8.57-3.65,12.88,3.16,3.91,6.17,7.47,12.56,11.18,18.85Z"/><path class="cls-13" d="M1382.17,1516q28,46.69,56,93.39c8.4,14,16.92,27.91,25.19,42,4.66,7.94,4.21,9.26-3.71,14.31-3.93,2.5-8,4.79-12,7.16s-7,1.41-9.33-2.35c-1.77-2.83-3.55-5.64-5.27-8.49q-35.85-59.48-71.68-118.94c-1-1.71-2.24-3.31-3.36-5q-32.6-54.39-65.2-108.79-24.42-40.66-49-81.25c-1.38-2.28-2.66-4.61-3.92-7-1.88-3.53-1-6.4,2.22-8.66l.8-.59c17.76-13.89,19.48-13.57,31.09,5.66q51.08,84.64,102.2,169.28C1378.08,1509.87,1380.17,1512.88,1382.17,1516Z"/><path class="cls-13" d="M1325.5,1572.26c11.11,19.36,22.13,38.77,33.36,58.06q36.23,62.22,72.59,124.33c6.68,11.46,6.57,11.65-4.82,18.4-16.34,9.7-15,10.07-24.5-6.25q-47.81-82.08-95.82-164c-1.35-2.3-2.89-4.48-4.34-6.71q-24.26-41.94-48.53-83.87c-11.71-20.16-23.53-40.25-35.28-60.39-1.51-2.58-2.91-5.24-4.41-7.83-2-3.43-1.74-6.36,1.89-8.49,5.17-3,10.35-6,15.56-9,4.33-2.46,7.62-1.15,10.06,3,1.2,2,2.42,4,3.59,6q37.58,64.26,75.15,128.51C1321.68,1566.81,1323.66,1569.49,1325.5,1572.26Z"/><path class="cls-13" d="M1269.82,1624.08c13.81,23.16,27.55,46.37,41.44,69.48,9.65,16,8.77,14.52-5.51,23.33-12.35,7.62-12.45,7.6-19.86-4.61-10.19-16.8-20.33-33.64-30.56-50.42-2.07-3.39-4.48-6.59-6.74-9.87-2.34-6.31-6.21-11.78-9.64-17.48q-71.49-118.6-143-237.15c-8.29-13.75-8.26-13.76,5.16-21.82s13.47-8.1,21.75,5.62q69.47,115.14,139,230.28C1264.35,1615.72,1267.13,1619.87,1269.82,1624.08Z"/><path class="cls-4" d="M1371.93,382.88c0,10.33.21,20.66-.07,31-.25,9.49-2.5,11.77-12,12q-18,.4-36,0c-9.39-.23-11.65-2.52-11.76-12.24q-.34-30.48,0-61c.11-10.2,2.31-12.29,12.54-12.51,11.65-.24,23.32-.26,35,0,10,.23,12,2.44,12.28,12.77.22,10,0,20,0,30Z"/><path class="cls-4" d="M1312.05,243.11c0-9.66-.22-19.33.06-29,.27-9.47,2.54-11.78,12-12,12-.27,24-.29,36,0,9.39.24,11.63,2.53,11.74,12.27q.36,29.47,0,59c-.11,10.21-2.3,12.3-12.52,12.52q-17.49.38-35,0c-10-.23-12-2.47-12.28-12.79-.23-10,0-20,0-30Z"/><path class="cls-4" d="M416,1244c0,.67,0,1.33,0,2Z"/><path class="cls-13" d="M1389,2284.19c-6,0-12,.29-18-.08-6.32-.4-8.36-2.27-8.55-8.69-.35-11.65-.17-23.31,0-35,.06-5.21,3.09-8,8.24-8,12.32-.1,24.65-.28,37,.07,6.33.19,8.45,2.32,8.65,8.62.35,11.31.37,22.65,0,34-.23,6.88-2.28,8.66-9.3,9.07-6,.34-12,.07-18,.07Z"/><path class="cls-13" d="M1479.67,2232.41c6,0,12-.12,18,0,5.19.14,8,3,8.07,8.21.1,11.66.29,23.32-.07,35-.2,6.29-2.32,8.31-8.74,8.48q-18,.51-36,0c-6.93-.2-8.86-2.2-9.09-9.22-.35-11-.35-22,0-33,.21-7.37,2.24-9.17,9.87-9.54,6-.29,12-.06,18-.06Z"/><path class="cls-13" d="M1567.69,2232.33c5.67,0,11.34-.24,17,.07,7.11.38,9.28,2.18,9.48,8.85.35,11.31.36,22.65,0,34-.23,6.84-2.25,8.72-9.38,8.92-11.65.34-23.32.33-35,0-7.14-.18-9.2-2.06-9.42-8.88-.38-11.31-.37-22.65,0-34,.19-6.73,2.35-8.59,9.37-8.94,6-.3,12-.06,18-.06Z"/><path class="cls-13" d="M1656.6,2284.18c-6,0-12,.29-18-.08-6.56-.42-8.56-2.12-8.78-8.48-.4-11.64-.18-23.3-.09-35,0-5.2,3-8.12,8.11-8.18q19-.24,38,0c5.26.07,7.8,3.39,7.84,8.45.08,11.65.28,23.32-.11,35-.21,6.14-2.4,7.9-9,8.26-6,.33-12,.07-18,.07Z"/><path class="cls-13" d="M1744.82,2232.34c6,0,12-.26,18,.07,7,.39,9.1,2.21,9.29,9q.48,17,0,34c-.22,6.51-2.1,8.46-8.55,8.65-12.31.36-24.64.16-37,.07-5.18,0-8.17-2.86-8.23-8-.14-12-.16-24,0-36,.07-5.32,3.5-7.65,8.53-7.72,6-.1,12,0,18,0Z"/><path class="cls-13" d="M1835.18,2232.31c5.66,0,11.33-.23,17,.06,7.06.36,9.2,2.17,9.4,8.91.33,11.31.34,22.64,0,33.95-.22,6.85-2.27,8.75-9.37,8.93-11.64.3-23.31.31-35,0-7.12-.21-9.21-2.1-9.45-8.89-.4-11.31-.39-22.64,0-33.95.21-6.66,2.41-8.5,9.48-8.88,6-.32,12-.07,18-.07Z"/><path class="cls-13" d="M1923.27,2284.21c-6,0-12,.28-18-.07-6.89-.39-8.88-2.25-9.08-9.25-.32-11.32-.11-22.65,0-34,0-5.13,2.61-8.35,7.84-8.43q19-.26,38,0c5.13.05,8.06,2.93,8.1,8.17.07,11.66.29,23.33-.09,35-.2,6.39-2.16,8.07-8.74,8.48-6,.38-12,.08-18,.08Z"/><path class="cls-12" d="M725.65,466c-77.11,3.64-154.73-61.87-155-153.58-.25-85.72,67.31-156.15,155.62-156,87.51.16,155.15,69.45,155,155.58C881.07,404.7,804.07,469.28,725.65,466Z"/><path class="cls-12" d="M725,1710q-32.49,0-65,0a97.73,97.73,0,0,1-10-.42c-4.59-.49-7.14-3.28-7.66-7.84a54.35,54.35,0,0,1-.34-6q0-44.49,0-89a43.64,43.64,0,0,1,.18-5c.79-6.68,2.75-8.73,9.33-9.49a68.67,68.67,0,0,1,8-.25q66.5,0,133,0c16.32,0,17.48,1.21,17.51,17.74q.06,41.49,0,83a64.39,64.39,0,0,1-.28,8c-.78,6.19-2.66,8.22-8.76,8.91a108.73,108.73,0,0,1-12,.34Q757,1710,725,1710Z"/><path class="cls-12" d="M725.68,1518q-32.49,0-65,0a86.71,86.71,0,0,1-9-.23c-6.65-.71-8.69-2.77-9.47-9.35a62.64,62.64,0,0,1-.24-7q0-42.48,0-85a58.18,58.18,0,0,1,.24-7c.81-6.53,2.85-8.48,9.6-9.22a65,65,0,0,1,7-.21q67,0,134,0c15.82,0,17.15,1.34,17.18,17q.09,42,0,84a65.12,65.12,0,0,1-.2,7c-.76,7.12-2.79,9.27-10.14,9.72-6.65.4-13.33.22-20,.23Q752.67,1518,725.68,1518Z"/></svg>