<svg id="Layer_1" data-name="Layer 1" xmlns="http://www.w3.org/2000/svg" viewBox="0 0 3508 2482"><defs><style>.cls-1{fill:#3a3a3a;}.cls-2{fill:#2c2c2c;}.cls-3{fill:#323232;}.cls-4{fill:#2b2b2b;}.cls-5{fill:#353535;}.cls-6{fill:#252525;}.cls-7{fill:#2e2e2e;}.cls-8{fill:#313131;}.cls-9{fill:#272727;}.cls-10{fill:#373737;}.cls-11{fill:#2d2d2d;}.cls-12{fill:#2f2f2f;}.cls-13{fill:#4f4f4f;}.cls-14{fill:#292929;}.cls-15{fill:#262626;}</style></defs><path class="cls-1" d="M0,1198.17V622.29a14.08,14.08,0,0,1,11.49-5c4,.1,8,0,12,0,190.93,0,381.88,1.56,572.79-.33,340.85-3.38,681.69-.38,1022.53-1.64,5,0,10-.29,14.94.29,3.46.4,7.23.62,7.55,5.48.66,6.21,2.8,12.35.66,18.62-4.66,6.8-8.37,5.62-10.86-1.57-2.73-7.86-8.62-10.46-16.26-10.69-4.66-.14-9.32-.14-14-.14q-471.81,0-943.62.1c-5.37,0-13.33-2.91-15.53,2.71-2.13,5.44,5.54,9,9.36,12.81q286.13,286.35,572.21,572.71c13.76,13.81,27.89,20,47.49,19.88,116.28-.7,232.57-.37,348.85-.29,6.72,0,14-1.35,19,5.34a3.76,3.76,0,0,1-1.23,3.31c-5.37,4.71-11.92,3.22-18,3.23q-169.48.14-339,.07c-6,0-12-.29-18,.54-9.45,1.33-13.47,5.34-14.78,14.76-.84,6-.55,12-.55,18q0,174.94,0,349.9c0,7,0,14-.24,21-.21,4.63,1.16,9,1.88,13.54-5.16,9.16.28,18.25.18,27.37-5.18,7.33-.44,14.69,0,22-4.27,9.33-1.16,18.67,0,28-4.53,8-1.11,16,0,24-4.76,8.65-.87,17.32,0,26-4.42,8-1.15,15.91,0,23.87-4.65,9.12-.69,18.26,0,27.38-3,3.36-2.67,7.5-2.7,11.56,1.1,10.15-6,9.77-12.74,9.94-53.44,1.39-105.61-7-156.93-21-95.23-26.11-179.8-72.25-252.77-138.6-85.68-77.93-146.14-172.3-179.93-283.44-7.87-25.89-13.08-52.33-18.63-78.74-2.13-10.17.47-20.34-1.94-30.41-1-4.2-2.74-7.88-4.22-11.76-2.74-7.2-1.6-15.51-1.62-23.15,0-8.89-1.71-17.94.35-26.82,1.23-5.33-6.21-5.81-5.87-10.6,3.86-12.21,6.4-24.65,5.35-35.79-6,11.56-12.89,24.69-20.57,37.41-1.39,2.32-2.78,4.7-6.19,3.77-4.92-2.92-10.09-.17-15.13-.71-3.53-.38-7.06-.27-10.2-2.18-4.8-1.71-5.81-4.12-2.93-8.94,13.47-22.52,25.42-45.89,38.25-68.78,2.09-3.73,7-9.23,2-12.25-5.69-3.47-8.28,3.5-10.62,7.54C577,1186.11,563,1212.16,548.73,1238c-2,3.59-2.67,9.83-9.63,7.42-5.13-1.87-10.31,0-15.45-.26-4.48-.19-8.11-1.41-11-4.74-3.26-2.1-2.9-4.61-1.07-7.59,13.1-21.27,24.09-43.72,36.37-65.45,2.52-4.46,9.37-11,3.28-14.5-6.41-3.69-9.66,5.24-12.26,10.08-12.79,23.75-26.31,47.08-39.16,70.79-2.52,4.66-3.47,12.34-12,10.78-8.24-.41-16.7,2.56-24.67-1.6-6-1.91-5.29-5.2-2.61-9.83,13-22.45,25.14-45.41,37.73-68.11,2.08-3.75,7.22-9,2.11-12.15-5.45-3.35-8.7,3.29-10.93,7.37-14.35,26.29-29.19,52.3-43.48,78.62-1.8,3.32-2.43,8-8,7.51-3-2.78-6.28-1.56-9.78-1.4-5.29.24-10.92,1.27-15.89-1.88a7,7,0,0,1-3-2.06,3.91,3.91,0,0,1-1.34-4.54c12.76-24.37,26.91-48,39.39-72.57,1.79-3.53,6.69-8.27,1.67-11.18s-8.19,3-10.39,6.84c-14.89,26.28-28.91,53.06-44.12,79.16-1.92,3.28-3.18,7.82-8.7,5.83-8.15-.74-16.55,2.7-24.46-1.51-5.79-1.67-5.82-4.68-3.09-9.63,12.49-22.71,25.23-45.28,37.4-68.17.93-1.76,1.91-3.5,2.72-5.32,1.07-2.39,2.93-5.2.2-7.24-3.09-2.31-5.6.18-7.75,2.29-2.64,2.6-4.13,6-5.93,9.17-13.8,24.27-26.63,49.07-40.69,73.19-2.23,3.84-3.68,9.11-10.12,7.32-7.5-.48-15.06,1.79-22.5-.49-6.21-1.75-7.38-4.67-4.15-10.83,11.86-22.69,24.8-44.78,36.68-67.45,2.09-4,7.91-9.8,2.48-12.94-5.68-3.3-8.68,4.06-11.21,8.49-14.52,25.39-28.13,51.3-42.64,76.7-2,3.42-2.74,8.73-8.84,7.55-8.09-2.94-17.1,2.06-24.94-2.87-6.25-2-4.79-5.44-2.38-9.9,12.37-22.83,25.42-45.3,37.29-68.39,1.88-3.64,7.62-8.83,1.91-11.93-5.34-2.9-8.44,3.69-10.83,7.9-14.49,25.45-28.07,51.43-42.7,76.81-2.29,4-4,8.84-10.2,7.65-7.66-.32-15.37,1.18-22.93-.85s-6.8-6.1-3.6-11.78q18.88-33.45,37-67.29c2-3.71,7.26-9.12,2.08-12.15-5.39-3.15-8.38,3.51-10.77,7.69-14.7,25.68-28.47,51.89-43.14,77.59-1.95,3.41-2.74,8.75-8.86,7.49-4.78-2.67-9.74.1-14.6-.53-3.53-.46-7.33.49-10.42-2.09-5.2-2.48-4.71-5.63-2.22-10.33,11.95-22.66,24.77-44.84,36.77-67.47,2.05-3.86,7.79-9.52,1.74-12.73-5.24-2.79-8.09,4.15-10.5,8.33-14.43,25.08-27.84,50.74-42.16,75.89-2.34,4.12-3.84,9.84-10.78,7.82-8.24-.43-16.72,2.68-24.67-1.73-5-1.73-5.52-4.32-2.75-9,13.39-22.54,25.37-45.87,38.18-68.74,2.08-3.71,7-9.22,1.89-12.2-5.67-3.33-8.24,3.62-10.59,7.68-14.78,25.57-28.75,51.6-43,77.45-2,3.59-2.66,9.82-9.62,7.41-5.13-1.87-10.31,0-15.45-.26-4.47-.19-8.11-1.41-11-4.74-3.91-2.56-2.41-5.32-.53-8.42,13.29-21.93,24.57-45,37.35-67.18,2.11-3.66,7.18-9.07,1.89-12.12-5.46-3.15-8.6,3.58-10.85,7.66-13.34,24.19-26.88,48.26-40.21,72.45-2.71,4.93-3.48,13-12.46,11.75-8-.76-16.28,3-24.1-1.52-3.18-7.6-.14-14.39,3.32-20.93,10.28-19.39,20.91-38.58,31.57-57.75,2-3.55,6.43-8.39,2-11.46-5.18-3.62-8.27,2.46-10.48,6.15-6.66,11.11-12.38,22.78-19,33.94C8.83,1197,6.76,1203.07,0,1198.17Z"/><path class="cls-2" d="M1638.14,622.37a29.28,29.28,0,0,0-11.74-2q-7,0-14-.05c-321.23,0-642.47-1.62-963.69.57C432.48,622.31,216.25,621,0,622.29V2.43c3.43-2,7.17-1,10.74-1q123.66-.1,247.3-.05c1.13,0,2.28,0,3.42.08C268,4.93,267,11.17,267,16.85c.07,57,.89,114-.4,170.91-.48,21.18,6.23,34.72,23.35,47.63,79.53,60,158.07,121.22,237,182,27.17,21,54.51,41.68,81.49,62.88,13.74,10.8,17.22,11,31.4,0q152.37-117.45,304.76-234.9c8.17-6.31,16.13-12.94,24.6-18.83,10-6.91,14.08-15.86,14-28-.3-44-.13-88-.11-131.94,0-17.32,0-34.65,0-52,0-4.84-.06-9.75,4.71-12.91a12.42,12.42,0,0,1,3.54-.35q434.4,0,868.72,0a5.93,5.93,0,0,1,3.56,1.19c3.84,4.41,3.41,9.81,3.41,15.11q.06,59,0,118V601.55c0,4.66,0,9.33-.17,14-.32,6.82-3.75,10.93-10.6,11.58a36.31,36.31,0,0,0-19.29,7.44c-3.28,2.54-6.42,2.8-10,.29a50.58,50.58,0,0,0-17.36-7.34c-4.4-1.07-8.42-.83-12.17,1.81-7.84.07-15.65-5.63-23.53-.13-9.46-.47-18.9-5-28.38-.08-7.75-.86-15.5-4.65-23.23.07-8.57-.45-17.11-5-25.7-.1-7.54,1.09-15.11-6-22.64.12-6.46-.47-12.86-1.58-19.29-2.25-3.38-.35-6,0-8.73,1.62C1641.86,628.37,1640.65,624.56,1638.14,622.37Z"/><path class="cls-3" d="M3508,620.29V1646.08c-6.21,4.76-9.1-1.17-12.27-4.27-22.87-22.37-45.37-45.11-68-67.74q-156.93-156.94-314-313.78c-5.42-5.42-9.52-11.8-14.67-17.37-2.53-2.72-1.61-6.27-2-9.51-1.72-13.15,3.92-25.55,3.92-38.5,0-53.65-.08-107.3.09-161,0-12-5.32-23.28-4.2-35.49.42-4.56,3.39-9.7-.9-14.09a3.45,3.45,0,0,1-.05-2.88c18.4-21.09,38.53-40.56,58.93-59.62,18.74-17.53,36.59-35.9,55-53.69,4.75-4.58,9.42-9.23,14.48-11.78,1.95-1.33-.65-1.27.54-.68.54.26.51.64-.15.95-8.62,4-15.37,10.48-22,17.08q-46,45.81-92,91.66c-3.83,3.82-7.65,8.4-12.58,1.21-2.49-3.79,1.67-8.68-2-12.24-3.73-5.63,1.69-8,4.44-10.4,23.83-20.68,44.66-44.4,67.56-66-18.27,15.55-34.47,33.23-51.61,49.95-2.62,2.56-5.35,5-7.86,7.66-4,4.25-7.36,3.49-10.49-.93-2.48-3.8,1.67-8.7-2-12.27-3.66-5.07,1.4-7.14,3.71-9.78,8.53-9.73,19.69-16.75,28.38-27.1-7.44,5.45-13.19,12-19.43,18-4.11,3.93-7.3,3.83-10.59-.62-1.53-4.21,1-9.29-2.95-13,.92-4.47,3.64-8.65,2.27-13.55-.27-16.9-2.31-33.88,3.23-50.42.83-2.48.24-5.29.24-7.95,0-45.26.71-90.54-.35-135.78-.39-16.42-3.79-32.79-3.81-49.45,0-13.1,4.1-17.2,17.75-17.25q123.83-.47,247.66,0c8,0,16,2,24.11.4,6.87,2.62,7.83,6.37,2.4,11.62-3.1,3-6.08,6.11-9.1,9.2,6.57-6.57,13-13.3,19.79-19.59,2.17-2,4.2-5.89,8.24-2.64,3.61,3.88,8.48-.3,12.36,1.88,5.27,3.18,5.48,6.59,1,10.92-11.51,11-21.94,23.09-34.3,33.2-5.84,4.77-10.93,10.2-13.78,14.79,19-19,39.42-39.48,60.14-59.68,1.89-1.84,4.08-3.77,6.84-1.08,3.59,3.76,8.43-.38,12.24,1.9,7.32,4.58,3.19,8.43-.72,12.46-24.11,24.84-50.36,47.48-74.32,72.48-9.12,9.51-18.75,18.53-24.14,27.6a102.67,102.67,0,0,1,9.69-11.53c32.82-33.08,66-65.78,99.1-98.62,2.64-2.61,4.89-8.14,10.51-4.29,3.43,3.64,8,.11,11.76,1.95,4.88,3.76,4.38,7.48.21,11.54-20.73,20.24-40.25,41.72-62,60.87-4.26,3.75-8.29,7.72-12.29,11.73-43.72,43.91-87,88.27-131.77,131.1-52.72,50.46-103.18,103.14-155.77,153.69,72.48-69.64,142.71-141.55,214.68-211.69,47.72-46.49,94.43-94,142.28-140.32,5.41-5.24,7.15-13.68,15.09-16.44C3499.86,614.44,3504.33,615.79,3508,620.29Z"/><path class="cls-4" d="M3508,2062V2481.9H2866a4.29,4.29,0,0,1-1.3-3.23c3.31-4.42,8.77-4,13.28-5.48,34.14-11.22,65.44-28,92.84-51,42.8-35.9,71.11-81.86,88.83-134.56,9.42-28,15.81-56.58,16.47-86.27a28.86,28.86,0,0,1-.06-5.65c2.12-12.77,2.88-25.53-.21-38.28,0-1.93.25-3.85.32-5.76-.89-24.75-5.69-48.76-12.62-72.59a206.85,206.85,0,0,0-12.78-33.28c-5.1-3.69-1.06-7.08.6-10.26,15.25-29.08,31.58-57.58,47.35-86.38,15.29-27.92,30.51-55.86,47-83.12,2-3.35,1.07-9.11,7.41-8.84,9.31-.25,18.61-.54,27.88.19,8.12,4.55,5.51,10.47,2.15,16.57q-23.85,43.21-47.65,86.47c-16.17,29.42-32,59-48.54,88.24-2.25,4-7,9.43-.81,12.92,5.17,2.92,9.51-2,12-6.36,12.73-22.59,25.28-45.28,37.87-67.94,22.44-40.38,43.68-81.44,68-120.78,2-3.21.74-9.43,7.22-9.28,9.93-.3,19.84-.59,29.72.17,7.62,2.68,4.42,7.75,2.27,12q-9.61,19.18-20.06,38-38.49,69.43-76.48,139.15c-.95,1.75-1.94,3.49-2.78,5.31-1.37,3-3.74,6.35-.47,9.08,3.54,3,7,.51,9.78-1.94,3.58-3.09,5.85-7.22,8.06-11.33,29.82-55.39,60.66-110.23,90.79-165.45,4.11-7.54,9.72-14.2,12.84-22.31,1.21-3.16,4.37-2.4,6.9-2.85,9.16,0,18.3-.52,27.4.38,7.33,3.39,4,8.9,2,13.27-3.69,7.8-8.21,15.22-12.36,22.81q-42.14,77.09-84.51,154c-2.28,4.14-8.29,10-1.83,13.77,6,3.52,10.46-2.88,13.15-7.71q22.13-39.66,44-79.44c20.22-36.66,39.28-74,61.26-109.64,1.77-2.88,1.15-7.55,6.41-7.32a289.28,289.28,0,0,1,29.6.18c7.44,3.13,4.63,8.64,2.26,13-15.49,28.69-31,57.41-46.85,85.88-17.36,31.09-34.32,62.4-51.22,93.74-1.9,3.52-5.85,8.25-.67,11.4,4.81,2.92,9.13-1,11.69-4.93,8.85-13.7,16.05-28.37,24-42.6,27.53-49.39,53.37-99.72,82.53-148.21,1.84-3.06.65-8.6,6.63-8.46,9.92-.29,19.81-.59,29.68.17,6.67,1.55,4.38,6.61,3.47,10.36-1.26,5.17-4.52,9.58-7.09,14.24-30.51,55.32-60.32,111-91.36,166a37.94,37.94,0,0,0-2.26,4.45c-1.19,2.95-4.25,6.34-1,9.05,3.84,3.17,7.53.16,10.65-2.34,3.71-3,5.69-7.3,7.92-11.38q48.08-88,96.63-175.66c2.86-5.21,4.11-12.56,11.25-14.92a280.15,280.15,0,0,1,29.7.15c8.09,4.13,4.18,10.09,1.53,14.87-8.57,15.44-16.54,31.2-25.29,46.53-24.58,43.11-47.67,87-72.27,130.14-2.29,4-6.86,9.53-.66,13,5.68,3.16,10.05-2,12.87-6.57,8.16-13.36,15.28-27.32,22.85-41,25.92-46.93,51.34-94.14,77.49-141,2.53-4.54,6.54-8.15,7.79-13.56.64-2.81,3.68-2.17,6-1.85,2,.86,3.34,2.55,4.86,4v46c-6.56,27.43-23.06,50.09-36,74.4-11.93,22.33-24.2,44.48-36.63,66.54a43,43,0,0,0-3.12,6.26c-.84,2.29-1.19,4.64.94,6.43s4.37,1.38,6.61.44c4.61-1.93,7.09-5.92,9.38-10,16.54-29.67,32.75-59.52,49.18-89.26,1.75-3.16,1.42-11.89,9.68-6.8v56a111.38,111.38,0,0,1-15.26,38.29c-2.18,3.42-5.55,7.59-1.71,11.63,3.39,3.55,7.44,1.3,10.78-.89C3504.39,2059.34,3506.1,2060.65,3508,2062Z"/><path class="cls-4" d="M622,2481.9H2Q1.93,2177,2,1872.16c0-12.58,3.24-16.16,16.51-16.87,13.94-.75,27.92.6,41.88-.1,5-.25,10-.18,15,0,12.54.36,17.06,4.76,17.61,17.14.15,3.32.07,6.65.09,10,1.33,60,22.3,112.3,61.09,157.86,27.08,31.8,59.71,55.52,100.6,65.21,78.29,18.56,144.08-3.78,196.93-64,42.21-48.11,61.93-104.87,63.44-168.45.37-15.77,5.72-17.65,17.62-18,14.77-.4,28.7,6,43.48,4.17,12.79-1.63,25.38-5.12,38.48-4,5,.43,10.23.1,11.8,6.57.85,5,.55,10,.55,15q0,291.34,0,582.69c0,6.61.93,13.38-2.31,19.63A27.79,27.79,0,0,1,622,2481.9Z"/><path class="cls-1" d="M3388,620.27q-131.91,0-263.8,0c-19.83,0-20.18.36-20.18,20.06q0,119.89,0,239.77a3,3,0,0,1-3.48.35c-4.47-5.11-3.45-11.4-3.46-17.39q-.09-114.81,0-229.62c0-86.52.1-173-.17-259.56,0-6.41,2.79-13.09-.89-19.33-2.94-4.52,0-7.57,2.95-10.26,26.66-24.54,51.34-51.11,74-72.73-17.95,18.45-41.27,38.42-62.56,60.5-3.69,3.83-7.49,7.25-12.12,1.11-2-3.3,1.34-7.62-2.07-10.61-3.75-5.54,1.64-7.87,4.25-10.53,15.82-16.1,31.92-31.92,45.6-45.66-10.76,10.47-23.31,23.66-36.54,36.18-3.9,3.69-7.34,6-11.2.2-3.09-3.66,1.73-8.67-2.11-12.18-3.54-4.4.66-6.66,2.89-9,8.17-8.64,16.67-17,24-24.17-4.15,3.84-9.26,9-14.28,14.14-3.94,4.05-7.21,3.81-10.6-.37-2.47-3.85,1-8.32-1.29-12.17-2-4.68-10.52-4.81-8.49-12.29,8-8.07,8.63-18.22,8.63-28.72q-.06-99.12,0-198.25c0-5.58-.7-11.34,2.72-16.39a7.46,7.46,0,0,1,3.35-1.89q198.57-.18,397.14,0c2.59,0,5.34-.73,7.75,1V620.29l-16,0h-1.19a4.09,4.09,0,0,0-1.91,1.31c-2.27,2-3.47,0-4.85-1.28-4.76,0-9.51-.11-14-2-3.83-2.81-2.37-5.37.26-8.05s6.37-4.32,8.64-8.27c-6.67,5.7-12.18,11.78-18.14,17.39-2.69,2.52-5.39,5.43-8.8.88-4.76,0-9.51-.06-14-2-5.2-4.24-.77-7,1.77-9.56,11.41-11.5,22.37-23.47,34.77-34-15.33,13.76-29.39,28.84-44.27,43.07-2.66,2.54-5.32,8.12-10.25,2.46-4.77,0-9.53-.09-14-2-5.68-5,0-7.61,2.53-10.3,14.79-15.77,31.92-29.15,46.6-45.07,4.5-4.88,9.58-9.22,13.65-14.55-22.09,21.74-44.25,43.41-66.17,65.32-2.59,2.58-5.17,5.17-7.93,7.58S3389.89,622.72,3388,620.27Z"/><path class="cls-5" d="M3242,1862H3210c-9.58,6.79-20.15,6.82-28,.07l-30,0c-8.26,6.61-18.19,5.19-27.7,5.77-7.87-2.65-16.12.65-24-1.48-11.75-17-20.81-35.63-30.78-53.69q-68.74-124.65-137.38-249.35c-4.5-8.12-5.08-14.63-.41-23.09q77.13-140,154.32-279.93c7.48-13.51,11.27-27.13,11.17-42.71-.48-71.94-.25-143.88-.18-215.82,0-6.68-.47-13.59,4.61-19.1,2.83,5.61,2.34,11.67,2.35,17.65,0,75,.23,149.92-.2,224.87-.07,12.61,3.65,21.84,12.67,30.82q190.16,189.39,379.76,379.32c3.77,3.76,7.84,7.21,11.77,10.81v216l-6,0c-9.33,4.51-18.66,9.34-28,0l-32,0c-9.58,6.79-19.08,6.8-26,0l-32,0c-9.67,6.81-19,6.82-26,0h-32q-15.34,10.1-26,0l-30,0C3260.64,1866.56,3251.3,1871.4,3242,1862Z"/><path class="cls-4" d="M412.06,1240.14l27.88-.19c6.76,1.83,2.24,5.15.9,7.81-9.73,19.34-21.1,37.78-31.43,56.8-23,42.42-46.62,84.55-70,126.77a115.43,115.43,0,0,0-5.84,11.6c-1,2.46-2.2,5.37.74,7.16,2.74,1.66,5.11-.23,7.11-2.07,3-2.75,4.79-6.36,6.73-9.85,29.64-53.24,58.63-106.83,88.14-160.14,6.77-12.24,13-24.75,19.93-36.91,1.7-3,3-7.7,7.76-2.94,8.48,3.31,17.35,1.67,26.06,2.06,7.23,2.55,1.92,6.82.69,9.44-7.09,15.06-16.06,29.13-24,43.77-26.41,48.89-53.94,97.17-80.37,146a25,25,0,0,0-2.07,4.53c-.6,2-1,4,.78,5.53,2.22,1.85,4.44.7,6.39-.69,3.35-2.39,5.35-5.92,7.23-9.43C414,1411,430,1383,445.44,1354.61c16.24-29.8,32.45-59.62,48.88-89.31,4.84-8.74,9.26-17.68,13.89-26.52,1.66-3.17,3.31-7.47,7.81-2.62,3.08,3.47,7.19,4,11.47,4,4.84,0,9.67-.1,14.5-.15,6,1.59,2.44,5,1.18,7.52-4,8-8.45,15.84-12.82,23.69q-44.09,79.34-88,158.77l-1.66,2.51c-.53.83-1.1,1.63-1.7,2.42-14.12,3.66-20,16.74-29.24,25.91Q217,1653,24.82,1845.54c-5.59,5.6-11.34,10.93-18.53,14.49-2.09.51-4.19,2.89-6.27,0V1426.12c4.57-15.22,13.14-28.49,20.54-42.34,18.3-34.22,37.48-68,56-102.1,7.26-13.42,15-26.57,21.87-40.21,1.61-3.2,2.75-7.63,7.64-3.31,8.45,3.36,17.32,1.63,26,2.21,5.25,4.94.86,9.31-1.2,13.38-10.34,20.5-22.13,40.22-33.07,60.4-22.22,40.94-45.52,81.28-67.19,122.51-2.08,3.95-7.92,9.67-2.44,12.95,5.77,3.44,8.92-3.79,11.38-8.22q33.36-60.24,66.41-120.65c14.41-26.25,28.6-52.62,43.48-78.61,1.58-2.76,2.67-9,8.38-3.89,8.56,3.17,17.46,1.69,26.23,1.87,6.16,1.58,2.47,5,1.14,7.48-7.75,14.34-15.17,28.85-23.15,43.06-27.18,48.42-53.5,97.32-80.6,145.79-2.22,4-7.5,10.09-2.6,13.13,5.62,3.47,9-3.73,11.48-8.11,19-33.2,36.78-67,55.49-100.4,17.9-31.9,34.9-64.29,53.09-96,1.76-3.07,2.71-9.61,9.08-4.84l26.1.18c4.18,3.76,2.62,7.64.34,11.63-27.56,48.21-53.29,97.44-80.78,145.7-7.9,13.86-16,27.65-22.8,42.1-1.53,3.26-5.47,7.7-.37,10.36,4.16,2.18,7.53-1.92,9.56-5.31,9.42-15.68,17.87-31.91,26.62-48q42.51-78,85.69-155.55c1.66-3,2.69-7.85,7.61-3.16,8.51,3.26,17.37,1.71,26.1,1.92,6.11,1.44,2.52,5.07,1.43,7.6-4.5,10.41-11,19.72-16.39,29.69-28.91,53.95-59.27,107.1-88.29,161-1.9,3.52-6.54,8.3-1.56,11.26s8.18-2.77,10.47-6.66c11.81-20.07,22.64-40.69,33.88-61.07q32.77-59.42,65.44-118.88c3.86-7,7.19-14.26,11.48-21,1.91-3,3.83-5.94,7.47-1.83l26.09.19c5.23,4.93.92,9.37-1.18,13.39-12.27,23.61-25.36,46.77-38.25,70-21.43,38.69-42.59,77.52-64,116.2-1.7,3.07-4.86,7-.95,9.77,4.23,3,7.45-1,9.82-4.19,5-6.67,8.05-14.52,12.12-21.77,33.86-60.3,66.54-121.26,100.34-181.59,1.57-2.8,2.06-9.3,8-4.06,8.5,3.28,17.37,1.7,26.1,2,6.9,3.32,1.65,7.16,0,10.18-12.1,22.61-24.6,45-37,67.45-22.52,40.81-44.86,81.72-67.77,122.31-1.82,3.22-6.09,7.57-1.83,10.53,4.79,3.33,8.91-1.21,11.33-5.13,9.09-14.74,16.84-30.25,25.21-45.4,28.66-51.88,56.91-104,85.78-155.73C405.51,1241.32,406.26,1235.59,412.06,1240.14Z"/><path class="cls-6" d="M106,1238.16l-68.92,126c-9.74,17.79-19.5,35.56-29.14,53.41-1.94,3.6-4,6.88-7.95,8.56v-42c17-47.52,46.78-88.42,69.22-133.12,2.75-5.49,7.6-8.36,12.74-11,16-29.19,31.91-58.42,48-87.55a16.93,16.93,0,0,1,20.64-7.38c2.53,1,3.85,2.66,3.09,5.38a21.94,21.94,0,0,1-2,4.57Q128.91,1196.63,106,1238.16Z"/><path class="cls-7" d="M622,2481.9l.07-2.08c4.67-5.9,11.28-4.91,17.58-4.91q110,0,219.92,0c20,0,40-.39,60,.08,192.16,4.51,384.35,2,576.51,1.41,117.6-.35,235.21-1.24,352.82-1.49,4.33,0,8.66.1,13,.15,48.33-.34,96.66-.13,145-.14q416.48,0,832.94,0c7.32,0,14.69-.58,21.83,1.7,2.1.26,3.9.92,4.38,3.31,0,.66,0,1.32,0,2Z"/><path class="cls-6" d="M30,1240.24q20.07-36.16,40.13-72.33c2.74-4.94,5.68-9.77,8.25-14.8,4.42-8.63,11.49-9.41,20.48-8.22,3.76.49,5.07,2.86,3.54,6.49a38.07,38.07,0,0,1-1.72,3.59q-22.34,40.6-44.69,81.19c1.75,13-6,22.67-11.68,33-11.07,19.95-21.58,40.21-33.13,59.88-2.27,3.88-4.53,9.91-11.2,5.11v-42c3.76-13.32,8.77-26.05,16.17-37.88C19.84,1248.43,23.6,1243.13,30,1240.24Z"/><path class="cls-6" d="M3508,1956q-27.84,50.7-55.72,101.37c-5.45,9.86-12.18,13.3-21.88,11.83-8-1.22-9.83-4.29-6.09-11.5,5.06-9.74,10.59-19.22,15.9-28.82q30.64-55.42,61.3-110.85c1.93-3.47,4.32-6.69,6.49-10Z"/><path class="cls-4" d="M0,1334.14c6-4.59,9-11.34,12.51-17.69q14.1-25.67,28-51.45c5.2-9.6,10.33-19.22,15.49-28.84,3.07,3.47,7.18,4,11.46,4,4.83,0,9.66-.1,14.49-.15q-25.91,46.43-51.81,92.85c-7.73,13.89-15.33,27.85-23,41.8A34.14,34.14,0,0,1,0,1384.13Z"/><path class="cls-8" d="M0,1860l6-2c12.36-4.61,25.25-2.73,37.94-3q17.43-.3,34.88.05c4.15.09,8.78-.87,11.87,3.31a50.86,50.86,0,0,1,2,20.36c-.33,3.15-.08,6.85-4.74,7.25-1.79-4.42-1.71-9.12-2.17-13.75-.73-7.42-2.66-9.86-9.82-10q-31-.48-62,0c-7.15.12-9.22,2.69-9.81,10-.35,4.31-.21,8.66-.21,13q0,286.91,0,573.8c0,7.65.56,15.36-2,22.8-.61-.44-2.08,1-2-1,.09-2.67,0-5.33,0-8Z"/><path class="cls-6" d="M0,1198.17c4-2.74,6.2-6.83,8.44-10.93,6.22-11.37,12.34-22.8,18.84-34,4.59-7.92,10.46-10.25,19.29-8.55,4.93,1,6.2,2.89,4.13,7.75a156.64,156.64,0,0,1-7.24,14.2q-19.72,35.8-39.55,71.55c-.73,1.79-1.34,3.8-3.91,2Z"/><path class="cls-9" d="M1861.56,2.38,988,2.4c-.66-.43-.88-.87-.67-1.31s.43-.66.65-.66h874c.58.59.7,1.07.38,1.46A1.14,1.14,0,0,1,1861.56,2.38Z"/><path class="cls-10" d="M2338,.43h764l1.73.65-1.53,1-.34.53c-3.06,3.59-7.09,4.89-11.64,4.83-6-.07-12,0-17.95,0q-357.55,0-715.11-.06c-6.59,0-13.58,1.43-19.38-3.41A3.17,3.17,0,0,1,2338,.43Z"/><path class="cls-2" d="M988,.43c0,.66,0,1.32,0,2l-.12.12c-3,3.6-7,5-11.61,4.94-6-.07-12,0-18,0l-676.78,0c-6.86,0-14.24,1.49-19.52-5L262,2.35Q259.79,1.3,262,.43Z"/><path class="cls-6" d="M3508,2062c-6.15,7.58-15.31,10.09-23.6,6.59-3.32-1.4-4.64-3.66-3.36-7a59.16,59.16,0,0,1,3.64-8.12c7.72-13.84,15.54-27.62,23.32-41.42Z"/><path class="cls-4" d="M0,1240.16l3.91-2c8.49,3.3,17.38,1.66,26.11,2.06-8.21,15-16.36,30-24.67,44.9-1.42,2.54-3.55,4.68-5.35,7Z"/><path class="cls-11" d="M3102.2,2.1c-.07-.56-.14-1.11-.2-1.67q199,0,398,.1c2.62,0,6.14-2,8,1.9q-193.41,0-386.82,0C3114.85,2.41,3108.53,2.21,3102.2,2.1Z"/><path class="cls-12" d="M2338,.43c.06.72.11,1.44.17,2.16-.27.59-.54,1.17-.84,1.7-4.12,3.29-9,3.12-13.89,3.12q-136.45,0-272.9,0c-4,0-8,.12-11.8-1.53a9,9,0,0,1-3.3-1.91A3,3,0,0,1,2036,.43Z"/><path class="cls-9" d="M262,.43c0,.64,0,1.28-.07,1.92L0,2.43C-.28-1.52,2.77.53,4,.53,40.69.4,77.36.43,114,.43Z"/><path class="cls-10" d="M2036,.43l-.33,2.27c-2.54,4.5-7,4.57-11.26,4.6-50.17.31-100.35,0-150.52.17-4.51,0-8.7-.83-11.49-4.9l-.85-.19L1862,.43Z"/><path class="cls-13" d="M1862.41,2.57l173.27.13.1-.08a11.61,11.61,0,0,1,5.16,10c0,3.33.08,6.65.08,10q0,331.34,0,662.68c0,22,0,22-22,22q-60,0-120,0c-4.67,0-9.34-.12-14,.27-12.53,1-16.9,5.51-17.83,18.26-.22,3-.21,6-.21,9q0,119.44,0,238.88c0,23.87,3.52,27.48,27,27.49q181.45.12,362.9,0a130,130,0,0,0,17-.89c31.52-4.2,54.06-26.77,58.19-58.31,1.17-9,.89-18,.89-27q0-446.29.08-892.57c0-6.93-2.15-14.71,5.07-19.94l0,.06c5.33,0,10.66-.16,16-.16q365.85,0,731.7,0c5.33,0,10.66.13,16,.2q.07,115.91.23,231.81c0,7.83-1.71,13.82-10.29,15.67,2.24,5.74-2.2,8.54-5.35,11.73-20.86,21.07-42.16,41.69-63.6,62.18-28.42,27.17-55.39,55.85-83.76,83.08-73.57,70.62-144.43,144-207.67,205.66,39.8-37.13,87.94-85.2,135.48-133.84,26.7-27.33,53.28-54.74,81.26-80.78,47.81-44.52,93.08-91.64,139.69-137.38,3-3,5.64-9.75,12.12-4.44,2.16,4.47,2,9.28,2.05,14.06,5.18,4.3.66,7-1.84,9.63-9.44,9.84-18.76,19.88-29,28.9-21.94,19.44-41.76,41-62.91,61.24-3,2.89-5.94,5.93-8.64,7.09,7-3.82,13.57-10.26,20-16.83,23.13-23.45,46.63-46.52,70.13-69.61,2.38-2.34,4.74-8.85,10-2.85,2.25,4.55,2.12,9.43,2,14.32,2.26,5.7-2.2,8.54-5.28,11.71-15.71,16.14-32,31.73-47.69,47.87,14.78-12.36,27.54-26.85,41.71-39.86,2.33-2.14,4.83-8,9.26-1.93,2,3.92,2.17,8.19,2.46,12.44,4.79,2.86,1.71,5.41-.43,7.8-4.39,4.9-9.2,9.4-14.2,14.73,4.4-2.11,7.2-6.9,12.41-4.53,2.56,6.06,1.92,12.46,1.92,18.76q0,206.94-.08,413.88,0,48.5,0,97c0,.5-.05,1-.07,1.48-2.19,2.3-4.94,3.93-7.43,5.87-24.41,21.16-46.06,45.14-69.21,67.59-4.24,4.1-8.36,8.33-12.53,12.5,25-24.84,49.45-50.24,75.65-73.85,3.27-3,5.94-7.66,11.7-5.4,2.34,4.38,2,9.23,2.4,13.94,6.06,5.12-.31,7.57-2.67,10-20.64,21.1-41.64,41.84-62.49,62.73,17.58-17.52,35-35.21,52.77-52.5,2.43-2.35,4.94-8.73,10-2.5,2.37,4.51,2,9.44,2.26,14.28,5.87,4.25.54,6.88-1.74,9.25-12.85,13.33-26.1,26.28-37.17,37.37,8.05-7.91,17.86-18.1,28.09-27.86,2.38-2.27,5-6.41,8.56-1,2.37,4.5,2,9.45,2.3,14.28,3.82,2.2,2.66,4.59.35,7.13-3.57,3.9-7.4,7.52-10.83,11,3-1.41,5.1-8.25,10.1-2l-.25.25c.11,2.66.33,5.32.33,8q0,120.45.07,240.91a39.94,39.94,0,0,1-5.31,20q-71.73,129.94-143.22,260c-5.78,10.51-11.24,21.2-17.26,31.57-3.4,5.86-3.16,10.89.12,16.8q38.32,69,76.24,138.3,41.43,75.31,82.76,150.69c2.19,4,5.38,7.81,4.31,13,.07,3.3-1.55,5.19-4.77,5.71-8.94-3-17.74.79-26.62.56-10.7-2.77-21.6-.08-32.36-1.16-9.37-1.59-18.61,1.66-28,.8-10-2.25-20.09.3-30.09-.83-9.2-1.18-18.4.91-27.61.18a217.19,217.19,0,0,0-30.49,1.13c-9.2-3-18.68-.15-28-1.33-10-1-20,1.12-30.06,0-13.69-1-27.27,2.32-41,1-5.73-1.68-11.49-3-17.27,0-9-3.09-18.14.36-27.15-.91-4-1.11-8-.71-12.09-.64s-8.27.6-12.41.31c-2.93-.68-5.59,2.4-8.6.62-8.38-1.39-16.79.53-25.16-.29-3.46-1-7-.53-10.45-.23-4.5-1.33-9,.16-13.56-.12-3-.78-5.71,2.42-8.78.65-8.48-1.36-16.84.35-25.25.92-3.42-.9-6.82-2.5-10.32-.27-5.77-1.81-11.58-2.49-17.49-.66-1.73.53-3.43,1.47-5.26.4-8.88-3.07-17.76,1.23-26.64.06-2.76-1.67-6.18-.62-9-2.1-1.68-.63-3.33-1.35-5-2-8.26-16.2-17.92-31.62-26.68-47.55-45.46-82.6-90.54-165.42-136.58-247.69-7-12.47-6.65-22.16.31-34.62,39.63-71,78.68-142.27,117.76-213.55,10.58-19.28,21.37-38.45,31.74-57.83,6.14-11.46,4-14.74-9-15.13-4-.12-8,0-12,0q-332.46,0-664.93.14c-15.71,0-31.24-2-46.89-2.22-4.45,0-7.61-1.58-9.06-6.16s-4.21-8.8-5-13.69a27.32,27.32,0,0,0-7.16-11.82c-1.15-1.2-2.28-2.42-3.47-3.59C1760.4,1155.71,1708,1099,1652.7,1045.1c-2.31-2.25-4.28-5-7.71-6.21-1.74,4.59.93,7.4,2.89,10.33a43.14,43.14,0,0,0,6,6.64c56.21,54.85,109.45,112.64,165.54,167.6,3.92,3.85,8.17,7.48,10.6,12.65a6,6,0,0,1,.6,3.12,8.73,8.73,0,0,1-1.59,3.07c-4.26,4-9.4,3-14.27,2.2-3.75-.65-6.67.45-9.55,2.38-3.22,0-5.45-1.65-7.64-4-37.92-39.82-77.43-78.07-116.25-117-10.13-10.16-19.13-21.32-29.29-31.42-2.27-2.26-4-5.34-8.29-6.34.16,6.87,4.19,11.13,8.06,15.62C1671,1126,1692.41,1146.1,1713,1167c20.84,21.1,42,41.88,62.9,62.93,4.22,4.25,7,8.1,1.35,13.14-3.68,2.71-8,2.47-12,1.74s-6.85-.21-9.72,2.15c-4.68.35-6.86-3.18-9.64-6.05-32.45-33.47-65.74-66.1-98.66-99.09a4.5,4.5,0,0,0-3.46-1.4c.13,7.35,4.73,12,9.27,16.58,22.47,22.74,45.27,45.13,67.8,67.8,2.59,2.6,5,5.34,7.68,7.86,5.27,5,4.84,9-1.92,12-7,2.27-14.84-3.15-21.47,2.33-4.6,0-6.75-3.47-9.48-6.36-16.18-17-32.91-33.55-51.43-51.7-.28,8.23,3.27,12.27,7,16.12,9,9.34,18.3,18.3,27.34,27.56,5,5.08,5,8.91-1.79,12-6.88,2.57-14.65-3.29-21.16,2.29-6.09.93-8.22-6.4-13.76-6.65-1.94-.17-3.89,0-5.84-.08q-190.49,0-381,.19c-9.72,0-17-3-23.87-9.89Q932.63,931.61,633.85,633c-2.44-2.43-7.25-4.63-5.57-8.53s6.58-2.09,10.06-2.1c25.67-.13,51.33-.08,77-.08h895c4.67,0,9.34-.1,14,.1,8.89.39,10.22,1.66,11.85,10.17.5,2.61,1.25,5.17,1.88,7.75,5.75-2,8.55,2.48,11.73,5.58,19.54,19.07,38.51,38.72,57.92,57.93,33.84,33.49,67.23,67.44,101.13,100.88,5.68,5.6,10.11,12.31,17,18.51.9-5.13-1.08-8.35-3.25-11.43-2.7-3.82-6.22-6.94-9.47-10.27-53.34-54.47-106.49-109.12-160.7-162.73-2.6-2.58-5.13-5.23-7.55-8-2.22-2.51-2.28-4.66.75-6.5a37.13,37.13,0,0,1,28,.37c7.19-.12,11.66,4.6,16.11,9.2,42.37,43.84,84.92,87.49,128.41,130.21,2.34,2.3,4.19,5.17,8,6.86-.13-5.38-3.18-8.8-6-12.35-15.32-19-33.41-35.33-50.52-52.58-23.7-23.9-47.78-47.42-71.19-71.59-2.38-2.46-8.7-4.91-2.85-10.13,8.47-3.88,17.36-2,26.13-1.87,8.67,2.86,15.26,8.54,21.72,14.85,25,24.39,47.55,51.16,73,75.12,2.64,2.48,4.74,5.59,9.61,7.75,0-7.54-4.25-11.87-8.47-16.06-22.21-22-42.63-45.73-65.2-67.4-3.34-3.21-8.47-6.09-6.18-12.36,9.3-3.71,18.59-3.21,27.87.09,6.19.56,10.56,4.26,14.74,8.4,12.21,12.09,24.36,24.23,37.65,37.51.19-7.56-2.84-12-6.71-16-6.4-6.7-13.22-13-19.54-19.77-2.65-2.83-6.08-5.47-4.06-10.21,10.85-3.48,21.43-4.88,30.81,3.78,2.29,2.11,4.83,2.83,6.53-.52,2.57-5,7.1-5.36,11.87-5.61,16.73-.91,16.81-1,16.81-18.24q0-291.09,0-582.17C1862.05,15.21,1862.28,8.89,1862.41,2.57Z"/><path class="cls-5" d="M1652,1240.09l25.94.06c2.91-3.88,5.63-2.27,8.23.35,14.75,14.88,30.19,29.06,44.25,44.64,24.31,26.94,50.82,51.73,76.41,77.41,1.38,1.38,3,2.68,5.84,2,.08-6.58-4.68-10.11-8.49-13.93-23-23.11-45.89-46.35-69.24-69.1-11.69-11.39-21.39-24.62-33.79-35.29-2.55-2.19-4.48-4.82.86-6.17l26,.1c2.91-4,5.67-2.19,8.19.35,18.7,18.87,38.47,36.7,56.07,56.64,6.83,7.74,14,15.08,21.41,22.24,1.6,1.55,3.78,3.7,6,1.55,2-1.91.51-4.36-.66-6.38a33.7,33.7,0,0,0-5.79-6.82c-20.34-20.07-40-40.86-60.83-60.38-2.43-2.27-7.09-4.67-.35-7.46,8.15.21,16.39,1.7,24.25-1.81,4.43-4.64,7.12-.29,9.81,2.15,10.85,9.82,19,22.19,30,31.87,2.5,2.21,5.11,7.68,8.45,4.67s-.62-7.38-3.09-10.32a170.39,170.39,0,0,0-19.75-19.64c-2.78-2.38-5.27-4.78.29-6.83,8.59,0,17.28,1.67,25.67-1.61,1.61-2.87-.25-5.55-.34-8.29-.13-3.91-2.32-9.42,4.79-10.14.57,3.27,1.24,6.52,1.69,9.81,1.13,8.21,2.61,10,10.5,10.42,12.63.74,25.27,1.65,37.91,1.66q343.29.14,686.57.08a127.56,127.56,0,0,1,13,.28c5.3.55,6.54,2.54,4.17,7.36-3.66,7.47-7.88,14.66-11.89,22q-60.41,109.88-120.82,219.74c-8.82,16-17.41,32.24-26.74,48-4.74,8-5.15,14.84-.48,23.18,23.11,41.26,45.73,82.79,68.53,124.22q42.15,76.57,84.29,153.17c3.69,6.71,7.25,13.49,10.87,20.23-2.36,5.58-7.33,4.28-11.74,4.49-14.54,2.17-29.07,3.82-43.48-.6-4.95-.39-9.85,1.2-14.84.66-12.14.76-24.27,4.91-36.42.2-2.67-1-5.06,1.89-7.69.36-7.59-1.61-15.21,0-22.81,0q-275.93-.2-551.85-.09c-6.33,0-12.67-.22-19,.58-8.38,1.07-13.18,5.76-14.31,14.17-.84,6.3-.62,12.64-.62,19q0,280.86,0,561.74c0,6.78,1.68,14.21-5,19.38H632.08c-3.33,0-6.66,0-10-.07L622,1862c-3.1-1.9-6.52-.94-9.77-1-15-.11-30-.83-45,.09-56,3.45-112,3.24-168,5.64-12.2.52-24.66,1.46-36.54-3.23-2.84-1.13-5.94-.53-8.92-.53-23.33,0-46.66-.31-70,.08-16.53.27-33-1.12-49.61,2.77-12.48,2.92-25.78.67-38.77-.11-30.61-1.85-61.29-.48-91.94-.72-5.69,0-11.47.2-15.47-5l-66.38,0c-5.29,0-10.58,0-15.62-2,3.37-3.68,6.6-7.5,10.12-11q204.4-204.43,408.88-408.8c3.53-3.52,7.36-6.73,11.05-10.09,6.6,1.54,3.32,5.4,2.26,9-1.3,4.38-7.45,10-1.68,13,6.36,3.3,9.24-4.28,12-9,16.41-28,30.45-57.38,48.05-84.75,8.78-2.37,13.62-9,19.15-15.69,8-9.74,17.52-18.36,26.78-27.07,4.06-3.82,7.8-4.27,11.82-.25,3.22,3,.35,5.47-1,7.88-21.47,38.68-42.58,77.55-63.82,116.35-2.05,3.74-7.17,9-1.74,12.08s8.65-3.28,11-7.47q34.8-62.85,69.17-125.93c14.19-25.91,28.31-51.87,43.59-77.17,2-3.38,3.84-2.89,6.33-1.1,3,3.85,3.75,8.35,4.07,13.12,1.23,18.6,2.11,37.25,4.09,55.77,7.6,70.87,26.4,138.54,57.59,202.82a632.54,632.54,0,0,0,85.16,131.33,612.25,612.25,0,0,0,91.95,88.62,621,621,0,0,0,112.69,70.1c60.26,29.12,123.68,47.54,190,56.15,21.49,2.79,43,4.83,64.78,4.1,5-.17,10.08-.06,13.9-4.17,4.92-3.95,3.82-7.86-.08-11.75q0-14.08,0-28.18c3.79-3.38,6.65-1.09,9.43,1.56,6.28,6,12.59,11.91,18.13,18.6a46,46,0,0,0,4.48,5.35c3.66,3.26,8.39,9,12.42,5.13,3.27-3.12-3.33-6.79-6.07-9.68-7.33-7.73-14.9-15.25-22.6-22.62-6.62-6.34-12.59-13-15.71-21.85l0-26.54c5.65-4.38,8.51.82,11.53,3.75,21.7,21,42.54,42.91,64.19,64,3.37,3.28,6.44,7.59,12.38,6.94.46-5.36-3.54-7.4-6.15-10.06q-32.46-33-65.53-65.46c-6.81-6.7-13.09-13.59-16.44-22.7q0-14.2,0-28.4c3.8-3.36,6.68-1.08,9.41,1.61,18.71,18.44,37.73,36.59,55.3,56.14,17.81,19.81,37.43,37.81,56.08,56.78a12.86,12.86,0,0,0,4.95,3.28,2.87,2.87,0,0,0,2.84-.18c1.26-1,.83-2.38.19-3.56a25.58,25.58,0,0,0-5.19-6c-37.12-35.78-71.21-74.54-108.36-110.29a82.7,82.7,0,0,1-15.25-19.46q0-14.17.1-28.35c3.85-3.32,6.63-.85,9.41,1.74,5.12,4.76,10,9.73,15,14.69q52.74,53.15,106,105.83c9.49,9.38,17.23,20.31,27.09,29.29,3.31,3,6.33,6.85,11.77,6.07.75-4.56-2.64-6.29-4.79-8.52q-69.69-72.18-140.68-143c-7.22-7.21-16.42-11.08-23.8-17.68l-.09-393.83a59.74,59.74,0,0,1,.18-6c.73-7.28,2.68-9.39,9.87-10,4.3-.36,8.65-.23,13-.23l370.92,0,1.38-.17c2,.35,3.75.78,5.12,2.61,22.21,29.77,50.73,53.56,76.34,80.09,24,24.89,49,48.87,73.34,73.47,2.91,2.94,5.23,7,11.09,7.34.68-6.4-3.9-9.63-7.4-13.15q-55.53-56-111.54-111.5c-11.34-11.24-20.58-24.45-33.08-34.57C1648.61,1244.15,1646.7,1241.48,1652,1240.09Z"/><path class="cls-6" d="M361.92,1238.19q-33,59.88-65.92,119.75-22.58,41.11-45,82.28c-1.6,2.91-3.12,5.88-4.89,8.69-5.18,8.24-12.11,11-21.23,8.74-4.1-1-5.74-3.33-3.93-7.28,1.66-3.63,3.63-7.11,5.55-10.61q30.61-55.47,61.23-110.94Q312,1284.66,336,1240.4c12.65-20,23.08-41.27,34.77-61.82,4.77-8.4,9.19-17,14.09-25.32,4.63-7.85,11.8-10.58,20.42-8.5,3.65.89,5.26,3,3.81,6.53a87.33,87.33,0,0,1-4.52,8.89Q383.29,1199.2,361.92,1238.19Z"/><path class="cls-6" d="M259.91,1238.2q-41.42,75.16-82.8,150.35c-9.94,18.06-19.68,36.24-29.56,54.33a76.63,76.63,0,0,1-5.74,9.34c-4.08,5.43-15,7.83-20.88,4.8-4.33-2.22-2.79-5.49-1.18-8.49q8.5-15.83,17.17-31.55,36.33-66,72.67-132c8.14-14.87,17.26-29.21,24.45-44.6,12.6-20,23.08-41.27,34.77-61.82,4.77-8.4,9.19-17,14.09-25.32,4.63-7.85,11.82-10.58,20.42-8.48,3.66.89,5.25,3,3.8,6.53a90.49,90.49,0,0,1-4.52,8.89Q281.27,1199.21,259.91,1238.2Z"/><path class="cls-6" d="M464,1238.18q-35.87,65.71-71.75,131.41-21.59,39.39-43.57,78.56c-5.06,9-10.51,11.44-20.65,9.68-5.21-.91-6.44-2.71-4.54-7.46a79.82,79.82,0,0,1,4.52-8.89q34-61.61,68.08-123.19c12.53-22.72,24.89-45.54,37.41-68.27,1.92-3.49,4.3-6.72,6.47-10.07,5.64-13.19,13.44-25.22,20.2-37.8,8.81-16.4,18.2-32.49,27-48.92,4.15-7.78,10.6-9.46,18.41-8.64,6.19.64,7.7,2.89,4.81,8.67-5.35,10.7-11.22,21.15-17,31.64Q478.73,1211.57,464,1238.18Z"/><path class="cls-6" d="M412.06,1240.14q-48.88,88.74-97.75,177.49c-5.45,9.91-10.64,20-16.06,29.89-5.08,9.3-13.6,12.88-23.42,10.17-3.27-.9-4.54-2.88-3.27-5.92a115,115,0,0,1,5.63-11.68q27.57-49.77,55.27-99.47,27.82-50.19,55.56-100.44c15.43-28,30.92-56,46.24-84,4-7.25,8.9-12.33,18-11.65,7.76.59,9.83,3.26,6.35,10.18-5.08,10.11-10.73,19.94-16.18,29.87q-14.19,25.83-28.42,51.65c-.73.61-1.25,1.41-1.92,2.07Q412.08,1239.2,412.06,1240.14Z"/><path class="cls-6" d="M500,1362.16c-10.47,13-17,28.43-25.24,42.75-8.13,14-15.68,28.43-23.51,42.65-5.22,9.47-11.87,12.48-22.18,10.12-4.42-1-5.43-2.83-3.66-7.15.87-2.13,2.2-4.08,3.29-6.13,2.78-5.27,5.7-10.48,7.33-16.28l-.08,0a27.06,27.06,0,0,0,2-2q19-33.9,37.94-67.8Q509,1299.2,542,1240c16-29.19,31.9-58.42,48-87.55a16.93,16.93,0,0,1,20.64-7.38c2.53,1,3.85,2.66,3.09,5.38a21.46,21.46,0,0,1-2,4.57q-22.83,41.57-45.71,83.1c2,6.31.22,11.86-2.94,17.41-14.44,25.32-28.16,51-42.14,76.6C515.05,1343,506.47,1351.79,500,1362.16Z"/><path class="cls-6" d="M516,1236.16c-7.92,14.63-15.78,29.3-23.78,43.89q-38.67,70.5-77.42,141c-5.14,9.34-10.43,18.59-15.49,28-4.05,7.49-10.45,9.8-18.44,8.92-6.66-.72-8.34-3.18-5.38-9.31,4.35-9,9.19-17.74,14-26.49q40.73-73.92,81.55-147.8c6.28-11.37,12.64-22.69,19-34q20.07-36.16,40.14-72.33c2.74-4.94,5.68-9.77,8.25-14.79,4.41-8.63,11.45-9.42,20.48-8.23,3.75.49,5.07,2.86,3.54,6.48a37.17,37.17,0,0,1-1.73,3.6Q538.38,1195.57,516,1236.16Z"/><path class="cls-6" d="M207.94,1240.21c-10.44,16.25-18.8,33.67-28.16,50.53q-31.75,57.12-63.3,114.36c-7.89,14.26-16.06,28.37-23.51,42.86-4.13,8-10.14,10.8-18.65,10.08-7.82-.66-9.13-2.45-5.61-9.2q8.52-16.36,17.46-32.53,42.1-76.49,84.32-152.9c4.34-7.86,9-15.54,13.52-23.3,15.68-28.56,31.29-57.16,47.06-85.67,4.69-8.48,11.19-11.43,19.83-9.69,4.83,1,6.23,3.17,4.53,7.79a55.82,55.82,0,0,1-3.67,7.07Q229.86,1199.92,207.94,1240.21Z"/><path class="cls-6" d="M157.78,1238.24q-18.9,34-37.8,68.08-32.83,59.42-65.57,118.89c-4.33,7.87-8.41,15.88-12.89,23.67s-11.46,10.73-20.25,8.87c-4.18-.88-5.78-3.17-4.16-7.16a74.19,74.19,0,0,1,4-8q31.78-57.72,63.61-115.41,23.79-43.32,47.32-86.78,18.27-32.65,36.54-65.33c3.89-7,8-13.83,11.49-21,3.76-7.85,10-10.14,18-9.48,7.41.61,9,3,5.64,9.59-3.17,6.22-6.73,12.25-10.08,18.38Q175.69,1205.37,157.78,1238.24Z"/><path class="cls-6" d="M309.94,1240.21c-9.77,17.39-19.67,34.73-29.3,52.2-11.56,21-22.82,42.12-34.37,63.11-17,30.9-34.23,61.67-51.09,92.64-3.8,7-8.86,10.38-16.79,9.84-8.27-.55-10.41-3.42-6.71-10.78,5.08-10.1,10.76-19.9,16.21-29.8q41.15-74.78,82.34-149.52c5.14-9.33,10.52-18.52,15.78-27.78q23.5-42.84,47.05-85.67c4.69-8.48,11.18-11.43,19.82-9.7,4.84,1,6.25,3.16,4.55,7.77a54.5,54.5,0,0,1-3.67,7.07Q331.86,1199.91,309.94,1240.21Z"/><path class="cls-6" d="M617.93,1238c-.32,4.33-.75,8.46-4.42,11.68-6.36,5.58-10.26,13-14.26,20.31q-47.91,87.46-95.66,175c-4.5,8.28-9.72,14.13-20.1,12.92-7.32-.85-9-3.08-5.61-9.63,6.43-12.39,13.25-24.58,19.95-36.83q26.07-47.68,52.2-95.35c-1.06-5.37.25-10.2,2.67-15.08,8.85-17.89,19.25-34.93,28.44-52.63,2.4-4.63,7.1-5.72,10.88-8.25,8.91-16.15,17.35-32.57,28.05-48C622.24,1207.78,624.1,1223.08,617.93,1238Z"/><path class="cls-6" d="M1645.54,624.27q89.48,90.66,178.94,181.35c8.76,8.89,10,14.76,6.09,26.86-2.84.66-4.25-1.55-5.8-3.12Q1732,735.61,1639.32,641.8c-.47-.47-.87-1-1.3-1.52l.12-17.91Z"/><path class="cls-6" d="M1242.12,1652.24c9.05-1.25,15.78,2.48,22.09,8.86,33.2,33.6,67.13,66.49,99.87,100.53,17.75,18.46,35.68,36.73,53.61,55a42,42,0,0,1,4,4.46c1.78,2.43.91,4.23-1.58,5.66-5.94,3.43-12.31,3.14-17.51-1.57A168.41,168.41,0,0,1,1387,1809.7c-14.45-17-30.84-32.16-46.52-48q-43.53-44-87.4-87.6c-3.52-3.53-7.27-6.83-10.92-10.23C1242.17,1660,1242.14,1656.12,1242.12,1652.24Z"/><path class="cls-6" d="M1242.1,1692.22c4.63,1.49,7.87,4.88,11.15,8.2q62.45,63.3,124.82,126.67c2.4,2.44,6.79,4.72,4.59,9-1.81,3.48-6.25,3.33-9.83,3.92-4,.65-7.11-1.26-9.78-4-20.52-20.91-41.82-41-61.69-62.63-19-20.58-38.86-40.25-59.23-59.42Z"/><path class="cls-4" d="M592,1240.18q-17.7,32.4-35.43,64.79c-2.08,3.79-4.37,7.45-6.56,11.17-4.74.59-7.2,4.42-10.25,7.33-13.38,12.76-25.6,26.71-39.74,38.69,2.55-10.92,9.29-19.82,14.46-29.44,17-31.61,34.33-63,51.53-94.56C574.49,1241.51,583.33,1239.87,592,1240.18Z"/><path class="cls-6" d="M1242.14,1742.33c2.78,2.37,5.74,4.55,8.32,7.13q43.1,43,86,86.18c2.45,2.47,7.21,4.76,5.62,8.6-1.88,4.51-7.37,3.51-11.55,3.89-5.26.48-8.56-3-11.87-6.34q-28.57-28.61-57.16-57.19c-6.36-6.34-12.91-12.48-19.37-18.71Q1242.15,1754.1,1242.14,1742.33Z"/><path class="cls-6" d="M1242.19,1792.42c8.64,6.28,15.46,14.48,23,21.88q15.63,15.29,30.84,31c4.14,4.3,3.16,6.67-2.69,8-9.31,2.06-16.93-.68-23-8.09a238.38,238.38,0,0,0-28.29-29.25Z"/><path class="cls-14" d="M1242.06,1844.11a18,18,0,0,1,2.67,1.21c2.94,1.94,7.23,3.68,6,7.85-1.11,3.83-5.49,2.39-8.61,2.69C1242.12,1851.94,1242.09,1848,1242.06,1844.11Z"/><path class="cls-5" d="M1636,1240.18c1.1-4.12-2-9.62,4-12.1.24,2.77,1.55,5.31,1.75,8.08.3,3.93-.13,7.25-5.5,6.08l-.33-.1C1636,1241.48,1636,1240.83,1636,1240.18Z"/><path class="cls-4" d="M412.06,1238.25l1.92-2.07Z"/><path class="cls-5" d="M262,2.44H974.93c4.33,0,8.66.05,13,.08,0,66.64-.13,133.28.22,199.91.06,11.37-3.63,19.18-12.81,26.22Q850,324.71,725.13,421.44q-45.9,35.42-91.92,70.68c-7.63,5.86-9.92,6.11-17.67.25-20.19-15.28-40.21-30.79-60.29-46.22q-54.69-42-109.35-84-41.17-31.71-82.22-63.6c-29.53-22.81-58.84-45.9-88.77-68.18-9.25-6.89-13.16-14.5-13.09-26C262.2,137.05,262,69.74,262,2.44Z"/><path class="cls-5" d="M1555,194.39c60,0,120,.46,180-.22,25.34-.29,36.11,11.56,35.15,34.76-.66,16,0,32-.17,48-.22,22.39-9.2,31.33-31.88,31.43-36,.15-72,0-108,.07-17.08,0-18.06,1-18.12,18.13q-.07,23.49,0,47c0,8.35-2.42,15.68-8.14,21.93-5,5.43-10.84,8.77-18.34,8.77-21,0-42,.42-63-.13-16.18-.42-25.33-10-26.13-26.95-.67-14.3-.25-28.65-.34-43,0-5.33.16-10.68-.26-16-.53-6.72-2.66-8.79-9.25-9.51a92.12,92.12,0,0,0-10-.26q-51.49,0-103,0a104,104,0,0,1-13-.5c-13.11-1.66-22-10.78-22.31-24-.45-21-.53-42,0-63,.42-16.14,10.45-25.64,26.81-26.27,11.31-.43,22.66-.19,34-.19Z"/><path class="cls-6" d="M1695.45,624.26q64.93,65.84,130,131.58c6.42,6.45,7.78,13.61,6.7,21.87-.5,3.82-2.63,4.34-5.53,2.11a36.74,36.74,0,0,1-3.65-3.41q-73.4-74.35-146.76-148.75c-.93-.94-1.74-2-2.61-3C1680.82,621.6,1688.11,621.81,1695.45,624.26Z"/><path class="cls-6" d="M1746.05,624.29c13.69,13.56,27.47,27,41,40.72,13.1,13.22,25.74,26.9,39.06,39.89,7,6.79,6.71,14.74,5.89,23.07-.33,3.26-2.45,3.7-4.94,1.76a36.45,36.45,0,0,1-3.67-3.36q-49.37-50.05-98.68-100.14c-1.16-1.17-2.12-2.55-3.17-3.84C1729.78,622.42,1738.05,621.59,1746.05,624.29Z"/><path class="cls-6" d="M1796,624.29c10.4,10.24,20.73,20.53,31.22,30.68,6.36,6.15,5.57,13.8,4.75,21.4-.34,3.06-2.45,3.74-5,1.89a16.69,16.69,0,0,1-2.26-1.93q-25.39-26-50.75-52C1781.27,621.5,1788.63,622,1796,624.29Z"/><path class="cls-6" d="M3484,620.33l4-3.87c4.33-1.83,2.06,3.17,4,3.85h0c-.2,6.52-3.93,11.06-8.28,15.4-43.19,43-85.59,86.89-129.64,129-56.34,53.9-110.29,110.18-166.28,164.4-19.38,18.76-39,37.3-58,56.38-3.36,3.36-7,6.18-12,6.41-2,.09-4.35.5-5.48-1.47-1.29-2.25.83-3.61,2.25-4.93,4.4-4.07,9-7.93,13.25-12.15,41.77-41.62,82.82-84,125.38-124.79,54.36-52.11,106.49-106.45,160.74-158.64,21.12-20.32,41.93-40.94,62.86-61.44C3479.3,625.94,3481.59,623.06,3484,620.33Z"/><path class="cls-6" d="M3145.6,990.35c.15-4.3,3.33-6.05,5.56-8.29,49.92-49.94,99.15-100.59,150-149.52,60-57.72,118-117.5,177.41-175.8a59.85,59.85,0,0,1,6.65-6c2.18-1.57,3.83-.41,4.23,2.06a14,14,0,0,1-2.88,11.29,99.44,99.44,0,0,1-7.44,8.07c-32.74,32.72-64.86,66.12-98.43,98-53.17,50.45-103.6,103.64-156.46,154.35-20.18,19.37-40.05,39-60.06,58.58C3159.06,988.08,3153.45,991.65,3145.6,990.35Z"/><path class="cls-6" d="M3484,687.63a20.84,20.84,0,0,1-5,16.16c-2.34,2.81-5,5.39-7.56,8-20.26,20.27-40.14,41-60.91,60.69-64.51,61.31-126.33,125.33-189.73,187.75-6.64,6.53-13.8,12.54-20.8,18.72-4.69,4.15-10.25,5.64-16.19,5.56a8.46,8.46,0,0,1-.54-1.7,1.37,1.37,0,0,1,.29-.94c50.66-50.66,100.58-102.1,152.25-151.71,48.8-46.86,95.42-95.9,144.49-142.46a3.69,3.69,0,0,1,1.87-.58C3482.5,687.05,3482.83,687.27,3484,687.63Z"/><path class="cls-6" d="M3226.8,973.12c5.93-10,233.46-236.21,247-245.88-.63,9.06-2.88,16.73-9,22.55-50.81,48-98.93,98.79-149.08,147.48-22.21,21.56-44.73,42.79-66.51,64.79C3243.4,967.92,3236.39,971.29,3226.8,973.12Z"/><path class="cls-6" d="M3281.55,949.42c55.5-57.1,111.12-113.75,170.83-169.65-2.57,11.4-7.68,18.88-13.28,26a97.85,97.85,0,0,1-8.27,8.66q-50.17,50.13-100.32,100.28c-8.24,8.28-17,15.94-25.8,23.56C3298.14,944,3290.26,947.42,3281.55,949.42Z"/><path class="cls-6" d="M3452,620.27c9.78-7.94,17.94-17.58,27.18-26.1,2.45-2.26,4.42-6.63,8.89-4.34,2.69,1.37,2,7.35-1.16,11.75-3.53,4.86-8.33,8.47-12.78,12.42-1.47,1.32-2.73,2.87-4.09,4.32-3.67,3.36-7.48,6.58-11,10.1q-53,52.77-105.9,105.59c-2.51,2.49-4.49,5.8-9.94,7.15,4.55-10.6,8-20.69,15.48-28.22,20.42-20.45,40.18-41.56,61.82-60.79A315.09,315.09,0,0,0,3452,620.27Z"/><path class="cls-6" d="M3101.9,982.36c-2.5,2.14-5,4.26-7.49,6.42-2,1.76-4.21,3.24-7,3.39-2.23.12-5,.85-6.1-1.8-.93-2.13,1-3.61,2.37-5q9.24-9.6,18.57-19.13c13.08-12.84,26.21-25.62,39.21-38.53,18.21-18.08,36.75-35.87,54.33-54.54A92.5,92.5,0,0,1,3234,848.72c1.16,1.51-.1,2.48-.93,3.31-22.15,22.16-43.72,44.94-66.69,66.21-20.32,18.81-39.41,38.8-59.25,58C3105.19,978.14,3103.62,980.33,3101.9,982.36Z"/><path class="cls-6" d="M3100,952l-33.32,32.82c-3.14,3.09-6.43,5.84-11.27,5.32-1.65-.18-3.44-.26-4.12-2.13-.49-1.38.32-2.58,1.22-3.55,1.79-2,3.66-3.84,5.53-5.73q22.09-22.23,44.22-44.44c17.74-17.48,35.56-34.9,53.2-52.48,5.34-5.32,11.19-9.36,18.8-10.38a4.36,4.36,0,0,1,4.19,1.16c-.18,3.78-3.55,5.8-6,8.17-23.11,22.44-44.73,46.4-69.09,67.56A42,42,0,0,0,3100,952Z"/><path class="cls-6" d="M3420,620.3c18.35-16.43,35-34.58,52.73-51.69,2.15-2.08,4.29-4.17,6.54-6.15,1.26-1.11,2.79-2,4.54-1.21,2.09,1,2.45,3,2.57,5,.21,3.27-1.48,5.77-3.65,7.91-3.56,3.49-7.22,6.88-10.9,10.24A450.44,450.44,0,0,0,3438,618.28c-19.1,17.12-36.47,36-54.84,53.87-5.2,5.05-10.38,10.13-16.65,16.26-1.85-9,.92-15.13,5.34-20.38a130.19,130.19,0,0,1,13.56-13.21A394.23,394.23,0,0,0,3420,620.3Z"/><path class="cls-6" d="M3388,620.27c4.84-4.54,9.81-9,14.52-13.63q32.19-32,64.27-64c1.88-1.88,3.76-3.76,5.75-5.52,1.75-1.55,3.76-3.35,6.17-1.75,3,2,2.81,5.09,1.57,8-1.45,3.45-4.31,5.85-6.88,8.44-18.71,18.88-37.64,37.53-57.17,55.58-3.65,3.37-6.82,7.25-10.22,10.89-8.56,6.83-15.7,15.15-23.59,22.67-1.44,1.37-2.83,2.79-4.33,4.09-1.24,1.07-2.69,2.3-4.38,1.1-1.53-1.08-1.33-2.92-1.19-4.57.32-3.83,2.32-6.81,4.82-9.55C3380.89,628.12,3384.43,624.19,3388,620.27Z"/><path class="cls-6" d="M3100,920q-29.74,29.5-59.51,59c-2.81,2.78-5.37,6.08-9.59,6.81-2.3.39-4.83.53-6.2-1.94-1.22-2.2.45-3.78,1.76-5.22,2-2.22,4.14-4.32,6.26-6.43q30.09-29.86,60.18-59.73c3.3-3.28,6.36-6.79,9.53-10.2q9-8.62,18-17.24c3.7-3.54,7.9-6.1,13.18-6.34,1.64-.07,3.52-.17,4.39,1.56s-.4,3.19-1.55,4.36c-7.25,7.31-14.15,15-22.2,21.47A97,97,0,0,0,3100,920Z"/><path class="cls-6" d="M3100,888.31q-44.64,44.18-89.3,88.33a15.12,15.12,0,0,1-4.83,3.41c-2.57,1-5.44.88-7.26-1.55s.29-4.28,1.72-6.06a18.64,18.64,0,0,1,1.37-1.44L3092,882.21c3-2.38,7,.44,10-2l-.11-.14H3104C3104.82,883.91,3102.19,886,3100,888.31Z"/><path class="cls-3" d="M1862,2479.88q0-298.86,0-597.72c0-4.65,0-9.33.42-14s3.16-7.35,7.74-7.72,9.32-.42,14-.42q295.92,0,591.84,0c1.87,1.73,3.88,3.45,3,6.4-4.22,14.08-1.18,28.48-1.85,42.71-.2,4.15-.5,9.58,5.09,10.49,4.74.77,6.25-4.15,8-7.47,5.5-10.43,11.73-20.44,17-31,3.63-7.24,7.25-14.83,12.74-21.1h14c2.14,2.25,4.29,3.87,2,7.92-15.31,27.15-28.67,55.55-45.49,81.66-14.16,22-14.14,44.73-13.27,68.56.11,3.23,1,6.82,4.8,7.15,2.68.23,4.63-1.8,6.21-4.6,12.06-21.38,23.09-43.36,35.14-64.66,14.34-25.35,28-51.08,42.36-76.39,3.79-6.66,6.69-14,12.25-19.64l11.75,0,2.27,1.87c6.14,5.79-.48,10.37-2.56,13.91-16,27.22-30.45,55.3-45.58,83-18.45,33.74-38.48,66.62-55.06,101.39-1.22,2.55-5.71,4.56-3.36,7.63,2.2,2.88,5.29-.68,8-1.39,6.8-2.32,13.69-1.64,20.57-.87,8.54,2.35,9.18-5.21,12.07-9.76,9.85-15.53,18.23-31.9,27.07-48q14.49-26.43,29.06-52.83,21.63-39.29,43.56-78.39c2.6-4.62,3-10.21,6.18-14.64h18c3.43,8.47-3.28,13.84-6.47,20.11-6.15,12.1-12.55,24.12-19.27,35.88-14.2,24.85-27.7,50.08-41.57,75.1-11.29,20.37-22.41,40.83-33.69,61.21-1.76,3.17-4.38,6.89,1,9.54,7.45,2.71,15.24.06,22.75,1.59,4.93,1.74,7.57-.51,9.83-4.8,15.64-29.77,32.13-59.09,48.49-88.47,13.46-24.17,26.16-48.76,40.34-72.53,7.49-12.56,12.06-26.88,22.57-37.63h14c2.05,2.81,1.8,5.17.12,8.49-12,23.68-25.39,46.58-38.1,69.86-18.52,33.92-37,67.88-55.89,101.59-2.71,4.84-4.21,10.37-7.83,14.68-2.85,3.41-2.51,5.91,1.34,8,7.76,1.55,15.47-.41,23.2-.15,4.83,2.85,6.28,1.1,9.2-3.79,15.23-25.58,29-52,43.62-77.88,15.45-27.37,30-55.23,45.71-82.49,7.4-12.86,12.77-26.91,22.61-38.34h12c5.32,4,3.14,7.37.32,12.33-6.31,11.11-12.22,22.49-18.27,33.76-9.7,18.07-19.67,36-29.42,54-12.74,23.55-26.17,46.72-38.51,70.51-4.26,8.21-9.13,16.18-13.4,24.46-1.81,3.51-2.34,5.42,1.16,7.42,6.47,1.88,13.31-.8,19.77,1.54,5.5,4.76,7.94,3.38,11.62-3.16,14.11-25.08,28-50.27,41.92-75.45,10-18.13,19.88-36.34,29.94-54.42,10.9-19.58,21.16-39.52,33.12-58.53,5.59-8.89,8.83-11.36,15.59-7.32,7.61,4.54,3.24,10.23.57,15.22-9.91,18.57-20.11,37-30.38,55.33-13.45,24-26.55,48.24-39.77,72.38-8.35,15.23-17.57,30-24.52,46.08-1.53,3.55-1.26,5.31,1,7.6,6.07,3.13,12.88-.21,19,2.28,5,5.68,9,2.9,11.71-2.1q20.49-37.73,41.37-75.25c12.89-23.16,25.39-46.53,38.49-69.56,7.08-12.47,12.68-25.77,21.45-37.33,4.77-6.28,7.65-7.35,14.82-2.8,4.24,2.69,3.34,2.79-.08,10.72-14.26,33-33.91,63.14-50.57,94.86-12.3,23.42-24.91,46.87-38.94,69.43-4.67,7.52-4.34,8.63,2.24,11.93a46.05,46.05,0,0,1,16.92-.29c8.73,4.83,8.68,4.81,14.49-5.53q20-35.59,39.36-71.53c13.46-25,28.37-49.28,40.81-74.87,2.27-4.66,6.24-8.34,8.08-13.08,2.89-7.43,9-5.94,13.37-4.07,4.89,2.12,5.38,7,2.47,12.41-14,26.1-28.31,52-42.73,77.88-9.73,17.45-19.38,35-28.75,52.62-3.25,6.14-7.43,11.69-10.37,17.94-2.06,4.37-2.19,8.34,4.38,8.67a39.85,39.85,0,0,1,16.7-.39c8.18,4.86,10.05,4.91,14.56-4.32,8-16.43,17.48-32,26.19-48,15.57-28.62,31.14-57.23,47.24-85.56,3-5.31,6.43-7.77,12.76-4.3,7.14,3.91,5.6,7,2.5,13.73-11.52,24.84-26.15,48-38.68,72.23-8.23,16-17,31.75-26.48,47.1-.74,1.19-.62,3.7-2.93,3.93.71,3-3.81,5.7-1.12,8.38,3.65,3.64,5.46-1.75,8.29-2.5,5.6-2,11.37-1.25,17.11-1.14,8.22,3.85,12.12-.9,15.26-7.49,10.09-21.26,22.55-41.26,33.33-62.17,6.19-12,13.11-23.71,19.41-35.73,3.49-6.67,8.09-7,12.6-.89,4.12,5.6,4.42,11,.75,17.61-14,25.2-28.8,50-41.2,76a30.29,30.29,0,0,1-4.81,7c-2.47,2.69-4.32,6.78-2.69,9,3,4.09,5.34-1.39,8.14-2.17,5.56-2,11.27-1.45,17-.9,7.26,5.45,10.74,1.52,14.1-5,9.49-18.55,19.64-36.76,29.84-54.93,1.51-2.7,3.77-5.47,6.58-5.41,3.15.07,5.16,3.6,6.66,6.14,3.46,5.88,2.56,11.59-1.25,17.47-8.35,12.85-14.39,27.06-22.72,40-.9,1.4-1.35,3.58.22,4.48,3.12,1.8,5.51-.93,8.25-1.79,6.87-2.39,13.78-1.53,20.69-.68,3.48,1.11,5.71.25,8-3,5.2-7.23,9.59-6.62,12.55,1.9a317.93,317.93,0,0,1,16.78,75.95c.41,4.51.78,8.3,4.16,11.39,0,1.33,0,2.66,0,4-.53,10.07-4.5,19.73-1.93,30.36.84,3.49,5.12,7.29,1.93,11.65,0,1.33,0,2.66,0,4-6.79,6-3.71,14.4-5,21.69a476.61,476.61,0,0,1-17.92,69.6c-10.14,30.23-25.26,57.24-43.13,83.12-5.2,7.54-11.31,14.38-17.26,21.3-22,25.61-49.83,43.75-79.29,59.25-15.56,8.18-31.81,15.42-49.41,18.83-1.88.36-4.83,1.59-6,4.15Z"/><path class="cls-6" d="M3474,1862l28,0c-14.39,25.87-28.85,51.7-43.16,77.62q-23.39,42.36-46.53,84.86c-6.4,11.67-12.62,23.43-19.23,35-4.68,8.15-13,11.57-22.1,9.71-6.75-1.38-8.53-4.37-5.31-10.57,5.68-10.91,11.85-21.57,17.79-32.35q40.21-73,80.41-146Q3468.9,1871.18,3474,1862Z"/><path class="cls-6" d="M3358,1862h26c-5.32,15.2-14.41,28.5-22,42.52-27.35,50.67-55.49,100.92-82.92,151.55-4.89,9-11.31,13.66-21.38,13.17-9.18-.45-11.33-4.14-7-12.07q22.7-41.65,45.53-83.23,25.95-47.26,52-94.48C3351.48,1873.62,3354.75,1867.82,3358,1862Z"/><path class="cls-6" d="M3182,1862.06l28-.07c-3.56,11.6-10.59,21.45-16.32,31.92q-42.87,78.33-86.22,156.39c-1.77,3.2-3.75,6.29-5.44,9.53-4.36,8.41-11.93,10.11-20.32,9.39-7.36-.62-9.41-4.21-6-10.75,6.59-12.69,13.57-25.17,20.45-37.7,23.71-43.14,47.52-86.21,71.09-129.41C3172.5,1881.77,3179.35,1873,3182,1862.06Z"/><path class="cls-6" d="M3037.94,2069.88,3018,2070c-2.7,3-5.63,2.73-8.37.26s-.88-5.41.48-7.58c8.46-13.46,14.44-28.32,23.62-41.4,2-2.89,2.8-6.87,2.67-10.73,5.91-3.45,6.48-10.22,9.47-15.49,22.47-39.63,44-79.8,65.89-119.73A34.79,34.79,0,0,1,3124,1862l28,0c-11.29,24.43-25.5,47.27-38.37,70.84q-29.79,54.57-59.68,109.09c2.48,11.32-7.16,17.81-10.8,26.69C3042.42,2070.47,3040,2070.46,3037.94,2069.88Z"/><path class="cls-6" d="M3242,1862l28,0c-13.41,21.84-25.11,44.64-37.47,67.06q-33.72,61.17-67.36,122.37c-1.76,3.21-3.58,6.4-5.64,9.42a19.78,19.78,0,0,1-21.91,7.7c-5.12-1.55-6.43-3.87-4.15-9,2-4.53,4.79-8.74,7.18-13.11q35.7-65.21,71.4-130.41C3221.93,1898,3232,1880,3242,1862Z"/><path class="cls-6" d="M3416,1862l26,0c-4.19,11.66-10.72,22.16-16.62,32.94-29.4,53.7-59,107.28-88.4,161-4.33,7.92-9.93,13.24-19.34,13.47-3.67.09-7.68.41-10.07-3-2.59-3.66,0-7,1.73-10.16,11.24-20.4,22.64-40.72,33.84-61.14Q3379.67,1928.61,3416,1862Z"/><path class="cls-6" d="M3300,1862h26c-4,11-10.22,20.92-15.81,31.13q-43.14,78.78-86.57,157.43c-1.76,3.21-3.77,6.28-5.53,9.49-4.3,7.8-11.48,9.69-19.54,9.27-7.55-.39-9.7-3.6-6.48-10.36,4-8.4,8.66-16.49,13.14-24.66q25.68-46.82,51.44-93.6Q3278.31,1901.35,3300,1862Z"/><path class="cls-3" d="M2862,2479.9c1.17-5.8,5.61-7.71,10.59-9.28a280.58,280.58,0,0,0,91.14-48.46c6.95-5.53,12.54-13,21.81-15.4a4.72,4.72,0,0,0,2.86-2.6c4.42-13.09,15.84-21.07,23.28-32,17.9-26.3,33.1-53.68,42.83-84.14,6.09-19,12.41-37.93,15.14-57.82.73-5.27,1.85-10.5,1.49-15.87-.44-6.55,2.13-11,8.86-12.36-.69,29.52-6.56,58.13-15.87,86-9.84,29.49-22.75,57.62-40.94,82.94-26.16,36.43-58.11,66.48-98.62,86.74-18.78,9.39-37.61,18.56-58.55,22.25Z"/><path class="cls-3" d="M3037.94,2069.88l16-27.94c1.55,2.9,3.42,5.69,4.62,8.73,12.83,32.55,20.27,66.26,21.4,101.3-5.56-1.22-8.95-4.44-8.83-10.35.39-18.92-5.3-36.71-10-54.69-1.52-5.78-2.78-11.65-4.67-17.31s-4.22-6.16-8.08-1.5C3045.17,2072,3042.31,2074.44,3037.94,2069.88Z"/><path class="cls-3" d="M3080,2198q-15.3-21,0-42A97,97,0,0,1,3080,2198Z"/><path class="cls-3" d="M88,1860H602.28c6.64,0,13.35-.56,19.74,2H540.09c-2.67,0-5.33,0-8,.09-9.46.51-11.87,2.55-11.9,12.11a258,258,0,0,1-2.92,35.8c-6.7,46.86-24.43,89-54.3,125.87-21.66,26.76-46.78,49.19-78.32,63.71a188.55,188.55,0,0,1-64.43,16.61c-23.19,1.86-45.92.21-68.25-5.85-39.41-10.69-71.83-32.53-98.58-63.14A298.51,298.51,0,0,1,130,2017.44c-17.53-26.09-28.93-54.67-36.58-84.89a181.49,181.49,0,0,1-5.42-46.5Q88,1873,88,1860Z"/><path class="cls-3" d="M463.84,2479.89c-13.67,0-27.33.1-41,0-12.7-.13-14-1.72-14.88-14.41-2.87-39.57-20.2-71.11-52.41-94.57-25.92-18.88-73.9-21.62-104.73.4-23.51,16.79-38.82,39-47.12,66.28-3.11,10.23-4.6,20.8-5.73,31.43-.9,8.55-2.79,10.66-11.27,10.73q-44.49.34-89,0c-9.69-.08-12.33-3.23-11.45-14.4,2.18-27.59,5.52-54.92,14.63-81.39,16.91-49.08,46.19-89.32,87.08-120.57,32.62-24.93,70.11-37.2,111.69-37.68,30-.34,58.31,4.84,85.37,17.45,23.84,11.11,44.52,26.52,62.71,45.49a253.91,253.91,0,0,1,59.89,101.51c7.36,23.61,11.93,47.83,12.37,72.68a58.17,58.17,0,0,1-.18,7c-.72,7.17-2.76,9.2-10,9.9-2.65.25-5.33.19-8,.19q-19,0-38,0Z"/><path class="cls-6" d="M3100,256.32q-51.9,51.24-103.81,102.49c-16.84,16.59-32.81,34.27-51,49.29-26,21.55-48.25,46.52-71.51,70.79-48.83,51-100,99.68-150.23,149.31a6.7,6.7,0,0,1-.71.7c-2.27,1.68-4.33,5.9-7.2,3.73-3.22-2.44-2.05-7,0-10.08a62.28,62.28,0,0,1,8.57-9.68q119.29-118.1,238.66-236.11,60-59.36,120.21-118.59c2.84-2.8,5.9-5.37,8.86-8.06,1.91.2,3.84.35,5.75.62C3101.35,251.27,3101.39,253.49,3100,256.32Z"/><path class="cls-6" d="M3099.83,288c-27.46,27.18-55.11,54.17-82.25,81.68-7.89,8-17.2,12-28.46,15.25.89-4.67,4.14-6.59,6.51-8.94q47.63-47.06,95.35-94c3.79-3.74,7.37-7.69,11-11.55q8-7.5,16-15c3.27-3,6.94-5.24,11.64-4.53,2.5.38,3.62,2,2.11,4.21a46.34,46.34,0,0,1-5.31,5.92Q3113.18,274.5,3099.83,288Z"/><path class="cls-6" d="M3099.86,320.06q-20.3,20-40.62,40c-7.62,7.45-9.7,8.18-22.23,8.27,3.62-7.31,10.08-11.48,15.09-16.81,5.48-5.83,11.32-11.3,17-16.93,5.45-5.4,10.87-10.81,16.33-16.19s11-10.73,16.43-16.09q21.78-21.21,43.56-42.41c2.85-2.76,5.53-5.87,9.8-6.45,2-.28,4.1,0,5.26,1.93,1,1.68.09,3.24-1,4.5-2,2.22-4.09,4.35-6.2,6.48Q3126.57,293.2,3099.86,320.06Z"/><path class="cls-6" d="M3100.1,350.5c-2.57,2.6-5.11,5.24-7.73,7.79a12.59,12.59,0,0,1-8.86,4c-2.21,0-5.07.94-6.07-1.94-.75-2.13,1.28-3.58,2.62-5,7.32-7.73,15.52-14.6,22.26-22.89,4.11-3.89,8.25-7.74,12.32-11.67q29.76-28.84,59.48-57.7c2.88-2.79,5.74-5.64,10.3-5.19,4,.4,5.18,2.72,2.84,6a24.2,24.2,0,0,1-2.69,2.95Z"/><path class="cls-6" d="M3112.79,362.05a3,3,0,0,1-2.83-1.76c-.73-1.8.62-3.13,1.72-4.35,1.33-1.48,2.75-2.89,4.16-4.31q40.3-40.23,80.62-80.46c2.57-2.57,4.94-5.49,8.54-6.75,2.68-.93,5.52-.85,7.44,1.31,2.48,2.77-.07,4.87-1.72,6.88-1,1.28-2.28,2.42-3.46,3.6l-77.78,77.65C3125.21,358.12,3121,362.51,3112.79,362.05Z"/><path class="cls-6" d="M3377,612.92c-2.1.1-2.87-1.31-3.28-3a8.46,8.46,0,0,1,1.69-7.53,86.67,86.67,0,0,1,6.08-6.63q40-39.9,80-79.77c1.41-1.41,2.81-2.86,4.31-4.17,1.74-1.51,3.59-3.53,6.11-2s2.79,4.44,2.2,7.16c-.67,3.07-3,5.15-5.1,7.26-28.75,28.74-57.38,57.61-87.16,85.3C3380.44,610.9,3379.13,612.46,3377,612.92Z"/><path class="cls-6" d="M3465.9,491.65a8.4,8.4,0,0,1-2.67,6.25c-2,2.2-4.12,4.35-6.24,6.47l-73.57,73.39c-1.42,1.41-2.76,2.91-4.29,4.19-2,1.62-3.76,4.7-6.71,3-3.14-1.85-2.2-5.27-1.41-8.15.92-3.32,3.31-5.74,5.67-8.1q38.9-38.82,77.84-77.6a22.81,22.81,0,0,1,3.78-3.24C3462.2,485.36,3465.76,487.2,3465.9,491.65Z"/><path class="cls-6" d="M3368.71,559c-2.47-.08-3.27-1.51-3.72-3.19a9.26,9.26,0,0,1,1.82-8.48,77.38,77.38,0,0,1,6-6.69q35-35,70-69.95A62.36,62.36,0,0,1,3448,466c1.93-1.53,4.18-2.4,6.35-.52a5.17,5.17,0,0,1,1.47,6.36,21.09,21.09,0,0,1-4,5.63q-38.83,38.92-77.78,77.72C3372.35,556.85,3370.73,558.56,3368.71,559Z"/><path class="cls-6" d="M3237.52,275.82c-.47,2.94-2.61,4.67-4.46,6.53q-13.71,13.77-27.5,27.46-24.7,24.62-49.43,49.22c-3.3,3.28-6.59,6.75-12,6-1.65-.23-3.43-.49-4.3-2.09s.19-3.19,1.29-4.42c1.55-1.74,3.17-3.41,4.83-5q38.82-38,77.68-75.89c2.36-2.3,4.57-5,8.09-5.5C3234.65,271.69,3237.1,272.36,3237.52,275.82Z"/><path class="cls-6" d="M3197,377.5c-2-.17-4.15-.41-5.17-2.4-1.11-2.17.49-3.75,1.81-5.21,1.56-1.72,3.22-3.35,4.87-5q30-29.89,60-59.73c4.48-4.43,9.38-8.42,14.18-12.51,2.1-1.8,4.58-2.8,7.38-1.66,2.53,1,3.84,2.82,2.24,5.44a25.88,25.88,0,0,1-3.84,4.54q-35.61,35.53-71.28,71C3204.33,374.81,3201.39,377.59,3197,377.5Z"/><path class="cls-6" d="M3303.19,306.17c-.22,2.72-2.4,4.44-4.25,6.29-10.58,10.61-21.14,21.25-31.86,31.71-13.1,12.79-25.4,26.41-39.6,38-2.31,1.89-4.35,4.24-7.62,4.39a4.87,4.87,0,0,1-4.4-1.86,3.6,3.6,0,0,1,.28-4.61,48.16,48.16,0,0,1,4-4.49q34.29-34.22,68.64-68.38c2.35-2.33,4.66-4.85,8.14-5.52S3303.18,303.16,3303.19,306.17Z"/><path class="cls-6" d="M3173.23,370.44c-2.48-.18-4.63-.29-5.74-2.26-1.47-2.61.43-4.46,2-6.08,9.37-9.45,18.4-19.29,28.33-28.12,16.68-14.83,32-31.05,48-46.56,2.38-2.3,4.48-5,7.63-6.33a5.52,5.52,0,0,1,6.48,1.05c2.25,2.3.6,4.3-.93,6.11-1.29,1.52-2.72,2.92-4.13,4.33q-35.7,35.6-71.42,71.16C3180.43,366.75,3177.64,370.28,3173.23,370.44Z"/><path class="cls-6" d="M3262.21,410.36c-4.65,0-7.18-4-5-7.57a33.83,33.83,0,0,1,5.24-6q32.17-32.16,64.43-64.24a43.86,43.86,0,0,1,6-5.21,5.34,5.34,0,0,1,7.3.65c2.4,2.41,1.53,4.86-.36,7.1-1.28,1.53-2.66,3-4.08,4.39q-32.52,32.52-65.09,65C3268.15,407,3265.83,410.06,3262.21,410.36Z"/><path class="cls-6" d="M3242.2,397.43c-4.94-.22-6.77-3.37-4.76-6.87a14.42,14.42,0,0,1,2.51-3.07c23.57-22.91,45.76-47.22,70.51-68.93,2-1.74,3.84-3.74,6.55-4.38a5,5,0,0,1,5.41,1.61c1.54,1.9.72,3.78-.58,5.43a41.52,41.52,0,0,1-3.34,3.68q-33.51,33.42-67.06,66.79C3248.62,394.49,3245.76,397.37,3242.2,397.43Z"/><path class="cls-6" d="M3359.36,345.7c-.34,2.49-2,4.17-3.69,5.78-14.78,14.41-28.84,29.56-44.2,43.4-7.67,6.9-14.85,14.34-22.32,21.47a56.18,56.18,0,0,1-6.87,5.74,4.74,4.74,0,0,1-6.41-.52c-2.1-2.13-1.17-4.3.44-6.23,1.27-1.54,2.66-3,4.07-4.39q32.17-32.15,64.39-64.23a32.37,32.37,0,0,1,6.89-5.68C3355.33,339.05,3359.67,341.91,3359.36,345.7Z"/><path class="cls-6" d="M3339.86,491.51c-3.4-.23-4.45-2.59-4.54-5.46-.1-3.32,2.28-5.34,4.43-7.45q33-32.55,66.06-65.12c2.13-2.1,4.24-4.23,6.47-6.22,1.77-1.59,3.81-3.12,6.21-1.29s2.83,4.42,1.79,7.18c-1.21,3.21-3.72,5.49-6.11,7.78C3402.67,432,3391,442.88,3379.59,454c-11,10.67-21.68,21.58-32.55,32.34C3344.94,488.42,3343.08,490.91,3339.86,491.51Z"/><path class="cls-6" d="M3376,359.84c.07,3-1.73,5-3.62,6.85-14.88,14.77-29.54,29.79-44.82,44.13-8,7.51-15.74,15.31-23.77,22.8-2.78,2.6-5.91,7-10,2.67s.46-7.29,3.12-10q33.51-33.58,67.19-67a19.87,19.87,0,0,1,4.64-3.73A5,5,0,0,1,3376,359.84Z"/><path class="cls-6" d="M3445.53,449.63c-.29,3-2.67,5-4.76,7.09-7.51,7.56-15.09,15.07-22.64,22.6l-46,45.87c-1.65,1.65-3.23,3.39-5,4.89-2.42,2-4.63,5.54-8.46,2.76-2.8-2-2.23-6.77,1.49-10.56,5.37-5.46,11.14-10.52,16.57-15.92q27.66-27.5,55.22-55.08a40.39,40.39,0,0,1,6.74-5.9C3442,443.29,3445.71,445.61,3445.53,449.63Z"/><path class="cls-6" d="M3327.41,472a5.06,5.06,0,0,1-5-6.84,15.35,15.35,0,0,1,3.57-4.67q32.63-32.22,65.33-64.37a83.1,83.1,0,0,1,7.41-6.63c2-1.55,4.34-1.75,6.34.21a4.78,4.78,0,0,1,.75,6.39,49.19,49.19,0,0,1-6.37,7.59c-12.65,12.25-25.47,24.32-38.1,36.59-9.3,9-18.38,18.28-27.59,27.4C3331.84,469.52,3330,471.56,3327.41,472Z"/><path class="cls-6" d="M3392.06,376.05c0,2.92-1.9,4.89-3.77,6.77-6.54,6.61-12.81,13.53-19.8,19.64-16.52,14.44-31.52,30.43-47.23,45.69a49.36,49.36,0,0,1-6,5.2c-2.07,1.46-4.44,1.6-6.26-.58a4.31,4.31,0,0,1-.14-5.54,48.54,48.54,0,0,1,5.18-6q32.41-32.38,64.9-64.7a28,28,0,0,1,6.13-5C3388.21,369.85,3392,372.48,3392.06,376.05Z"/><path class="cls-6" d="M3433.52,429.67c-.39,3.31-3.14,5.4-5.46,7.71q-23.59,23.63-47.26,47.16-11,10.9-21.9,21.78a31,31,0,0,1-5.26,4.55c-3.41,2.11-6.69,0-6.68-4,0-3.28,2-5.51,4.16-7.64q35.1-34.65,70.21-69.28a26,26,0,0,1,6.2-4.9C3430.49,423.53,3433.67,426,3433.52,429.67Z"/><path class="cls-3" d="M3492,620.31l-4-3.85C3490.67,616.36,3491.49,618.16,3492,620.31Z"/><path class="cls-4" d="M3124,1862c-2.08,7.45-6.31,13.87-10,20.54q-33.4,61.07-67,122c-1.43,2.6-3.32,5-5,7.41-4.3,3.26-6.19.18-8-3.06-3.69-6.7-7-13.67-13.18-18.6-1.9-3-.65-5.54.88-8.19,20.32-35.06,39-71,59-106.27,3.36-5.92,7.33-10.68,13.26-13.87l5.68-.22Z"/><path class="cls-5" d="M438,1426.14l-2,2Z"/><path class="cls-5" d="M2338.15,2.53q0,424.89-.05,849.77c0,26.65-.58,53.33.12,80,1.07,41.11-31.92,74.49-74.56,74.26-128.32-.68-256.65-.35-385-.42-1.67,0-3.34,0-5-.06-9.24-.5-11-2.25-11.54-11.35-.15-2.66-.09-5.33-.09-8q0-132.47,0-264.93c0-19.24.2-19.41,19.63-19.4q67.5,0,135,0c18.69,0,19.1-.39,19.1-19q0-340.41,0-680.81,88.81-.11,177.63-.18Q2275.78,2.41,2338.15,2.53Z"/><path class="cls-6" d="M2742,2070h-19.85c-6.57-8,.86-13.65,3.93-19.28,17.41-32,34.73-64,52.45-95.8,11.27-20.24,21.88-40.83,33.54-60.85,2.68-4.6,4.66-9.54,8.1-13.85,2-2.45,3.72-6.7,1.26-10.72a6.24,6.24,0,0,1,.58-7.42h40c3,3.22,1.89,6.21-.5,9.15-.48.94-.91,1.88-1.32,2.85a20.91,20.91,0,0,1-1.2,3c-20.25,34.06-38,69.54-57.75,103.89-16.11,28-30.52,57-47.22,84.67C2751,2070.58,2748.06,2074.08,2742,2070Z"/><path class="cls-6" d="M2684,2070h-19.87c-3.17-2.72-4.56-4.67-1.83-9.62q20.14-36.46,40.11-73.07c14.69-26.79,29.06-53.76,44.38-80.21,7.26-12.53,12.7-26,21.36-37.88,2.36-3.24,5.22-4.85,7.85-7.22l28,.11c3.28,7.68-2.73,12.57-5.72,18.22q-19.82,37.58-40.78,74.54c-11.85,21-23.43,42.12-35.56,62.93-9,15.42-17.58,31.34-25.52,47.47C2694,2070.05,2690.42,2074.44,2684,2070Z"/><path class="cls-6" d="M2858,2070h-16c-2.49,1.48-5,2.3-6.85-.81-1.53-2.53.11-5,1.1-6.94,9.79-19.08,20.5-37.66,30.86-56.43,9.87-17.88,19.61-35.86,29.44-53.78s19-36.09,29.55-53.55c6-13.4,10.21-28,23.87-36.41h28c2.86,3.27,2.27,6.59.44,10.15-7.78,15.09-15.61,30.15-25.43,44.1-10.69,20.4-22.06,40.41-33.32,60.45-16.83,30-32.46,60.59-50.45,89.91C2866.1,2071.75,2863.1,2073.45,2858,2070Z"/><path class="cls-6" d="M2571.91,2069.9l-23.82.08c-5-5.32-2.43-11.3.35-15.69,9.45-14.94,17.2-30.79,25.8-46.18q21.39-38.35,42.33-76.95c11.1-20.53,23.06-40.6,33.44-61.53,2.07-4.19,6.51-5.32,10-7.71h26.1c1.77,2.06,3.46,3.52,1.62,7.07-13.86,26.69-29.3,52.52-43.46,79-12.81,24-26.14,47.66-39.14,71.53-7.85,14.41-15.46,29-24.18,43C2578.71,2066.07,2576.4,2069.24,2571.91,2069.9Z"/><path class="cls-6" d="M2629.93,2069.91l-23.83,0c-4.86-3.09-4.06-7.43-1.67-11.23,14.37-22.86,26.34-47.08,39.49-70.62,13.55-24.25,27.18-48.49,40-73.13,7-13.45,15.62-26,21.25-40.26a24.13,24.13,0,0,1,12.79-12.77l26.11,0c5.73,5.84.32,9.74-2.08,14.64-9.5,19.34-20.18,38.12-30.68,56.85-16.62,29.66-32.81,59.54-49.45,89.18-7.69,13.72-15.57,27.32-22.67,41.36C2637.41,2067.51,2634,2069.42,2629.93,2069.91Z"/><path class="cls-6" d="M2514,2069.88,2494,2070c-2.62,2.91-6.07,3-8.14.34-1.64-2.11-.66-4.87,1-8.05,9.4-18.4,20.1-36.06,29.88-54.22q28.56-53,57.87-105.66c6.43-11.52,12-23.52,19.58-34.4,1.72-2.44,4.05-3.75,5.87-5.8a240.13,240.13,0,0,1,28-.2c3.94,5.38.17,10.13-2.1,14.18-20.43,36.54-40.38,73.36-60.78,109.91-14.55,26.07-28.41,52.52-43.61,78.22C2520,2067,2518.89,2071.31,2514,2069.88Z"/><path class="cls-6" d="M3094,1862c-5.88,13.4-14,25.61-20.86,38.46-13.32,24.83-27,49.48-40.64,74.14-2.56,4.64-5.59,9-8.41,13.52,3.31,4.36,2,8.42-.62,12.56-13,20.5-23.46,42.41-35.62,63.38-2.77,4.77-5.24,9.3-11.88,5.87h-16c-2.41,2.44-5.07,3.66-8.2,1.33-3.35-2.51-1.7-7.3-.77-8.54,10.2-13.59,16.28-29.42,24.69-43.94,10.37-17.91,21-35.67,29.33-54.64,7.4-12.07,13.55-24.84,20.42-37.21,9.32-16.8,18.91-33.47,27.69-50.56,3.37-6.56,7.83-11.73,14.85-14.41Z"/><path class="cls-6" d="M2918,2070h-16c-2.42,2.25-5,4.05-8.06,1.13-2.62-2.47-1.54-5.79-.38-8,8.87-16.9,18.48-33.42,27.54-50.23,5.73-10.62,11.93-21,17.7-31.61,9.18-16.86,18.49-33.66,27.43-50.65a5.59,5.59,0,0,0,.55-1.83c9.33-17,18-34.28,27.49-51.16,3.54-6.3,7.64-11.69,13.73-15.54l28,0c2.78,3.21,2.48,6.59.55,10.07-14.43,25.94-27.37,52.72-43.65,77.62-12.6,21.23-24.18,43-36,64.73-8.68,15.94-17.81,31.64-26.2,47.75C2928.45,2066.56,2926.05,2073.75,2918,2070Z"/><path class="cls-6" d="M2800,2070h-16c-2.55,1.62-5.29,2.07-6.89-.85-1.27-2.3-.28-5.22.9-7.31,7.3-13,14.19-26.16,21.47-39.14,9.48-16.91,19.35-33.63,28.36-50.79,10.08-19.19,20.72-38.06,31.07-57.08,6.25-11.48,12.34-23,18.81-34.41,5.57-5.47,4.73-15.92,14.25-18.33h28c3.7,4.2,1.36,8.36-.69,12-3.46,6.07-6.14,12.56-10.15,18.33-10.39,15.12-18.48,31.56-27.35,47.53-16.84,30.32-33.4,60.79-50.16,91.15-6.57,11.9-12.49,24.17-20.2,35.48C2808.18,2071.28,2805.27,2073.59,2800,2070Z"/><path class="cls-6" d="M3069.27,251.93c-1.52,4.92-4.69,7-7.25,9.57q-168.17,166.9-336.39,333.75a22.17,22.17,0,0,1-2.15,2.08c-2.28,1.69-4.15,5.82-7.31,3.78-3.7-2.39-2.09-6.77-.68-10,1.15-2.65,3.36-5,5.46-7q62.9-62.24,125.87-124.37,64-63.27,127.86-126.62,37.68-37.24,75.57-74.29C3055.35,253.78,3060.69,249.6,3069.27,251.93Z"/><path class="cls-6" d="M1802.06,1240c7.84,7.64,15.58,15.38,23.55,22.88,6.28,5.91,7.09,13.26,6,21.08-.78,5.68-3.65,6.71-8,2.49-9.73-9.49-19.36-19.13-28.55-29.14-6.06-6.6-12-13.27-18.74-19.21q-49.15-49.65-98.3-99.34c-11-11.12-21.45-22.79-32.8-33.54-8.47-8-8.77-17.08-6.45-27.65,5,.33,7.13,4.08,9.78,6.76q43.51,44,86.89,88.15Q1768.76,1206.26,1802.06,1240Z"/><path class="cls-6" d="M1832.39,925c0,1.82,0,2.82,0,3.81-.11,2,.24,4.44-1.61,5.49-2.66,1.52-4.28-1.05-5.83-2.59q-13.82-13.72-27.45-27.62Q1733.71,839.42,1670,774.68c-8.87-9-17.31-18.46-26.41-27.24-7-6.77-6.33-14.91-5.5-23.22.26-2.57,2.31-3.16,4.36-1.65a44,44,0,0,1,5.14,4.72q88.59,90,177.21,180C1830,912.61,1833.36,918.23,1832.39,925Z"/><path class="cls-6" d="M2718.24,567.54c-.46-6.22.7-11.8,4.7-16.58,2.35-2.8,5-5.34,7.62-7.92q135.57-134.4,271.16-268.78c4-4,8.33-7.68,12.33-11.69,5.07-5.08,11.14-6.82,17.92-6.36a5,5,0,0,1,.66,1.13,1.19,1.19,0,0,1-.11.94c-2,2.25-3.84,4.58-6,6.67Q2873.8,416.06,2721,567.1C2720.6,567.46,2719.74,567.32,2718.24,567.54Z"/><path class="cls-6" d="M1832.08,1181.47c-.21,1,1.81,5.41-2,6.82-3.06,1.15-5-2.63-7-4.67q-89-89.79-178-179.57c-6.33-6.36-8.29-13.31-7.39-21.67.2-1.94,0-4.26,2.39-5,1.76-.56,3.13.75,4.34,1.88,1.7,1.59,3.35,3.24,5,4.89q82.41,82.94,164.79,165.91c4,4,7.61,8.4,11.71,12.29C1830.91,1167.06,1833.09,1172.64,1832.08,1181.47Z"/><path class="cls-6" d="M1832.18,1220c-.14,4.84-.23,9.69-.43,14.53-.1,2.48-.74,4.6-4,3.9l.16-.14a5.47,5.47,0,0,0-2.11-1.94c-2.21-2-4.5-4-6.6-6.08q-86.75-87.62-173.58-175.15c-6.58-6.6-8.84-13.71-7.91-22.43.2-1.92-.11-4.29,2.29-5.05,1.76-.57,3.09.81,4.3,1.93,1.46,1.36,2.87,2.77,4.28,4.19q88.49,89.4,177,178.83C1827.84,1214.91,1830,1217.48,1832.18,1220Z"/><path class="cls-6" d="M1832.36,975.84c-.45,3,1.42,7.41-2.39,8.81-3.11,1.14-5.06-2.58-7.08-4.62q-89.27-90.28-178.53-180.54c-6.48-6.52-7.38-13.81-6.55-22,.47-4.56,2.36-5.38,5.81-2.72a59,59,0,0,1,5.78,5.52q87.12,88.18,174.24,176.34C1829,962.08,1833.67,967.49,1832.36,975.84Z"/><path class="cls-6" d="M1752.1,1239.91c22.89,22.72,45.7,45.54,68.73,68.12,6.44,6.32,8.39,13.31,5.47,21.72-1.26,3.62-3.6,4.83-6.83,2.28a74.14,74.14,0,0,1-6.56-6.11c-24.85-25-48.39-51.26-73.88-75.63-3.6-3.44-7.33-6.75-11-10.12-10.14-11.91-21.67-22.48-32.61-33.62-16.75-17.09-33.5-34.2-50.67-50.86-6.5-6.31-7.79-13.51-7-21.76.15-1.65.21-3.5,1.85-4.35,2.26-1.18,3.64.75,5.17,1.94a14.26,14.26,0,0,1,1.44,1.37Q1699.16,1186.4,1752.1,1239.91Z"/><path class="cls-6" d="M1832.29,873.8c-.38,3,1.5,7.37-2.27,8.81-3.1,1.18-5.06-2.55-7.08-4.59q-89.3-90.13-178.62-180.24c-6.81-6.84-7.3-14.51-6.4-22.94.43-4,2.78-4.17,5.53-1.93a63.72,63.72,0,0,1,5,4.83q87.72,88.89,175.44,177.76C1829,860.62,1833.75,865.7,1832.29,873.8Z"/><path class="cls-6" d="M1832.4,1076.34c-.61,3.39,1.77,8.38-2.13,10s-6-3.27-8.47-5.73q-88.3-89.64-176.57-179.33c-6.28-6.35-8.53-13.2-7.46-21.59.63-4.91,2.5-5.57,6.49-2.26,2,1.7,3.85,3.68,5.72,5.57q87.11,88,174.23,176C1829.05,1063.87,1833.38,1068.77,1832.4,1076.34Z"/><path class="cls-6" d="M1832.37,1127.53c-.42,3.1,1.43,7.51-2.1,9s-5.67-2.64-7.87-4.86q-88.82-89.9-177.63-179.79c-6.72-6.76-7.87-14.23-6.92-22.78.41-3.74,2.41-4.62,5.36-2.19a75.06,75.06,0,0,1,5.76,5.53q87.49,88.39,175,176.78C1829.05,1114.41,1833.59,1119.56,1832.37,1127.53Z"/><path class="cls-6" d="M1832.29,1026.11c-.34,3,1.4,7.36-2.41,8.77-3.14,1.18-5.11-2.48-7.13-4.52q-60-60.76-120-121.61c-19.41-19.67-38.65-39.52-58.4-58.86-6.89-6.75-7.35-14.46-6.51-22.93.32-3.15,2.08-4.17,4.75-2.18a46.75,46.75,0,0,1,5.11,4.75q88.2,89.1,176.4,178.19C1829.24,1012.86,1833.77,1018.06,1832.29,1026.11Z"/><path class="cls-6" d="M1702,1240.07c11.26,9,19.65,20.74,29.78,30.82,26.88,26.76,53.55,53.73,80.44,80.46,5.59,5.56,8.77,11.59,7.14,19.6-1.32,6.43-3.52,7.23-8.52,2.93-1.51-1.3-2.86-2.78-4.27-4.19-24-24-48.38-47.62-71.79-72.17-15.38-16.13-30.8-32.21-46.56-48-3.29-3.29-6.85-6.29-10.29-9.42-10.88-11.2-21.5-22.66-32.74-33.49-6.08-5.86-8.42-12.46-7.61-20.55.22-2.24-.47-5.07,1.92-6.3,2.67-1.37,4.19,1.28,5.79,2.78,2.92,2.71,5.66,5.62,8.46,8.46Z"/><path class="cls-3" d="M2684,2070c5.53-1.83,8.28-6.41,10.87-11.09q19.53-35.28,39-70.59,35-63.12,70.09-126.21l18,0c9.15,4.59,9.56,5.41,4.8,14.08q-29.75,54.23-59.66,108.36-20.66,37.59-41.18,75.26a29.56,29.56,0,0,0-3.82,10.22c-4.55-1.7-6-5.08-4.83-9.55a32.24,32.24,0,0,1,3-8.43c9.36-15.7,17.38-32.12,26.16-48.13,8.93-16.3,18.27-32.38,27.22-48.67,13.27-24.15,26.14-48.52,39.71-72.5,3-5.35,3.75-10,.11-11.21-5.5-1.91-6.61,3.18-8.41,6.38-10.43,18.52-20.68,37.14-31,55.72-12.43,22.34-24.94,44.65-37.31,67-9,16.27-17.8,32.64-26.72,49-3.51,6.41-7,12.85-10.65,19.16C2694.82,2076.53,2691.07,2076.77,2684,2070Z"/><path class="cls-6" d="M1636.31,1242.24l3.75-14.16,12,12c12.49,10.14,22.12,23.06,33.41,34.37q57.93,58,115.83,116c2.35,2.35,4.66,4.76,6.86,7.26a10.27,10.27,0,0,1,2.7,9.25c-.76,3.5-.66,8-4.54,9.41-3.72,1.3-5.74-2.72-8-5q-72.82-72.79-145.48-145.76C1646.06,1258.87,1639.14,1251.93,1636.31,1242.24Z"/><path class="cls-6" d="M2727.16,526.28c.25-8.64,4.38-15.3,10.53-21.37q43.74-43.18,87.19-86.64,70.53-70.11,141-140.27c6.91-6.91,14.5-11.32,24.46-12.09-.63,1.65,0-.12.4,1.17.08.3.12.77,0,.94-37.9,39.33-77.13,77.32-115.92,115.76q-72.66,72-145.58,143.76Z"/><path class="cls-4" d="M2990,1946l46-84,32,0q-15.84,28.2-31.67,56.41c-6.8,12.17-13.48,24.4-20.21,36.61-1.76,3.2-3.49,6.42-6.15,9-3.5,2.72-6.77,1.71-9-1.43C2997.21,1957.15,2992.23,1952.48,2990,1946Z"/><path class="cls-6" d="M2941.75,286.05,2745.35,480c-.27-6.67,4-16.9,9.36-23.37,1.49-1.78,3.17-3.42,4.82-5.06q74.78-74.34,149.51-148.71a72.13,72.13,0,0,1,31-18.79Z"/><path class="cls-3" d="M2600.05,1862.16c-2,4.55-3.67,9.29-6.05,13.63-19.31,35.2-38.8,70.31-58.14,105.5q-21.33,38.82-42.38,77.8c-1.88,3.48-5.73,7.56.54,10.86-2.5,4.2-5.89,7-10.53,3.58-4.23-3.12-3.3-7.77-1.21-11.79q10.13-19.42,20.64-38.67c9.39-17.17,18.92-34.27,28.44-51.37s19-34.23,28.76-51.19c3.82-6.63,6.52-13.77,10.5-20.35,7.55-12.49,14.32-25.45,21.41-38.22Z"/><path class="cls-3" d="M2629.93,2069.91c12.23-21.72,24.56-43.39,36.65-65.19q30-54.08,59.7-108.32c6.19-11.35,13.36-22.24,17.82-34.5l7.9.09a33.11,33.11,0,0,1-4.35,14.14c-16.9,30.43-33.66,60.93-50.57,91.36-12.4,22.32-25,44.53-37.39,66.85-5.32,9.56-10.34,19.29-15.52,28.93C2640.13,2070.77,2638.74,2071.39,2629.93,2069.91Z"/><path class="cls-3" d="M2571.91,2069.9q31.89-57.57,63.77-115.15,22.68-41,45.29-82c1.92-3.48,3.42-7.18,5.12-10.78l7.92.07c-2,11-8.53,20-13.5,29.71-9.1,17.69-19.64,34.59-28.8,52.27-7.93,15.3-17,30-25.38,45.09q-12.79,23.06-25.18,46.32c-4.81,9.09-10.58,17.62-14.8,27.06C2583.78,2068.19,2579.15,2072.11,2571.91,2069.9Z"/><path class="cls-3" d="M2514,2069.88q45.6-82.39,91.17-164.82c7.86-14.25,15.3-28.72,22.94-43.1l3.94,0c2.19,8.9-1.86,16.23-6,23.5-11.94,21.06-24.56,41.77-35.78,63.22-18.44,35.28-38.68,69.56-57.21,104.79-2.77,5.27-6.16,10.24-9.37,15.27C2520.94,2073,2517.68,2073.8,2514,2069.88Z"/><path class="cls-3" d="M2776,1862q-19.86,36.32-39.73,72.63-34.52,63-69.08,125.94a25.82,25.82,0,0,0-3.06,9.43c-7.9-3.45-8.67-4.83-5.12-11.51q11.68-22,23.83-43.7c8.91-15.91,17.19-32.21,26.12-48.13,9.74-17.37,18.92-35,29-52.24,8.56-14.59,16.19-29.73,24-44.72,1.2-2.28,1.36-5.1,2-7.66Z"/><path class="cls-3" d="M2718,1861.94q-53.82,97.92-107.64,195.86a32.37,32.37,0,0,0-4.25,12.15c-7.77-3.44-9-5.79-5.17-12.5,12.87-22.44,24.76-45.43,37.38-68,9.36-16.77,18.89-33.5,27.66-50.63,8.61-16.82,18.4-33,27.54-49.59,5-9,9.69-18.15,14.51-27.23Z"/><path class="cls-3" d="M2660,1861.92q-20.29,36.67-40.59,73.35-31.56,57.24-63,114.54c-3.51,6.4-7.41,12.67-8.29,20.17-6.25-6.39-6.95-9.74-3-17.56,3-5.94,6.21-11.78,9.65-17.47,14.27-23.63,26.52-48.39,40.09-72.42,9.3-16.46,18.65-33,27.24-49.88,8.72-17.19,18.6-33.8,28-50.66Z"/><path class="cls-6" d="M2850.81,519.49c-2.33,13.32-8.69,23.13-17.92,32.07-35.4,34.3-70.09,69.34-105.06,104.08a78,78,0,0,1-7.36,6.73c-2.15,1.63-3.79.51-4.27-2a10.71,10.71,0,0,1,2.23-9.39c1.94-2.27,4-4.48,6.1-6.59q60.21-59.91,120.47-119.77C2846.84,522.83,2848.87,521.21,2850.81,519.49Z"/><path class="cls-4" d="M3008,1862.07c-5.21,14.16-14.21,26.35-20.77,39.83-4.67,9.57-10.14,18.75-15.25,28.11-8.93-4-17.82-8-21.92-17.91,9.85-16.38,19.1-33.1,27.92-50.06Z"/><path class="cls-6" d="M2836.18,568.06c.27,7.55-1.71,14.14-7.28,19.63q-49.72,49-99.39,98.12a14.42,14.42,0,0,1-1.45,1.37c-2,1.56-4,4.56-6.78,2.26s-3-5.88-1-9a30.66,30.66,0,0,1,4.5-5.3q52.93-52.17,106-104.25C2832.07,569.53,2833.18,567.55,2836.18,568.06Z"/><path class="cls-6" d="M2831.57,610.19c.11,5.14-2.79,8.7-6.17,12q-18.42,18.25-36.8,36.54l-49.55,49.16c-1.88,1.87-3.74,3.78-5.72,5.55-1.7,1.53-3.57,3.65-6,2s-2.78-4.47-2.09-7.18c.76-3,3.12-5.06,5.24-7.15q46.53-45.83,93.09-91.63c.71-.69,1.42-1.4,2.18-2,1.25-1.05,2.53-2.51,4.33-1.63S2831.54,608.56,2831.57,610.19Z"/><path class="cls-6" d="M2831.82,642.46c.23,3.62-1.41,6.44-3.81,8.9q-5.58,5.73-11.23,11.36-35.07,34.85-70.17,69.66c-1.89,1.87-3.76,3.78-5.76,5.53-1.75,1.54-3.72,3.33-6.14,1.45-2-1.53-2.47-3.91-2.08-6.34.5-3.16,2.76-5.27,4.88-7.35q43.09-42.34,86.25-84.62a18.8,18.8,0,0,1,1.46-1.37c1.53-1.18,3-3.16,5.16-1.79C2831.9,638.85,2831.72,640.81,2831.82,642.46Z"/><path class="cls-6" d="M2835.56,669.69a10.73,10.73,0,0,1-3.39,9.24c-3.46,3.59-7,7.12-10.53,10.63q-32.91,32.69-65.86,65.33c-2.12,2.11-4.29,4.17-6.55,6.13-1.84,1.6-4.05,2.81-6.2.75a6,6,0,0,1-1.67-6.41c.86-2.62,2.86-4.46,4.74-6.32q40-39.75,80-79.44c.71-.71,1.4-1.43,2.17-2.06,1.51-1.23,3-3.06,5.19-1.82C2835.35,666.81,2835.46,669,2835.56,669.69Z"/><path class="cls-6" d="M2978.81,973.4c-2.24-.16-4.31-.52-5.47-2.34-1.37-2.14.25-3.73,1.56-5.22,1.09-1.25,2.29-2.41,3.47-3.58q38.72-38.29,77.43-76.56c2.6-2.56,5-5.53,8.67-6.55,2.89-.81,6.34-1.39,8.21,1.56s-1.25,4.84-3,6.58q-19.42,19.43-39,38.65-21.4,21-42.94,41.81C2985.09,970.26,2982.73,973.26,2978.81,973.4Z"/><path class="cls-15" d="M3045.33,877.92c-1.07,3.21-3.53,5.05-5.63,7.12q-32.26,31.85-64.58,63.64c-4.26,4.2-8.47,8.44-12.77,12.6-1.9,1.84-3.87,3.81-6.82,3.6-2-.14-4-.8-5-2.76-.87-1.7,0-3.24,1.13-4.53,1.29-1.52,2.67-3,4.08-4.37q36.44-36.13,72.9-72.24c3.53-3.49,7-7.35,12.75-6.5C3043.52,874.8,3045.18,875.62,3045.33,877.92Z"/><path class="cls-6" d="M3019.72,871.71c-.52,2.64-2.72,4.32-4.58,6.16q-28.79,28.46-57.65,56.84c-5.22,5.14-10.47,10.26-15.8,15.28a34.09,34.09,0,0,1-6.27,4.86c-2.26,1.29-4.66.48-6.39-1.31-2.16-2.22-.81-4.3.81-6.12,1.78-2,3.65-3.88,5.54-5.76q33.69-33.45,67.41-66.87c2.59-2.57,4.93-5.53,8.37-7C3015.07,866.06,3020,868.31,3019.72,871.71Z"/><path class="cls-15" d="M2842.2,696.43c.45,4.24-2.44,6.72-5,9.28q-16.23,16.2-32.57,32.3-20.64,20.26-41.4,40.39c-1.43,1.4-2.85,2.8-4.36,4.1-1.86,1.62-4,2.84-6.12.67-1.76-1.77-2.56-4.14-1.21-6.38a32,32,0,0,1,4.95-6.19q37.82-37.64,75.74-75.17c.71-.7,1.41-1.42,2.17-2.06,1.52-1.24,3-3,5.22-2C2841.7,692.31,2841.85,694.48,2842.2,696.43Z"/><path class="cls-6" d="M2912.62,944.77a6.3,6.3,0,0,1-5.26-2.38c-1.57-2-.63-3.77.75-5.34,1.54-1.75,3.16-3.42,4.82-5.06q33.3-33,66.62-66c2.59-2.56,5-5.46,8.49-6.82a6,6,0,0,1,7.23,1.79c1.89,2.39.05,4.33-1.41,6.15a24.83,24.83,0,0,1-2,2.19q-35.91,35.32-71.85,70.62C2917.86,942,2915.85,944.35,2912.62,944.77Z"/><path class="cls-15" d="M2953.94,841c-.23,2.77-2.41,4.48-4.25,6.33-7.49,7.55-15,15-22.57,22.53l-42.33,42.23c-1.65,1.64-3.29,3.29-5,4.89-3,2.87-6.27,5.68-10.25,1.75s-.28-6.67,2.18-9.14q34.91-34.86,70-69.56a16.22,16.22,0,0,1,4.77-3.51C2949.72,835.14,2953.9,837.73,2953.94,841Z"/><path class="cls-15" d="M2892.55,933a6,6,0,0,1-5.23-2.69c-1.07-1.65-.44-3.21.67-4.54,1.28-1.53,2.66-3,4.07-4.39q32.59-32.37,65.22-64.68a75.19,75.19,0,0,1,8.28-7.17c2.77-2,5.77-1.77,8,1,1.91,2.36.22,4.35-1.29,6.17-.85,1-1.78,2-2.72,2.91q-34.53,34-69.08,67.87C2898.13,929.73,2896,932.45,2892.55,933Z"/><path class="cls-6" d="M2935.43,828.34a13.12,13.12,0,0,1-1.52,2.93,65.57,65.57,0,0,1-4.78,5.09q-32.27,31.95-64.59,63.88a51.63,51.63,0,0,1-6.82,5.8c-2.2,1.51-4.47.77-6.32-1a4.26,4.26,0,0,1-.42-6.25,46.73,46.73,0,0,1,4-4.43q33.14-32.52,66.31-65a32,32,0,0,1,6.13-5.06C2930.43,822.54,2935,824.71,2935.43,828.34Z"/><path class="cls-6" d="M2766.48,804.58a4.92,4.92,0,0,1-4.11-6.72,19.08,19.08,0,0,1,4.16-5.51q36.73-36.6,73.57-73.12c.71-.7,1.41-1.43,2.18-2.06,1.76-1.44,3.6-3.67,6-1.7,2.64,2.12,3,5.15,1.28,8.07a24.39,24.39,0,0,1-3.83,4.56q-36.47,36.18-73,72.31C2770.93,802.25,2769.18,804.4,2766.48,804.58Z"/><path class="cls-6" d="M2822.39,876.7c-4,.24-7.08-4.17-5.22-7.49a21.58,21.58,0,0,1,3.86-4.54q34.5-33.88,69.06-67.73a28.63,28.63,0,0,1,4.59-3.79c2-1.27,3.84-.5,5.35,1.08s2.31,3.46,1,5.39a34.89,34.89,0,0,1-4.49,5.3q-33.55,33.45-67.18,66.82C2827.29,873.81,2825.35,876.23,2822.39,876.7Z"/><path class="cls-15" d="M2838.11,892.25a5,5,0,0,1-4.25-7.4,24.13,24.13,0,0,1,4.4-5.35q33.36-32.82,66.85-65.51c2.91-2.83,6.26-7.7,10.76-3.25,4.89,4.83-.94,7.69-3.62,10.37q-33.06,33.12-66.45,65.92C2843.5,889.31,2841.47,892.19,2838.11,892.25Z"/><path class="cls-6" d="M2861.12,741.3c.15,3.93-2.24,5.92-4.34,8-7.56,7.5-15.19,14.94-22.74,22.44q-23,22.88-46,45.76c-1.88,1.88-3.81,3.72-5.82,5.46s-4.16,2.17-6.19.06c-1.79-1.86-2.43-4.12-.93-6.35a36.76,36.76,0,0,1,4.56-5.27q35-34.89,70.07-69.73c1.18-1.17,2.39-2.32,3.67-3.38s2.77-2,4.55-1.23C2860,737.94,2860.58,739.87,2861.12,741.3Z"/><path class="cls-6" d="M2872.92,762.09c-.19,3.25-2.53,5.27-4.62,7.37q-13,13.14-26.17,26.15c-14.16,14.12-28.27,28.29-42.55,42.29-2.6,2.55-5.13,7.14-9.92,3.54-3.19-2.39-2.43-5.78,2.67-10.89q35-35,70.07-69.91a34.1,34.1,0,0,1,3-2.66c1.35-1.08,2.88-1.81,4.58-.92C2871.9,758.08,2872.6,760,2872.92,762.09Z"/><path class="cls-6" d="M2886.3,781.08c-.38,2.47-2.06,4.14-3.71,5.77q-35.06,34.92-70.16,69.8a25.12,25.12,0,0,1-3,2.61c-1.75,1.26-3.67,1.73-5.48.16s-2.9-3.86-1.44-6.2a30.28,30.28,0,0,1,4.43-5.37q33.6-33.54,67.3-67a24.85,24.85,0,0,1,5.38-4.41C2882.75,774.72,2886.59,777.53,2886.3,781.08Z"/><path class="cls-4" d="M2906,1888q7-13,14-26h30a260.78,260.78,0,0,1-20,36C2922.16,1900.77,2911.86,1896.46,2906,1888Z"/><path class="cls-9" d="M2787.89,402.3A367.52,367.52,0,0,1,2857,332.84c3.39-2.63,6.69-5.46,11.06-6.43l-.1-.1a53.19,53.19,0,0,1-4.29,5.44q-36.8,36.35-73.67,72.58C2787.84,405.18,2787.17,404.46,2787.89,402.3Z"/><path class="cls-4" d="M2892,1862c-3.46,6.59-5.21,14-10,20-7.35-.07-12.95-5.89-20.42-6-2.58,0-3.43-3.29-3.56-5.94,1.33-2.67,2.65-5.35,4-8Z"/><path class="cls-1" d="M2787.89,402.3l2.11,2c-2,2.54-3.63,5.54-7.81,6.93C2782.73,407,2785.48,404.74,2787.89,402.3Z"/><path class="cls-3" d="M3102,880.26a26.82,26.82,0,0,1-10,2C3095.07,880.31,3098.54,880.3,3102,880.26Z"/><path class="cls-9" d="M2868.06,326.41l-.1-.1Z"/><path class="cls-5" d="M1825.78,1236.31l2.11,1.94Z"/><path class="cls-2" d="M1241.59,2473.92H957.74c-3.33,0-6.66,0-10,0-11.6-.34-14.28-2.77-13.51-14.49A337.77,337.77,0,0,1,948,2382.87c16.69-54.64,46.93-100.78,89.2-138.61,46.63-41.73,101.54-67.47,163.68-75.42,87.24-11.16,166,10.64,234.63,66,63.41,51.23,101,117.57,112.31,198.5,1.34,9.58,2.65,19.15,2.08,28.85-.53,9-2.51,11-11.5,11.56-3.65.22-7.32.12-11,.12Z"/><path class="cls-2" d="M2328,1552.06c.11,80.87-63.89,155.48-156.35,155.3s-155.5-76.5-155.71-155.31c-.23-91.39,77.46-157.38,158.21-156.68C2252.51,1396.06,2329.43,1463,2328,1552.06Z"/><path class="cls-6" d="M1292.51,1648.38c5.65-.19,9.65,1.2,13,4.32q3.64,3.4,7.17,7c29.43,29.48,59.12,58.71,88.18,88.56,17.89,18.37,35.29,37.22,53.59,55.21a29.24,29.24,0,0,1,3.31,3.73c2,2.8,1.08,4.88-1.68,6.59-4.84,3-9.41,2.91-13.82-.64a75.27,75.27,0,0,1-5.78-5.52L1290.2,1661.17a15.62,15.62,0,0,1-1.4-1.42c-1.94-2.54-6.3-4.3-4.91-8C1285.44,1647.66,1290.18,1649.05,1292.51,1648.38Z"/><path class="cls-6" d="M1634.08,1288.69a43.09,43.09,0,0,1,.43-5c.94-4.68,3.17-5.63,6.9-2.81a58.82,58.82,0,0,1,5.8,5.49c16.47,16.48,33.44,32.49,49.28,49.56,31,33.44,64,65,95.92,97.51,4.42,4.49,7.88,8.94,5.46,15.82s-5.21,8.07-10.5,2.89c-10.93-10.72-21.56-21.74-32.23-32.72-4.4-4.53-8.42-9.43-12.88-13.91q-49.68-49.89-99.47-99.66C1638,1301.1,1633.43,1296.25,1634.08,1288.69Z"/><path class="cls-6" d="M620.46,1283.89c2.58,6.08,1,11.76,1.62,17.19,1.49,14.24-3.19,26.64-10.06,38.86-18.11,32.21-35.68,64.71-53.48,97.08-2.09,3.8-4.6,7.39-6.35,11.32-3.75,8.46-10.55,10.38-18.87,9.57-7-.68-8.33-2.79-5.06-9,6.53-12.36,13.3-24.59,20-36.85q32.41-59.1,64.87-118.17C615,1290.54,616.29,1286.69,620.46,1283.89Z"/><path class="cls-6" d="M1337.22,1640.1c3.79-.21,6.23.75,8.28,2.62,2.45,2.25,4.85,4.57,7.2,6.92q60.36,60.46,120.68,121c5.62,5.66,10.79,11.78,16.08,17.76,2.13,2.4,5.34,4.67,2.73,8.55-2,3-8.24,4.59-11.84,3.07-3.15-1.33-5.36-3.91-7.71-6.26q-23.33-23.31-46.6-46.66-41-41-81.87-82.07c-4.92-5-9.53-10.24-14-15.62-4.26-5.16-3.52-6.9,3.08-8.56C1334.88,1640.42,1336.54,1640.22,1337.22,1640.1Z"/><path class="cls-6" d="M1784.45,1482.83a34,34,0,0,1-1.69,4.74c-2.08,4.11-4.3,4.72-7.89,2a56.61,56.61,0,0,1-5.82-5.47c-29.19-29.22-58.78-58.06-87.4-87.84-16.15-16.8-32.21-33.69-48.77-50.1-5.93-5.88-7.59-12.24-4.78-19.93,1.24-3.41,3.4-4,6-1.52,3.58,3.48,6.9,7.22,10.43,10.76q64.93,65.07,129.9,130.13c2.59,2.6,5.14,5.23,7.58,8C1784.1,1475.94,1785.14,1478.7,1784.45,1482.83Z"/><path class="cls-6" d="M1621.76,1363.17c2.46.46,3.85,1.91,5.21,3.37,43.63,46.81,90.11,90.8,134.86,136.5,1.63,1.66,3.22,3.37,4.7,5.17,2.8,3.42,3.09,7.19,1.49,11.26-2.57,6.56-5.63,7.35-11,2.63-1.76-1.53-3.34-3.25-5-4.9q-63.59-63.65-127.14-127.31a72.5,72.5,0,0,1-7.43-8.07c-3.16-4.32-1.85-14.34,2-17.59A8.9,8.9,0,0,1,1621.76,1363.17Z"/><path class="cls-6" d="M1751.74,1548.44a16.54,16.54,0,0,1-4.48,9.47,3.73,3.73,0,0,1-5.4.35,69.6,69.6,0,0,1-5.94-5.32c-43.4-42.74-84.64-87.61-128.21-130.18-7.36-7.19-7.93-10.7-4.16-17.43,2.61-4.67,4.5-5.17,8.53-2a59,59,0,0,1,5,4.84c30.58,30.62,61.42,61,91.6,92,13,13.35,25.56,27.11,38.73,40.29C1749.57,1542.62,1751.71,1544.79,1751.74,1548.44Z"/><path class="cls-6" d="M1587.73,1736.79c0,4.45-9.51,9.43-14.57,6.42a29.7,29.7,0,0,1-6-5.19c-41.62-44.07-84.89-86.51-127.58-129.52a32.24,32.24,0,0,1-3.85-4.57c-1.26-1.88-.89-3.71.71-5.4,4.52-4.75,10.9-5.17,16-.92,1.27,1.07,2.42,2.29,3.6,3.47q62.51,62.55,125,125.1c1.65,1.65,3.24,3.36,4.79,5.1A7.49,7.49,0,0,1,1587.73,1736.79Z"/><path class="cls-6" d="M1376.68,1627.36c4.82,0,7.44,2.05,9.84,4.42,6.39,6.32,13,12.43,19,19.11,29.19,32.48,61.13,62.27,91.7,93.39,8.65,8.8,16.76,18.07,25.11,27.12,2.25,2.44,4.91,5,1.95,8.64-2.64,3.24-8.41,4.69-11.75,2.57a41.33,41.33,0,0,1-6.76-5.88c-45.14-44.83-88.5-91.42-134-135.91-2.46-2.39-6.71-4.76-4.58-9C1369.25,1627.89,1374,1628.22,1376.68,1627.36Z"/><path class="cls-6" d="M1474.72,1573.88a8.68,8.68,0,0,1,6.57,2.63c2.21,2,4.35,4.1,6.47,6.22l119.85,120.06c1.64,1.65,3.28,3.3,4.88,5,3,3.15,4.92,6.33,1,10.32-4.42,4.55-9.06,6-13.15,2.49a136.59,136.59,0,0,1-15.6-15.39c-6.28-7.35-13-14.24-19.82-21.06q-45.12-45.2-90.23-90.4c-2.12-2.12-4.22-4.25-6.22-6.47s-3.45-5.1-1.57-8.15A10.89,10.89,0,0,1,1474.72,1573.88Z"/><path class="cls-6" d="M1412.61,1611.93a9.26,9.26,0,0,1,6.65,2.77c2.67,2.51,5.38,5,7.85,7.68,38.69,42.29,80.57,81.43,120.59,122.41,2.1,2.14,4.26,4.22,6.31,6.41,2.84,3,5.6,6.06,1.47,10.2-4.46,4.47-8.78,5.18-13.17,1.69a69.93,69.93,0,0,1-5.76-5.54c-20-20-40.54-39.57-59.87-60.23-22.54-24.09-46-47.2-69.15-70.69a9.49,9.49,0,0,1-.7-.72c-2-2.49-5.67-4.64-3.86-8.43S1409,1612.6,1412.61,1611.93Z"/><path class="cls-6" d="M1732.68,1580.25c-.7,3.75-2.15,7.15-5.66,8.94s-5.67-.86-7.79-2.92c-5.25-5.1-10.32-10.38-15.57-15.48-38.18-37.09-73.94-76.56-111.84-113.93-7.61-7.5-8.25-12.6-3.39-19.12,2-2.67,4.12-3.17,6.74-1a24.66,24.66,0,0,1,2.24,2c16,16.48,33.09,31.84,48.11,49.25,3,3.52,6.31,6.84,9.59,10.14q35.23,35.34,70.5,70.66C1728.84,1572,1732.72,1574.93,1732.68,1580.25Z"/><path class="cls-6" d="M1572.79,1468.83a6,6,0,0,1,4.52,1.76c2,1.78,3.9,3.62,5.78,5.5q60.66,60.75,121.29,121.52a58.78,58.78,0,0,1,5.45,5.83,10.44,10.44,0,0,1-2.64,14.83,4.35,4.35,0,0,1-5.53,0,69.69,69.69,0,0,1-5.91-5.36Q1634.36,1551.46,1573,1490a39.41,39.41,0,0,1-6.42-7.57C1564,1477.85,1568.1,1469.29,1572.79,1468.83Z"/><path class="cls-6" d="M1551.82,1498.25c3.59.26,5.47,2.23,7.35,4.09,7.1,7,14.16,14.12,21.22,21.19,18.13,18.15,36.7,35.89,54.25,54.58,16.65,17.74,33.71,35,50.79,52.35,2.55,2.59,5.41,5.15,4.32,9.46-2,8-8.69,9.88-14.85,3.87-11.91-11.64-24.11-23.06-35.22-35.44-22.71-25.33-47.63-48.47-71.28-72.85-7-7.17-14.24-14-21.05-21.35-4.78-5.12-4-10.37,1.53-14.4A17.42,17.42,0,0,1,1551.82,1498.25Z"/><path class="cls-6" d="M1528.59,1524.76c3.06.27,4.79,1.89,6.41,3.54,16.49,16.88,34,32.81,49.62,50.51q5.28,6,10.91,11.63,33.45,33.55,67,67.07c6.34,6.38,6.17,10,.1,14.61-3.1,2.35-6.07,2.54-9,0-2-1.71-4-3.55-5.83-5.44q-60.9-61.8-121.76-123.63a53.07,53.07,0,0,1-4.6-5.24,5.83,5.83,0,0,1,0-7.41C1523.28,1527.71,1525.51,1525.27,1528.59,1524.76Z"/><path class="cls-3" d="M2578,1860c-.74,11.81-7.81,21-13,30.92-9.58,18.21-19.67,36.15-29.64,54.15-5.47,9.87-11.25,19.58-16.69,29.46-5.6,10.18-11.17,20.38-16.37,30.76a160.75,160.75,0,0,1-10.72,18c-2.83,4.18-6.72,6.69-11.87,5.48-5.47-1.27-7-5.9-7.28-10.72a291.44,291.44,0,0,1,.09-38.87c.61-7.83,4.49-14.76,8.74-21,6.77-10,11.34-21,17.36-31.37,11.54-19.77,22.12-40.11,33-60.25A46.56,46.56,0,0,0,2534,1860Z"/><path class="cls-6" d="M1641.9,1689.38c.31,5.74-7.17,10.86-12,8.21-2.85-1.56-5.24-4-7.59-6.37-41.43-40.89-80.85-83.76-122.52-124.4-6.56-6.4-6.59-9.47-1.41-13.91,3-2.54,5.87-3,8.91-.34,1.75,1.52,3.43,3.15,5.07,4.79q61.39,61.4,122.74,122.83C1637.86,1683,1641.23,1685.42,1641.9,1689.38Z"/><path class="cls-6" d="M620.06,1376.78c2.6,1.71,1.93,4.26,1.91,6.42-.26,37.33,3,26.69-14,57.46-1.13,2-2.18,4.11-3.3,6.15-5.5,10-10.55,12.57-21.94,11.09-5.74-.75-7-2.62-4.38-8s5.74-10.47,8.61-15.72c9.07-16.6,18.07-33.25,27.23-49.81C615.72,1381.6,616.81,1378.3,620.06,1376.78Z"/><path class="cls-3" d="M2520,1860c0,5.81-1.87,10.94-4.8,16-6,10.36-11.37,21.06-17.18,31.52-2.58,4.65-5.49,9.12-8.46,13.53a8.62,8.62,0,0,1-9.54,3.9c-4.05-.9-6-3.87-7.06-7.62a7.85,7.85,0,0,1-.4-2c-.16-18.54-3.16-37.25,3.44-55.37Z"/><path class="cls-1" d="M1966,2381.9q0-204.93,0-409.88c2.75-1.82,5.84-1,8.76-1q197.24-.08,394.48,0c2.92,0,6-.85,8.76,1q0,204.95,0,409.88c-2.74,1.83-5.83,1-8.75,1q-197.23.07-394.48,0C1971.85,2382.88,1968.76,2383.73,1966,2381.9Z"/><path class="cls-3" d="M2858,1870.06q7.07,2.2,14.12,4.41c4.2,1.32,7.91,3.29,9.86,7.55q-47.61,86.31-95.11,172.67c-2.46,4.5-7.75,9.11-2.86,15.26-2.43,2-5,3.59-8.06,1.33-2.8-2.06-3-5.08-2.26-8.12a31.94,31.94,0,0,1,2.69-7.48c8.25-15.18,16.64-30.29,25-45.4q13.74-24.84,27.53-49.66c9.69-17.41,19.49-34.75,29.11-52.2,3.68-6.69,7-13.56,10.47-20.39,1-1.94,1-3.93-1.05-5.29a4.61,4.61,0,0,0-5.6.24c-3.61,2.61-5.66,6.44-7.75,10.25q-21.12,38.43-42.28,76.84c-12.29,22.43-24.42,45-36.75,67.35-5.76,10.48-11.73,20.86-17.81,31.16-4.77,8.09-8.09,8.29-15.28,1.37,6.21-2.13,9.23-7.39,12.13-12.64q28.46-51.51,56.78-103.09,22.59-41.07,45.11-82.19c.69-.64,1.36-1.3,2-2Z"/><path class="cls-3" d="M2906,1888c8.83,1.38,16.13,6.42,24,10-7.26,16.8-16.9,32.35-25.65,48.36-20.07,36.72-40.39,73.3-60.41,110-2.19,4-6.54,8.3-1.9,13.52-2.43,2-5,3.59-8.07,1.33-2.79-2.07-3.15-5.13-2.23-8.12a58.82,58.82,0,0,1,4.39-11.1c12.37-22.41,25-44.67,37.39-67.07q13.74-24.88,27-50c4-7.66,9.32-14.6,12.49-22.72.61-1.55,1.51-3,2.12-4.52.75-1.92,1.2-4-.76-5.46-2.33-1.66-4.62-.6-6.22,1.23a48.46,48.46,0,0,0-5.92,8c-8.27,14.8-16.32,29.73-24.54,44.55-13.38,24.12-26.89,48.16-40.23,72.29-5.14,9.31-9.89,18.84-15,28.18a130.6,130.6,0,0,1-7.73,12.8c-5.2,7.42-7.73,7.42-14.79.62,5.42-1.83,8.67-5.89,11.3-10.7q22.8-41.6,45.69-83.14Q2881.39,1932,2906,1888Z"/><path class="cls-3" d="M2950.07,1912.1c8.78,4.17,17.24,8.72,21.92,17.91q-35.05,63.3-70.1,126.62a47.76,47.76,0,0,0-3.34,7.23c-1.1,3.15.56,5,3.46,6.09-2.2,3.83-5.21,6.53-9.72,4.14-4.28-2.25-4.35-6.62-3.07-10.56,3.1-9.54,8.85-17.85,13.89-26.36,6.27-10.58,11.39-21.75,17.58-32.36,9.88-16.9,19.13-34.16,28.51-51.34,3.34-6.12,6.34-12.43,9.38-18.71,1.06-2.19,1.45-4.62-1-6.25s-4.49-.4-6.26,1.28a18.05,18.05,0,0,0-3.17,3.82c-4.48,7.76-9.22,15.4-13.19,23.42-8.7,17.57-18.77,34.37-28.23,51.52-8.65,15.69-17.18,31.44-25.85,47.13a155.51,155.51,0,0,1-8.16,13.67c-5.16,7.41-7.72,7.39-14.77.6,5-1.72,8.32-5.32,10.81-9.85Q2909.42,1986.11,2950.07,1912.1Z"/><path class="cls-3" d="M2990,1946a21.4,21.4,0,0,1,9.76,7.71A46.83,46.83,0,0,0,3010,1964a63.21,63.21,0,0,1-6,13.62q-22.44,40.44-44.85,80.89a33.45,33.45,0,0,0-2.55,5.38c-1.08,3.16.54,5,3.43,6.06-2.2,3.83-5.1,6.34-9.75,4.2-3.45-1.6-4.92-6.51-2.67-11.53,3.1-6.95,6.4-14,10.69-20.21,6.62-9.65,10.71-20.59,16.84-30.5,7.15-11.55,13.07-23.86,19.63-35.78,2-3.65,3.31-7.26,1.58-11.36-1.37-3.23-3.87-3.76-5.92-.94a92.46,92.46,0,0,0-8.09,12.55c-14.6,29.08-31.25,57-46.57,85.72-5.16,9.68-9.64,11.59-17.77,7.85,4.66-1.9,6.84-6,9.1-10.07Q2958.51,2002.91,2990,1946Z"/><path class="cls-3" d="M2976,2070a13.57,13.57,0,0,0,6.67-5.76c13.86-25.33,28.74-50.1,41.45-76.06,4.86,2.58,7.25,7.25,10,11.65,2.57,4.13,5.29,8.16,8,12.23-3.73,11-10.62,20.38-15.84,30.62-3.28,6.44-6.79,12.77-10.17,19.17-1.74,3.28-2.19,6.29,2,8.15-2.48,4.18-5.85,7-10.49,3.6-4.24-3.09-3.36-7.73-1.27-11.74q10.34-19.82,21.08-39.41c2-3.58,3.92-7,2.42-11.2-.56-1.57-1.17-3.24-3.09-3.52-1.47-.21-2.48.83-3.23,2-2.59,3.85-5.68,7.48-7.57,11.65-7,15.43-16.35,29.53-24.06,44.56C2987.64,2074,2984.45,2074.57,2976,2070Z"/><path class="cls-5" d="M2378,1972H1966c4.75-1.92,9.74-2,14.75-2h382.5C2368.27,1970,2373.26,1970.1,2378,1972Z"/><path class="cls-5" d="M1966,2381.9h412c-4.74,1.92-9.73,2-14.74,2h-382.5C1975.75,2383.91,1970.76,2383.82,1966,2381.9Z"/><path class="cls-4" d="M303,1862h82.87c2.66,0,5.32,0,8,0,12.19.31,14.58,2.54,14,15a114.32,114.32,0,0,1-15.73,54.1C381,1950,366.9,1966.37,347,1976.47c-38.16,19.33-78.81,13.37-109.64-16.3-23.77-22.88-36.64-51.1-39-84-.77-10.9,1.82-14,12.77-14,30.62-.17,61.24-.06,91.85-.06Z"/><path class="cls-4" d="M2858,1870l-2,2Z"/><path class="cls-5" d="M2171.8,1535.15c7.91-.14,15.72,7.88,15.78,16.21a15.61,15.61,0,0,1-15.85,15.77,14.78,14.78,0,0,1-15.16-15.14C2156.59,1543.41,2163.93,1535.29,2171.8,1535.15Z"/><path class="cls-6" d="M2482.67,2019.1c-1-23.67-2.47-44.56,10-64.62,15.44-24.81,28.45-51.13,42.52-76.79,1.28-2.34,2.46-4.73,3.89-7,5-7.79,17.15-11.52,25.49-7.91,2.59,1.12,3.51,3,2.49,5.62a48.45,48.45,0,0,1-2.7,5.33q-36.87,67.4-73.79,134.78A34.16,34.16,0,0,1,2482.67,2019.1Z"/><path class="cls-6" d="M2482.44,1912.41c-.56-14.12-1.12-27.28.33-40.39.72-6.45,4-9.14,10.68-9.67,5.14-.4,11.59-2.39,15,2.18,3.59,4.79-2,9-4.14,13.22-4.87,9.41-10,18.66-15.17,27.92C2487.91,1907.91,2487.31,1910.74,2482.44,1912.41Z"/><path class="cls-4" d="M2172,2274q-39.45,0-78.9,0a87.18,87.18,0,0,1-10-.29c-6.14-.72-8-2.66-8.79-8.84a74.48,74.48,0,0,1-.29-9q0-78.89,0-157.76c0-17.19,1-18.15,18-18.16q79.89-.06,159.79,0c17.08,0,18,1,18.05,18.11q0,79.38,0,158.76c0,15.87-1.26,17.11-17,17.15Q2212.49,2274,2172,2274Z"/></svg>