<svg id="Layer_1" data-name="Layer 1" xmlns="http://www.w3.org/2000/svg" viewBox="0 0 3509 2482"><defs><style>.cls-1{fill:#2d2d2d;}.cls-2{fill:#262626;}.cls-3{fill:#303030;}.cls-4{fill:#2c2c2c;}.cls-5{fill:#272727;}.cls-6{fill:#242424;}.cls-7{fill:#363636;}.cls-8{fill:#2a2a2a;}.cls-9{fill:#4d4d4d;}.cls-10{fill:#3d3d3d;}</style></defs><path class="cls-1" d="M2307.38,2482H1015.78c-1.5-2.41-4.88-3.11-5.86-6.08-.82-9.23-3.84-18.67,2.1-27.65,1.52-2.3,1.13-6.12.45-8.91-1.75-7.26-1.68-14.56-1.68-21.89q0-390-.06-779.9c0-14.19,4.61-28.6,1.15-42.34a102,102,0,0,1-2.56-32.22,35.26,35.26,0,0,0,1.47-9.9q0-113.41-.06-226.85c0-13.91,4.1-27.91,1.38-41.54-2.21-11.11-4.07-21.93-2.91-33.19,1.1-3.9,1.34-8,2.56-11.86a4.58,4.58,0,0,1,3.6-1.4,116,116,0,0,1,16.88-1.29q293.61.06,587.21,0a116.27,116.27,0,0,1,12,.37c179.84-.86,359.71-.14,539.57-.38,19.65,0,39.31.24,59-.12,15.18-.28,19.24-4.67,20.37-19.72,5.1-67.74,30.52-127.23,74.56-178.53,49.82-58,112.69-94.31,188.34-106,91.17-14.1,174.15,7,246.79,64.36,50.16,39.63,85,90.46,104.68,151.49a100.16,100.16,0,0,1,4.8,21.48c.67,7.28,1.29,14,6.65,20.24,4,4.73,1.94,12.18,1.81,18.48-1.08,9.93-2.62,20,4.84,28.46,14.58,2.13,29.28,1,43.87,1.06,29.42.12,58.86,0,88.29,0,4.89,0,9.85-.41,13.93-3.75,102.86,1.36,205.75.19,308.63.68,9.27,0,18.53-1.3,27.83-.22,2.25,1.25,4.68,2.28,6.24,4.45a10.35,10.35,0,0,1-.08,3.56c-1.93,5.93-6.95,4.06-10.94,4.06-67.94.1-135.87.24-203.81,0-32.09-.12-64.21,1.2-96.29-.85-2.95-.19-5.77-1.5-7.49-1.15,22.36,4.76,47,2.79,70.11,10.84,9.41,3.27,19.17-1.6,28.73.82,3.2.81,6.75.42,9.78,1.83,19.42,9.09,41.45,9.75,60.84,18.9,3,1.42,6.41,1.67,9.73,2.08,9.69,1.18,13.11,5.22,13.89,14.84a475.37,475.37,0,0,1,1.75,53.78c-.19,5.61-1.22,10.41-4.37,15-2.08,3-4.59,6-5.35,9.54-3,14-13.8,18.65-25.67,22.13-20.89,6.12-42.48,8.22-64,10.32-59,5.76-117.41,15.83-175.93,25-3.55.56-7.31.71-11.67,3.59,23.66,4.71,45.14,13.22,67.22,19.77,2.57.76,5.5,1.51,7.87.43,9.46-4.28,18.2-.32,27.24,1.61,20.1,4.27,40.39,8.93,60.48,11.71,27.46,3.8,52.34,13.36,77.9,22.4,12.69,4.49,25.3,10.21,39,11.51,7.2.68,10.19,4.36,8.57,11.4-4.94,21.6-3.33,43.71-4.8,65.56a138,138,0,0,1-13.47,51.79c-4,8.24-10.42,14.07-19.62,15.48-14.54,2.21-29,7.86-43.92,2.21-2.59-16.57-.62-33.23-1.15-49.83-.27-8.32.19-16.66-.22-25-.7-14.25-5.27-18.71-19.72-19.49-5-.27-10-.16-15-.16q-134.31,0-268.58,0c-5-.47-11,1.32-13-6-.5-1.76-3.06-1.64-4.81-2.28-60.74-22.28-119.6-48.44-174.38-83.32-16-10.19-20.22-25.52-22-42.41-.74-6.92-.14-14-.14-21,0-30.21,29.27-62.92,59.48-67,40.58-5.45,81.19-10.41,122.25-10.15,4.92,0,10,0,14.93-2.56-1.52-3.15-4.59-3.72-7.18-4.64-33.92-12-66.22-28-100.32-39.65-14.07-4.8-26.36-14.12-39.66-21a48.68,48.68,0,0,0-22.94-5.92q-28.47,0-57,0c-8.61,0-16.55,1.74-23.12,7.69-3.85,3.5-8.6,5-13.48,6.15-30.9,7.3-62.46,9.67-94,12-36.14,2.72-72.33,4.85-108.47,7.76-5.33.43-10.65.13-17,.51,11.77,4.07,22.47,8.33,33,12.89,5.88,2.53,12.1,4.56,18.41,4,11.57-1.09,22.48,1.52,33.47,4.25,6.52,1.61,13.24,2.93,19.74.86,9-2.88,17.64-1.51,26.52.65,16.5,4,33.11,7.69,50.33,5.47,4.09-.53,7.94.8,11.7,2.15,8.38,3,16.81,4.12,25.44,1.22,3.66-1.23,7.07-.6,10.71.54,7.29,2.26,14.3,5.46,22,6.47,8.71,1.14,10.9,4.49,7.27,12.61-3.95,8.83-7.8,17.65-11.13,26.73a218.24,218.24,0,0,0-13,68.36,213.46,213.46,0,0,1-1.81,24.87c-3.33,22-18.22,38.46-40.12,43.15-38.8,8.31-78.4,11.38-117.5,17.77-27.64,4.52-55.15,9.87-81.09,20.82-20,8.43-20.51,15.45-3.53,29.19,6.34,5.13,12.9,9.29,21.32,10,6.93.61,12.19,5.15,17.72,8.75,7.06,4.59,14.39,7,22.7,4.65,4.84-1.39,9.18-.49,13.43,1.83,2.05,1.12,4.12,2.19,6.13,3.38,22.49,13.27,45.71,24.6,72.34,26.68,6.13.48,11.41,2.92,16.59,6.25,13.43,8.63,21.4,4.21,21.66-11.94.29-18.33,0-36.65.11-55,0-3.31-.52-6.81,1.12-9.83,2.66-4.9,5.76-6.14,8.9-.23a58.43,58.43,0,0,1,2,16.8q0,293.79,0,587.58c0,5-.05,10-1.49,14.82-.19,1.16-.39,2.34-.57,3.51-5.2,4.8-8.14,4.19-9.43-2.42-1.16-5.89-.44-12-.49-18-.08-9.59,0-19.19-.06-30-10.43,14-23.52,21.51-38.76,26.86-46.49,16.31-94.33,28.54-140.29,46.45-4.34,1.69-8.88,2.86-13.14,4.75-3,1.36-6.42,2.72-6.58,6.71-.14,3.48,2.58,5.31,5.23,6.72,14.42,7.71,29,14.92,45.57,17,18.77,2.37,36.83,8.33,55.62,10.88a200.73,200.73,0,0,0,28.83,1.53,46.88,46.88,0,0,1,21.14,4.57c10.11,4.8,21.69,5.45,31.78,11,16.28,8.89,25.82,20,18.07,37.06-.55,1.21-.69,2.59-1.23,3.79-14.44,32.11-16.7,66.16-16.23,100.68.21,15.38-4.45,29.54-11.75,42.87-6.21,11.33-17.65,14.87-28.86,17.91-20.28,5.5-41.23,7.53-62,10.2-38,4.89-76.36,3.92-114.41,8C2313.16,2477.4,2309.16,2477.35,2307.38,2482Z"/><path class="cls-2" d="M1015.76,1554.05l0,7.94c-1.67,18.76-.77,37.79-3.79,56.34-6.63,40.7-22.58,78.1-46.3,111.57-41.6,58.71-95.78,101.46-165,123.35-26.08,8.24-52.77,13.42-80.4,13.94-34.15.64-67.94-1-100.86-10.81-48.91-14.63-92.3-38.39-129.73-73.92-41.18-39.08-70-85.1-86.83-139-3.61-11.58-4.91-23.45-5.7-35.44,3.65,46.72,1.69,93.53,1.74,140.3q.36,340.87.19,681.73c0,16.58-3.24,33-1.28,49.68.09.8-1.11,1.59-1.8,2.31H.1V1242c3.17-4.21,7.64-4.92,12.52-4.94,14.46-.06,28.91-.15,43.36.11q72-.39,144,0c29.39-.27,58.78-.32,88.17,0,43.28-.22,86.55-.49,129.83.14,34.69-.62,69.38-.37,104.07-.15,39.62-.34,79.25-.25,118.87,0a34.54,34.54,0,0,0,10.78-1.34c32.07,2.5,64.2.36,96.3,1.34q76.88-.46,153.77,0c32.75-.23,65.5-.41,98.26.09,4.82.86,11.12-2.48,13.68,4.81l2.09,7.91c-1.66,16.32-1.37,32.76-3,49.08-3.25,33.22-15.33,63.66-31.3,92.45-33.84,61-82.79,106.26-145.82,136.14A248.21,248.21,0,0,1,727.77,1552c-27.28,0-54.62,1-81.75-2.32-37.11-4.49-70.85-19-102.3-38.39-70.67-43.49-119.27-104.35-142-184.85a122.61,122.61,0,0,1-3.34-16.32c-.6-4.3-1.12-8.57-1.32-12.89,3.72,34.94,1.52,70,1.87,105,.38,37,.08,74,.09,111,0,5.66-.16,11.33.17,17,.8,13.81,5.19,18,19.28,18.71,4.32.2,8.66.12,13,.12,65.31,0,130.62-.63,195.92.25,34.84.48,69.69,4.63,104.53,2.48,88.91-5.49,177.87-1.37,266.79-2.69C1004.78,1549,1011.4,1547.82,1015.76,1554.05Z"/><path class="cls-3" d="M2875.2,1242a112.08,112.08,0,0,1-3.89-32.49c2.51-14.71-1.77-29.11-2.25-43.7-.17-5.17-.82-10.46-.82-15.69q-.06-563.75,0-1127.49c0-6.61-.93-13.38,2.3-19.63a30.21,30.21,0,0,1,2.66-3h2c3.44,2,7.18,1,10.77,1q203.39.09,406.75.06c6.94.47,7.29,5.55,7.28,10.71-.06,22.06-2.74,43.9-6.73,65.5-15.95,86.31-54.35,160.87-116.36,223.38-61.67,62.16-135.09,102.05-220.84,119.14a420.29,420.29,0,0,1-59.43,7.36c-12.32.67-16.18,4.15-16.26,16.59q-.55,78,0,156c.09,14.07,4.16,17.11,18.8,15.81,5.9-.46,11.39-1.27,14.7,6.12,1.22,2.74,6.78,4.59,9.4-.83.83-1.73.71-3.94,2.88-4.86a21.38,21.38,0,0,1,5.17-1.84c.68-.05,1.81-.31,1.94-.05,6.08,11.88,17.53,5.39,24.36,4.23,15.05-2.55,30.33-3.86,45.36-6.87,27.72-5.54,55.23-12.39,81.34-22.48,39.12-15.12,78-31.59,113.6-54.21,25.59-16.24,50.73-33,73.29-53.73,13.12-12.06,28-22.1,38.63-36.84,6.69-9.28,17.63-14,25-22.75,25.9-30.9,51.91-61.55,71.75-97.09,13.21-23.64,27-46.82,37.85-71.76,15.67-35.94,28.27-72.72,36.67-111,3.12-14.26,5.52-28.67,9.17-42.8,1.51-5.84-4.11-6.8-5.88-10.33a4.91,4.91,0,0,1,0-3.87c1.15-3.15,5.67-1.62,7-5.23-1.6-3.44-9.14-4-5.88-10.34a6.83,6.83,0,0,1,2.22-2.61c2.33-1.08,6.11.66,6.86-3.53.61-3.39-1.3-4.91-4.22-5.77-5.09-1.5-3.39-5.39-3-8.79.64-2.27,1-4.62,2.29-6.69,9.28-4,10-9,2.26-16-6.88-6.27-4.53-20.12,4.17-24.49C3510,1,3508-.06,3508,12.45q.06,605.63,0,1211.27c0,3.63.59,7.33-.63,10.89-7.9,6.28-17.16,3.25-25.74,3.22-36.47-.1-72.95,1.24-109.42-.37-1.61-.07-5.83-1.08-7.13,2.55h-333.9c-9.22-5-19.38-2.32-28.78-2.17-31.48.51-63-.56-94.43.44C2896.92,1238.63,2885.55,1235.85,2875.2,1242Z"/><path class="cls-4" d="M56.08,1242H.1V690c3-3.69,6.94-4.92,11.68-5,40.54-.66,80.87-5.64,121.41-6.29,6.39-.11,12.46-2,18.54-3.64,6.65-1.51,8.56,2.16,9.61,8a375,375,0,0,0,26.25,84.65c19.93,45.18,49.12,83.62,85.52,116.61q68,61.6,157.63,81.82c48.35,10.92,96.83,12,145.5,2.14,4.44-.9,9.13-2.63,13.33,1,3,4.64,7.34,5.11,12.3,4.46,3.93-.51,7.5.6,7.83,5.16.32,4.31-3.28,5.29-6.66,5.85a46.34,46.34,0,0,1-9,.28c-27.32-.9-54.46,1.85-81.62,4.22-11.4,1-15.36,6.87-11,17.78,3.71,9.19,5,18.74,5.21,28.26.39,22,3.68,43.73,6.19,65.52,1.2,10.46,3.34,12.56,14.19,12.08,20.24-.91,40.34-3.84,60.61-4.87,11.92-.6,23.86-1.67,35.75-3.07,12.55-1.47,16.34-5,15.28-17.12-2.42-27.82-4.46-55.66-6.5-83.51-.69-9.37-2.15-18.84-13-22.51-3-1-3.58-3.09-3.24-5.64.39-2.92,1.76-5.73,1-8.79-1.59-7.06,2.24-10.3,8.32-12.28,32.28-10.53,61.36-27.24,89.19-46.33,11-7.54,20.84-16.55,31.31-24.77,2.51-2,4.38-5.23,8.32-4.71,2.43,2.42,5,3.07,8.58,2.19,10.71-2.64,21.71-2.9,32.68-2.39,25,1.16,49.77-2.42,74.69-2.12,10.83.13,18.22-7.15,21.92-14.56,3.5-7,2.37-17.74-4.53-24.22-7.66-7.2-9.39-15.51-8.74-25.19.4-6-1.07-12-.75-18.05-.48,12.27.24,24.51.75,36.77.18,4.26.18,8.91-5.42,10.26s-6.55-3.44-9.24-6.56c-9.2-10.64-7.08-23.87-8.72-36.09-1.57-11.74-5.89-19.65-18.78-20.22-2.68-.12-4-2.12-5.62-3.72-3.24-6.76,1.21-12.24,3.46-17.76C845,731.57,853,704.86,857,677c6.64-46.25,5.72-92.23-5.41-137.8-1.41-5.78-3.39-11.51-2.86-17.62,3.25-3,7.56-3.73,11.57-5.07,5.62-1.87,8.26-5.88,7.17-11.5-3-15.7-3.35-31.46-3-47.42.31-13.84-2.55-16.19-16.17-18.87a13.46,13.46,0,0,1-5.54-2.08c-10.24-7.52-21.32-4.45-32.33-2.63a5.42,5.42,0,0,1-4.08-2.47c-11.52-16.47-23.77-32.37-36.6-47.83-2.57-3.09-2.73-5.79.48-8.44,3-3,6.86-1.9,10.42-2.06,15.62-.71,31.29.68,46.88-.9,16.53-1.68,19.11-4.77,19.27-21.39,0-1.33,0,.34,0-1,.18-29.52-7.06-37.19-37.07-38.74a112,112,0,0,0-30.69,2.52c-12.66,2.86-25.76-.17-38.69,1.11-9.22.91-18.62.47-27.92.09-7.13-.29-13.78.78-20.09,4.07-4.87-1.31-9.25-3.72-13.61-6.12-59-32.44-122.24-47-189.19-43.42C435,272.4,383.4,287.15,335.74,314.54c-4.6,2.65-9.14,5.51-14.61,6.12-3.66-2.43-7.16-2.89-11.9-2.32-13.4,1.61-27,.56-40.49.67-7,.06-14,0-21,0-20,.22-22.91,3.66-21.12,23.92a94.6,94.6,0,0,1-1.59,26.75c-2.11,10.75-5.14,22,.83,32.73,3.41,3.15,1.2,5.91-.53,8.8-3.43,5.72-7.25,11.18-10.92,16.74-34.7,52.63-54.06,110.34-57.44,173.35-.31,5.67-1.73,11.19-2.24,16.84-.27,3-1.65,5-5,5.17-3.59.73-7.12,1.7-10.82,1.62-41.19-.91-82.33,1.37-123.49,2.07-5.64.1-11.43.23-15.39-5V530c3.38-5,8.52-5,13.74-5,30.61.23,61.23-.81,91.8,1.88a98.85,98.85,0,0,0,21.94-.48c7.59-1,12.07-5.36,12.89-13,1.54-14.36.28-28.63-2.33-42.75-1.54-8.31-7.93-11.28-15.53-11.29-31.94-.06-63.88-1.48-95.82.93-9,.68-19,4.29-26.69-4.27V406c3.27-4.59,8.05-5.16,13.12-5,33,1.13,65.84-2.93,98.83-2.17,19.59.45,24.55-5.18,22.36-24.67-1.26-11.26-.61-22.68-3-33.81-2.35-10.83-5.83-12.08-16.73-12.29-32.58-.65-65.12,2.35-97.67.59C10.93,328.37,4.32,327.77.1,322V238c3-4.21,7.3-5.11,12.18-5,29,1,57.89-1.49,86.84-2.12,6.89-.15,15.06,1,18.16-7.19,3.22-8.47,1.74-17.37-3.13-24.92-4.26-6.6-11.55-5.09-18.25-4.91-27.27.77-54.21,6.71-81.63,5.15C9,198.77,3.61,199.13.1,194v-2c6.53-5,14.36-3.53,21.7-4.18,26.3-2.33,52.53-5.47,78.9-6.9-21.35,1.31-42.61,3.47-63.9,5.53-9.47.92-19,1.78-28.52,2-3.1.07-5.9,1.16-6.53-2.83-.45-2.9,1.39-5,4.11-6A40.28,40.28,0,0,1,19.5,177c25.67-.59,51-5.54,76.63-7.25a19.8,19.8,0,0,0-16.36-1c-23.73,8.63-48,6.68-72.39,4.26-2.78-.27-5-1.59-7.28-3V114c4.41-5.27,10.26-7.19,16.88-7,23.36.84,46.37-3.53,69.61-4.5,14.74-.62,18.32-5.77,17-20.53-1.23-13.2-.88-26.72-9.83-38-1.66-2.09-2.8-4.87-5.56-5.4C68.72,34.93,49.76,27.11,29.33,32c-6.5,1.56-13.29.83-19.82,2.11C5.29,34.92,2.55,33,.1,30V2c2.41-1.7,5.16-1,7.75-1q117.65,0,235.28,0c6.13,5,2.45,7-2.72,7.59-8.27.89-16.62.19-24.93.42-16.65.47-21.42,5.68-19.74,22.27,1.64,16.21,1.85,32.51,3.34,48.73,1.28,13.9,5.19,18.49,19.2,18.74,38.9.7,77.79.67,116.55-3.46,6.3-.67,12.64,0,18.94-.69,7.38-.77,11.8-4.55,11.5-12.29-.68-17.29.41-34.61-.67-51.88-1-16.57-5.87-21.16-22.27-21.39-20.29-.28-40.58,0-60.87-.11-3.32,0-6.73.33-9.91-.74-4.11-1.38-5.61-3.66-1.49-7C331.21.69,392.34,1.15,453.47,1q61.3-.11,122.58,0c5.12,1.85,4.59,3.31-.25,4.76-6.27,1.87-12.68,1.22-19,1C535,6.12,513.3,8.64,491.55,9.38a78.88,78.88,0,0,0-14.79,2.3c-7.26,1.66-11.94,6.17-12.87,13.54-2.06,16.4-6.55,32.49-5,49.37,1.28,14,4.32,18,18.07,18.31a883,883,0,0,0,104.64-4.05c11.1-1.06,14.12-4.67,13.21-15.56a216.63,216.63,0,0,0-3.67-26.7c-1.62-7.75-5.78-13.33-13.86-15.38-3.73-.94-7-1.92-7.95-6.88-.78-3.89-5.26-3.27-8.54-3.29-14-.05-28,0-41.95-.05-3,0-6,.05-8.87-1a5.46,5.46,0,0,1-3.84-4.19c-.49-2.56.86-4.3,3.12-5.49,4.13-2.17,8.52-2.88,13.17-3.13,12.79-.68,25.62-.39,38.37-.34C570.65,6.9,579.49,5.71,588,1Q741.81,1,895.57,1c39.09,0,78.18-.06,117.25.05a4,4,0,0,1,2.68,2.07c-2.54,7.18-9,5.68-14.15,5.75-24.64.3-49.29.06-73.93.16C909.21,9.11,903.7,14,901.5,32c-1.06,8.73-.51,17.3,2.93,25.52a34.45,34.45,0,0,1,2.4,9.63c1.24,11.15,3.71,13.43,15.31,13.81,25.3.83,50.48-3.23,75.82-2,6.62.33,13.22.4,19.74,2.25,2.35,2.1,2.86,5,2.9,7.91.27,17.88.35,35.77,0,53.65a14.76,14.76,0,0,1-3,9.21,33,33,0,0,1-14.43,3c-25.67-1-51.19,2.78-76.87,2.25-17.67-.36-20.56,3.6-19.68,21.51.44,9,1.89,17.88,2.48,26.86.75,11.39,5.52,14.81,17,14.42,23.28-.78,46.5-2.91,69.81-3a131,131,0,0,1,19.88,1.74,4.86,4.86,0,0,1,3.11,2,15.23,15.23,0,0,1,1.64,6.7c-.23,25.39,1.24,50.81-.79,76.16a6.57,6.57,0,0,1-1.62,3c-13.64,3.62-27.5,3.22-41.34,1.46-10.83-1.38-21.68-.67-30.59-1,1.39,0,4.72,0,8,0,2.05,0,4.2,0,4.62,2.56.48,2.94-1.62,4.05-4,4.8A17.92,17.92,0,0,1,949,315c-9.81-.25-18.36,2.58-25,10.14-2.88,3.31-6,3.72-10.51.66,3,11.51,4.77,22.46,7.47,33.23,1.93,7.73,8.09,9.35,14.58,9.56,20.91.69,41.86,1.22,62.73-.34,6.67-.5,13.09-.77,19.52.95a4.16,4.16,0,0,1,1.91,3.29,267.88,267.88,0,0,1-.16,54.09,7.5,7.5,0,0,1-1.87,3.43c-8.78,3.85-18.11,2.95-27.32,3-13.63.09-27.26-.3-40.88.15-19.85.67-26.32,8.43-23.66,27.83,1.44,10.54,1.19,21.22,2.89,31.74.6,3.72-.75,8.47,6.11,7.13,1.91-.38,4.24,1.64,5.14,4,3.49,9,11,9.77,19,9a334,334,0,0,1,35.79-1.92,157.45,157.45,0,0,1,20.81,1.63,3.81,3.81,0,0,1,3,1.26c4.21,14.08,2.89,28.27,0,42.22-1.89,9-2.29,17.5.14,26.41,3.27,12,2.41,24.39,1.45,36.63-.53,6.74-6.5,8.29-11.6,9.6-3.75,1-7.9.37-11.87-.29a101.72,101.72,0,0,0-31.78,0c-7.4,1.11-14.78,1.8-20.43-7.3-5.58,13.59-5,25.57-.86,37.17,2.28,6.38,9.4,7,15.3,7.63,16.19,1.85,32.38,3.73,48.3,7.17,4.75,1,11,.24,13.13,6.76.52,34.94,1.53,69.87-.54,104.77-8.14,6.22-17.5,4.59-26.6,3.82-10.58-.9-21.09-3-31.73-3.07-13.64-.14-18,4.34-18.06,17.8,0,6.33-.83,12.69.46,18.46,1.4-2.69-.93-5.61-.76-9,.21-4,1-6.17,4.5-6.68,3-.45,5.34,1.13,6.41,4.4a53.13,53.13,0,0,1,2.89,16.59c0,11-.51,22,1.52,32.84,2.49,13.37,6.15,16.66,20,17.18,9.3.34,18.67-.56,27.9.41,5.66.59,13.37-.5,14.32,8.64.43,17.65.22,35.3.12,52.92-.25,11-9.1,9.11-15.62,9.81-4.78.52-9.65-1.39-14.58-1.38-4.34,0-8.5.44-11.7,3.82-.29.38-.63.73-.92,1.11-8.19,8.32-7.61,18.59-6.54,29,.28,2.75,1.59,5.57-.17,8.33-1.08,1.72-2.44,3.29-4.44,3.45-2.46.2-3.08-2.08-3.87-3.86-1.83-4.16-.34-8.83-1.62-11.83-1.18,8.42,3.2,15.83,9.35,22.67,2.95,3.28,5.06,7.45,3.91,11.92-3.46,13.33-1.19,26.63,1,39.58,2.44,14.14,2.76,28.41,4.78,42.53a21.72,21.72,0,0,1-.13,6.92c-.5,2.79-3.16,3.16-4.69,3.19-1.28,0-3.6.1-4.69-2.87-1.91-5.17-2.14-10.48-2.68-15.68-.89-8.55-5.43-16.19-5.51-22.86,3.94,10.9,4.94,24.38,8.06,37.43.32,1.33.85,3,1.61,3.18,11.5,3.21,19.78,14.23,32.89,13.51,4.88-.26,8,4.33,12.79,4.82,2.82.29,2.28,3.6,2.69,5.83.09,21.38.5,42.73-.2,64.07,0,3.76-2.54,4.66-5.67,5.6-8.66,2.61-12.08,8.66-10.59,17.57.94,5.61.44,11.27.57,16.91a12.11,12.11,0,0,1-4.94,10.33h-98c-8-7.5-6.51-18.5-10-27.68-5.05-13.47-6-14.88-20.42-15.31-27-.82-53.84,2.78-80.83,2.34-12.87-.2-22.57,8.9-33.67,13.78-4.8,2.1-5,8.36-4.47,13.48s.11,10-4.58,13.38h-96c-5.23-2.22-8.91-5.27-9.77-11.65-1.05-7.76-6.69-10.86-14.25-11.23-12-.58-23.89,1.17-35.83,1.72-15.61.73-31.27,0-46.91.26-12.83.2-14.66,1.54-18.26,13.6A16.58,16.58,0,0,1,522,1242H418c-7.7-12.52-19.49-14.57-32.79-12.91-23.83,3-47.77,1.92-71.67,1.86-10.37,0-18.87,3-25.48,11.08h-88c-6.46-7.34-15.07-8.64-24.19-9-25.22-1-50.34,1.32-75.51,1.93a165.18,165.18,0,0,1-23.84-.72C68.46,1233.27,61.49,1235.75,56.08,1242Z"/><path class="cls-4" d="M396,2482c-1.7-6.51-2-13.15-2-19.83q0-427.83.05-855.66c0-3.91-.75-8,1.62-12.4,3.31,2.34,2.88,5.9,3.4,8.82a338.41,338.41,0,0,0,13.51,52.16,299.51,299.51,0,0,0,69.88,112.82c25.26,25.76,53.29,47.17,85.56,63.13,33.82,16.72,69.66,27.32,107.1,30.32,67.48,5.41,131.39-7.11,189.56-43.28q120.93-75.19,145.93-215.54a195.44,195.44,0,0,0,3.24-29.78,31.69,31.69,0,0,1,1.94-10.77v914c-5.25,3.6-6.45,0-6.77-4.09a132.76,132.76,0,0,0-2.75-18.76c-22.8-102.59-138.48-150.42-227.54-89.59-13.54,9.25-15.8,9.27-26.81-4.16-31-37.86-70.48-62.3-118.74-69.76-76.52-11.82-139.56,13-187.86,74.09C423,2392,411,2424.27,406.82,2459.82c-.91,7.63.29,16.31-6.84,22.18Z"/><path class="cls-1" d="M3493,2482h-166c-4.51-3.44-5.55-7.81-4.12-13.24,7.3-27.75,22.23-48.87,50.34-58.73,6.91-2.43,13.93-4.58,20.82-7.08,3-1.08,7.41-1.21,7.5-5.37.06-3.36-3.82-4.28-6.42-5.57-18.51-9.2-36.58-19.22-54.49-29.49-14.89-8.53-27.76-19.68-37.09-34.22-8.95-14-6.81-29.78-4.11-44.69,5.05-27.85,13-55,22.1-81.89,6.12-18.18,18-31,33.1-41.17a193.4,193.4,0,0,1,47.56-23c3.65-1.2,8.63-1.78,9-6.69.32-4.67-4.29-6.35-7.58-8.44-15.19-9.61-31-18.11-45.58-28.84-12.67-9.37-23.92-20.16-35-31.28-12.49-12.6-14.66-28.17-11.67-44.45,4.16-22.61,12.89-44.24,17.69-66.51,5-23.32,20.26-36.48,36.44-50.21,6.22-5.28,13.86-7.82,21.45-10.42,16.27-5.58,32.95-9.92,50.59-15.47-4.95-5.75-10.59-7.87-15.57-10.83-43-25.52-86.27-50.45-126.25-80.66-17.39-13.14-32.14-29-47.31-44.41-9.75-9.91-10.48-23.23-10-35.61,1.06-29,8.15-56.5,25.28-80.79,9.59-13.6,22.16-22.63,37.66-28.31a245.82,245.82,0,0,1,61.26-13.57c15.53-1.5,31.06-2.93,45.15-3.08-2.39,0-6.34-.14-10.21.09-4.45.26-8.08-.14-8.59-5.32-.56-5.81,3.5-7.25,8.25-7.64,5.88-.49,11.87-.48,18.13-3.57-5-6.51-11.6-9.67-17.63-13.4a442.94,442.94,0,0,1-80.61-63.6c-12.88-12.86-14.59-27.14-11.62-43.93,4.21-23.84,13.25-46,21.47-68.5,3-8.19,8.47-13.28,15.33-18.69,33.1-26.1,72.11-36.38,112.2-44.3a28.54,28.54,0,0,0,3.89-.91c2.2-.75,4.86-1.29,5.13-4.07s-2.17-4-4.23-5c-9.3-4.52-18-10.13-27.26-14.72-20.33-10.08-39.51-22.15-59-33.7-3.08-1.82-8.35-3.19-4-8.69l0,0c5.42-7,13.66-4.26,20-4.14,29.45.6,58.91-.43,88.36.53,9.62.31,19.3-1.06,28.75,1.57,3.43,3.79,1.77,8.36,1.77,12.5q.14,245.8.08,491.61,0,295.18-.14,590.38c0,28.22-3.78,56.3-6.52,84.39-1.65,16.91-1.07,33.92-3.15,50.81C3497.59,2474.46,3496.68,2478.69,3493,2482Z"/><path class="cls-1" d="M2551.3,2170c0-.65,0-1.3,0-2a13.44,13.44,0,0,1,11.37-5.06c4.32.18,8.65,0,13,0q278.55,0,557.09,0c31.73,0,33.17-1.65,33.46-33.17.23-24.6-1.2-49.23.86-73.81,3.18-5.42,8.46-3.37,12.45-2.49,22.28,4.94,44.86,8.78,66.24,17.23,9.88,3.91,12.43,7,12.28,17.81a242,242,0,0,1-2.32,29.8c-3.17,22.77.14,45.14,1.94,67.62,1.45,18-1.34,35.05-9.62,51.11-3.64,7.07-9.6,11.67-16.43,15.49-21.35,11.95-44.54,19.14-67.83,26.49,10.59,8.11,22.09,11.76,42.94,11,8.86-.33,14.89,3.72,22,7.22,15.87,7.77,22.6,18.25,17.46,36.52-4,14.23-6,29.1-7.67,43.95-1.58,13.92-3.15,27.75-2.52,41.75.76,16.67-2.84,33.14-2.09,49.81.26,5.76-3,8.43-8.7,9.73-4,.91-8.32,1-12.11,3H2605.28c-1.17-1.18-2.81-2.22-3.21-3.76-3.28-12.47,8.57-38.18,20.39-44,5.18-2.56,10.53-4.06,15.66.72a9.67,9.67,0,0,0,9.42,2c21.19-5.92,43-2.84,64.45-4.09,5.64-.33,11.36-1,16.05-.81-13.69,2.24-28.59-.28-43.31,1.88-3.14.46-6.72,1.18-8.63-3.07-2.16-4.8,1.74-6.16,4.31-8.06,7.75-5.72,17.16-4.6,25.93-5.62,34-3.92,68.34-4.57,102.43-7.84,12.13-1.17,24.44.5,38.81-1.43-7.53-5.15-14-7.57-20.2-10.45-39-18.09-77.77-36.24-112.84-61.69-15.82-11.47-21.84-26.22-22.18-44.33-.41-22.31-.21-44.64-.05-66.95a262.92,262.92,0,0,0-2.09-31.87c-1.6-14-4.86-17.37-19-17.48-34.3-.28-68.6-.07-102.9-.12-4,0-8,.24-12-.33C2553.69,2174.27,2550.88,2173.84,2551.3,2170Z"/><path class="cls-2" d="M3213.09,2482a19.22,19.22,0,0,1,2.61-1.46c10.17-3.75,14.36-11,13.41-21.75-1-11,2.36-21.91,1.6-32.84a141.56,141.56,0,0,1,.36-27.85c2.4-18.74,2.86-37.72,7.79-56.16,1.78-6.66,1.83-13.79,3.36-20.63,1.13-5-.7-9.15-5.12-12-5.3-3.44-10.56-6.94-15.85-10.39-2-1.28-4.13-2.8-6.46-2.27-11.21,2.53-21.5-3.81-32.51-3.16a15.49,15.49,0,0,1-6.74-1.64c-8.16-3.6-16.23-7.4-24.74-11.32,2-4.22,5.91-4.59,9.14-5.71,11.31-3.93,22.64-7.83,34.08-11.37,12.49-3.86,24-9.8,35.56-15.73,7.75-4,12.21-10.33,16-18.27,7.2-15.17,7.36-30.92,5.92-46.8-2.68-29.6-2.79-59.1.84-88.61a46.94,46.94,0,0,0,.15-8.95c-.18-2.75-1.27-5.71-4-6.41-10.08-2.58-18.3-11.79-30-8.49a3.93,3.93,0,0,1-2.91-.42c-13.44-9-30.31-6.82-44.36-13.75-5.58-.41-4.76-4.94-4.79-8.25-.16-22.92-.78-45.85.28-68.75,4-5.88,10.28-7.21,16.63-8,11.59-1.37,23.05-3.34,34.45-5.85,16.7-3.68,25.44-14.21,28.29-30.84,4.64-27.1,4.15-54.41,4.27-81.71,0-5.33-.33-10.64.54-16,.95-5.76-1.72-9.16-7.44-9.43-11.86-.55-22.32-4.48-33-9.8-8.63-4.3-19.27-4.3-28.54-8.09-5.28-2.16-11.31-2.77-15.16-7.76-1.27-41.17-.23-82.33-.55-123.48-.06-8-.3-16,.2-23.9.22-3.32-.76-7.83,4.82-8.21,10.88-1.51,21.75-3.19,32.65-4.49,12.49-1.49,20.59-7.84,25.11-19.76a164.42,164.42,0,0,0,10.49-50.55c1-19.24.5-38.61,3.37-57.74.61-4.12-.83-7-4.85-7-11.52-.29-21-8.64-32.71-8a6.82,6.82,0,0,1-3.66-1.46c-13-8.7-27.69-12.72-42.61-16.31a45.53,45.53,0,0,1-8.43-3.08c-6.15-2.87-12.23-5-19.22-2.88-4.31,1.32-8.57-.46-12.66-1.89-14.18-5-28.42-9.26-43.74-9.27-7.66,0-14.85-3.51-22.28-5.34-2.18-.53-5.18-2.06-6.36.56-2.95,6.58-7.6,3.91-11.81,2.59-16.84-5.29-33.61-10.78-50.4-16.22-8.25-2.68-16.52-5.22-25.3-5.46a7.7,7.7,0,0,1-2-.3c-4.36-1.33-11.08-1.59-11.25-6.44s6.54-4.47,10.51-5.18c45.9-8.16,91.86-16,138.13-21.71,28.41-3.53,56.86-6.73,85.27-10.22a188.65,188.65,0,0,0,37-8.07c7.69-2.57,13.79-6.65,15.15-15.48a8.25,8.25,0,0,1,1.91-4.55c8.93-8.53,9.09-19.73,8.72-30.62-.35-10.47,2.17-21.3-3-31.4-1.62-3.18.23-6.51.69-9.77,1-7.31-1-9.85-8.47-9.65a19.51,19.51,0,0,1-11.22-3.39,52.68,52.68,0,0,0-25.42-8.17c-6.84-.37-12.87-3.2-19.05-5.64-8.06-3.19-16.09-6.48-24.87-7.12-2.64-.2-5.68-.92-7.89.06-7.08,3.14-13.73,1.07-20.5-.65-13.51-3.43-26.82-6.51-41.13-6.85-15.1-.35-29.72-6.4-44.4-10.52,0-.65.09-1.3.14-2H3369q28.41,17.74,57.78,33.82c14,7.66,28.3,14.9,42.46,22.34a45.24,45.24,0,0,1,4.3,2.53c1.65,1.11,3.65,2.23,3.7,4.43.06,3.08-2.85,3.26-4.87,4.15a86.9,86.9,0,0,1-20.07,5.92c-29,5.25-57.19,12.89-83.41,26.8-5.62,3-11.06,6.11-15.63,10.63-1.64,1.63-3.38,3.53-5.45,4.31-10.14,3.81-14.49,11.91-17.54,21.56-2.81,8.88-6.56,17.47-9.78,26.22-5.77,15.72-8.52,32.08-10.67,48.63-1.23,9.45,1.76,17.08,7.82,23.8a262,262,0,0,0,22.79,22.41c22.74,19.71,47.35,36.74,73.1,52.23a125,125,0,0,1,11.3,8.21c1.56,1.2,3.5,2.56,2.94,4.84-.69,2.85-3.43,2.75-5.69,3-7,.8-13.91,1.51-20.86,2.3-1.29.15-2.7.17-3.91,2.29,7.69,3.2,15.6.48,25.1,1.16-5.13,5.78-10.37,7.59-16.26,8.25-18.54,2.06-37.07,4.2-55.62,6.16-17.71,1.88-34.53,7.11-51.19,13.08-20.75,7.44-32.33,23.78-41.58,42.38-8.9,17.9-12.75,37.26-13.95,56.91-1,16.24,2.68,30.87,15.53,43.47a495.08,495.08,0,0,0,72,58.53c33.84,22.61,69,42.9,104.07,63.53,4.57,2.7,9.62,4.58,14.27,7.18,2.87,1.6,2.57,3.84-.33,5.18a32.41,32.41,0,0,1-6.69,2c-19.24,4.22-37.94,10.28-56.61,16.44-20,6.58-33.46,21.19-45.64,37.32a14.52,14.52,0,0,0-2.42,5.44c-5.82,26-16.45,50.66-20.84,77.06-2.84,17-.65,32,12.24,45a281.8,281.8,0,0,0,54.91,43c11.69,7.07,23.4,14.12,34.81,21.62,7.25,4.76,6.75,8-1.31,11.58a99.42,99.42,0,0,1-12.24,4.35c-14.5,4.27-27.68,11.4-41,18.33-10.85,5.65-19.44,13.93-27.58,22.8-4.14,4.53-6.42,10-8.55,15.7-10.56,28.15-17.79,57.23-24.06,86.57-2,9.2-1.83,18.6-.69,27.87,1,8.56,5.74,15.41,11.47,21.74,13.46,14.88,30.39,24.71,47.87,33.84q22.15,11.57,44.26,23.2a18.58,18.58,0,0,1,1.76,1c2.42,1.63,6.28,2.44,6.18,5.87-.1,3.71-4.13,3.86-6.81,4.8-10.07,3.51-20.22,6.78-30.32,10.2-31,10.51-49.44,35.07-51,68Z"/><path class="cls-2" d="M3493,44l0,6c-2.24,3.7,1.12,6.67,1.3,10.07.21,3.78-.33,7.26-3.31,9.94h0c-2.57,5.1,4.63,11.42-2,16h0c2.4,24.71-5.92,47.9-11.44,71.22-7.14,30.22-17.57,59.62-29.76,88.32-15.93,37.52-35.81,72.87-58.49,106.59-14.23,21.15-30.7,40.62-47.15,60.17-15.29,18.17-32.2,34.82-49.29,50.71-34.61,32.2-72.74,60.3-114.77,82.78a760.84,760.84,0,0,1-104.43,45.9c-31.59,11.23-64,18-96.54,24.43-11.17,2.21-22.79,1.38-33.78,5.72-3.3,1.31-7.61-3.87-12.21-1.87l-4,0c-4.17,4.58-9.25,4.14-14.48,2.55-4.48-1.36-8.93-2.63-13.54-.55-4.33,0-8.67.1-13-.18-8.29-.53-10.25-2.63-10.83-11.13-.16-2.32-.11-4.66-.11-7q0-81.5,0-163c0-17.9.55-17.81,18.55-18.83,51.68-2.91,101.49-13.89,149.12-34.67a415.48,415.48,0,0,0,109-69.78c38.78-34.19,70.82-74,94.72-120.25,26.53-51.35,42.46-105.53,46.84-163.19.81-10.64,1.76-21.24,1.54-31.92-1.44-.71-1.43-1.4.05-2H3493a5.84,5.84,0,0,1,1,3.91c.29,9.07-.64,18.1,2.55,27.1A11.93,11.93,0,0,1,3493,44Z"/><path class="cls-3" d="M2253.39,0h20c3.76,3.7,8.62,1,12.82,2,69.91,1.47,127.73,31.39,178.38,77.2,44.54,40.29,75.73,89.43,90.85,147.63,25.11,96.66,10.73,187.23-48,268.74-55,76.25-130.57,118.55-223.74,129.69-4,.47-7.87,1.37-11.89,1.62-1.36.05-2.69.08-4,.07-16.36-.16-18.29-2.71-19.4-19.19-1-14.84,4-28.95,4-43.54q.11-249.94-.07-499.91c0-15.19-5.34-30-3.93-45.48.49-5.33.48-10.62,2.75-15.58A12.5,12.5,0,0,1,2253.39,0Z"/><path class="cls-2" d="M2551.3,2170l97.95,0c9.66,0,19.32,0,29,0,14.9,0,15,.35,16.8,15.59a356,356,0,0,1,2.27,44.88c-.21,18.33.05,36.66-.07,55a94.28,94.28,0,0,0,3.84,25.6,28.08,28.08,0,0,0,10.42,15.44,449.67,449.67,0,0,0,49.25,32.29c28.45,16.16,58.86,28.2,88,42.94,3.77,1.91,8.16,3.07,10.51,7-.1,3-2.38,3.14-4.23,3.43-4.27.69-8.59,1.67-12.87,1.57-30.7-.7-61.12,3.83-91.75,4.63-19.58.51-39.08,3.71-58.61,5.83-2.85.31-6.08.34-7.75,3.57,1.36,2.87,4,2.08,6.14,2.09,11.32.06,22.63.44,33.92-1.21,9.48-1.39,10.84-1,17.4,2.21-3,4.06-7.41,4.38-11.55,4.64-7,.44-14,.58-21,.41-14.05-.34-27.91,1.77-41.84,2.89a71.49,71.49,0,0,0-23.21,5.67,32.53,32.53,0,0,1-4.72,1.64c-7.65,2-8.79,1.07-8.77-8-7.79-.2-11.94,5.09-15.46,10.54a52,52,0,0,0-7.44,20.53c-.66,4.28-1.49,8.54-2.24,12.8h-297.9c-5.54-6.55-5.39-7.34,2.66-8.94,5.87-1.16,11.85-2.4,17.79-2.5,16-.27,31.86-2.36,47.86-2.71,29.66-.63,59.09-4.17,88.37-8.91,10.86-1.76,21.71-3.36,32.33-6.37,13.52-3.84,22.65-11.85,26.93-25.56,3.3-10.57,6.26-21.15,5.91-32.28-.54-17.36,1.17-34.6,2.33-51.88a77.34,77.34,0,0,1,4.39-20.45c3.64-10.38,6.27-21.18,10.78-31.15,5.9-13.07-2.22-22.8-13.09-28.24-7.49-3.76-15.06-8.76-24.31-8.19a9.41,9.41,0,0,1-5.6-1.9c-10.82-7.91-23.21-7.51-35.54-6.61-7.12.53-13.7-1.37-20.53-2.28-16.22-2.14-31.71-7.87-47.79-9.61-23-2.48-42.43-12.94-61.81-24.06a15.58,15.58,0,0,1-3.15-2.45c-3.67-3.63-3.61-6.18.78-8.69a68.69,68.69,0,0,1,11.87-5.23c37.19-12.66,73.69-27.39,111.76-37.45,18.71-4.95,36.7-12.05,54.85-18.66,11.36-4.14,19.67-12.21,26.52-22,1.85-2.65,2.77-6.12,6.57-7.84,2.73,2.63,1.92,6.11,1.94,9.22.12,12.66.07,25.32.07,38C2549.28,2160.27,2549.31,2165.28,2551.3,2170Z"/><path class="cls-2" d="M400,2482c1.94-80.42,39.32-139.7,108.56-178.87,25.48-14.41,53.72-21.2,83.42-21.26,20.73,0,41.35.23,61.34,6.51,31.17,9.79,60.15,23.52,83.36,47.39,7.19,7.4,14.72,14.45,21.2,22.57,5.72,7.16,8.56,7.45,16,2.07,35.79-25.9,75.77-33.33,118.64-26.14,25.1,4.21,47.32,15.18,66.77,31.89,31.45,27,50.65,60.45,54.73,102.09a57.28,57.28,0,0,0,1.79,7.76v6h-90a25.08,25.08,0,0,1-7.61-12.5c-7.73-26.52-29.11-42.58-55.91-42.46-26.47.11-47.08,15.9-54.83,42.46a25.08,25.08,0,0,1-7.61,12.5h-90c-3.73-2.85-4.73-6.7-5.12-11.27-4.52-52.9-48.4-92.09-101.4-94.07-52.18-1.94-99.3,36.51-107.1,88.17-.91,6-.19,12.94-6.31,17.17Z"/><path class="cls-4" d="M490,2482c-1.2-42,23.46-84.59,69.77-103.63a78.59,78.59,0,0,1,15.3-4.52c68.2-12.88,116.29,25.81,132.1,77.42,3.09,10.08,2.79,20.4,2.76,30.73Z"/><path class="cls-3" d="M.1,322c17.57,1.47,35.15,2.36,52.79,2.08,11-.17,22-.22,32.81-2.15,6.27-1.11,12.49-1.63,18.7.7,3.56,1.35,7.22.5,10.76-.66a29.06,29.06,0,0,1,9.79-1.66c5.3.13,9.25,2.51,10.09,7.84,3.47,22,5.55,44.2,4.61,66.54-.23,5.44-3.51,8.41-8.93,9a41.42,41.42,0,0,1-5,.29C83.84,403,42,407.35.1,406Z"/><path class="cls-3" d="M.1,456c41.22-2.64,82.5-1.91,123.76-2,18-.05,19.61.13,20.72,19.05.91,15.31,1.6,30.58,1.38,45.89-.16,10.65-2.36,12.94-13.11,12.95-17.29,0-34.56.51-51.88-1.27-12.52-1.29-25.27-.54-37.92-.6C28.74,530,14.42,530,.1,530Z"/><path class="cls-3" d="M154.08,678c-4.08,4.76-9.74,5.87-15.42,5.72-17.69-.48-35.19,2.27-52.85,2.44A302.76,302.76,0,0,0,51,688.39C34,690.5,17.06,689.8.1,690V622c50-.38,99.93-3.23,149.93-2,4.42-.1,4.39,3.35,4.75,6.23,1.69,13.55,2.62,27.17,3.94,40.76C159.13,671.26,159.29,675.9,154.08,678Z"/><path class="cls-3" d="M.1,30c19.74-3,39.66-3.87,59.55-5,4.72-.28,9.76-.32,13.41,2.71,5.47,4.53,11.43,4.68,17.83,4a43.88,43.88,0,0,1,7-.41c3.63.2,5.88,2.3,4.57,5.92s-.63,6.25,1.5,9.18A12.08,12.08,0,0,1,105.79,52c1.47,12.87,3.11,25.74,4,38.66.87,12.16-1.24,14.85-13.39,16.14-19.81,2.09-39.67,4-59.56,5-12.27.61-24.56.85-36.78,2.24Z"/><path class="cls-5" d="M3493,2.1,3493,0h16V2482h-16c1-44,3.47-87.85,12.65-131.05A80.65,80.65,0,0,0,3507,2334V1776.28c0-5,.06-10-1.63-14.83a8.1,8.1,0,0,1-.24-4.86c2.81-8.47,1.84-17.18,1.84-25.8q.06-244.39,0-488.79-4.81-4,0-8,0-415.44.05-830.89,0-188.47,0-376.95c0-4,.08-8-.1-12-.43-9.6-1.6-10.74-11.9-12.08C3494.36,3.51,3493.71,3.52,3493,2.1Z"/><path class="cls-4" d="M799.85,2482c1.63-23.72,12.73-42.55,33.41-53.21,37.08-19.13,78.53-.56,90.23,39.5,1.29,4.42,1.57,9.13,2.32,13.71Z"/><path class="cls-3" d="M.1,194c21.3-.09,42.5,0,63.77-3.1,15.38-2.22,31.18-2.27,46.78-3.51,7-.55,9.49,1.06,10.59,7.67,1.75,10.5,3,21.11,3.92,31.72.5,5.7-1.64,7.81-7.25,8.83a29.37,29.37,0,0,1-5,.33C75.32,236.31,37.75,239.21.1,238Z"/><path class="cls-6" d="M2253.39,0c0,.62,0,1.24,0,1.86-1.68,4.64-5.1,6.49-9.92,6.71-5.66.25-11.31.33-17,.33-191.84.1-383.69,1.79-575.5-.39C1444.17,6.19,1237.39,8.27,1030.61,7c-5.91,0-12.3,1.13-16.58-4.79L895.84,2c-1.5-.64-1.5-1.3,0-2Z"/><path class="cls-3" d="M.1,170a29,29,0,0,1,13.78-1.32,26.13,26.13,0,0,0,12.81-.82,12.77,12.77,0,0,1,8.83,0c9.55,3.62,19.08,1.09,28.62.05.66-.07,1.56,0,1.92-.4,9.36-10,21-4.44,31.7-4.49a43.77,43.77,0,0,1,9.86,1.46c3.48.8,8.21,1.29,7.82,6-.38,4.58-5.16,4.36-8.65,5.06a15.75,15.75,0,0,1-3,.25c-28.68-.19-56.91,5.67-85.52,6.47-3.55.1-7.16.52-10.32,2.76,35.91-.11,71.43-7.35,107.35-6.05-7,4.12-71.73,10.89-115.21,13Z"/><path class="cls-5" d="M895.82,0c0,.66,0,1.31,0,2L585.9,2.06c-2.67,3.9-5.33,3.71-8,0L270,2.06a18.73,18.73,0,0,1-26,0L.1,2c.44-.61-1-2.08,1-2,2.66.09,5.33,0,8,0Z"/><path class="cls-7" d="M2285.85,3.9c-4.38-.56-9.7,1.87-12.46-3.88H2873.2c0,.71,0,1.43-.08,2.14a14.19,14.19,0,0,1-11.59,4.9c-4-.08-8,0-12,0q-245.66,0-491.32.1c-19.67,0-39.13-1.89-58.64-3.68C2295,3,2290.39,2.28,2285.85,3.9Z"/><path class="cls-8" d="M3295.07,0c0,.69,0,1.37-.05,2.05Q3095,2.06,2894.92,2c-6.63,0-13.34.57-19.72-2Z"/><path class="cls-9" d="M2285.85,3.9c4.1-1.66,8.42-1.85,12.77-1.85l574.5.11c.07,6.33.19,12.66.19,19q0,293.91-.06,587.82,0,289.92.13,579.83c0,7,.81,14-2.07,20.72-1.82-31-10.26-60.43-22.78-88.61-36.69-82.58-97.61-140-182.73-169.9-74.67-26.28-150-24.64-222.44,7.47-108.58,48.12-170.66,132.62-187.27,250.32-1.07,7.57-.89,15.31-1.87,22.9-1.08,8.4-3.12,10-11.74,10.4-3.65.19-7.32.11-11,.11q-289.86,0-579.72,0c-6,0-12-.26-18-.41-3.66-2.16-5-5.72-5.12-9.61-.15-3.65-.1-7.31-.1-11q0-289,0-577.95,0-310.46,0-620.93c0-19.3,0-19.3,19.51-19.3q297.38,0,594.76,0c13.21,0,11.52-1.4,11.52,11.86q0,295.47,0,590.94c0,15.44,0,15.45,15.23,15.17,2,0,4,.32,5.83-.87,29.56-1.41,58-8.23,85.58-18.52a300.59,300.59,0,0,0,108.65-69.46c49.37-49.38,80.13-108.67,89.1-178.18,11.92-92.22-11.92-174.75-72.58-245.28-49.37-57.4-112.32-92-187.43-103.74C2294.51,4.3,2290.16,4.24,2285.85,3.9Z"/><path class="cls-10" d="M2275.45,620.14a30,30,0,0,1-12.79,1.67c-6.23-.55-8.32-2.37-9-8.57a138.61,138.61,0,0,1-.33-14q0-285.47,0-570.92c0-4,.09-8-.08-12-.41-10.06-2.37-11.92-12.73-12.34-2-.08-4-.06-6-.06H1652.81c-18.47,0-19.1.62-19.1,19.11q0,286.46,0,572.92v629.81c0,5.33.06,10.66.09,16-3.66.08-7.32.25-11,.25l-607,0c-1.64-1.45-3.59-2.81-3.74-5.19-.95-15.11-4.87-30.49,3.7-44.82q0-33,0-66a30.5,30.5,0,0,1-5-17.66q.21-74.2,0-148.42c0-7.28,2.13-13.59,5.07-19.91V886c-4.75-7.67-5.13-16.13-5-24.86.25-20.88,0-41.77.08-62.66,0-5.48.3-10.67,4.89-14.51l0-104c-4.5-5.5-5.56-12.06-4.82-18.75,5-44.74,3.91-89.65,3.9-134.53,0-3.57,1-7.3-1-10.72h0c-4-2.92-4.84-7.1-4.89-11.75-.24-21.57,0-43.14-.11-64.71a14.37,14.37,0,0,1,4.94-11.56c2.17-18.66,3.3-37.32.07-56-4.09-2.85-4.87-7-4.91-11.65q-.23-22.33,0-44.68c0-4.61.82-8.8,4.93-11.63h0c2.15-14.46.84-29,.86-43.5,0-12.84,1.34-25.74-.85-38.54l0,0c-4.13-2.84-4.88-7-4.94-11.67-.22-16.25,0-32.49-.09-48.74,0-4.66,1.41-8.51,4.94-11.56a40.19,40.19,0,0,0,1.86-12.69q0-20.82,0-41.63a33.47,33.47,0,0,0-1.8-11.69c-4.06-2.86-4.88-7-4.92-11.64q-.27-28.32,0-56.63c0-4.63.83-8.82,4.88-11.71.08-.6.17-1.19.25-1.79q98,0,195.89-.09l1043.43-.26c2.56,6.38,2,13.1,2,19.74q0,247.2,0,494.42,0,42,0,83.9c0,3.33-.1,6.68.2,10,.65,7.25,2.68,9.26,9.9,9.91C2268.78,620.13,2272.12,620.05,2275.45,620.14Z"/><path class="cls-2" d="M1634.47,1476c209.85-3.76,389.49,173.76,387.58,390.53-1.82,207.29-174.45,385.07-390.22,383.93-206.33-1.08-391-173.95-384.38-400.55C1253.44,1646.52,1424.61,1472.88,1634.47,1476Z"/><path class="cls-9" d="M3171.14,1646q0,78,0,156c4.09,3.26,4.91,7.81,4.92,12.66q.09,75.35,0,150.7c0,4.86-.83,9.4-5,12.65v78q-.1,47.45-.22,94.88c-.05,16.63-.82,17.43-17.56,17.43q-197.19,0-394.38-.08-103.85,0-207.68-.18,0-122.3-.1-244.6,0-177.71,0-355.42c0-6.65.42-13.3.65-19.94-.08-4.4,3.32-4.39,6.23-4.75a104.06,104.06,0,0,1,13-.33q127.92,0,255.84,0a125.81,125.81,0,0,1,34.39,5.09c21.62.06,43.24.18,64.87.19q112.77,0,225.55,0c18.75,0,19.15.43,19.2,18.86Q3171,1606.59,3171.14,1646Z"/><path class="cls-2" d="M2861.29,1548.08c-2.66.09-5.32.26-8,.26q-147.24,0-294.49,0c-2.32,0-4.65-.17-7-.26-2.63,4.54-2.56,9.57-2.57,14.58q0,29,0,58c0,3,0,6-.27,9-.32,4.2-2,6.27-6.92,6.48-9,.38-16.75-.89-23.78-7.4-6.72-6.22-16.24-5.75-24.66-6.8a96.87,96.87,0,0,1-37.65-12.36c-9.48-5.54-19.4-10.34-29.07-15.56-4-2.17-8.09-3-12.5-1.62-8.64,2.65-16.44.79-23.63-4.39s-14.25-9.92-23.63-9.39a8.72,8.72,0,0,1-4.67-1.6c-10.78-6.76-20.71-14.6-29-24.31-3.87-4.53-3.38-7.8.86-12.31,3-3.22,6.89-5.18,10.72-7.23,21.15-11.38,44.41-16.14,67.52-21.07,31-6.61,62.54-9.68,93.87-14.1,14.85-2.1,29.7-4.14,44.38-7.29,23.17-5,35.34-17.88,38.6-41.15.79-5.6,1.89-11.29,1.66-16.88-.9-21.61,3.63-42.51,8.68-63.17,2.81-11.52,8.48-22.35,12.95-33.46,1-2.43,3-4.46,2.89-8-9.4-3.14-19-6.43-28.66-9.5a10.07,10.07,0,0,0-4.92.21,48.72,48.72,0,0,1-29.41-2.41,18.53,18.53,0,0,0-8.83-1.35c-17.89,1.86-35.17-1.75-52.33-6-7.92-2-15.6-3-23.59-.41-6.53,2.08-13.21,1.31-19.75-.39-11.63-3-23.23-5.45-35.48-4.63-7.63.51-15-2-22.16-5.21-12.12-5.48-24.17-11.29-37.72-12.65-3.17-.32-7.88-.62-7.78-4.61s5-3.7,8-4.17c10.21-1.54,20.6-1.74,30.86-2.19,24-1.06,47.83-3.29,71.74-4.92,40.18-2.73,80.47-4.76,120.05-13.2,7.33-1.56,14.11-3.77,19.5-9.29,3.7-3.79,8.46-5.17,13.65-5.18q37.48,0,75,0a22.61,22.61,0,0,1,11.44,3.06q13,7.42,26.16,14.64c8.47,4.63,16.93,9.18,26.34,11.88a155.52,155.52,0,0,1,20.49,8c26.17,11.73,53.15,21.42,79.67,32.25,3.69,1.51,7.28,3.29,10.84,5.1,1.47.74,3.09,1.83,2.54,3.83-.5,1.83-2.34,2.37-4,2.53-9.61.92-19.14,2.67-28.84,2.63a661.4,661.4,0,0,0-121.23,11c-25.31,4.59-43.93,21.3-52,46.24-4.49,13.87-2.89,29-.2,43.58.55,2.93,1.8,5.74,2.31,8.68,1.55,8.83,6.66,14.93,13.91,19.84a485.06,485.06,0,0,0,49.83,29.55c40.31,20.8,82,38.54,124,55.49C2850.64,1542.62,2856.4,1544.42,2861.29,1548.08Z"/><path class="cls-4" d="M1015.76,1554.05l-596.57,0c-4.66,0-9.35.13-14-.29-6.44-.59-8.83-2.72-10.14-9.06a53.93,53.93,0,0,1-1-10.92q-.09-120.95,0-241.9c0-3.16-.48-6.52,2-10.09,2.83,3.64,2.73,7.4,3.35,10.82,7.18,39.77,20.78,77.18,41.86,111.66,11.15,18.23,24.79,34.56,39.69,50,21.69,22.45,45.65,41.69,72.93,57,33.84,18.95,69.73,31.69,108.21,36.38,87.08,10.64,166.14-9.22,235.16-64.34,62.21-49.68,100-114.08,113.38-192.66a202.4,202.4,0,0,0,3.24-29.79,31.59,31.59,0,0,1,1.94-10.76Q1015.77,1402,1015.76,1554.05Z"/><path class="cls-2" d="M2547.75,1792.85c2.36,2.8,1.45,6.25,1.46,9.41q.11,60.46,0,120.94c0,3.83,1.53,8.82-2.52,11s-7.28-1.92-10.62-3.84a26.64,26.64,0,0,1-4.85-3.51c-7.41-6.91-15.48-9.55-25.59-6-6.1,2.17-12.58.85-18.43-2.12a62.6,62.6,0,0,0-20-5.84,111.09,111.09,0,0,1-22.29-5.44c-11.65-4.19-24.22-4.21-36-8-9.23-3-18.51-5.7-27-10.39-19.23-10.62-39.13-20.07-57.25-32.65a34.51,34.51,0,0,0-22.68-6.11,81.7,81.7,0,0,1-10.95.14c-2.22-.15-5.27-.42-5.62-3.17-.39-3.07,2.77-3.31,4.89-3.83a73.41,73.41,0,0,1,8.86-1.47c24.14-2.8,48.37-4.54,72.6-6.42,27.21-2.11,54.28-5.91,81.46-8.51,18.61-1.78,36.83-5.85,55.32-8.21,15.3-2,26.91-9,35-22.07C2544.41,1795.24,2545.09,1793.1,2547.75,1792.85Z"/><path class="cls-10" d="M1137.72,1414c0-14.66-.13-29.31,0-44,.13-11.94,2-13.9,14.12-14q45-.19,89.9,0c11.58.06,13.68,2,13.74,13.29q.23,45.47,0,90.92c-.07,11.18-2.44,13.5-13.71,13.56q-45.43.26-90.89,0c-10.85-.06-13-2.21-13.11-12.9-.21-15.65-.06-31.31-.06-47Z"/><path class="cls-3" d="M2875.2,1242c3.08-5.52,8-7.71,14.09-7.82,5.65-.1,11.3-.17,17-.17q53.37,0,106.74,0c6.7,0,13.47-.16,18.16,6a131,131,0,0,1-25.72,2Q2940.32,1241.94,2875.2,1242Z"/><path class="cls-3" d="M3507,1234c0,2.66,0,5.33,0,8H3369.05l-4-2c3-5.62,8.35-5.92,13.75-5.94q26.32-.08,52.65-.06Z"/><path class="cls-3" d="M1015.72,1192q0,25,0,50l-2.07.07-13.89-.1c.07-10.3,0-20.57-1.55-30.79a41.11,41.11,0,0,1-.26-8.94c.46-7.26,1.81-8.65,8.91-9A34,34,0,0,0,1015.72,1192Z"/><path class="cls-4" d="M302,1862.07q0,158,0,315.88a119.43,119.43,0,0,1-.34,13c-.66,6.11-2.7,8-8.9,8.76a76.7,76.7,0,0,1-9,.29q-85.44,0-170.88,0c-17.89,0-18.77-.88-18.79-18.45,0-21.66-.1-43.32.05-65,.08-12.54,2-14.43,14.66-14.5,26-.13,52,0,77.94-.08,15.88,0,17.25-1.34,17.25-17q0-222.91,0-445.82c0-15.77-1.36-17.09-17.09-17.14-23.65-.06-47.3,0-70.95,0-3,0-6,.07-9-.13-8.91-.59-11.74-3.18-12.51-12.22-.49-5.63-.35-11.32-.36-17,0-18-.12-36,.07-54,.14-12.23,2.44-14.57,14.86-14.59q89.45-.16,178.88,0c11.93,0,14,2.1,14,14.1.13,40,.07,80,.08,120Z"/><path class="cls-3" d="M747.88,1242c-.49-5.63-1.29-11.25-1.4-16.89-.19-9.75,2.67-19.36,14.93-19.42a12.59,12.59,0,0,0,8.1-3.53c5-4.44,11-5.85,17.52-6,31.88-.86,63.76-1.79,95.64-2.62,7.73-.2,11.47,1.57,12.29,7.36,2,13.78,8.22,26.83,6.85,41.14Z"/><path class="cls-3" d="M522,1242c.06-5.31-.16-10.64.25-15.91.68-8.7,3.39-10.83,12.07-10.63,11.27.25,22.54.34,33.81.57,21.57.44,43-2.16,64.53-2.88,10-.33,12.12.76,14.17,10.79,1.26,6.15,1.39,12.59,5.07,18Z"/><path class="cls-3" d="M288,1242c1-13.47,3.09-15.68,16.06-15.91,11.6-.21,23.21-.33,34.81,0,19.6.51,39.05-1.61,58.52-3.09,14.4-1.09,17.78,1,20.13,15,.21,1.3.28,2.64.42,4Z"/><path class="cls-3" d="M56.08,1242c1.12-12.17,3.44-14.74,15.43-13.71,13.59,1.16,27.23,2.87,40.76,1.35,22.56-2.51,45.14-1.19,67.7-1.63,1.66,0,3.32,0,5,.06,11.53.48,13.44,2.26,15.1,13.93Z"/><path class="cls-9" d="M3183.69,783.77c65.75-2.29,131.45,48.32,143.37,123.44,6.29,39.62-1.54,76.42-24.43,109.34-51.72,74.39-148.54,82-211.26,29.14-71.88-60.53-71.16-177.78,9.56-235.85C3125.65,792.05,3153.45,782.76,3183.69,783.77Z"/><path class="cls-3" d="M2931.14,620c6-2.43,12.47-1.94,18.71-2.77,76.39-10.12,148.87-32.55,216.83-69.06a625.11,625.11,0,0,0,117-81.42,605.69,605.69,0,0,0,72.55-75.55,633.63,633.63,0,0,0,59.15-87.7A614.08,614.08,0,0,0,3473,161.22c5.67-21.26,10.06-42.8,13.79-64.48.62-3.6,1.49-7.15,2.25-10.72,4.22,5.3,5.12,11,3.67,17.76-7.58,35.14-15.08,70.21-26.91,104.34-7.66,22.09-17.57,43.12-26.31,64.7-5.27,13-13,24.75-19.82,36.91-17.59,31.4-37.45,61.31-60.81,88.85-6.41,7.56-13.75,14.42-19,23-2.59,4.28-6.94,7.12-11.1,9.93a88,88,0,0,0-23.9,23.83,50.51,50.51,0,0,1-15.54,15.26c-5.95,3.66-10.46,9.17-15.8,13.65-21.44,18-43.59,34.74-67.68,49.24-25.17,15.13-50.56,29.64-77.65,40.91-32.26,13.42-64.55,26.87-98.84,34.52a678.24,678.24,0,0,1-72.75,12.49c-2,.22-4.26-.08-5.88.81C2943.53,626.19,2937.25,624.22,2931.14,620Z"/><path class="cls-3" d="M3493,2.1h2c-.17,9.19.22,18.12,4,26.9,3.21,7.43,1.4,10.48-6,15Q3493,23.07,3493,2.1Z"/><path class="cls-3" d="M2899.16,622c9.16-3.2,18.67-1.57,28-2-4.52,7.5-6.47,8.44-13.94,5.53C2908.66,623.76,2904.15,622,2899.16,622Z"/><path class="cls-3" d="M3491,70c.14-6.72-.55-13.53,2-20,1,2,2,4.08,3,6.16C3499.34,63.61,3498.67,65.42,3491,70Z"/><path class="cls-3" d="M3489,86c0-5.42-.11-10.85,2-16,.79,2.17,1.65,4.31,2.37,6.5C3494.85,81,3493.49,84.24,3489,86Z"/><path class="cls-2" d="M154.08,678c-1.07-12.43-2.24-24.86-3.16-37.3-.51-6.87-.61-13.78-.89-20.67,1.52-54.16,13.29-105.92,36.59-154.92a309.26,309.26,0,0,1,24.14-41.22c4.49-6.58,8.83-13.26,13.25-19.9-.14-.47-.27-.95-.4-1.43a15.14,15.14,0,0,1-1.09-2.75c1.88-5.51,5.84-9.75,9.67-13.73,21.21-22,42.23-44.23,67.41-61.95,6.81-4.8,14-8,22.36-8.13,22.1-12.38,44.58-23.91,68.6-32.28a363.19,363.19,0,0,1,180.23-14.57A365.35,365.35,0,0,1,691.94,314a2.18,2.18,0,0,1,2.42-.57c2.12,1.43,4.47.43,6.71.61,26.22,14.54,48.22,34.24,68.62,55.93,2.27,2.41,3.27,4.89,2.15,8.07,14,16.79,27.46,34.05,40,52,5.25.48,8.06,4.2,10.36,8.22,13.44,23.45,25.44,47.53,32.87,73.69,1.1,3.89.1,6.84-1.21,10.08.66,3.94,1,8,2,11.8,7.57,29.2,10.29,58.83,10.21,89-.07,31.53-3.38,62.42-11.63,92.83a397.37,397.37,0,0,1-16.11,46.18c-1.63,4-3,8.12-4.48,12.18,4.54,6.46-.5,11.6-3,16.45a377.7,377.7,0,0,1-40,60.86c-7.07,8.91-15,16.9-23.05,24.9-3.94,3.94-8.27,7-14,7.78-26.79,23.45-55.62,43.92-87.57,59.8a278.62,278.62,0,0,1-34.78,14.68c-4.09,1.38-8.12,2.89-11.65,5.48-2.32,8.54-10.87,6-16.22,9-1.22.83-2.76-.08-4,.83a56.61,56.61,0,0,1-5.83.12c-1.29.09-2.44-.75-3.68-.83a3.79,3.79,0,0,1-2.19-1.09c-14.16,2.08-28.28,4.54-42.5,6.18-37.7,4.34-75.1,1.72-112.2-5.92-45.31-9.32-87-27.52-125-53.45a368.35,368.35,0,0,1-91.55-89.74c-30.76-42.67-49.49-90.28-60-141.46C156,684.39,154.94,681.21,154.08,678Z"/><path class="cls-3" d="M912.41,1098.68c-1.95,7.06-6.93,8.55-13.14,8.09-20.93-1.57-41.91-.6-62.86-.71-32.28-.18-64.56,0-96.84-.08-15.81,0-21.22-4.7-19.09-20.38,3.79-27.74-1.28-55-2.25-82.47-.38-10.64-.48-21.27-1.73-31.89-.94-8,1.92-10.77,10.41-11,13-.37,26,.42,38.93-.32,40.22-2.29,80.46-1.84,120.7-1.88h5c16.81.12,17.36.88,17.11,17.3a113,113,0,0,0,1.5,18.89c5.19,33.57,6.53,67.52,10.29,101.24,0,.33.11.66.12,1,0,2.85,2,6.71-1.43,8.12C915.28,1106.16,915.2,1101.08,912.41,1098.68Z"/><path class="cls-3" d="M171.52,1000.21c-14.15,3.57-28.59,3.78-43,5,2.77,3,5.71,1.56,8.5,1.31,11.94-1.08,23.93-.29,35.89-1.57,6.73-.73,9.75,2.19,11.06,10.11,2.23,13.45,4.26,27,5.64,40.52,2.19,21.51,3.84,43.07,5.61,64.62.68,8.41-1.3,10.9-9.72,11.63-23.19,2-46.33,4.86-69.67,4.12-18.69-.59-37.21,1.39-55.74,3.27a43.35,43.35,0,0,1-8,.34c-5.82-.49-8.39-2.74-9.45-8.46a55,55,0,0,1-.72-9.94c0-32.67-4.9-65-6.95-97.5a52.1,52.1,0,0,1-.35-6c.31-5.79,1.29-6.41,7-4.8,6.91,2,13.61.49,21.86-4.57a8.36,8.36,0,0,1,3.8-1.09c14.45-.87,28.82-6.27,43.38-.72a5.48,5.48,0,0,0,4.85-.29c10.56-6.48,22.68-4.17,34.05-5.86C156.81,999.34,164.23,1000.21,171.52,1000.21Z"/><path class="cls-3" d="M599.91,968,619.85,964c2.33-.16,4.65-.38,7-.45s4.79.34,5.6,3.11c.76,2.61-.61,4.54-2.6,6-1.6,1.14-3.37,2-6.53,3.95,11.16,1.77,12.59,9.07,13.16,17.49,1.59,23.57,3.54,47.12,5.52,70.67.81,9.61,2.08,19.19,3.12,28.79,1.22,11.29-1,14.66-12.4,15.81-18.87,1.89-37.8,3.12-56.7,4.72-10.61.89-21.2,2.06-31.81,2.9-10,.78-19.92,1.57-29.89,1.82-7.32.18-8.47-1.65-7.24-8.63a22.86,22.86,0,0,0,.45-6.93c-3.6-26.07-5.09-52.33-7.3-78.53a34.34,34.34,0,0,0-3.61-13.41c-2.71-5.14-3.19-10.86-3.64-16.48-.55-7,1.74-9.94,8.92-10.41,9-.59,17.91-1.34,26.87-2,20.24-1.56,40.49-3.1,60.83-2.35a41.69,41.69,0,0,0,10.19-.73c-4.56-1.63-9.34-2.66-11.83-7.24l2,0c.59-.73,1.4-1.25,2-2l6,0C598.5,969.28,599.31,968.76,599.91,968Z"/><path class="cls-3" d="M244,2l26,0c5.09,2,10.44,1.95,15.77,1.95q31,0,62,0c3,0,6-.08,9,.13,8.11.55,10,2.05,11.26,9.83a155.17,155.17,0,0,1,1.87,18.87c.55,18-.45,36,1.67,53.92,1.39,11.79-2.37,14.94-14.35,13.79-16.72-1.62-33.24,1.5-49.85,2.11-12,.44-23.92,1.34-35.91,1.34-20.33,0-40.65.11-61-.09-12.78-.12-15.59-3.24-16.38-16-1.14-18.61-2.57-37.2-3.7-55.81a145.77,145.77,0,0,1-.08-18c.45-7.18,2.69-9.48,10-9.81,9.31-.44,18.65-.23,28-.27C233.59,4,238.94,4.06,244,2Z"/><path class="cls-3" d="M305.83,998.61l-9.64-2.08c6-2.39,10.27-.91,14.27-1.3,19.53-1.86,39.1-3.23,58.73-3.53,6.3-.09,12.59-1,18.9-1.3,8.28-.35,10.62,1.66,11.88,9.91.7,4.61,1.72,9.26,1.62,13.88-.38,18.76,4.42,37,5.73,55.53,1.1,15.58,1.83,31.23,4.77,46.63.94,4.9-1.55,7.7-6.1,8.6a55.65,55.65,0,0,1-9.9,1c-19.95.32-39.91-.48-59.83,1.84a87,87,0,0,1-24.89-.86c-6.37-1.1-12.59.3-18.89.7-9.53.6-13.61-2.19-14-11.36-1.26-31.92-7.16-63.5-6.55-95.56.36-18.71,1.85-20.46,20.58-20.66,4.31,0,8.62,0,12.93,0Z"/><path class="cls-3" d="M20.39,842.31c0-7-.39-14,.11-21,.52-7.34,3.21-9.91,10.52-11,5.92-.9,11.91-2.07,17.84-2,21.66.45,43.18-2.69,64.81-2.29,11,.2,21.9-1.49,32.85-1.93,13.85-.56,17.43,1.73,19.66,15.47,2.66,16.39,4.28,33,5.61,49.56.76,9.6.91,19.25,1.84,28.87,1.06,11-2,14.5-13.1,15.57-23.5,2.27-47.07,3.83-70.67,4.32-15.3.32-30.48,3.12-45.84,2.08-2.65-.18-5.33,0-8-.19-8.2-.67-11.12-2.93-11.56-10.83C23.23,886.76,19.49,864.67,20.39,842.31Z"/><path class="cls-3" d="M707,155.35c-3.1-4.29-7.49-.49-10.51-2.9.46-2.89,3-2.2,4.58-2.23,36.24-.65,72.36-4.39,108.62-4.19,1.67,0,3.33,0,5,0,11.7.18,12.16.46,17.95,10.45,1.88-1.82,1-4.42,1.93-6.51.82-1.94,1.91-3.59,4.17-3.76a4.83,4.83,0,0,1,5.31,3.7c1.55,6.43,2.48,12.95,6.42,18.63.85,1.23-.06,3.86-.49,5.77-2.71,12.19-4.23,24,2.82,35.69,3.7,6.1-4,17.06-12,17.7-11.92.95-23.89,2.23-35.83,2.13-39.93-.33-79.77,2.67-119.68,2.86-7.25,0-10.05-1.58-10.75-8.73-1.41-14.59-.88-29.26-.35-43.89.21-5.85,3.86-8.77,9.41-10,9.19-2,18.47-2.13,27.81-2.15,5.89,0,11.87.65,18-.94-1.33-3.69-4.06-2.85-6.1-2.88-10.64-.18-21.29-.53-31.89,1.15-4.6.73-9.27,1.09-13.88-.09a3,3,0,0,1-2.57-2.65c-.1-1.54,1-2.44,2.26-3,5.42-2.22,11.16-1.26,16.77-1.62C698.36,157.71,703.14,159,707,155.35Z"/><path class="cls-3" d="M577.92,2l8,0c1.58,5.33-1.56,6-5.81,6.51C567.16,10.19,554.19,10,541.21,10c-5,0-10,0-15,.21-4,.2-8,.44-11.37,4C517,16.6,519.77,16,522.18,16c18.29-.35,36.62,1.24,54.85-1.32a16.6,16.6,0,0,1,3-.13c2.76.15,5.56.56,6.17,3.86s-1.73,4.69-4.52,5.48c-.63.18-1.22.48-3.06,1.23,5.08,1.58,10.06,1.36,12.83,5.6A31,31,0,0,1,596,42.76c2.23,13.46,4.33,26.94,6.15,40.46.88,6.52-1.17,9.12-8,10.1-7.56,1.1-15.21,1.85-22.84,2.22-34.89,1.73-69.78,3.37-104.73,2.39-10.18-.29-12.24-2.36-12.5-12.58-.31-12.3.21-24.64-1.69-36.87-.36-2.32-.49-5,1-6.78,5.05-5.9,4.42-13,4.87-19.92C459,10.6,462.07,7.47,473.4,6a235.77,235.77,0,0,1,32.85-2c18.64.18,37.28,0,55.92,0C567.5,4,572.84,4.05,577.92,2Z"/><path class="cls-3" d="M828.5,73.91c-1.76,3.11-.64,5.8-.84,8.39-.63,7.92-3,10.53-11,11.41a84.12,84.12,0,0,1-9,.29q-60.48,0-121,0C669.32,94,668,92.59,667.9,75.18c-.07-11,.35-22-1.44-32.93-.41-2.51-1.05-5.3,1.7-8.37C671.21,42.12,670,52.53,681.09,56c3.08-5.76,4.07-12.25,5-18.79,2-13.44,4.13-15.36,17.84-16.73a18.51,18.51,0,0,1,4-.22c31.94,3.86,63.84-2.22,95.78-.3,6,.36,12-.39,17.8,1.78,2.75,1,5.19-.19,7.8-.6,5.94-.92,8.65,1.1,10,6.94a4.22,4.22,0,0,1,.14,1c-.54,18,3.17,35.86,2,53.88-.24,3.72.26,9.19-5.34,9-4.91-.13-5.45-5.07-6.07-9.08C829.64,80.1,830.09,77.07,828.5,73.91Z"/><path class="cls-3" d="M360.51,192.13a33.09,33.09,0,0,0,4.34.82c15.58-.74,17,.57,17.1,16.52.05,6.33.19,12.69-.24,19-.5,7.36-3.09,9.95-10.46,11a80.15,80.15,0,0,1-11,.53q-64.47,0-128.93,0a74.36,74.36,0,0,1-12.93-.89c-6.75-1.21-9.25-3.92-10.07-10.55-1.29-10.58-2.44-21.18-3.39-31.8-.72-8,1.8-11,9.67-12.18a42,42,0,0,1,12,.27c12.95,1.74,25.85,1,38.86.18,22.58-1.37,45.14-3.69,67.82-3,8,.24,15.93,0,23.75-2.39,5.11-1.58,10.57-1.19,15.86-.48a5.47,5.47,0,0,1,5.08,5.34c.21,3.4-2.24,4.51-5,5.12C369.48,190.33,365.73,189.62,360.51,192.13Z"/><path class="cls-3" d="M1013.78,4l0,80c-31.62-1.33-63.14,2.51-94.75,2-3,0-6,0-9-.06-9.64-.31-12.07-2.66-10.26-12.29C901,67.43,900.66,62,898,56.3a19.35,19.35,0,0,1-1.8-7.71c-.33-13.23-.71-26.42,3.62-39.32,1.07-3.19,2.4-4.55,5.2-4.83,3.3-.33,6.64-.39,10-.4Q964.35,4,1013.78,4Z"/><path class="cls-3" d="M753.85,884c8.88-11.25,20.22-20.18,29.21-31.38,18-22.38,34.12-45.89,46.71-71.75,1.16-2.38,2.71-4.58,4.08-6.86,22.7.59,23.48,1.28,26.66,24.05.5,3.62,1,7.26,1.19,10.91.72,11.18,1.39,13,10.28,25.54,3.66-8.83-1.42-17.36.45-25.67,1.83-8.12.94-16.5,1.59-25.79,5.31,2.36,6.29,6.55,7.21,10.53,1.65,7.15,2.9,14.42,2.53,21.77-.34,6.64,2,12,7.44,15.31,4.72,2.88,5.7,7.13,6.15,11.81.72,7.62,1.2,15.26,1.78,22.89a16.13,16.13,0,0,1-2.68,10.44,7.82,7.82,0,0,1-2,2c-6.28-5-8,4.7-13.24,4a73.83,73.83,0,0,0-16.93.27c-31.82,3.33-63.87.21-95.68,3.57A30.46,30.46,0,0,1,753.85,884Z"/><path class="cls-3" d="M1015.74,940l0,186c-8.1-4.35-17.31-4.51-25.93-6.91-4.79-1.34-9.89-1.92-13-6.59-.35-.55-1-1.48-1.3-1.39-10.37,3.53-7.17-5.33-8-9.38-2.94-14-5.77-28-6.78-42.32-.23-3.24-1.48-6.5.27-10.24,2.43,1.55,2,4,2.54,6,1,3.69-1.39,9.09,5.21,10.09.58.09.87,3,1,4.56.76,6.94,1.38,13.89,2.18,20.83.25,2.16-.32,4.72,2.85,6.69-1.3-12-.7-23.57-3.07-35-2.83-13.63-6.64-27.57-4.49-41.31,1.61-10.36-1.58-18.44-4.88-27.4-3.09-8.39-3.41-17.59-4.24-26.53-.14-1.49-.42-3.35,2.41-4.53,2.36,7.48,1,15.71,4.94,22.76-.55-12.6-1.53-25.15,2.32-37.37,3.31-4.35,8-5.49,13.14-5.77a96,96,0,0,1,20.75.77C1006.79,943.84,1011.57,943.45,1015.74,940Z"/><path class="cls-3" d="M771.84,378c-12.32-10.11-22.58-22.42-35-32.45S711.67,326.05,697.89,318a11.19,11.19,0,0,0-4-4l-1.94,0c6-3.58,12.58-3.84,19.28-4,13.93-.26,27.95-1.16,41.78-.91,19,.34,37.47-4.63,56.4-3.15,7.6.6,15.29,0,22,4.78,2.5,1.77,5.79,1.24,8.75,1.48,5.78.46,9,3.67,10.3,9.15a64,64,0,0,1,1.36,13.86c.17,10-.22,19.93.74,29.89.79,8.07-.87,9.82-9.15,10.83-10.55,1.29-21.12,2.68-31.78,2C798.36,377.19,785.1,380,771.84,378Z"/><path class="cls-3" d="M1013.73,428l.06,88A467.09,467.09,0,0,0,950,518.93c-9.52,1.05-10.59.28-15-9-.26.13-.66.21-.75.42-1.22,2.86-.5,7.78-5,7.48-5.32-.36-5.13-5.45-5.23-9.3-.57-21-3.24-41.81-4.9-62.71-.66-8.39-.24-8.66,6.72-12.52a43,43,0,0,1,22-5.32C969.78,428.18,991.76,428,1013.73,428Z"/><path class="cls-3" d="M1013.75,150l.09,72c-30.25-.14-60.41,1.57-90.56,3.77-1.32.1-2.65.16-4,.18-12.95.23-14.79-1.81-15.55-14.64-1-16.25-2.63-32.45-3.65-48.69-.55-8.78.64-9.79,9-10.45a18.91,18.91,0,0,1,2-.07C945.38,153,979.51,148.76,1013.75,150Z"/><path class="cls-3" d="M457.94,205.57c3.79,4.41,2.65,9.66,5.33,14.09,4.17-3.86,4.2-8.53,4.62-13,1.21-13.28,4.06-16.38,17.27-16.46,39.88-.23,79.71-3.29,119.62-2.26,10.09.26,12.05,1.88,13,12.07.69,7.62,1.63,15.23,1.93,22.86.39,10-2.13,13-11.85,13-23.93.2-47.75,3-71.74,2.28-20.25-.61-40.43,2.79-60.76,2-16-.63-17.07-1.21-17.37-16.94C457.85,217.66,457.94,212.16,457.94,205.57Z"/><path class="cls-3" d="M1015.69,784q0,51,0,102c-4.44-3.57-9.71-4-15.1-4-10.63,0-21.26.14-31.88-.15s-13.24-2.94-14.91-13.36c-2-12.2-2.19-24.47-2.1-36.77,0-5.94,0-11.92-3.46-19.56-1.89,6.93.08,12-.64,16.9-.27,1.91,0,4.5-2.51,4.81-2.34.29-3.22-2-4-3.84a13.61,13.61,0,0,1-.93-3.86c-.86-10.59-2-21.17-2.38-31.78s2.57-13.41,13.27-14.24c13-1,25.88.87,38.73,2.4A184.42,184.42,0,0,0,1015.69,784Z"/><path class="cls-3" d="M1013.82,304.05q0,34,0,68c-26.45,3.78-53.12.87-79.64,2.55-.34,0-.67,0-1,0-15.51-.62-15.49-.76-18.11-16.09a170.29,170.29,0,0,0-5.75-24.23c-1.74-5.38-3.11-11-.58-16.55.9-2,1.3-4.87,4.37-4.71,2.39.12,2.91,2.37,3.75,4.17a31.64,31.64,0,0,0,2.14,3.22c8.31-9.28,19.13-11.27,30.62-12l-17.52-.77c18.36-.63,36-8.18,54.89-4.14C995.56,305.35,1004.85,304,1013.82,304.05Z"/><path class="cls-3" d="M1013.78,516c1.91,4.73,2,9.72,2,14.7q0,74.65-.08,149.3c-21.49-4.79-43.34-7.1-65.16-9.69-2-.24-4-.42-6-.69-4.94-.7-7.93-3.55-8.27-8.52-.83-12-1.71-23.9-2-35.87-.14-5.94,2.44-8.26,8.58-8.9,5.26-.54,10.6-.76,15.7,1,.65,3.74-4.17,1.76-4.16,4.81.72.35,1.57,1.17,2.38,1.12,5.64-.3,11.26-.94,16.9-1.18a183.48,183.48,0,0,1,27.91,1.23c8.81,1,11.43-1.59,12-10.42.26-3.65.15-7.33.15-11Q1013.79,559,1013.78,516Z"/><path class="cls-3" d="M322,316c-37.44,22.58-68.41,52.38-95.94,86-.69.64-1.35,1.3-2,2l0,0a10.11,10.11,0,0,1-5.61-8.84c-.39-9.62-1.52-19.35,1.31-28.74a53,53,0,0,0,1.42-23.67,80.61,80.61,0,0,1-.94-17.89c.56-7.86,2.59-10,10.27-10.62,4.3-.33,8.64-.2,13-.2q31.41,0,62.82,0C311.56,314,316.89,314,322,316Z"/><path class="cls-3" d="M853.83,522c-5.42-9.63-7.05-20.65-11.28-30.74A566,566,0,0,0,811.81,430c5.64-2.24,11.58-3,17.55-3.64,3.67-.36,7.53-.47,10.72,1.51,5.5,3.41,10.73,5.89,17.73,4.49,5.05-1,7.29,3.93,8.91,8,3.67,9.15,4.41,19,3.79,28.51-.66,10.07,1.14,19.82,1.52,29.72a6.78,6.78,0,0,0,.19,1C875.7,519.28,873.61,521.83,853.83,522Z"/><path class="cls-3" d="M177,989.59c-2.73,2.59-6.2,1.94-9.31,2.13-14.58.91-29.17,1.56-43.74,2.52-5,.32-10.11.53-14.77,2-20.86,6.77-42.69,5.29-64,8a31.22,31.22,0,0,1-6,.16c-2.94-.19-5.11-1.67-5.6-4.71-.58-3.54,1.32-5.91,4.55-6.67A88.21,88.21,0,0,1,50,991.35c17.12-1.6,34.43-3.21,51.45-2.81,22.94.54,45.71-.29,68.54-1.66C172.44,986.73,175.29,986.09,177,989.59Z"/><path class="cls-3" d="M730.55,11.41c-2.77-2.31-6.13-.61-7.95-3.41,1.83-2.71,4.73-1.77,7.18-1.9C739,5.59,748.38,7.49,757.61,5a8,8,0,0,1,5.77.9C770.61,10.52,778.62,10,786.6,10c8.27,0,16.55,0,24.86-.67-6.09-2.4-12.82-.1-19.34-2.62C802.27,1.85,814,3.21,829.9,11.41c-15.6-.37-30.7,3.95-46.15,4.43-24.94.77-49.93-.69-74.82,2.07-4.6.51-9.32.07-14-.22-2.62-.17-5.73-.5-6-4-.26-3.12,2.19-4.81,4.72-5.76A26.59,26.59,0,0,1,715,8.66C719.6,10.83,724.22,12.5,730.55,11.41Z"/><path class="cls-3" d="M589.34,176.6c6.65,0,13.3-.14,19.94.08,1.93.07,4.12,1,3.91,3.64-.16,1.87-1.83,2.69-3.52,3-2,.35-3.95.46-5.94.66-26.89,2.67-53.87,2.07-80.82,2A276.17,276.17,0,0,0,495,187.72c-5.62.55-11.33.64-16.82-1.2-1.27-.42-2.55-1.18-2.67-2.64-.18-2.13,1.52-2.75,3.17-3.14a15.09,15.09,0,0,1,3.94-.54c16,.46,31.83-3,47.86-2.19C550.16,179,569.72,176.62,589.34,176.6Z"/><path class="cls-3" d="M1013.81,222a34.28,34.28,0,0,1,1.9,12.7v56.64a34.29,34.29,0,0,1-1.91,12.7Q1013.8,263,1013.81,222Z"/><path class="cls-3" d="M831.9,6.68a4.91,4.91,0,0,1-1.78.22.81.81,0,0,1-.37-1.48,2.29,2.29,0,0,1,1.75-.27C832.29,5.36,832.39,6,831.9,6.68Z"/><path class="cls-2" d="M707.2,2060c15,0,30-.14,45,.05,11.44.14,13.55,2.15,13.61,13.49q.24,45.48,0,91c-.06,11.25-2.23,13.34-13.71,13.4q-43.95.22-87.92,0c-12-.06-14.1-2.09-14.18-14-.17-24,0-48-.11-71.95,0-6.66-.28-13.32-.66-20-.56-9.75.95-11.77,11.06-11.93,15.65-.24,31.3-.06,47-.06Z"/><path class="cls-1" d="M3171.11,1978q0-88,0-176c8.14,1.54,16.58,1.8,24.15,5.82a9.11,9.11,0,0,0,4.85.93c7.15-.67,12.93,2.28,18.43,6.34,7.06,5.22,15.21,6.36,23.7,6,1.32-.07,2.63-.47,3.95-.58,13.32-1.06,15.4,1.61,11.29,14.59-1,3.19-2.31,6.39-2,9.74,1.43,14.32-1.2,28.58-.53,42.9.78,16.73-1.48,33.27-4.12,49.71-2.74,17-12.23,28.26-29.52,32.56C3204.83,1974.08,3187.9,1975.52,3171.11,1978Z"/><path class="cls-10" d="M1689.48,932q0-117.48,0-235a108.73,108.73,0,0,1,.32-12c.68-6.09,2.71-8,8.92-8.72a89.88,89.88,0,0,1,10-.29h472.79c18.92,0,19.79.87,19.79,19.68q0,237,0,473.93c0,17.63-.78,18.38-18.83,18.38H1708.68c-18.51,0-19.19-.67-19.19-19.06Q1689.46,1050.53,1689.48,932Z"/><path class="cls-2" d="M1944.82,390.41c-44.84-.16-80.47-35.79-80.76-80.75-.27-43.79,37-81.24,80.85-81.28,44.89,0,81.88,36.53,81.54,81.37C2026.07,360,1984.61,392,1944.82,390.41Z"/><path class="cls-9" d="M1324.68,568.09q-117.92,0-235.84,0a111,111,0,0,1-12-.31c-6.11-.67-8-2.68-8.72-8.91a87.35,87.35,0,0,1-.29-10q0-236.42,0-472.82c0-19.08.85-20,19.5-20q237.33,0,474.67,0c18.63,0,19.48.88,19.48,20q0,236.41,0,472.82c0,18.6-.59,19.19-19,19.2Q1443.61,568.11,1324.68,568.09Z"/><path class="cls-2" d="M1323.58,958.05H1215.75c-3,0-6,0-9,0-13.3-.21-14.78-1.65-14.91-15.12-.07-7-.2-14,.26-21,.44-6.59,2.74-8.69,9.34-9.43a89.45,89.45,0,0,1,10-.29q113.32,0,226.65,0c18.84,0,19.41.62,19.43,19.86,0,5.66.17,11.34-.31,17-.52,6.17-2.6,8.06-8.81,8.72a91.93,91.93,0,0,1-10,.26Q1381,958.07,1323.58,958.05Z"/><path class="cls-1" d="M1634.43,2190c-171.47,2.91-328.35-136.3-327.93-327.65.41-184.26,144.79-327.83,328.43-327.76,184.48.06,327.3,145.39,328,327.23C1963.6,2046.83,1812.72,2192.81,1634.43,2190Z"/><path class="cls-1" d="M2605.37,1604c4.37-2.14,9.08-1.87,13.73-1.87q240.87,0,481.74.11a56.12,56.12,0,0,1,7,.26c6.25.78,8.1,2.57,8.81,8.78a76.77,76.77,0,0,1,.27,9q0,237.95,0,475.9c0,17.47-.67,18.13-17.88,18.15-34.32,0-68.64.17-102.95,0-123.92-.69-247.83,2.4-371.76,1.37-6.29-.06-12.69.72-18.77-1.76,3-4.35,7.38-4.92,12.22-4.92q87.94,0,175.89,0a58,58,0,0,1,10.19,1.38c1.29.33,0-1.32.19,0,0,.2-.1.26-.36.19-16.31-4.58-31.25-12.51-46.6-19.38-38.63-17.28-76.39-36.22-112.43-58.58-18.7-11.6-27.32-27.53-28.74-49.3-1-15.27-.17-30.52-1.38-45.77-1.26-15.92,5.64-23,19.86-30.49,38.09-20,79.49-23.59,121.07-26.09,39.51-2.38,78.89-6.53,118.42-8.47a29.69,29.69,0,0,0,8.54-1.4c-37.25-16.53-73.16-34.66-108.77-53.3-32.47-17-63.62-36.06-91.55-60.33-17-14.77-24.72-33.44-29.24-54.22-4.35-20-2.25-39.6,4.14-59,6.91-21,23.36-30.3,39.29-35.8-5.24,1.5-14,.44-22.68.5-18.32.15-36.64,0-55,.07C2613.54,1609,2608.62,1608.82,2605.37,1604Z"/><path class="cls-2" d="M2605.37,1604H2711.8l.24,1.93c-7.38,3.58-14.63,7.5-22.19,10.67-18.42,7.71-26.93,22.38-31.24,41.07-5.9,25.59-.91,49.72,8.52,73.23,5,12.42,15.95,20.35,25.82,28.73,26.32,22.34,56.08,39.53,86.56,55.34q52.34,27.15,105.8,52.12c3.51,1.63,7.41,2.9,10.47,7-8.13,3.06-16.07,3.61-23.8,3.59-22.4,0-44.37,4.56-66.66,5.56-17.29.78-34.61,1-51.86,2.7-26.86,2.59-53.77,4.76-80,11.47-10.71,2.73-21.05,6.32-30.55,12.1a44,44,0,0,1-7.19,3.45c-11.75,4.52-15.65,9.79-15.8,22.27a57.47,57.47,0,0,0,1.21,9.89c.49,3,1.44,5.95.68,8.9-3.35,13,.07,25.8,1,38.68,1.05,15,9.25,25.2,21.33,33.09,11.44,7.48,23.24,14.33,35.14,21,31.68,17.86,64.76,32.81,98,47.51,11.57,5.12,23.22,10.09,34.81,15.18,1.45.63,3.24.93,4.32,4.29-70.58.14-140.67,0-210.76.07-.21-5.32-.61-10.64-.61-16q0-239.47,0-479C2604.94,1614,2605.22,1609,2605.37,1604Z"/><path class="cls-3" d="M3184,976.13c-24.31.14-44.2-19.9-44.39-44.7-.18-24.11,20.38-45.06,44.31-45.16,24.21-.11,44.17,20.27,44.14,45.05C3228,956.33,3208.65,976,3184,976.13Z"/><path class="cls-3" d="M508.94,600H617.88c3,0,6,0,9,0,13.13.23,14.8,1.89,15,15.24.08,6.33.21,12.68-.23,19-.47,6.71-2.68,8.79-9.24,9.5a92.37,92.37,0,0,1-10,.26q-113.44,0-226.88,0c-18.95,0-19.46-.55-19.48-19.76,0-4.66-.15-9.35.21-14,.56-7.3,2.64-9.37,9.79-10,3.31-.31,6.66-.21,10-.21Z"/><path class="cls-4" d="M693.88,314l4,4Z"/><path class="cls-4" d="M599.91,968l-2,2Z"/><path class="cls-4" d="M591.92,970l-2,2Z"/><path class="cls-4" d="M224,404l2-2Z"/><path class="cls-4" d="M717.13,155.77c6.07-2.31,12.19-1.69,18.88-1.48C727.85,158.08,725.21,158.36,717.13,155.77Z"/><path class="cls-9" d="M1945.61,955.92H1833.82c-3.33,0-6.67.09-10-.19-7.4-.62-9.76-2.57-10.1-9.65-.42-8.63-.41-17.31,0-25.94.33-7.23,2.65-9.24,9.87-9.91,3-.28,6-.2,9-.2h225.59c18.89,0,19.32.47,19.33,19.83,0,5.66.16,11.34-.32,17-.52,6.15-2.61,8.09-8.79,8.79a97.83,97.83,0,0,1-11,.3Q2001.51,955.93,1945.61,955.92Z"/><path class="cls-9" d="M1945.41,842.05h110.8c3.32,0,6.66-.09,10,.12,8.5.53,10.78,2.51,11.12,10.76s.34,16.65-.06,24.95c-.35,7.2-2.63,9.18-9.92,9.84-3,.27-6,.19-9,.19q-112.78,0-225.58,0c-18.66,0-19.26-.61-19.29-18.86,0-5.65-.18-11.33.22-17,.51-7.2,2.68-9.21,9.94-9.85,3.31-.29,6.65-.19,10-.19Z"/><path class="cls-9" d="M1887.32,1022.1q-28.46,0-56.89,0a81.08,81.08,0,0,1-9-.42c-4.58-.53-7.43-3.31-7.57-7.86-.29-9-.48-18,0-26.93.31-6,2.73-7.86,9-8.6a68.49,68.49,0,0,1,8-.25q56.88,0,113.78,0h2c13.14.25,14.76,1.88,15,15.22.07,4.65.07,9.32,0,14-.23,13-2,14.77-15.35,14.85C1926.58,1022.18,1907,1022.1,1887.32,1022.1Z"/><path class="cls-9" d="M2035.76,1022.05c-10,0-19.94.19-29.9-.06-9.75-.25-11.89-2.33-12.25-11.7-.27-7-.27-14,0-20.94.36-8.53,2.46-11,10.68-11.12q31.39-.42,62.79,0c7.67.11,9.85,2.64,10.2,10.54.34,7.62.35,15.29,0,22.92s-2.72,9.9-10.62,10.17c-10.29.34-20.59.08-30.89.08Z"/><path class="cls-10" d="M1325,222.06h112.8c2.66,0,5.32-.05,8,.09,9.44.51,11.43,2.46,11.74,12.23.23,7,.24,14,0,21-.38,9.93-2.62,12-12.76,12.49-2.32.12-4.66.09-7,.09q-112.79,0-225.59,0c-19.63,0-20.29-.68-20.33-20.1,0-5.33-.16-10.67.24-16,.51-6.77,2.59-8.82,9.16-9.52a94.69,94.69,0,0,1,10-.25Q1268.07,222,1325,222.06Z"/><path class="cls-10" d="M1324.68,290h107.88c3,0,6,0,9,0,14.51.16,15.89,1.52,16,16.13,0,5.66.16,11.33-.14,17-.44,8.58-2.77,11.05-11.4,12.17a93.55,93.55,0,0,1-12,.56q-109.38,0-218.76,0a87.44,87.44,0,0,1-13.92-.9c-6.58-1.1-8.92-3.39-9.25-9.82a252.38,252.38,0,0,1,0-25.95c.32-6.22,2.55-8.17,8.69-8.86a98,98,0,0,1,11-.31Q1268.24,290,1324.68,290Z"/><path class="cls-10" d="M1266.24,402.1q-28.42,0-56.84,0c-3,0-6-.08-9-.31-5-.39-8.13-3.21-8.26-8.25q-.37-13.45,0-26.91c.13-5,3.15-7.9,8.21-8.29,3-.24,6-.32,9-.32q57.35,0,114.69,0c2,0,4,0,6,.09,9,.55,11.12,2.45,11.49,11.45.29,7,.29,14,0,21-.36,9-2.42,11.23-11.43,11.47-12,.31-23.94.13-35.9.15Z"/><path class="cls-10" d="M1415.36,402.05c-9.63,0-19.27.17-28.9-.05-10.29-.24-12.43-2.31-12.76-12.25-.23-7-.26-14,.09-20.92.39-7.9,2.55-10.46,10.2-10.57q31.88-.47,63.77,0c6.77.09,9.13,2.52,9.49,9.07a237.72,237.72,0,0,1,.06,24.9c-.35,7.07-2.74,9.37-10.07,9.62-10.61.36-21.25.09-31.88.09Z"/><path class="cls-10" d="M1611.67,1863.06q0-57.91,0-115.82c0-15.94,1.21-17.09,16.94-17.18,6,0,12-.17,18,.15,8.31.45,10.26,2.58,10.83,11.07.17,2.65.11,5.32.11,8q0,113.33,0,226.66c0,2,0,4,0,6-.39,11.36-2.42,13.56-13.42,13.91q-9.46.3-19,0c-10.72-.34-12.9-2.5-13.34-12.94-.18-4.32-.09-8.66-.09-13Q1611.66,1916.49,1611.67,1863.06Z"/><path class="cls-2" d="M3115.09,1721q0,25,0,49.92a63.84,63.84,0,0,1-.34,9c-.78,5.43-2.89,6.87-8.3,5.18-6.34-2-12.49-4.57-18.74-6.87-10.3-3.78-20.6-7.58-30.93-11.3-3.81-1.37-7.74-2.36-11.6-.25-5,2.74-9.77,1.4-14.29-1a116.41,116.41,0,0,0-30-10.67,43.7,43.7,0,0,1-11.21-4.14c-21.4-11.42-43.66-21.32-63.77-35.09-14.43-9.87-13.77-12.31,1.42-21.1,15.67-9.08,33-12.08,50.07-16.12,40.48-9.6,81.25-17.79,122.55-23.08,1.65-.21,3.3-.54,4.95-.61,6.84-.29,9.12,1.49,9.88,8.24a97.77,97.77,0,0,1,.29,11Q3115.13,1697.56,3115.09,1721Z"/><path class="cls-2" d="M3114.9,2014.35c0,7.32.36,14.66-.1,22-.46,7.45-3.81,10-11.23,9.06a51.33,51.33,0,0,1-8.66-2.25c-2.91-.89-5.94-1.93-8.73-.33-5.88,3.39-11.64,1.83-17.36-.06-6.63-2.18-13.29-4.38-19.72-7.09-21.53-9.06-44.56-13.54-66.27-22-9.3-3.64-18.75-6.9-27.56-11.66-2-1.07-4.78-2-4.55-4.73.27-3.33,3.48-3.83,6-4.2,7.57-1.13,15.16-2.45,22.78-2.74,12-.44,23.91-1.48,35.84-1.91,29.59-1,59.07-3.77,88.64-4.89,8.87-.33,10.61,1,11,9.9.29,7,.06,14,.06,21Z"/></svg>