<svg id="Layer_1" data-name="Layer 1" xmlns="http://www.w3.org/2000/svg" viewBox="0 0 3508 2482"><defs><style>.cls-1{fill:#4f4f4f;}.cls-2{fill:#242424;}.cls-3{fill:#2b2b2b;}.cls-4{fill:#474747;}.cls-5{fill:#464646;}.cls-6{fill:#3a3a3a;}.cls-7{fill:#343434;}.cls-8{fill:#393939;}.cls-9{fill:#333;}.cls-10{fill:#373737;}.cls-11{fill:#484848;}.cls-12{fill:#262626;}</style></defs><path class="cls-1" d="M3507.9,2292v188c-3.78,2-7.85.95-11.77.95q-814.93.08-1629.88.05H1250c-1.15,0-2.32,0-3.48-.11-5.29-2.57-5.23-7.49-5.39-12.34-.71-22,1.8-43.89,4.44-65.65,10.66-87.88,39.42-169.63,85-245.44a599.59,599.59,0,0,1,93.4-119.22c101.86-100.22,223.6-160.53,365.61-178.68,26.34-3.37,53-5.38,79.65-4,6.33-.77,12.67-.45,19-.45q274.82,0,549.64,0c5.67,0,11.34.18,17-.27,12.53-1,16.94-5.48,17.9-18.19.41-5.32.26-10.66.26-16V1261c0-6.66,0-13.33.29-20-.64-85.31,0-170.62-.4-255.93,0-9.63,4.85-15.47,11.66-20.72q70-54,140-108.1,76.74-59.23,153.48-118.49c38.49-29.75,77.23-59.16,115.45-89.25,14.44-11.36,14.57-16.31.2-27.43Q2838.4,578.3,2783,535.51c-57.21-44.2-114.19-88.7-171.46-132.82-39.32-30.29-78.24-61.11-117.87-91-7-5.3-14.42-8-23.27-6.61-3.94.63-8,.27-12,.27H1892.53c-6.32,0-12.57-.1-18.84-1.68-5.85-1.48-8.39-4.79-8.49-10.55-.17-9.66-.24-19.32,0-29,.17-5.53,2.82-8.4,8.47-8.6,4.66-.16,9.32-.17,14-.17q277.47,0,554.92,0c6.32,0,12.7.49,18.91-1.1,3.71-1,7.15-2.69,6.93-7.25-.19-3.95-3.33-5.55-6.68-6.45-6.21-1.66-12.58-1.16-18.9-1.16q-277.46,0-554.92,0c-22.89,0-22.75,0-22.93-23.11-.23-27.78.29-26.93,26.72-26.92q275,.1,549.92,0c6.32,0,12.69.46,18.93-.91,3.33-.73,6.82-1.95,6.79-6.11s-3.5-5.35-6.84-6.07c-5.91-1.29-12-.87-17.94-.87q-277.46,0-554.92,0c-22.61,0-22.69,0-22.61-22.4.1-29.76-2.68-27.57,27.43-27.58q274.46,0,548.92,0c5.66,0,11.35.31,17-.5,4-.58,8.7-1.22,8.9-6.29.2-5.22-4.55-6-8.5-6.6-5.61-.93-11.3-.59-17-.59q-277,0-553.92,0c-24,0-22.88.64-22.85-22.62,0-30-2.2-27.36,27.64-27.36q275-.07,549.92,0c6.32,0,12.7.51,18.91-1.13,3-.78,5.86-2.17,5.87-5.84s-2.88-5-5.86-5.86c-5.87-1.58-11.91-1.13-17.9-1.13q-277,0-553.92,0c-4.66,0-9.33.13-14-.25s-8.86-2.49-9.66-7.24a103.29,103.29,0,0,1,.21-33.79c.2-1.22,1.41-4.39,4.26-4.6q304.07-.34,608-.11c9,1.45,16.56,6.34,23.42,11.67,40.23,31.29,80.68,62.29,120.94,93.52q58.82,45.63,117.81,91.05,62.88,48.53,125.74,97.1,72,55.54,143.95,111.15c22.7,17.46,45.44,34.89,67.93,52.63a52.68,52.68,0,0,0,6.52,4.62c6.32,3.56,8.91,2.22,9.81-5.19a102,102,0,0,0,.21-12q0-213.42.05-426.86c0-6-1.31-12.58,4.49-17.21a9.05,9.05,0,0,1,3.53-.49q197.11,0,394.15.06c3.58,0,7.32-1,10.75.94V622.3c-4.64,5.9-11.56,6.41-18.07,6.84-79.77,5.32-155.17,26.83-226.41,62.49-48.36,24.21-93.18,54.06-133.35,90.55-3.94,3.58-8.05,6.94-13,9-4.79-3.84-8.73-3.31-13.77.67-61.13,48.31-123.06,95.6-184.7,143.26q-83.37,64.46-166.89,128.74c-61.9,47.86-124,95.5-185.65,143.66-12.26,9.58-24.31,19.4-38.46,29.22,9.32,3.83,17.38,2.88,25,3.78,89.4,10.54,172.47,39.4,249.45,85.81,52.88,31.88,99.09,71.92,141.09,117a58.81,58.81,0,0,1,8,11.1c3.28,5.77,7.4,10.67,14.67,11.44a18.24,18.24,0,0,1,1.39,2.8c.66,1.39,1.28,2.81,1.91,4.2,22,55.73,53.3,106,90.07,153,1,1.75,3,3.87,2.52,5.29-3.38,9.08,3.25,15.18,5.92,22.54a556.76,556.76,0,0,1,31,132.82c1.12,10.76.67,21.81.18,32.65-.27,6.06-.41,12,.24,16.31-3-42.67,3.31-86,14.44-128.77a22.72,22.72,0,0,1,5.66-10.4,3.91,3.91,0,0,1,2.86-1.7,7.87,7.87,0,0,1,3,1.26c45.69,40.36,95.57,74.4,150.89,100.36,61.76,29,126.38,47.65,194.26,54.89,7.61.82,15.17,2,22.86,2a18.67,18.67,0,0,1,14.9,6.9v236c-3.2,2.83-2.16,6.85-2.13,10.14q.17,26.86,0,53.72c0,3.28-1.07,7.31,2.13,10.13v48c-3.2,2.83-2.16,6.85-2.13,10.13q.17,26.87,0,53.73C3505.74,2285.13,3504.7,2289.15,3507.9,2292Z"/><path class="cls-2" d="M.24,2314V.41H1864.06l1,1.6a3.31,3.31,0,0,1-1.93,3c-8.25,2.31-16.71,2.47-25.21,2.47q-283.89-.06-567.78,0H46c-6.33,0-12.68-.31-19,.53C17.2,9.27,13,13.52,11.74,23.41c-.73,5.63-.49,11.31-.49,17q0,277.37.13,554.73c0,5.79-2.07,11.83,1.12,17.45.9.81,1.8,1.6,2.76,2.34,45.37,5.65,90.94,4.37,136.47,4.37q514.79,0,1029.58,0c17.26,0,34.06-5.83,51.5-4,4.87.52,9.87.1,13,5,2.36,4.36,1.3,9.11,1.3,13.7q.09,287,.06,574c0,10.64-.2,21.3,1.83,31.84.22,1.31.43,2.62.66,3.92,1.66,5.16,1.52,10.49,1.52,15.8q-.08,289.38,0,578.75c0,7.77-1.09,15.54.06,23.34-2.2,3.85-5.86,5-10,5.26-3.65.19-7.32.15-11,.15q-294.87,0-589.72,0c-4.67,0-9.33-.11-14-.22-112.85.48-225.7.11-338.55.2q-120.84.09-241.68,0c-4.66,0-9.32-.08-14,.11-16,.65-20.39,5.06-21,21.33-.17,4.32-.24,8.65-.4,13,.34,8.24.39,16.48.05,24.71.38,13.23.41,26.45,0,39.68q.49,12.21,0,24.42.64,19.79,0,39.57.48,12.21,0,24.42c.43,13.21.41,26.41,0,39.61q.48,13.17,0,26.33.6,19.82,0,39.61.49,12.21,0,24.42.64,19.78,0,39.58.48,12.24,0,24.47c.47,13.4.37,26.8,0,40.2a92.19,92.19,0,0,1-1.77,26.41C5.71,2319.47,3,2316.74.24,2314Z"/><path class="cls-2" d="M3116.26,786.61c8.14-6.87,16.24-13.77,24.41-20.59q97.9-81.74,220-118.63c48.07-14.62,97.28-21.89,147.24-25.09v58c-2.72,3.88-6.72,4.74-11.15,5.25-26.76,3-53.52,6.19-79.82,12.31-6.8,1.58-13.9,2.69-17.5,9.95-.94,2.17-2.08,4.37-2,6.69.8,19.33-4.93,38-4.74,57.44.58,58-.06,115.92.38,173.87.13,16.5,5.24,32.7,3.85,49.45-4.79,57.62-.88,115.36-1.92,173-.47,25.93,2.82,28.82,28.45,28.89,23.65.07,47.3,0,70.95,0,5.18,0,10.1.35,13.49,5v58c-3.43,4.74-8.43,5-13.65,5-25,0-49.95-.14-74.93,0-20.23.15-24,4-24.39,23.84-.24,13.4-1.16,27,0,40.15,1.06,11.75,3.32,23.6,1.24,35.06-6.13,33.73-2.26,67.63-3.12,101.43-.38,14.88,4.36,29.4,4.56,44.42.12,8.79,7.58,10.8,15.18,10.94,22,.42,44,0,65.92.09,5.33,0,10.67.27,16,.12,5.8-.15,10.28,1.7,13.19,6.85v58c-4.27,5.57-10.43,5-16.38,5q-94.84,0-189.69,0-66.89,0-133.74,0c-16.81-.92-33.65.14-50.49.21-7.07,0-8.89,3.56-4.61,8.68,10.29,12.34,20.47,24.84,32.32,35.8a567.55,567.55,0,0,0,118.3,89.54,548.21,548.21,0,0,0,204.32,67.82c9.89,1.23,19.89,1.47,29.72,3.44,4.11.82,7.63,2.11,10.25,5.44v58c-54.33-3.57-107.66-12.47-159.58-29.33a621,621,0,0,1-216.7-122.29c-2.52-2.17-5.13-4.23-7.7-6.35a19.28,19.28,0,0,0-2-1.84l-.09.07c-5.2.58-9.1-1.31-12.91-5.06-14.43-14.21-29-28.29-41.56-44.23-6.07-7.7-10.13-16.77-15.37-25.06-7.55-10.52-15.16-21-22.62-31.57-13.41-19-25.84-38.7-37.48-58.8-7.28-12.57-12.37-26.4-18.48-39.65-3.06-6.63-6.2-13.22-9.31-19.83-1.35-1-1-2.92-2.09-4.1l.11.06c-17.34-25.28-24.14-54.59-31.23-83.61A614.7,614.7,0,0,1,2914.5,1273c-7.26-143.22,30.9-273.1,112.26-390.72a576.38,576.38,0,0,1,75.68-88.76C3106.41,789.76,3110.49,786.63,3116.26,786.61Z"/><path class="cls-1" d="M3163.94,1586c4.32-.12,8.64-.35,12.95-.35q158.54,0,317.07,0c4.65,0,9.29.33,13.94.5v216a551.41,551.41,0,0,1-203.45-49.83,557.6,557.6,0,0,1-150.28-100.87c-4.36-4.09-8.37-8.56-12.55-12.85a19.24,19.24,0,0,1,.28-17.33c3.32-6.83,5.88-14,9-20.89C3153.83,1594.05,3157.91,1589.2,3163.94,1586Z"/><path class="cls-1" d="M3392,698.64a495.7,495.7,0,0,1,115.92-18.36v409.93c-3.21,2.73-5.87,1.47-8.78-.82-33.67-26.58-68.18-52.09-101.67-78.9-5.85-4.69-6.55-11-6.55-17.68q0-56.89,0-113.79,0-84.85.06-169.69C3391,705.78,3389.83,702,3392,698.64Z"/><path class="cls-1" d="M3507.9,1278.17v247.95c-2.06,1.62-4.48,1-6.74,1-34,0-67.91-.12-101.87.16-6.25,0-8.58-1.19-8.54-8.09.28-59.58.2-119.17.11-178.75,0-7.26,2.83-12.33,9-16.17,30.37-18.86,62.68-33.68,95.86-46.77C3500,1275.8,3504,1275.14,3507.9,1278.17Z"/><path class="cls-3" d="M.24,2314l6-2a13.89,13.89,0,0,1,11.55-5c2.66.08,5.31,0,8,0q286.35.06,572.68,0c7,0,13.87.06,20.79,1.91,5.67,1.52,7.76,4.62,7.84,10,.13,9.3.11,18.6,0,27.9-.07,6.37-3.07,9.67-9.52,9.94-4,.17-8,.2-12,.2H25.89c-6.32,0-12.67.26-18.86-1.44A8.39,8.39,0,0,1,.24,2352Z"/><path class="cls-3" d="M626.18,2481.94H6.24c-6.18-6.84-1.91-15.26-2.93-22.84a47.6,47.6,0,0,1,.87-18.19c5.67-4.45,12.31-3.95,18.8-3.95q108.87,0,217.76,0,184.78,0,369.59,0c20.8,0,21-.87,20.81,21.33-.07,6.93,1.08,14-2.29,20.62A27.55,27.55,0,0,1,626.18,2481.94Z"/><path class="cls-4" d="M3392,698.64c0,95.15.08,190.3-.21,285.45,0,11.37,3.58,18.92,13,25.85,26.29,19.24,51.7,39.68,77.4,59.71,8.65,6.74,17.13,13.7,25.69,20.56v112c-35.28.08-70.56.25-105.84.17-9.8,0-11.49-2-11.92-11.83-.1-2.33-.06-4.66-.06-7q-.09-234.13-.14-468.26C3389.93,709.68,3389,703.9,3392,698.64Z"/><path class="cls-4" d="M3507.9,1278.17a836.81,836.81,0,0,0-81.94,36.88c-8.89,4.63-17.21,10.13-25.82,15.17-5.38,3.15-8.1,7.69-8.1,13.91,0,56.94-.09,113.88.08,170.81,0,8.37,2.56,10.51,10.89,11,5,.29,10,.15,15,.15q45,0,89.91,0v2l-97.82,0c-3.32,0-6.66.08-10-.13-8.11-.51-9.57-2-10.11-10.34-.1-1.66-.09-3.32-.09-5q.09-118.76.2-237.53a51.88,51.88,0,0,1,.19-6c.73-6.21,2.5-8,8.82-8.61,3.3-.32,6.65-.21,10-.22q49.39-.07,98.81-.12Z"/><path class="cls-5" d="M1866,2480c6.33,0,12.65-.09,19-.09h1623c-.44.62,1,2.09-1,2-2.67-.08-5.33,0-8,0H1866.06C1864.57,2481.37,1864.54,2480.74,1866,2480Z"/><path class="cls-6" d="M2482,2.58c-1.67,0-3.33-.1-5-.1q-298.87,0-597.76,0c-3,0-6,.17-9,.27-1.33,1.15-2.75,1.75-4.43.7a2.42,2.42,0,0,1,.26-3H2486a2,2,0,0,1,.43,2.82C2484.76,4.25,2483.38,3.36,2482,2.58Z"/><path class="cls-7" d="M626.18,2481.94l.05-2a13.92,13.92,0,0,1,11.56-5c2.66.06,5.31,0,8,0q290.52,0,581,0c6.82,0,14.14-1.42,19.42,4.92l0,0c1.44.74,1.41,1.44-.06,2.09Z"/><path class="cls-8" d="M1246.12,2481.94l.06-2.08,591.8.08c9.33,0,18.66.06,28,.08q.06,1,.09,1.92Z"/><path class="cls-9" d="M2486.08,2.26c0-.61-.06-1.23-.08-1.85h613.94c1.49.69,1.46,1.29-.09,1.82l.18.32a14.76,14.76,0,0,1-11.64,4.87c-2.32-.09-4.65,0-7,0q-288.2,0-576.39-.12C2498.47,7.3,2490.91,9.46,2486.08,2.26Z"/><path class="cls-10" d="M3099.85,2.23l.09-1.82q200,0,400,.11c2.62,0,6.14-2,8,1.89H3118.8C3112.48,2.41,3106.17,2.29,3099.85,2.23Z"/><path class="cls-2" d="M6.36,2441.79l-.12,40.15c-3.31-.1-6.31,1.24-6.24-5,.47-41.65.24-83.32.24-125l6.16,0c8,7.37,3.78,16.93,4.6,25.58.35,13.59.37,27.18,0,40.77C10.3,2426.33,14.21,2435.22,6.36,2441.79Z"/><path class="cls-11" d="M3507.9,2170c-3.43-3.23-3.94-7.45-3.94-11.81q0-25.18,0-50.37c0-4.36.51-8.57,3.94-11.81Z"/><path class="cls-11" d="M3507.9,2292c-3.43-3.23-3.94-7.45-3.94-11.81q0-25.18,0-50.37c0-4.36.51-8.58,3.94-11.81Z"/><path class="cls-12" d="M1866.06.41l0,2a1.22,1.22,0,0,1-1.79.23c-.08-.75-.17-1.5-.25-2.26Z"/><path class="cls-4" d="M1864.31,2.67c.6-.06,1.19-.14,1.79-.23l4.13.27c0,9-.28,18,0,27,.32,9.88,2.73,12.08,12.78,12.56,4.32.2,8.66.1,13,.1H2454c4.67,0,9.36-.15,14,.24,7.65.64,10,3.68,9.93,12s-2.39,11-10.34,11.6c-4.31.33-8.66.19-13,.19l-560.94,0c-4.66,0-9.35-.15-14,.28-6.59.61-8.86,2.77-9.25,9.47a168.65,168.65,0,0,0,.06,21c.41,6.22,2.58,8.26,8.7,8.9a138.53,138.53,0,0,0,14,.34l560.94,0c4.66,0,9.35-.16,14,.24,7.58.65,9.94,3.74,9.83,12.06-.09,7.87-2.27,10.74-9.44,11.42-4.63.44-9.32.28-14,.28l-560.94,0c-4.67,0-9.36-.14-14,.29-6.29.59-8.65,2.55-9,8.56a225.44,225.44,0,0,0,0,23c.19,4.58,3.11,7.36,7.7,7.73s9.32.41,14,.42l562.93,0a125.13,125.13,0,0,1,14,.37c6.54.74,8.57,3.59,8.75,11,.2,8-1.94,11.41-8.55,12.21a118.16,118.16,0,0,1-14,.39q-280.47,0-560.94,0a138.5,138.5,0,0,0-15,.42c-6,.65-8.46,2.84-8.89,8.86a214.43,214.43,0,0,0-.09,22c.16,5,3.13,8,8.2,8.36,4.65.31,9.32.36,14,.36l561.94,0c4.67,0,9.36-.14,14,.3,6.59.62,8.63,2.86,9.21,9.53a43.44,43.44,0,0,1-.17,8c-.46,4.6-3.18,7.33-7.75,7.71s-9.32.42-14,.42l-561.94,0c-4.66,0-9.35-.15-14,.25-6.77.57-9.09,2.62-9.53,9.18a198.74,198.74,0,0,0,0,20c.18,5.42,3.46,8.39,8.62,9.51s10.6,1,15.93,1.05h148q203,0,406,0c9.63,0,19.35.78,28.6-3.16,3.86-1.65,7.14.27,10.13,2.58q23.33,18,46.6,36.09,35.09,27.32,70.14,54.68,27.21,21.13,54.55,42.14,46.68,36,93.34,72c29.47,22.86,58.78,45.94,88.24,68.81,23.15,18,46.44,35.78,69.66,53.66,1.58,1.21,3.24,2.36,4.7,3.71,3.05,2.81,3.09,5.76,0,8.53-1.74,1.54-3.63,2.93-5.48,4.35q-31.73,24.32-63.45,48.62-38.44,29.52-76.81,59.13c-29.51,22.82-58.89,45.81-88.42,68.6-26.11,20.14-52.4,40-78.5,60.19-26.36,20.34-52.57,40.88-78.88,61.3-10.27,8-20.16,16.54-31.06,23.52s-14.49,15.76-14.41,28.36c.43,67.32.21,134.64.19,202,0,15-.07,30-.12,45-3.09,3.52-7.12,4.89-11.64,4.82-3.65,0-7.31,0-11,0q-282.59,0-565.16,0c-8,0-16,.07-24,.36-200.1,3.78-400.22.61-600.33,1.58-6.85,0-14.47,2-19.55-5.13l0,.2c-2.27-3.72-1.07-7.82-1.07-11.71q-.11-298.77-.09-597.55c0-4,.59-8-.56-11.88,3.39-8.75,9.85-15.23,16.32-21.7q138.9-138.9,277.82-277.8,152-152,303.9-304c6.37-6.39,13-12,21.65-15Z"/><path class="cls-8" d="M6.36,2441.79,6.28,2418c2.65-3.61,6.36-4.86,10.68-4.94,5-.1,10-.1,15-.1q277.38,0,554.77,0c6.33,0,12.68.33,19-.53,9.6-1.32,14.54-6.5,14.37-14.77-.16-7.9-4.88-12.76-14-14.09-6.29-.91-12.64-.58-19-.58q-280.89,0-561.77-.07c-6.68,0-14.06,1.82-18.95-5.12q0-12.9,0-25.79,298.76,0,597.51,0c17.22,0,18.16-1,18.22-18,0-2,0-4,0-6-.28-12.35-2.77-15-15.34-15.73-5.32-.32-10.66-.22-16-.22H26.23c-6.66,0-13.32-.07-20-.1q.06-11.91.1-23.83c2.58-3.21,5.76-5.12,10-5.09,4.66,0,9.31-.06,14-.06q278.79,0,557.56,0c6.65,0,13.36.46,19.93-.88,8.19-1.67,12.54-6.92,12.22-14.57s-4.71-12.18-12.17-13.63c-6.58-1.28-13.27-.88-19.93-.88q-281.27,0-562.55-.08c-6.7,0-14.1,1.83-19.1-5v-23.84c2.67-3.12,5.84-5.07,10.15-5,4.66.06,9.31-.06,14-.06q278.78,0,557.56,0c6.65,0,13.34.39,19.93-.89,7.45-1.46,11.82-5.86,12.14-13.65s-4-12.88-12.24-14.55c-6.58-1.33-13.28-.88-19.94-.88q-281.26,0-562.55-.07c-6.67,0-14,1.81-19-5.09l-.09-23.8A13.75,13.75,0,0,1,17.71,2155c4.33.13,8.66,0,13,0q278.43,0,556.87,0c6.66,0,13.36.44,19.94-.83,8.3-1.6,12.64-6.68,12.55-14.32s-4.47-12.54-12.87-14.05c-6.59-1.19-13.29-.77-20-.77q-280.94,0-561.87-.07c-6.68,0-14.09,1.86-19-5.11l0-25.63a12,12,0,0,1,10-5.13c4.65,0,9.3-.07,14-.07H587c6.32,0,12.67.32,19-.56,9.23-1.29,14-6.16,14-14s-4.82-13-13.64-14.61c-6.26-1.14-12.62-.82-18.94-.82q-280.83,0-561.65-.05c-6.81,0-14.24,1.7-19.41-5l.08-23.81c2.58-3.21,5.76-5.12,10-5.09,4.66,0,9.31-.07,14-.07q278.76,0,557.53,0c6.66,0,13.36.45,19.93-.88,8.2-1.67,12.55-6.9,12.24-14.55s-4.7-12.19-12.15-13.65c-6.59-1.28-13.28-.88-19.93-.88q-281.27,0-562.54-.08c-6.71,0-14.11,1.81-19.14-5l0-23.83c2.65-3.13,5.82-5.08,10.13-5,4.65.05,9.31-.06,14-.06H588c6.65,0,13.34.39,19.93-.89,7.45-1.45,11.83-5.84,12.16-13.63s-4-12.9-12.23-14.56c-6.57-1.34-13.27-.89-19.93-.89q-281.26,0-562.55-.07c-6.68,0-14.06,1.81-19-5.08q0-11.91-.07-23.81c2.68-3.68,6.48-4.84,10.81-4.94,4.66-.11,9.32-.11,14-.11H585.41c6,0,12,.21,18-.3,12.1-1,16.36-5.35,17.56-17.47.6-6.08-.91-12.83,5.33-17.16q54.93-.06,109.84-.12,245.16,0,490.31,0c6.62,0,13.35.69,19.75-1.86,3-9.38,9.66-16.11,16.44-22.87q289.52-289.26,578.86-578.69c5.62-5.61,10.62-12.16,18.9-14.3,3.73-1,7.78-3.25,10.11,2.26.86,5,.56,10,.56,15q.06,289.54,0,579.07c0,6.84,1.48,14.21-5,19.48-64.06.62-126.82,9.72-187.93,29.21a618.44,618.44,0,0,0-174.2,87.88c-27.93,20.09-54.3,42.1-78.27,66.71-93.72,96.22-152,210.47-172.57,343.46-4.73,30.62-7.65,61.49-6.9,92.58l-620,0c-.06-9,.11-18-.27-27-.35-8.33-2.59-10.37-11-10.87-4.31-.25-8.66-.14-13-.14H25.35C19,2441.92,12.69,2441.84,6.36,2441.79Z"/><path class="cls-2" d="M1866.08,1860q0-213.9-.06-427.79,0-93.95-.06-187.9-2.09-1.18,0-2.45c5.44-2.13,11.16-1.6,16.79-1.6q172.77,0,345.53,0l249.65.05c.13,10.33.37,20.65.38,31q0,284.36,0,568.71c0,20.21,0,20.22-20.44,20.23H1880.07C1875.4,1860.3,1870.74,1860.13,1866.08,1860Z"/><path class="cls-4" d="M2486.08,2.26c6.65.05,13.31.15,20,.15h575c6.32,0,12.65.09,19,.13q0,227.43-.11,454.85c0,4.33.15,8.68-.16,13-.56,7.89-2.82,9.07-9.18,4.26-16.46-12.47-32.71-25.22-49-37.85q-50.61-39.1-101.22-78.21c-28.44-22-56.8-44.15-85.27-66.13q-49.44-38.16-99-76.16c-24.79-19.12-49.44-38.42-74.22-57.55q-51-39.39-102.09-78.66-38.36-29.62-76.48-59.52c-7.3-5.74-15.78-10.12-21.29-18Z"/><path class="cls-4" d="M3116.26,786.61c-13.82,14.88-28.72,28.68-42.14,44-73.44,83.72-121.55,179.94-143.58,289.15a598.16,598.16,0,0,0-12.17,122c.43,74.92,13.46,147.7,39.88,218,1.52,4,2.6,8.23,3.88,12.36-6.81-4.53-11.08-11.49-16.33-17.45a645.63,645.63,0,0,0-80-76.62c-81.9-65.87-174.42-108.31-278-126.57-19.7-3.48-39.42-6.57-59.43-7.57-3.57-.18-8.6.38-9.92-3.18-1.52-4.08,3.6-5.91,6.23-8,21.48-16.86,43.15-33.47,64.77-50.14q52.64-40.54,105.26-81.07c32.38-25.07,64.58-50.38,97-75.44,26.08-20.16,52.39-40,78.49-60.16,25.31-19.52,50.45-39.27,75.75-58.81,33.2-25.65,66.52-51.14,99.72-76.79q26.47-20.46,52.71-41.23C3104,784.65,3109.46,781.31,3116.26,786.61Z"/><path class="cls-4" d="M2788,2292H2500c-4,0-8,.13-12-.23-7.15-.63-9.62-2.74-9.75-10q-.48-27,0-54c.13-6.7,2.65-8.79,9.22-9.5a92.37,92.37,0,0,1,10-.26h580.89c19,0,19.49.57,19.51,19.75,0,13.66.14,27.33-.08,41-.17,10.81-2.29,12.8-12.93,13.2-3.67.13-7.34.06-11,.06Z"/><path class="cls-4" d="M2789,2096q143.46,0,286.94,0a119.43,119.43,0,0,1,13,.34c6.1.66,8.55,2.71,8.67,8.91q.55,27.46.07,55c-.12,6.69-2.66,8.79-9.22,9.5a89.88,89.88,0,0,1-10,.27H2497.55c-19,0-19.5-.57-19.52-19.75,0-13.66-.14-27.32.08-41,.18-10.84,2.27-12.81,12.93-13.2,3.66-.13,7.33-.06,11-.06Z"/><path class="cls-4" d="M3052,1626c15.37,17.27,29.87,35.32,46.44,51.5q11.68,11.43,23.4,22.85a36.73,36.73,0,0,0-4,10.2c-8,34-13.91,68.41-16.14,103.39-.85,13.22-2.09,26.43-3.09,39.75-.81-9.32-2-18.62-2.38-28-2.6-66.53-17.61-130.33-41.73-192.17C3053.58,1631.06,3052.84,1628.49,3052,1626Z"/><path class="cls-4" d="M2962,1472l2.09,4.1Z"/><path class="cls-4" d="M3121.93,1700.25l2,1.84Z"/><path class="cls-12" d="M1864.22,2.56c-3.12,3.45-6.09,7-9.38,10.34Q1556,311.76,1257.14,610.56c-2.82,2.83-5.82,5.47-8.74,8.2-4.89.93-6.48-2.46-7-6.07-.63-4.26-.27-8.64-.27-13q0-281.88-.07-563.76c0-4.83,2.37-11.92-2.14-14-5.54-2.51-8.66,4.69-12.18,8.2C1120.38,136.36,1014.94,243.46,907.6,348.61,821.43,433,736.83,519,651.07,603.75c-2.74,2.71-8.1,5.37-6.59,9.13,1.8,4.49,7.67,2.34,11.74,2.34q284.4.13,568.81.09c4.32,0,8.67-.35,13,.32,3.72.58,7.55,1.27,6.12,6.67q-610.14,0-1220.27-.07c-5.89,0-12,1.42-17.6-1.93,6.9-4.68,14.67-5,22.68-5q280.35.09,560.71,0c28.88,0,29.55-.67,29.55-29.77q0-277.33,0-554.66c0-3.93.73-8-1-12.33-4.18,1.07-6.36,4.59-9,7.26-83.41,83.36-166,167.59-250.41,249.92C246.82,384.79,137.55,496.46,26.45,606.29c-5.71,5.63-11,12.21-20.19,12q0-297.93,0-595.86a93.4,93.4,0,0,1,.34-11c.72-6.1,2.72-8,8.92-8.75a85.05,85.05,0,0,1,10-.3H1853.22C1856.89,2.42,1860.56,2.51,1864.22,2.56Z"/><path class="cls-3" d="M484.18,961.2q0-111,0-221.92c0-18.23.36-18.89,17.77-22.88a546.7,546.7,0,0,1,117.81-14.31c36.12-.33,71.9,2.1,107.4,8.69a517.27,517.27,0,0,1,131.71,42.86c8.4,4.07,16.66,8.41,25,12.57,5.29,2.63,8,6.83,8.09,12.73.06,3.67.17,7.33.17,11q0,196.92,0,393.85c0,20.19-.23,20.41-20.88,20.41H504.38c-19.82,0-20.19-.38-20.2-20.08Q484.17,1072.66,484.18,961.2Z"/><path class="cls-3" d="M1244.11,622.3c-6.73-2.65-13.79-2-20.76-2q-264.4,0-528.82,0c-17.66,0-35.32.06-53-.07-3.17,0-7.59,1.35-9.07-2.2s2.7-5.64,4.92-7.86c81.71-81.8,162.66-164.39,245.44-245.09C1000.45,250.4,1115.29,133,1232.12,17.51c3.45-3.42,6.82-10.32,11.18-8.67,5.42,2.05,2.72,9.43,2.72,14.45q.18,287.37.12,574.74c0,7-.61,14.05,2.26,20.73-2.5,5-2.26,10.35-2.26,15.67q0,48.48,0,97,0,245.4,0,490.79c0,6.67.07,13.33.12,20-2.72-6.35-2.1-13.08-2.1-19.7q0-231.69,0-463.36Q1244.13,690.71,1244.11,622.3Z"/><path class="cls-3" d="M1865.91,1241.9c0,.81,0,1.63,0,2.45-6,2-9.76,6.82-14,11q-118,117.9-236,235.84-178.73,178.65-357.46,357.3c-4,4-8.26,7.73-12.39,11.59q0-304.58,0-609.14c0-3,.09-6,.13-9q22.5,0,45,0h554.67C1852.58,1242,1859.25,1241.94,1865.91,1241.9Z"/><path class="cls-3" d="M6.26,618.32c4.4-4.07,8.93-8,13.17-12.24,101.6-101.54,202.33-204,305-304.42,96.47-94.41,191-190.69,287.12-285.45,3.08-3,5.64-9.46,10.64-7.15,3.85,1.78,2,7.91,2,12.11q.09,260.45,0,520.88,0,30,0,60a76.94,76.94,0,0,1-.29,9c-.75,6.2-2.65,8.23-8.74,8.93a106.32,106.32,0,0,1-12,.34H6.24C6.25,619.64,6.26,619,6.26,618.32Z"/><path class="cls-3" d="M913.6,1260.19h231.91c4,0,8-.12,12,.18,8.15.62,10.65,3.26,10.22,11.45-.48,9.31-1.27,18.61-2.3,27.87-5.25,47.25-15.78,93.24-33.38,137.5a644.9,644.9,0,0,1-32.22,68.72c-4.92,9.11-11.68,12.37-21.79,12.32-60-.27-120-.12-179.93-.12q-109.46,0-218.92,0a106.32,106.32,0,0,1-12-.34c-6.1-.7-8-2.72-8.72-8.93a74.82,74.82,0,0,1-.29-9q0-110.44,0-220.89c0-17.86.87-18.75,18.5-18.75Q795.15,1260.16,913.6,1260.19Z"/><path class="cls-3" d="M428.2,1502.85q0,111.92,0,223.83c0,16.65-1.1,17.65-16,10.89-46.9-21.28-91.25-46.78-130.43-80.61-13.6-11.75-27.53-23.17-39.86-36.28-35-37.28-65.85-77.52-90.09-122.87a544.53,544.53,0,0,1-60.88-194.25c-1.14-9.58-2.15-19.21-2.52-28.84-.45-11.9,1.94-14.13,13.56-14.49,2.33-.07,4.66,0,7,0H407.76c20.23,0,20.43.22,20.44,20.82Q428.22,1391.94,428.2,1502.85Z"/><path class="cls-3" d="M428.2,972.16q0,106.42,0,212.86c0,18.46-.71,19.17-19.08,19.17q-151.42,0-302.83,0c-17,0-17.56-.28-15.88-17.58a516.92,516.92,0,0,1,28.71-127.36c15.35-42.1,35-82.11,60.32-119.17,14.08-20.63,29.78-40,46.28-58.84,21.18-24.19,45.06-45.27,69.79-65.56C317,798.06,340.62,783.8,364.63,770a466.41,466.41,0,0,1,50.15-24.72c11.4-4.84,13.35-3.6,13.37,9q.11,108.93,0,217.86Z"/><path class="cls-3" d="M769.11,1574.09H1030c2.33,0,4.68-.18,7,0,4.13.4,9.86-1.73,11.71,3,1.69,4.33-3.08,7.68-5.81,10.86-34.26,39.85-72,76.07-116.14,104.73-70.63,45.81-147.48,75.29-231.42,85.5a587.54,587.54,0,0,1-94.76,3.54,439.36,439.36,0,0,1-75.28-9.48c-9.44-2-19.08-3-28.34-6-10.92-3.51-12.63-5.28-12.72-17-.16-22-.07-44-.07-66q0-45,0-90c0-3-.07-6,.2-9,.67-7.28,2.69-9.4,9.84-10,4-.35,8-.23,12-.23Z"/><path class="cls-3" d="M948.14,1005.92q0-89.42.07-178.84c0-5.15-2.39-12.39,2.47-14.91,5.66-2.92,10,3.89,14,7.25,20.55,16.91,40.25,34.65,58.43,54.27a547,547,0,0,1,72,96.73c31.95,54.92,53.88,113.62,64.69,176.33,2.15,12.46,3.79,25,5.52,37.55a50.23,50.23,0,0,1,.48,10c-.41,6.68-2.52,8.88-9,9.66a76.84,76.84,0,0,1-9,.28q-90.43,0-180.85,0c-17.9,0-18.81-.89-18.82-18.43Q948.11,1095.84,948.14,1005.92Z"/><path class="cls-3" d="M57.53,1418.13c66,193.38,195,322.9,385.71,391.72-1.22,3.07-3.91,2-5.95,2.11-3,.24-6,.1-9,.1H78.46a127.62,127.62,0,0,1-13-.32c-6.2-.64-8.16-2.63-8.91-8.74a82.94,82.94,0,0,1-.32-10q0-181.4,0-362.79C56.27,1426.67,55.78,1423,57.53,1418.13Z"/><path class="cls-3" d="M445.67,674.12c-92.79,30.75-173.07,80.15-241.3,149S87.91,972.82,58.14,1066c-2.58-4.29-1.86-7.66-1.86-10.84q-.06-182.85,0-365.68c0-15.84,1.35-17.21,17-17.21q181.37,0,362.72,0C438.83,672.32,441.86,671.63,445.67,674.12Z"/><path class="cls-3" d="M1194.21,1430.17c2.58,4.42,1.87,7.79,1.88,11q.06,177,0,353.9c0,.33,0,.66,0,1-.18,14.36-1.66,16-16.26,16q-163,.07-325.94,0-19,0-38-.1c-1.52,0-3.36.4-4.78-2.42a607.49,607.49,0,0,0,126.58-58.47,613.87,613.87,0,0,0,110.09-85.89c33.1-32.61,61-69.5,86.35-108.45C1159.73,1517.52,1177.1,1474.54,1194.21,1430.17Z"/><path class="cls-3" d="M1194.16,1052.93C1126,866.69,998.72,740,810.84,673.84c3.77-2.24,7.14-1.52,10.34-1.52q179-.08,357.94,0h1c14.37.19,16,1.67,16,16.26q.08,167,0,333.91,0,13.5-.13,27C1196,1050.69,1196.08,1052.13,1194.16,1052.93Z"/><path class="cls-3" d="M602.19,1390.15q0,53,0,106c0,2.33,0,4.66,0,7-.25,13.11-1.93,14.92-15.25,15-29.32.11-58.65,0-88,0-2,0-4-.12-6-.29-5-.44-8-3.14-8.41-8.21-.27-3-.35-6-.35-9q0-111.45,0-222.91c0-16.29,1.22-17.46,17.75-17.49q41.49-.08,83,0a64.3,64.3,0,0,1,8,.28c6.21.77,8.21,2.65,8.94,8.74a93.34,93.34,0,0,1,.33,11Q602.21,1335.17,602.19,1390.15Z"/><path class="cls-3" d="M626.27,1862.12c0,8,0,16-.09,24-.15,14.34-1.58,15.72-16.31,15.87-3.67,0-7.33,0-11,0H26.26c-6.66,0-13.33.07-20,.11,0-9.67-.2-19.34.16-29,.31-8.3,2.64-10.31,11-10.93,2-.14,4-.11,6-.11Z"/><path class="cls-3" d="M6.29,1990q134.42.06,268.84.11H605.92c19.94,0,20.28.35,20.24,20,0,4,0,8-.41,12-.43,4.59-3.21,7.3-7.79,7.65s-9.32.39-14,.39l-577.65,0c-6.66,0-13.33.07-20,.11Z"/><path class="cls-3" d="M6.3,2247.91q50,.06,99.93.1,248.85,0,497.69,0c4.33,0,8.68-.13,13,.3,6.24.61,8.49,2.57,8.88,8.67a173,173,0,0,1,0,22c-.39,6.12-2.64,8.13-8.84,8.73-4.62.45-9.31.31-14,.31l-576.64,0c-6.66,0-13.33.07-20,.11Q6.34,2268,6.3,2247.91Z"/><path class="cls-3" d="M6.36,2183.85c6.33,0,12.65.12,19,.12L603,2184c4.67,0,9.36-.14,14,.31,6.2.59,8.45,2.6,8.84,8.73a172.86,172.86,0,0,1,0,21.95c-.39,6.1-2.64,8.08-8.88,8.67-4.63.44-9.32.3-14,.3l-577.63,0c-6.33,0-12.66.06-19,.1Z"/><path class="cls-3" d="M6.37,2119.84c6.33,0,12.66.12,19,.12H603c4.66,0,9.35-.13,14,.32,6.18.6,8.44,2.63,8.83,8.75a171,171,0,0,1,0,21.95c-.4,6.09-2.66,8.05-8.93,8.64-4.62.44-9.31.3-14,.3l-577.64,0c-6.33,0-12.66.06-19,.1Q6.33,2139.93,6.37,2119.84Z"/><path class="cls-3" d="M6.34,1925.91q39,.06,78,.11L603,1926c4.66,0,9.35-.14,14,.31,6.2.59,8.46,2.61,8.85,8.72a171.18,171.18,0,0,1,0,22c-.39,6.1-2.66,8.09-8.88,8.68-4.63.44-9.32.3-14,.3l-577.65,0c-6.33,0-12.66.06-19,.1Z"/><path class="cls-3" d="M6.27,2054c12.32,0,24.64.11,37,.11q277.29,0,554.58,0a135.82,135.82,0,0,1,17.94.8c7.51,1,9.76,3.6,10.2,11.16a145.6,145.6,0,0,1,0,18c-.48,7.15-2.72,9.22-10,9.79-4.31.34-8.66.21-13,.21H26.37c-6.66,0-13.32.08-20,.12Z"/><path class="cls-4" d="M3329.83,950.19q.12,76.92.22,153.82,0,40.46,0,80.91c0,3.33-.06,6.67-.38,10-.46,4.74-3.48,7-8,7.28-4.31.23-8.65.28-13,.28H3000c-23.05,0-22.92,0-20.45-22.76a554.3,554.3,0,0,1,57.91-194.17c30.79-60.21,71.4-113,121.12-158.81,1.71-1.57,3.59-3,5.4-4.43,5.17-.72,9.1,1.81,13,4.78,48,36.86,95.53,74.33,143.91,110.7C3325.36,941.17,3326.05,946.64,3329.83,950.19Z"/><path class="cls-4" d="M3329.74,1526.08c-4,2.3-8.37,2-12.67,2-83.32,0-166.64-.18-250,0-9.23,0-14.55-3.49-19-11.4-39-69.65-61.91-144.27-69.71-223.61-.75-7.62-1.21-15.28-1.54-22.94-.31-7.05,1.44-9,8.33-9.66,3-.28,6-.18,9-.18q158.48,0,317,0c18.83,0,18.92.08,18.9,19q-.08,50.48-.26,101c-2.55,7.34-8.06,12.09-13.68,17.18-27.6,25-54.11,51.11-77,80.66-7.52,9.72-15.49,19.12-22.29,29.38-2.13,3.22-6,6.42-4,10.6,2.09,4.34,7,3,10.83,3,30.59.12,61.17.07,91.75,0C3320.83,1521.11,3326.22,1520.85,3329.74,1526.08Z"/><path class="cls-1" d="M3329.83,950.19c-8.13-4-15-9.91-22.07-15.36-34.59-26.53-69.21-53-103.48-80-13.58-10.67-28.19-20.1-40.32-32.57,21.54-20.49,45.43-37.94,70.3-54.08a548.34,548.34,0,0,1,79.1-42.38c1.83-.8,3.66-1.61,5.53-2.31,9-3.36,10.71-2.27,11.17,7.08.13,2.66.07,5.33.07,8q0,99.31,0,198.63C3330.12,941.55,3329.93,945.87,3329.83,950.19Z"/><path class="cls-1" d="M3329.74,1526.08c-39,0-78,.06-117,0-3.77,0-8.89,1.75-10.87-2.6-1.64-3.58,2.27-6.65,4.27-9.57,19-27.81,39.67-54.29,63.31-78.41,19.11-19.5,37.81-39.4,60.3-55.2C3330.33,1428.86,3330.42,1477.47,3329.74,1526.08Z"/><path class="cls-4" d="M3163.94,1586c-8.57,17-16.6,34.31-22.32,52.57-14.88-13.36-27.64-28.67-40.3-44-1.44-1.75-3.44-3.53-2.26-6.14s3.86-2.38,6.1-2.39C3124.75,1585.88,3144.35,1585.93,3163.94,1586Z"/><path class="cls-3" d="M6.38,2377.78c6.32,0,12.65.13,19,.13H603c4.66,0,9.35-.13,14,.32,6.19.6,8.43,2.61,8.82,8.75a171,171,0,0,1,0,22c-.4,6.1-2.64,8-8.91,8.64-4.63.44-9.32.3-14,.3l-577.62,0c-6.33,0-12.66.07-19,.1Q6.32,2397.9,6.38,2377.78Z"/><path class="cls-1" d="M1248.11,931.31q0-143.89,0-287.78c0-21.15,1.5-22.72,23-20.95,44.1,3.61,85.71,15.7,124.33,37.54Q1517,728.83,1548.76,864.81c13,56.21,9.5,111.83-8.76,166.45-13.92,41.64-36.18,78.26-66.18,110.52-41.27,44.4-90.84,74.6-149.38,89.85-20,5.2-40.26,9.24-61.16,8.55-13.23-.43-15.1-1.91-15.12-15.1q-.15-69.94-.05-139.89Q1248.09,1008.24,1248.11,931.31Z"/><path class="cls-1" d="M2172,492.33q-142,0-283.94,0a119.43,119.43,0,0,1-13-.34c-6.1-.66-8.28-2.7-8.69-8.91a166.74,166.74,0,0,1-.07-21c.39-6.7,2.67-8.77,9.26-9.48a92.37,92.37,0,0,1,10-.26h572.88c19,0,19.53.62,19.54,19.73,0,19.83-.36,20.23-20.05,20.24Z"/><path class="cls-1" d="M2174,324.35H2456a122,122,0,0,1,13,.34c6.12.66,8.34,2.69,8.72,8.88.45,7.3.25,14.65,0,22-.17,5-3.09,8-8.16,8.41-3,.27-6,.35-9,.35q-286.42,0-572.87,0c-16.38,0-17.48-1.19-17.54-17.69a127.55,127.55,0,0,1,.3-13c.63-6.23,2.61-8.27,8.71-8.94a122,122,0,0,1,13-.34Z"/><path class="cls-1" d="M2173,428.33H1892.06c-4,0-8,.13-12-.22-6.86-.6-9.23-2.56-9.64-9.07-.45-7.29-.24-14.65,0-22,.17-5.05,3.14-7.95,8.21-8.36,3.32-.26,6.65-.34,10-.34q285.43,0,570.88,0c17.61,0,18.47.92,18.48,18.76a111.18,111.18,0,0,1-.3,12c-.67,6.18-2.66,8.22-8.78,8.88a122,122,0,0,1-13,.33Q2314.48,428.35,2173,428.33Z"/><path class="cls-1" d="M2174,622.28q-141,0-281.94,0a119.43,119.43,0,0,1-13-.34c-6.11-.66-8.27-2.69-8.68-8.91a166.74,166.74,0,0,1-.06-21c.39-6.69,2.67-8.77,9.26-9.48a94.81,94.81,0,0,1,10-.26h568.88c18.94,0,19.52.63,19.53,19.74,0,19.82-.36,20.22-20.05,20.23Z"/><path class="cls-1" d="M2175,518.29q140.45,0,280.91,0a122,122,0,0,1,13,.33c6.11.66,8.3,2.71,8.73,8.89a146.11,146.11,0,0,1,0,20c-.44,6.45-2.86,8.9-9.13,10a62.53,62.53,0,0,1-11,.73q-282.4,0-564.82,0a90.08,90.08,0,0,1-13.91-1.12c-5.24-.83-8.31-4.21-8.46-9.6-.19-6.65-.41-13.34,0-20,.43-6.2,2.61-8.24,8.72-8.9a122,122,0,0,1,13-.33Q2033.58,518.28,2175,518.29Z"/><path class="cls-2" d="M2212.08,761.54c4.15.06,5.82,3.59,7.7,6.64q11,17.85,21.8,35.83,70.89,117.6,141.74,235.22c8,13.24,7.77,13.93-5.11,21.4-9.41,5.46-10.44,5.27-16.34-4.48q-43.12-71.36-86.16-142.78-38.43-63.71-76.84-127.42c-7.79-12.93-7.5-13.86,5.61-21.26C2206.8,763.38,2209,761.89,2212.08,761.54Z"/><path class="cls-2" d="M2283.51,1003.54c-.35,5.25-17.9,14.71-22.07,12-2.61-1.67-3.81-4.57-5.32-7.14q-36.85-63-73.68-125.95-42.87-73.35-85.7-146.71c-7.36-12.59-7.16-13.38,5.49-20.57,9.66-5.49,10.86-5.26,16.42,4.26Q2198.85,856.65,2279,993.9C2280.79,997,2283.17,999.94,2283.51,1003.54Z"/><path class="cls-2" d="M2260.75,1092.45a13.49,13.49,0,0,1-1,2.55,11.57,11.57,0,0,1-2.07,2.13c-13.13,11.68-17.4,11.06-26.36-3.79q-80-132.64-160-265.28c-8.36-13.87-8.26-14.18,5.31-22,9.12-5.28,9.93-5.16,15.55,4.15q55.28,91.53,110.45,183.13,26.83,44.49,53.68,89C2258.15,1085.42,2260.45,1088.38,2260.75,1092.45Z"/><path class="cls-2" d="M2155,1044.42c-.56,5.68-5.95,7.15-10,9.61-3.51,2.12-7.23,6.12-11.69,2.81-2.53-1.88-4.17-5.13-5.84-8q-48.75-83.26-97.39-166.58-30.77-52.65-61.5-105.33c-7.35-12.6-7.12-13.47,5.65-20.46,9.21-5.06,11-4.72,16.56,4.8q32.68,55.59,65.16,111.3,47.14,80.71,94.24,161.46C2152,1037.21,2154.15,1040.25,2155,1044.42Z"/><path class="cls-3" d="M941.89,2038c.16,19.72-.17,20.05-19.89,20-3.32,0-6.66.1-10-.21-7.09-.68-9.3-2.77-9.68-10.08a205.29,205.29,0,0,1,0-21.91c.38-6.69,2.61-9,9.2-9.41a153.81,153.81,0,0,1,19.91,0c7.56.47,9.71,2.88,10.33,10.65C942.13,2030.67,941.89,2034.34,941.89,2038Z"/><path class="cls-3" d="M941.9,2304c.17,21.51-.22,21.91-21.37,21.85-17.58,0-18.36-.82-18.4-18.72,0-4.31-.13-8.65.2-12.94.57-7.29,2.63-9.57,9.74-10a167.58,167.58,0,0,1,19.92,0c7.2.41,9.22,2.62,9.86,9.87C942.13,2297.38,941.9,2300.72,941.9,2304Z"/><path class="cls-3" d="M902.37,1971.22c0-4-.32-8,.07-12,.61-6.18,2.61-8.42,8.71-8.82a197.27,197.27,0,0,1,20.92,0c5.39.21,8.48,3.5,9.25,8.76a104.13,104.13,0,0,1,.32,23.87c-.41,5-3.18,8-8.2,8.49a129.74,129.74,0,0,1-22.9.07c-5.08-.41-7.83-3.43-8.09-8.45-.21-4,0-8,0-12Z"/><path class="cls-3" d="M902.3,2170.93c0-3.65-.27-7.33.05-11,.63-7.11,2.73-9.28,10-9.7a153.12,153.12,0,0,1,18.92.07c7.06.49,9.75,2.89,10.27,9.77a145.41,145.41,0,0,1,0,21.89c-.53,6.81-3.29,9.17-10.39,9.67a151,151,0,0,1-17.93.12c-8.36-.4-10.43-2.58-11-10.89-.22-3.31,0-6.65,0-10Z"/><path class="cls-3" d="M902.17,2370.89c0-2.66-.09-5.32,0-8,.39-10.24,2.39-12.42,12.27-12.78a156.9,156.9,0,0,1,16.94.14c7.61.55,10,2.85,10.39,10.57a137.8,137.8,0,0,1-.23,19.91c-.71,8-3.42,10.51-11.39,11a149,149,0,0,1-17.93,0c-7.23-.46-9.29-2.65-9.9-9.86-.3-3.63-.05-7.3-.05-11Z"/><path class="cls-3" d="M902.12,2104.18c0-19.77.41-20.19,19.85-20.2s20.26.66,20.08,19.94c-.17,18.2-2,20.11-19.77,20.16C902.63,2124.13,902.13,2123.65,902.12,2104.18Z"/><path class="cls-3" d="M921.68,2258c-18.95,0-19.54-.6-19.56-19.49,0-20.28.38-20.68,20.45-20.61,17.25.07,19.25,2.07,19.48,19.47C942.3,2257.37,941.64,2258,921.68,2258Z"/><path class="cls-8" d="M2148.2,1561.48q0,93.94-.1,187.89c0,4.33,2.49,10.74-2.71,12.53-3.93,1.35-6.85-4.42-9.82-7.39q-102.21-102-204.44-204c-8-8-11.21-16.27-11.15-27.37.32-69.63.15-139.25.17-208.88,0-17.25,2.08-19.16,19-17.63a553.6,553.6,0,0,1,195.25,54.6c10.06,4.92,14.08,11.17,14,22.41C2148,1436.22,2148.2,1498.85,2148.2,1561.48Z"/><path class="cls-8" d="M2203.93,1599.25q0-93.95.06-187.9c0-4.51-2.07-10.75,2.14-13.12,5.13-2.89,8.81,3.18,12.5,6,82.23,63.3,142.6,142.93,179.27,240.25,16.55,43.92,26.63,89.32,31.58,135.9.64,5.95.56,12,.77,18,.18,5-2.41,7.36-7.22,7.57-2.67.11-5.33.19-8,.19q-96.47,0-192.91,0c-17.29,0-18.18-.88-18.19-18Q2203.89,1693.7,2203.93,1599.25Z"/><path class="cls-8" d="M2147.55,1296.06c4.84-2.45,8.57-1.77,12.16-1.77q127.39-.07,254.79,0c16.55,0,17.5,1,17.51,17.58q0,127.38,0,254.76c0,3.55.89,7.3-2.16,12-16.44-30.4-32.41-60.1-52.22-87.5s-41-53.33-64.91-77.08a596.9,596.9,0,0,0-77.88-65.49C2207.26,1329.24,2178.11,1312.63,2147.55,1296.06Z"/><path class="cls-8" d="M2014.65,1806.13q-38,0-75.94,0c-3.33,0-6.66-.07-10-.3-5.1-.35-7.88-3.22-8.28-8.27-.23-3-.3-6-.3-9q0-76.93.07-153.87c0-4.46-2.13-10.74,2.47-12.91,5-2.38,7.72,3.93,10.78,7q83.19,82.86,166.07,166c2.64,2.65,8,5.08,6.1,9.21-1.76,3.86-7.22,2-11,2.06C2068,1806.19,2041.3,1806.13,2014.65,1806.13Z"/></svg>