<svg id="Layer_1" data-name="Layer 1" xmlns="http://www.w3.org/2000/svg" viewBox="0 0 3508 2482"><defs><style>.cls-1{fill:#2b2b2b;}.cls-2{fill:#353535;}.cls-3{fill:#323232;}.cls-4{fill:#3a3a3a;}.cls-5{fill:#2c2c2c;}.cls-6{fill:#424242;}.cls-7{fill:#4f4f4f;}.cls-8{fill:#252525;}.cls-9{fill:#464646;}.cls-10{fill:#262626;}.cls-11{fill:#505050;}.cls-12{fill:#3b3b3b;}.cls-13{fill:#4e4e4e;}.cls-14{fill:#4c4c4c;}.cls-15{fill:#272727;}.cls-16{fill:#2d2d2d;}.cls-17{fill:#414141;}</style></defs><path class="cls-1" d="M1647.68.51q925.26,0,1850.53.12c2.92,0,6.78-2.3,9,1.88a14.16,14.16,0,0,1-11.4,5c-4-.1-8,0-12,0q-287.1,0-574.21.07c-5.41,0-11.4-1.92-16.12,2.7-3.17,3.19-2.7,7.38-3,11.29-.4,6-.19,12-.19,18q0,533.58,0,1067.14c0,6.66.25,13.32-.32,19.94-4.33,6.58-8.32,6.77-11.57.08-4.08-8.4-9.13-16.21-13.72-24.31a23.87,23.87,0,0,0-4.64-6.44c-2.53-2.25-5.68-4.89-8.83-3-4.3,2.54-.59,5.94.66,8.61,6.07,12.94,13.72,25.06,20.68,37.52,5.88,10.51,9.42,22.07,15.67,32.37a17.75,17.75,0,0,1-.27,3.25c-.83,8.46-2.91,16.62,2.12,25.06,2.8,4.69-2.35,10.62-2.28,16.22-5.57,7.32-9.73,3.19-12.8-2.12q-10.74-18.58-21-37.43-19.83-36.39-39.91-72.63c-2.57-4.64-5.92-12.56-12-8.87-5.55,3.36.45,9.5,2.84,13.79q31.61,56.68,62.38,113.83c2.7,5,5.43,9.92,8.59,14.63,2.55,3.82,2.85,7.47-1.95,10-8.43,2.45-16.83-1.54-25.22,0-6.06,3.1-7.58-2.1-9.54-5.59-13.08-23.21-25.81-46.6-38.58-70-12.45-22.79-25-45.54-37.29-68.4a17.94,17.94,0,0,0-1.61-2.52c-2.59-3.4-5.37-8.7-10-6.21-5.57,3-1,7.59.94,11.06q34.61,63,69,126.17c2.81,5.17,6.88,10.66-1,15.28-7.79,1.1-15.52-.5-23.26-.29-7.51,1.62-8.76-5-11-9.19-12.27-22.51-24.94-44.81-37-67.44-11.59-21.76-24.39-42.86-35.63-64.81-2.12-4.14-4.56-8.2-8.75-10.69-1.77-1.06-3.76-1.65-5.54-.07-1.42,1.26-1.23,3-.71,4.63a64.15,64.15,0,0,0,5.42,11.79q34.38,61.49,68.17,123.3c2.17,3.93,6,8-1,11.26-7.83,3.74-16.13.4-24.1,1.65-6.46,3.34-8.14-2-10.21-5.91-12-23-25-45.41-37.22-68.3s-25.66-45.07-37.42-68.21c-2.61-5.12-6.3-13.47-12.47-10.11-7.11,3.88-.13,10.59,2.45,15.19q33.89,60.46,66.93,121.38c2.87,5.29,7.7,11.1-1,15.85-7.72.78-15.37-.19-23-.62-6.23,3.43-7.45-2.09-9.34-5.54-19.83-36.22-40-72.25-59.57-108.62-5.2-9.68-10.5-19.31-16.06-28.8a31.23,31.23,0,0,0-2.71-4.19c-3-3.57-6.46-8.69-11.25-5.45-4.19,2.84.18,7.31,2,10.48,24.64,43.45,47.86,87.69,72.56,131.11,2.2,3.87,4.9,7.67-1.15,10.64-8.09,3.14-16.39,0-24.54.89-5.67,3.41-7.56-.86-9.68-4.76-18.77-34.52-38-68.77-56.76-103.32-6.34-11.71-13.34-23.06-19.22-35-2.2-4.48-5.06-8.69-10.16-10.54-1.61-.59-3.32-.78-4.7.45s-1.17,3-.51,4.6a84.62,84.62,0,0,0,4.52,8.91q34.07,61.07,67.63,122.41c2.52,4.61,9.54,10,1.05,15.85-7.84,3.77-16.16.34-24.14,1.65-4.25,2.29-6.55.43-8.6-3.48-23.84-45.39-49.07-90-73.76-135-2.08-3.79-3.8-7.82-6.63-11.14-2.2-2.57-5-5.46-8.46-3.42-4,2.34-1.56,6-.09,8.82,6.89,12.92,13.75,25.88,21,38.59,18,31.51,34.35,63.94,52.92,95.13,2.89,4.86,3.09,8.74-2.93,11.16-8.76.83-17.37-1.82-26.11-1-5.71,1.26-6.39-3.82-8.2-6.94-17.71-30.45-34.33-61.5-51.28-92.38-8-14.56-16.3-29-23.95-43.71a24,24,0,0,0-5.88-8c-2.33-1.9-5.12-4.16-8-1.83-2.62,2.14-.58,5,.66,7.24,6.08,11.07,11.8,22.33,17.93,33.37,18.24,32.82,36.6,65.57,54.45,98.61,2.14,4,6.46,8.77-1,12.3-7.84,3.73-16.15.28-24.13,1.61-5.84,3.1-7.53-1.34-9.57-5.25-17.84-34.27-37.3-67.67-55.35-101.84-6.53-12.37-13.85-24.31-20.29-36.73a24.33,24.33,0,0,0-2-3.44c-2.61-3.46-5.6-8.33-10.25-5.71-5.44,3.07-1.2,7.65.78,11.16,22.25,39.46,43.49,79.48,65.94,118.83,2.16,3.78,3.51,8,5.75,11.61,3.48,5.63,1.43,8.47-4,10.37-7.62,2.67-15.35-.05-23,.6-5,1.77-6.32-2.29-8.16-5.28-12-19.59-22.71-39.93-33.67-60.1-13.82-25.44-28.32-50.52-41.67-76.22-2.3-4.44-5-8.75-9.61-11.21-1.8-1-3.84-1.6-5.59-.06s-1,3.66-.26,5.53a48.64,48.64,0,0,0,2.91,5.23c23.8,43.14,48,86,71.18,129.53,2.09,3.92,6,8-.89,11.27-7.83,3.84-16.17.42-24.16,1.7-5.76,3.07-7.48-1.24-9.63-5.14-20.51-37.33-41.18-74.58-61.33-112.1-5.2-9.68-11.4-18.79-16.1-28.74a10.37,10.37,0,0,0-1.65-2.49c-2.43-2.73-5.09-6.52-9-4-3.66,2.33-1,6.07.33,8.95,6,12.62,13.26,24.61,20,36.86,17.28,31.51,35.39,62.56,51.82,94.55,2.91,5.67,3,9.09-3.54,11.15-7.75,2.63-15.62-.21-23.39.65-6.09,1.16-7-4.32-9-7.64-17.82-30.49-34.54-61.58-51.15-92.74-6.26-11.75-14.18-22.6-19-35.16,6-7.31,2.73-15.68,2.72-23.68-.06-41.63.51-83.28-.19-124.9-.6-35.41-5.35-70.29-17.2-104C2220.42,794,2179.69,744,2119.44,711.55c-96.15-51.83-195.76-56.18-296.76-15.46-61.12,24.64-108,66.41-138.85,125.07-19.3,36.74-30.58,76-31,117.76-.52,49-.09,97.92-.15,146.88,0,9,.52,18,2.87,26.74-6.28,5.71-2.9,12.87-2.86,19.48,0,7.67.48,15.31,2.62,22.75-6.47,15.88-2,31.8-.09,47.7-6.19,14.77-2,29.54.09,44.31-6.5,16.62-1.91,33.2.22,49.79-4,4.82-4.31,10-3.33,16.19,1.47,9.3.41,18.94,3.15,28.15-5.68,16.11-3,32.14.93,48,1.23,5,1.89,9.31-.25,14.19-3.42,7.77-3.3,16.19-3.31,24.52,0,42.85,0,85.71-.08,128.57,0,4.86,1.16,10-2.36,14.38-6.63,2.26-13.45,2.66-20.4,2.66q-109.42-.09-218.85,0c-25.14,0-28.21,3.09-28.23,28.19q-.07,113.92,0,227.86c0,24.62,3.17,27.83,27.56,27.84,80,0,159.89.17,239.85-.09,3.33.37,6.81.06,9.78,2.17,3.78,6.15,5.91,12.71,4,20-.84,3.18,1.63,5,2.4,7.58,0,8.39-5.14,16.82.29,25.16-.28,6-1.44,11.82-2.25,17.68-.58,4.28-.19,7.68,2.18,11.06-.41,8.42-5,16.83,0,25.25-.68,9.24-4.89,18.46,0,27.71.39,4.9-1.21,9.57-1.94,14.3-.61,4-.49,7.3,2,10.47-.43,5.17-1.23,10.3-2.06,15.4a23.07,23.07,0,0,0,2.06,14.31c-.84,8.56-4.72,17.12,0,25.69-2.08,9.87-1.93,19.87-1.93,29.87q0,178.41,0,356.81c0,6.29.77,12.72-2.35,18.63a29.26,29.26,0,0,1-2.62,2.94h-48c-19.62-2.62-39.54-1.83-59.1-4.27-36-4.49-70.85-14.26-105.1-26.09a627.26,627.26,0,0,1-136.29-66.14A635,635,0,0,1,1181,2274.21c-38.11-42.78-70.21-89.63-95.36-141.08-24-49-41.64-100.18-51.66-153.9-2.76-14.8-.25-30.59-5.52-44.6-9.39-24.94-4.26-50.29-5-75.5-.94-6.31-.57-12.65-.57-19q0-285.12,0-570.22c0-10,.27-20-1.88-29.84,2.47-4.91,2.22-10.12,2.09-15.44-.48-19-.19-38-.19-56.94q0-262.76,0-525.52c0-4.66-.33-9.35,0-14,1.11-13.55-2.77-24.24-16.06-29.93-2.6-5.62,1-7.75,5.45-8.57a14.46,14.46,0,0,0,9.64-5.71c3.61-6.8-.78-14,1.18-20.9,3.73-6.65,7.82-5.35,12.62-1,5.43,5,9.45,11.18,14.66,16.32,4.68,4.62,9.42,9.28,16.59,9.44,1.59-3.46-.76-4.93-2.28-6.42-12.55-12.38-24.65-25.21-37.66-37.12-3.15-2.89-7.1-5.25-5.95-10.56,5.54-6.42-.18-13.92,2-20.62,3.65-6.71,7.77-5.52,12.58-1.07,5.64,5.22,10.2,11.38,15.4,17,16.1,17.29,34.77,31.92,51,49.06,2.17,2.29,4.68,4.91,9.05,3.41.29-5.07-3.82-7.39-6.67-10.24-25.63-25.61-50.94-51.54-77.65-76.05-2.9-2.66-8.68-5.23-4.85-11.27,3.48-6.81-.88-14.15,1.45-21,3.22-5.78,6.86-6.2,11.64-1.44,6.61,6.56,13.41,12.94,19.77,19.72,27.5,29.34,58.6,55.06,85.53,85,3.59,4,10.47,10.91,13.45,7.14,4.17-5.27-4.91-8.23-8.62-11.74-9.92-9.36-19.36-19.2-29.07-28.75-30.57-30.07-60.13-61.17-91.43-90.51-2.48-2.33-4.65-4.79-3.6-8.62,5.48-6.34-.31-13.93,2.32-20.54,3.48-6.87,7.44-5.92,12.24-1.13q12.72,12.72,25.51,25.37,61,60.38,122.44,120.39c3.18,3.08,6,7.25,11.85,6.75.51-5.13-3.12-7.47-5.8-10.08-15.5-15.09-30.19-31-46.62-45.18-10.55-9.11-19.61-19.88-29.22-30-22.88-24.18-48.18-45.94-71.43-69.78a20,20,0,0,0-12.4-6c-4.88-.5-5.87-3.47-5.89-7.53-1.42-4.22-1.22-8.57-1.23-12.89q-.06-182,0-364c0-4.61-.51-9.34,1.6-13.7,1.79-4.35,5.63-3.89,9.3-3.89q201.9,0,403.8-.09c6.06,0,9.14,2.25,12.37,7.51,10.54,17.11,24.68,31.42,39.53,44.73,30.06,26.93,57.38,56.6,86.29,84.68,9.08,8.82,17.84,18,26.92,26.79,2.52,2.44,4.55,5.88,9.33,5.79,1.57-4.7-1.76-7.45-4.37-10-29.21-28.72-56.86-59-87.61-86.18a59.63,59.63,0,0,1-6.46-6.25c-16.92-20.25-37.37-37-55.69-55.81-2.37-2.44-6.73-4.88-4.58-9,1.7-3.23,6-2.12,9.25-2.17,3.66-.05,7.35.28,11-.06,10.8-1,19,3.42,26.42,10.93,27.65,28,55.62,55.58,83.29,83.5,10.79,10.88,22.14,21.16,32.89,32.07,1.83,1.85,4.14,4.91,6.62,3,3.3-2.49.64-5.91-1.48-7.59-12.62-10-21.68-23.47-33.61-34.12-27.61-24.65-52.76-51.79-79-77.87-2-2-5.27-4.14-3.55-7.51,1.57-3.08,5.16-2.38,8.12-2.39,4.66,0,9.34.24,14-.06,9.62-.63,17.56,2.79,23.5,10.09,21.77,26.73,49.33,47.62,72.84,72.59,2.23,2.36,4.39,5,8.76,5.62,1.29-6.14-3.07-9.21-6.26-12.45-20.33-20.66-41-41-61.33-61.64-3.29-3.34-9.61-6.47-7.33-11.73,2-4.72,8.45-1.82,12.9-2.43,14.38-1.95,25.6,3.22,35,14.2,7.13,8.34,15.52,15.56,23.2,23.43,4.35,4.47,8.55,8.85,15.07,2.88,1.71-1.57,4.44-.33,6.72-.18,4,5,2.26,10.89,2.26,16.35q.15,264.92.18,529.83c0,4.78-2.56,11.89,2.19,13.8s7.89-5,11.27-8.34Q1951.86,308,2237.35,22.31c3.59-3.59,10.75-6.95,8.59-12.16s-9.59-2.55-14.67-2.55q-282.9-.16-565.8-.14c-6.51,0-13.46,1.39-18.89-4A3.46,3.46,0,0,1,1647.68.51Z"/><path class="cls-2" d="M1027.8,1240.25q0,299.38,0,598.76c0,7.67.11,15.33.17,23-.24.59-.49,1.17-.75,1.71-5.13,4.54-11.44,3.37-17.4,3.38q-159.4.08-318.82,0c-5,0-10,0-15,.14-7.57.2-14.53,1.93-19.83,7.81-2.48,2.75-5.26,4.2-9,2.8-1.92-1.23-4.14-2.52-3-5.39,4-10-2.69-15-9.52-19.21-15.37-9.33-31.34-17.64-47.11-26.27q-79.77-43.59-159.38-87.48c-2.81-1.54-5.5-3.91-9.77-2.37,1,5,5.32,6.56,8.82,8.46,50,27.25,99.8,54.85,149.77,82.16,16.36,8.94,32.43,18.42,49.11,26.79,6.33,3.17,7.89,7,1.24,11.59a35.41,35.41,0,0,1-14.64.78c-6.15-.78-11.77-.31-17,3.08a32.42,32.42,0,0,1-10.16-3.84c-51.89-29.88-104.79-57.93-157.2-86.88-3.4-1.88-6.61-4.54-11.79-4.57.36,5.38,4.57,7,8,8.89,25.46,14.44,51.17,28.43,76.89,42.41,17.53,9.53,34.77,19.61,52.58,28.63,6.51,3.3,7.9,6.78,1.4,11.47a47.5,47.5,0,0,1-21.6.2c-4.43-.9-7.14-.07-10,2.55-4.65.79-8.3-1.58-12.06-3.77-28.8-16.73-58.37-32.07-87.44-48.32-2-1.13-3.95-2.46-7.36-2.07.72,6.08,5.73,7.63,9.69,9.76,18.48,9.94,36.55,20.63,55.28,30.09,6.32,3.2,8.24,6.63,1.72,11.54a31.51,31.51,0,0,1-16.49.55c-6-1.63-10.42.39-15,3.38-9.61-1.14-16-8.76-24.46-12.3-5.64-2.37-11.6-7.7-12.52,4.15-.17,2.09-2.11,4-4.62,4.69-21.63,1.19-43.26.42-64.87.49-21,.08-41.91-.25-62.76,2.54-5.57.78-11.1,1.87-15.76-3-1.82-1.88-5-1.67-7.23-1.24-16.15,3.14-32.43,1.59-48.64,1.63-64.59.2-129.18.1-193.77.07-6.3,0-12.88.91-17.51-5V1558.19c6.19-5.33,5.25-10.66,0-16v-16c7.09-8.19,9.54,2.11,15.27,3.66C8.56,1524,4.34,1517.08.1,1510.2v-16c3.13-4.26,6.18-3.65,9.71-.26,6.91,6.63,13.36,13.75,20.83,19.8-10-12-23.26-21.2-30.54-35.53v-18c4.91-4.38,7.87-.12,10.82,2.7,11.53,11,22.39,22.7,31.56,31.68-10.91-16.2-31.13-28.33-42.38-48.38v-16c4.37-5.92,7.84-2.18,11.19,1.14q22.6,22.42,45,45.07c1.4,1.41,2.81,2.82,4.12,4.32-17-18.07-33.66-36.58-51.73-53.64-4-3.74-4.73-9.28-8.6-12.89v-16c5-5.49,8.56-1.48,12.06,1.91,15.5,15,30.41,30.62,45.69,45.86,5.88,5.86,11.74,11.73,17.68,17.53-20.06-18.37-37.17-39.6-56.73-58.47-5.4-5.21-10.9-9.91-18.7-10.83V1078.29c4.39-5.93,7.86-2.15,11.21,1.16,13.71,13.58,27.16,27.42,41,40.88,33.59,32.7,64.31,68.22,98.86,100-20.23-21.54-41.29-42.28-62.29-63-26.73-26.43-51.5-54.76-78.78-80.63-4.42-4.18-6.15-9.9-10-14.32v-16c3.75-5.63,7.19-2.72,10.48.47,11.48,11.14,22.72,22.52,34,33.88,20.18,20.34,40.29,40.77,60.81,60.77,15.27,14.9,28.79,31.45,44.39,46-8.59-10.59-18.45-20-28.15-29.52C84,1121.08,48,1082.69,10.83,1045.41,6.32,1040.88,4,1035.13.1,1030.3v-16c2.7-3.55,5.55-4.23,9-.87,3.13,3,6.19,6.06,9.3,9.06,42.92,41.34,83,85.51,125.61,127.13-18.51-20.48-39.09-39-57.75-59.29-24.57-26.74-50.6-52-76.23-77.69-4.28-4.29-6.12-9.94-10-14.33v-16c2.68-3.6,5.53-4.3,9-.89,2.37,2.32,4.84,4.56,7.19,6.93,33.25,33.61,66.81,66.92,100.22,100.36a160.56,160.56,0,0,1,16.64,19.88c-3.72-6.51-8.93-12.17-14.41-17.63-25.43-25.42-50.71-51-76.35-76.22-11.88-11.69-22.1-24.9-34.31-36.24-3.76-3.49-4.22-8.87-8-12.19v-16c3.74-5.2,7.08-2.87,10.51.46,9.07,8.82,18.1,17.68,26.86,26.79,21.44,22.3,44.6,42.92,64.62,66.61a100.47,100.47,0,0,1,9.18,12.07c-7.07-11.57-16.23-21.39-26-30.68-26-24.84-49.47-52.12-75.36-77-4.34-4.18-6-9.87-9.85-14.2V620.38c4.27-5.53,10.41-5,16.36-5q67.35,0,134.69,0c78.15,0,156.31.1,234.46-.11,5.05,0,10.07,1.18,15.1.2,3-3.12,5.76-2.26,8.6.37,3.67,3.4,7.23,6.9,10.76,10.43q296.4,296.24,592.69,592.56C1019.09,1225.15,1024.87,1231.65,1027.8,1240.25Z"/><path class="cls-3" d="M1027.8,1240.25c-4.62-4.3-9.39-8.46-13.85-12.93q-298.05-298-596.06-596c-4.47-4.47-9.23-8.64-13.86-12.94-7.23-.47-11.65-5.5-16.29-10.11-40.61-40.37-80.95-81-121.48-121.45Q145.06,365.81,24,244.62C15.29,235.9,5.78,227.81.1,216.47V2.51c2.41-1.7,5.17-1,7.77-1q509.11,0,1018.23,0l1.77.9-.09,395.89c-2,4.69,6.28,9.32.09,14-.34,8,1,16.18-2,24-4.72,2-7.38-1.35-10.22-4-7.24-6.8-14-14.13-21.16-21-3.54-3.35-7.06-7.15-13.27-6-1,4.17,2.24,5.83,4.58,7.79,14.49,12.16,26.91,26.42,40.34,39.65,2.55,2.52,6.94,5.36,1.74,9.59-.32,8,1,16.2-2,24-5.64,6-8.33-.52-11-3.18q-32.37-31.83-64.41-64c-3.28-3.31-6.45-6.75-10-9.72s-7.24-5.62-12.57-5.08c1.14,4,4.16,5.73,6.43,8,29,29.33,58.37,58.3,87.42,87.59,3.27,3.3,8.46,6.11,6.18,12.38-.27,8,1,16.17-2,24-4.24,1.87-6.75-1-9.61-3.32-10.16-8.13-19.4-17.23-28.51-26.49-30.36-30.87-61.44-61-91.76-91.92-5.05-5.15-10.14-10.34-18.67-10.65,1.57,4.42,4.77,6.44,7.29,8.95C929.93,458,975,503.43,1020.21,548.61c3.68,3.68,9.87,6.59,7.6,13.8-.26,8,1,16.22-2,24-2,2.45-4.14,3-6.79.8-3.08-2.55-5.92-5.35-8.73-8.18-31.38-31.67-62.64-63.5-94.77-94.39q-37.41-36-74.21-72.52c-4.26-4.22-8.85-7.87-15.18-8.09-.4,1.19-.3,1.82.23,2.35,30,29.77,59.11,60.34,90.15,89,25.15,23.27,48.63,48.29,73.05,72.33,5.69,5.6,11.36,11.22,16.85,17,2.56,2.72,5,5.43,3.38,9.61,2.58.62,5.15,1.32,7.75,1.86,8.43,1.74,9.69,3.17,10.21,11.93.11,2,.08,4,.08,6Q1027.82,927.23,1027.8,1240.25Z"/><path class="cls-4" d="M2265.52,2482h-6c-2.43-2.78-1.73-6-1.44-9.24.66-7.26,2.22-14.57-.36-21.8,3.85-14.72,6.26-29.46,3.38-44.76-.8-4.26-.65-8.84-.65-13.3q.16-255.74.09-511.45c0-6.31-.47-12.69,2.13-18.7a5.7,5.7,0,0,1,2.38-3c6.47-3,13.4-2.6,20.28-2.6q278.79,0,557.59,0c6.33,0,12.67.29,19-.44,10.46-1.21,14.75-5.46,16-15.82.72-6,.46-12,.46-18q0-200.37,0-400.73c0-15.78,2.51-31.53.32-47.37-.65-4.72-.2-10.19,7.32-9.26,4.55,1,3.89,4.84,4.17,8,.41,4.65.2,9.33.2,14q0,218.91,0,437.83c0,29.54,2.25,31.78,31.91,31.78q229.4,0,458.79-.06c16.28,0,32.44,2.26,48.7,1.84,4.53-.12,8.88,0,13.13-3.28,5.19-4,11.62.18,17.49-.53,12,.23,24-.57,35.83,2,3.77.81,7.23,1.54,9.61,4.81.84,38.46.27,76.95.34,115.42.06,34.18.26,68.35-.13,102.5-2.05,5.63-7,5.16-11.49,5.19-21.64.15-43.28.07-64.93.07q-79.42,0-158.84,0c-15.49,0-16.42-1-16.48-16.34-.11-26,.19-52-.12-77.93-.33-28.39-13.53-42.21-42.12-43.33-23.29-.91-46.63-1-69.91,0-28.32,1.18-41.44,14.57-41.67,42.64-.44,53.62-1.2,107.26.35,160.84.7,24.2-.11,48.6,3.49,72.73,3.08,20.7,13.28,31.19,34.12,34.36,7.6,1.15,15.27,1,22.93,1q164.84,0,329.67.1c5,0,10.74-2,14.91,3,.58,71.74.11,143.47.25,215.2a11,11,0,0,1-.63,2.9c-3.86,1.57-7.91.74-11.85.74q-608.22.06-1216.43.09C2273.38,2481.06,2269.3,2480,2265.52,2482Z"/><path class="cls-5" d="M3504.8,1861.92c-14.64.6-29.12-3.06-43.8-1.72-15.36,1.42-30.71.16-45.88-1.6-119.78-13.91-223.91-63.58-314.94-141.16-110.59-94.25-179.88-213.27-208.6-355.81-3.17-15.7-1.55-32-5.56-47.51-2.75-10.63-7.37-20.88-5.23-32.28,1.59-7.67-1.23-14.69-3.2-21.86,3-4.28,4.52-8.37,3.28-14.17-1.56-7.29-.56-15.09-1.6-22.58-.52-3.71,1.21-5.49,4.05-6.92q0-15.72.07-31.45a37.88,37.88,0,0,1,1.75-12.6c5.25,3.6,0,8.25,1.38,12.17.26-12.79.87-25.68,2.11-38.48,5.34-54.93,22.88-106.51,44.63-156.73A594.52,594.52,0,0,1,3024.55,842c49.56-58.86,107.39-107.92,174.69-145.63a619.78,619.78,0,0,1,221.18-74.24c22.38-3,44.91-5.62,67.62-4.77,5.94.23,11.85.8,17.26,3.7a6,6,0,0,1,.9,3.38q0,126.74,0,253.39c-1.52,9.39-1.84,9.52-9.38,3.74,5.14,3.75,6.38,10.18,10.38,14.72v2c-2,4.25-.5,8.78-1,13.14-2.9,7.69-6.55,3-9.49.29-10-9.13-19.07-19.34-29.25-28.38,12.51,15.65,29.9,27,39.78,44.94v2c-1.47,6.36-8.46,5.24-11.95,8.85-4.22.42-6.27-2.57-8.82-5.21-15.09-15.65-30.7-30.79-46.44-45.8,11.65,11.81,22.46,24.47,35.51,34.84,4.75,3.77,8.43,7.82,3.19,13.93-3.71,3.22-9.17-.49-12.77,3.26-5.14,2.12-7-2.55-9.65-5-14.41-13.54-28.05-27.9-42.56-41.35,10.86,12,22.68,23.15,34,34.78,2.9,3,5.66,5.78,2.4,10.11-1,6-8.09,2-10.24,6.18-4.85,4.09-6.84-.37-9.52-3.12q-19.87-20.35-40.49-40c10.06,11.36,21.08,21.8,31.67,32.65,2.87,2.93,5.93,5.68,2.59,10.14-1.28,5.68-8.37,3-10.57,7.38-4.46,2.47-6.34-1.11-8.72-3.68-12.12-13.11-25.26-25.19-38-37.66,9.34,12.13,22.35,20.5,32.44,31.85,2.31,2.61,7.25,5,2.6,9.68-2.12,4.66-7.59,4.06-10.84,6.94-4.8,4.35-7.19-.52-9.69-2.93-13.34-12.9-26.24-26.24-40-38.67,11.86,11.87,24.85,22.59,36.07,35.09,2.34,2.6,7.22,5.08,2.38,9.67-2.84,3.65-7.84,3.9-11,7-5,4-7.21-1-9.72-3.45-12-11.49-23.78-23.23-35.74-34.78,9.17,12,21.57,20.77,32,31.49,2.43,2.49,7.28,5,2.49,9.68-2.32,4.26-7.34,4.81-10.6,7.76-5.07,3.75-7.21-1.34-9.68-3.69-11.07-10.55-21.73-21.54-32.56-32.34,10.13,10.21,20.47,20.22,30.4,30.62,2.25,2.36,6.54,4.53,3.14,9.06-2.42,3.78-6.08,6.29-9.35,9.19-3.11,3.61-5.22,1.1-7.67-1.07-13.43-11.88-25.41-25.22-36-35.3,10.51,9.51,21.63,23.1,35.18,34.21,1.72,1.41,4.32,3.9,1.51,6.93-3.46,3.42-8,5.47-11,9.42-3,2.9-5.38,1-7.3-1.34-10.89-13.4-25.64-22.79-35.29-34.11,9.72,9.58,20.87,21,32.63,31.86,2.47,2.26,6.29,4.18,2.89,8.51-3.25,3.79-7.9,5.94-11.13,9.71-3.55,2.42-6.14-.29-7.79-2.37-10.46-13.25-24-23.23-35.95-35,12.48,11.87,24.22,24.5,37,36.07,2.44,2.21,5.09,4.36,1.76,7.89-3.17,3.24-7.15,5.16-11.2,6.94-4.76,3-7.27-.78-10-3.43-11.34-10.91-22.18-22.35-33.86-32.92,11.61,12.21,23.15,24.48,35.57,35.88,2.53,2.32,6.24,4.08,4.56,8.67-4.24,2.9-5.9,7.91-9.43,11.37-5,4.07-7.18-.44-9.83-3.31-11.41-12.39-23.55-24-35.8-35.58,12.12,12.78,24.27,25.51,37.13,37.55,2.5,2.35,6.18,4.24,3.45,8.69-3.14,3.11-4.48,7.84-8.87,9.78-4.93,4.15-7.27-.83-9.8-3.2-12.3-11.48-23.72-23.88-36.31-35.07,12.8,13.11,25.25,26.56,38.82,38.89,2.8,2.53,7.18,4.41,3.83,9.43-3.2,3.07-4.68,7.63-8.7,10-5,4-7.25-1-9.76-3.37-12.91-12-24.94-24.89-38-36.77,12.22,12.69,24.16,25.64,37.57,37.18,3.55,3.06,10,5.3,7.17,12.38-3.84,3.41-3,9.3-6.77,12.74-4.74,5.2-7.12.62-9.88-2.42-12.7-14-26.4-26.9-40.06-39.9,14.2,15,28.64,29.78,43.69,44,2.37,2.23,6,3.72,3,7.87-3.4,3-2.33,8.76-6.81,11.1-5,5.3-7.72-.09-10.42-2.72-13.82-13.43-27.41-27.1-41.57-40.19,14.5,15.52,31.32,28.68,45.48,44.52,2.31,2.58,7.41,4.55,4,9.71-3.16,3.16-.84,8.61-4.75,11.45-3.85,5.48-6.84,2.45-10.27-.76-14.76-13.83-28.5-28.71-43.65-42.15,17.71,15.48,33.45,33,50.56,49.06,2.33,2.2,5.73,3.84,3.95,8.05-4.55,2.89-3.48,9-7.18,12.41-4.77,5.19-7.13.61-10-2.42-15.27-16.18-30.68-32.22-47.84-46.45,19.16,17.06,35.79,36.71,54.94,53.77,2.73,2.43,6.08,4.48,3.87,9-6.2,3.08-.08,9.6-3.72,13.38-3.81,4.4-6.87,3.3-10.52-.7a660.34,660.34,0,0,0-55.65-54.82c21.49,20.26,41.18,42.35,63.22,62.05,2.62,2.35,4.45,4.86,4.06,8.56-4.27,3.2-1.65,8.09-3,12-3.94,6.63-7.77,3.93-11.79,0-15-14.64-29.53-29.7-44.46-44.39a59.49,59.49,0,0,0-8.21-7.3c20.52,20.78,40.58,42,61.91,62,2.58,2.42,7.77,3.84,4.44,9.21-4.71,5.6,3.79,10.63.76,16.16-3.86,5.53-6.86,4.61-11.4-.13-20.15-21.07-41.16-41.29-62-61.69,16.56,17.18,32.73,34.78,50.68,50.55,8.49,7.46,15.77,16.1,24.14,23.66,2,1.81,5,3.88,2.83,7.55-4.55,4.71,2.25,9.93-.62,14.71-5,5.4-8.77,2.92-13.11-1.39-22.69-22.52-45.21-45.21-68.14-67.49,17.13,18.21,34.49,36.19,52.91,53.13,13.92,12.8,27.87,25.59,40.09,40.14-3.83,7.09,2.72,13.2,1.87,20-3.48,4.25-6.85,4.24-10.7.22-3.45-3.59-7.24-6.87-10.67-10.49-22.88-24.14-48.61-45.32-71.71-69.24,11.49,12.38,23.12,24.58,35.7,35.9,26.43,23.81,50.45,50.11,76.32,74.53l1.81,2.59c.67.91,1.28,1.83,1.88,2.78-1.87,8.88,2.82,14.6,8.67,20.42,1.9,1.88,5.79,5.15,3.13,9.48-4.28,3.62-8.3,3.45-12.05-.93-.86-1-2-1.79-2.9-2.75-34-35.2-70.43-68-104.71-102.9-2.32-2.37-5-4.39-5.85-6.15,96.91,98.51,197.42,195.45,296.49,293.85-29.68-32.29-62.91-61-93.31-92.53-3.18-3.3-10.06-6.59-3.09-12.75,3.22-3,6.28-1.17,8.69.84,7.61,6.33,15,12.79,25.87,12,13.22,11.18,24.51,24.36,36.9,36.45,17.59,17.14,34.81,34.67,52.22,52,3.53,3.51,7.06,7,11.32,9.7q-30.84-30.51-61.35-61.37c-3.65-3.68-8.55-7.27-3.61-13.4,1.25-2,2.92-2.63,4.92-1.23,4.3,3,8.53,1,12.78-.07a25.12,25.12,0,0,1,8.94,6.11c20,22.73,42.31,43.2,63.6,64.67,4.33,4.37,8.52,10.81,16.66,7.46a13.51,13.51,0,0,1,2.17,1.82v4c-1.95,3.43-.95,7.17-.95,10.75q-.11,113.25-.14,226.51C3506.12,1854.91,3507.63,1858.74,3504.8,1861.92Z"/><path class="cls-6" d="M2265.43,1862.22l.06,576.05c0,5.33.05,10.67-2,15.75-7.09,12.44-16,22.89-30,28h-26c-4.38-4.92-.11-7.88,2.72-10.84,11.47-12,23.66-23.37,35.22-35.33,3.71-3.84,11-9.09,6.33-13.58-4-3.81-8.3,4.3-11.82,7.72-12.17,11.81-24.11,23.86-36,35.91-6.59,6.65-13.15,13.22-22.4,16.12h-26c-3.53-2.69-4.22-5.51-.89-9,3.9-4.11,7.92-8.08,11.91-12.09,23.27-23.33,46.44-46.76,69.81-70,3.56-3.54,8.19-6.77,7.67-13.42-5.59.2-8,4.22-10.85,7.1-27.43,27.17-54.43,54.77-81.93,81.88-6.48,6.39-13,12.43-21.71,15.55h-26c-3.55-2.69-4.24-5.56-.87-9,2.54-2.63,5-5.31,7.63-7.89,33.24-33.12,66.08-66.64,99.63-99.44,7.64-7.47,14-16,21.2-23.87,2.15-2.34,4.64-4.93,3-8.89-4.5-.45-6.35,3.27-8.77,5.68-32.76,32.65-65.69,65.14-98.07,98.17-11.63,11.86-22.27,24.69-34.37,36.14-5.68,5.38-12.08,8.56-20.08,8.13q-201.23,0-402.39-.05c-3.58,0-7.32,1-10.75-.95q-.08-92.82-.14-185.64,0-101.31,0-202.62c0-6.63-.43-13.34,2.08-19.72.9-5,3.49-9,6.87-12.88,19.3-22.1,40.26-42.6,61.1-63.21,28.9-28.58,57.42-57.55,86.1-86.36,3.18-3.2,10.61-7.32,6.49-11.31-4.38-4.24-9.38,2.6-12.69,6.29-28.91,32.31-60.53,61.93-90.94,92.76-15.21,15.41-30.38,30.87-45.91,46-3,2.88-5.68,7-11,4.82a47.55,47.55,0,0,1,.12-29.83c.45-7.2,5.27-11.76,9.93-16.41,34.16-34.11,68.13-68.41,102.42-102.39a88.55,88.55,0,0,0,6.27-6.44c1.61-2,4.46-4.21,1.81-6.75-2.32-2.22-5-.12-7.2,1.39-3,2.09-5.48,4.84-8.08,7.41-26.75,26.46-53.08,53.33-79.83,79.79-6.16,6.1-10.82,13.54-17.49,19.14-2.56,2.16-5.07,5.07-8,.38-3.58-9.1-1.74-18.57-1.92-27.9,2.92-8.53,8.41-15.16,14.76-21.47,19.61-19.51,39.08-39.15,58.68-58.67,2.41-2.4,7.41-5.41,4.51-8.73-3.34-3.81-7.44.42-10.09,3.08-18.6,18.62-37.83,36.61-55.52,56.13-2.52,2.78-4.5,9.79-10.42,3.51-3.26-9.42-2.83-18.84,0-28.26.85-5.54,3.73-9.88,7.69-13.73,6.68-6.5,13-13.36,19.78-19.74,5.68-5.35,10-11.23,10.63-19.27,4.21-2.82,9-2.15,13.59-2.15q268.58-.2,537.16,0C2255.85,1857.16,2262.14,1855.62,2265.43,1862.22Z"/><path class="cls-2" d="M3504.79,622.34c-.62,0-1.23-.06-1.85-.11-11.08-5.69-19.06-15-27.66-23.62Q3188.39,311.92,2901.72,25c-6.32-6.33-14.15-11.82-14.61-22.1,7.66-.13,15.31-.35,23-.35q298.57,0,597.14,0V622.38Q3506,624.84,3504.79,622.34Z"/><path class="cls-7" d="M3366.79,966.24c2.72-3.33,6.48-4.93,10.41-6.23,3.54-5.27,6.18-1.23,8.6,1.06,8.64,8.2,16.9,16.79,25.36,25.17-7-7.12-14.31-14-21.16-21.36-2.25-2.4-6.43-5-1.33-8.67,2.89-3.09,6.85-4.25,10.57-5.85,3.08-4.46,5.56-1.59,8.11.66,10.05,8.86,19.05,18.81,27.31,26.72-5.7-5.75-12.86-12.78-19.88-20-2.61-2.66-5.22-5.28-3-9.45,2.5-3.05,6.38-3.86,9.52-5.87.52-.9,1-1.8,1.53-2.71a3.3,3.3,0,0,1,4.09-.66c12.62,11.1,24.23,23.27,36.17,35.09-7.42-7.47-14.93-14.85-22.3-22.38-2.62-2.66-5.25-5.29-3-9.47,1.91-4,6.18-4.15,9.44-6,3.34-7,6.83-2.79,9.88.09,9.21,8.67,18.1,17.68,26.91,26.76,7,7.25,14.24,14.18,23.17,19.08V1516.2c-3.15,3-5.86,1.93-8.6-.75l-6-5.9a40.88,40.88,0,0,1,14.63,22.65v16c-4.31,4-6.17-.09-8.71-2.51-15.39-14.65-29.48-30.66-45.86-44.27,15,14.46,29.06,29.87,44.74,43.67a9.44,9.44,0,0,1,1.58,3,4,4,0,0,1-1,3.33c-3.9,8.07-12.61,1.77-17.76,6-10.56-5.08-17.45-14.59-25.75-22.31-17-15.84-32.88-32.92-44-43.61,7.39,6.41,19.2,19.5,31.83,31.74,6.45,6.24,12.34,13.09,19.36,18.72,3.85,3.1,4.23,5.69-.16,8.45-4.34,5.25-11.07-1.92-15.47,3.08-5,0-7.35-4.08-10.44-6.88-30.55-27.71-59-57.59-88.45-86.41-15.88-15.54-34.3-28.38-48.71-45.5-27.87-33.1-60.33-61.66-90.76-92.24-3-3-6.72-5.54-7.83-10.07a13.57,13.57,0,0,1,1.22-2.79l.54-1.43c.21-5.48-2.33-10.91-.36-16.44,1.5-2.18,3.37-3.51,5.69-1.33,13.66,12.85,27,26,38.23,38.23-.4-1.25-3.11-3.62-5.59-6.12-12.64-12.72-25.39-25.31-38-38.08-2.75-2.78-6.2-5.39-3.93-10.15-.7-6-3-12-.36-18.12,3.53-5,6.25-1.47,8.77,1,9.13,9,18.39,17.82,24.63,24.69-9.36-10-22-21.81-33.9-34.25-2.3-2.41-7.56-5.11-1.73-9.37.49-4.59.05-9.34,2.29-13.64,4.18-2.14,6.77.64,9.48,3.05,5.87,5.23,10.92,11.32,17.1,16.23-6.9-8.4-15.31-15.35-22.52-23.44-2.56-2.87-6.13-5.41-4-10.15.17-4.91-.33-10,3.94-13.75,4.18-2.09,6.77.7,9.47,3.11,4.41,4,8.34,8.43,13,12.14-6-7.07-12.94-13.18-19.1-20.06-2.41-2.7-5.29-5.21-3.26-9.43.68-4.47.77-9.24,5.86-11.45,4.14-2.21,6.82.34,9.55,2.87,4.62,4.29,9,8.86,13.63,13.12-6.32-8.5-14.46-15.19-22.28-22.2-2.91-2.62-5.27-5.06-.87-8.33l4-11.82c3.36-5,6.1-1.7,8.72.77,5.77,5.43,11.26,11.14,16.87,16.73-6.91-7-14-13.84-20.81-21-2.42-2.55-5.89-5.24-.95-8.71,1.6-3.67,2.8-7.57,6-10.3,2.86-4.47,5.43-2,8,.35,4.14,3.83,8,7.91,12,11.86-4.35-4.39-8.76-8.72-13.06-13.16-2.41-2.48-4.41-5-2.56-8.72a16.47,16.47,0,0,1,5.67-12.35c2.86-4.58,5.44-1.9,7.92.39,4.87,4.51,9.43,9.32,14.15,14-5.88-6-11.94-11.8-17.72-17.9-2.52-2.66-4.34-5.3-.15-8.07,2.38-2.94,4.05-6.57,7.83-8.17,5.25-2.08,7.78,2.14,10.92,4.81s5.42,5.77,9.44,8.57c-5.27-6.64-11.1-11.55-16.12-17.19-2.45-2.74-4.29-5.37.17-7.91l7.62-8c4.67-2,7.33,1.27,10.21,3.9,3.66,3.33,7,7,11.89,11.35-4.33-6-9-9.53-12.77-13.89-2.36-2.73-5.23-5.28-3.23-9.49a18.11,18.11,0,0,1,7.89-9.82c4.24-2,6.81.82,9.54,3.22,4.22,3.71,7.78,8.11,13.14,12.3-6.27-7.93-13.35-13.44-19.56-19.82a3.19,3.19,0,0,1,.41-4.21c1-.46,1.92-1,2.85-1.48,3.08-2.25,5.67-5.26,9.6-6.19,4.18-1.83,6.74.89,9.47,3.29,4.36,3.83,7.94,8.5,13.61,12.62-4.76-5.71-9.56-9.76-13.72-14.42-2.41-2.71-5.18-5.3-3.13-9.48,2.45-3.59,5.37-6.58,9.79-7.65,4.23-2.21,6.85.63,9.56,3.09,5.17,4.68,9.82,9.92,16.81,16.15-5.51-7.07-10.7-11.17-15-16.07-2.41-2.74-5.31-5.28-3.47-9.55,1.82-4.6,5.26-7,10.13-7.44,4.13-2.19,6.74.35,9.39,2.95,4.94,4.83,9.79,9.76,14.7,14.63-5.36-5.45-10.91-10.72-16.12-16.32-2.28-2.44-4.94-5-.39-7.86,1.89-3.61,5.28-5.63,8.39-8,3.53-4.63,6.21-1.45,8.87,1,6.53,6.09,12.48,12.78,19.25,18.62-6.29-5.52-12.1-11.53-17.88-17.56-2.56-2.67-4.29-5.35.15-7.9l9.62-6c3.38-4.77,6.11-1.7,8.78.81,7.22,6.77,13.81,14.2,21.47,20.51a219.87,219.87,0,0,1-18.25-17.61C3365,971.7,3362.25,969.15,3366.79,966.24Z"/><path class="cls-8" d="M3505,2261.85c-5.08,2-10.42,2-15.76,2q-170.89,0-341.81,0c-7.37,0-14.7-.44-21.69-2.9-14.73-5.2-24.08-15.2-26.2-31-1-7.58-1.69-15.23-2-22.87-3.16-70.91-2.15-141.87-2.22-212.81,0-3.34,0-6.67,0-10,.48-23.8,13.81-38.62,37.4-41.51a74.73,74.73,0,0,1,9-.49q35.48-.06,71,0a67.68,67.68,0,0,1,14.88,1.47c18.5,4.14,32.3,19.73,31.95,39.25-.48,26.31-.14,52.64-.1,79,0,17.33.84,18.17,18,18.17q113.92,0,227.87-.05c.66-1.5,1.33-1.5,2,0v8a79.34,79.34,0,0,0,0,28v26a79.28,79.28,0,0,0,0,28v26a79.28,79.28,0,0,0,0,28v26C3504.47,2253.6,3508.11,2258.38,3505,2261.85Z"/><path class="cls-2" d="M1028,1862c1.93,5.46,1.83,11.15,1.78,16.81-.67,81.78,19.28,158.93,52,233.29,23.8,54.12,56,102.93,93.8,148.1,27.05,32.28,57.85,60.71,90.83,86.87a605.54,605.54,0,0,0,109.78,69,630.61,630.61,0,0,0,216,62c6.64.67,13.26,1.46,19.55,3.87H1027.84a27.88,27.88,0,0,1-2.66-3c-2.48-4.61-2.32-9.64-2.32-14.63q-.11-293.23-.06-586.47c0-5.66-.48-11.55,4.84-15.6Z"/><path class="cls-4" d="M.1,216.47c5.88,2.13,9.77,6.81,14,11Q204,417.4,393.91,607.36c3.52,3.52,6.75,7.34,10.12,11-6.38,2.55-13.09,2-19.72,2q-192.1,0-384.21,0Z"/><path class="cls-5" d="M.1,1862.13l267.15,0c5.64,0,11.32-.22,16.73,1.89-.66,7-6.66,6.49-11.14,7.52-29,6.69-55.55,18.51-79,37-34.88,27.46-59.85,62.65-76.11,103.46-43.48,109.11-42.94,218.63,3.19,326.6C145.26,2395.45,184.38,2439.93,244,2463c15.3,5.92,31.18,9.49,47.37,11.91,3.2.47,7.81-1.08,8.51,4.46A10.51,10.51,0,0,1,298,2482H.1Z"/><path class="cls-8" d="M1647.68.51l.1,2.09c2.33,2.42,5,4.69,4.33,8.57-2.42,7.91-7.25,4.82-11.54,2.18-4.77-2.95-9.3-6.12-17.41-4.21,9.23,9,15.18,19,25.44,24.49,3.68,2,3.45,4.22,3.45,7.16-.39,2.56-1.69,4-4.42,3.67-.72,2.9-1.35,5.83-2.16,8.71-1.46,5.16-3.33,5.73-7.68,2.22a79.14,79.14,0,0,1-5.76-5.54c-13.2-13.18-26.65-26.12-39.48-39.65-7.4-7.8-16.23-8.35-25.73-7.3-3.94.44-4.19,2.85-1.88,5.57,1.93,2.29,4.1,4.38,6.21,6.5,21,21,41.86,42,62.93,62.85,5.39,5.33,8.48,11,5.92,18.73-1.83,5.53-4,6.19-8.63,2.49a21.08,21.08,0,0,1-2.18-2.05c-21.69-23.07-46.08-43.35-68-66.13-6.23-6.46-12.3-13.12-18.05-20-7.75-9.3-18-8.9-28.43-7.9-3,.28-4.28,2.18-2.2,4.86a70.31,70.31,0,0,0,6.12,6.57c19.3,19.33,37.88,39.47,58.17,57.69,16.87,15.14,30.91,33.07,48.62,47.25,6.45,5.15,8.61,11.57,5.85,19.5-2,5.8-4.81,6.8-9.46,2.45-8.27-7.73-16.15-15.87-24.15-23.87C1562.27,82.07,1526.73,47,1491.76,11.27c-8.37-8.55-17.82-9.45-28.32-8.45-4.35.41-5.22,2.68-2.16,5.94a217.69,217.69,0,0,0,17.81,17.49A225.6,225.6,0,0,1,1508,55.19a115.45,115.45,0,0,0,12.54,12.87c33,29.15,62.52,61.79,94.13,92.33,5.58,5.39,7.88,11.41,5.1,18.91-1.64,4.44-3.77,5.22-7.43,2.43a69,69,0,0,1-6.52-6.18q-39.22-39.2-78.46-78.4c-13.2-13.16-26.21-26.5-40.39-38.68C1473,46.52,1461.68,32,1449.06,18.72a24.61,24.61,0,0,1-5.41-9.45c-1.44-4.37-4.7-6.31-9.09-6.5s-8.65-.26-13-.26l-393.71,0h0c-1.5-.65-1.5-1.31,0-2Z"/><path class="cls-8" d="M2077.52,2480c11.36-9.81,21.71-20.67,32-31.55,39.39-41.62,80.66-81.37,120.79-122.25a32.74,32.74,0,0,1,2.89-2.76c3.94-3.14,5.24-2.73,7.22,1.94,3.23,7.63,1.59,13.51-4.3,19.73-40.1,42.31-82.07,82.78-122.86,124.41-3.7,3.79-7.93,7.2-9.7,12.51h-26C2076.09,2481.36,2076.08,2480.69,2077.52,2480Z"/><path class="cls-8" d="M2129.56,2482c2.41-2.74,4.7-5.6,7.27-8.19q51-51.26,102-102.4c2.65-2.65,5.1-7.76,9.4-5.87s3.27,7.51,3.76,11.69c.47,4-1.87,6.92-4.49,9.57q-9.81,9.93-19.65,19.84-31.62,31.82-63.24,63.64c-3.5,3.53-7.28,6.87-9.09,11.72Z"/><path class="cls-8" d="M.1,1062.29c4.92,1.7,8.33,5.39,11.84,8.94,46.76,47.34,92.72,95.48,140.19,142.12,4.37,4.29,8.21,8.84,7.57,15.55-.35,3.68-2.32,4.65-5.27,2.34a74.38,74.38,0,0,1-6.51-6.18c-45.42-44.93-88.78-91.89-134.54-136.48-4-3.93-7.66-8.4-13.28-10.29Z"/><path class="cls-2" d="M2265.52,2482a30.38,30.38,0,0,1,10.76-1.93c2,0,4-.06,6-.06l1222.78,0c.76.38,1,.79.83,1.25s-.44.71-.67.71Z"/><path class="cls-8" d="M.1,998.31c4.58,1.56,7.85,4.89,11.15,8.19,20.45,20.49,41.53,40.39,61.18,61.61,22.61,24.43,46.6,47.46,69.82,71.28,5.73,5.88,10.07,12.13,8.5,20.87-3.81,1-5.33-1.72-7.06-3.5-19.68-20.3-40-39.9-59.39-60.54-24.56-26.2-50.53-51.08-75.9-76.53a22,22,0,0,0-8.3-5.39Z"/><path class="cls-8" d="M.1,1030.3c4.23,1.47,7.4,4.41,10.43,7.52,45.91,47.23,92,94.31,138.74,140.72,4.11,4.08,7.35,8.62,8.08,14.53.24,1.93.77,4.24-1.51,5.24-1.74.77-3.15-.68-4.3-1.83-9.15-9.19-18.74-18-27.19-27.84-2.59-3-5.19-6.08-8-8.9q-52.5-52.66-105.08-105.27c-3.3-3.3-6.58-6.63-11.17-8.17Z"/><path class="cls-1" d="M1027.84.51c0,.66,0,1.32,0,2L.1,2.51c.44-.62-1-2.09,1-2,2.66.09,5.33,0,8,0Z"/><path class="cls-8" d="M.1,966.31c10.78,5.31,18,14.74,25.69,23.3,10.68,11.9,22,23.14,33.23,34.47q34.44,34.71,69.11,69.19c7.19,7.1,10.4,15.56,11.44,25.4-6.67-4.16-12-9.55-16.84-15.32-6-7.15-12.51-13.78-19.09-20.37q-45.48-45.56-91-91.11c-3.75-3.75-7.29-7.82-12.58-9.56Z"/><path class="cls-8" d="M.1,934.32a22,22,0,0,1,8.27,5.45c13.92,14.29,28.3,28.11,41.84,42.81,16.22,17.6,33.49,34.25,50.43,51.19,8.64,8.65,13.12,19.46,17.79,30.23l-1.91,1.56c-6.92-6.93-14.27-13.5-20.71-20.87-20-22.82-42.33-43.27-63.41-65-7.18-7.4-14.56-14.61-21.84-21.91-3.07-3.08-6.22-6-10.46-7.47Z"/><path class="cls-8" d="M2181.54,2482c22.86-23.18,45.66-46.41,68.64-69.48,5.19-5.21,7.11-4.35,9,2.86s.92,13.33-5,18.93c-12.75,12.15-25,24.83-37.34,37.37-3.26,3.3-6.25,6.87-9.36,10.32Z"/><path class="cls-8" d="M3458.82,1546.18c-23.76-21.09-60.43-58.57-64.87-66.66,8.16,1.34,15.29,3.63,20.86,9.08,20.88,20.46,41.61,41.08,62.4,61.64,13.21,4.46,23.62,12,28.14,25.87a13.12,13.12,0,0,0,1.86,4.08v12c-3.5,4-6.87,3-10.2-.25-11.9-11.54-23.53-23.34-35.22-35.08C3458.4,1553.44,3460,1549.65,3458.82,1546.18Z"/><path class="cls-8" d="M3507.21,982.31c-8,1-13.9-2.31-19.33-8-9.87-10.32-20.21-20.19-30.37-30.23-3.07-3-6-6.24-10.26-7.72-12.27-14.51-26.56-27.06-39.69-40.73a60.75,60.75,0,0,1-6-6.63c-2.13-3-.65-5.12,2.62-5.74,5.2-1,8.9,2,12.27,5.33q18.06,17.92,36,35.95c3.54,3.52,7,7.12,11.23,9.87,19.09,10.08,33.74,24.55,43.51,43.88Z"/><path class="cls-9" d="M298,2482c-.09-.61-.18-1.21-.28-1.81-.06-5.12,4-4.57,7.11-4.92,4.62-.53,9.31-.26,14-.26q344.64,0,689.27,0c6.8,0,14.31-1.87,19.55,4.86.06.7.12,1.4.19,2.1Z"/><path class="cls-8" d="M.1,1394.22c8.75-5.48,9.19-5.67,16,1.29,22.11,22.49,44.05,45.15,66.05,67.75a23.32,23.32,0,0,1,2,2.24c2.1,2.75,4.18,5.94,1,8.83-3.49,3.19-6.16-.18-8.4-2.41q-32.14-32-64.14-64.1c-3.75-3.75-7.3-7.79-12.54-9.6Z"/><path class="cls-8" d="M3477.09,932.5q-21.62-21.29-43.24-42.58c-2.12-2.09-4.17-4.28-6.14-6.52-1.13-1.28-1.89-2.86-.87-4.54s2.64-1.91,4.33-1.92c5.53,0,9.15,3.49,12.67,7q24.88,25.1,49.72,50.25c9-1,10.48,6.48,13.65,12.08v16c-2.8,2.49-5,1.83-7.42-.86-7.7-8.44-16.25-16.08-23.82-24.66a5.07,5.07,0,0,1,.69-2.85C3476.8,933.46,3477,933,3477.09,932.5Z"/><path class="cls-8" d="M.1,1414.22c3.89,1.35,6.83,4,9.75,6.8,20.79,19.75,39.62,41.38,59.82,61.71a26.38,26.38,0,0,1,2,2.23c1.81,2.25,2.84,4.7.57,7.16s-4.84,1.78-7.11-.13c-2-1.71-3.94-3.58-5.83-5.46q-23.67-23.7-47.3-47.41c-3.53-3.54-6.95-7.24-11.89-8.9Z"/><path class="cls-10" d="M3490.94,1546.24c-17.32-15.64-33.36-32.51-51.37-50.32,9.81-1.86,15.73.1,20.69,5,15.77,15.64,31.92,30.89,46.95,47.26v14a11.33,11.33,0,0,1-2.54,1.87c-9.69-1-9.86-9.06-11.74-15.85l.26.08A10.21,10.21,0,0,0,3490.94,1546.24Z"/><path class="cls-11" d="M3507.21,2080.08l-2,0q0-100.12,0-200.25c0-6-.22-11.95-.34-17.92.1-20.59.29-41.18.31-61.77q.08-85.17,0-170.36c0-5.27-.61-10.67,2.05-15.62Z"/><path class="cls-8" d="M.1,1446.21a25.67,25.67,0,0,1,9,6.12c15.82,15.21,30.72,31.29,45.57,47.43a19.31,19.31,0,0,1,2.44,3.14c1.27,2.18,1.65,4.47-.53,6.31a4.27,4.27,0,0,1-5.54.06,62.75,62.75,0,0,1-6.74-5.89c-11.31-11.25-22.52-22.6-33.86-33.83-3.29-3.26-6.88-6.23-10.34-9.34Z"/><path class="cls-5" d="M3458.82,1546.18l38,38.63c3,3.06,6.22,5.86,10.35,7.37v2c-2.23,4.38-.3,9.11-1.15,13.61-3.62,3.53-6.91,2.16-9.95-.8-17.66-17.21-35.19-34.55-52.27-52.34-2.57-2.67-4.11-5.33-.61-8.4C3448.43,1545.91,3453.64,1548.75,3458.82,1546.18Z"/><path class="cls-12" d="M2077.52,2480c0,.68,0,1.35.05,2H1659.68v-2Z"/><path class="cls-8" d="M3507.21,928.32c-4.16-1.53-7.36-4.38-10.42-7.44q-18.6-18.63-37.23-37.22a26.14,26.14,0,0,1-2.07-2.14c-1.58-2-4.59-3.81-2.89-6.71,1.85-3.15,5.25-2.14,8.1-1.33,4,1.13,6.72,4.12,9.55,6.9l32.57,32c1.63-.39,1.55,1.33,2.39,1.92Z"/><path class="cls-8" d="M.1,1478.21c3.85,1.36,6.84,3.94,9.67,6.77,9.58,9.59,19.26,19.1,28.71,28.83,2.79,2.87,7.56,5.57,4.23,10.72-2.29,3.54-6.74,2.33-12.53-3.3-6.41-6.22-12.65-12.61-19-18.93-3.28-3.28-6.53-6.59-11.11-8.1Z"/><path class="cls-13" d="M3478.92,933.9c9.79,9.11,19.38,18.42,28.29,28.41v16c-15-14.17-30.14-28.14-43.51-43.88l13.39-1.93,0-.18C3477.7,932.88,3478.3,933.4,3478.92,933.9Z"/><path class="cls-7" d="M3504.79,622.34l2.42,0v262c-2.13.8-2.71,0-2.08-2q0-121.53,0-243C3505.11,633.62,3504.9,628,3504.79,622.34Z"/><path class="cls-10" d="M2233.53,2482c7.29-7.54,14.55-15.09,21.87-22.61a19.29,19.29,0,0,1,8.11-5.37c.19,3.58,0,7.23.65,10.72a19.49,19.49,0,0,1-4.64,17.26Z"/><path class="cls-11" d="M3505.21,2482a18.28,18.28,0,0,0-.16-2l-.09-218.19c.31-4-.25-8.2,2.25-11.8q0,112.47-.21,224.95C3507,2477.05,3510.19,2480.9,3505.21,2482Z"/><path class="cls-10" d="M.1,1510.2c10.7,5.37,17.48,15.11,25.69,23.23,2.08,2.07,2.49,4.75.11,7.09a5.14,5.14,0,0,1-7.24.45,76.55,76.55,0,0,1-6.68-6C8.39,1531.57,5,1527.83.1,1526.2Z"/><path class="cls-10" d="M3507.21,1532.2q-10.68-11-21.35-21.92a48.63,48.63,0,0,1-4.67-5.08c-1.87-2.56-1.14-4.37,2.13-4.7a14.18,14.18,0,0,1,11.66,4.23c4,3.87,8.15,7.65,12.23,11.47Z"/><path class="cls-8" d="M3505.13,882.31l2.08,2v12c-9.13-4.07-14.71-12.2-21.53-18.9-1.18-1.17-2.07-2.78-1.24-4.49,1-2.13,3.14-2.18,5.16-2.07a13.18,13.18,0,0,1,8.83,4.09C3500.78,877.29,3502.91,879.85,3505.13,882.31Z"/><path class="cls-10" d="M.1,1542.19a16.22,16.22,0,0,1,1.82.76c3.74,2.11,8.26,4.17,7.47,9.24-.72,4.64-5.49,5-9.29,6Z"/><path class="cls-13" d="M3507.21,946.32l-13.65-12.08c4.16-2.66,9.26-2,13.65-3.92Z"/><path class="cls-7" d="M3507.21,2224.05a41.52,41.52,0,0,1,0-28Z"/><path class="cls-7" d="M3507.21,2170.06a41.52,41.52,0,0,1,0-28Z"/><path class="cls-7" d="M3507.21,2116.08a41.54,41.54,0,0,1,0-28Z"/><path class="cls-14" d="M3505.33,1562.44c.63-.06,1.25-.14,1.88-.25v18l-2.14-2C3504.94,1572.9,3497.24,1567.54,3505.33,1562.44Z"/><path class="cls-13" d="M3504.8,1608.1c.46-4.7-.07-9.57,2.41-13.92v16c-.65,0-1.28,0-1.92-.09-.61-.32-.88-.72-.83-1.21S3504.64,1608.1,3504.8,1608.1Z"/><path class="cls-13" d="M3507.21,914.32l-2.39-1.92c.5-4.74-.14-9.68,2.39-14.07Z"/><path class="cls-4" d="M2265.43,1862.22l-376.29-.09q-84.84,0-169.68,0c-6,0-12-.33-17.75,1.9.07,5-4,4.61-7,4.82-3.9.27-7.85,1.06-11.77.09-2.53-2.64-5.81-3-9-2.31-4.89,1.1-9.24-.13-13.55-2.12a26.34,26.34,0,0,1-2.68-2.38l-7.93-.1c-6.31-2.22-7.14-7.36-7.11-13.08.11-20.27,0-40.55,0-60.83q0-101.25,0-202.5c0-6.29-.87-12.83,5-17.46q0-74.78.08-149.54c0-7.26-.8-14.66,3.16-21.4,1.47-2.51.2-5.11-.47-7.7-4.27-16.35-3.75-32.79-.76-49.26,4.88-2.17,6.34,1.69,8.26,4.7,7.68,12,13.87,24.93,21.38,37,2.68,4.34,5.88,11.66,11.48,8.22,6.13-3.76-.32-9.25-2.54-13.53-10.39-20-21.56-39.62-32.61-59.28a49.84,49.84,0,0,1-6-21.2,135.68,135.68,0,0,1,0-49.94c5.57-2.32,6.92,2.42,8.76,5.6,13.78,23.93,26.65,48.36,40.15,72.44,10.74,19.15,20.64,38.76,31.84,57.65,2.57,4.34,5.61,11.56,11.52,7.76,5.25-3.38-.24-9-2.46-13-28.26-52-57.55-103.5-85.54-155.68-3.08-5.74-4-12.08-4.41-18.49-2.63-16.08-3.07-32.16.14-48.23,5.6-2.36,6.88,2.45,8.75,5.61,13.41,22.6,25.57,45.91,38.31,68.89,27.93,50.31,55.51,100.82,83.56,151.07,2.77,5,6,13.78,12.25,10.13,6.75-3.92-.51-10.5-3.07-15.2-30-54.89-60.39-109.52-90.55-164.31-12.83-23.31-25.84-46.52-38.62-69.86-5.17-9.46-10.83-18.82-10.71-30.18-1.76-5.48-1.87-11.14-1.87-16.82,0-54-.29-108,.12-161.92.22-28.65,7.33-56.17,17.67-82.67,34.14-87.5,98.85-141.68,187-169.72,40.47-12.88,82.21-17.34,124.4-14.59,70.29,4.58,134.44,26.51,189.11,72.15,36.52,30.5,63,68.38,79.79,113,14.15,37.63,19.56,76.68,19.68,116.62.12,43,0,86,0,128.94,0,5.65.3,11.35-1.95,16.75-4.28,2.09-6-.93-7.69-3.89-2.33-4-4.45-8.2-7.72-11.56-2.34-2.41-5.29-5.25-8.62-3.18-4,2.49-1,5.92.48,8.65,9.62,17.44,19,35,28.82,52.32,1.81,3.21,3.65,6.34,3.65,10.21-3.26,4.39-3.19,9-2.64,14.38,1,9.39,2.39,19-1.42,28.23-5,4.64-8,3.34-11.16-2.56-16.7-31.09-34.06-61.82-50.75-92.91-2.84-5.29-5.47-10.71-9.59-15.15-2.28-2.47-5.33-5.26-8.62-3.11-3.89,2.56-.88,6.06.61,8.78,10.86,19.87,22,39.59,32.76,59.5,16.31,30.15,33.76,59.69,49.45,90.19a17.74,17.74,0,0,1,2.33,6.58c-2.85,4.6-3.55,9.31-3.24,14.89.48,8.64,2,17.59-1.71,26-6,4.5-9.09,1.64-12.22-4-21.71-39-43-78.17-64.53-117.24-13.81-25.08-27.33-50.32-41.55-75.18-.5-.86-.95-1.76-1.53-2.57-2.51-3.49-5.26-8.74-9.91-6.34-5.63,2.91-1.13,7.64.76,11.08q64.5,117.27,129.29,234.37c1.93,3.48,4,6.93,4.55,11-2.78,4-4,7.51-3.3,13.19,1.16,8.89,2.08,18.45-1.32,27.38-6.7,5.37-10.15,2.16-13.66-4.28q-45.6-83.73-91.67-167.19c-21.34-38.77-42.25-77.79-64.11-116.27-2.5-4.41-5.27-11.91-11.07-8.72-5.64,3.11.05,9,2.2,12.91q58.47,106.28,116.75,212.64c10,18.07,20.51,35.83,29.54,54.39,5.83,12,14.2,19.86,28.07,20.24,3.21.09,5.05,1.1,5.36,4.41a96.2,96.2,0,0,1,.38,12q0,216.07,0,432.13c0,6.56,1.26,13.56-4.94,18.5Z"/><path class="cls-3" d="M2265.55,1862.09l0-463.84c-1.65-2.4-7.57-3.69-2.07-8,2.82-6.94,2-14.24,2.05-21.43.11-7.55.05-15.11.07-22.66,4.61-3.91,6.22,0,8.2,3.11,6.86,10.65,11.79,22.41,18.68,33,2.58,4,5.27,10.85,10.82,7.39,4.92-3.08-.12-8.57-2.2-12.27-12.55-22.35-24.6-45-37-67.45-1.65-3-9-7.63-.53-11.83,2.66-7,1.8-14.22,1.91-21.4.12-7.53.08-15.07.11-22.61,4.63-3.89,6.4.15,8.25,3.16,9.61,15.57,18.09,31.78,26.91,47.8q20.92,38,42,75.94c1.46,2.62,2.86,5.3,5.13,7.32s4.87,4.48,7.85,2.3c2.8-2.06.57-4.92-.5-7.2-5.11-10.84-11.44-21-17.13-31.55-18.51-34.22-37.57-68.13-56-102.38-2.1-3.89-3.9-7.16,1.34-9.82,8-5.34,17.17-.14,25.44-2.82,5.71-2.24,6.82,2.7,8.59,5.9q37.58,68.2,75.33,136.3c1.93,3.49,3.53,7.22,6.77,9.77,1.87,1.48,4.07,2.79,6.3.89,1.77-1.5,1.26-3.66.51-5.55a133.34,133.34,0,0,0-7.59-15.17c-20.33-36.67-40.37-73.5-60.68-110.18a72.22,72.22,0,0,1-5.45-11.77c-.94-2.77-.27-4.55,2.91-4.83l26-.07c5.46-5.46,6.6.58,8.35,3.44,10.62,17.32,19.78,35.45,29.7,53.17,15.11,27,29.85,54.22,44.85,81.3,2.11,3.8,4.31,7.55,8.13,9.93,1.71,1.07,3.72,2,5.59.63s1.24-3.55.49-5.44a48.56,48.56,0,0,0-2.9-5.23q-32.56-59-64.89-118.13c-2.78-5.07-9.72-10.4-3.36-17.63,8.47-3.16,17.31-1.63,26-2,5.57-2.3,6.88,2.43,8.76,5.6,13.36,22.59,25.44,45.9,38.27,68.8,11.69,20.87,23.1,41.89,34.64,62.85a34.26,34.26,0,0,0,5.73,8.12c1.93,1.89,4.22,4,7,2.27,2.94-1.83,1.72-4.79.48-7.12-3-5.58-5.89-11.17-9-16.69-19.76-35.38-39-71-58.86-106.4a80.7,80.7,0,0,1-5.91-12.63c-1-2.81-.19-4.52,3-4.79l26-.08c4.43-4.84,6.14-.51,8,2.5,10.05,16.5,18.81,33.72,28.27,50.55,15.5,27.58,30.59,55.37,45.85,83.08a44.61,44.61,0,0,0,6.16,9.07c2.05,2.21,4.59,4.75,7.7,2.44,2.63-1.95,1.25-5-.06-7.28-4.65-8.09-8.71-16.49-13.28-24.62-19.1-34-37.47-68.3-56.45-102.32-2-3.55-5.32-7.51-.19-11.37,8.47-3.16,17.3-1.63,26-2,7.58-2,8.76,4.76,11,8.85q18.16,33.23,36.55,66.35,17.09,31,34.09,62a35.34,35.34,0,0,0,5,7.4c2.05,2.19,4.48,4.95,7.62,3,3.4-2.09,1.51-5.41.11-8-2.71-5-5.29-10-8-14.92-20.39-36.57-40.31-73.4-60.64-110a46.94,46.94,0,0,1-4.87-10.9c-.67-2.6.92-3.57,3.21-3.83,9.33.25,18.78-1,27.93,1.94,7-1.89,8.39,4.23,10.57,8.11,11.62,20.6,22.87,41.4,34.33,62.09q17.67,31.92,35.18,63.91a44.68,44.68,0,0,0,5.52,8.32c2.18,2.46,4.73,5.78,8.3,3.2,3.09-2.22,1.06-5.61-.41-8.11-4.22-7.2-7.79-14.73-11.85-22q-29.25-52.34-57.72-105.1c-1.89-3.51-4.67-7,.06-10.41,8.47-3.16,17.3-1.61,26-2,7.18-2.23,8.36,4.24,10.51,8,11.71,20.51,22.91,41.31,34.34,62q17.88,32.31,35.59,64.71a62.79,62.79,0,0,0,5.92,9.24c2.07,2.6,4.6,5.87,8.21,3.55,3.19-2,1.12-5.42,0-8.13-.9-2.15-2.3-4-3.4-6.1-21.8-40.77-44.76-80.92-66.52-121.72-1.93-3.63-4.44-7.06,1.29-9.53,8.49-3.15,17.32-1.65,26-1.94,6-.52,7.77,4.33,10,8.28,22.26,40.2,44.68,80.32,66.55,120.74,2.38,4.4,4.91,8.71,7.64,12.88,2.15,3.3,4.85,8.08,9.13,5.85,5-2.58,1.2-7.15-.5-10.36-8.43-15.88-17.21-31.57-25.92-47.3-14.83-26.81-29.43-53.74-44.16-80.6-2-3.68-4.32-7.11,1.37-9.55h26c5.82-2.22,7.63,2.3,9.69,6q32.78,58.86,65.12,118c3.84,7,7.55,14.08,12.13,20.63,1.9,2.72,4.82,5.84,8.26,3.83,4-2.35,1.11-6.06-.34-8.73q-25.39-47-51.24-93.69c-6.1-11.07-12.36-22.06-18-33.37-1.75-3.48-4.2-7.21.33-10.6,8.48-3.15,17.31-1.64,26-2,5.59-2.26,6.78,2.41,8.61,5.67q26.4,46.89,52.18,94.13c7.34,13.41,15,26.63,22.19,40.12a22.13,22.13,0,0,0,3.31,5c2.08,2.2,4.53,4.89,7.64,2.92,3.36-2.13,1.36-5.47.06-8-9.51-18.65-19.95-36.79-29.94-55.18-13.48-24.81-27.6-49.28-40.46-74.41-1.48-2.88-6.66-7.21.47-10.23h26c5.1-2,7.25,1.55,9.17,5.07,15.84,29.07,31.91,58,47.71,87.1,3,5.59,2.16,13.56,10.4,16.24,2,.64,1.55,4.78,1.59,7.46-.85,3.77,1.66,9.21-5,10-2.34,6.44-1.82,13.16-1.82,19.8q0,225.45,0,450.89c0,4.33.13,8.68-.22,13-.59,7.3-2.66,9.34-9.81,10.06a78.72,78.72,0,0,1-8,.21Z"/><path class="cls-7" d="M2887.11,2.88c4.39,4.56,8.69,9.21,13.16,13.68q295.45,295.52,590.91,591c4.43,4.44,9.74,8.26,11.77,14.65-105.12-.11-203.6,25.65-295.79,75.92A604.38,604.38,0,0,0,3049,822.09q-130.32,142.8-157.8,334.5c-1.86,13.12-3.14,26.31-6.1,39.46v-23.79c0-.71,0-1.42,0-2.12-5-10.78-5.26-22.19-4.58-33.76.21-3.54,1.4-6.37,4.52-8.24.07-7,.21-14,.21-21q0-542.27,0-1084.53C2885.34,16,2884.33,9.26,2887.11,2.88Z"/><path class="cls-3" d="M1647.69,12.53l.09-9.93q135,0,269.93-.08,162,0,323.92,0c3.33,0,6.67-.13,10,.07,2.84.18,6.7-1,7.86,2.57.92,2.81-2.35,4.47-4.07,6.41-1.54,1.74-3.27,3.32-4.92,5l-588.87,588.9c-2.12,2.12-4.21,4.27-6.4,6.32-1.43,1.34-2.89,3.34-5,2.63-2.8-.93-2.27-3.81-2.37-6-.18-4-.13-8-.13-12V59.47c0-5,0-10,0-15l0-5.93C1640.94,27,1641,19.56,1647.69,12.53Z"/><path class="cls-8" d="M1395.69,1061.27q0,28,0,56c0,8.66-2.07,16.35-8.55,22.68-5.28,5.16-11.17,8.25-18.62,8.24-20,0-40,.31-60-.13-15.76-.34-26-10-28.16-25.67a106.45,106.45,0,0,1-.59-14q-.07-49,0-98c0-3.33.09-6.68-.19-10-.63-7.46-2.83-10.08-10.23-11.27a90,90,0,0,0-13.94-.82c-34-.06-68,0-102-.08a62.47,62.47,0,0,1-12.92-.94c-9.84-2.12-17.87-11.25-18.19-22.48-.62-22-.71-44-.07-66,.38-12.79,9.16-21.57,21.84-23.69a91.75,91.75,0,0,1,14.93-.85q49-.11,98,0c2.33,0,4.66,0,7,0,14-.19,15.69-1.75,15.73-15.5.1-34.66,0-69.31.07-104a120.48,120.48,0,0,1,.5-14c1.51-12.94,8.41-21.39,21.28-24.68a55.88,55.88,0,0,1,13.84-1.77c15.33,0,30.66-.19,46,0,23.45.33,34.11,11,34.25,34.63.22,35.65,0,71.31.1,107,0,17.2,1,18.24,18,18.26q50.48.08,101,0c3.66,0,7.33,0,11,.1,18.06.69,27.32,10,27.9,28.27.29,9.32.11,18.66.11,28,0,9.66.11,19.33,0,29-.3,19-9.45,28.35-28.24,28.56-19.66.23-39.32.07-59,.09-16.66,0-33.33-.18-50,.12-18.57.32-20.68,2.62-20.71,20.84,0,17.33,0,34.65,0,52Z"/><path class="cls-3" d="M1647.66,1568.17q0,136.57,0,273.15c0,7-.43,14,2,20.72l-255.76.06a59.74,59.74,0,0,1-6-.18c-7.27-.72-9.34-2.69-10-9.85-.31-3.31-.21-6.66-.21-10q0-126.88,0-253.77c0-4,0-8,.41-12,.42-4.58,3.16-7.33,7.74-7.72,4.3-.36,8.64-.41,13-.42Q1523.27,1568.17,1647.66,1568.17Z"/><path class="cls-4" d="M2495.5,162.93q0-71.48,0-143c0-16.4,1.11-17.47,17.7-17.49q54.48-.06,109,0a64.46,64.46,0,0,1,8,.27c6.17.75,8.12,2.62,8.85,8.79a82.94,82.94,0,0,1,.31,10q0,137,0,273.9a118.51,118.51,0,0,1-2.1,23.86c-3.26,15.93-15.29,26.73-31.44,27q-38.47.6-77,0c-16.92-.29-28.7-10.9-32.19-27.46-1.24-5.93-1.16-11.93-1.16-17.92Q2495.5,231.9,2495.5,162.93Z"/><path class="cls-8" d="M2745.35,1244.26q33,60.51,66.05,121c4.47,8.18,9.11,16.28,13.39,24.55,3,5.77,1.73,7.61-4.85,8.28-9.17.93-15.48-1.95-20.24-10.76-24.87-46-50.33-91.65-75.61-137.41-1.44-2.62-3.12-5.12-4.68-7.67q-30.12-54.7-60.24-109.42c-6.57-12-13.21-23.91-19.51-36-3.91-7.53-2.17-9.83,6.49-10.47,8.25-.6,14,2.58,17.9,9.93,9.27,17.33,18.82,34.51,28.23,51.76q24.64,45.18,49.29,90.35C2742.69,1240.42,2744.08,1242.31,2745.35,1244.26Z"/><path class="cls-8" d="M2489.46,1244.26q30.11,54.67,60.21,109.37c6.42,11.67,12.9,23.32,19,35.13,3.58,6.88,2.26,8.76-5.35,9.36-8,.64-13.89-1.83-18-9.45q-24-44.34-48.87-88.26c-11-19.41-20.6-39.59-33-58.2-12-25.3-26.77-49.13-40.14-73.71-12.1-22.24-24.7-44.2-36.72-66.48-2.28-4.22-7.93-8.91-2.71-14.18,4.09-4.13,18.23-1.29,21.81,4,3.34,5,6.07,10.33,8.95,15.59q32.88,60,65.7,120.13C2483.42,1233.13,2486.43,1238.7,2489.46,1244.26Z"/><path class="cls-8" d="M2643.35,1244.26c11,22.86,24.06,44.55,36.05,66.84,13.25,24.64,26.86,49.09,40.31,73.63a43.3,43.3,0,0,1,2.69,5.36c1.78,4.75.59,6.76-4.37,7.75-8.8,1.76-14.65-.67-19.17-8.75q-25.35-45.36-50.44-90.88l-31-56L2572,1160.17q-17.41-31.44-34.85-62.87a25.81,25.81,0,0,1-1.76-3.58c-1.66-4.53-.75-6.22,3.7-7.14,10.25-2.11,17.37.72,22.65,10.06,9.48,16.81,18.51,33.87,27.8,50.79q25.23,45.93,50.55,91.82C2641,1241,2642.26,1242.6,2643.35,1244.26Z"/><path class="cls-8" d="M2693.43,1242.26c11,22.78,23.94,44.54,35.93,66.79,14.2,26.36,28.81,52.5,43.15,78.8,4.17,7.66,2.67,9.91-6,10.28-7.77.33-13.2-2.59-17-9.63-12.71-23.39-25.82-46.55-38.69-69.85q-18.57-33.64-37-67.39c-1.59-2.92-3-6-4.43-8.94-11.84-17.4-20.56-36.57-31-54.76-16.62-28.87-32.33-58.26-48.36-87.46-1.87-3.4-5.48-6.95-3.11-10.93,2.62-4.4,7.76-2.64,11.94-2.69,5.93-.07,9.94,2.94,12.75,8.09,9.12,16.65,18.37,33.23,27.58,49.84C2657.23,1177,2674.51,1210.11,2693.43,1242.26Z"/><path class="cls-8" d="M2591.44,1244.25q37.83,68.74,75.67,137.47c.8,1.46,1.55,3,2.3,4.43,5.15,10.1,3.81,12.14-7.18,12-6.75-.06-11.2-2.91-14.42-8.78-8.3-15.21-17-30.22-25.35-45.38q-27.57-49.85-55-99.78-27.33-49.35-54.64-98.72-13.28-24-26.44-48.13c-4.44-8.15-2.92-10.58,6.31-11.06,8.06-.42,13.72,2.21,17.83,9.82C2537.3,1145.62,2564.43,1194.91,2591.44,1244.25Z"/><path class="cls-8" d="M2795.42,1242.27q27,49.53,54,99c8.45,15.48,17,30.9,25.37,46.43,4.05,7.51,2.36,10-6.29,10.37-7.24.28-12.79-2-16.5-8.75q-40.2-73.6-80.64-147c-11.58-20.62-23.27-41.18-34.72-61.87q-22.74-41.09-45.18-82.35c-5.3-9.7-3.79-11.85,7.39-11.79,7.08,0,12,2.84,15.39,9,9.26,17,18.7,33.81,28.05,50.72Q2768.87,1194.16,2795.42,1242.27Z"/><path class="cls-8" d="M2335.55,1242.29q27,49.51,54,99c8.45,15.48,17,30.9,25.38,46.42,4,7.51,2.34,10-6.31,10.37-7.24.28-12.79-2-16.5-8.76q-40.18-73.59-80.64-147a27.55,27.55,0,0,1-13.62-12.76c-8.42-15.35-16.92-30.65-25.3-46-3.93-7.22-4.7-15.49-7-23.25q-15-27.48-30-55c-1.59-2.9-3.34-5.73-4.79-8.71-4.11-8.41-2.83-10.08,6.82-10.44,7.73-.28,13.47,2.22,17,9.45,2.75,5.65,6,11.08,9,16.61q30.77,56,61.56,111.91C2328.47,1230.24,2332.06,1236.24,2335.55,1242.29Z"/><path class="cls-8" d="M2387.47,1244.26q32.1,58.66,64.22,117.32c5.11,9.34,10.5,18.54,15.3,28,3,5.88,1.59,7.76-4.78,8.46-8.85,1-15.25-2-19.66-10.21q-17.67-33-36.11-65.58c-15.07-26.63-28.67-54.1-44.93-80.07-13-25.51-27.05-50.42-41-75.4-12.49-22.37-24.63-44.92-36.91-67.41a51.14,51.14,0,0,1-3-6.28c-1.38-3.68.34-5.58,3.93-6.44,9.52-2.29,16.54.64,21.63,9.82,15.33,27.63,30.49,55.36,45.72,83Q2369.65,1211.92,2387.47,1244.26Z"/><path class="cls-8" d="M2437.53,1242.29q25.84,47.26,51.69,94.52c8.63,15.75,17.38,31.43,26,47.17a41.29,41.29,0,0,1,3,6.3c1.67,4.84.47,6.73-4.53,7.62-8.83,1.58-14.32-.71-19.13-9-7.19-12.35-14-24.91-21-37.43q-30.12-54.6-60.17-109.22-19.18-34.46-38.38-68.9t-38.15-69a15.27,15.27,0,0,1-1.48-2.59c-1.45-4.67-8-8.8-3-14.13,3.61-3.83,17.38-1,21.06,3.8a93.61,93.61,0,0,1,7.37,11.86c15.35,28,30.56,56.11,46,84.1C2417,1205.75,2427.29,1224,2437.53,1242.29Z"/><path class="cls-8" d="M2539.53,1242.3q25.83,47.27,51.68,94.53c8.63,15.74,17.37,31.43,26,47.16a41.23,41.23,0,0,1,3,6.3c1.67,4.84.46,6.73-4.55,7.61-8.84,1.57-14.36-.69-19.11-9-9.1-15.86-17.85-31.93-26.69-47.94q-27.24-49.34-54.43-98.71-34-61.62-68.09-123.25c-4.5-8.16-9.11-16.26-13.4-24.53-2.72-5.26-1.49-7.27,4.23-8,10.65-1.43,16.17,1.06,21.44,10.63,18.93,34.4,37.67,68.92,56.55,103.36C2523.87,1214.45,2531.74,1228.35,2539.53,1242.3Z"/><path class="cls-8" d="M1649.59,1110.45q67.25,121.5,134.48,243c6.44,11.65,12.86,23.33,19.1,35.1,3.61,6.82,2.36,8.91-5.24,9.47-8.09.59-14.56-.89-19.1-9.19q-64.29-117.43-129.16-234.55A108.3,108.3,0,0,1,1649.59,1110.45Z"/><path class="cls-8" d="M2885.11,1356.12c-8.92-11.31-14.21-24.72-21.24-37.12-14.43-25.43-28.36-51.14-42.49-76.74q-30.42-55.58-60.85-111.13c-5.6-10.21-11.33-20.34-16.89-30.56a47.67,47.67,0,0,1-3.55-8.21c-.83-2.62.52-4.4,3.11-5.37,7.21-2.68,16.75.17,20.94,7.21,7,11.71,13.44,23.72,20,35.67,17,30.89,33.84,61.85,50.85,92.73,4,7.27,7.11,15.06,12.24,21.7,4.61.76,7.31,4,9.41,7.68,10.59,18.84,21.65,37.45,29.29,57.78a19.15,19.15,0,0,1,1.5,8.55c.39,9.76,1.47,19.45,2.19,29.16C2889.86,1350.72,2890.69,1355.4,2885.11,1356.12Z"/><path class="cls-8" d="M1027.81,562.41c-3.19-2.91-6.51-5.69-9.57-8.74q-72-71.88-144-143.88c-2.63-2.64-8-5.06-6-9.23,1.82-3.84,7.2-1.87,11.05-2,6.11-.15,10.68,3,14.81,7.15,11.26,11.33,22.6,22.57,33.9,33.84,24.47,24.44,49,48.82,73.38,73.37,8,8,17.75,14.11,24.44,23.44,17.2,15.25,32.77,32.18,49.17,48.26a17.82,17.82,0,0,1,2.58,3c1.94,3,1.09,5.24-2.32,5.95-7.13,1.49-13.93.59-20-3.82a76.13,76.13,0,0,1-14.87-14.7A62.86,62.86,0,0,0,1027.81,562.41Z"/><path class="cls-8" d="M1009.8,594.43c-3.68-3.37-7.49-6.62-11-10.14-19.61-19.5-38.82-39.43-58.8-58.54C900.48,488,861.81,449.38,823.24,410.67c-2.9-2.92-8.81-5.77-7-9.85,2.12-4.65,8.37-2,12.84-2.06a14.69,14.69,0,0,1,10,4.11c1.74,1.56,3.44,3.15,5.09,4.8,56.56,56.53,114.66,111.5,170.64,168.61,3.49,3.57,7.33,6.78,11,10.16,3.15,6.75,3,7.35-3.37,7.79C1018.25,594.53,1014,594.38,1009.8,594.43Z"/><path class="cls-8" d="M1027.82,512.42c-3-2.67-6-5.22-8.88-8q-47.73-47.6-95.34-95.3c-2.41-2.42-7.28-4.58-5.38-8.55,1.73-3.63,6.59-1.81,10.12-2,7.33-.4,12.42,3.69,17.27,8.56q34.51,34.68,69.23,69.17c3.53,3.52,7.32,6.77,11,10.15,4.07,4.37,7.8,9.14,12.29,13,27.91,24.22,52.61,51.71,79,77.42,2.64,2.56,7.75,5.24,5,9.58s-8.18,3.7-12.86,3c-3.42-.53-6.14-2.6-8.4-5.06-20-21.79-44.35-39.2-62.92-62.46C1035.13,518.33,1031.23,515.56,1027.82,512.42Z"/><path class="cls-8" d="M1027.86,462.41a624.23,624.23,0,0,0-44.45-44.36,168.55,168.55,0,0,1-12.89-12.46c-3.17-3.56-2.07-6.22,2.64-6.77,7.73-.91,15.32-.77,21.37,5.45,10.42,10.72,21.65,20.66,31.32,32.12,11.43,9.72,21.6,20.74,32.21,31.3,26.42,26.29,52.66,52.76,79.14,79,8,8,16.68,15.27,24.83,23.1,2.44,2.35,6.71,4.74,4.28,9-2,3.52-6.31,3.18-10,3.15s-7-1.7-10.11-3.82A67.42,67.42,0,0,1,1131,563.82a104.71,104.71,0,0,0-14.24-15.35c-27.45-23.78-51.77-50.78-77.85-76C1035.31,469.05,1031.54,465.77,1027.86,462.41Z"/><path class="cls-8" d="M1649.53,1202.53q48.23,87.35,96.45,174.71c2.41,4.36,4.77,8.77,6.87,13.29,1.82,3.94.18,6.27-4,7.24-9.54,2.22-16.21-.43-20.89-8.94q-33.71-61.18-67.26-122.43l-11.06-20.11A109.48,109.48,0,0,1,1649.53,1202.53Z"/><path class="cls-8" d="M1027.87,412.41c-2.15-2.49-4.39-4.9-6.42-7.49-3.16-4-2.71-5.18,2.4-6.33a22.26,22.26,0,0,1,3.93-.22c7-.19,12.9,1.82,18,6.94,19.75,19.78,39.46,39.6,60.11,58.48,10.28,9.39,18.65,20.88,28.89,30.33,21.79,20.09,42.71,41,63.68,62,1.88,1.89,3.85,3.7,5.58,5.72,5,5.81,3.79,9.09-3.84,10.84-4.16,1-8,.49-11.24-2.4-2.24-2-4.37-4.09-6.52-6.18-11-10.66-21.41-21.85-33.25-31.67-7.4-6.13-13.91-13.33-20.14-20.76a152,152,0,0,0-16.55-17.29c-25.71-22.27-48.47-47.53-72.9-71.1C1035.78,419.54,1031.79,416,1027.87,412.41Z"/><path class="cls-8" d="M1661.68,2048.1c3.62-3.91,7.14-7.92,10.89-11.7q52.83-53.19,105.7-106.34c11.49-11.59,22.56-23.6,34-35.2,6.42-6.49,11-7.12,18.88-3.56,4.34,2,5,3.92,2.14,7.59a85.2,85.2,0,0,1-6.87,7.24q-65.24,65.53-130.48,131c-11.51,11.55-21.67,24.44-34.35,34.84C1658.81,2064,1659.28,2056.07,1661.68,2048.1Z"/><path class="cls-8" d="M1078.14,395.56a13.94,13.94,0,0,1,11.18,3.5c6.1,5.16,12.34,10.13,18,15.82,33.38,33.51,66.93,66.85,100.28,100.4,9.16,9.22,18.76,17.94,28.51,26.51a36.9,36.9,0,0,1,4.23,4.25c2.58,3.16,7.47,5.68,4.3,10.86-2.33,3.82-11.21,5.17-15.6,2.72a17.87,17.87,0,0,1-3.93-3c-8.65-8.77-17.94-16.92-25.65-26.59a171.58,171.58,0,0,0-20.83-21.52c-30.51-26.91-57.89-57-87-85.29q-9.33-9-18.34-18.4c-1.73-1.8-4.83-3.46-3.25-6.59,1.14-2.26,4.06-1.91,6.3-2.39A11.28,11.28,0,0,1,1078.14,395.56Z"/><path class="cls-8" d="M1440,53.59c0-.66,0-1.34.12-2,.39-2.61.22-5.74,2.89-7.09,3.06-1.55,4.72,1.44,6.71,3,.51.41,1,.93,1.43,1.39,21,20.46,41,41.85,63,61.29,20.24,17.89,37,39.25,56.32,58.1,7.39,7.21,14.49,14.7,22.67,21.09a62.76,62.76,0,0,1,11.73,12.24c2.76,3.72,3.76,7.65,2.06,12.19-2.35,6.28-5,7.07-10.12,2.69-1.52-1.29-2.86-2.79-4.3-4.18-25.87-25-50.18-51.56-77.11-75.51-9.65-8.58-16.84-19.81-27-28.06-15.28-12.48-28.24-27.32-42.38-41C1442.11,63.94,1439.72,59.34,1440,53.59Z"/><path class="cls-8" d="M2883.32,1216.31c2.4,15.3,3.62,30.6.07,45.9-8.8-1-13.57-9.57-10-18q-29.1-53-58.18-106c-7.69-14-15.45-28-22.89-42.15-3.9-7.43-2.55-9.2,5.81-9.76,8.08-.55,13.85,2,17.93,9.65q21.47,40.1,43.78,79.72C2867.51,1189.32,2873.9,1203.7,2883.32,1216.31Z"/><path class="cls-8" d="M1306.25,531.06c-4.89-.09-7.73-3-10.57-5.81q-16.64-16.53-33.21-33.15-21.56-21.54-43.09-43.06c-8.25-8.22-16.45-16.45-25.45-23.92-13.63-11.29-23.87-25.92-36.46-38.28-4.09-4-3.11-6.21,2.41-8.77,5.35-2.49,10.23-2.56,14.56,2.08,2,2.19,4.27,4.2,6.39,6.32,29.66,29.65,59.23,59.4,89,88.92,12.53,12.4,25.54,24.31,38.32,36.45a56.41,56.41,0,0,1,4.21,4.26c2.28,2.68,6.34,4.95,4.36,9.19S1310.22,530.58,1306.25,531.06Z"/><path class="cls-8" d="M1437.71,87.26a13.52,13.52,0,0,1,3,1.59c2.27,1.94,4.42,4,6.54,6.15q36.77,36.72,73.49,73.45c8,8,16.15,15.82,24.72,23.25,15.88,13.75,28.33,30.89,43.57,45.33a10.39,10.39,0,0,1,3.59,8c-.14,3.48-1.15,6.74-4.6,8.26-2.93,1.3-5.21-.65-7-2.64-14.39-16.17-32.71-28.34-46.2-45.5a132.06,132.06,0,0,0-16.83-17c-28.56-25.08-54.1-53.22-81.26-79.73-6.14-6-6.75-11.28-3.21-18C1434.32,88.88,1435.2,87.53,1437.71,87.26Z"/><path class="cls-8" d="M1123.16,387.88a12.61,12.61,0,0,1,11,4c4.53,4.42,9,8.92,13.51,13.35,10.93,10.73,21.41,21.91,33.33,31.63,10.89,8.88,18.43,21.08,28.84,30.44,22.06,19.83,42.81,41,63.8,61.93a31.75,31.75,0,0,1,3.5,3.56c2.13,3,7.47,4.82,4.36,9.76-2.54,4-11.25,5.22-15.49,2.33a48.5,48.5,0,0,1-6.68-6c-25-24.95-49.89-50-75-74.86-8.51-8.42-17.64-16.22-26.31-24.5-9.16-8.74-16.47-19.21-25.82-27.81-4.91-4.51-9.6-9.23-14.86-13.35-2-1.58-4.78-3.26-3.71-6.43.83-2.49,3.61-2.71,5.83-3.33A34.19,34.19,0,0,1,1123.16,387.88Z"/><path class="cls-8" d="M1349.4,505.17c.47,5-7.4,9.3-13,7.21-3.21-1.2-5.25-4-7.83-6.09-19.28-15.54-34.15-35.55-52.4-52-23-20.79-44.19-43.41-66.46-64.93-4.31-4.17-8.52-8.45-12.71-12.73a32.83,32.83,0,0,1-3.83-4.59,4.08,4.08,0,0,1,.45-5.46c3.62-3.91,11.11-4.67,15.51-1.51a5.3,5.3,0,0,1,.77.65c18.58,20.49,41.2,36.86,59.07,58.1a156,156,0,0,0,18.12,18.58c20.38,17.28,38.12,37.23,57.29,55.72C1346.54,500.17,1348.84,502.21,1349.4,505.17Z"/><path class="cls-8" d="M1424.87,127.2c2.21,0,3.72,1.34,5.16,2.71,16.91,16,34.87,30.87,49.77,49a169.76,169.76,0,0,0,19.6,19.9c25.18,21.87,47.5,46.62,71.33,69.84,5.89,5.73,6.39,9.22,3.26,13.91-2.77,4.15-5.65,4.6-9.94,1-5.63-4.67-11.83-9-16.38-14.57-11.4-14.06-25.92-24.83-38.35-37.78-15.21-15.85-30.58-31.6-46.68-46.53-13.15-12.22-25.15-25.58-38.51-37.55-5.69-5.1-6.58-10.74-3-16.94C1422,128.71,1423,127.43,1424.87,127.2Z"/><path class="cls-8" d="M1536.28,338.17a11.26,11.26,0,0,1-6.16,9.48c-3.68,1.9-6.34-.5-8.83-2.78-2-1.8-3.83-3.71-5.72-5.59L1394.7,218.42q-3.18-3.18-6.25-6.46c-3.46-3.69-3.55-7.61-1-11.86,3.38-5.53,6-6.07,11-1.69,2.76,2.41,5.26,5.11,7.85,7.7l63.63,63.6c7.53,7.53,15.06,15,23.32,21.84a113.34,113.34,0,0,1,14.7,14.93,142,142,0,0,0,21.15,21.16C1532.58,330.31,1536,333.12,1536.28,338.17Z"/><path class="cls-8" d="M1557.64,309.44c-.79,3.58-2.55,6.79-6.14,8.39-3.29,1.47-5.73-.67-8-2.72-2-1.8-3.84-3.7-5.73-5.58q-34.29-34.27-68.57-68.53c-9-8.94-17.77-18-27.61-26-13.19-10.79-22.48-25.43-35.37-36.62-4-3.48-2.78-10.55,1.48-14.1a4.12,4.12,0,0,1,4.61-.85,10,10,0,0,1,3.29,2.18c14.79,16.29,33.32,28.73,47.08,46.08a160.58,160.58,0,0,0,21,21.39c24.5,21.16,46.07,45.29,69.29,67.74C1555.35,303.09,1557.79,305.48,1557.64,309.44Z"/><path class="cls-8" d="M1513.79,367.91a10.3,10.3,0,0,1-5.28,7.59c-3.11,1.81-5.79.43-8.14-1.69s-4.36-4.1-6.48-6.22q-33.21-33.16-66.39-66.36c-7.53-7.52-15.11-15-23.32-21.81-13.32-11.12-23.25-25.58-35.76-37.56-2.87-2.76-3.75-6.2-1.73-10,2.45-4.64,6.16-5.91,10.73-3.31,4.09,2.34,7.22,5.86,10.52,9.15q42.74,42.7,85.46,85.41c8.48,8.46,16.68,17.19,26.18,24.59a56.84,56.84,0,0,1,12,13.35A10.46,10.46,0,0,1,1513.79,367.91Z"/><path class="cls-8" d="M1236.61,346.27c3.57.08,5.93,2,8,4.12,10.17,10.48,22,19.11,31.34,30.64,6.61,8.18,15.6,14.4,23.16,21.86,19.41,19.16,38.55,38.6,57.95,57.77,6.38,6.29,13.4,11.94,19.87,18.15,5.24,5,5.67,7.59,2.84,11-4.15,5-10.14,6-15,2.33a68.81,68.81,0,0,1-6.52-6.16c-16.71-16.68-33.33-33.46-50.13-50.06-13-12.84-25.51-26.18-39.58-38-14.57-12.2-25.81-27.73-39.37-41-1.67-1.63-3.62-3.59-1.87-6C1229.62,347.77,1233.18,346.69,1236.61,346.27Z"/><path class="cls-8" d="M1325.73,280.56c3.54.32,5.62,2.57,7.73,4.66q13.47,13.35,26.85,26.78,33.18,33.17,66.34,66.33c7.29,7.29,14.58,14.55,22.58,21.11A95,95,0,0,1,1462.39,413c4.11,5,3.62,8.08-.63,12.19s-7.16,4.13-12.11,0c-2-1.71-3.84-3.67-5.72-5.56Q1384.29,360,1324.66,300.35c-1.88-1.88-3.77-3.76-5.56-5.72-2.13-2.31-3.79-4.9-1.72-8S1321.89,280.81,1325.73,280.56Z"/><path class="cls-8" d="M1298.06,305.17c2.89-.09,4.77,1.35,6.36,3.06,9.09,9.71,20.44,17,28.54,27.87,5.57,7.45,13.53,12.81,20.18,19.29,27.66,27,54.92,54.38,82.2,81.76,5.23,5.25,4.67,9-.85,13.19-3,2.32-6.07,2.75-9.09.25-2.3-1.9-4.46-4-6.58-6.11q-30.08-30-60.11-60c-10.16-10.09-20.08-20.39-31.12-29.61-13.06-10.91-23.59-24.4-35.1-36.88-1.86-2-3.43-4.37-1.94-7.19A10.63,10.63,0,0,1,1298.06,305.17Z"/><path class="cls-8" d="M1409.54,466.42c-.19,4.7-6.54,7.92-11.58,5.77-3.14-1.33-5.29-4-7.71-6.26-15.7-14.86-30.67-30.47-46.12-45.54-25.5-24.86-51-49.72-76.25-74.85-1.66-1.64-3.4-3.21-4.92-5-2.28-2.64-6.08-4.95-2.68-9.25,3.7-4.67,9.72-6,14.07-2.83a50.72,50.72,0,0,1,5.87,5.41c14.14,14.11,28.18,28.33,42.42,42.35,13.28,13.07,26.1,26.58,40.31,38.74,16,13.66,29,30.25,43.57,45.34C1408.14,462,1409.62,463.86,1409.54,466.42Z"/><path class="cls-8" d="M1350.16,255.14a7.53,7.53,0,0,1,5.11,2.1c2.21,2,4.36,4.11,6.48,6.23q42,42,84,84.08c10.56,10.63,22.7,19.56,32.78,30.71a96.4,96.4,0,0,1,9.49,11.56c2.67,4.09,1.75,7.54-1.77,10.57s-6.68,2.27-9.84-.46c-.75-.66-1.49-1.34-2.21-2-34.12-32.25-67.83-64.91-100.4-98.71-9.68-10.05-18.82-20.66-28.85-30.4-2.28-2.22-3.94-4.72-1.9-7.94C1344.92,258,1347.24,255.69,1350.16,255.14Z"/><path class="cls-8" d="M1661.68,1994.39,1760.57,1894c3.51-3.56,7-7.14,10.59-10.61,6.72-6.51,12.68-7.28,20.71-3,3.19,1.7,3.44,3.8,1.37,6.43a42,42,0,0,1-3.37,3.69q-61.41,61.57-122.84,123.12c-1.65,1.65-3.48,3.1-5.23,4.65C1658.83,2010.33,1659.18,2002.37,1661.68,1994.39Z"/><path class="cls-8" d="M1661.68,1940.34c21.19-21.55,42.57-42.92,63.46-64.76,6.2-6.48,12.8-7.5,20.73-5.27,5.39,1.52,6.07,3.31,2.8,7.54a31.24,31.24,0,0,1-2.73,2.91q-40.1,40.23-80.21,80.45c-1.87,1.87-4,3.52-6,5.27C1659.89,1957.73,1658.74,1948.89,1661.68,1940.34Z"/><path class="cls-8" d="M1649.69,1296.23q18.7,33.45,37.4,66.91c4.68,8.41,9.38,16.82,13.77,25.38,3.78,7.38,2.51,9-5.91,9.61s-14.44-2-18.64-10c-8.46-16.17-17.71-31.93-26.64-47.85A106.45,106.45,0,0,1,1649.69,1296.23Z"/><path class="cls-8" d="M2885.12,1128.14l.06,42c-8.39-9.21-12.81-20.86-19-31.38-7.61-12.82-14.3-26.18-21.39-39.3-.79-1.46-1.68-2.88-2.36-4.38-3-6.54-2-8.07,5.2-8.75,9.53-.91,16.58,1.9,21,11.19C2873.58,1108,2879.57,1118,2885.12,1128.14Z"/><path class="cls-3" d="M2873.38,1244.24q5,9,10,18c4.16,6.32,4.12,13.43,3.84,20.58-1.52,6.87-.76,13.73-.32,20.66.23,3.55,2.63,7.9-1.73,10.88-12.87-23.23-26.26-46.17-37.95-70C2855.94,1241.32,2864.66,1241.75,2873.38,1244.24Z"/><path class="cls-8" d="M1683.54,1864c6-1.46,12.11.42,18.17,0,2.4.9,4.37,2.11,2.85,5.11a12.81,12.81,0,0,1-2.42,3.14c-13.49,13.27-26.28,27.25-40.49,39.79-3-7.73-1.71-15.79-1.91-23.74a7.26,7.26,0,0,1,.8-4.2C1666.44,1875.43,1672,1866.27,1683.54,1864Z"/><path class="cls-3" d="M1661.76,1886.39l-2,1.94c-3.23-8.53-1.68-17.44-2.07-26.19h2C1668.46,1869.54,1662.88,1878.15,1661.76,1886.39Z"/><path class="cls-7" d="M1027.65,2479.9q-95.87,0-191.71.1-263.1,0-526.2,0c-4,0-8,.12-12,.18-37.68-2.18-71.42-15.26-101.82-37.21-36.94-26.69-62.43-62.54-80.75-103.66-21.69-48.7-32.2-99.92-33.48-153.23-1.12-46.65,3.43-92.48,16.79-137.3,8.42-28.24,19.88-55.18,35.48-80.2,35.05-56.22,83.43-93.49,150-104.57,42.63-3.87,85.35-1.27,128-1.92,3.91-5,7.86-1.76,11.43.26,27.84,15.69,56.06,30.71,84,46.19,41.95,23.21,84.11,46.06,126.07,69.24,2.29,1.26,4.63,2.53,7.91,1.63-.75-4.65-4.52-5.75-7.5-7.42-56-31.45-112.43-62.28-168.68-93.35-4.38-2.42-8.52-5.21-12.89-7.62-3-1.62-4.53-3.79-3.88-7.25,11.69-3.43,23.68-1,35.5-1.8,4.84-6.32,9.29-.88,13,1.12q42.88,23.33,85.6,47c16.54,9.21,33.33,18,49.82,27.26,2.75,1.54,5.59,3.41,9.2,2.33-.44-4.63-4-5.63-6.74-7.14-35-19.12-69.8-38.49-104.78-57.59-4.46-2.44-10.36-3.93-9.72-11,7.69-3.09,15.77-1.54,23.68-1.88,4-.17,8,0,12-.07,5.82-6.2,10.46-.21,14.76,2.07,20.6,10.89,40.75,22.61,61.4,33.42,2.81,1.48,5.47,3.81,9.57,2.76-.55-5.17-4.63-6.49-8-8.2-11-5.64-21.58-11.89-32.44-17.71-4-2.16-9.83-3.74-8.9-10.5,8-3,16.4-1.39,24.62-1.78,3.64-.17,7.28-.12,10.93-.17,8.55-3.48,16.8.85,19.88,10.43.63-.18,1.7-.19,1.84-.55,3.26-8.68,10-9.84,18.33-9.83q175.32.25,350.65.13c3,0,6,.18,9,.28.09,20.65.25,41.31.25,62q0,269.31,0,538.63C1027.89,2468.58,1027.73,2474.24,1027.65,2479.9Z"/><path class="cls-8" d="M651.52,1427.33c-.16,6.69-3.44,8.57-9.91,5.14-13-6.87-25.77-14-38.6-21q-84.45-46.56-168.88-93.17c-6.12-3.38-12.21-6.82-18.32-10.23-3.3-1.83-6.23-4.07-7-8-.73-3.58-1.71-7.66,1.44-10.35s6.29.08,9.11,1.64q73.56,40.42,147.08,80.93c23.06,12.68,46.19,25.24,69.25,37.91,3.79,2.08,7.51,4.32,11.1,6.73S651.64,1423.07,651.52,1427.33Z"/><path class="cls-8" d="M651.6,1783.33c-.23,8.58-3.27,10.31-10,6.72-18.2-9.74-36.26-19.76-54.34-29.71q-64.77-35.64-129.5-71.33c-13.41-7.39-26.79-14.85-40.23-22.21-5.62-3.08-9.69-7-9.28-14.06.33-5.59,2.6-7.28,7.76-5.29a68.46,68.46,0,0,1,8,4.15l134,73.57q42,23.08,84.06,46.14C647.58,1774.36,652,1778.1,651.6,1783.33Z"/><path class="cls-8" d="M651.62,1625.24c-.07,8.42-2.76,10-9.48,6.35-18.73-10.15-37.37-20.45-56-30.75Q514,1561,441.94,1521.16q-12.68-7-25.31-14.07c-4.91-2.76-8.28-6.54-8.42-12.61-.16-6.86,2.21-8.85,8.29-5.84,8.64,4.28,17,9.14,25.45,13.78l160.16,87.93c13.42,7.37,26.78,14.83,40.26,22.1C648.1,1615.54,651.9,1619.65,651.62,1625.24Z"/><path class="cls-8" d="M651.64,1545.15c-.21,8.63-3.17,10.34-9.95,6.74-15-8-29.8-16.28-44.68-24.48q-75.22-41.49-150.45-83c-10.49-5.8-20.88-11.79-31.34-17.63-4.84-2.7-7.29-6.66-6.91-12.26s2.73-7.25,7.79-5.29a60.35,60.35,0,0,1,7.13,3.61q54.31,29.75,108.62,59.55,55.14,30.31,110.23,60.74C647.67,1536.21,652.2,1539.77,651.64,1545.15Z"/><path class="cls-8" d="M651.58,1824.18c.16,7.09-2.79,9.36-9.21,6-16.51-8.64-32.8-17.71-49.12-26.71q-64.26-35.43-128.48-71-23.59-13-47.2-26.07c-4.75-2.65-9-5.74-9.29-12-.34-7,2.7-9.52,9-6.47,9.26,4.52,18.26,9.59,27.3,14.57q84.84,46.71,169.66,93.48c9.62,5.3,19.32,10.44,28.91,15.79C649.67,1815.49,651.45,1818.28,651.58,1824.18Z"/><path class="cls-8" d="M651.54,1745.06c-.09,6.77-3.38,8.78-9.76,5.43-12.08-6.35-24-13-36-19.56q-93.6-51.71-187.2-103.38c-6.31-3.47-11.15-7.32-10.31-15.32.54-5.08,2.65-6.54,7.32-4.86a33.84,33.84,0,0,1,4.44,2.28q108.61,59.63,217.22,119.29c3.2,1.76,6.32,3.7,9.35,5.75C650.23,1737.14,651.59,1740.8,651.54,1745.06Z"/><path class="cls-8" d="M651.6,1505.52c-.05,7.79-2.76,9.89-8.74,7-9.85-4.84-19.45-10.2-29.07-15.5Q518,1444.16,422.34,1391.26c-3.19-1.77-6.28-3.76-9.31-5.81a11,11,0,0,1-4.7-8.43c-.77-7.52,2.47-10.15,9.3-6.81,9,4.39,17.65,9.32,26.4,14.14q64.74,35.64,129.43,71.33,34.13,18.78,68.33,37.4C647.38,1496.12,652,1499.53,651.6,1505.52Z"/><path class="cls-8" d="M651.56,1465.67c0,7.78-3,10-8.74,7-11.85-6.07-23.52-12.5-35.19-18.93Q522.77,1407,438,1360.14q-11.35-6.27-22.66-12.68c-5.54-3.15-7.75-8-6.86-14.3.53-3.71,2.69-5.37,6.33-4.1a47.81,47.81,0,0,1,7.19,3.43q89.32,49,178.61,98.11c13.71,7.53,27.41,15.11,41.15,22.61C647.25,1456.22,651.8,1459.84,651.56,1465.67Z"/><path class="cls-8" d="M651.45,1387.59c-.1,6.19-3.31,8.31-9.2,5.46-7.19-3.49-14.13-7.48-21.12-11.34q-80.4-44.49-160.78-89c-14.57-8.06-29.21-16-43.7-24.18-7.19-4.06-9.53-8.94-8.24-15.41.75-3.74,2.82-5.2,6.44-3.75a50.5,50.5,0,0,1,5.3,2.78q100.22,55.11,200.42,110.22,11.82,6.5,23.58,13.08C648.87,1378.07,651.58,1382,651.45,1387.59Z"/><path class="cls-8" d="M651.57,1585.46c.17,8.26-2.71,9.81-10,5.82q-39.43-21.54-78.78-43.23-64.29-35.37-128.57-70.77c-6.41-3.54-12.78-7.15-19.18-10.72-3.7-2.06-6.31-4.94-6.63-9.34-.23-3.25-1.29-7.06,1.88-9.26,3-2.07,5.67.6,8.2,2q91,50.08,181.88,100.23c14.28,7.87,28.53,15.79,42.85,23.59C648.23,1576.52,651.74,1580.11,651.57,1585.46Z"/><path class="cls-8" d="M592.41,1863.81c17.21,9.31,34.37,18.69,51.63,27.89,5.78,3.09,7.92,7.74,7,14-.64,4.51-2.66,5.86-6.85,4.26a73.66,73.66,0,0,1-8.86-4.49Q595.66,1883.73,556,1862q-69.15-38-138.34-75.92c-6.14-3.35-10.06-7.45-9.47-14.84.46-5.82,2.49-7.44,7.65-4.88,7.74,3.84,15.21,8.24,22.8,12.41q67.39,37,134.77,74.11C579.79,1856.39,586.07,1860.15,592.41,1863.81Z"/><path class="cls-8" d="M651.5,1703.62c-.17,8.12-3.36,10.2-9.29,7.32-6.58-3.19-12.89-6.94-19.3-10.48q-97.1-53.51-194.18-107c-4.67-2.57-9.25-5.3-13.85-8-2.64-1.54-5-3.47-5.81-6.55-1-3.89-2.23-8.3,1.19-11.26,3.14-2.72,6.24.44,9,2q78.32,43.1,156.58,86.26,33.25,18.31,66.54,36.53C647.7,1695.31,651.67,1699,651.5,1703.62Z"/><path class="cls-8" d="M651.48,1664.14c-.17,7.35-3.19,9.7-8.53,7.18-8.42-4-16.55-8.59-24.71-13.1q-80.47-44.46-160.9-89c-13.7-7.58-27.38-15.2-41.11-22.72-5.91-3.24-8.71-8-7.92-14.77.44-3.8,2.48-5.58,6.13-4,4.58,2,9,4.27,13.41,6.67q87.14,47.92,174.21,95.94,20.13,11.09,40.19,22.3C647.4,1655.5,651.69,1659.06,651.48,1664.14Z"/><path class="cls-8" d="M448.48,1863.77q39.42,21.52,78.82,43.07c37.9,20.85,75.7,41.87,113.63,62.65,6.24,3.42,11.3,7.08,10.29,15.22-.64,5.09-2.64,6.61-7.27,4.5-4.84-2.19-9.45-4.9-14.11-7.46Q520.91,1921.93,412,1862.09a24.31,24.31,0,0,1-2.53-4.25c-1.47-4.12-2.83-8.91.71-12.13,3.7-3.38,7.48.38,10.77,2.19C430.22,1853,439.32,1858.46,448.48,1863.77Z"/><path class="cls-8" d="M647.84,1872.29,628,1861.87q-36.76-20.25-73.53-40.49-65.28-35.82-130.58-71.58c-3.5-1.92-6.9-4-10.29-6.17a10.34,10.34,0,0,1-5.12-8.15c-.26-3-.77-6.23,2.13-8.24,2.6-1.81,5.2-.2,7.5,1q18.09,9.62,36.07,19.43,67,36.76,134,73.6c16.93,9.31,33.89,18.57,50.72,28.06C652,1856.76,652.35,1857.92,647.84,1872.29Z"/><path class="cls-8" d="M520.32,1863.92q61.35,33.51,122.7,67c7.16,3.92,9.1,7.75,8.11,14.38-.68,4.54-2.64,5.92-6.79,4.33a58.88,58.88,0,0,1-7.09-3.68L484,1862q-30.62-16.76-61.24-33.52-4.37-2.39-8.57-5.08a11,11,0,0,1-5-6c-1.11-3.85-2.46-8.27.86-11.28,3-2.7,6.34.24,9.1,1.77Q469.78,1835.78,520.32,1863.92Z"/><path class="cls-8" d="M446.27,1242.84c13.9-.9,26.47-1.39,39.1,5.68,51.7,28.91,103.83,57,155.82,85.4,4.77,2.61,9.42,5.26,10.1,11.41.33,3,.64,6.16-2.2,8.22-2.56,1.85-5.2.56-7.53-.67-9.41-5-18.77-10.07-28.11-15.18q-70-38.39-140.05-76.79c-7.58-4.17-15.18-8.31-22.72-12.55C449,1247.41,447,1246.67,446.27,1242.84Z"/><path class="cls-8" d="M517.71,1242.86c14.43-.9,27.08-1.62,39.63,5.66,27.91,16.18,56.45,31.26,84.78,46.71,5.24,2.86,9.4,6.18,9.49,12.84.1,7.23-2.62,9.24-9,5.87-13.82-7.31-27.55-14.8-41.26-22.31q-37.2-20.37-74.32-40.9C524,1249,520.15,1248.1,517.71,1242.86Z"/><path class="cls-8" d="M15.73,1108.67a38.46,38.46,0,0,1,11,9.53c14.84,17.57,31.75,33.11,47.88,49.42,25.49,25.78,51.2,51.34,76.78,77,3.51,3.52,7.4,6.87,8.06,12.25.29,2.29.65,4.9-2,6.13-2.14,1-3.83-.57-5.24-2-5.23-5.11-10.79-10-15.48-15.54-12.45-14.8-26.63-27.9-40.19-41.61-20.58-20.81-41.33-41.44-62-62.15C24.29,1131.49,21.17,1126.11,15.73,1108.67Z"/><path class="cls-8" d="M38.3,1164c3.51-.07,5.19,2.75,7.12,4.81,34.3,36.73,70.28,71.82,105.63,107.52,3.3,3.33,6.58,6.74,6.22,12-.12,1.7-.54,3.37-2.15,4.25s-3.18,0-4.52-1.07a22.25,22.25,0,0,1-2.22-2c-18-18.66-37-36.41-54.49-55.6-14.8-16.2-30.81-31.31-46.2-47C39.77,1178.83,38,1174.33,38.3,1164Z"/><path class="cls-8" d="M46,1205.9c4.06.07,5.65,2.92,7.66,4.93q46.29,46.23,92.47,92.58c3.27,3.28,6.95,6.42,6.93,11.67,0,2-.27,4.18-2.21,5.26-2.15,1.2-3.83-.37-5.21-1.76-10.36-10.36-21.15-20.34-30.86-31.27-17.72-20-37.39-37.93-55.86-57.11-2.77-2.88-5.63-5.67-8.32-8.62C46.57,1217.14,45.41,1211.88,46,1205.9Z"/><path class="cls-8" d="M147.19,1341.13c-.27,2.3-.44,4.43-2.55,5.39-1.76.8-3.2-.31-4.45-1.42-1.73-1.55-3.41-3.17-5-4.83q-40-41-80-82c-3-3.1-6-6.26-6.58-10.86-.22-2-.54-4.2,1.59-5.29,1.73-.89,3.12.49,4.37,1.57,1,.86,1.95,1.8,2.88,2.74q41.89,42,83.75,83.94C144.2,1333.48,147.27,1336.6,147.19,1341.13Z"/><path class="cls-8" d="M49.92,1271.06c2.76.58,4.54,2.65,6.33,4.56,6.59,7,12.87,14.36,19.63,21.21,18.9,19.18,38,38.16,57,57.27a44.77,44.77,0,0,1,6.43,7.56c1.89,3,1.94,6.67-1.26,8.94-2.83,2-5-.58-6.81-2.4-14.1-14.1-28.67-27.79-42-42.57-12.06-13.34-25-25.72-37.46-38.66-3.27-3.41-6.58-6.73-5.57-12.08C46.54,1272.8,47.29,1271,49.92,1271.06Z"/><path class="cls-8" d="M131.8,1387.48c-.1,2.69-.7,4.58-2.56,5.73s-4,.53-5.48-.88c-5.08-4.79-10.38-9.4-14.94-14.64-19-21.84-40.37-41.36-60.43-62.16a50,50,0,0,1-6.26-7.69c-1.47-2.3-2-5.32.28-7.39,2.79-2.6,4.91.09,6.7,1.85,8.08,7.9,16,15.91,24,23.9q26.43,26.44,52.82,52.91C128.51,1381.67,131.43,1384.05,131.8,1387.48Z"/><path class="cls-8" d="M111.76,1431.4c-.14,2.71-1,4.49-2.85,5.57-2,1.17-4,.46-5.5-1-6-5.77-12.33-11.28-17.75-17.56-16.13-18.71-34.34-35.36-51.49-53.06-2.08-2.15-4.16-4.32-6.13-6.57a8.21,8.21,0,0,1-2.28-6.41c.22-2,.79-4,2.88-4.89,1.75-.75,3.27.14,4.55,1.27,2,1.76,4,3.57,5.8,5.48,22.46,23.22,44.43,46.92,67.6,69.45C109,1426,111.48,1428.31,111.76,1431.4Z"/><path class="cls-8" d="M38.7,1323.53c2.38.61,4,2.38,5.55,4.06,7.5,8,14.75,16.21,22.42,24,16.07,16.34,32.35,32.47,48.52,48.71,2.34,2.35,4.94,4.51,6.37,7.6,1.24,2.68,1,5.26-1.4,7.19s-4.47.78-6.34-.75a46.77,46.77,0,0,1-5.81-5.44c-20.91-24.13-44.61-45.54-66.74-68.48-2.74-2.84-6.11-5.29-7-9.48C33.46,1327,35.86,1323.13,38.7,1323.53Z"/><path class="cls-8" d="M99.73,1452.25c-.75,3.18-2.71,4.58-5.85,3.48-2.91-1-4.84-3.48-6.94-5.58q-32.46-32.49-64.87-65c-2.57-2.58-5.44-5-6.41-8.74a5.91,5.91,0,0,1,1.78-6.38c2.35-2,4.49-.51,6.2,1.12,4.81,4.6,9.8,9.06,14.17,14,18,20.55,37.93,39.21,57,58.72C97.08,1446.26,99.78,1448.45,99.73,1452.25Z"/><path class="cls-8" d="M590.35,1244.23c9.09-3.27,24.92-3,33.62,1.22,7.16,3.46,14,7.58,21,11.45,3,1.67,5.4,4,6.1,7.48s1.69,7.59-1.34,10.37-6.34.22-9.13-1.28c-16.09-8.65-32.09-17.44-48.1-26.22C591.34,1246.63,590.19,1245.84,590.35,1244.23Z"/><path class="cls-8" d="M762.2,594.38c-7.42.92-13.17-3.86-18.77-9.48-38.59-38.67-76.95-77.56-116.06-115.69-20.5-20-41.37-39.59-61.47-60-2.43-2.47-7.36-4.77-5.63-8.49,1.89-4.06,7.14-2,11-2.15,6.51-.25,11.12,3.39,15.65,7.62,34.29,32.09,67.27,65.52,100.51,98.67q30.08,30,60.1,60a187.09,187.09,0,0,0,16.89,15.56,60.27,60.27,0,0,1,6.54,6.15c1.52,1.61,4.1,3.17,2.75,5.81-1.23,2.4-4.06,1.77-6.32,2C766,594.47,764.7,594.38,762.2,594.38Z"/><path class="cls-8" d="M714.47,594.21c-8.08.57-13.77-1.63-18.36-6.63-.44-.49-1-.93-1.42-1.4C635,527.28,574.63,469,515.78,409.22c-2.41-2.45-7.21-4.63-5.54-8.54s6.52-1.93,10-2.14c7.33-.44,12.45,3.58,17.31,8.46,24.2,24.3,48,49,72.9,72.58,34.61,32.7,68,66.66,101.8,100.12,1.66,1.64,3.39,3.21,4.92,5,1.92,2.19,5.74,4,4.72,7.11C720.62,595.72,716.23,593.89,714.47,594.21Z"/><path class="cls-8" d="M773.77,398.63c8.9-1.27,14.94,3.57,20.83,9.47q70.92,71.11,142,142c11.76,11.79,25.07,22,36.2,34.39,2.08,2.32,6.39,4.13,4.65,7.92-1.39,3-5.37,1.67-8.26,2-9.1.91-15.69-3.27-22-9.54Q864,501.33,780.48,418.13c-4.72-4.7-9.67-9.16-14.5-13.75-1.18-1.13-2.72-2.27-1.73-4.18.65-1.27,2.15-1.48,3.48-1.54C769.72,398.56,771.72,398.63,773.77,398.63Z"/><path class="cls-8" d="M466.51,398.5c7.17-.54,12.76,2.27,17.9,7.21,61,58.64,120.54,118.79,180.41,178.58,2.23,2.22,6.53,4.37,4.9,7.85-1.8,3.85-6.52,2-10,2.06-4.51,0-8.35-1.87-11.77-4.79-6.08-5.19-12.22-10.28-17.89-15.95-36.26-36.32-72.35-72.79-109-108.69-18.08-17.71-36.79-34.77-54.51-52.86-1.4-1.42-2.95-2.72-4.22-4.26-1.79-2.18-5.66-3.9-4-7.21C459.8,397.4,463.66,398.81,466.51,398.5Z"/><path class="cls-8" d="M814.89,594.36c-7.72.67-13.26-3.12-18.43-8.32-24.17-24.3-47.81-49.19-72.88-72.53-35.59-33.13-69-68.38-103.83-102.27-1.9-1.86-3.8-3.74-5.6-5.7-1.31-1.42-3.19-2.92-2-5.11,1-2,3.38-1.72,5.33-1.92,8.89-.9,15.91,2.12,22.3,8.59,28.76,29.13,57.38,58.42,86.95,86.71,29.34,28.07,58.14,56.66,86.92,85.28,1.89,1.88,3.87,3.68,5.63,5.67,1.91,2.17,5.72,4,4.53,7.14C822.33,595.7,818,593.93,814.89,594.36Z"/><path class="cls-8" d="M918.56,594.06c-9.81.94-15.23-3.1-20.36-8.26-23-23.14-45.59-46.72-69.34-69.07C793,483,758.62,447.67,723.56,413.07c-1.18-1.17-2.45-2.26-3.51-3.54-2.26-2.75-7.3-4.92-6-8.48,1.62-4.36,6.94-2.3,10.72-2.48,6.94-.33,11.81,3.56,16.42,8.18,24.92,25,49.66,50.15,75,74.74,33.65,32.7,67.47,65.23,100.43,98.63,1.41,1.42,3,2.72,4.21,4.26,2,2.45,6.43,4.24,4.79,7.89S919.62,593.79,918.56,594.06Z"/><path class="cls-8" d="M864.7,594.41c-7.62,1.07-13.63-3.82-19.51-9.71q-79.76-79.91-159.68-159.65c-6.6-6.6-13.43-12.92-20.56-18.94-1.67-1.41-4.11-3-2.77-5.76,1-2,3.41-1.65,5.36-1.84,8.89-.89,15.79,2.28,22.33,8.58C743.61,458.82,796.15,511.76,849,564.36c7.3,7.27,15.18,14,22.69,21,1.87,1.77,5,3.58,4.13,6.37-1.11,3.6-5,2.27-7.81,2.63C867.39,594.48,866.71,594.41,864.7,594.41Z"/><path class="cls-8" d="M611.91,594.25c-7.55.42-13-1.62-17.36-6.3-.68-.73-1.44-1.39-2.15-2.1-57.69-57.74-117-113.8-174.18-172.13a62.35,62.35,0,0,1-6.72-7.37c-2.56-3.64-1.41-6.52,2.89-7.34,5.74-1.09,11.38-.59,16.08,3.38,2.79,2.36,5.39,5,8,7.55Q492.58,464,546.67,518c20.72,20.74,43,39.91,63.11,61.24,1.6,1.69,3.41,3.2,4.91,5,2.06,2.43,6.4,4.3,5,7.86S613.86,593.91,611.91,594.25Z"/><path class="cls-8" d="M561.74,594.28c-6.47.27-11.51-1-15.77-4.72s-8.79-7.14-12.78-11.12C494.53,540,456,501.35,417.31,463c-6-6-10.13-12.25-9.18-21,.21-1.95-.12-4.28,1.87-5.36,2.18-1.19,3.64.75,5.12,2,.77.64,1.44,1.38,2.16,2.07,49.39,47,97.32,95.44,145.57,143.58.47.47,1,.91,1.4,1.42,1.59,2,4.78,3.52,3.64,6.51S563.24,593.8,561.74,594.28Z"/><path class="cls-8" d="M510,594.25a22.58,22.58,0,0,1-17.5-6.16c-26.9-23.88-51.36-50.26-77.19-75.23-6.78-6.56-8-14.28-7-22.84.48-4.31,2.41-4.9,6-2.14a26.79,26.79,0,0,1,2.91,2.73c30.67,31.93,63.9,61.23,94.8,92.91a7.8,7.8,0,0,1,.7.71c2,2.52,6.36,4.31,5,7.88C516.35,595.85,511.84,593.69,510,594.25Z"/><path class="cls-8" d="M458,594.26c-7.44.4-12.79-1.62-17.28-6.17Q427.45,574.62,414,561.36c-5.55-5.44-6.48-12.13-5.61-19.28.63-5.2,3-6,7.33-2.7a30.93,30.93,0,0,1,2.91,2.71q21.48,21.4,42.93,42.88c2,2,5.71,3.93,4.31,7.12C464.25,595.74,460,593.91,458,594.26Z"/><path class="cls-15" d="M413.31,593.61c-2.34-.45-4.08-1.7-3.95-4.43a2.06,2.06,0,0,1,2.68-2c2.33.56,4.2,2,4.23,4.55C416.29,593.23,414.86,593.66,413.31,593.61Z"/><path class="cls-3" d="M2379.49,2172.07q0-93.48,0-187c0-18.31.72-19,19.25-19h373.87c17.86,0,18.74.87,18.74,18.51q0,187.44,0,374.89c0,17.65-.87,18.51-18.73,18.51q-187.44,0-374.87,0c-17.21,0-18.24-1-18.25-18Q2379.46,2266,2379.49,2172.07Z"/><path class="cls-7" d="M2885.18,1314.33c.87-10.51-1.21-21.2,2.05-31.55.18,22.09,3.54,43.84,7.32,65.48,19.86,113.71,67.57,214.53,143.76,301,102.5,116.37,231.19,185.33,385,206.92,12.52,1.76,25.16,2.68,37.75,4-4.78,1.86-9.79,1.82-14.79,1.82q-271.86,0-543.73,0c-16,0-17-1-17-17.06q0-228.9,0-457.79c0-6.33-.16-12.66-.25-19l-.12-12.05Q2885.14,1335.23,2885.18,1314.33Z"/><path class="cls-8" d="M3504.8,1608.1c.16.66.32,1.32.49,2-7.77,4.33-10,4.46-15.87-1-7.79-7.25-15.22-14.89-22.72-22.45q-25-25.14-49.82-50.36c-7.41-1-12.74-5.71-17.91-10.37-7.17-6.46-13.74-13.58-20.6-20.38-50.11-49.74-101.47-98.21-150.79-148.76-6.83-7-13.43-14.17-16.45-23.82-27.74-28.11-57.58-54.08-84.83-82.7-3.43-3.6-7.32-6.9-8.31-12.12-.49-2.58-1.45-5.79,1-7.47,2.94-2,4.78,1.19,6.52,2.91,16.5,16.36,32.82,32.91,49.39,49.21,8.75,8.6,16.69,18,26.64,25.39l-.24,0c.55.64,1.11,1.28,1.68,1.9,21.36,22.88,44.64,43.82,66.69,66a218.74,218.74,0,0,1,19.21,21.6,238.71,238.71,0,0,0,47.43,46.85,172.91,172.91,0,0,1,18,15.72q39.79,39.25,79.75,78.35c2.84,2.78,6.08,5.14,9.14,7.7C3462.91,1567.7,3483.78,1588,3504.8,1608.1Z"/><path class="cls-8" d="M3233.15,1386.66c-26.45-24.72-50.61-51.78-77.76-75.81-11.43-10.11-21.78-21.44-32.58-32.27-3.69-3.7-5.77-8.14-5.07-13.49.41-3.18,2.3-4.13,4.85-2.11a99.43,99.43,0,0,1,7.27,6.81l85.17,82.5c6.15-2.14,9.13,2.69,12.5,6,22,21.71,43.71,43.67,65.5,65.58,30.22,30.39,60.69,60.52,91,90.85a166,166,0,0,0,15.71,13.8,3.44,3.44,0,0,1-.24,4.07l-.15,1.47c3.31,3.72,6.46,7.6,10,11.13,19.22,19.34,38.56,38.56,57.76,57.91,2,2,5.87,4.05,3.83,7.18s-6.1,1.6-9.25.68c-3.63-1-6.27-3.7-8.84-6.3-28.5-28.86-57.86-56.88-85.73-86.36-1.36-1.44-3-2.66-4.44-4-11-4.34-19.42-12.6-27.51-20.57-22.53-22.2-46.4-43-68.41-65.75a343.44,343.44,0,0,1-33.47-39.9l.07.22a1,1,0,0,1-.5-1.09C3232.9,1386.86,3233,1386.66,3233.15,1386.66Z"/><path class="cls-8" d="M3329.4,1497.87c10.7,13.7,23.28,25.71,36.15,37.17,22.41,20,42.72,42,64.26,62.78,2.33,2.25,5,4.33,6.21,8.53-6.63,1.48-12-.27-16.89-3.83a67.72,67.72,0,0,1-7.32-6.77c-20.73-20.7-41.17-41.7-62.21-62.08-72.91-70.64-144.46-142.65-216.29-214.39-5.18-5.18-10.69-10.15-11.89-18-.25-1.62-.77-3.25.1-5,2.91-1.29,3.88,1.57,5.61,2.76a11,11,0,0,1,1.43,1.39c35.74,36.75,74.12,70.8,109.73,107.69,3.45,3.58,7.41,6.67,11.13,10,3-2.68,5-1.37,7.49,1.12,23.7,23.85,46.77,48.34,71.71,70.93C3331.37,1492.7,3331.81,1495,3329.4,1497.87Z"/><path class="cls-8" d="M3394,1597c-8.59-.09-15.12-2.87-20.64-8-4.65-4.28-9-8.84-13.51-13.31-31.78-31.77-63-64.16-95.48-95.16-41.19-39.29-81.1-79.84-121.56-119.85-6.28-6.21-11.58-12.77-12-22.07,2.9-2.12,4.64.2,6.23,1.52,4.09,3.39,8.08,6.94,11.84,10.69q73.5,73.38,146.87,146.87c29.8,30,61.49,58,90.62,88.64C3389,1589.2,3392.71,1591.31,3394,1597Z"/><path class="cls-7" d="M3395.24,1532.13q-33.4-33-66.78-66-51.4-51-102.68-102.09c-3.76-3.75-7.17-7.85-10.74-11.79-.6-6.59-5.92-12.23-3.91-19.35q58.36,58,116.75,116,39.32,39,78.82,77.77c3.31,3.26,6.79,6.36,10.18,9.54-6.26,2.56-11.63-2-17.56-2.19v.08C3398.2,1533,3396.29,1533.41,3395.24,1532.13Z"/><path class="cls-8" d="M3148.13,1383.8c65.88,65.44,132.67,129.54,197.77,195.5-12.17-3.41-23.06-8.38-32-17.33-32.61-32.82-65.12-65.75-98.23-98.07-17.62-17.18-35.84-33.76-53.09-51.33A51,51,0,0,1,3148.13,1383.8Z"/><path class="cls-8" d="M3197.61,1274.27c15.67,15.4,31.43,30.7,46.94,46.25,5,5,7.64,12.45,8.57,22.53l-51.93-51.32c-9.08-10.22-19.46-19.07-29.42-28.39-16.26-15.24-31.69-31.37-47.47-47.12-3.4-3.39-6.23-7-5.28-12.25.74-4.13,2.74-5,6.1-2.62a24.94,24.94,0,0,1,2.93,2.7Q3162.85,1239.15,3197.61,1274.27Z"/><path class="cls-7" d="M3329.4,1497.87c-27.6-25.63-54.6-51.86-80-79.71-2.79-6.68-7.45-12.25-11-18.48-2.11-3.69-4.27-7.35-5.2-11.56,3.71,3.33,7.55,6.53,11.1,10q55.53,54.66,111,109.39c2.37,2.34,4.86,4.54,7.3,6.81-4.38,1.21-7.64-1.43-11-3.37C3344.14,1506.69,3336.79,1502.24,3329.4,1497.87Z"/><path class="cls-8" d="M3195,1238.22c11.14,12.82,23.81,24.12,35.69,36.19,4.09,4.15,7.39,8.53,8,14.5.13,1.33.36,2.82-.77,3.73-1.67,1.36-3.17.17-4.32-.94-6.22-6-12.34-12.11-18.51-18.15-5.94-5.82-11.9-11.6-17.85-17.4-24.44-22.18-47-46.31-70.4-69.49a16.67,16.67,0,0,1-3.44-4.85c-1.31-2.9-1.51-6.1,1.35-8.16s5,.36,6.9,2.17c6.92,6.74,13.67,13.65,20.59,20.39C3166.57,1210.16,3180.07,1224.93,3195,1238.22Z"/><path class="cls-8" d="M3197.37,1210.27c10.45,10.23,20.93,20.43,31.33,30.72a21.11,21.11,0,0,1,4.24,5.48c1.59,3.26,3.59,7.59.45,10.15-3.52,2.88-5.77-1.71-7.91-3.8-9.51-9.3-18.8-18.81-28.17-28.24q-31.5-31.15-63-62.33c-2.59-2.57-5.23-5.19-5.87-9-.34-2-.16-4.1,1.84-5.25,1.68-1,3.23,0,4.52,1.06,4.58,3.83,9.4,7.43,13.63,11.62C3164.91,1177,3181.84,1193,3197.37,1210.27Z"/><path class="cls-8" d="M3201.44,1182.28c9.5,9.34,19,18.65,28.49,28,2.62,2.6,5.09,5.37,5,9.42,0,2,.21,4.2-1.73,5.42-2.19,1.39-3.8-.32-5.23-1.64q-4.76-4.43-9.3-9.07c-5.83-5.94-11.6-11.94-17.4-17.91q-17.15-16.76-34.28-33.51c-7.6-7.47-14.92-15.21-23.37-21.79-3.38-2.63-6.81-5.51-8.21-9.84-.88-2.73-.35-5.43,2-7.19s4.37,0,6.16,1.54c4.33,3.64,8.88,7.06,12.89,11C3171.68,1151.76,3187.18,1166.41,3201.44,1182.28Z"/><path class="cls-8" d="M3437.81,942.34q18,17.28,36,34.57c1.41,1.36,3.24,2.82,2.28,5.06-1.15,2.7-3.83,2.19-6.09,2.15-4.41-.07-7.2-3.11-10-5.89Q3442.4,961.15,3425,944a21.85,21.85,0,0,0-2-1.66,12.34,12.34,0,0,1-1.61.13c-11.53-13.86-25.16-25.68-37.59-38.66-2.07-2.17-4.19-4.29-6.14-6.56-1.36-1.59-2.13-3.5-.63-5.45a5.62,5.62,0,0,1,5.35-2c4.32.48,7,3.65,9.79,6.46Q3415,919.24,3437.81,942.34Z"/><path class="cls-8" d="M3207.33,1156.29c8.74,8.6,17.52,17.17,26.21,25.83,2.34,2.32,4.86,4.63,5.25,8.21.25,2.38.06,4.88-1.88,6.42-2.52,2-4.38-.26-5.94-1.8-8-7.93-16.45-15.43-23.67-24.13-18.6-17.58-36.06-36.36-55.47-53.11-3-2.59-5.93-5.44-7.1-9.46-.68-2.33-.65-4.75,1.36-6.46,2.25-1.92,4.37-.67,6.25.85A47,47,0,0,1,3156,1106C3173.05,1122.85,3189.62,1140.15,3207.33,1156.29Z"/><path class="cls-8" d="M3225.56,1112.3c8.08,7.8,16.17,15.57,24.22,23.39,1.66,1.61,3.42,3.28,3.8,5.67s-.11,4.73-2.29,6.13-3.85.09-5.29-1.3c-8.3-8-16.55-16.14-24.82-24.22-18.54-16.09-35-34.27-52.48-51.48a14.77,14.77,0,0,1-3.17-5,5,5,0,0,1,1.81-6.18c1.86-1.37,3.82-.95,5.54.28a35.32,35.32,0,0,1,4.53,3.85Q3201.52,1087.86,3225.56,1112.3Z"/><path class="cls-8" d="M3247.67,1068.46c6,8.4,14.13,14.76,21.08,22.24,2,2.17,4.18,4.24,6,6.58,2.18,2.8,1.59,5.73-.88,8s-5,.8-7-1.14c-7.94-7.92-15.78-15.95-23.65-23.93-17-14.86-32.22-31.54-48.31-47.33a9.32,9.32,0,0,1-.67-.74c-3.79-4.6-4.51-8.32-1.72-10.44,4-3,6.88,0,9.44,2.48,11.34,11.16,22.53,22.49,33.87,33.66C3239.64,1061.53,3243.73,1064.92,3247.67,1068.46Z"/><path class="cls-8" d="M3411.79,948.34q16.71,16.32,33.38,32.66c1.57,1.55,4.21,3.36,2.67,5.78-1.83,2.85-5.24,2.56-8.14,1.62-3.25-1.06-5.34-3.85-7.7-6.14q-16.41-15.93-32.76-31.9a87,87,0,0,0-15.41-15.57c-9.68-7.69-17.8-17-26.6-25.6a20.76,20.76,0,0,1-2.53-3.07c-1.45-2.11-1.87-4.33.1-6.34s4.16-2,6.48-1c3.15,1.33,5.34,3.93,7.67,6.28Q3390.4,926.67,3411.79,948.34Z"/><path class="cls-8" d="M3215.19,1132.27c8.13,8.3,16.29,16.58,24.39,24.92,2.52,2.6,5.41,5.08,5.37,9.18,0,2-.33,4.1-2.51,5-1.78.74-3.23-.32-4.43-1.47-4.55-4.37-9-8.84-13.56-13.2-4.32-4.13-8.72-8.16-13.09-12.24a224.84,224.84,0,0,0-28.74-29c-8.66-7.32-16.4-15.53-24.46-23.44a21.52,21.52,0,0,1-3.69-4.66,5.77,5.77,0,0,1,.9-7.35c2.48-2.46,4.94-1.14,7.06.69s4.34,4.11,6.49,6.19C3184.46,1101.91,3198.93,1118,3215.19,1132.27Z"/><path class="cls-8" d="M3261.39,1052.31q11.81,11.51,23.59,23a31.56,31.56,0,0,1,3.29,3.74c1.85,2.53,1.52,5-.62,7.21-2.46,2.56-4.88,1.68-7-.39-8.51-8.44-16.94-17-25.39-25.46-15.89-14.18-30.36-29.81-45.52-44.72a24.15,24.15,0,0,1-3.18-3.82c-1.9-2.83-1.94-5.73.73-8.07s5-.8,7.14.95a43.33,43.33,0,0,1,3.65,3.39C3232.51,1022.91,3247.71,1036.86,3261.39,1052.31Z"/><path class="cls-8" d="M3275.66,1032.5a10.32,10.32,0,0,1-.36,1.35,11.55,11.55,0,0,0,1.95,2.45c7.57,7.34,15.17,14.66,22.69,22.06a23.75,23.75,0,0,1,3.63,4.65c1.42,2.35.58,4.48-1.34,6.16a4.19,4.19,0,0,1-5.46.32,26.54,26.54,0,0,1-3.81-3.13q-11.88-11.89-23.68-23.88c-15.57-14-29.8-29.28-44.72-43.9q-.36-.35-.69-.72c-4.36-4.86-5.07-7.86-2.1-10.11,4.34-3.3,7.48-.27,10.34,2.53,8.76,8.59,17.36,17.35,26.11,26C3263.88,1021.81,3269.1,1027.88,3275.66,1032.5Z"/><path class="cls-8" d="M3366.79,966.24c9.48,9.22,19,18.35,28.37,27.71,2.32,2.33,6.73,5,2.66,8.89-3.48,3.34-7.36,1.75-10.52-1.37-8-7.9-16-15.84-24-23.7-2.6-2.54-5.36-4.9-8-7.34-3.84-5.54-9.28-9.44-14.15-13.95-9.5-8.82-18.57-18.1-27.8-27.21a20,20,0,0,1-2-2.25c-1.49-2-2.57-4.11-.63-6.31a5.81,5.81,0,0,1,7.26-1.44c3.1,1.41,5.23,4.05,7.59,6.37Q3346.21,945.92,3366.79,966.24Z"/><path class="cls-8" d="M3235.43,1088.35c6.86,9,15.68,16.15,23.42,24.32,5.78,6.11,7.09,10.2,3.39,12.42-5.37,3.22-7.55-2.37-10.39-5-7.08-6.5-13.77-13.4-20.62-20.14-16.11-14.47-31.23-30-46.5-45.29a55.47,55.47,0,0,1-6.51-7.54c-1.71-2.5-1.09-5.15,1.3-7.11,2.17-1.78,4.46-1.2,6.4.39,2.3,1.91,4.42,4,6.59,6.11C3206.93,1060.35,3220.16,1075.4,3235.43,1088.35Z"/><path class="cls-8" d="M3388.67,956.21c10.1,10,20.23,20.06,30.25,30.18,1.95,2,5.6,4.12,3,7.3s-6.61,2.84-9.79.18-6.34-5.82-9.42-8.82q-12.81-12.49-25.55-25a274.83,274.83,0,0,0-27.65-27.16c-6.07-5.12-11.51-11-17.13-16.61-1.65-1.66-3.23-3.72-1.4-6.13,1.54-2,3.91-2.39,6.31-2,3.86.69,6.28,3.57,8.85,6.13,11.53,11.46,23,23,34.52,34.44C3383.28,951.29,3386,953.72,3388.67,956.21Z"/><path class="cls-8" d="M3291.49,1018.32c8.76,8.61,17.54,17.18,26.25,25.84,2.41,2.4,4.84,5,1.4,8.46-3.18,3.17-6.1,1.68-8.65-.87-8.46-8.43-16.83-17-25.23-25.44-16-14-30.27-29.66-45.42-44.47a22,22,0,0,1-2-2.22c-1.46-1.91-2.75-4-.9-6.25s4.15-1.88,6.34-.75a16.55,16.55,0,0,1,4,2.87C3261.92,989.88,3278.26,1002.5,3291.49,1018.32Z"/><path class="cls-8" d="M3309.15,1004.29c8.81,8.56,17.66,17.08,26.4,25.71,2.07,2,4.8,4.35,1.86,7.6s-6.38,3.09-9.5,0q-13.34-13.43-26.63-26.89c-14.21-14-28.47-27.93-42.59-42-2.66-2.65-6.81-5.29-3.71-10,2-3.07,5.57-2.32,10.7,3.23C3279.45,976.74,3296.49,988.28,3309.15,1004.29Z"/><path class="cls-8" d="M3345.64,976.47c6.31,7.68,13.75,14.23,20.92,21,3.11,3,6.17,6,9.08,9.11,1.64,1.76,2.8,4,.73,6.15s-4.66,2.89-7.19,1.24a51.79,51.79,0,0,1-6.76-5.75c-9.15-8.56-17.33-18.14-27.17-26-11.4-13.42-24.63-25.06-36.77-37.76a71.84,71.84,0,0,1-6.41-7.55,3.94,3.94,0,0,1,.6-5.43,4.14,4.14,0,0,1,5.49-.31,56.64,56.64,0,0,1,6.78,5.79c10.13,10,20.15,20.19,30.31,30.2C3338.55,970.48,3342.17,973.4,3345.64,976.47Z"/><path class="cls-8" d="M3326.86,990.25c8.88,8.9,17.81,17.75,26.6,26.73,2.2,2.25,5.52,4.75,1.75,8.26-3.07,2.86-6.14,1.71-8.77-.87-9.21-9-18.77-17.7-27.16-27.52-14.17-14-28.38-28-42.47-42-5.4-5.4-6.32-8.68-3.3-10.73,4.71-3.2,7.34,1,10,3.58C3298.05,961.79,3312.43,976,3326.86,990.25Z"/><path class="cls-8" d="M3190.15,1457.87c27.56,27.41,57.79,52.08,83.44,81.46C3241.21,1516.87,3213.05,1490.07,3190.15,1457.87Z"/><path class="cls-7" d="M3233.15,1386.66c0,.56.1,1.12.14,1.68A15.85,15.85,0,0,0,3233.15,1386.66Z"/><path class="cls-8" d="M1698.31,2078.8c-1.83-.65-7.29,1.2-8.86-3-1.41-3.78,3.35-6,5.77-8.55,49.65-52.11,101.21-102.33,151.82-153.49a107.41,107.41,0,0,1,7.92-7.62c4.63-3.8,12.11-3.47,16.54.35,1.83,1.58,2.11,3.43.79,5.28a43.08,43.08,0,0,1-4.57,5.26q-76.14,77.23-152.32,154.42C1711.2,2075.66,1707.23,2080.54,1698.31,2078.8Z"/><path class="cls-8" d="M2057.06,2456.18c-.8-5.59.68-9.14,3.67-12.16,2.1-2.13,4.17-4.29,6.28-6.42,30.53-30.67,61.34-61.06,91.48-92.11,19-19.58,38-39.19,57.34-58.42,2.55-2.53,4.62-7.48,9.54-5,3.4,1.69,5.09,12,3.05,15.67a21.31,21.31,0,0,1-3.06,3.93c-4.47,4.92-8.84,10-13.53,14.67q-71.45,71.89-143,143.64c-2.64,2.65-5,7.87-9.26,6C2055.6,2464.17,2058.14,2458.57,2057.06,2456.18Z"/><path class="cls-8" d="M1745.54,2087.94a10.33,10.33,0,0,1-2.11-.35c-3.06-1-7.29-.42-8.68-4-1.53-3.87,2.36-5.87,4.56-8.1,21.31-21.55,42.8-42.93,64.08-64.5q40.69-41.25,81.19-82.69a73.3,73.3,0,0,1,7.27-6.84,11.85,11.85,0,0,1,15.47,1.06c2.57,2.41,1.92,4.76,0,7-3.7,4.29-7.32,8.66-11.3,12.68q-69.33,69.86-138.77,139.6C1754.23,2084.88,1751.44,2088.49,1745.54,2087.94Z"/><path class="cls-8" d="M2037.2,2366.66c-.55-4.9,2.09-7.53,4.64-10.19,10.59-11,21-22.23,31.83-33.1q54.51-55,109.21-109.72a11,11,0,0,1,1.42-1.4c2.77-2,4.42-6.63,9-4.51,3.65,1.71,6.6,11.55,4.51,15.25a37.14,37.14,0,0,1-6.24,7.72q-70,70.5-140.2,140.87c-2.46,2.47-4.72,6.88-8.77,5.4C2038,2375.32,2038.28,2370,2037.2,2366.66Z"/><path class="cls-8" d="M2048.46,2407.73c-.26-3.23,1.13-5.84,3.18-8.14s4.08-4.39,6.19-6.52l140.31-141a30,30,0,0,1,2.84-2.8c2.94-2.26,5.08-7.09,9.94-3.94,3.2,2.08,4.76,10.1,2.95,13.85s-4.91,6.28-7.72,9.1c-25.37,25.52-50.84,50.94-76.12,76.54-22.94,23.23-45.66,46.67-68.58,69.92-2.44,2.48-4.69,7.1-8.63,5.57-4.13-1.59-3.14-6.87-4.16-10.62A11.76,11.76,0,0,1,2048.46,2407.73Z"/><path class="cls-8" d="M2029.89,2339a5.16,5.16,0,0,1-3.78-2.3c-5.74-7.22-5.58-12.45,1.1-19.19,27.89-28.14,55.93-56.14,83.78-84.32,17.09-17.28,33.92-34.81,50.87-52.22a24.29,24.29,0,0,1,2.84-2.81c3.16-2.29,5.3-8.11,10.59-3.91,5.54,4.4,6.29,11.53,2.06,16.71-1.89,2.32-4.1,4.38-6.21,6.5-20.66,20.78-41.4,41.48-62,62.34-24.07,24.42-48,49-72,73.46C2034.87,2335.6,2032.79,2338.31,2029.89,2339Z"/><path class="cls-8" d="M1786,2100.93c-1-.28-2.67-.62-4.23-1.18-6.66-2.36-7.35-4.7-3-10,.85-1,1.83-1.93,2.76-2.88q70.17-71,140.33-142.06a51.69,51.69,0,0,1,5.86-5.42,10.93,10.93,0,0,1,14.38,1.79,4.53,4.53,0,0,1,.15,6.34c-1.88,2.33-3.93,4.52-6,6.65-22.24,22.47-44.85,44.59-66.69,67.46-23.45,24.55-47.34,48.65-71.25,72.75C1795.09,2097.69,1792.06,2101.55,1786,2100.93Z"/><path class="cls-8" d="M1997.76,1977.88c4.09,1,7.48,3.2,9.36,6.88s-1.2,6.2-3.45,8.55c-11.73,12.25-23.39,24.57-35.33,36.6q-48.85,49.23-97.92,98.23c-1.64,1.65-3.23,3.37-5,4.87a11.2,11.2,0,0,1-16.39-2.38c-2-3,0-5.05,1.8-7,5.6-6.15,11.11-12.39,17-18.29q59.71-60.23,119.58-120.3C1990.34,1982.05,1992.84,1978.16,1997.76,1977.88Z"/><path class="cls-8" d="M1975.82,1964.65c-.46,3.22-2.8,5.21-4.86,7.35-13.39,13.9-26.68,27.9-40.26,41.62q-46.71,47.2-93.67,94.16a74.32,74.32,0,0,1-7.26,6.84c-4.39,3.37-12.8,2-16.17-2.41a3.4,3.4,0,0,1,0-4.56,67.05,67.05,0,0,1,4.63-5.21q68.35-69.33,136.75-138.62a61.17,61.17,0,0,1,5.78-5.5c4.74-3.68,12.88-1.21,14.76,4.37A11.46,11.46,0,0,1,1975.82,1964.65Z"/><path class="cls-8" d="M2012.66,2301.87c-4.79-.14-9.1-10-6.41-14.67a31.7,31.7,0,0,1,5.15-6q65.71-66.89,131.48-133.72c.93-.95,1.83-1.94,2.84-2.81,2.92-2.53,5.55-6.43,10.08-2.46s5.95,9.88,2.43,14.09q-8.33,9.93-17.47,19.15-59.73,60.2-119.65,120.2C2018.58,2298.14,2016.39,2301.29,2012.66,2301.87Z"/><path class="cls-8" d="M2037.78,2010.62a30,30,0,0,1-2.62,4.32c-2,2.28-4.09,4.38-6.21,6.51l-126.16,126.84c-1.88,1.89-3.71,3.83-5.68,5.62-5.69,5.16-11.47,4.56-16-1.5-1.64-2.18-1.72-4.31-.07-6.39a63.66,63.66,0,0,1,4.66-5.19q65.6-66.55,131.22-133.07c1.87-1.89,3.81-3.73,5.8-5.5,2.26-2,4.8-2.32,7.3-.52C2033.17,2004,2036.56,2006.25,2037.78,2010.62Z"/><path class="cls-8" d="M2115.71,2089.31a6.8,6.8,0,0,1-1.75,5.09q-1.92,2.29-4,4.42-65.19,66.1-130.41,132.19c-.7.71-1.39,1.43-2.12,2.11-5.68,5.29-7.07,5.55-10.77,2-5.61-5.36-6-9-1-14.4,7-7.62,13.93-15.22,21.18-22.55q48.1-48.61,96.34-97.1c5.85-5.91,11.34-12.17,17.14-18.14,2.34-2.41,5.15-4.82,8.75-2.55C2112.46,2082.57,2115,2085.65,2115.71,2089.31Z"/><path class="cls-8" d="M2081.58,2052c4.37.41,6.7,3.78,9,7,2.11,3,.87,5.71-1.31,8.1-1.79,2-3.65,3.88-5.53,5.76q-63.46,63.63-127,127.22c-1.65,1.65-3.24,3.36-5,4.88-4.77,4.1-7.22,4.17-11.22.52-4.4-4-4.77-7.38-1-12.08a80.9,80.9,0,0,1,6.18-6.52c14.55-14.64,29.18-29.19,43.66-43.89q41.69-42.31,83.28-84.73C2075.16,2055.69,2077.43,2052.62,2081.58,2052Z"/><path class="cls-8" d="M1993.15,2268.24c-5.21,0-10.06-10-7-14.94a40,40,0,0,1,5.91-6.74q23.22-23.4,46.53-46.74c26.11-26.17,52.32-52.24,77.7-79.12a92.46,92.46,0,0,1,7.09-7c2.8-2.39,5.12-7.08,9.91-3.36,5.33,4.14,6.43,10.84,2.58,15.79a85.18,85.18,0,0,1-6.84,7.27q-58.47,58.82-117,117.62c-4.46,4.49-8.74,9.15-13.13,13.71C1997.32,2266.36,1995.74,2268.13,1993.15,2268.24Z"/><path class="cls-8" d="M2065.12,2034.53a6.38,6.38,0,0,1-1.86,4.83q-3,3.32-6.22,6.49Q2006.6,2096.4,1956.16,2147c-10.09,10.15-19.73,20.75-29.84,30.87-5.7,5.7-9.17,5.29-14.13-.33-2.67-3-2.89-5.84-.19-8.83,1.11-1.23,2.25-2.45,3.42-3.63q65.24-66.12,130.48-132.23c1.64-1.65,3.34-3.25,5.08-4.79,2.15-1.9,4.63-2.88,7.3-1.26C2061.43,2028.68,2064.29,2031,2065.12,2034.53Z"/><path class="cls-16" d="M3505.33,1562.44q-.14,7.85-.26,15.7a233.81,233.81,0,0,0-27.86-27.9c5.26-.52,11.05,3.1,15.72-2Z"/><path class="cls-5" d="M3277.25,1036.3l-1.95-2.44Z"/><path class="cls-16" d="M3490.94,1546.24l2.25,2Z"/><path class="cls-5" d="M3422.92,942.34l2,1.66Z"/><path class="cls-5" d="M3203,1310l-1.68-1.9Z"/><path class="cls-1" d="M1647.69,12.53l-.09,26c-12.81-7.5-21.66-19.36-32.07-29.47-3.61-3.51-2.57-5.66,2.38-6.35C1629.43,1.11,1639.61,3.66,1647.69,12.53Z"/><path class="cls-5" d="M3478.92,933.9l-1.79-1.58Z"/><path class="cls-8" d="M1998.59,1398c-7.48.76-12.25-3-15.77-9.54-12-22.28-24.23-44.45-36.41-66.64q-36.29-66.13-72.61-132.25-25-45.55-50-91.09a35.12,35.12,0,0,1-2.19-4.49c-2-5.4-.94-7,5.08-7.68,8.81-1,15.27,1.73,19.72,10.07,11.76,22,24,43.8,36.11,65.66l80.23,145.17q21.77,39.36,43.51,78.7a30.65,30.65,0,0,1,1.79,3.58c2.31,5.83,1.09,7.8-5.27,8.49A38.56,38.56,0,0,1,1998.59,1398Z"/><path class="cls-8" d="M1947.54,1398.1c-7.28.85-12.33-3.24-16.29-10.5q-63.16-115.71-126.68-231.22c-10.72-19.56-21.56-39.05-32.18-58.67-5.45-10.06-4.16-11.66,7.22-11.55,7.23.07,11.73,3.36,15.08,9.46,12.47,22.77,25.13,45.45,37.69,68.17q40.11,72.54,80.18,145.1,21.48,38.91,42.81,77.9C1960.65,1396.38,1959.6,1398.2,1947.54,1398.1Z"/><path class="cls-8" d="M1895.65,1398.06c-6.81.74-11.38-3-15-9.62Q1823,1282.72,1765,1177.16c-14.42-26.29-28.94-52.53-43.28-78.86-1.65-3-5.16-6.34-2.4-10,2.45-3.23,6.78-1.87,10.37-2,7-.34,10.85,3.75,14,9.42,13,23.66,26.12,47.23,39.17,70.85q51,92.31,102,184.62c6.44,11.67,12.41,23.62,19.27,35C1908.83,1394.22,1909.05,1398.53,1895.65,1398.06Z"/><path class="cls-8" d="M2285.43,1244.24q33,60.43,66,120.87c4.46,8.17,9.09,16.27,13.39,24.52,3,5.84,1.86,7.76-4.55,8.44-10.81,1.14-14.85-1-20.16-10.63q-32.78-59.43-65.56-118.84c-2.73-4.94-6-9.62-8.94-14.41-7.1-17-17.12-32.37-25.87-48.44-19.6-36-39.59-71.76-59.28-107.69-5.79-10.57-4.55-12,7.68-11.92,7.17,0,11.78,3,15.17,9.22,13.82,25.47,27.93,50.79,41.84,76.21,6.24,11.39,12.27,22.9,18.39,34.36,5.22.81,9.24,3.45,11.38,8.28C2279.22,1223.93,2287.55,1232.27,2285.43,1244.24Z"/><path class="cls-8" d="M1933.2,1086.3c6.75-.6,11.41,2.58,14.86,8.89q38.14,69.69,76.62,139.2,39.84,72.18,79.73,144.34a136.07,136.07,0,0,1,6.3,12.47c1.48,3.47-.13,5.64-3.8,6.56-9.19,2.3-16.37-.35-21.07-8.77q-25.77-46.27-51.21-92.73Q1998.29,1230.14,1962,1164q-18.29-33.29-36.62-66.54c-.49-.88-1-1.75-1.39-2.66-2.63-6-1.63-7.83,4.8-8.46C1930.13,1086.19,1931.47,1086.3,1933.2,1086.3Z"/><path class="cls-8" d="M1677.73,1086.25c6.75-.77,11.54,3,15.08,9.51,12.46,22.78,25.12,45.46,37.68,68.18q40.11,72.54,80.19,145.1,21.71,39.35,43.29,78.77c4.45,8.11,3.42,9.73-5.42,10.35-9.42.67-15.26-3.08-19.88-11.56-36.11-66.38-72.63-132.54-109-198.78q-24-43.77-48-87.58c-.64-1.17-1.25-2.35-1.85-3.55C1665.32,1087.66,1666.41,1086,1677.73,1086.25Z"/><path class="cls-8" d="M2263.59,1298.19q24,43.82,47.88,87.66c1.65,3.05,5.28,6.15,2.67,9.91-2.37,3.42-6.66,2.23-10.24,2.26-6.28,0-10.65-3-13.64-8.44-6.39-11.68-12.91-23.29-19.44-34.9-1.62-2.9-3.49-5.66-5.25-8.48-10.09-21-22.13-41-33.3-61.5-26.34-48.24-53.11-96.25-79.68-144.36-8.05-14.58-16.14-29.14-24-43.84-4.22-7.94-2.89-9.8,6-10.29,8-.45,13.73,2,17.91,9.63Q2207.77,1197.17,2263.59,1298.19Z"/><path class="cls-8" d="M2049.66,1398.09c-6.62.74-11.6-2.69-15.18-9.26-13.2-24.28-26.61-48.44-39.93-72.65q-42.13-76.58-84.24-153.15-17.8-32.38-35.56-64.8a37.86,37.86,0,0,1-2.13-4.51c-1.54-4-.15-6.31,4.08-7.21,8.9-1.88,15.38.71,20.15,9,7.47,13,14.64,26.15,21.89,39.26q52.4,94.88,104.75,189.75l32.82,59.47c.48.88,1,1.75,1.41,2.65C2062.58,1396.26,2061.37,1398.22,2049.66,1398.09Z"/><path class="cls-8" d="M2035.28,1086.34c7.11-.64,11.56,2.89,15,9.12q39,71.47,78.35,142.78,35.63,64.79,71.27,129.56c4,7.3,8.1,14.56,11.84,22,2.65,5.26,1.41,7.28-4.26,8.14-10.33,1.55-15-.5-20.36-10.2q-25.5-45.84-50.67-91.86-36.35-66.11-72.62-132.25-18.29-33.27-36.6-66.53c-.48-.87-1-1.75-1.37-2.66-2.33-5.58-1.38-7.39,4.34-8.07A43.5,43.5,0,0,1,2035.28,1086.34Z"/><path class="cls-8" d="M2263.45,1390.29l2.07,8c-24.93-.31-20.94,1.27-32.28-19.23-35.64-64.41-70.82-129.07-106.21-193.61-15.7-28.62-31.52-57.17-47.21-85.79-1.83-3.36-5.64-6.78-3-10.85,2.5-3.88,7.25-2.32,11.13-2.44,6-.19,9.84,2.93,12.65,8.09,11.28,20.79,22.73,41.48,34.12,62.21l73.11,133.12q25,45.55,50,91.1C2259.6,1384.05,2261.57,1387.14,2263.45,1390.29Z"/><path class="cls-8" d="M1984.51,1086.24c6.55-.77,11.22,2.79,14.85,9.43q51.21,93.87,102.78,187.54,27.65,50.37,55.25,100.77c1.94,3.58,6.41,7.59,3,11.7s-9.3,2.44-14.18,1.81c-4.4-.57-6.76-3.91-8.75-7.5-6-10.78-12-21.52-18-32.32q-46.86-85.43-93.69-170.87-23.79-43.36-47.7-86.68c-.48-.88-1-1.71-1.5-2.6C1972,1088.85,1973.52,1086.32,1984.51,1086.24Z"/><path class="cls-1" d="M2285.43,1244.24c-8.24-12.23-13.38-26.23-21.89-38.31,2.57-6,1.88-12.43,1.94-18.71.1-9,.05-18,.07-26.94q19.93,35.91,39.89,71.8c1.92,3.46,4,6.82,6,10.23C2302.76,1242.58,2293.93,1241.15,2285.43,1244.24Z"/><path class="cls-17" d="M1661.76,1886.39c-3.18-7.88-1.79-16.14-2-24.26,8,.3,16.07-1,23.83,1.91C1676.93,1872.12,1669.34,1879.26,1661.76,1886.39Z"/><path class="cls-8" d="M408.2,2011.16c0-8.89,1.84-9.9,9.7-5.59q46,25.26,91.85,50.67,66,36.44,132.07,72.89c8.48,4.68,10.51,8.21,9.33,15.62-.74,4.63-2.53,5.81-6.85,3.81-4.82-2.25-9.43-5-14.1-7.53q-102-56-204-112c-3.79-2.09-7.47-4.38-11.32-6.35C409.74,2020,407.78,2015.87,408.2,2011.16Z"/><path class="cls-8" d="M651.2,2061.24c.22,8.9-2.39,10.38-9.9,6.29q-40.35-22-80.54-44.17-71.32-39.15-142.7-78.23c-6.42-3.5-10.9-7.45-9.8-15.46.73-5.26,2.43-6.63,7.21-4.7a92.67,92.67,0,0,1,9.74,5Q531,1988.36,636.76,2046.73c2.91,1.61,5.75,3.34,8.64,5C649.58,2054.13,651.38,2057.81,651.2,2061.24Z"/><path class="cls-8" d="M651.26,2022.45c-.11,7.57-2.48,9.15-8.8,5.8-15.59-8.25-31-16.83-46.46-25.32q-88.83-48.78-177.63-97.6c-9.26-5.09-11.2-8.33-10-16.21.69-4.64,2.41-5.78,6.77-4.19a38.07,38.07,0,0,1,5.34,2.68q110.13,60.83,220.22,121.69c3.72,2.06,8.09,3.57,9.66,8.13A27.74,27.74,0,0,1,651.26,2022.45Z"/><path class="cls-8" d="M651.24,2101.72c.09,8.24-2.33,9.71-9.24,6-20.48-11.08-40.87-22.35-61.29-33.56q-78.3-43-156.6-86.05c-3.5-1.93-7-3.93-10.39-6-2.67-1.58-4.83-3.68-5.12-6.95-.32-3.58-1.6-7.69,1.69-10.31s6.33.31,9.11,1.85q73.47,40.42,146.87,81,37.59,20.73,75.2,41.41C647,2092.1,651.8,2095.41,651.24,2101.72Z"/><path class="cls-8" d="M651.23,2180.05c-.1,8.08-2.81,10.06-8.74,7.06-9.5-4.8-18.78-10.05-28.11-15.18Q517.7,2118.82,421,2065.67a79.61,79.61,0,0,1-7.76-4.51c-4.54-3.21-6.61-11.14-4.49-16.11.76-1.79,2.11-2.73,3.9-2.11a46.75,46.75,0,0,1,7.25,3.27q111,61.27,222,122.58C647,2171.62,652,2174.41,651.23,2180.05Z"/><path class="cls-8" d="M631.51,2205.73c-13.59.4-26.51,1.71-39.41-5.55-53.09-29.88-106.57-59.08-159.9-88.52-5.83-3.22-11.68-6.39-17.48-9.67-3-1.68-5.69-3.76-6.06-7.45-.38-3.86-2-8.44,1.63-11.2,3.17-2.41,6.27.88,9,2.4q91,50.15,181.85,100.42c8.45,4.67,16.93,9.28,25.32,14.05C628.39,2201.28,631,2201.76,631.51,2205.73Z"/><path class="cls-8" d="M560.24,2205.51c-15.38,1.25-28.82,1.07-42.28-6.76-33.1-19.24-66.94-37.23-100.62-55.48-6.66-3.61-10.19-8.26-9-16,.71-4.68,2.36-5.76,6.74-4.08a38.73,38.73,0,0,1,4.42,2.31Q486,2162.23,552.42,2199C555,2200.38,558,2201.21,560.24,2205.51Z"/><path class="cls-8" d="M487.73,2205.57c-15.12,1-29.39,2.12-42.64-6.81-9.33-6.3-19.5-11.39-29.49-16.65-6.31-3.32-8.06-8.4-7.25-14.9.58-4.67,2.35-5.75,6.7-4.22a17.41,17.41,0,0,1,2.68,1.3q33.57,18.59,67.13,37.18C486,2202.1,487.23,2202.72,487.73,2205.57Z"/><path class="cls-5" d="M414.57,2204.48a2,2,0,0,1-2.4,1.12c-1.41-.21-2.48-.95-2.16-2.54a1.66,1.66,0,0,1,2.27-1.17C413.58,2202.24,414.66,2202.87,414.57,2204.48Z"/><path class="cls-1" d="M2681.43,2172.05q0,39.47,0,78.93a82.94,82.94,0,0,1-.32,10c-.75,6.09-2.73,8-8.91,8.76a74.65,74.65,0,0,1-9,.29q-78.43,0-156.86,0c-17.48,0-18.85-1.37-18.86-18.69q-.07-79.92,0-159.86c0-16,1.31-17.33,16.86-17.35q79.92-.08,159.85,0c15.83,0,17.17,1.35,17.21,17C2681.47,2118.1,2681.43,2145.08,2681.43,2172.05Z"/><path class="cls-5" d="M3395.24,1532.13l4.07,2Z"/></svg>