<svg id="Layer_1" data-name="Layer 1" xmlns="http://www.w3.org/2000/svg" viewBox="0 0 841.92 595.68"><defs><style>.cls-1{fill:#525252;}.cls-2{fill:#3b3b3b;}.cls-3{fill:#282828;}.cls-4{fill:#444;}.cls-5{fill:#242424;}.cls-6{fill:#3f3f3f;}.cls-7{fill:#404040;}.cls-8{fill:#4c4c4c;}.cls-9{fill:#454545;}.cls-10{fill:#252525;}.cls-11{fill:#3c3c3c;}.cls-12{fill:#515151;}.cls-13{fill:#505050;}.cls-14{fill:#4f4f4f;}.cls-15{fill:#272727;}</style></defs><path class="cls-1" d="M245.27,595.67H0V542.88c1.39-2.73,3.68-4.68,5.79-6.79q42.95-43.05,86-86c.9-.9,1.85-1.77,2.72-2.7a2.16,2.16,0,0,1,3.15-.44,39,39,0,0,1,3.82,2.73c-.12-.91-.7-1.06-1.15-1.33-1.25-.33-2.2-1.27-3.39-1.69a1.64,1.64,0,0,1-1.1-1.65c-.08-1.12-.06-2.24-.06-3.35q0-69,0-138.06c0-1.54.67-3.13-.13-4.65-.65-.82.06-1.32.49-1.84.76-.92,1.65-1.74,2.49-2.59q71.67-71.67,143.33-143.35a31.2,31.2,0,0,1,3.71-3c1-.24,1.42.58,2,1.07,1,.9,2,1.9,2.92,2.86q70,70,140,140c3.78,3.78,3.79,3.78,7.54,0l139-139c1.7-1.69,3.29-3.54,5.81-4.09a2.54,2.54,0,0,1,1.15.19c4.4,2.93,7.68,7,11.4,10.7a3.78,3.78,0,0,1,1.13,2.81c0,.24,0,.48,0,.72q0,66.19,0,132.39c0,3-.43,3.35-3.5,3.42-1.67,0-3.36-.08-5,.1-2.52.28-3.53,1.29-3.83,3.79a26.86,26.86,0,0,0-.09,3.11q0,67.28,0,134.56c0,1.4-.32,2.88.58,4.18.55.78,1.38.66,2.17.66,2.15,0,4.31,0,6.47,0,2.88.06,3.17.36,3.23,3.33,0,.56,0,1.11,0,1.67q0,64.6,0,129.19a8.3,8.3,0,0,1-2.87,6.94c-2.74,2.36-4.88,5.36-7.92,7.42-.36.25-.84.36-1.12.75-.45.21-1,.25-1.34.68H245.75c-1.57-2.14-1.71-4.57-1.71-7.13q.08-48,0-96c0-13.83,0-27.65,0-41.48,0-4,1.38-5.35,5.47-5.41,7-.09,7.47-.58,7.47-7.57q0-39.94,0-79.9c0-1.28,0-2.56-.12-3.83a2.52,2.52,0,0,1,.34-.79,4.37,4.37,0,0,1,.86-1.31c1.36-1.16,1.4-2.34.05-3.55a5.78,5.78,0,0,1-1.23-1.7c.21-4.85.06-9.7.08-14.54a21.09,21.09,0,0,1,.47-4.95c0-.56.52-.75.86-1.06,1-.94,1.09-2,0-2.86a2.42,2.42,0,0,1-1-2,12.38,12.38,0,0,1-.29-4.53,10.93,10.93,0,0,0-4-9.77c-1.39-1.18-2.59-2.61-3.93-3.86-.4-.38-.85-.85-1.46-.63s-.61.87-.65,1.43c-.08.95,0,1.91,0,2.87q0,67.61,0,135.21c0,1.82.19,3.67-1.62,4.87-1,.88-2.19.84-3.39.86a31,31,0,0,0-4.31.17,3.33,3.33,0,0,0-3,3,21.54,21.54,0,0,0-.17,3.59q0,61-.06,122c0,4.22,1.13,7.57,4.32,10.4a30.72,30.72,0,0,1,6.32,7A1.83,1.83,0,0,1,245.27,595.67Z"/><path class="cls-2" d="M543.82,594.72l10.06-9.94a4.58,4.58,0,0,0,1.44-3.43c0-.8,0-1.6,0-2.4q0-63.51,0-127c0-.88,0-1.77,0-2.64-.15-1.74-.64-2.29-2.38-2.36-2.23-.1-4.47-.05-6.71-.07a6.28,6.28,0,0,1-3.26-.55,20.41,20.41,0,0,1,4.24-5.29Q616,372.28,684.68,303.48c2.22-2.22,4.63-4.22,6.93-6.36a1.4,1.4,0,0,1,.79-.21q71.77-.09,143.52-.05c1.27,0,2.56.6,3.81-.07,1.11-.22,1.44.78,2.09,1.29V595.19a4.1,4.1,0,0,1-2.35.23q-146.65,0-293.33,0C545.41,595.39,544.2,596.24,543.82,594.72Z"/><path class="cls-3" d="M245.74,149.27c-.83.75-1.69,1.46-2.48,2.25Q171.14,223.63,99,295.75c-.73.73-1.42,1.51-2.14,2.27a12,12,0,0,1-3.23,4.9Q48.76,347.74,3.94,392.64c-.57.57-1.16,1.1-1.74,1.65-.83.8-1.53.65-2.18-.21V148.81c1-1.38,2.5-1.2,3.93-1.2q21.47,0,42.94,0h42c1.12,0,2.24,0,3.36-.1a3.44,3.44,0,0,0,3.41-3.36,39,39,0,0,0,.12-4.32q0-66.59,0-133.17c0-1.84.25-3.66.19-5.5a.83.83,0,0,1,.4-.71A1.48,1.48,0,0,1,97.59.37c2.54,1,4.11,3.31,6.21,4.9,5.6,4.23,7.08,9.58,7,16.59-.36,39.35-.17,78.7-.17,118.06a28.19,28.19,0,0,0,.14,4.31c.36,2.33,1.64,3.31,4.21,3.29s3.81-1,4.16-3.36a31,31,0,0,0,.12-4.31q0-55.92,0-111.83c0-1.53-.7-3.61,1.12-4.37s2.78,1.17,3.86,2.24c2.68,2.63,5.4,5.23,7.89,8a7.92,7.92,0,0,1,2,5.66c-.07,12.16,0,24.32,0,36.48v63.83c0,1,0,2.08,0,3.12.14,3.68,1.83,5,5.42,4.42a3.33,3.33,0,0,0,3-2.94,26,26,0,0,0,.17-4.32q0-43.43,0-86.86a11.49,11.49,0,0,1,.38-4c.71-1.92,1.38-2.24,2.95-1A53.7,53.7,0,0,1,157,59.33c1.24,1.72,1.13,3.94,1.13,6v74.87a25.15,25.15,0,0,0,.15,4.07c.38,2.34,1.77,3.32,4.51,3.24,2.47-.08,3.58-1,3.88-3.35a28.81,28.81,0,0,0,.1-3.6q0-32.62,0-65.27c0-1.41-.71-3.38,1.06-4,1.56-.58,2.67,1.06,3.72,2,3,2.75,5.8,5.73,8.7,8.61,1.29,1.27,1.37,2.78,1.37,4.41q0,27,0,54a30.69,30.69,0,0,0,.09,3.59c.28,2.55,1.52,3.61,4.15,3.64s4-1.08,4.31-3.73a31.16,31.16,0,0,0,.08-3.35c0-14,0-28,0-42,0-1.31-.53-3,1-3.75s2.55.85,3.51,1.8c2.95,2.93,6,5.74,8.7,8.94a7,7,0,0,1,1.65,4.82c-.05,10,0,20,0,30,0,1,0,1.92,0,2.88.15,3.23,1.21,4.37,4.08,4.41,3.06,0,4.39-1.15,4.47-4.33.16-6.31,0-12.64.06-19a12.47,12.47,0,0,1,.43-3.8c.65-2.07,1.27-2.32,3-1.11a47.36,47.36,0,0,1,6.84,6.36c6.15,6.26,4.92,3.73,5.07,12.25,0,1.92-.09,3.84.08,5.75.23,2.56,1.3,3.61,3.75,3.81,2.85.23,4.14-.64,4.76-3.19s1.1-2.79,3.37-1.22a27,27,0,0,1,4.37,4.1C246.08,147.82,246.58,148.48,245.74,149.27Z"/><path class="cls-1" d="M841.82,298.08l-1.79-.52a4.74,4.74,0,0,1-3.24-1.61c-1.77-1.74-3.52-3.49-5.27-5.24q-69.12-69.13-138.2-138.28c-.87-.87-2.13-1.51-2.16-3-.31-1.38.55-2.22,1.4-3.07,3.89-3.92,7.83-7.78,11.72-11.68q64.94-65.12,130-130.1c1.58-1.57,3.09-3.23,5.24-4.06a1.51,1.51,0,0,0,.84-.51c.79,0,1.86-.29,1.45,1.21a3.77,3.77,0,0,0,0,1Z"/><path class="cls-4" d="M0,394.08c1.38-.41,2.23-1.52,3.19-2.47L54.78,340l39.36-39.36c.91-.91,1.84-1.78,2.77-2.66,0,1.68,0,3.35,0,5v138.1c0,4.79,0,4.79,4.64,5.34a13.12,13.12,0,0,1,1.62.38c-1.79,2-3.85.88-5.85.51a2.46,2.46,0,0,0-2.09,1c-.56.57-1.13,1.13-1.7,1.69l-90,90c-1.07,1.06-2,2.28-3.53,2.82Z"/><path class="cls-5" d="M96.42.94A10.54,10.54,0,0,1,97,5.43V144c0,1,0,1.92,0,2.88-.16,1.78-.67,2.26-2.45,2.1-2-.18-4-.18-6-.18H0V96.49c1.37-2.72,3.66-4.67,5.77-6.77Q48.48,47,91.21,4.27A14.84,14.84,0,0,1,95.35.9.93.93,0,0,1,96.42.94Z"/><path class="cls-2" d="M96.42.94c-1,1-2.11,2-3.13,3L3.54,93.65C2.47,94.72,1.52,96,0,96.49V.49A4.2,4.2,0,0,1,2.37.27Q49,.24,95.63.26a1.1,1.1,0,0,1,.87.26C96.48.66,96.45.8,96.42.94Z"/><path class="cls-2" d="M259.21,327.87a4.73,4.73,0,0,0-1,3.59q0,8,0,16.06c0,.15.07.36,0,.46-1.56,1.92-1.15,3.84,0,5.76q0,43.78,0,87.57c0,1,0,1.92,0,2.88-.12,2-.59,2.52-2.61,2.64-1,.05-1.92,0-2.88,0-7.69,0-6.85-.64-6.9,7,0,1,0,2.08,0,3.12V590.88c0,1.6,0,3.2,0,4.79h-.48l-.49-.93a15.33,15.33,0,0,1-.73-5.26q0-69,0-138c0-1.64-.39-3.41,1.19-4.66a15.1,15.1,0,0,0,.45-5.23q0-69.17,0-138.35a29.38,29.38,0,0,1,.11-3.11c.08-.72.62-1,1.18-.48,3.62,3.49,7.31,6.92,10.59,10.74a4.12,4.12,0,0,1,.58,2.77q0,4.44.07,8.87c0,.31.12.68-.09.91-1.38,1.56-1.46,2.88.62,3.89C259.19,327,259.15,327.49,259.21,327.87Z"/><path class="cls-6" d="M97.49.54l-1,0,0-.09L96.11.19,96.49,0H542.82a.78.78,0,0,1,.06.85c-1.09.93-2.41.83-3.71.83q-18.45,0-36.91,0-50.56,0-101.13,0c-1.63,0-3.39-.44-4.83.78-.76.7-.56,1.63-.56,2.49q0,68.34,0,136.68c0,.48,0,1,0,1.43.22,3.18,1.29,4.23,4.45,4.47,2.34.17,4.78-.37,7,.9.59,1.38-.36,1.82-1.36,1.88a88.14,88.14,0,0,1-11.26,0,1.71,1.71,0,0,1-1.64-1.71,25.43,25.43,0,0,1-.1-3.6q0-67.54,0-135.09a31.55,31.55,0,0,0-.14-4.56,3.6,3.6,0,0,0-3.55-3.55,35.33,35.33,0,0,0-5-.14q-140.24,0-280.48,0C101.49,1.71,99.39,1.69,97.49.54Z"/><path class="cls-7" d="M543.82,594.72a7.58,7.58,0,0,0,2.83.47H841.82c-.11.15.24.51-.24.49-.64,0-1.28,0-1.92,0H543.3C543.48,595.36,543.65,595,543.82,594.72Z"/><path class="cls-8" d="M542.82.49V0H840.38l-.48,1c-3.61,1-7.32.72-11,.72q-140.56,0-281.15,0c-1.6,0-3.31.36-4.76-.76C542.93.79,542.88.64,542.82.49Z"/><path class="cls-9" d="M96.49,0l0,.42c-1.52,0-3,.06-4.56.06Q46,.51,0,.49C.13.35-.22,0,.26,0,.9,0,1.54,0,2.18,0Z"/><path class="cls-5" d="M394.53.91A12.64,12.64,0,0,1,399.27.5H542.85A3.52,3.52,0,0,1,544,3.25c0,.56,0,1.11,0,1.67q0,69.84,0,139.67c0,1.54.71,3.42-1.19,4.52-1.76-.3-2.85-1.86-4.46-2.38.95,1.25,2.63,1.17,3.69,2.16.3.27.71.4.33.88-1,1-2.1,2-3.11,3q-71,71-142,142c-3.19,3.19-2.72,3.2-5.88,0L249,152.47c-1.07-1.08-2.16-2.14-3.25-3.2a26.8,26.8,0,0,0-5-4.86c-1.12-.81-1.53-.6-1.72.71-.56,3.83-.56,3.83-4.39,3.71-.72,0-1.44,0-2.16,0-4.36,0-4.52-.18-4.53-4.66,0-3-.1-6.08,0-9.11a7.39,7.39,0,0,0-2.6-6.37c-2.1-1.85-4-3.94-6-5.91a20.27,20.27,0,0,0-2-1.73c-1.41-1-1.93-.85-2.22.85a22,22,0,0,0-.21,3.35c0,6.24,0,12.47,0,18.71,0,.8,0,1.61-.05,2.4-.15,1.75-.63,2.3-2.35,2.41-2.23.14-4.48.15-6.71.23a1.64,1.64,0,0,1-1.85-1.74c-.06-.88-.07-1.76-.07-2.64,0-11-.06-22.07,0-33.11a8.29,8.29,0,0,0-2.3-6.31q-4-4.11-8.08-8.2c-.39-.39-.81-.89-1.44-.67s-.62.88-.65,1.43c0,.88,0,1.76,0,2.64q0,21.83,0,43.67c0,4.62-.13,4.75-4.66,4.76-1.36,0-2.72,0-4.08-.07-1.58-.13-2.08-.67-2.23-2.27-.09-.95-.06-1.92-.06-2.88V88.65c0-1,0-2.08,0-3.12a4.29,4.29,0,0,0-1.26-3l-8.51-8.45a3.45,3.45,0,0,0-.56-.45c-.46-.3-.89-.85-1.48-.64-.76.28-.56,1.07-.6,1.68-.05.8,0,1.6,0,2.4q0,33.71,0,67.42a29.3,29.3,0,0,1-.13,3.11,1.46,1.46,0,0,1-1.64,1.4c-2.4-.06-4.8-.13-7.19-.25a1.93,1.93,0,0,1-2-2c-.07-1-.09-2.08-.09-3.12,0-25.35-.1-50.7.08-76.06,0-5.13-1.39-9.18-5.25-12.48-1.51-1.3-2.82-2.84-4.29-4.19-.73-.68-1.52-1.82-2.58-1.41s-.82,1.78-.88,2.78,0,2.24,0,3.36q0,43.9,0,87.82c0,1,0,2.08-.07,3.11-.14,1.51-.61,2.08-2.05,2.18-2.39.17-4.79.21-7.19.26a1.45,1.45,0,0,1-1.59-1.45c-.1-1.11-.13-2.24-.13-3.35,0-34.15-.07-68.31.08-102.46a11.8,11.8,0,0,0-3.92-9.31c-2.21-2.08-4.3-4.29-6.47-6.42-.39-.38-.8-.92-1.42-.72s-.69,1-.72,1.62c0,1,0,2.08,0,3.12q0,56.75,0,113.49c0,1.12,0,2.24-.1,3.36a1.87,1.87,0,0,1-1.85,1.86,45.42,45.42,0,0,1-7.19,0,1.87,1.87,0,0,1-1.8-1.91c-.07-1.11-.09-2.23-.09-3.35v-125c0-6.43.25-5.34-3.94-9.63-2.68-2.74-5.56-5.3-8-8.25,1.35,0,2.71,0,4.07,0Q245,.49,388.49.5c1.2,0,2.4,0,3.6.07a1.81,1.81,0,0,1,1.84,1.83c.06,1,.07,1.92.07,2.88V144c0,1.12,0,2.24.07,3.36.05,1,.46,1.82,1.51,1.85,3.66.08,7.33.6,11-.35a3.23,3.23,0,0,1-1.21-2.78c0-1.12,0-2.24,0-3.36,0-40.76-.06-81.52.09-122.28,0-5-1.26-9-5.13-12.25C397.92,6.16,395.58,4,394.53.91Z"/><path class="cls-5" d="M692,149.35c.94,1,1.86,2,2.83,2.94q71,71,142,142c1.08,1.08,2.13,2.17,3.19,3.26a11.72,11.72,0,0,1-4.74.5H735.47l-43.91,0a51.33,51.33,0,0,1-4.59-2.41c1.09,1.61,3.26,1.26,4.62,2.37-.81.89-1.58,1.8-2.43,2.65q-71.52,71.55-143.07,143.09a8.92,8.92,0,0,1-3.16,2.52c0-1.2,0-2.4,0-3.6V303.06c0-.64,0-1.28,0-1.92.06-2.76.34-3.06,3-3.11,1.76,0,3.52,0,5.28,0,.56,0,1.12,0,1.68,0,2-.12,2.38-.48,2.5-2.42,0-.55,0-1.11,0-1.67q0-64.43,0-128.85a7.39,7.39,0,0,0-2.44-5.91c-3.28-3-6.4-6.27-9.58-9.42-.49-1.26.42-1.35,1.26-1.52a16.79,16.79,0,0,1,3.09-.12q69.9,0,139.81,0C689.13,148.11,690.91,147.61,692,149.35Z"/><path class="cls-4" d="M692,149.35c-1.2,0-2.4-.1-3.6-.1H547.64c-1.42,0-2.89-.21-4.24.48l-1,0a7.22,7.22,0,0,0-3.25-.48c-2.62-.11-2.93-.42-3-3.11a16.89,16.89,0,0,1,.12-2.36c.06-.47.4-.66.87-.38a5,5,0,0,0,4.83,4.83,1,1,0,0,0,.84-1q.06-1,.06-1.92V.48H834.68c1.75,0,3.53-.19,5.22.47-.88.82-1.79,1.59-2.64,2.44L694.69,146A10.08,10.08,0,0,0,692,149.35Z"/><path class="cls-5" d="M245.27,446.83c0,1.12,0,2.24,0,3.36q0,69.92,0,139.83c0,1.59.19,3.21-.53,4.72-3.24-3.21-6.43-6.46-9.72-9.61a6,6,0,0,1-1.91-4.68c.06-9.59,0-19.18,0-28.78v-100c0-4.84,0-4.85,4.89-4.85Z"/><path class="cls-5" d="M221.47,570.78c-.94.1-1.31-.62-1.79-1.1-2.85-2.81-5.62-5.69-8.51-8.45a5.63,5.63,0,0,1-1.86-4.45c.06-7.51,0-15,0-22.54V451.52c0-1,0-1.92.07-2.88a1.7,1.7,0,0,1,1.85-1.77q4.32,0,8.63,0a1.76,1.76,0,0,1,1.9,2c0,.64.05,1.28.05,1.92q0,58.64,0,117.26A4.72,4.72,0,0,1,221.47,570.78Z"/><path class="cls-2" d="M269.28,384.15q0-28.92,0-57.84c0-1.11-.63-2.77.65-3.23,1-.35,1.73,1.18,2.51,1.94,2.53,2.45,5,5,7.49,7.44a5.34,5.34,0,0,1,1.8,4.27c0,.79,0,1.6,0,2.4V441.6c0,1,0,1.92-.05,2.88-.14,1.72-.63,2.26-2.4,2.32q-3.84.13-7.68,0c-1.71-.06-2.17-.63-2.3-2.42-.07-.87,0-1.75,0-2.63Q269.27,413,269.28,384.15Z"/><path class="cls-5" d="M198.22,497.52v46.07a21.31,21.31,0,0,1-.06,2.4c-.13,1.17-.7,1.41-1.57.56-3.37-3.3-6.68-6.66-10-10a3,3,0,0,1-.84-2.19c0-.8,0-1.6,0-2.39V451.33c0-4.5,0-4.5,4.51-4.51,1.92,0,3.84,0,5.76,0,1.7.08,2.07.49,2.2,2.19.06.87,0,1.75,0,2.63Z"/><path class="cls-2" d="M293.22,396.33q0-23.15,0-46.3c0-1-.46-2.47.49-2.9,1.21-.55,1.8,1,2.56,1.71,2.43,2.32,4.7,4.8,7.17,7.08a6.56,6.56,0,0,1,2.26,5.53c-.09,1.68,0,3.36,0,5v74.62c0,1,0,2.08,0,3.12-.14,1.91-.63,2.5-2.45,2.56-2.56.1-5.12.09-7.68,0-1.59-.06-2.09-.64-2.25-2.23-.08-.88,0-1.76,0-2.64Z"/><path class="cls-5" d="M174.61,485.57q0,17.63,0,35.25c0,.89.47,2.17-.66,2.54-.89.3-1.42-.86-2-1.45-2.68-2.63-5.27-5.35-8-7.93a6.2,6.2,0,0,1-2-4.89c.06-9.27,0-18.54,0-27.81V451.54c0-.48,0-1,0-1.44.06-3,.32-3.25,3.34-3.27,2.31,0,4.63,0,6.95,0,1.84.06,2.23.47,2.37,2.27.06.8,0,1.6,0,2.4Z"/><path class="cls-2" d="M316.77,408c0-11.44,0-22.88,0-34.32,0-1.06-.57-2.63.58-3.06s1.77,1.13,2.54,1.87c2.36,2.28,4.58,4.71,7,6.92a7.11,7.11,0,0,1,2.36,5.73c0,17.36,0,34.72,0,52.08,0,2.24,0,4.48,0,6.72s-.55,2.85-2.83,2.91-4.64.06-6.95,0c-2-.07-2.54-.59-2.64-2.61-.07-1.51,0-3,0-4.55Z"/><path class="cls-5" d="M150.45,499.78c-1,0-1.38-.72-1.88-1.21-2.83-2.81-5.62-5.67-8.49-8.44a5.44,5.44,0,0,1-1.82-4.22c0-12,0-24,0-35.93,0-2.84.32-3.12,3.2-3.15,2.32,0,4.63-.05,6.95,0,1.85.06,2.18.45,2.31,2.31,0,.63,0,1.27,0,1.91q0,22.88,0,45.75A6.22,6.22,0,0,1,150.45,499.78Z"/><path class="cls-2" d="M340.32,419.78c0-7.75,0-15.51,0-23.27,0-.83-.4-2,.54-2.4s1.45.78,2,1.37c2.69,2.63,5.3,5.34,8,7.95a5.83,5.83,0,0,1,1.89,4.47c0,11.91,0,23.83,0,35.75,0,2.73-.48,3.14-3.28,3.2-1.84,0-3.68,0-5.52,0-3.32,0-3.64-.36-3.65-3.79,0-4.56,0-9.12,0-13.68Z"/><path class="cls-2" d="M441.59,521.13q0-17.14,0-34.27c0-1.34-.26-2.84.83-3.87a15.33,15.33,0,0,1,5.69-3.45,1,1,0,0,1,1.41.91,11.74,11.74,0,0,1,.17,2.14c0,7.27,0,14.54,0,21.81a10.48,10.48,0,0,1-1.36,5.24c-4.27,7.87-4.12,15.75.22,23.54a8.73,8.73,0,0,1,1.13,4.34c0,7.59,0,15.17,0,22.76v.24c-.09,2.69-.55,3-3,1.71-4.94-2.47-5.1-2.72-5.1-8.27Q441.58,537.55,441.59,521.13Z"/><path class="cls-2" d="M495.31,521.09v33.82c0,.88,0,1.76-.07,2.64a2.58,2.58,0,0,1-.77,2,19.88,19.88,0,0,1-5.77,3.36c-.75.29-1.25-.13-1.38-.89a12,12,0,0,1-.12-1.9c0-7.44,0-14.88,0-22.31a10,10,0,0,1,1.36-5c4.39-7.85,4.19-15.73-.17-23.52a8.51,8.51,0,0,1-1.18-4.32c0-7.52,0-15,0-22.55,0-3.24.63-3.56,3.53-2,4.58,2.5,4.58,2.5,4.58,7.83Z"/><path class="cls-2" d="M503.09,551.6c-.8-.63-.55-1.5-.55-2.25q0-28.07,0-56.13c0-.76-.33-1.84.53-2.16s1.32.7,1.8,1.28a43.88,43.88,0,0,1,4.74,7.2,8.48,8.48,0,0,1,1,4.15v34.78a9.23,9.23,0,0,1-1,4.15,39.73,39.73,0,0,1-5.25,8C504,551,503.71,551.52,503.09,551.6Z"/><path class="cls-2" d="M434,551.57a1.54,1.54,0,0,1-1.38-.79c-.55-.68-1.05-1.41-1.6-2.09a19.61,19.61,0,0,1-4.5-13.73c.36-10.3.14-20.63.08-31a11.09,11.09,0,0,1,1.76-6.35,62.93,62.93,0,0,1,3.7-5.31c.47-.59.86-1.62,1.78-1.29s.45,1.26.52,1.95c0,.47,0,1,0,1.44q0,26.88,0,53.75A6.9,6.9,0,0,1,434,551.57Z"/><path class="cls-5" d="M468.45,342.15H453.33c-.72,0-1.44,0-2.16,0a1.81,1.81,0,0,1-1.92-2c0-1.76-.07-3.52,0-5.28.07-1.51.53-1.9,2.08-2.06a15.64,15.64,0,0,1,1.68,0h31.43c3,.06,3.25.32,3.29,3.35,0,1.2,0,2.4,0,3.59-.1,1.94-.5,2.36-2.48,2.44-1.76.07-3.52,0-5.28,0Z"/><path class="cls-5" d="M468.57,429.48H453a17.1,17.1,0,0,1-2.15-.1,1.57,1.57,0,0,1-1.54-1.56c0-2,0-4,0-6a1.63,1.63,0,0,1,1.69-1.67c.63-.06,1.27-.07,1.91-.07h31.19c.4,0,.8,0,1.2,0,2,.14,2.36.51,2.44,2.48.06,1.52.06,3,0,4.55-.08,1.8-.51,2.18-2.35,2.32-.63.05-1.28,0-1.92,0Z"/><path class="cls-5" d="M468.38,394.5H453.26c-.72,0-1.44,0-2.15-.05a1.72,1.72,0,0,1-1.84-1.8c0-1.84,0-3.68,0-5.52a1.72,1.72,0,0,1,1.87-1.76c.64,0,1.28-.06,1.92-.06h30.71c3.77,0,3.93.19,3.95,3.92,0,.8,0,1.6,0,2.4-.08,2.46-.38,2.8-2.79,2.85s-5,0-7.44,0Z"/><path class="cls-5" d="M468.68,411.89H453.11c-.72,0-1.44,0-2.15-.07a1.6,1.6,0,0,1-1.67-1.68c0-1.91,0-3.83,0-5.74a1.61,1.61,0,0,1,1.71-1.64q1-.06,1.92-.06h31.14c.4,0,.8,0,1.2,0,2,.12,2.35.47,2.44,2.45.07,1.43.07,2.87,0,4.31-.1,1.94-.49,2.33-2.5,2.38-2.95.06-5.91,0-8.86,0Z"/><path class="cls-5" d="M468.35,376.89H453c-.72,0-1.44,0-2.16-.1a1.52,1.52,0,0,1-1.52-1.55c-.07-1.92-.07-3.84,0-5.76A1.62,1.62,0,0,1,451,367.8c.64-.06,1.28-.08,1.92-.08h31.19c.4,0,.8,0,1.2,0,2,.13,2.37.49,2.44,2.46.06,1.6,0,3.2,0,4.8a1.71,1.71,0,0,1-1.81,1.82c-.71,0-1.43.07-2.15.07Z"/><path class="cls-5" d="M468.31,324.55H453c-.72,0-1.44,0-2.15-.09a1.51,1.51,0,0,1-1.53-1.54c-.06-1.91-.06-3.83,0-5.74,0-1.16.75-1.7,1.86-1.76.56,0,1.12-.05,1.68-.05H484c3.62,0,3.77.17,3.79,3.79,0,.8,0,1.6,0,2.4-.08,2.59-.38,2.91-2.9,3-1.28,0-2.56,0-3.83,0Z"/><path class="cls-5" d="M468.43,359.52c-5.35,0-10.7,0-16.05,0-2.87,0-3.12-.3-3.16-3.2,0-1.19,0-2.39,0-3.59.1-1.88.45-2.22,2.27-2.36.56,0,1.12,0,1.68,0H483.6c.56,0,1.12,0,1.68,0,2,.13,2.34.47,2.43,2.46.07,1.35.06,2.72,0,4.07-.08,2.21-.45,2.57-2.77,2.62-2.79.05-5.59,0-8.38,0h-8.14Z"/><path class="cls-5" d="M127.15,461.86c0,3.84,0,7.67,0,11.51a11,11,0,0,1-.1,1.91c-.14.73-.62.9-1.23.46a6.77,6.77,0,0,1-.89-.8c-2.89-2.88-5.74-5.79-8.66-8.64a5,5,0,0,1-1.62-3.82c.06-4.24,0-8.47,0-12.71,0-2.6.33-2.89,2.92-2.93,2.32,0,4.63,0,7,0,2.13,0,2.55.42,2.57,2.55.06,4.15,0,8.31,0,12.46Z"/><path class="cls-2" d="M376.73,437.67c0,2.08,0,4.15,0,6.22-.06,2.45-.52,2.89-3,2.95-2.23.05-4.47.06-6.7,0s-2.67-.61-2.71-2.77c-.07-3.75,0-7.5,0-11.24q0-6.1,0-12.21a12,12,0,0,1,.11-1.9c.12-.73.55-.94,1.2-.5a2.69,2.69,0,0,1,.37.3l9.64,9.65a4.41,4.41,0,0,1,1.14,3.3c0,2.07,0,4.15,0,6.22Z"/><path class="cls-4" d="M302.39,517.43c-3.67,0-7.34,0-11,0-2.87,0-3.33-.5-3.37-3.36,0-2.55-.05-5.11,0-7.66.06-2.28.59-2.83,2.86-2.88q4.31-.09,8.61,0c2.26.06,2.8.6,2.84,2.9.06,3.67,0,7.34,0,11Z"/><path class="cls-2" d="M465,486.55c0,2.88,0,5.76,0,8.64,0,2.52-.33,2.86-2.65,3.59-1.14.37-2.27.79-3.42,1.12-1.38.4-1.94.14-1.95-1.2-.06-6.88,0-13.76,0-20.64a2.24,2.24,0,0,1,2-2.32,34.65,34.65,0,0,1,3.79-.57c1.73-.11,2.16.26,2.2,2,.07,3.12,0,6.24,0,9.36Z"/><path class="cls-2" d="M456.93,553.69c0-3.19,0-6.38,0-9.57,0-2.07.36-2.26,2.26-1.59,1.21.42,2.4.88,3.63,1.22A2.62,2.62,0,0,1,465,546.5c0,6.14.05,12.28,0,18.42,0,2-.75,2.47-2.79,2.26a24.56,24.56,0,0,1-2.83-.47c-1.91-.44-2.37-1-2.41-3-.06-3.35,0-6.7,0-10Z"/><path class="cls-2" d="M480,554.09c0,3.11,0,6.22,0,9.33,0,2.38-.49,2.87-2.84,3.39a15.29,15.29,0,0,1-2.59.39c-1.46.07-2-.44-2.22-1.91a9.39,9.39,0,0,1-.06-1.19c0-5.59,0-11.17,0-16.75,0-2.78.26-3,2.88-3.92,1.13-.38,2.24-.82,3.38-1.2a.93.93,0,0,1,1.36.86A15.28,15.28,0,0,1,480,545q0,4.54,0,9.09Z"/><path class="cls-2" d="M480,488.64c0,2.8,0,5.59,0,8.39a15.18,15.18,0,0,1-.09,1.91c-.12.86-.62,1.36-1.5,1.08-1.6-.5-3.18-1.06-4.75-1.66a2.14,2.14,0,0,1-1.33-2.1c-.05-1.28-.06-2.56-.06-3.83,0-4.8,0-9.6,0-14.39,0-2.78.4-3.1,3.07-2.79,4.27.5,4.64.92,4.66,5.24Z"/><path class="cls-4" d="M316.28,517.91q0,6.74,0,13.45c-4,.53-7.93.14-11.9.2-.84,0-1-.47-1.11-1.46-.49-3.55.18-7.09-.25-10.62a1.48,1.48,0,0,1,1.58-1.81C308.5,517.84,312.4,517.39,316.28,517.91Z"/><path class="cls-4" d="M316.28,517.91c-3.11,0-6.21,0-9.31,0-2.56,0-3.07.57-3.13,3.12s-.06,4.94,0,7.4c.07,2.26.61,2.81,2.89,2.86,3.18.07,6.37,0,9.55,0-1.68.67-3.44.44-5.18.46-1.9,0-3.8,0-5.71,0-2.44-.07-3-.55-3-3-.06-3.81,0-7.61,0-11.42l0,0h10.41A9.43,9.43,0,0,1,316.28,517.91Z"/><path class="cls-10" d="M164.2,376.21a2.84,2.84,0,1,1,2.93,2.8A2.87,2.87,0,0,1,164.2,376.21Z"/><path class="cls-10" d="M200.27,376a2.87,2.87,0,1,1-5.74.18,3,3,0,0,1,2.8-3A2.87,2.87,0,0,1,200.27,376Z"/><path class="cls-10" d="M227.75,328a2.86,2.86,0,0,1-2.86-2.88,3,3,0,0,1,2.94-2.85,2.87,2.87,0,1,1-.08,5.73Z"/><path class="cls-10" d="M200.27,350.53a2.9,2.9,0,0,1-2.77,3,3,3,0,0,1-3-2.84,2.87,2.87,0,1,1,5.74-.14Z"/><path class="cls-10" d="M227.89,302.4a2.81,2.81,0,0,1-3-2.7,3,3,0,0,1,2.79-3,2.91,2.91,0,0,1,3,2.74A2.85,2.85,0,0,1,227.89,302.4Z"/><path class="cls-10" d="M169.88,350.65a2.84,2.84,0,1,1-2.78-2.94A2.84,2.84,0,0,1,169.88,350.65Z"/><path class="cls-10" d="M227.87,276.93a2.85,2.85,0,1,1,2.81-2.92A2.86,2.86,0,0,1,227.87,276.93Z"/><path class="cls-10" d="M321.77,274.15a2.86,2.86,0,0,1-2.95,2.78,2.85,2.85,0,1,1,.13-5.69A2.85,2.85,0,0,1,321.77,274.15Z"/><path class="cls-10" d="M200.26,325.15a2.75,2.75,0,0,1-2.89,2.79,2.86,2.86,0,0,1-2.83-2.9,2.86,2.86,0,1,1,5.72.11Z"/><path class="cls-10" d="M194.54,401.7a2.85,2.85,0,0,1,2.8-2.92,2.76,2.76,0,0,1,2.93,2.76,2.87,2.87,0,1,1-5.73.16Z"/><path class="cls-10" d="M321.77,299.68a2.8,2.8,0,0,1-3,2.72,2.85,2.85,0,0,1-2.73-2.8,2.89,2.89,0,1,1,5.77.08Z"/><path class="cls-10" d="M227.86,353.5a3,3,0,0,1-3-2.81,3,3,0,0,1,2.82-3,3,3,0,0,1,3,2.81A3,3,0,0,1,227.86,353.5Z"/><path class="cls-10" d="M258.21,353.74c-2.29-.95-3-1.9-2.76-3.6s1.41-2.22,2.78-2.62a6.5,6.5,0,0,1,1.09.43c2.33,1.4,2.28,3.52-.11,5.39-.29.23-.72.12-1,.41Z"/><path class="cls-10" d="M349.35,271.25a2.84,2.84,0,1,1-3,2.82A2.84,2.84,0,0,1,349.35,271.25Z"/><path class="cls-10" d="M200.27,274.16a2.86,2.86,0,1,1-2.85-2.92A2.83,2.83,0,0,1,200.27,274.16Z"/><path class="cls-10" d="M169.88,401.7a2.84,2.84,0,1,1-2.82-2.94A2.83,2.83,0,0,1,169.88,401.7Z"/><path class="cls-10" d="M227.88,373.22a2.89,2.89,0,1,1-3,2.78A3,3,0,0,1,227.88,373.22Z"/><path class="cls-10" d="M197.4,302.39a2.81,2.81,0,0,1-2.85-2.89,2.87,2.87,0,0,1,5.73.05A2.76,2.76,0,0,1,197.4,302.39Z"/><path class="cls-10" d="M261,299.47a2.81,2.81,0,0,1-2.8,2.92,2.7,2.7,0,0,1-2.85-2.59,2.82,2.82,0,0,1,2.65-3.07A2.85,2.85,0,0,1,261,299.47Z"/><path class="cls-5" d="M259.21,327.87c-.32,0-.64,0-.95,0-1.78-.23-2.52-.78-2.78-2.07a3,3,0,0,1,1.87-3.44,5.64,5.64,0,0,1,.91-.28,8,8,0,0,1,1.48.67C261.62,324.09,261.41,326.05,259.21,327.87Z"/><path class="cls-10" d="M288.45,302.39a2.8,2.8,0,0,1-2.78-2.94,2.85,2.85,0,0,1,3-2.72,2.8,2.8,0,0,1,2.64,2.84A2.71,2.71,0,0,1,288.45,302.39Z"/><path class="cls-10" d="M167.12,302.39a2.79,2.79,0,0,1-2.91-2.8,2.83,2.83,0,0,1,5.66-.16A2.79,2.79,0,0,1,167.12,302.39Z"/><path class="cls-10" d="M169.87,427.19A2.81,2.81,0,0,1,167,430a2.85,2.85,0,0,1-2.74-3,2.79,2.79,0,0,1,2.82-2.65A2.76,2.76,0,0,1,169.87,427.19Z"/><path class="cls-10" d="M167.14,271.25a2.84,2.84,0,1,1-2.93,2.8A2.82,2.82,0,0,1,167.14,271.25Z"/><path class="cls-10" d="M291.32,274a2.83,2.83,0,1,1-5.65.09,2.83,2.83,0,0,1,2.67-2.82A2.79,2.79,0,0,1,291.32,274Z"/><path class="cls-10" d="M258.24,276.92a2.84,2.84,0,0,1-.24-5.67,2.84,2.84,0,1,1,.24,5.67Z"/><path class="cls-10" d="M169.88,325.17a2.84,2.84,0,0,1-5.68-.08,2.84,2.84,0,1,1,5.68.08Z"/><path class="cls-10" d="M288.54,322.23a2.82,2.82,0,0,1,2.79,2.93,2.67,2.67,0,0,1-2.72,2.72,2.82,2.82,0,0,1-2.94-2.78A2.88,2.88,0,0,1,288.54,322.23Z"/><path class="cls-11" d="M391.33,446.86c-3.07,0-4.54-2.49-3.33-4.94a.59.59,0,0,1,1-.27,29.37,29.37,0,0,1,4,4c.38.45.23.93-.39,1.07A9.65,9.65,0,0,1,391.33,446.86Z"/><path class="cls-10" d="M97.36,447.38c1.89-.83,3.9-.35,5.85-.51a16.08,16.08,0,0,1-.21,5.51c-1.42-.37-2.06-1.53-3-2.34S98.25,448.27,97.36,447.38Z"/><path class="cls-2" d="M258.22,353.75l1-.42Z"/><path class="cls-1" d="M566.39,509.52V451.68c0-4.79,0-4.82,4.81-4.82,1.84,0,3.68,0,5.52,0s2.37.6,2.51,2.48c.06.72,0,1.44,0,2.16q0,51.84.05,103.67a8.72,8.72,0,0,1-3,7.18c-2.75,2.44-5.24,5.17-7.85,7.76-.39.38-.78,1-1.41.76s-.65-1-.68-1.64c0-.87,0-1.75,0-2.63Z"/><path class="cls-1" d="M590.33,497.28q0-22.92,0-45.83c0-4.47.11-4.58,4.57-4.59,1.83,0,3.68,0,5.51.06s2.22.62,2.38,2.36c.06.72,0,1.44,0,2.16,0,26.8,0,53.59,0,80.39a8.46,8.46,0,0,1-2.92,6.95c-2.39,2.12-4.55,4.49-6.82,6.75a10.2,10.2,0,0,1-1.24,1.13c-.81.58-1.33.36-1.47-.67a19.36,19.36,0,0,1-.1-2.64Z"/><path class="cls-1" d="M613.88,485.52q0-17.28,0-34.56c0-3.84.26-4.08,4.08-4.1,2.08,0,4.16,0,6.24,0,1.89.08,2.36.59,2.51,2.48.06.71,0,1.44,0,2.16,0,18.63,0,37.27,0,55.91,0,3.1-.75,5.52-3.13,7.62-2.64,2.31-5,4.94-7.51,7.41-.44.44-.87,1.14-1.58.9-.86-.29-.64-1.18-.68-1.87s0-1.6,0-2.4Z"/><path class="cls-1" d="M650.29,477.16c0,3,0,5.92,0,8.87a5.08,5.08,0,0,1-1.55,3.88c-3,3-6,6-9,9a4.34,4.34,0,0,1-.73.63c-.68.45-1,.16-1.14-.56a13.51,13.51,0,0,1-.09-1.68V450.54c0-.24,0-.48,0-.72.12-2.35.57-2.86,2.83-2.93s4.48-.06,6.71,0c2.41.06,2.87.54,2.92,3.06,0,2.31,0,4.63,0,6.95.15,1.27,1,2.52.14,3.84l0,12.58C651.32,474.62,650.37,475.88,650.29,477.16Z"/><path class="cls-1" d="M673.85,456.26c0,2.16,0,4.32,0,6.48a4.41,4.41,0,0,1-1.23,3.27q-4.57,4.58-9.15,9.16c-.39.39-.81.93-1.42.69s-.64-1-.66-1.66c0-1.36,0-2.72,0-4.08q0-9.47,0-18.94c0-.8,0-1.6.09-2.4a1.85,1.85,0,0,1,1.86-1.83,63.73,63.73,0,0,1,8.63,0c1.33.11,1.81.74,1.86,2.34.08,2.31,0,4.63,0,6.95Z"/><path class="cls-5" d="M805.33,552.94c0,3.76,0,7.51,0,11.26,0,2.61-.5,3.07-3.11,3.11-2.79.05-5.59.06-8.38,0-2.16-.06-2.74-.6-2.8-2.72q-.12-4.43,0-8.87c.06-2.1.64-2.65,2.81-2.7,3.83-.07,7.66,0,11.5,0Z"/><path class="cls-5" d="M805.36,553c0-3.6,0-7.19,0-10.79,0-2.62.52-3.11,3.08-3.15,2.8,0,5.59-.06,8.39,0,2.29.05,2.79.56,2.85,2.88.06,2.63.05,5.27,0,7.91s-.51,3.1-3.1,3.13c-3.75,0-7.51,0-11.26,0Z"/><path class="cls-12" d="M688.59,446.86c.64.13,1.69-.32,2,.58.27.74-.62,1.2-1.1,1.69-.93,1-1.87,1.95-2.89,2.83s-1.41.56-1.63-.56a4.17,4.17,0,0,1-.06-.71C684.73,447.56,685.4,446.84,688.59,446.86Z"/><path class="cls-10" d="M751.88,408.86a1.68,1.68,0,0,1-1.66,1.66,1.74,1.74,0,0,1-1.73-1.85,1.77,1.77,0,0,1,1.69-1.67A1.72,1.72,0,0,1,751.88,408.86Z"/><path class="cls-10" d="M672.66,359a1.71,1.71,0,1,1-1.58-2A1.73,1.73,0,0,1,672.66,359Z"/><path class="cls-10" d="M670.92,510.31a1.75,1.75,0,1,1,1.76-1.82A1.74,1.74,0,0,1,670.92,510.31Z"/><path class="cls-10" d="M730.49,456.92a1.77,1.77,0,0,1,1.64,1.94,1.74,1.74,0,0,1-1.76,1.58,1.72,1.72,0,0,1-1.62-1.93A1.7,1.7,0,0,1,730.49,456.92Z"/><path class="cls-10" d="M730.37,506.83a1.79,1.79,0,0,1,1.77,1.83,1.76,1.76,0,0,1-1.65,1.7,1.7,1.7,0,0,1-1.74-1.58A1.74,1.74,0,0,1,730.37,506.83Z"/><path class="cls-10" d="M751.88,458.78a1.69,1.69,0,0,1-1.66,1.66,1.74,1.74,0,0,1-1.73-1.85,1.77,1.77,0,0,1,1.69-1.67A1.72,1.72,0,0,1,751.88,458.78Z"/><path class="cls-10" d="M730.35,410.52a1.71,1.71,0,0,1-1.61-1.72,1.73,1.73,0,0,1,1.77-1.8,1.79,1.79,0,0,1,1.62,2A1.75,1.75,0,0,1,730.35,410.52Z"/><path class="cls-10" d="M771.8,492a1.74,1.74,0,1,1-1.62-1.71A1.72,1.72,0,0,1,771.8,492Z"/><path class="cls-10" d="M671,410.47a1.74,1.74,0,1,1,1.7-1.63A1.71,1.71,0,0,1,671,410.47Z"/><path class="cls-10" d="M730.52,357.08a1.8,1.8,0,0,1,1.61,2,1.7,1.7,0,1,1-3.38-.41A1.72,1.72,0,0,1,730.52,357.08Z"/><path class="cls-10" d="M712.31,492.1a1.75,1.75,0,1,1-1.51-1.81A1.73,1.73,0,0,1,712.31,492.1Z"/><path class="cls-10" d="M710.67,443.79a1.72,1.72,0,1,1,1.64-1.71A1.74,1.74,0,0,1,710.67,443.79Z"/><path class="cls-10" d="M750.3,357.08a1.75,1.75,0,0,1,1.57,2,1.69,1.69,0,0,1-1.78,1.53,1.75,1.75,0,0,1-1.6-1.74A1.78,1.78,0,0,1,750.3,357.08Z"/><path class="cls-10" d="M710.51,393.87a1.72,1.72,0,1,1,1.8-1.79A1.75,1.75,0,0,1,710.51,393.87Z"/><path class="cls-10" d="M771.8,442.07a1.74,1.74,0,1,1-1.86-1.71A1.74,1.74,0,0,1,771.8,442.07Z"/><path class="cls-10" d="M751.89,508.54a1.74,1.74,0,0,1-1.52,1.82,1.76,1.76,0,1,1-.11-3.52A1.73,1.73,0,0,1,751.89,508.54Z"/><path class="cls-10" d="M771.8,392.26a1.74,1.74,0,1,1-1.52-1.81A1.72,1.72,0,0,1,771.8,392.26Z"/><path class="cls-10" d="M791.6,392.18a1.69,1.69,0,1,1-3.37-.21,1.62,1.62,0,0,1,1.77-1.51A1.73,1.73,0,0,1,791.6,392.18Z"/><path class="cls-10" d="M712.35,475.31a1.68,1.68,0,0,1-1.67,1.63,1.73,1.73,0,0,1-1.85-1.7,1.71,1.71,0,0,1,1.67-1.65A1.79,1.79,0,0,1,712.35,475.31Z"/><path class="cls-10" d="M710.55,377.11a1.68,1.68,0,1,1,.07-3.36,1.79,1.79,0,0,1,1.73,1.85A1.74,1.74,0,0,1,710.55,377.11Z"/><path class="cls-10" d="M712.35,425.32a1.67,1.67,0,0,1-1.6,1.7,1.73,1.73,0,0,1-1.92-1.63,1.69,1.69,0,0,1,1.59-1.71A1.8,1.8,0,0,1,712.35,425.32Z"/><path class="cls-10" d="M790,493.66a1.68,1.68,0,0,1-1.76-1.55,1.64,1.64,0,0,1,1.45-1.82,1.75,1.75,0,0,1,1.91,1.65A1.7,1.7,0,0,1,790,493.66Z"/><path class="cls-10" d="M791.6,442.05a1.69,1.69,0,0,1-1.62,1.69,1.67,1.67,0,0,1-1.74-1.8,1.53,1.53,0,0,1,1.47-1.56A1.74,1.74,0,0,1,791.6,442.05Z"/><path class="cls-10" d="M730.36,473.57a1.67,1.67,0,0,1,1.75,1.59,1.74,1.74,0,0,1-1.62,1.76,1.57,1.57,0,0,1-1.73-1.57A1.77,1.77,0,0,1,730.36,473.57Z"/><path class="cls-10" d="M751.87,475.32a1.55,1.55,0,0,1-1.7,1.6,1.75,1.75,0,0,1-1.66-1.72,1.68,1.68,0,0,1,1.73-1.63A1.77,1.77,0,0,1,751.87,475.32Z"/><path class="cls-10" d="M671.08,423.65a1.72,1.72,0,0,1,1.55,1.81,1.67,1.67,0,0,1-1.78,1.56,1.69,1.69,0,0,1-1.55-1.79A1.71,1.71,0,0,1,671.08,423.65Z"/><path class="cls-10" d="M652.91,492a1.66,1.66,0,0,1-1.74,1.6,1.76,1.76,0,0,1-1.61-1.77,1.57,1.57,0,0,1,1.72-1.58A1.76,1.76,0,0,1,652.91,492Z"/><path class="cls-10" d="M690.76,493.64A1.66,1.66,0,0,1,689,492a1.76,1.76,0,0,1,1.63-1.75,1.57,1.57,0,0,1,1.72,1.58A1.77,1.77,0,0,1,690.76,493.64Z"/><path class="cls-10" d="M751.87,425.55a1.5,1.5,0,0,1-1.53,1.45,1.74,1.74,0,0,1-1.83-1.79,1.68,1.68,0,0,1,1.79-1.55A1.8,1.8,0,0,1,751.87,425.55Z"/><path class="cls-10" d="M771.74,425.26a1.64,1.64,0,0,1-1.55,1.76,1.72,1.72,0,0,1-1.9-1.43,1.76,1.76,0,0,1,1.69-1.91A1.68,1.68,0,0,1,771.74,425.26Z"/><path class="cls-10" d="M770,476.94a1.66,1.66,0,0,1-1.68-1.65,1.78,1.78,0,0,1,1.92-1.69,1.69,1.69,0,0,1,1.54,1.8A1.65,1.65,0,0,1,770,476.94Z"/><path class="cls-10" d="M651.11,390.45a1.77,1.77,0,0,1,1.8,1.58,1.67,1.67,0,0,1-1.57,1.77,1.74,1.74,0,0,1-1.77-1.6A1.57,1.57,0,0,1,651.11,390.45Z"/><path class="cls-10" d="M651.29,443.72a1.73,1.73,0,0,1-1.72-1.65,1.55,1.55,0,0,1,1.59-1.7,1.76,1.76,0,0,1,1.75,1.63A1.67,1.67,0,0,1,651.29,443.72Z"/><path class="cls-10" d="M690.86,440.36a1.59,1.59,0,0,1,1.5,1.8,1.75,1.75,0,0,1-1.81,1.56,1.69,1.69,0,0,1-1.53-1.81A1.8,1.8,0,0,1,690.86,440.36Z"/><path class="cls-10" d="M690.76,393.81A1.68,1.68,0,0,1,689,392.2a1.76,1.76,0,0,1,1.63-1.75,1.57,1.57,0,0,1,1.72,1.58A1.79,1.79,0,0,1,690.76,393.81Z"/><path class="cls-10" d="M751.87,375.43a1.57,1.57,0,0,1-1.64,1.66,1.77,1.77,0,0,1-1.72-1.67,1.66,1.66,0,0,1,1.66-1.68A1.76,1.76,0,0,1,751.87,375.43Z"/><path class="cls-10" d="M732.1,375.38a1.73,1.73,0,0,1-1.66,1.71,1.56,1.56,0,0,1-1.68-1.62,1.74,1.74,0,0,1,1.65-1.73A1.64,1.64,0,0,1,732.1,375.38Z"/><path class="cls-10" d="M672.63,375.34a1.67,1.67,0,1,1-3.33.17,1.67,1.67,0,1,1,3.33-.17Z"/><path class="cls-10" d="M730.4,423.65a1.68,1.68,0,0,1,1.71,1.64,1.73,1.73,0,0,1-1.66,1.71,1.57,1.57,0,0,1-1.69-1.61A1.77,1.77,0,0,1,730.4,423.65Z"/><path class="cls-10" d="M771.74,375.51a1.65,1.65,0,0,1-1.72,1.6,1.7,1.7,0,0,1-1.74-1.6,1.77,1.77,0,0,1,1.87-1.75A1.7,1.7,0,0,1,771.74,375.51Z"/><path class="cls-10" d="M672.63,475.3a1.67,1.67,0,0,1-3.33-.07,1.67,1.67,0,1,1,3.33.07Z"/><path class="cls-10" d="M771.74,458.65a1.78,1.78,0,0,1-1.56,1.77,1.83,1.83,0,0,1-1.9-1.69A1.76,1.76,0,0,1,770.1,457,1.69,1.69,0,0,1,771.74,458.65Z"/><path class="cls-10" d="M651.14,360.59a1.69,1.69,0,0,1-1.61-1.72,1.62,1.62,0,0,1,1.58-1.72,1.77,1.77,0,0,1,1.76,1.83A1.74,1.74,0,0,1,651.14,360.59Z"/><path class="cls-10" d="M692.39,358.91a1.7,1.7,0,0,1-1.64,1.69,1.74,1.74,0,0,1-1.68-1.89,1.79,1.79,0,0,1,1.79-1.56A1.63,1.63,0,0,1,692.39,358.91Z"/><path class="cls-10" d="M651.21,410.51a1.67,1.67,0,0,1-1.67-1.65,1.63,1.63,0,0,1,1.49-1.8,1.81,1.81,0,0,1,1.85,1.77A1.77,1.77,0,0,1,651.21,410.51Z"/><path class="cls-10" d="M789.82,360.6a1.72,1.72,0,0,1-1.59-1.74,1.62,1.62,0,0,1,1.59-1.71,1.73,1.73,0,1,1,0,3.45Z"/><path class="cls-10" d="M789.89,457a1.73,1.73,0,1,1-1.66,1.64A1.6,1.6,0,0,1,789.89,457Z"/><path class="cls-10" d="M770.12,357.14a1.7,1.7,0,0,1,1.62,1.69,1.73,1.73,0,1,1-1.62-1.69Z"/><path class="cls-10" d="M791.57,408.81a1.74,1.74,0,0,1-1.64,1.7,1.69,1.69,0,0,1-1.69-1.87,1.58,1.58,0,0,1,1.71-1.56A1.78,1.78,0,0,1,791.57,408.81Z"/><path class="cls-10" d="M712.35,458.72a1.83,1.83,0,0,1-1.89,1.7,1.78,1.78,0,0,1-1.58-1.76,1.69,1.69,0,0,1,1.87-1.67A1.75,1.75,0,0,1,712.35,458.72Z"/><path class="cls-10" d="M690.74,457a1.59,1.59,0,0,1,1.65,1.63,1.73,1.73,0,0,1-1.52,1.82,1.77,1.77,0,0,1-1.82-1.77A1.79,1.79,0,0,1,690.74,457Z"/><path class="cls-10" d="M650.4,460.74c-1.11-1.24-1.46-2.51-.14-3.84a5.71,5.71,0,0,1,1.18.08,1.75,1.75,0,0,1,1.43,1.69,1.71,1.71,0,0,1-1.1,1.68A10.27,10.27,0,0,1,650.4,460.74Z"/><path class="cls-10" d="M692.39,408.67a1.72,1.72,0,0,1-1.48,1.84,1.75,1.75,0,0,1-1.86-1.72,1.8,1.8,0,0,1,1.65-1.72A1.61,1.61,0,0,1,692.39,408.67Z"/><path class="cls-10" d="M712.34,408.85a1.82,1.82,0,0,1-1.93,1.65,1.78,1.78,0,0,1-1.52-1.81,1.69,1.69,0,0,1,1.91-1.62A1.75,1.75,0,0,1,712.34,408.85Z"/><path class="cls-10" d="M652.86,508.84a1.68,1.68,0,1,1-3.3-.55,1.57,1.57,0,0,1,1.88-1.35A1.75,1.75,0,0,1,652.86,508.84Z"/><path class="cls-10" d="M690.74,506.91a1.59,1.59,0,0,1,1.65,1.63,1.72,1.72,0,0,1-1.52,1.81,1.75,1.75,0,0,1-1.82-1.77A1.79,1.79,0,0,1,690.74,506.91Z"/><path class="cls-10" d="M710.66,506.89a1.78,1.78,0,0,1,1.69,1.66,1.85,1.85,0,0,1-1.8,1.8,1.78,1.78,0,0,1-1.65-1.92A1.7,1.7,0,0,1,710.66,506.89Z"/><path class="cls-10" d="M771.74,408.74a1.78,1.78,0,0,1-1.57,1.77,1.85,1.85,0,0,1-1.89-1.71,1.76,1.76,0,0,1,1.83-1.74A1.71,1.71,0,0,1,771.74,408.74Z"/><path class="cls-10" d="M770.11,510.34a1.84,1.84,0,0,1-1.84-1.76,1.78,1.78,0,0,1,1.66-1.68,1.69,1.69,0,0,1,1.81,1.73A1.77,1.77,0,0,1,770.11,510.34Z"/><path class="cls-10" d="M791.57,508.75a1.76,1.76,0,0,1-1.74,1.6,1.71,1.71,0,0,1-1.58-2,1.58,1.58,0,0,1,1.8-1.46A1.78,1.78,0,0,1,791.57,508.75Z"/><path class="cls-10" d="M710.63,360.59a1.75,1.75,0,0,1-1.73-1.6,1.7,1.7,0,0,1,1.68-1.86,1.78,1.78,0,0,1,1.76,1.58A1.83,1.83,0,0,1,710.63,360.59Z"/><path class="cls-10" d="M750.27,490.33a1.7,1.7,0,0,1,1.55,1.77,1.66,1.66,0,1,1-1.55-1.77Z"/><path class="cls-10" d="M652.86,425.4a1.68,1.68,0,0,1-1.7,1.61,1.56,1.56,0,0,1-1.6-1.66,1.63,1.63,0,0,1,1.66-1.63A1.72,1.72,0,0,1,652.86,425.4Z"/><path class="cls-10" d="M789.79,373.79a1.74,1.74,0,0,1,1.76,1.57,1.64,1.64,0,0,1-1.57,1.72,1.57,1.57,0,0,1-1.73-1.53A1.69,1.69,0,0,1,789.79,373.79Z"/><path class="cls-10" d="M730.35,390.49a1.66,1.66,0,1,1-1.54,1.77A1.69,1.69,0,0,1,730.35,390.49Z"/><path class="cls-10" d="M692.37,425.42A1.56,1.56,0,0,1,690.7,427a1.67,1.67,0,0,1-1.63-1.68,1.74,1.74,0,0,1,1.71-1.62A1.65,1.65,0,0,1,692.37,425.42Z"/><path class="cls-10" d="M692.37,375.38a1.56,1.56,0,0,1-1.55,1.71,1.68,1.68,0,0,1-1.75-1.55,1.73,1.73,0,0,1,1.58-1.75A1.66,1.66,0,0,1,692.37,375.38Z"/><path class="cls-10" d="M791.55,425.42a1.66,1.66,0,0,1-1.71,1.59,1.56,1.56,0,0,1-1.58-1.68,1.66,1.66,0,0,1,1.68-1.62A1.72,1.72,0,0,1,791.55,425.42Z"/><path class="cls-10" d="M791.55,475.24a1.64,1.64,0,0,1-1.62,1.68,1.54,1.54,0,0,1-1.67-1.57,1.66,1.66,0,0,1,1.58-1.72A1.72,1.72,0,0,1,791.55,475.24Z"/><path class="cls-10" d="M650.29,477.16c-1.29-1.31-1-2.58.08-3.84,1.21.19,2.47.5,2.45,2S651.48,477,650.29,477.16Z"/><path class="cls-10" d="M750.27,390.49a1.66,1.66,0,1,1-1.76,1.55A1.7,1.7,0,0,1,750.27,390.49Z"/><path class="cls-10" d="M692.37,475.33a1.55,1.55,0,0,1-1.66,1.59,1.64,1.64,0,0,1-1.64-1.66,1.73,1.73,0,0,1,1.7-1.63A1.65,1.65,0,0,1,692.37,475.33Z"/><path class="cls-10" d="M671,490.33a1.66,1.66,0,1,1-1.67,1.64A1.67,1.67,0,0,1,671,490.33Z"/><path class="cls-10" d="M750.27,440.41a1.7,1.7,0,0,1,1.55,1.77,1.66,1.66,0,1,1-1.55-1.77Z"/><path class="cls-10" d="M671.06,390.5a1.66,1.66,0,1,1-1.75,1.55A1.68,1.68,0,0,1,671.06,390.5Z"/><path class="cls-10" d="M652.86,375.48a1.67,1.67,0,0,1-1.7,1.61,1.56,1.56,0,0,1-1.6-1.65,1.64,1.64,0,0,1,1.66-1.64A1.72,1.72,0,0,1,652.86,375.48Z"/><path class="cls-10" d="M730.42,443.73a1.66,1.66,0,1,1,1.69-1.62A1.67,1.67,0,0,1,730.42,443.73Z"/><path class="cls-10" d="M672.62,442.08a1.66,1.66,0,1,1-1.64-1.67A1.68,1.68,0,0,1,672.62,442.08Z"/><path class="cls-10" d="M732.11,492.05a1.65,1.65,0,1,1-1.59-1.72A1.67,1.67,0,0,1,732.11,492.05Z"/><path class="cls-5" d="M73.45,223.74V177.23c0-.72,0-1.44,0-2.16,0-2.72.32-3.25,1.72-3.31,2.78-.11,4.32,1.08,4.48,3.48,0,.55,0,1.11,0,1.67v93.76a25.85,25.85,0,0,1-.12,2.63,2.34,2.34,0,0,1-1.54,2c-3.11,1.41-4.56.55-4.56-2.84q0-24.35,0-48.68Z"/><path class="cls-5" d="M67.7,224.16q0,22.08,0,44.15c0,2,0,4,.16,6s-.28,2.47-2.16,2.63c-2.92.24-3.7-.47-3.75-3.47,0-1.6,0-3.2,0-4.8q0-46.19,0-92.37c0-1,0-2.08.06-3.12s.33-1.79,1.34-2a4,4,0,0,1,3.66.42,1.94,1.94,0,0,1,.62,1.51c0,1,.07,1.92.07,2.88Q67.71,200,67.7,224.16Z"/><path class="cls-5" d="M56.17,223.77q0,23.74,0,47.48c0,1,0,1.92-.1,2.88a1.65,1.65,0,0,1-1,1.51,3.56,3.56,0,0,1-4.56-2.58,19,19,0,0,1-.08-2.39q0-46.77,0-93.54c0-.87,0-1.76.09-2.63a2.39,2.39,0,0,1,1.4-2.08c3-1.52,4.25-.76,4.26,2.66Q56.19,199.43,56.17,223.77Z"/><path class="cls-5" d="M44.66,223.74v43.89c0,.88,0,1.76,0,2.64-.15,1.86-.73,2.18-2.53,1.51-3-1.11-3.65-2-3.65-5.4q0-26.15,0-52.29V182.67c0-.88,0-1.76,0-2.64a3.4,3.4,0,0,1,2-3.27c.35-.18.7-.38,1.06-.55,2.74-1.35,3.11-1.14,3.12,1.95q0,22.8,0,45.58Z"/><path class="cls-5" d="M85.45,223.69q0-22,0-43.91a25.13,25.13,0,0,1,.12-2.88,1.24,1.24,0,0,1,1.69-1.16,4.48,4.48,0,0,1,3.93,4.68c0,.8,0,1.6,0,2.4v82.3c0,.64,0,1.28,0,1.92-.06,2.89-1.1,4.2-3.89,4.95-1,.26-1.61,0-1.73-1a25,25,0,0,1-.13-2.87Z"/><path class="cls-5" d="M33.14,224.15q0,18.81,0,37.63c0,1.13.53,2.72-.78,3.25-1.08.43-1.88-1-2.76-1.59a6.34,6.34,0,0,1-2.7-5.55q.09-33.91,0-67.84c0-3.41,2-5.22,4.22-7.06.81-.67,1.45-.38,1.78.67a11.56,11.56,0,0,1,.28,3.57Q33.14,205.68,33.14,224.15Z"/><path class="cls-5" d="M97,224q0-18.94,0-37.88a16.32,16.32,0,0,1,.15-2.62c.13-.85.71-1,1.41-.55,2.5,1.73,4.29,3.61,4.27,7.16q-.24,33.67,0,67.36c0,3.46-1.72,5.49-4.15,7.31-.92.68-1.46.4-1.6-.75a19.08,19.08,0,0,1-.07-2.39Z"/><path class="cls-5" d="M109.06,194.53c3,4.74,5.78,8.9,5.7,14.39-.13,9.82-.11,19.65,0,29.47a16.74,16.74,0,0,1-2,8.49,37.78,37.78,0,0,1-3.54,5.77c-.91-.85-.68-1.77-.69-2.58,0-3.76,0-7.51,0-11.27q0-20.36,0-40.73A6.38,6.38,0,0,1,109.06,194.53Z"/><path class="cls-5" d="M20.82,252.32c-.25-.06-.47,0-.53-.13-2.67-3.74-5-7.57-4.93-12.43.09-8.31,0-16.62,0-24.93V211c0-7.42,0-7.42,3.61-13.83a3.24,3.24,0,0,1,1.65-1.8c.71.69.48,1.61.49,2.43,0,4.39,0,8.79,0,13.18q0,19.17,0,38.35A5.85,5.85,0,0,1,20.82,252.32Z"/><path class="cls-1" d="M394.53.91c3.79,3.44,7.28,7.19,10.92,10.78a3.71,3.71,0,0,1,1.13,2.81c0,.71,0,1.43,0,2.15q0,64.65,0,129.29c0,1,0,1.92,0,2.88-3,0-5.92,0-8.87,0-2.6,0-3.07-.55-3.16-3.1,0-.64,0-1.28,0-1.92V4.27C394.49,3.15,394.52,2,394.53.91Z"/><path class="cls-1" d="M417.9,86.9q0-29.16,0-58.31c0-1.08-.52-2.7.46-3.13,1.23-.55,1.9,1.11,2.71,1.89,2.65,2.55,5.2,5.21,7.83,7.77a4.52,4.52,0,0,1,1.52,3.63c0,.72,0,1.44,0,2.16V144.56c0,4.65,0,4.65-4.61,4.66-1.84,0-3.68,0-5.52,0s-2.25-.51-2.37-2.3c-.06-.87,0-1.75,0-2.63Z"/><path class="cls-1" d="M441.85,48.8c1.1.06,1.52.82,2.07,1.36,2.73,2.69,5.38,5.47,8.17,8.11a6.14,6.14,0,0,1,2,4.88c-.06,16.23,0,32.46,0,48.7v32.38c0,.56,0,1.12,0,1.68,0,3-.29,3.27-3.32,3.3-2.24,0-4.48,0-6.72,0-2-.06-2.36-.47-2.47-2.42,0-.72,0-1.44,0-2.16q0-46.17,0-92.36A7.91,7.91,0,0,1,441.85,48.8Z"/><path class="cls-1" d="M465.47,72.39c.9,0,1.26.58,1.69,1,3,2.93,5.86,5.91,8.84,8.81a5.26,5.26,0,0,1,1.68,4.05q0,29.86,0,59.75c0,2.85-.34,3.16-3.2,3.2-2.32,0-4.64,0-6.95,0-1.83-.06-2.22-.49-2.35-2.31,0-.48,0-1,0-1.44q0-35.16,0-70.32A5,5,0,0,1,465.47,72.39Z"/><path class="cls-1" d="M489,122.17V99.63q0-1.08,0-2.16c0-.4,0-.86.38-1.07.55-.3.91.16,1.23.49,3.28,3.27,6.55,6.56,9.83,9.83a3.76,3.76,0,0,1,1,2.85c0,2.16,0,4.31,0,6.47v28.54c0,.72,0,1.44,0,2.16-.1,1.95-.49,2.39-2.45,2.45-2.39.06-4.79.05-7.19,0s-2.8-.4-2.82-2.81c-.05-4.64,0-9.27,0-13.91C489,129,489,125.6,489,122.17Z"/><path class="cls-1" d="M513.05,119.9c.85-.1,1.22.62,1.7,1.1,2.89,2.86,5.74,5.77,8.66,8.61a5.17,5.17,0,0,1,1.73,4c-.07,4.23,0,8.47,0,12.7,0,2.47-.37,2.82-2.75,2.88s-4.79.05-7.18,0c-2.11-.05-2.54-.47-2.56-2.57,0-5.59,0-11.18,0-16.77,0-2.88,0-5.75,0-8.63C512.62,120.76,512.55,120.25,513.05,119.9Z"/><path class="cls-2" d="M336,74.9c0-4.15,0-8.31,0-12.47,0-2.92.47-3.38,3.33-3.41,3.12,0,6.24-.05,9.36,0,2.59,0,3.09.55,3.13,3.12q.07,4.92,0,9.84c0,2.29-.56,2.81-2.88,2.85-4.32.06-8.64,0-13,0Z"/><path class="cls-2" d="M303.83,82.78c0,1.84.07,3.68,0,5.51s-.63,2.32-2.36,2.36q-5.51.12-11,0c-1.76,0-2.32-.59-2.36-2.33-.08-3.67-.08-7.35,0-11,0-1.76.6-2.34,2.33-2.37q5.5-.12,11,0c1.73,0,2.3.63,2.39,2.34S303.83,80.94,303.83,82.78Z"/><path class="cls-2" d="M320.12,74.91H336l0,0c0,4.15,0,8.31,0,12.46,0,2.91-.44,3.33-3.35,3.36-3.2,0-6.4,0-9.59,0-2.31,0-2.84-.56-2.87-2.86-.05-4.31,0-8.63,0-12.94Z"/><path class="cls-2" d="M320.15,74.88c-4.16,0-8.32,0-12.48,0-2.93,0-3.37-.46-3.4-3.33q-.06-4.68,0-9.36c0-2.57.55-3.08,3.13-3.12,3.2-.05,6.4-.06,9.6,0,2.56,0,3.05.53,3.08,3.16.05,4.24,0,8.48,0,12.72Z"/><path class="cls-13" d="M387.33,201.65l13.93,0,0,0v13.95l0,0-13.93,0A81.55,81.55,0,0,1,387.33,201.65Z"/><path class="cls-14" d="M401.23,215.54l5,.05a1.85,1.85,0,0,1,2,1.9c0,.08,0,.16,0,.24.52,4.38-1.15,5.85-5.48,4.86a1.86,1.86,0,0,1-1.58-2.06c0-1.67,0-3.35,0-5Z"/><path class="cls-14" d="M401.26,201.63c0-1.6-.09-3.19,0-4.78.06-1.79.51-2.18,2.31-2.34,4.35-.37,5.42.82,4.73,5.19-.19,1.22-.77,1.89-2,1.89h-5Z"/><path class="cls-13" d="M386.85,201.63c-1.52,0-3,0-4.54,0-1.68-.09-2.11-.51-2.19-2.17-.08-1.5,0-3,0-4.53,1.93-.54,3.91-.1,5.86-.24.81-.06,1.15.32,1.1,1.12C386.94,197.72,387.39,199.7,386.85,201.63Z"/><path class="cls-13" d="M380.12,222.26c0-1.43-.08-2.86,0-4.28.08-1.92.49-2.31,2.47-2.4,1.42-.06,2.85,0,4.28,0a.71.71,0,0,1,.11.21C387.75,222.49,386.88,223.31,380.12,222.26Z"/><path class="cls-11" d="M380.12,222.26c1.43,0,2.87.06,4.3,0,1.74-.11,2.25-.63,2.37-2.36.09-1.43,0-2.87.06-4.3V201.63c0-1.44,0-2.88-.06-4.32-.11-1.76-.61-2.27-2.34-2.39-1.44-.09-2.88,0-4.32,0,1.67-.76,3.43-.48,5.16-.43a1.82,1.82,0,0,1,1.95,1.95c.06,1.75.06,3.49.09,5.24v13.89c0,1.66,0,3.33-.08,5s-.56,2.1-2.21,2.17S381.7,223,380.12,222.26Z"/><path class="cls-12" d="M542,148.27a6.14,6.14,0,0,1-3.22.48c-1.41-.16-1.92-.67-2.07-2.09a6.25,6.25,0,0,1,.46-3.22Z"/><path class="cls-1" d="M566.7,235.44q0-29,0-58.07c0-1.08-.52-2.7.47-3.12,1.23-.52,1.89,1.13,2.71,1.91,2.65,2.55,5.2,5.21,7.83,7.78a4.46,4.46,0,0,1,1.51,3.62c0,.64,0,1.28,0,1.92v103.9c0,4.63,0,4.64-4.63,4.64-1.84,0-3.68,0-5.52,0s-2.23-.51-2.35-2.31c-.06-.87,0-1.76,0-2.64Q566.69,264.25,566.7,235.44Z"/><path class="cls-1" d="M590.65,197.6c1.09.07,1.51.83,2.06,1.37,2.67,2.63,5.26,5.37,8,7.93a6.6,6.6,0,0,1,2.17,5.3c-.06,17.27,0,34.54,0,51.81v29c0,.48,0,1,0,1.44,0,3.32-.21,3.51-3.56,3.53-2.16,0-4.32,0-6.47,0-2-.06-2.36-.48-2.47-2.43,0-.72,0-1.44,0-2.16q0-46.17,0-92.35A8,8,0,0,1,590.65,197.6Z"/><path class="cls-1" d="M614.26,221.21c1-.06,1.34.65,1.82,1.13,2.9,2.86,5.73,5.79,8.66,8.62a5.48,5.48,0,0,1,1.74,4.26q0,29.72,0,59.44c0,.48,0,1-.06,1.44a1.71,1.71,0,0,1-1.79,1.84c-3,.05-5.91.05-8.86,0a1.72,1.72,0,0,1-1.78-1.86c0-.71,0-1.43,0-2.15q0-35,0-70A4.94,4.94,0,0,1,614.26,221.21Z"/><path class="cls-1" d="M637.78,270.9c0-7.84,0-15.67,0-23.51,0-.76-.34-1.83.48-2.18s1.34.67,1.88,1.2c2.79,2.75,5.51,5.57,8.33,8.29a5.41,5.41,0,0,1,1.82,4.22c0,12,0,24,0,36,0,2.75-.33,3.07-3,3.11q-3.12,0-6.24,0c-3,0-3.22-.29-3.23-3.37,0-6.16,0-12.31,0-18.47Z"/><path class="cls-1" d="M673.89,288.62c0,2.32,0,4.63,0,6.95,0,1.95-.46,2.36-2.45,2.42-2.39.06-4.79.05-7.18,0s-2.81-.42-2.83-2.8c0-4.07,0-8.14,0-12.21V271.5a15.34,15.34,0,0,1,.05-1.92c.13-1.05.51-1.18,1.39-.47a8.64,8.64,0,0,1,.69.66c2.94,2.94,5.85,5.9,8.82,8.8a4.8,4.8,0,0,1,1.57,3.83c-.06,2.07,0,4.15,0,6.22Z"/><path class="cls-14" d="M691.59,298c-1.35,0-2.71,0-4.06,0-2.06-.09-2.44-.5-2.53-2.61a11.06,11.06,0,0,1,0-1.91c.16-1.16.72-1.41,1.58-.58a39,39,0,0,1,4.94,5.17Z"/><path class="cls-13" d="M648.89,88.83a11.73,11.73,0,0,1,.42,2.09c.05,3,.08,6.07,0,9.1-.05,2-.6,2.61-2.58,2.66-3,.09-6.07.08-9.1,0-2,0-2.55-.62-2.61-2.63-.09-2.63,0-5.27-.06-7.91-.05-2.83-.52-3.32-3.42-3.33-8.14,0-16.28,0-24.42,0V61h0l21.59,0h2.4c3.47,0,3.83-.39,3.86-3.88,0-2.24,0-4.48,0-6.72a8.83,8.83,0,0,1,.46-3.31,3.29,3.29,0,0,1,1.21,3c0,2-.08,4,.07,6a3.19,3.19,0,0,0,3.15,3.25c6.73.85,8.59-1,7.74-7.75a3.18,3.18,0,0,0-3.24-3.15c-2-.14-4-.08-6-.07a3.28,3.28,0,0,1-2.95-1.21,12,12,0,0,1,2.1-.41c3,0,6.07-.09,9.1,0,2.05.05,2.61.59,2.66,2.58.08,3,.08,6.07,0,9.1-.05,2-.61,2.55-2.62,2.62-2.64.08-5.27,0-7.91.06-2.84.05-3.33.51-3.34,3.41,0,8.14,0,16.29,0,24.44a3.14,3.14,0,0,1,1.21,2.94,49,49,0,0,0,.11,5.28,3,3,0,0,0,2.93,2.94l1,.07c6,.35,7-.59,7.05-6.61C647.72,91.84,647.2,90,648.89,88.83Z"/><path class="cls-13" d="M607.14,61c-3.67,0-7.33,0-11,0-2.88,0-3.34-.49-3.38-3.34s0-5.42,0-8.13c.05-2.28.59-2.82,2.86-2.87q4.3-.09,8.61,0c2.26.06,2.8.6,2.84,2.89.07,3.83,0,7.65,0,11.48Z"/><path class="cls-13" d="M607.13,88.8c0,3.51,0,7,0,10.53,0,2.89-.49,3.35-3.34,3.39s-5.42,0-8.13,0c-2.27,0-2.81-.6-2.86-2.88-.07-2.7-.07-5.42,0-8.13.05-2.27.59-2.82,2.88-2.85,3.83-.06,7.65,0,11.48,0Z"/><path class="cls-13" d="M648.89,88.83c0,3,0,5.91,0,8.86-.05,2.49-.79,3.34-3.27,3.49s-5.11.13-7.66,0c-1.82-.06-2.37-.65-2.42-2.57-.09-3.27,0-6.55-.06-9.82Z"/><path class="cls-15" d="M672.73,458.74a1.77,1.77,0,0,1-3.53-.05,1.77,1.77,0,0,1,3.53.05Z"/><path class="cls-13" d="M635.45,47.05c3.34,0,6.69,0,10,0,2.87,0,3.34.51,3.39,3.35,0,2.39,0,4.78,0,7.17s-.6,2.81-2.87,2.87q-3.83.1-7.64,0c-2.26-.06-2.81-.61-2.86-2.9-.06-3.5,0-7,0-10.51Z"/></svg>