<svg id="Layer_1" data-name="Layer 1" xmlns="http://www.w3.org/2000/svg" viewBox="0 0 3508 2482"><defs><style>.cls-1{fill:#393939;}.cls-2{fill:#242424;}.cls-3{fill:#4f4f4f;}.cls-4{fill:#474747;}.cls-5{fill:#262626;}.cls-6{fill:#2b2b2b;}.cls-7{fill:#373737;}.cls-8{fill:#333;}.cls-9{fill:#3a3a3a;}.cls-10{fill:#4c4c4c;}.cls-11{fill:#3f3f3f;}.cls-12{fill:#414141;}</style></defs><path class="cls-1" d="M0,482.33v-36c2.19-4.84,5.74-7.28,11.23-7,2.63.15,5.3,0,8,0,13,0,26,.05,39,0,261.85-1.33,523.69,3.37,785.54,2,6.66,0,13.35.36,20-.59,9.4-1.34,13.46-5.44,14.77-14.81.83-5.95.53-12,.54-18q0-192.89,0-385.76c0-6-.68-12,1.25-17.81a10.66,10.66,0,0,1,2.54-2.14c3-1.54,4.53.06,6.38,2.5,16.35,21.57,36.58,39.5,56.13,57.93q18.18,17.15,35.89,34.73c33.79,33.6,66.7,68.09,101.28,100.86,52.72,50,102.59,102.82,155.08,153,26,24.86,51.28,50.44,77.14,75.45,4.93,4.76,7.67,11.79,14.71,14.42a35.9,35.9,0,0,1,.52,5.28c1.25,4.93,1,9.95,1,14.93q0,203.27,0,406.53c0,6.62.59,13.39-3.3,19.37-5.81,4.7-12.76,4-19.53,4H923.22c-6,0-12-.26-18,.46-10.38,1.25-14.59,5.52-15.82,16-.69,6-.44,12-.44,18q0,193.42,0,386.86c0,20.58,0,20.61-20.89,20.61H463.16c-6.32,0-12.69.37-18.73-2.12a8.65,8.65,0,0,1-3.35-2.08c-1.42-1.37-3.1-2.51-3.44-4.72a30.07,30.07,0,0,1-.54-6c2.45-55.6-1.69-111.25.93-166.86a90.09,90.09,0,0,1,1.88-14.71c.63-3,1.95-6.46.58-8.81-7-12.05-1.3-24.44-1.36-36.58C438.81,1034,439,976.7,439,919.38c0-1.33,0-2.66,0-4-.4-19.62-4.59-24-24.52-24-89-.19-178-.06-266.94-.08-44,0-88,.06-132,0C1.65,891.18,1,890.45,1,877Q1,685,1,493.1C1,489.52,2,485.77,0,482.33Z"/><path class="cls-2" d="M444,1328.1l416.76,0c4,0,8,.11,12-.12,8.54-.5,10.6-2.48,11.12-10.76.25-4,.14-8,.14-12q0-198.36,0-396.71c0-4.33-.13-8.68.27-13,.6-6.26,2.53-8.12,8.65-8.94a54.26,54.26,0,0,1,7-.29q212.87.06,425.75.16c.58.17,1.17.33,1.79.47,4.86,5.44,3.39,12.15,3.39,18.44q.09,190.89,0,381.77c0,5.33-.11,10.66.16,16,.76,14.8,5.31,19.24,20.36,19.94,4.66.21,9.33.13,14,.13q110,0,219.9.1c5.12,0,10.73-1.59,15.23,2.6,1.58,5.86,2.71,11.77,2,17.89.85,80.92.19,161.85.36,242.77.1,50.29,0,100.58.08,150.86,0,7.08-.89,14.1-.82,21.17a89.11,89.11,0,0,1,.74,11q0,316.24-.09,632.48c-.09,21.87.28,43.75.07,65.62-.05,5.42-.23,10.63-5,14.36H446c-4.39-3.57-2.95-8.55-3-13q-.09-96,0-192c0-15.63-5.7-30.7-4.13-46.5.53-5.27.32-10.63,1.24-15.9.08-1.29.15-2.58.23-3.86-3.15-111.11-1-222.26-1.26-333.39-.42-175.33-.12-350.66-.1-526,0-7-.67-14,2.22-20.69A4.1,4.1,0,0,1,444,1328.1Z"/><path class="cls-3" d="M3507.9,1328.18V1772.1c-2.87,3.75-6.72,4.87-11.36,5-89.24,2.71-169.88,31.17-242.25,82.75-54.32,38.71-96.39,88.4-128.15,147.16-29.51,54.58-45,113-50.77,174.32a156.23,156.23,0,0,0-.41,21c.27,6.5-2,10.85-8.2,13-1.85.48-3.1-.5-4.34-1.71-49.42-48.47-98-97.79-147.63-146-57-55.46-112.51-112.49-169.83-167.63-34.78-33.47-68.64-67.83-103.08-101.63-6.88-6.76-11.86-15.3-19.9-21a28.4,28.4,0,0,1,0-3.69c-1-16.93-2.81-33.86,2.72-50.44.83-2.5.25-5.31.25-8q0-155.45-.06-310.9c0-7.51,1.36-15.39-4.05-22a5,5,0,0,1-.44-4.8c3.63-10.35,2.38-21.1,2.54-31.72.32-21.38,12-29.38,32.26-21.22a37.81,37.81,0,0,0,14.48,2.63c113.32.08,226.63.5,339.94-.48,16-.13,32.19-3.79,48.49-3.4a54.07,54.07,0,0,1,6,.39,33.5,33.5,0,0,0,5.48.29c27.9-1.35,55.89-.37,83.7-4.4,41.55-6,81.47-17.38,118.79-36.59,12.44-6.41,22.41-6.77,35.23-.35,57.29,28.73,118.32,42,182.47,40.65C3496.14,1323.11,3503.19,1321.6,3507.9,1328.18Z"/><path class="cls-4" d="M3507.9,1328.18c-27.65.09-55.29.6-82.8-3.35a399.21,399.21,0,0,1-116.24-35.18,62.75,62.75,0,0,1-7.14-3.6c-7.8-5-15.16-4.64-23.4-.22-34.68,18.6-72,29.78-110.45,37.07-18,3.41-36.32,4.79-54.65,5.23-14.33.34-28.66.15-43,.2-4.53-1.58-7-4.68-7-9.56-.08-26.17-1.26-52.35.82-78.46,6.46-5,14.08-5.37,21.72-5.07a329.81,329.81,0,0,0,91.24-8.75c6.26-1.52,14.95-1,17.36-7.9,2.62-7.54-5.89-11.06-10.12-15.75-55-61-91.78-131.41-108.64-211.76-3.39-16.14-5.3-32.82-6.7-49.38-.52-6.09-3.4-11.47-3.87-17.47-.16-25.35-.25-50.69,0-76,8.2-28.53,7.74-58.57,15.49-87.28,18.78-69.65,51.83-131.47,99.72-185.38,4-4.47,7.77-9.11,11.61-13.68,5.22-6.22,4.15-9.88-3.84-12.25a272,272,0,0,0-49.82-10,426.25,426.25,0,0,0-54.77-2.33c-6.36.18-12.63-.36-17.88-4.78a15.54,15.54,0,0,1-.31-5.19c3.31-21.55-.11-42.9-2.33-64.27,0-6.57,0-13.16,0-19.74-2-21.57,4.89-42.69,3.63-64.1-1.84-31.1-1.61-62.2-1.62-93.31q0-131.4,0-262.81c0-6.56-1-13.41,3.31-19.31,8.34-2.86,17-1.26,25.48-1.25,135.18.09,270.36-.62,405.53.23,3.06,0,6.09-.71,8.63,1.66V532.32c-3.86,5.5-9.66,5.1-15.33,5-30.4-.56-60.46,2.07-90,9.5-1.29.32-2.59.61-3.89.93-15,3.62-18.7,6.46-6.45,19.29,38.85,40.67,67.65,87.92,89.11,139.7,16.15,39,26.36,79.26,25.58,121.82a4.89,4.89,0,0,0,1,3.71v110c-1.57,10.31-1.28,20.75-2.25,31.09-4.86,52.24-24.52,99.49-49.4,144.91a415,415,0,0,1-66.64,90.64c-7.75,7.95-6.66,12.18,4.14,15.2a309.88,309.88,0,0,0,97.81,11.15c5.93-.26,12.18-.93,16.34,5Z"/><path class="cls-5" d="M1598,1344.2l0-15.88c0-5.09,4.08-4.84,7.09-4.86,44.1-.32,88.21-.67,132.31.13a15.16,15.16,0,0,1,4.74,1.32c7,2.25,6.27,8.52,6.88,13.85,2.61,23.12,3.77,46.38,8.07,69.34,14,74.86,45,141.82,93.7,200.37,50.07,60.16,111.83,104,185.51,130.7,45.38,16.42,92.13,26.08,140.65,26.09,4.53,0,11.42-2.94,12.44,5.71,1.64,5.19,1.62,10.52,1.62,15.85q0,203.92,0,407.83c0,6.34.17,12.7-3,18.5-6.26,4.64-13.57,3.86-20.7,3.86q-191.77,0-383.57,0c-6,0-12-.18-18,.61-8.41,1.12-13.09,5.92-14.15,14.31a135.12,135.12,0,0,0-.57,17q0,108.38,0,216.73c0,5.93.74,12.13-5,16.35h-4c-38.15-12.17-70.41-36-105.8-53.62-8.87-4.43-17.61-9.23-26.22-14.23a29.4,29.4,0,0,1-11.81-11.74c0-4.66-.16-9.32-.16-14q0-315.16,0-630.34c3.3-3.56,6.71-6.7,11.37-8.79,72.49-32.58,108.63-91.4,119.18-167.73,7.5-54.26-3.2-105.44-31.1-152.63-20.43-34.58-49.48-59.8-86.41-75.76A35.22,35.22,0,0,1,1598,1344.2Z"/><path class="cls-1" d="M2628.14,1777.91c27.67,27.4,55.05,55.11,83.07,82.15,56.77,54.79,111.78,111.35,168.5,166.18,49.54,47.9,97.74,97.13,147,145.3,13.08,12.79,27.23,24.49,39.29,38.33,9.31.78,8.93,7.51,8.93,14.23q0,99.72,0,199.42,0,20.94,0,41.88c0,4.66,0,9.33-2.34,13.6a26.75,26.75,0,0,1-2.65,3h-882c-8-2.95-7-9.89-7-16.18q.1-99.95,0-199.88c0-14-.19-28,.09-42,.18-9.4,6.86-16.49,16.3-16.62,13.57-.18,27.32-1.73,40.54,3.12,2.88,1.06,6,.53,8.92.54,106.29,0,212.57.26,318.85-.28,14.43-.07,28.83-3.84,43.46-4.34,7.39-.26,11.49-5.61,11.48-12.78,0-21.93,4.86-43.38,4.66-65.45-.78-84.28.13-168.57-.62-252.84-.2-21.77-5.11-43.45-3.7-65.44.09-7.66-.14-15.31.28-23C2621.45,1782.22,2622.36,1778.25,2628.14,1777.91Z"/><path class="cls-5" d="M884.07,2.43q0,93.92,0,187.84,0,118.39,0,236.8c0,18.63-.54,19.18-19,19.19-135.57,0-271.17,1.65-406.71-.43-145.88-2.25-291.74-.28-437.61-1.4-7-.05-14-.44-20.79,1.91V.41H884Q886.22,1.33,884.07,2.43Z"/><path class="cls-4" d="M3070,2479.92q0-125.41-.1-250.85c0-6.65.53-13.42-3.86-19.2,4.12-3.89,3.75-9,3.89-14a419.19,419.19,0,0,1,35.34-158c24.48-55.83,58.31-105.5,103.19-147.13a449.26,449.26,0,0,1,220.95-111.85c25.92-4.89,52.08-7.65,78.53-6.76V2480c-2.75,1.8-5.84,1-8.76,1q-210.22.06-420.45,0C3075.78,2480.93,3072.68,2481.83,3070,2479.92Z"/><path class="cls-5" d="M444,1328.1l-.06,2.1c-4.17,5.89-10.44,5-16.37,5H37.67a44.31,44.31,0,0,0-6,0c-4.4.61-10.68-2.37-12.68,2.65-1.71,4.27,4.08,7,7,10q119.71,119.94,239.61,239.69,83.06,83.07,166.11,166.15c4.16,4.18,8.33,8.25,10,14.31,1.58,5.61-.34,8.3-5.84,8.88a117,117,0,0,1-12,.23q-195.48,0-390.94.12c-4.35,0-10.76-2.55-12.6,2.55-1.42,3.94,4.43,6.85,7.4,9.83q197.91,198,395.88,395.89c4.47,4.47,9.48,8.56,13.14,13.67,3.5,4.89,8.47,10,4.33,17.06-13.91,5.36-28,2.85-41.91.46-4.25-.73-8.39-1.67-12.74-1.67-29.61,0-59.23,0-88.85.06-9.23,0-18.45,1.85-27.7.08a3.79,3.79,0,0,0-2,.08c-18.64,7.23-37.74-.41-56.55,1.76-5.6.64-11.32.22-16.77,2.08-1.26.42-2.57,1.05-3.88.77-44.46-9.53-89.48-3-134.22-4.64-14.17-.54-28,5-42.44,3.87-6-.47-10.93-1.61-14.11-7V1092.22c5.22-3.28,6.1.33,7,4.29,2.44,10.74,2.64,21.79,4.87,32.58,16.33,78.76,64.66,128.36,140.36,151.51,62.34,19.08,123.66,13.61,181.45-16.53,57.3-29.89,89.88-78.62,101-142,.65-3.71-1.1-10.5,5.32-9.73,5.13.62,2.94,6.64,2.95,10.27.12,65,.06,129.94.15,194.91,0,3.54-1.19,7.3,1,10.67Z"/><path class="cls-6" d="M444.07,1328.14c-2.45-5.71-2.08-11.75-2.08-17.74q0-88.45,0-176.91v-12.9l-1.26-.16c-2,8.13-3.75,16.31-5.92,24.38-16.88,62.82-55.88,106.73-115.41,131.82-63.14,26.6-127.15,26.9-190.74,1.28-53.69-21.63-91.94-59.2-112.56-113.73A204.78,204.78,0,0,1,4,1112.76c-.72-7-1.43-13.93-4-20.54V482.33c2.55,6.4,1.94,13.12,1.94,19.76Q2,681.52,2,860.93c0,3.67,0,7.34,0,11,.28,12.17,2.06,14,13.88,14.31,4,.11,8,0,12,0H421.76c4.33,0,8.69-.12,13,.31,6.22.62,8.22,2.58,8.87,8.73a124.73,124.73,0,0,1,.32,13q0,199.92,0,399.83C444,1314.81,444,1321.47,444.07,1328.14Z"/><path class="cls-6" d="M2627.8,1810.05q.07,149,.15,297.89,0,43.48,0,87a87.28,87.28,0,0,1-.29,10c-.71,6.23-2.56,8.17-8.78,8.81a127.82,127.82,0,0,1-13,.31l-397.91,0c-4,0-8-.13-12,.21-7.18.6-9.15,2.68-9.8,10-.27,3-.19,6-.19,9v229.92c0,6.33-.18,12.68,2,18.8H1746q0-124.42,0-248.85c0-4.33,0-8.67.43-13,.4-4.59,3.19-7.33,7.76-7.69s9.32-.42,14-.42l417.81,0c3.92-5.31,9.69-5,15.35-5q70.93.09,141.87,0,123.39,0,246.78,0c28.48,0,31-2.45,31-30.57q0-175.32.11-350.63c0-5.72-1.93-12.08,3.2-16.94A3.76,3.76,0,0,1,2627.8,1810.05Z"/><path class="cls-4" d="M0,2212q100,.12,200,.22,115.49,0,231,0c3.67,0,7.33-.14,11-.21.79-1.31,1.4-1.24,1.85.23v-.2a1.91,1.91,0,0,1,.4,2.84c-3.23,3.78-7.64,4.12-12.15,4.13-45.64.13-91.28,0-136.92,0-7.49,0-14.93-1.94-21.25-3,34.62,3.79,64.45,20.93,91.59,42.8A213.88,213.88,0,0,1,436.27,2362c8.25,25.94,8,53.23,8,80.32,0,12.24-2.88,24.49-.06,36.72A2.14,2.14,0,0,1,444,2482H0v-72c3.12-8.33,2.05-17.14,3-25.72,2.3-20.73,10.24-39.63,20.07-57.7,26.47-48.64,65.7-83,117.09-103.61,10.16-4.08,20.8-5.23,29.43-6.59a171.93,171.93,0,0,1-29.52,2.7c-41.6-.13-83.19,0-124.79-.06-5.64,0-11.46.57-15.28-5Z"/><path class="cls-6" d="M1744,.41h24c2.75,1.8,5.84,1,8.76,1q200.24.07,400.47,0c2.92,0,6,.84,8.76-1h442a9.49,9.49,0,0,1,2.26,3.3A6,6,0,0,1,2629,7.44c-6.62,3.21-13.72,1.74-20.63,1.92-10.31.27-20.66-.2-30.87,1.76-6.49,1.07-12.22,2-18.84-2.37-6.39-4.18-15.15-1-22.7-.33-6.78.57-13.52,1-20.29,1q-144.81.07-289.62,0c-31.32,0-33.1,1.81-33.11,33.56q0,142.29,0,284.58c0,10.08-.75,20.09-1.38,30.13-.44,7.13-1.69,14.24,3.26,20.93,3.39,4.6-.37,10.26-.31,15.47a679.47,679.47,0,0,0,0,103c.7,7.77,2.06,15.12-2.41,22.94-2.85,5-.37,12.07.14,18.28,1.09,13.23.66,26.59.64,39.9q-.09,92.85-.05,185.69c0,11.67.21,23.3-1.8,35-.82,4.81-1.07,10.64,3,15.52,4.36,5.18.57,11.56.88,17.39.11,6.35-1.37,12.53-2.27,18.76-.42,3-.87,6.58-5.29,6.64-4.24.54-6-1.68-6.26-5.67-.36-5-.25-10-.25-15q0-396.78,0-793.56c0-3.66,0-7.33,0-11-.25-19.16-4.8-23.75-24.09-22.21-84,6.74-160.88,33.21-228.72,83.74C1835,162.88,1778,255.06,1756.47,369.15A186,186,0,0,0,1753,396.9c-.24,4.94.22,10-2.26,14.57a4.89,4.89,0,0,1-4.17,3.6c-5.08,1-7-2-7.42-6.29-.32-3.62-.24-7.29-.24-10.94q0-187.93,0-375.86c0-5-.43-10,1.35-14.84.36-1.26.73-2.51,1.1-3.77A20.94,20.94,0,0,1,1744,.41Z"/><path class="cls-3" d="M3507.9,832.27a47.19,47.19,0,0,1-2.15-10.72c-7.16-55-23.28-107.06-49.88-155.86-14.52-26.64-30.22-52.45-50.11-75.47-9.34-10.81-19.15-21.22-28.75-31.8-5.69-6.27-5.34-8.41,2.78-10.83,21.37-6.37,43-11.43,65.31-13.58,21-2,41.86-1.35,62.8-1.69Z"/><path class="cls-3" d="M3507.9,1240.2c-11.31,0-22.64-.3-33.94.07-30.63,1-60.22-4.91-89.5-13-1.28-.36-2.55-.74-3.81-1.18-9.59-3.33-10.24-5.44-2.78-12.7,40.87-39.79,71.38-86.68,94.14-138.66A438.76,438.76,0,0,0,3505.65,954c.51-4,.78-7.94,2.25-11.71Z"/><path class="cls-3" d="M0,2214H185.62l.27,1.5c-3.26.76-6.5,1.58-9.77,2.27a216.5,216.5,0,0,0-110,59.46C33.66,2309.53,13.41,2348.79,5,2394c-1,5.55-1.47,11.28-5,16Z"/><path class="cls-1" d="M1598.12,2402.39c19.07,8.74,37,19.7,55.43,29.56,26.38,14.1,52.49,28.72,78.72,43.11,3.51,1.92,7,3.82,9.68,6.92H1598Q1598,2442.18,1598.12,2402.39Z"/><path class="cls-7" d="M1744,.41l-.06,2.09c-4.12,5.2-8.29,6.25-15.45,4.36-14.21-3.76-29-.87-43.59-.16-5.31.26-10.63.68-16,.69q-381.66.06-763.32,0c-6.87,0-14.26,1.49-19.56-5h-1.94c0-.67-.06-1.34-.1-2Z"/><path class="cls-8" d="M2628.05,2.57l-.13-2.16h442l.8,1.82c-.92,1-1.85,1.92-2.81,2.85-3.05,5.81-8.66,4.17-13.35,4.2-31.64.15-63.29,0-94.93.05-73.29,0-146.58.69-219.85-.31-34.85-.47-69.63-5-104.6-3.62C2632.43,5.51,2629.85,5,2628.05,2.57Z"/><path class="cls-9" d="M3069.84,2.3c0-.63,0-1.26.07-1.89q215,0,430,.11c2.62,0,6.14-2,8,1.89-2.75,1.81-5.84,1-8.76,1q-210.3.07-420.6,0C3075.64,3.36,3072.53,4.36,3069.84,2.3Z"/><path class="cls-10" d="M3069.84,2.3l361.22.11h76.84v2H3091.62c-7.32,0-14.64.14-22,.22l-.71-1.2,1-1Z"/><path class="cls-11" d="M3070,2479.92l437.94.06c-.44.61,1,2.08-1,2-2.67-.09-5.33,0-8,0h-429C3069.93,2481.29,3069.94,2480.61,3070,2479.92Z"/><path class="cls-5" d="M2185.94.41c-4.76,1.87-9.76,2-14.76,2l-388.48,0c-5,0-10-.09-14.75-2Z"/><path class="cls-6" d="M444,2482l-.24-2.1c-2.92-2.7-2.05-6.39-1.83-9.5,2.25-32.29,1.08-64.43-2.11-96.63-2.36-23.81-.59-47.8-.78-71.71-.19-24.65,0-49.29-.06-73.94,0-5.2.12-10.3,4.65-14l.21-2.1c2.58,5.66,2.17,11.7,2.17,17.66q0,126.15,0,252.29Z"/><path class="cls-3" d="M1747.82,396.12c1.37-24.77,6.77-48.82,13.64-72.52,49.41-170.5,193-293.63,369-316.48,14.54-1.89,29.14-3.35,43.85-2.85,9.32.31,11.12,2.05,11.53,11.16.19,4.32.09,8.66.09,13q0,399.29,0,798.56c0,9,.1,18,.15,27,5.7,2.85,4.66,8.26,4.8,13.08.59,19.21-1.12,38.5,1.68,57.65.78,7.77,1.82,15-2.32,22.92-3.84,7.33-.88,16.53-.32,24.8.36,5.26,1,10.55,1,15.84q.11,161.87,0,323.72c0,6.07,1,12.39-3.06,17.79-3.28,3.83-7.78,3.36-12,3.35-15.54,0-31.1.61-46.6-.69-6.44,2.46-9-2.29-11.61-6.53-15.24-24.65-29.82-49.7-44.91-74.45q-23.4-38.4-46.55-77a42.8,42.8,0,0,0-3.35-5c-3.23-4-7.11-6.44-12.11-3.46-5.42,3.22-5.34,8.16-2.66,13,7.5,13.75,15.81,27,24,40.4q30.4,49.92,60.47,100.07c2.35,3.91,6.16,8-.71,11.33-11.88,4.56-24.17,1.4-36.25,2.08-2.91.16-5.88-1.11-8.7.46-4.93,2.2-6.44-1.7-8.24-4.8q-35.17-60.45-70.56-120.76c-16.88-28.71-33.48-57.58-50.43-86.24-3.27-5.54-6.4-12.89-15.22-8.54-5.57,2.75-5.61,8.48-.4,17.51,26.28,45.58,53.11,90.84,79.63,136.29,10.57,18.12,20.83,36.43,31.91,54.24,2.53,4.06,3.32,7.2-1.65,9.72-12.86,4.69-26.11,1.44-39.16,2.06-2.58.12-5.22-.92-7.71.45-6.19,2.63-7.32-2.89-9.37-6.23q-31.86-51.87-63.1-104.12a85.35,85.35,0,0,0-6.53-10c-3-3.77-6.86-5.46-11.41-3-5,2.78-5.33,7.2-3.4,12.07a50.47,50.47,0,0,0,3.8,7c17.28,29.2,35.16,58,52.55,87.18,3.09,5.18,8.93,11.43-.55,16.66-14.17,1-28.36-1-42.48.6-6.32,2-7.07-3.67-9-7-25.81-43.56-51.07-87.44-76.74-131.09-6.24-10.62-12.4-21.3-18.76-31.86-3.27-5.43-7-10.61-14.25-6.68-7.57,4.09-4.75,10-1.57,15.4,28.87,49.1,57.35,98.43,86.26,147.51,2.46,4.19,5.83,7.87-.88,11.12-3.16,2.54-6.94,2.09-10.53,2.11-27.2.19-54.41.1-81.61.05-4,0-8.6.75-11.53-3.42-7.65-5-6.87-12.78-6.87-20.37q0-191.25,0-382.5c0-5.66.17-11.33-.24-17-.93-13.07-5.47-17.51-18.75-18.4-5.32-.36-10.65-.22-16-.22q-179.79,0-359.59,0c-6.51,0-13.54,1.38-18.4-5l-.26.2c.06-3.33.19-6.65.19-10q0-216.08-.06-432.14c1.84-3.84,5.25-4.56,9.07-4.78,6-.34,12-.19,17.94-.19q175.68,0,351.36,0c5.32,0,10.65.13,16-.19,13.79-.81,18-4.43,20.63-18.17.72-3.7,1.37-7.19,5-9.2l.12-3.42C1748.47,404.56,1745.53,399.94,1747.82,396.12Z"/><path class="cls-4" d="M1745.82,411.77c.19,7.67.59,15.36-1.13,22.91-1.6,7-3.71,8.84-10.86,9.47-3,.27-6,.19-9,.19l-399,0-2-1.8c-6.24-16.7-2.11-33.78,0-50.19,6.36-49.08,18.58-96.77,41.18-141.25,20.75-40.85,45.75-78.52,77.55-112,46.47-48.94,100.62-85.72,163.21-110.53,37.14-14.72,75.42-24,115.52-24.24,7.48,0,15-2.87,22.51.08.09,6.33.24,12.65.24,19q0,184.82,0,369.62C1744.13,399.28,1743.56,405.66,1745.82,411.77Z"/><path class="cls-3" d="M1743.86,4.38c-47.89,3-94.33,12.47-139,30.35-40.48,16.22-78.33,37.17-112,64.78-46.54,38.12-85,83-114,136.27-27.34,50.27-42.51,104-50.27,160.15-1.54,11.19-1.85,22.56-2.57,33.85-.28,4.34-.47,8.65-2.15,12.73-21.13-20.8-42-41.93-63.44-62.35-53.15-50.51-103.73-103.61-156.6-154.37-48.32-46.4-94.84-94.6-143-141.12Q927.4,52.39,894.34,19.72c-4.88-4.84-9.07-9.83-8.33-17.29h845.88c4,0,8,.05,12,.08A14.72,14.72,0,0,1,1743.86,4.38Z"/><path class="cls-6" d="M224,484.28q81.95,0,163.88,0c17.11,0,18.07,1,18.08,18.1q.06,62.94,0,125.89v2c-.18,14.48-1.59,16-16.16,16-96.26,0-192.52-.1-288.78.19-10.46,0-16.47-3.82-21-13.13a396.82,396.82,0,0,1-37.49-133,39.76,39.76,0,0,1-.29-5c.15-7.78,2.3-10.25,9.86-10.92,3.64-.32,7.32-.2,11-.2Z"/><path class="cls-6" d="M259.54,684.36q63.43,0,126.87,0c18.4,0,19.5,1.07,19.51,19q.06,62.92,0,125.86c0,15.83-2.27,18.25-18.05,16.82a373.89,373.89,0,0,1-112-27.91c-46.3-19.5-87.19-46.94-122.29-83-11.85-12.18-24-24.06-33.91-37.93a63.71,63.71,0,0,1-3.94-5.76c-1.95-3.42-1-6,3-6.52a79.92,79.92,0,0,1,10.95-.51Q194.61,684.34,259.54,684.36Z"/><path class="cls-6" d="M243.31,846.09c-6,2.81-9.73,2.15-13.33,2.16q-85.89.06-171.77,0c-17.19,0-18.14-.95-18.15-18q0-85.87,0-171.74c0-3.88-.55-7.89,2-13.61,22.55,44.17,49.37,83.5,83.3,117.57S198.85,823.5,243.31,846.09Z"/><path class="cls-6" d="M443.82,2212.23c-.62-.06-1.24-.13-1.85-.23-4.07-4.4-8-8.95-12.22-13.18Q223.38,1992.42,17,1786.07c-2.36-2.36-4.71-4.72-7-7.14-1.14-1.19-2.57-2.53-2-4.31.75-2.36,3.11-2.25,5.05-2.36,3.33-.17,6.66-.16,10-.16l398.86,0a119.76,119.76,0,0,0,12-.26c5-.51,5.62-2.46,2.25-6.44-2.14-2.54-4.62-4.8-7-7.15L14.9,1344.07c-2.35-2.36-4.83-4.62-7-7.16-3.39-4-2.75-5.91,2.21-6.45a103,103,0,0,1,11-.27H444q0,435,0,870C444,2204.24,443.88,2208.23,443.82,2212.23Z"/><path class="cls-4" d="M1326,886.24l395.82,0a124.72,124.72,0,0,1,13,.33c6.17.65,8.18,2.65,8.83,8.8a121.83,121.83,0,0,1,.33,13q0,199.38,0,398.76c0,7-.48,14,2,20.77a1.28,1.28,0,0,1-2.13.59l-146-.18c-5.66-.11-11.32-.32-17-.32q-118.47,0-236.92,0c-17.56,0-17.87-.32-17.88-17.94Q1326.07,1098.14,1326,886.24Z"/><path class="cls-1" d="M995.87,2072.27q0,32,0,63.94c0,3-.08,6-.27,9-.32,5.05-3,8-8.11,8.41-3,.23-6,.31-9,.31H576.79a16.68,16.68,0,0,0-2,0c-10.93,1.37-17.49-3.81-21.62-13.59-6.08-14.41-13.1-28.45-18.87-43a501.53,501.53,0,0,1-34.66-149.29c-.39-5.31-1.1-10.59-1.67-15.89,2-1.71,4.45-1.08,6.71-1.08q114.27,0,228.54,0c2.28,0,4.68-.57,6.76,1h0c23.87,3,42.25,18.23,62.48,29,55,29.23,109.35,59.67,164.08,89.39,6.44,3.5,12.61,7.5,19.21,10.68C990.7,2063.5,993.68,2067.48,995.87,2072.27Z"/><path class="cls-6" d="M556.74,1666.73c2.69-11.75,9.16-21.1,14.88-30.75a521.92,521.92,0,0,1,83.25-105.69c33.17-32.71,70.39-60.06,110.93-82.93a514.31,514.31,0,0,1,185.6-62c10.56-1.42,21.12-3.13,31.81-3,10.07.08,12.2,2.32,12.67,12.4.11,2.33.07,4.67.08,7q0,156.42-.06,312.85c0,4.49,1.1,9.27-2.29,14.54-11.11-10.71-18.69-23.71-29.41-33.95s-21.58-20.75-33.38-30.07a310.47,310.47,0,0,0-77.05-43.78,292.42,292.42,0,0,0-43.09-12.79c-14.7-3-29.53-5.56-44.51-6.12s-30-.61-45,.31a255.61,255.61,0,0,0-44.38,7,299.86,299.86,0,0,0-41.9,13.18,340.81,340.81,0,0,0-40.36,19.75C581.58,1650,570.19,1659.78,556.74,1666.73Z"/><path class="cls-6" d="M1126,1696.12c-12.28-10.28-22.93-22.24-34.34-33.42-11.89-11.65-23.43-23.66-35.4-35.23A25.44,25.44,0,0,1,1048,1608c.1-70.58,0-141.16.1-211.74,0-12.13,2.51-14.58,15.1-13.9a425.89,425.89,0,0,1,65.23,9.08c44.5,9.42,87.22,23.91,127.88,44.6,10,5.08,13.93,11.28,13.9,22.47-.33,103.87-.19,207.75-.19,311.62-2.75,4.21-7,4.9-11.54,4.94-14.14.15-28.28,0-42.41,0-5.84,0-10.68-3.37-16-5h0l-2-2h0l-2-2h0l-2-2h0l-2-2h0l-2-2h0l-2-2h0l-2-2h0l-2-2h0l-2-2h0l-2-2h0l-2-2h0c-.66-.67-1.32-1.34-2-2h0c-.66-.67-1.32-1.34-2-2h0c-.66-.67-1.32-1.34-2-2h0c-.66-.67-1.32-1.34-2-2h0c-.66-.67-1.32-1.34-2-2h0l-2-2h0l-2-2h0l-2-2h0l-2-2h0l-2-2h0l-2-2h0l-2-2h0l-2-2h0l-2-2h0l-2-2h0l-2-2h0l-2-2h0l-2-2h0l-2-2h0l-2-2h0l-2-2h0l-2-2h0l-2-2h0l-2-2h0l-2-2h0C1127.32,1697.43,1126.58,1696.84,1126,1696.12Z"/><path class="cls-1" d="M795,2206.09q91.43,0,182.86,0c17.21,0,18,.79,18,18.08q0,92.91,0,185.82c0,17.61-.67,17.86-18.13,16.53-63.53-4.85-123.92-21.47-181.36-48.67a495.47,495.47,0,0,1-109.85-70.5c-31-26.41-59.5-55.31-83.89-88.06-2.33-3.13-6.7-6.31-5.13-10.22,2-4.89,7.6-2.9,11.66-2.91Q702.1,2206,795,2206.09Z"/><path class="cls-1" d="M1239.92,2206c.64,0,1.28.06,1.92.07,1.13,1.18,3.05.75,4.13,2h0c1.2,1.21,2.53.53,3.84.24a8.63,8.63,0,0,1,2.71.67c42.31,18.63,81.48,43.2,122.29,64.68,4.82,2.54,11,4.62,7.16,12.36l0,0c-.66.68-1.33,1.35-2,2l0,0c-.66.69-1.34,1.37-2,2l0,0c-.66.7-1.33,1.38-2,2l0,0c-.66.71-1.33,1.39-2,2l0,0a19.74,19.74,0,0,1-2.17,2c-3,2.12-6.16,4-8.92,6.37a522.85,522.85,0,0,1-261.78,120.31c-13.49,2.08-27.11,3.36-40.71,4.67-9.33.89-11.83-1.57-12.3-11.14-.18-3.66-.09-7.33-.09-11q0-99.48,0-198.95c1.93-1.91,4.39-1.19,6.64-1.2q89.76,0,179.53,0C1236.1,2205,1238.16,2204.67,1239.92,2206Z"/><path class="cls-5" d="M1048,2102.22l-.06-152.95c0-1.67,0-3.34.06-5,.46-10.87,3-13.47,13.7-14.08,2.33-.13,4.67-.11,7-.11q91,0,182,0c19.51,0,21.22,1.7,21.24,21q0,91,0,181.94c0,19.28-1.73,21-21.27,21q-54.5,0-109-.07c-29.38-7.94-53.63-26.32-80.37-39.61A34.2,34.2,0,0,1,1048,2102.22Z"/><path class="cls-5" d="M956,1770.1c8.16,8.72,11.84,20,17,30.36a205,205,0,0,1,19.73,62.64c1.69,11.6-.75,14.41-12.4,14.92-1,0-2,0-3,0l-339.77-.1c-25-5.65-45.51-20.63-67.63-32.22-14.74-7.73-29.19-16-43.87-23.86-4.9-2.62-9.27-5.61-10.07-11.71,4.12-15.69,12.13-29.35,21.93-42.08,6.24-2.51,12.74-3,19.43-3q189,.1,377.93,0C942.62,1765.09,949.91,1765,956,1770.1Z"/><path class="cls-5" d="M1322,2041.89c0-30.65,0-61.3,0-92,0-17.6,2.15-19.81,19.39-19.82q92.47-.09,184.95,0c.66,0,1.33,0,2,0,15.38.28,17.33,2.68,16.17,17.65a517.64,517.64,0,0,1-28.56,133.51c-7.14,20.14-16.54,39.28-25.14,58.79-4.38,9.91-11.56,14.25-22.78,14.14-42.65-.43-85.31-.17-128-.19a49.23,49.23,0,0,1-8-.45c-6.13-1-8.74-3.54-9.63-9.72a80.2,80.2,0,0,1-.47-11Q1321.94,2087.38,1322,2041.89Z"/><path class="cls-6" d="M1598,1344.2c19.08,2.87,34.92,12.94,50.11,23.74,43.29,30.79,68.56,73.54,80.86,124.55,12.85,53.28,8.58,105.36-12.77,155.66-21,49.35-56.13,85.21-105.71,106.47a48,48,0,0,1-12.49,3.45Z"/><path class="cls-1" d="M1085.91,1114.9q0,63.91,0,127.85a87.06,87.06,0,0,1-.51,11c-.46,3.48-2.7,4.59-5.68,2.48a47.27,47.27,0,0,1-5.89-5.36q-70.3-70.26-140.69-140.45c-6.69-6.63-9.43-13.76-9.38-23.05.26-48.28.12-96.56.13-144.84,0-1.33,0-2.67,0-4,.49-10.07,3-12.69,12.84-11.78,48.94,4.48,95.53,17.24,139.48,39.53,7.35,3.72,9.75,9.06,9.71,16.8-.17,30.63,0,61.27,0,91.9Z"/><path class="cls-6" d="M1324,1770.11q0-137.43,0-274.86a116.58,116.58,0,0,1,.42-12c.37-3.6,2.71-4.45,5.69-2.68a76.4,76.4,0,0,1,7.33,5.19,537.75,537.75,0,0,1,136.64,153.57c23.12,38.9,39.91,80.51,52.45,123.9.64,2.23,1,4.56,1.45,6.84-2.81,4.26-7,4.88-11.73,4.89q-90.27.29-180.52,0C1331,1775,1326.78,1774.36,1324,1770.11Z"/><path class="cls-6" d="M956,1770.1H556.66c-6.31,0-12.68.42-18.73-2,9.44-17.5,22.77-32,37-45.49a242.21,242.21,0,0,1,107-59.58c66-17.35,128.53-8.4,188,24.4,31.76,17.51,57.27,41.93,78.76,70.8C951.41,1762,953.55,1766.13,956,1770.1Z"/><path class="cls-1" d="M1204,1290.08q-31.47,0-62.94,0c-3,0-6-.06-9-.35-4.61-.45-7.25-3.13-7.67-7.73-.27-3-.34-6-.34-9q0-130.35.08-260.71c0-4.39-2.19-10.49,2.89-12.69,4.2-1.81,7.63,3.13,10.92,5.7,44.47,34.69,80.17,76.65,106.17,126.89a386.67,386.67,0,0,1,41.13,135.91c2.25,20,.69,22-19.33,22Q1235,1290.11,1204,1290.08Z"/><path class="cls-1" d="M774.92,2426.66c-3.73,4.07-7.27,3.09-10.41,3.09q-125.93.09-251.86,0a56,56,0,0,1-7-.41c-4.61-.58-7.14-3.34-7.52-7.92-.25-3-.33-6-.33-9q0-123.42,0-246.83c0-3.48-.7-7.17,1.92-12.27,31,59.84,68,113.62,114.89,160.24S715.32,2397.11,774.92,2426.66Z"/><path class="cls-6" d="M1543.88,1657.08c-30.72-59.83-67.27-113.67-114.08-160.36s-100.62-83.58-160-114.72c4.34-2.39,7.68-1.79,10.85-1.79q123.9-.06,247.8,0c2,0,4,0,6,.1,8.9.61,10.86,2.6,11.4,11.67.16,2.65.1,5.32.1,8q0,121.38,0,242.77C1545.92,1646.89,1546.69,1651.24,1543.88,1657.08Z"/><path class="cls-6" d="M773.4,1382.15c-121.25,60.2-211.75,151-272.59,272.65-3.65-4-2.77-7.39-2.79-10.46-.09-18.32,0-36.65,0-55q0-95,0-189.93c0-18.52.71-19.24,19-19.25q122.47,0,245,0C765.57,1380.19,769.25,1379.84,773.4,1382.15Z"/><path class="cls-5" d="M1324,1770.11h204c10.83,31.1,14.19,63.54,17.06,96,.64,7.26-2.27,10.43-9.45,11.5a60.78,60.78,0,0,1-9,.42q-92.36,0-184.7,0c-17.9,0-19.87-2.06-19.92-20.26-.06-23,0-45.92,0-68.88A74.88,74.88,0,0,1,1324,1770.11Z"/><path class="cls-1" d="M1545.82,2372.28c0,15,.24,30,0,45-.13,10.28-2.15,12.06-12.46,12.51-2,.08-4,.06-6,.06q-123.4,0-246.81,0c-4.14,0-8.55,1-14-2.53,21.78-11.65,42.9-22,62.67-34.67a694.06,694.06,0,0,0,56.81-40.73c.61-.58,1.19-1.18,1.76-1.8l.12-.11c.67-.62,1.33-1.26,2-1.92h0c.68-.66,1.34-1.34,2-2l0,0c.66-.69,1.33-1.37,2-2l0,0a19.74,19.74,0,0,1,2.17-2l3.91-2.11q.95-.93,1.86-1.89l.07-.08c.67-.63,1.33-1.27,2-1.93l0,0c.68-.65,1.34-1.32,2-2l0,0c.67-.68,1.34-1.36,2-2l0,0c.66-.7,1.33-1.38,2-2l0,0c.65-.7,1.33-1.38,2-2l0,0a28,28,0,0,1,2-2l0,0a19.83,19.83,0,0,1,2.17-2l5.94-4.14c.61-.59,1.2-1.2,1.76-1.83l.17-.17a21.3,21.3,0,0,0,1.84-1.84l.16-.15a21.42,21.42,0,0,0,1.84-1.85l.16-.15c.65-.59,1.28-1.21,1.87-1.86l.12-.19c6.25-3.16,11.79-1.79,17.78,1.54,27.07,15,54.2,29.91,81.52,44.45C1536,2361.38,1542.1,2365.41,1545.82,2372.28Z"/><path class="cls-5" d="M995.87,2072.27,796.73,1963.62c-19-10.37-38.35-20.11-56.75-31.55a127.82,127.82,0,0,1,23.85-2q105.92.08,211.83,0c19.44,0,20.3.85,20.3,20.29Q996,2011.32,995.87,2072.27Z"/><path class="cls-1" d="M1285.51,1127.21c-21.61-44.19-48.94-82.9-82.66-116.78s-72.78-60.79-115.7-83c3.77-3.92,7.29-2.94,10.43-2.94q87.4-.11,174.81,0a65,65,0,0,1,7,.38c5,.56,7.78,3.47,8.17,8.49.24,3,.33,6,.34,9q0,86.4,0,172.78C1287.83,1118.55,1288.66,1122.28,1285.51,1127.21Z"/><path class="cls-5" d="M1124,1768.11c3,2.65,6.12,5.15,8.94,8q44.22,44.1,88.35,88.31a54.12,54.12,0,0,1,6,6.64c2.68,3.79,1.6,6-3.19,6.72a65.48,65.48,0,0,1-9,.32q-74.44,0-148.91,0c-17.13,0-18.19-1.07-18.21-18q-.08-45,0-89.93c2.93-4,7.1-4.82,11.75-4.88,16.3-.24,32.59,0,48.89-.08C1113.93,1765.13,1118.65,1768.1,1124,1768.11Z"/><path class="cls-5" d="M1545.82,2372.28c-18.82-8.56-36.41-19.42-54.66-29.06-16.78-8.86-33.31-18.21-49.94-27.36a34.63,34.63,0,0,0-11.23-4c14.89-15.68,29.2-31.84,42.76-48.71,13.78-17.14,26-35.32,38.21-53.59,11.88-17.83,20.94-37.33,32.07-56.05,3.85,3.57,2.86,7.11,2.86,10.25Q1545.94,2268,1545.82,2372.28Z"/><path class="cls-1" d="M991.06,1290.08c-17.66,0-35.32.11-53,0-12.19-.1-14.14-1.93-14.18-13.87-.13-35.64-.06-71.28,0-106.93a33.47,33.47,0,0,1,.56-6.94c.55-2.57,2.46-3.09,4.5-1.64a43.19,43.19,0,0,1,5.19,4.66q57.27,57.21,114.47,114.5c2.26,2.27,6.55,4.43,5.3,7.78-1.55,4.13-6.44,2.38-9.87,2.41-17.66.18-35.31.08-53,.08Z"/><path class="cls-5" d="M1381.92,2286c-2-3.72-5.54-5.62-9.08-7.54q-57.06-31-114.1-62.11a37.1,37.1,0,0,1-9-6.22c2.85-3.83,7-3.1,10.93-3.1q87.33,0,174.66.06c4.22,0,11.43-2.42,8.65,6.91v2c-.72.62-1.31,1.36-2,2s-1.33,1.34-2,2-1.28,1.39-2,2v2c-.72.61-1.31,1.36-2,2s-1.33,1.34-2,2-1.28,1.39-2,2l-2,4c-.72.61-1.31,1.36-2,2l-2,2-2,2c-.69.64-1.28,1.39-2,2-.67,1.33-1.33,2.67-2,4-.72.61-1.31,1.35-2,2s-1.33,1.33-2,2-1.33,1.33-2,2-1.33,1.33-2,2-1.33,1.33-2,2-1.33,1.33-2,2-1.28,1.38-2,2c-.67,1.33-1.33,2.66-2,4-.72.61-1.31,1.35-2,2l-2,2-2,2-2,2-2,2-2,2-2,2-2,2c-.65.69-1.39,1.28-2,2Z"/><path class="cls-1" d="M516,1810.18q53.67,29.35,107.34,58.71c4.95,2.71,9.89,5.43,14.24,9.08q-61.83,0-123.66,0c-14.57,0-15.94-1.44-13.51-15.44C503.54,1844.5,507.94,1826.78,516,1810.18Z"/><path class="cls-6" d="M1124,1768.11c-5,2-10.31,2-15.6,2H1048c0-20.91,0-41.81.08-62.71,0-3.15-1.35-7.56,2.22-9s5.6,2.73,7.83,4.94c17.67,17.52,35.21,35.17,52.86,52.72,3.52,3.5,7.33,6.72,11,10.06a22.31,22.31,0,0,0,2,2Z"/><path class="cls-5" d="M1200,1770.11h70c3.71,19.4,1.56,39,1.68,58.49,0,2.63-.41,5.62-3.36,6.66-3.43,1.21-5.58-1.5-7.62-3.57-18.16-18.38-37.05-36-54.49-55.14C1204.17,1774.35,1202,1772.26,1200,1770.11Z"/><path class="cls-1" d="M1048,2102.22a43.08,43.08,0,0,1,10.93,4.66q36.54,20.13,73.11,40.18c3.49,1.92,7.05,3.7,9.62,6.89l-73.62,0c-3,0-6,.07-8.95-.12-8.45-.54-10.6-2.47-10.93-10.81s-.15-16.58-.17-24.87C1048,2112.83,1048,2107.52,1048,2102.22Z"/><path class="cls-5" d="M740,1932.07l-242,.11c4.71-2,9.71-2.11,14.71-2.11H725.24C730.25,1930.07,735.24,1930.16,740,1932.07Z"/><path class="cls-5" d="M1444,2214c-2.12-3.89-5.57-5.55-9.84-5.75-2.32-.11-4.65-.22-7-.22q-79.83,0-159.65,0a67.51,67.51,0,0,0-17.78,2.12c-.59-.05-1.17-.1-1.76-.17-.6-.44-.8-.87-.6-1.31s.4-.65.6-.65c4.75-1.89,9.74-2,14.74-2q84.35,0,168.69,0a49,49,0,0,1,9.92.75C1445.58,2207.7,1446.83,2210.24,1444,2214Z"/><path class="cls-5" d="M1239.92,2206l-173,.1c-6.33,0-12.66.11-19,.17,4.67-2.15,9.67-2.21,14.67-2.21h162.54C1230.18,2204,1235.17,2204.12,1239.92,2206Z"/><path class="cls-5" d="M1246,2208.08l-4.13-2Z"/><path class="cls-5" d="M1126,1696.12l2,2Z"/><path class="cls-5" d="M1128,1698.12l2,2Z"/><path class="cls-5" d="M1130,1700.12l2,2Z"/><path class="cls-5" d="M1132,1702.12l2,2Z"/><path class="cls-5" d="M1134,1704.12l2,2Z"/><path class="cls-5" d="M1136,1706.12l2,2Z"/><path class="cls-5" d="M1138,1708.12l2,2Z"/><path class="cls-5" d="M1140,1710.12l2,2Z"/><path class="cls-5" d="M1142,1712.12l2,2Z"/><path class="cls-5" d="M1144,1714.12l2,2Z"/><path class="cls-5" d="M1146,1716.12l2,2Z"/><path class="cls-5" d="M1148,1718.12l2,2Z"/><path class="cls-5" d="M1150,1720.12l2,2Z"/><path class="cls-5" d="M1152,1722.12l2,2Z"/><path class="cls-5" d="M1154,1724.12l2,2Z"/><path class="cls-5" d="M1156,1726.12l2,2Z"/><path class="cls-5" d="M1158,1728.12l2,2Z"/><path class="cls-5" d="M1160,1730.12l2,2Z"/><path class="cls-5" d="M1162,1732.12l2,2Z"/><path class="cls-5" d="M1164,1734.12l2,2Z"/><path class="cls-5" d="M1166,1736.12l2,2Z"/><path class="cls-5" d="M1168,1738.12l2,2Z"/><path class="cls-5" d="M1170,1740.12l2,2Z"/><path class="cls-5" d="M1172,1742.12l2,2Z"/><path class="cls-5" d="M1174,1744.11l2,2Z"/><path class="cls-5" d="M1176,1746.11l2,2Z"/><path class="cls-5" d="M1178,1748.11c.66.67,1.32,1.33,2,2C1179.29,1749.44,1178.63,1748.78,1178,1748.11Z"/><path class="cls-5" d="M1180,1750.11c.66.67,1.32,1.33,2,2C1181.29,1751.44,1180.63,1750.78,1180,1750.11Z"/><path class="cls-5" d="M1182,1752.11c.66.67,1.32,1.33,2,2C1183.29,1753.44,1182.63,1752.78,1182,1752.11Z"/><path class="cls-5" d="M1184,1754.11c.66.67,1.32,1.33,2,2C1185.29,1755.44,1184.63,1754.78,1184,1754.11Z"/><path class="cls-5" d="M1186,1756.11c.66.67,1.32,1.33,2,2C1187.29,1757.44,1186.63,1756.78,1186,1756.11Z"/><path class="cls-5" d="M1188,1758.11c.66.67,1.32,1.33,2,2C1189.29,1759.44,1188.63,1758.78,1188,1758.11Z"/><path class="cls-5" d="M1190,1760.11c.66.67,1.32,1.33,2,2C1191.29,1761.44,1190.63,1760.78,1190,1760.11Z"/><path class="cls-5" d="M1192,1762.11c.66.67,1.32,1.33,2,2C1193.29,1763.44,1192.63,1762.78,1192,1762.11Z"/><path class="cls-5" d="M1194,1764.11c.66.66,1.32,1.33,2,2C1195.29,1765.44,1194.63,1764.77,1194,1764.11Z"/><path class="cls-5" d="M1124,1768.1l-2-2Z"/><path class="cls-5" d="M1196,1766.11l2,2C1197.29,1767.44,1196.63,1766.77,1196,1766.11Z"/><path class="cls-5" d="M1198,1768.11l2,2Z"/><path class="cls-5" d="M1248,2208v2l-2-1.91Z"/><path class="cls-5" d="M1442,2218c.67-.66,1.33-1.33,2-2C1443.29,2216.69,1442.63,2217.36,1442,2218Z"/><path class="cls-5" d="M1440,2220c.67-.66,1.33-1.33,2-2C1441.29,2218.69,1440.63,2219.36,1440,2220Z"/><path class="cls-5" d="M1438,2222c.67-.66,1.33-1.33,2-2C1439.29,2220.69,1438.63,2221.36,1438,2222Z"/><path class="cls-5" d="M1436,2226c.67-.66,1.33-1.33,2-2C1437.29,2224.69,1436.63,2225.36,1436,2226Z"/><path class="cls-5" d="M1434,2228c.67-.66,1.33-1.33,2-2C1435.29,2226.69,1434.63,2227.36,1434,2228Z"/><path class="cls-5" d="M1432,2230l2-2Z"/><path class="cls-5" d="M1428,2236l2-2Z"/><path class="cls-5" d="M1426,2238l2-2Z"/><path class="cls-5" d="M1424,2240l2-2Z"/><path class="cls-5" d="M1422,2242l2-2Z"/><path class="cls-5" d="M1418,2248l2-2Z"/><path class="cls-5" d="M1416,2250c.67-.67,1.33-1.34,2-2C1417.29,2248.68,1416.63,2249.35,1416,2250Z"/><path class="cls-5" d="M1414,2252c.67-.67,1.33-1.34,2-2C1415.29,2250.68,1414.63,2251.35,1414,2252Z"/><path class="cls-5" d="M1410,2256c.67-.67,1.33-1.34,2-2C1411.29,2254.68,1410.63,2255.35,1410,2256Z"/><path class="cls-5" d="M1408,2258c.67-.67,1.33-1.34,2-2C1409.29,2256.68,1408.63,2257.35,1408,2258Z"/><path class="cls-5" d="M1406,2260c.67-.67,1.33-1.34,2-2C1407.29,2258.68,1406.63,2259.35,1406,2260Z"/><path class="cls-5" d="M1402,2266c.67-.67,1.33-1.34,2-2C1403.29,2264.68,1402.63,2265.35,1402,2266Z"/><path class="cls-5" d="M1400,2268l2-2Z"/><path class="cls-5" d="M1398,2270l2-2Z"/><path class="cls-5" d="M1396,2272l2-2Z"/><path class="cls-5" d="M1394,2274l2-2Z"/><path class="cls-5" d="M1392,2276l2-2Z"/><path class="cls-5" d="M1390,2278l2-2Z"/><path class="cls-5" d="M1388,2280l2-2Z"/><path class="cls-5" d="M1386,2282l2-2Z"/><path class="cls-5" d="M1379.94,2288l2-2Z"/><path class="cls-5" d="M1377.93,2290l2-2Z"/><path class="cls-5" d="M1375.92,2292l2-2Z"/><path class="cls-5" d="M1373.92,2294l2-2Z"/><path class="cls-5" d="M1371.79,2296l2.17-2Z"/><path class="cls-5" d="M1429.87,2312l-1.88,1.86Z"/><path class="cls-5" d="M1427.84,2314l-1.84,1.85Z"/><path class="cls-5" d="M1425.84,2316l-1.84,1.84Z"/><path class="cls-5" d="M1423.83,2318.05l-1.77,1.83Z"/><path class="cls-5" d="M1416.13,2324l-2.16,2Z"/><path class="cls-5" d="M1414,2326l-2,2Z"/><path class="cls-5" d="M1412,2328l-2,2Z"/><path class="cls-5" d="M1410,2330l-2,2Z"/><path class="cls-5" d="M1408,2332l-2,2Z"/><path class="cls-5" d="M1406,2334l-2,2Z"/><path class="cls-5" d="M1403.93,2336l-2,1.93Z"/><path class="cls-5" d="M1401.9,2338l-1.86,1.89Z"/><path class="cls-5" d="M1396.13,2342l-2.17,2Z"/><path class="cls-5" d="M1394,2344l-2,2Z"/><path class="cls-5" d="M1392,2346l-2,2Z"/><path class="cls-5" d="M1390,2348l-2,1.92Z"/><path class="cls-5" d="M1387.86,2350l-1.76,1.81Z"/><path class="cls-5" d="M1412,2254c.67-.67,1.33-1.34,2-2C1413.29,2252.68,1412.63,2253.35,1412,2254Z"/><path class="cls-6" d="M1743.89,1328.5l2.13-.59q46.18,0,92.35.07c3.32,0,6.63-.25,9.69-1.76,4.52-4.78,6.13-.44,7.84,2.65,19.54,35.16,40.47,69.51,60.47,104.4,4.63,8.08,9.34,16.11,14.36,24,3.15,4.92,7.39,8.17,13.33,4.69s4.94-8.73,2.1-13.85c-14.87-26.73-31-52.76-46.17-79.28-6.46-11.24-13.32-22.25-19.52-33.63-1.48-2.71-4.58-6.05,1.52-7.32l45.59,0c8.45-2.14,10,5.39,12.75,10,16.38,26.69,32.34,53.64,48.49,80.48,17.34,28.84,35.08,57.44,52.25,86.39,1.53,2.58,3.06,5.19,5.45,7.09a8,8,0,0,0,10.18.52c3.46-2.27,4.72-5.57,3.51-9.54-1.28-4.19-3.78-7.79-6-11.5-29.19-48.93-58.78-97.62-88.25-146.39-2.25-3.71-4.27-7.54-6.41-11.3-1.63-2.89-1.62-5.12,2.41-5.61,11.85,0,23.7.08,35.55.06,4.27,0,8.59.14,12.61-1.76,4.62-4.76,6.17-.2,7.85,2.79,12.54,22.32,25.76,44.24,38.51,66.44,3.48,6,6.92,12.13,10.78,18,3.28,4.94,7.49,8,13.37,4.5,6-3.63,4.79-8.88,1.93-13.92-12.83-22.53-26.15-44.78-39-67.31-1.4-2.47-7.48-6.4.41-8.94,11.89.08,23.77.19,35.65.23,3.64,0,7.28-.12,10.68-1.66,5.8-5.23,6.69,1.29,8.31,3.93,12,19.53,23.55,39.35,35.57,58.87,14.28,23.21,28.27,46.59,42.26,70,.85,1.43,1.75,2.82,2.68,4.2,3.41,5.11,7.54,9.2,13.92,5.09s4.31-9.76,1.22-14.89c-20.47-33.83-40.53-67.9-61-101.74-3.25-5.4-6.76-10.66-9.29-16.48-1.3-3-.23-5.08,1.93-7l59.72-.34c5.43-2.56,11.22-2.83,17.11-2.82q167.71.16,335.44.1c15.17,0,30.3,3.4,45.44,1.7,13.66-1.52,27.07-5.36,41-3.75,16.32.63,32.46-2.25,48.73-2.56,5.94-.81,11.14-.51,16.93,2.9,7.1,4.17,15.87,1.13,23.81.65,5.65-.35,11.31-1,17-1q159.26,0,318.5,0c6,0,12.38-1.13,17.68,3.17a2.72,2.72,0,0,1,.38,3.5q-59.94.09-119.88.17-150.35,0-300.7,0c-19.31,0-19.32,0-19.31,19.54q0,209.76.08,419.53c0,2.33-.1,4.66-.16,7a3.75,3.75,0,0,1-3.31,1.3,3.86,3.86,0,0,1-2.47-4.33c-1.15-7.92-1-15.91-1-23.9q0-131.92,0-263.86c0-28.36-1.25-56.78,2.73-80.62-1.42,42.21-18.14,84.46-38.12,125.56-20.72,42.62-48.85,80.3-81.93,114a434.8,434.8,0,0,1-139.47,95.17c-30.61,13.16-61.93,23.95-95.11,28.37-9.75,1.3-20.45-.37-28.91,4.88a24.63,24.63,0,0,1-17.69,3.67c-8.26-1.33-16.59-1.16-24.88-1.31-4.64-.08-8.65-1.07-11.61-4.87-74.41,1.69-143.86-17-209.15-51.77a415.38,415.38,0,0,1-96.46-70.52c-29.46-28.91-55.32-60.47-75.95-96.15-29.89-51.66-48.9-107.15-56.28-166.46A514.84,514.84,0,0,1,1743.89,1328.5Z"/><path class="cls-1" d="M2672,1326.2c-15.42-.18-30.68,3.15-46.14,2-15.53,3.15-31.2.65-46.61-.15-89-4.59-165.86-40.47-234-95.67-79-64-129.47-146.58-152.92-245.48-4.46-18.79-3.71-38.3-5.33-57.48-.14-1.63.21-3.33-.84-4.8q0-35.34,0-70.67c2.39-7.11,3-14.51,3.77-21.89-1.34-16.38.32-32.74,3.63-48.56,8.17-39,22.57-75.88,42.2-110.63,2.11-3.75,4.08-7.7,8.37-9.58a8.22,8.22,0,0,1,3.1-1.33,6.54,6.54,0,0,1,4.12,2.68c5.84,11.6,13.44,22.11,20.6,32.89,1.78,2.69,4.6,5,3.83,8.82-7.73,12.89-12.38,27.15-17.82,41-10.87,27.71-17.53,56.59-21.8,86-2.49,17.07,1.53,21.74,19.09,21.79,60,.18,119.93,0,179.89.1,6.64,0,13.26-.31,19.88,1.41,2.48.65,6,1.31,8.5-.82,4.41-3.82,9.31-2.49,14.2-1.86,36.2,15,74.07,22.59,113,25.21,6.8.22,13.64-.43,20.43.66a109.37,109.37,0,0,0,33.69,0c6.66-1.1,13.42-.32,20.11-1,2.64-.21,5.27-.54,7.87-1,3.46-.73,7-.63,10.51-1.12,1.91-.25,3.81-.55,5.71-.93,2.73-.6,5.54-.72,8.29-1.25,1.33-.24,2.67-.5,4-.78,2.59-.59,5.26-.68,7.86-1.18,1.27-.24,2.53-.49,3.79-.76,2-.52,4.12-.73,6.17-1.15,1.19-.26,2.39-.52,3.58-.81,1.55-.43,3.13-.74,4.7-1.1,1.17-.28,2.32-.57,3.48-.88,1.52-.46,3.08-.77,4.63-1.13,1.16-.29,2.32-.59,3.48-.91,1.55-.46,3.13-.78,4.69-1.19,1.19-.32,2.37-.65,3.54-1s2.38-.72,3.57-1.1l2.37-.79c1.19-.42,2.39-.78,3.59-1.17l2.39-.81c1.19-.43,2.41-.79,3.62-1.19l2.43-.82c1.24-.43,2.5-.8,3.75-1.19l2.59-.84c1.79-.55,3.6-1,5.43-1.47a22.19,22.19,0,0,1,2.93-.4c9.72,4,19.63,1.5,29.35.39,7.25-.83,9.93-6.72,10.75-13.42,0-1,0-2,0-3a6.1,6.1,0,0,1,2.67-3.41c.78-.5,1.58-1,2.39-1.45s1.55-.88,2.33-1.3l2.26-1.21,2.2-1.11,2.12-1.07,2.05-1,2-1c.64-.33,1.28-.66,1.91-1l1.84-1,1.78-1,1.73-1.07,1.71-1.09c.58-.38,1.16-.73,1.77-1.06l1.85-1c.64-.38,1.28-.73,1.94-1.09l2.06-1.16,2.18-1.25a15.92,15.92,0,0,1,2.46-1.1,7.15,7.15,0,0,1,2.84-.06,28,28,0,0,1,2.72,1.28,6.28,6.28,0,0,1,2,2.41c3.66,6.55,1.74,13.71,2.26,20.59.92,12,4.52,16.26,16.7,16.41,39.6.5,79.21.44,118.81,0,12.89-.13,16.83-5,15.28-17.56A395.13,395.13,0,0,0,2990.51,730c-3.55-8.32-6.66-16.6-8.22-25.47a21.07,21.07,0,0,0-.85-2.94,5,5,0,0,1,.59-2.8c.92-1.55,1.95-3,2.9-4.58l1.27-2.06c.43-.62.86-1.25,1.28-1.88l1.19-1.78c.36-.58.74-1.16,1.1-1.73s.71-1.12,1.09-1.66l1.08-1.63,1-1.65,1-1.68,1-1.68c.33-.58.67-1.14,1-1.71a16.91,16.91,0,0,1,1.16-1.65,12.94,12.94,0,0,1,1.52-1.44c.57-.45,1.15-.89,1.75-1.32s1.24-.92,1.86-1.41a21.27,21.27,0,0,0,1.72-1.83c.49-.78.94-1.56,1.36-2.38a5.38,5.38,0,0,1,2.63-1.26,15.75,15.75,0,0,1,3.22.06c5,.7,7.09,4.47,9.18,8.34,18.78,34.77,33.52,71.08,41.76,109.82,2.56,12,2.65,24.31,3.9,36.48-.17,1.34-1.53-.28-.27.16.23.08.38-.17.33-.75-6.83-86.25-1.41-172.66-3.22-259-.31-15,2.26-29.82,2.13-44.82-.06-7.63-2.6-15.11-1-22.76a19.6,19.6,0,0,0-1-11.95c-.75-1.81-2.12-3.36-2.31-5.42,2.13-4.76,1-10.74,5.45-14.66a3.87,3.87,0,0,1,3.61,1.15q.3,35.17.58,70.36c4,3.25,4.64,7.76,4.65,12.49.05,79.46.36,158.93-.24,238.38-.16,20.78-2.84,41.63-4.52,62.43v80.94c1,23.77,4.5,47.42,4.62,71.2.38,74.83.14,149.67.12,224.51,0,6.24,1.1,12.87-4.68,17.61q0,44.13,0,88.28l-2.55,1.57.09-1.78c-5.65-4.17-4.83-10.3-4.84-16.14q-.06-87,0-173.94c0-30.66.12-61.32,0-92-.16-34.91-.41-69.81,3.56-97.55,1,43-15.42,88.61-36.42,132.75-25.34,53.28-60.91,99-104.92,138.42a440.34,440.34,0,0,1-190.69,100.79C2714,1325.53,2693,1326.61,2672,1326.2Z"/><path class="cls-4" d="M3408.42,1580.06c-7.66,0-15.33.23-23-.07-8.62-.34-11.1-2.43-11.29-10.6q-.51-22.46,0-44.94c.17-7.26,2.62-9.85,9.76-10q25-.57,49.94,0c7.14.15,9.55,2.68,9.73,10q.52,22.47,0,44.95c-.18,8.17-2.66,10.29-11.26,10.62C3424.41,1580.29,3416.41,1580.05,3408.42,1580.06Z"/><path class="cls-4" d="M3183.07,1514.22c7.66,0,15.33-.23,23,0,9.09.34,11.46,2.46,11.65,11.3q.48,21.48,0,43c-.19,9-2.46,11.28-11.49,11.45-15.32.3-30.65.28-46,0-9.61-.16-12-2.48-12.2-11.82-.28-14.31-.29-28.64,0-43,.19-8.32,2.6-10.57,11-10.92,8-.33,16-.07,24-.07Z"/><path class="cls-4" d="M3068.9,1580.07c-7.66,0-15.33.21-23,0-9.16-.32-11.61-2.44-11.8-11.16q-.47-22,0-44c.18-7.88,2.55-10.35,10.29-10.51q24.48-.51,49,0c7.73.16,10.09,2.65,10.27,10.54q.51,22,0,44c-.17,8.42-2.54,10.7-10.83,11.06-8,.35-16,.08-24,.08Z"/><path class="cls-4" d="M2841.9,1580.07c-7.33,0-14.66.21-22,0-9.16-.33-11.62-2.44-11.8-11.15q-.48-22,0-43.95c.18-7.89,2.55-10.37,10.27-10.53q24.47-.51,48.95,0c7.75.16,10.12,2.62,10.3,10.5q.51,22,0,43.95c-.18,8.4-2.56,10.73-10.84,11.1s-16.64.08-25,.08Z"/><path class="cls-4" d="M2729.85,1514.25c7.66,0,15.33-.26,23,.08,8.32.36,10.71,2.62,10.89,11q.47,22,0,44c-.19,8.21-2.65,10.51-11.19,10.68q-23.48.43-47,0c-9-.17-11.24-2.46-11.42-11.52q-.43-21.48,0-43c.2-8.79,2.61-10.91,11.73-11.23,8-.27,16-.06,24-.06Z"/><path class="cls-4" d="M3295.15,1580c-7.66,0-15.34.3-23-.09-7.3-.37-9.82-2.62-10-9.76q-.54-23,0-46c.18-7.14,2.71-9.6,10-9.75q24-.51,48,0c6.7.15,9.28,2.64,9.44,9.21q.55,23.47,0,47c-.16,6.57-2.73,8.89-9.43,9.23-8.31.42-16.66.1-25,.1Z"/><path class="cls-4" d="M2955.42,1580.05c-7.33,0-14.67.24-22-.06-8.62-.35-11.11-2.45-11.3-10.61q-.51-22.47,0-45c.17-7.29,2.61-9.82,9.75-10q24-.54,48,0c7.15.16,9.59,2.69,9.76,10q.54,22.49,0,45c-.19,8.17-2.68,10.28-11.29,10.62C2970.76,1580.29,2963.08,1580.05,2955.42,1580.05Z"/><path class="cls-5" d="M2625.93,1776.08l1.78.05c.16.59.3,1.19.42,1.78q-.15,16.06-.33,32.14l-1.87.06c-1.33-.09-2.95-.32-3.29-1.63a60.54,60.54,0,0,1,0-30.77C2623,1776.4,2624.6,1776.18,2625.93,1776.08Z"/><path class="cls-3" d="M3429.89,887.76c1.15,41.46-6,81.67-19.2,120.76-15.19,45-37.89,85.72-69.25,121.65a318.15,318.15,0,0,1-43.25,41.33c-7.89,6.2-9.17,6.09-17.29-.11-19.47-14.85-36-32.67-51.24-51.66-42.26-52.75-67.8-113-76.57-179.8-9.1-69.33-1.61-136.82,26.07-201.65,18-42.19,42.6-79.78,75.54-111.79,8.35-8.12,16.07-16.9,25.46-23.93,9-6.71,10.65-7,19.13-.17a343.62,343.62,0,0,1,45.51,44.82c27.63,32.51,49,68.81,63.19,109.24a390.2,390.2,0,0,1,20.21,88.42A394.27,394.27,0,0,1,3429.89,887.76Z"/><path class="cls-5" d="M3069.67,4.64q.18,205.86.34,411.72c0,9.33-.22,18.65-.33,28a3.54,3.54,0,0,1-3.53,1.18c-4.06-3.06-3-7.59-3.15-11.65-.29-7.46-.13-14.94-1.42-22.34-.35-4.81,6.42-9.46.36-14.42-1.27-1.86-2.72-3.61-3.86-5.56-2.21-3.33-2.5-7.05-2.15-10.89a36.82,36.82,0,0,0-.5-4.67c1.89-6.77,2.23-13.09-2.67-19.18-1.93-2.4-1.78-6.2-1.36-9.66a35,35,0,0,0-4.94-22.76c-2.3-3.81-4.1-7.55-2.61-12.21.61-1.93-.33-4-1.1-5.8-8.64-20.52-14.68-42.11-25.5-61.76s-22.54-38.41-35.18-56.83a416.44,416.44,0,0,0-40.73-50.12c-16.84-17.83-36-33.45-56.13-47.5C2846,62.78,2804,40.43,2757.89,26.89c-21.87-6.42-43.81-12.73-66.41-16.38-2.63-.42-4.53-.66-6.1,1.38-2.44,3.16-5.28,1.88-8.16,1-7.15-1.66-14.42-1.32-21.65-1.6-3.12-.12-6.7,1.28-9.19-2-1.55-1.47-2.44-3.07-1.1-5.15,3.19-1.5,6.58-.76,9.86-.76q202.43-.06,404.86,0c3.2,0,6.68-1.26,9.61,1.22Z"/><path class="cls-3" d="M3070.15,845.79q-.06-153.15-.1-306.32c0-2.33.14-4.65.21-7,28-.57,55.91-.57,83.64,3.84,13.51,2.15,26.72,5.55,39.89,9.11,1.61.43,3.2.94,4.77,1.49,10,3.43,10.45,5.11,3.25,12.46-10.24,10.48-19.78,21.58-29,32.9C3114.85,663.1,3082.46,744.5,3072.09,835,3071.68,838.67,3071.45,842.32,3070.15,845.79Z"/><path class="cls-3" d="M3070.21,1240.05q-.09-73.85-.18-147.69,0-82.81.12-165.64c2.42,16.12,4.36,32.31,7.33,48.32,9.26,49.81,25.85,97,50.91,141.19,20.16,35.56,44.06,68.14,73.28,96.77.72.69,1.44,1.39,2.09,2.15,4.68,5.45,4.38,7.78-2.35,10-8.84,2.91-17.9,5.2-26.92,7.49C3140.18,1241.38,3105.19,1240.71,3070.21,1240.05Z"/><path class="cls-3" d="M3150.42,446.84h279.3l.06.83c-9.11,1.58-18.24,3.07-27.33,4.76-33.62,6.25-65.57,17.48-96.15,32.69a8.23,8.23,0,0,0-.89.45c-10.18,6.92-19.95,6.61-30.75.36-15.87-9.2-33.27-15.19-50.57-21.27C3200.11,456.23,3175.29,451.6,3150.42,446.84Z"/><path class="cls-5" d="M3067.91,444.33h1.77v17.8c-.56.13-1.12.26-1.69.37C3061.45,456.74,3061.42,450.39,3067.91,444.33Z"/><path class="cls-2" d="M2625.93,1776.08v34q0,190.41,0,380.8c0,4.33-.05,8.67-.42,13-.4,4.59-3.17,7.33-7.75,7.71-4.31.37-8.65.42-13,.42q-209.42,0-418.83,0,0-220.93,0-441.88l38,0a145.73,145.73,0,0,0,28.57-.68,334.87,334.87,0,0,1,37.42-2.34q158.73,0,317.44.06c6.58,0,13.59-1.25,18.54,5C2625.92,1773.43,2625.93,1774.76,2625.93,1776.08Z"/><path class="cls-1" d="M481.89,325.26q0-31.45,0-62.92c0-3.32.05-6.67.39-10,.48-4.58,3.21-7.22,7.78-7.68a89.64,89.64,0,0,1,9-.37q129.34,0,258.7,0a63.33,63.33,0,0,1,9.94.57c3.48.55,4.31,2.95,2.62,5.9a56.4,56.4,0,0,1-4.56,6.55,381.57,381.57,0,0,1-112,98A380.45,380.45,0,0,1,495,405.2c-10.69.93-12.92-.82-13-12-.18-22.64-.06-45.27-.06-67.91Z"/><path class="cls-1" d="M563,42.4q31.49,0,63,0c3.32,0,6.67,0,10,.37,4.59.44,7.27,3.12,7.72,7.72a89.63,89.63,0,0,1,.36,9q0,63.95,0,127.89c0,15.85-1.22,17.06-17.07,17.08q-64,.07-127.91,0c-15.82,0-17.05-1.25-17.07-17.1q-.07-63.95,0-127.89c0-2.33-.05-4.68.17-7,.7-7.23,2.67-9.43,9.94-9.85,7-.4,14-.22,21-.23Q538,42.37,563,42.4Z"/><path class="cls-1" d="M766,42.44h63c2.66,0,5.33.08,8,.2,4.79.21,7.45,2.52,7.25,7.53-.18,4.33-.14,8.68-.63,13-5.08,45.09-16.94,88.19-37.21,129-4.48,9-10.32,12.65-20.29,12.5-29-.44-58-.15-87-.17a47.85,47.85,0,0,1-6-.24c-6.15-.81-8.16-2.7-8.93-8.76a72.74,72.74,0,0,1-.3-9q0-63,0-126c0-.66,0-1.33,0-2,.17-14.55,1.52-16,16.13-16,22-.08,44,0,66,0Z"/><path class="cls-1" d="M843.42,206c3.41,3.93,2.47,7.38,2.48,10.52q.09,86.88,0,173.74c0,2,0,4-.16,6-.7,7.27-2.66,9.28-9.85,10-2.31.23-4.65.18-7,.18q-85.89,0-171.77,0c-3.49,0-7.21.77-12.11-2.26C733.81,360.05,799.38,294,843.42,206Z"/><path class="cls-3" d="M222,2480H142c-3.34,0-6.67-.15-10-.07-7.79.17-12.22-3.72-14.68-11-6.47-19.14-7.18-38.66-3.13-58.21,9.22-44.47,43.91-78.45,87.46-85.47,34.34-5.54,65.82,1.51,92.5,24.63,22.65,19.63,35.64,44.62,37.62,74.73.91,14,.72,28-4.12,41.5-4.24,11.83-6.22,13.75-18.66,13.8-29,.13-58,0-87,0Z"/><path class="cls-3" d="M443.62,2214.13c.14,3,.41,6,.41,9q0,124.89,0,249.79c0,2.32-.18,4.65-.28,7-6-2.71-3.83-7.76-3.35-12.18,2.45-22.58,3.41-45.27-.42-67.66-12.33-72.05-49.87-126.53-114.74-161.38-19.77-10.63-40.61-18.33-62.85-22a30.55,30.55,0,0,1-3.85-1c-.21-.06-.31-.5-.92-1.58Z"/><path class="cls-2" d="M3067.91,444.33q0,9.09.08,18.17,0,6.92-.1,13.84c-5.84,7-4.12,16-5.19,23.78-6.63,48.24-21,94-41.66,137.9-4.51,9.58-8,19.62-15.32,27.71-2.16,2.38-2.51,6.32-2.8,9.79a3.81,3.81,0,0,1-1,2.81v-.05a16.88,16.88,0,0,0-2,2.28c0,.6,0,1.21-.07,1.81a25.53,25.53,0,0,0-1.95,2.08l-.19,2.06-1.77,1.72-.07.08c-.69.67-1.3,1.42-2,2.11-.07.7-.14,1.39-.2,2.09l-1.77,1.72-.07.08c-.68.67-1.29,1.41-2,2.09l-2.09,4c-.65.63-1.28,1.27-1.91,1.92l.07,0c-1,1-1.23,2.48-2,3.62-13.38,18-27.69,35.44-43.79,50.92-19.43,18.67-39.22,37.24-62.42,51.5a36.37,36.37,0,0,0-11.11,9.78,6.46,6.46,0,0,1-2.76.28c-.6,0-1.2-.07-1.8-.13-.68.7-1.5,1.25-2.16,2l0,0-1.76,1.77-2.1.21c-.69.61-1.36,1.25-2,1.9-.63.06-1.26.09-1.89.1a27.89,27.89,0,0,0-2.22,2l0,0-1.76,1.77-2.13.21c-.65.6-1.3,1.22-1.92,1.85l-2,.15a23.06,23.06,0,0,0-2,1.91q-1,.08-1.92.09a19.42,19.42,0,0,0-2.12,1.94q-.91.07-1.83.06a24.64,24.64,0,0,0-2.23,2l0,0c-1,1.22-2.9.81-4,2h0c-1.07,1.21-3,.82-4,2.06h.11c-6.24,6.16-14,9.65-22.1,12.55-7.84,2.81-16,4.59-23.89,7.29-.66.06-1.31.1-2,.12-1.09,1.2-3,.69-4.07,1.93-.64,0-1.27.07-1.91.07-1.11,1.19-3,.68-4.08,1.93-.65,0-1.29.06-1.94.07-1.09,1.2-3,.68-4.06,1.93-.65,0-1.3.06-2,.07-1.06,1.19-2.94.67-4,1.89l-2.06.1c-1,1.2-2.83.7-3.87,1.83l-4,.18c-1.08,1.17-2.93.68-4,1.86l-4,.14c-1.1,1.17-3,.67-4,1.88l-4,.13c-1.1,1.16-3,.67-4,1.86l-4,.13c-1.61,1.83-4.35.13-6,1.89l-4,.12c-2.31,2.16-5.71-.22-8,1.92l-3.92.09c-2.34,2.13-5.74-.22-8.08,1.91l-5.92.1c-3,2.31-7-.42-10.08,1.9l-7.95.08c-6.48,2.7-13.54-.74-20,1.9h-36.14c-6.49-2.65-13.56.78-20-1.9-8.64.39-17.14-.89-25.64-2.13-29.51-4.31-58.49-10.74-86.25-21.93-34.83-2.27-62.92-20.82-91-38.58a422.7,422.7,0,0,1-105.92-94.47c-5.44-6.83-10.86-13.49-10.88-22.82-7.42-11.94-16.94-22.58-22.14-35.88a19.05,19.05,0,0,0-2-2.18l0,.2c-4.78-.76-8.54-2.83-11-7.34-20-37.21-35.69-75.94-42.52-117.9-2.42-14.89-2-30-4.47-44.92v-102c2.64-11.85,2.25-24,3.36-36,3.36-36.12,16.82-69.07,31.66-101.45,36.38-79.39,92.58-141.87,165.6-189,44-28.45,91.65-49.4,143.67-58.78,15-2.72,30.59-1.54,45.67-4.64l50.25-.17c3.35-1.69,6.93-.45,10.37-.81s5.46,4.45,9.37,3l32,0c14.69,5.94,30.59,6.43,45.84,9.92,28.26,6.48,55.64,15.32,81.85,27.52a482.78,482.78,0,0,1,76.06,44,424,424,0,0,1,99.61,98.91c14.44,20.06,28.21,40.56,38.84,62.74a478.66,478.66,0,0,1,34.16,96.2c2.42,10.19.78,21.53,7.59,30.63v4c-2.23,3.91-.4,7,2,10v6a14.81,14.81,0,0,0,2,14Q3067.92,427.34,3067.91,444.33Z"/><path class="cls-5" d="M2577.93,4.41a47.81,47.81,0,0,1-15.36,4.2c-57.32,7.57-110.35,27.39-160,56.6a406.84,406.84,0,0,0-75.55,57.09c-22.86,22-44.35,45.12-62.16,71.46-37.68,55.71-63.11,116.3-72.88,183.1-.87,5.94-1.65,11.89-4,17.46q0-185.38,0-370.78c0-18.42.7-19.12,19.13-19.13Z"/><path class="cls-5" d="M2188,496.35c2.12,5.29,2.79,10.9,3.63,16.47a443.68,443.68,0,0,0,41.25,131.4,229.88,229.88,0,0,0,13.07,22.29c-9.56,13.31-16.11,28.21-22.61,43.11-17.08,39.2-28.55,79.94-33.47,122.46-2.22-5.75-1.88-11.77-1.88-17.74Q2187.94,655.34,2188,496.35Z"/><path class="cls-12" d="M2640,4.61l-11.86-.37c0-.56-.1-1.12-.13-1.68l417.89-.08c8,0,16,0,24,0-.11.75-.21,1.5-.32,2.26-3-.13-6-.37-9-.37q-207.3.12-414.6.3C2644,6.85,2642,5.72,2640,4.61Z"/><path class="cls-4" d="M1747.82,396.12a27.94,27.94,0,0,1-1.88,12.23A27.16,27.16,0,0,1,1747.82,396.12Z"/><path class="cls-4" d="M1547.18,484.32h160.88c19.5,0,19.9.43,19.91,20.36q0,60.45,0,120.89c0,2.67,0,5.33-.07,8-.45,10.25-2.36,12.2-12.48,12.66-3,.14-6,.08-9,.08h-275.8c-2.67,0-5.34-.17-8,0-8.23.52-13.37-2.77-17.26-10.47-21.89-43.39-34.43-89.34-38.92-137.6-1-10.51,1.57-13.33,11.84-13.82,3.33-.15,6.66-.08,10-.08Z"/><path class="cls-5" d="M2186.11,924.64c3.4,9.85,3.87,20.24,5.5,30.4,13.29,82.9,47,156.32,101.92,219.9,54.43,63,121.5,106.83,200.69,132.51,31.88,10.34,64.49,16,97.74,19,11.29,1,22.55,1.9,33.88,1.78-4.76,1.88-9.76,2-14.77,2H2201.36c-5.34,0-10.67,0-15.7-2.23.12-6.32.35-12.64.35-19Q2186.09,1116.81,2186.11,924.64Z"/><path class="cls-4" d="M1583,684.32q63.95,0,127.91,0c17.62,0,19,1.33,19,18.56q.08,62.94,0,125.89c0,16.29-2.56,18.7-18.72,17.1-68.81-6.81-131.39-30.11-187.48-70.74-30.43-22-56.47-48.55-80-77.71a40,40,0,0,1-4.16-5.6c-2.15-3.91-1-6.32,3.55-7a72.9,72.9,0,0,1,11-.47Q1518.55,684.3,1583,684.32Z"/><path class="cls-4" d="M2064,389.43q0-108.42,0-216.84c0-19.34.85-20.14,20.4-20.17,6,0,12-.17,18,.29,6.62.51,8.67,2.75,9.35,9.4a97.59,97.59,0,0,1,.24,10q0,216.34,0,432.68c0,19-.56,19.49-19.73,19.51-6,0-12,.17-18-.23-7.3-.48-9.38-2.62-10-9.79-.35-4-.22-8-.22-12Q2064,495.86,2064,389.43Z"/><path class="cls-4" d="M1987.94,388.62q0-107.91,0-215.8c0-20.2.22-20.4,20.84-20.4,5.66,0,11.34-.16,17,.23,7,.48,8.8,2.26,9.65,9a97.48,97.48,0,0,1,.48,12q0,212.3,0,424.6c0,5.67.07,11.35-1.32,16.89-1.62,6.42-3.68,8.54-10.28,8.85-8.64.4-17.33.43-26,0-7.67-.35-9.65-2.69-10.22-10.64-.26-3.64-.16-7.32-.16-11Q1987.94,495.52,1987.94,388.62Z"/><path class="cls-4" d="M1366.56,646.57c22,43.16,49.09,82.48,83.29,116.42a427.8,427.8,0,0,0,116.06,82.27c-2.58,3.81-5.51,2.92-8,2.93q-90,.09-180,0c-11.87,0-13.9-2.12-13.92-14.22q-.13-90,0-180C1364,651.82,1363.34,649.32,1366.56,646.57Z"/><path class="cls-2" d="M2125.94,1328.29q20.88,35.24,41.76,70.45c11.24,18.88,22.65,37.66,33.88,56.55,6,10.06,5.46,11.78-4.7,18.09-.56.35-1.13.69-1.71,1-10.27,6-12.2,5.69-18.25-4.35q-42-69.72-83.94-139.51c-.86-1.42-1.77-2.81-2.66-4.22q-43.85-72.64-87.68-145.3c-7.69-12.75-7.67-12.77,5.13-20.43,1.72-1,3.4-2.1,5.19-3,5.74-2.83,7-2.57,10.7,2.75,2.45,3.56,4.57,7.34,6.81,11.05q43.83,72.66,87.67,145.31C2120.55,1320.7,2123.33,1324.44,2125.94,1328.29Z"/><path class="cls-2" d="M1962,1328q51.35,85.2,102.71,170.39c.86,1.43,1.74,2.84,2.5,4.33,3.36,6.62,3.06,8.33-3.12,12.31-18.8,12.11-17.77,8.66-26.56-5.92q-50.61-83.89-101.15-167.82c-2.76-4.56-5.84-8.92-8.77-13.38-5.45-11.46-12.62-21.93-19.12-32.78-14.54-24.3-29.27-48.48-43.82-72.77-5.5-9.19-5.17-10.11,3.7-15.75,14.69-9.34,14.71-9.35,23.9,5.88Q1927.13,1270.19,1962,1328Z"/><path class="cls-2" d="M1882,1327.83l71.29,121.55c1,1.72,2,3.48,2.89,5.25,1.89,3.6.91,6.4-2.43,8.51-.56.36-1.11.74-1.68,1.09-19.31,12-17.4,10.34-27-5.94-24.83-42.21-50-84.21-73.76-127-1-1.74-2.17-3.36-3.26-5q-46.45-79.28-92.87-158.58c-4.55-7.78-4.18-8.75,3.35-13.39,3.12-1.92,6.28-3.78,9.52-5.48,6.39-3.33,7.29-3.24,11.13,3.15,9.08,15.13,17.94,30.39,26.83,45.63Q1844,1262.68,1882,1327.83Z"/><path class="cls-2" d="M2044,1327.76q23.07,39.2,46.1,78.42c5.15,8.78,4.69,10.56-4.21,15.75-17,9.91-15.63,7.56-23.42-5.86q-26.1-45-52.34-89.82-58.3-99.66-116.61-199.33c-1-1.72-1.9-3.52-2.89-5.26-2.37-4.18-1.79-7.62,2.49-10.18.57-.34,1.1-.75,1.67-1.09,19.69-11.88,16.1-10.66,25.75,5.83Q1982.41,1221.91,2044,1327.76Z"/><path class="cls-4" d="M2064,866.22q0-25,0-50c0-2.66-.06-5.34.21-8,.7-6.79,2.63-9.32,9.13-9.62,10-.44,20-.23,30,0,5,.13,7.91,3.18,8.33,8.24.24,3,.33,6,.33,9q0,50.45,0,100.91c0,2.33,0,4.67-.17,7-.71,7.69-2.72,9.88-10.64,10.25s-16,.31-24,.12c-10.77-.25-13-2.3-13.08-13-.21-18.32-.06-36.64-.06-54.95Z"/><path class="cls-4" d="M1988,866.44c0-18-.12-36,0-53.93.11-12,2.07-13.93,14-14.16,7-.14,14-.21,21,.11,8.48.38,11.1,2.87,12.33,11.33a77,77,0,0,1,.6,11q.08,48.43,0,96.88c0,2.65-.1,5.32-.33,8-.43,5-3.23,8.14-8.29,8.27-10,.25-20,.46-29.94,0-6.54-.28-8.47-2.75-9.16-9.54-.3-3-.21-6-.22-9q0-24.47,0-48.93Z"/><path class="cls-5" d="M2625.91,1772.11q-191.11,0-382.24,0c-6.63,0-13.34.55-19.73-2,9.23-1.32,18.46-2.62,27.68-4,62.63-9.14,120.4-31.41,173.69-65.23,21.38-13.57,41.06-29.45,59.85-46.58a434.08,434.08,0,0,0,77.79-94.55c33.52-54.69,50.84-105.43,61.42-175,.35,1.28-.5-.69.76-.26.22.07.44.53.45.82.13,4,.31,8,.31,12Q2625.92,1584.7,2625.91,1772.11Z"/><path class="cls-5" d="M2672,1326.2c35.19-4.25,69.68-11.52,103.15-23.39,54.72-19.42,103.34-48.83,146.87-87.27A438.38,438.38,0,0,0,3015.21,1099a422.48,422.48,0,0,0,46.63-132.39c1.77-10.06,3.23-20.17,4.94-30.93,1.77,3.54,1.19,6.59,1.19,9.51q0,188,0,375.93c0,2.33-.13,4.66-.2,7l-379.06,0C2683.05,1328.15,2677.38,1328.34,2672,1326.2Z"/><path class="cls-5" d="M2839.93,900.28q85,0,170,0c17.31,0,18.72,2.07,17.22,19.11a404.29,404.29,0,0,1-33.68,131c-4.63,10.35-9.77,20.43-15.21,30.38-3.56,6.52-8.56,10-16.1,9.53-2.66-.15-5.33,0-8,0H2670.19c-19.94,0-20.23-.29-20.24-20q0-76,0-151.94c0-17.26.87-18.13,18-18.14Q2754,900.25,2839.93,900.28Z"/><path class="cls-5" d="M2479.87,1079.28q0,80,0,159.93a87.12,87.12,0,0,1-.33,11c-.7,5.47-3.05,7.14-8.24,5.1a259.5,259.5,0,0,1-24.61-11c-41.16-21.32-78.08-48.39-109.94-82.2a402,402,0,0,1-108-237.6,95.83,95.83,0,0,1-.52-15c.37-6.16,2.52-8.15,8.65-8.91a74.75,74.75,0,0,1,9-.29q108,0,215.92,0c17.21,0,18.06.85,18.07,18.07Q2479.9,998.82,2479.87,1079.28Z"/><path class="cls-5" d="M2732.68,1132.16q97,0,194,0a85.23,85.23,0,0,1,11,.54c2.42.31,3.32,2.23,2.12,4.43a35.74,35.74,0,0,1-4,5.72,402.59,402.59,0,0,1-122.07,98.58c-45.69,24.2-94.27,38.56-145.55,43.9a393,393,0,0,1-134.89-9.36c-11.66-2.84-13.1-4.6-13.14-16.37q-.18-56.47,0-113c0-12.65,1.84-14.42,14.63-14.44q99-.11,198,0Z"/><path class="cls-5" d="M2520,995.3q0-38.43,0-76.85c0-3.32.06-6.66.35-10,.41-4.57,3-7.23,7.6-7.85a8.3,8.3,0,0,1,1-.1c23.95,0,47.91-.18,71.85.12,6.12.07,8,2.56,8.7,8.81a76.6,76.6,0,0,1,.27,9q0,76.85,0,153.7c0,17.26-.94,18.19-17.92,18.22-19.3,0-38.6.11-57.89,0-11.91-.11-13.84-2-13.9-14.16-.13-26.94,0-53.89,0-80.84Z"/><path class="cls-5" d="M2270.06,704.37a538.21,538.21,0,0,0,41.31,49.8C2326,770,2343,783.59,2360.1,796.68a433.37,433.37,0,0,0,101.79,58.13c5.23,2.1,10.68,3.64,16,5.43q-114.75,0-229.5-.08c-20.44,0-20.75-.06-18.44-20.61,4.83-43,16.86-84,35-123.26C2266.79,712.37,2268.37,708.34,2270.06,704.37Z"/><path class="cls-5" d="M2983.89,704.29l2.09-2c.65,7.49,4.25,13.92,7.23,20.61A395.52,395.52,0,0,1,3026,844.85c.23,2.32.39,4.65.49,7,.2,4.89-2.37,7.46-7,7.94a86.88,86.88,0,0,1-9,.38q-64.42,0-128.86,0c-16.19,0-17.48-1.41-17.6-17.77q-.09-12-.16-24c0-.71,0-1.42,0-2.13a545.11,545.11,0,0,0,63.61-49.09C2948.84,748.31,2965.63,725.72,2983.89,704.29Z"/><path class="cls-5" d="M3067.9,492.33q.06,168.33.1,336.66c0,2.29,0,4.58-1.44,7.07-.45-2.65-1-5.29-1.34-7.95-7.2-52.31-22.79-101.92-47.68-148.54-2.35-4.4-4.27-9.15-9.52-11.05a2.72,2.72,0,0,1-2.13-2.09c28.41-47,45.44-98,54.23-151.93a28.09,28.09,0,0,0,.77-4.55c0-3.65.92-7.16,1.47-10.72.65-2.06.24-4.36,1.26-6.33A2.82,2.82,0,0,1,3067.9,492.33Z"/><path class="cls-2" d="M3007.91,666.29c0,.75.08,1.49.11,2.23s-.19,1.32-.3,2l-1.8,1.8h0c-.71.67-1.34,1.44-2,2.18,0,.61,0,1.21-.11,1.82-.63.81-1.26.81-1.88,0-1.52-5.93.57-11,3.42-16.11a451.08,451.08,0,0,0,48.5-131.64,361.25,361.25,0,0,0,6.2-40.48c.45-5.4,2.55-9.61,7.85-11.72v4a14.85,14.85,0,0,0-2,14v6c-2.4,3-4.23,6.08-2,10v4c-6.74,9.7-4.91,21.46-7.54,32.15-8.94,36.39-22.88,70.86-38.48,104.73A65.31,65.31,0,0,1,3007.91,666.29Z"/><path class="cls-2" d="M2778,860.16c13.84-10.07,29-17.09,46-19.84-.09,3.31,0,6.63-.32,9.92-.67,7.2-2.58,9.4-9.93,9.65C2801.85,860.29,2789.93,860.1,2778,860.16Z"/><path class="cls-2" d="M3065.91,494.33c-4.13-7.29-4.13-7.29,2-14,0,4,0,8,0,12Z"/><path class="cls-5" d="M2646,886.19c6.5-2.53,13.3-1.81,20-1.9C2659.52,886.76,2652.73,886.16,2646,886.19Z"/><path class="cls-5" d="M2589.8,884.3c6.74.08,13.55-.64,20.06,1.9C2603.11,886.16,2596.32,886.76,2589.8,884.3Z"/><path class="cls-5" d="M2674,884.21a27,27,0,0,1,10.08-1.9A27.14,27.14,0,0,1,2674,884.21Z"/><path class="cls-5" d="M2702,880.21l8-1.92Z"/><path class="cls-5" d="M2690,882.21l8.08-1.91Z"/><path class="cls-5" d="M2714,878.17l6-1.89Z"/><path class="cls-2" d="M2823.9,840.32l4-2.06Z"/><path class="cls-2" d="M2827.92,838.25l4-2Z"/><path class="cls-5" d="M2724,876.15l4-1.86Z"/><path class="cls-2" d="M2732.05,874.16l4-1.88Z"/><path class="cls-2" d="M2740.06,872.14l4-1.86Z"/><path class="cls-2" d="M2748.11,870.1l3.87-1.83Z"/><path class="cls-2" d="M2754,868.17l4-1.89Z"/><path class="cls-2" d="M2760,866.21l4.06-1.93Z"/><path class="cls-2" d="M2766,864.21l4.08-1.93Z"/><path class="cls-2" d="M2772,862.21l4.07-1.93Z"/><path class="cls-2" d="M2831.93,836.24l2.23-2Z"/><path class="cls-2" d="M2836,834.2l2.12-1.94Z"/><path class="cls-2" d="M2840,832.17l2-1.91Z"/><path class="cls-2" d="M2844.09,830.11l1.92-1.85Z"/><path class="cls-2" d="M2985.91,702.32l1.91-1.93Z"/><path class="cls-2" d="M2989.91,696.4l2-2.09Z"/><path class="cls-2" d="M2991.94,694.23l1.77-1.73Z"/><path class="cls-2" d="M2993.91,690.42l2-2.11Z"/><path class="cls-2" d="M2995.94,688.23l1.77-1.73Z"/><path class="cls-2" d="M2997.9,684.45l1.95-2.08Z"/><path class="cls-2" d="M2999.92,680.56l2-2.28Z"/><path class="cls-2" d="M3001.92,676.29h1.88l-1.86,2C3001.93,677.65,3001.93,677,3001.92,676.29Z"/><path class="cls-2" d="M2848.14,828.05l1.76-1.77Z"/><path class="cls-2" d="M3003.91,674.48l2-2.18Z"/><path class="cls-2" d="M3005.92,672.29l1.81-1.8Z"/><path class="cls-2" d="M2849.92,826.25l2.22-2Z"/><path class="cls-2" d="M2854,824.16l2-1.9Z"/><path class="cls-5" d="M2245.89,666.31l2,2.18C2247.24,667.76,2246.56,667,2245.89,666.31Z"/><path class="cls-2" d="M2858.14,822.05l1.76-1.77Z"/><path class="cls-2" d="M2859.92,820.25l2.16-2Z"/><path class="cls-2" d="M3063.91,376.35c-4-2.53-5.78-6.4-6.08-10.91-1-15.42-6-30-10.08-44.69-5.54-19.86-13.29-39-21.61-57.89-15.14-34.35-36.07-65.08-59.29-94.37-31.58-39.83-69.9-71.92-113.29-98-46.92-28.24-97-48.14-151.44-56.41-7.75-1.18-16.17-1-22.16-7.58,18.06,1,35.57,5.22,53,9.48,54.38,13.25,104.24,36.51,150,68.57,43.59,30.51,79.7,68.27,109.86,112.09C3030.41,251.15,3052.87,311.44,3063.91,376.35Z"/><path class="cls-2" d="M3067.9,410.34c-6.12-6.7-6.12-6.7-2-14A41.73,41.73,0,0,1,3067.9,410.34Z"/><path class="cls-2" d="M3065.91,390.34c-4.37-2.59-4.83-6-2-10Q3064.92,385.35,3065.91,390.34Z"/><path class="cls-2" d="M2640,4.61h6l1.89,1.8A7.07,7.07,0,0,1,2640,4.61Z"/><path class="cls-1" d="M2372,2012q64.93,0,129.87,0c4.18,0,9.91-1.81,12.08,2.27,2.59,4.88-3,8.29-5.68,11.69q-98.22,123.33-254.42,145.34c-6.59.92-13.23,1.66-19.87,2s-9-1.76-9.72-8.51a81.41,81.41,0,0,1-.25-9q0-62.93,0-125.86c0-.67,0-1.33,0-2,.17-14.57,1.48-16,16.11-16Q2306.08,2011.88,2372,2012Z"/><path class="cls-1" d="M2306,1810q32.48,0,64.93,0a89.75,89.75,0,0,1,9,.36c4.62.46,7.18,3.24,7.62,7.8.29,3,.35,6,.35,9q0,63.93,0,127.85c0,15.94-1.18,17.11-17,17.12q-64.92.08-129.85,0h-2c-13.24-.23-14.9-1.75-14.93-15.17q-.12-65.93,0-131.84a65,65,0,0,1,.33-7c.5-4.56,3-7.31,7.67-7.77,3-.29,6-.35,9-.35Q2273.5,1810,2306,1810Z"/><path class="cls-1" d="M2588,1820a403.8,403.8,0,0,1-38.47,140.75c-3.77,7.89-8.89,11.56-17.76,11.48-30.6-.28-61.22,0-91.83-.15-11.94,0-13.84-2-13.87-14.13q-.2-73.86-.14-147.72c1.65-1.59,3.73-1.15,5.68-1.15q75.29,0,150.58,0c2,0,4-.38,5.75,1h0A11.4,11.4,0,0,1,2588,1820Z"/><path class="cls-1" d="M2387.3,2172.08c89.28-44.44,155.26-110.32,199.19-198.63,4,2.7,3.18,5.9,3.2,8.61.13,12.65.08,25.31.08,38q0,68.43,0,136.87c0,16-1.16,17.22-16.89,17.23q-86.94.06-173.87,0C2395.73,2174.11,2392.33,2174.8,2387.3,2172.08Z"/><path class="cls-5" d="M2587.93,1810.1l-162,.16c4.69-2.09,9.68-2.16,14.68-2.16h132.61C2578.21,1808.1,2583.19,1808.19,2587.93,1810.1Z"/><path class="cls-5" d="M2588,1820l-.08-9.94A11.75,11.75,0,0,1,2588,1820Z"/><path class="cls-5" d="M2479.93,245.35q0,76.47,0,152.94c0,18.44-1.53,20-19.89,20q-106,.07-211.94,0c-19,0-20.56-1.46-18.35-19.78,7.28-60.47,26.66-116.6,59.89-167.93,16.36-25.29,34.32-49.36,55.82-70.28,24.37-23.72,51.24-44.59,81.15-61.26,13.69-7.63,27.32-15.34,42-21,8.5-3.29,10.67-1.87,11.25,7.35.2,3.32.11,6.66.11,10Q2479.93,170.37,2479.93,245.35Z"/><path class="cls-5" d="M2479.85,514.18q0,142.88.06,285.74c0,15.72-1.78,16.92-15.79,10.5a414.92,414.92,0,0,1-97.45-61.94c-28.89-24.69-52.56-53.69-74.74-84.17,4.65-17.2,17.3-29.14,28.19-42.09,33.44-39.75,73.74-71,119.53-95.4,9.44-5,19.38-8.88,29-13.48C2472.57,511.45,2476.31,511.34,2479.85,514.18Z"/><path class="cls-5" d="M3025.91,398.34v4c6.36,12.81,3.41,17.39-10.92,17.7-45.82,1-91.64-.37-137.47.54-4.77.09-11.7,1.46-13.6-6.24V124.39c4.12-3.09,6.78.4,9.41,2.43,43.7,33.75,79.15,74.55,105.84,123,17.63,32,31.17,65.57,39.66,101.14,3.32,13.89,4.91,28.14,8.54,42C3028,395.29,3026.85,396.68,3025.91,398.34Z"/><path class="cls-5" d="M2271.92,630.31A416.39,416.39,0,0,1,2236.57,533a386.71,386.71,0,0,1-8.33-53.22c-1.54-18.39,1.2-21.36,19.2-21.38q106.36-.08,212.73,0c1.67,0,3.33,0,5,.07,11.75.5,13.53,2.19,14.73,14a34.12,34.12,0,0,1-13,8.92c-55.7,22.27-104.94,54.42-147.25,97-13.36,13.43-26.4,27.23-37.54,42.63C2279.27,624.78,2276.21,628.16,2271.92,630.31Z"/><path class="cls-1" d="M2974.12,646.1c-.07.7-.13,1.4-.2,2.1a28.43,28.43,0,0,1-2.15,2.1l-19.85,0a8.33,8.33,0,0,1-2.32,1.76c-10.22-4.63-14.75-14.84-21.81-22.52-14.82-16.13-29.82-32-46.8-45.93-2.52-2.06-5-5-8.72-3.24s-3.21,5.55-3.25,8.8c-.23,16.91,0,33.82-.16,50.73-.05,4.42,1,9.47-4.49,12a5.57,5.57,0,0,1-2.46-1.54h-36a3.48,3.48,0,0,1-3.12,1.07c-4.39-3.73-3.84-8.87-3.85-13.8-.07-25.25-.52-50.52.15-75.75.39-14.83-5.15-24-18.68-30.56a401.83,401.83,0,0,0-133.59-37.79c-7.09-.75-14.3-1.31-19.8-7.15a109.89,109.89,0,0,1-.48-22.15c.33-5.42,1.06-8.74,7.39-5.76l83.83,0c2,1.66,4.08.75,6.14.08a16.31,16.31,0,0,0,2.6-.48c1.72-.64,3.54-.23,5.27-.36a21,21,0,0,1,2.32,1.17c1.14.73,2.26,1.46,3.44,2.12,1.35.44,2.79.46,4.14.88,8.54,4.66,18.41,4.84,27.36,8.33,58.58,22.85,110.15,56.26,154.24,101.19,12.6,12.85,25.57,25.36,35.91,40.18,3.4,4.87,8,9.79,4.88,16.73-.07.65-.11,1.3-.14,1.95-.61.68-1.23,1.33-1.87,2,0,.67-.09,1.33-.14,2-.6.7-1.23,1.37-1.89,2-.05.65-.09,1.29-.11,1.94a18.45,18.45,0,0,1-1.94,2.11c-.05.61-.07,1.21-.07,1.82a17.86,17.86,0,0,1-2,2.26h0Z"/><path class="cls-5" d="M2984.07,628.23c-7.26-13.68-17.57-25.1-27.88-36.36-32.15-35.08-68.43-65.13-109.91-88.75-23.81-13.56-48.81-24.42-74.49-33.82-4.06-1.48-8-3.21-12-4.82-.07-5.78,4.46-4.51,7.79-5.11,10.2-1.82,20.28.88,30.36,1.36,34.71,1.66,69.41.58,104.11.85,38.68.31,77.37-.71,116.07.25,3.87.09,7-.3,9.83,2.5v8c3.31,5.83,1,11-2,16v4c2.61,2.9,1.3,5.87.41,9-2.42,8.61-2.54,17.7-5.39,26.22-2.86,8.74-4.71,17.76-7,26.64-.09.94-.22,1.87-.29,2.8-4.06,8.83-6.74,18.18-9.56,27.48a12.86,12.86,0,0,1-.89,2.69,29.74,29.74,0,0,0-3.39,8.6,9.42,9.42,0,0,1-1.32,2.44c-2.65,7.06-7.08,13.36-8.8,20.82a21.92,21.92,0,0,1-3.77,7.27Z"/><path class="cls-1" d="M2271.92,630.31c.73-5.9,4.16-10.42,7.67-14.86,26.72-33.79,57.29-63.58,92.47-88.54a445.75,445.75,0,0,1,93.44-50.79c4.64-1.84,9.29-3.63,14.39-3.7q0,20.88,0,41.76a415.64,415.64,0,0,0-107.49,63.75c-26.85,22.07-49.89,47.59-70.35,75.56-2.92,4-5.41,8.43-10.08,10.82Z"/><path class="cls-2" d="M2815.92,424.34H2536.15c-2.33,0-4.67,0-7-.07-11.82-.48-14.65-3.25-15.14-15-.13-3.32-.08-6.66-.08-10V77.61c0-2.33,0-4.66,0-7,.21-15.27,2.57-18,17.78-21.55a417.46,417.46,0,0,1,119.05-10.36C2709,42.07,2764.51,56,2816.37,83.48c9.35,4.94,13.74,11.34,13.65,22-.32,38.63-.11,77.26-.1,115.89q0,89.42,0,178.84c0,3.66.08,7.33-.17,11-.62,9-2.2,10.68-11.82,13.11-1.75-5,2.61-9.63,1-14.68q-.12-143-.07-285.93c0-7.31.55-14.7-2.18-21.71-6.91-11.41-17.1-18.74-29.14-24.07-21.9-9.7-44.78-17-67.71-23.17-10.69-2.88-22.81-3.43-34-5.62-11.57-2.26-23.3-2.18-34.88-4.64-14-3-28.65-.88-43-1-5.36,0-3.77,8.94-10,7.62-18.24,1.74-36.43,3.77-54.22,8.31-14.1,3.6-17.92,8.33-18.61,23-.09,2-.1,4-.11,6q0,152.73,0,305.46c0,7-.33,14.09,4.79,19.91,1.3,6.8,6.9,5.53,11.2,5.55,51,.24,102-.27,153,.08,38.43.27,76.87-.6,115.3.5C2812.54,420.1,2816.38,418.73,2815.92,424.34Z"/><path class="cls-2" d="M2669.71,684.29c39,0,78-.36,116.94.15,20.69.27,41.22-3.49,61.87-2.07,28.93,2,57.89,2,86.86,2a25.22,25.22,0,0,1,5.95.62c6.58,1.61,8.67,5.68,5.88,12-3,6.8-8,12.32-13,17.62-23.75,25.27-48.37,49.63-77.77,68.49a125.55,125.55,0,0,1-14.84,8.23c-12.09,5.64-22.09,14.63-34.21,20.34-45.68,21.51-93.3,34.91-143.82,39-36.82,3-73.16,1-109.5-4.54-9.91-1.51-19.52-4.24-29.17-6.82-7-1.88-10.68-6.39-10.79-13.7,0-3-.16-6-.16-9q0-55.47,0-110.94c0-1.66,0-3.33,0-5,.38-13.43,3.08-16.31,16.8-16.35,46.31-.12,92.62,0,138.94,0Z"/><path class="cls-1" d="M2520,500.17c0-9.95-.17-19.91.15-29.86.3-9,2.56-11.52,11.32-11.63q33.34-.44,66.69,0c8.86.11,11,2.58,11.43,11.54.27,5.3.12,10.62.15,15.92l-.27,1.69c-3.56,3.54-8.36,4.2-12.86,4.63a503.44,503.44,0,0,0-67.7,11.46c-2.56.6-5.1.94-7.35-1A3,3,0,0,1,2520,500.17Z"/><path class="cls-2" d="M2609.78,486.13c5.44,3.63,6,9.21,6.07,15q.08,18.95.07,37.91,0,48.88,0,97.78c-.05,17.92-2.28,19.81-20.29,19.6-20-.23-39.92-.09-59.87-.14-3.33,0-6.67.07-10-.27-7.85-.8-10.57-3.5-11.53-11.15a47.55,47.55,0,0,1-.28-6q0-60.85,0-121.72c0-6.35-.15-12.84,6.07-17h0c5.06,3.79,4.9,9.28,4.9,14.76q0,48.48,0,97c0,4,0,8,.08,12,.56,16.37,4.85,20.86,20.92,21.29q19,.5,38,0c16.12-.42,20.7-4.87,20.86-21.29.39-41,.1-82,.14-122.94,0-5.49-.17-11,4.88-14.77Z"/><path class="cls-2" d="M2653.94,458.37c-3.27,2.93-3.89,6.81-3.91,10.9,0,5.65,0,11.3-.06,17,5,3.77,5,9.18,5,14.65q0,57.92,0,115.84c0,25.54,3.09,28.57,28.9,28.56,43.62,0,87.24.35,130.85-.3,4.77-.07,7.47,1.46,9.55,5.22.56,0,1.12,0,1.68.07-1.64,3.76-4.63,5.56-8.61,5.76-3,.16-6,.26-9,.26q-72,0-143.9,0c-18.64,0-20.45-1.87-20.48-20.74q-.08-58,0-115.9c0-14,.34-28-1.65-41.89a44.51,44.51,0,0,1,.45-16.9C2644.39,454.09,2647.82,453.43,2653.94,458.37Z"/><path class="cls-2" d="M2823.92,414.34c.87,5.06-3.1,7.21-6,10h-2c-6.07-2.42-12.44-2-18.76-2q-127.9,0-255.81,0a135.4,135.4,0,0,1-14-.53c-4.25-.45-7.86-2.08-7.46-7.45,4.64-2.38,9.55-3,14.76-3h274.46C2814.37,411.33,2819.28,412,2823.92,414.34Z"/><path class="cls-5" d="M3027.91,464.33H2813.3c-10.64,0-21.26,0-31.87-1.47-7.24-1-14.62-1.23-21.67,1.61l-4-.27c-1-1.18-2.89-.66-3.92-1.87-.64,0-1.28-.06-1.92-.11a3,3,0,0,1-.69-3.34c7.8-4.77,16.81-2.76,24.9-2.74,80,.25,160.09.46,240.14-.09,4.7,0,11.76-1.49,13.64,6.27Z"/><path class="cls-2" d="M3027.91,462.33c-6.6-4-14-4-21.31-4q-80.94,0-161.88,0c-28.3,0-56.61-.65-84.88,1-3.32.19-6.61.65-9.92,1-1.36,1.32-2.74,1.12-4.12.06-.64,0-1.27-.05-1.9-.1-.57-.75-2-.66-2-2,5.79-4.23,12.52-4,19.17-4q67.35,0,134.69,0,56.88,0,113.74,0a86.2,86.2,0,0,1,11.92.7C3025.41,455.62,3028.33,457.62,3027.91,462.33Z"/><path class="cls-2" d="M3025.91,398.34a418.9,418.9,0,0,0-27.32-105c-16.23-39.7-38.67-75.64-66.63-108.27a398.6,398.6,0,0,0-56-53.84c-3.69-2.92-7.45-5.58-12-6.84,3-3.14,6.15-1.82,9,.17,4.09,2.87,8.11,5.85,11.94,9,37.93,31.66,70,68.28,93.67,111.85,17.4,32,32.43,65,40.74,100.59,3.32,14.26,5.83,28.71,8.85,43C3028.85,392.63,3028.39,395.67,3025.91,398.34Z"/><path class="cls-2" d="M2863.92,414.34c5.33,3.18,11.21,4,17.27,4h128.59l1,0c13.52-.46,15.49-2.53,15.13-15.94,4.71,3.23,6.47,7.56,4.35,13-2,5-6.46,6.31-11.3,6.74-2,.17-4,.25-6,.25q-66.83,0-133.67,0a53.39,53.39,0,0,1-8.93-.67C2866.42,421,2863.5,419.05,2863.92,414.34Z"/><path class="cls-2" d="M2983.89,704.29c-4.87,10.34-12.43,18.8-19.64,27.43-25.9,31-56.05,57.26-89.43,79.9a28.25,28.25,0,0,1-10.9,4.65c3.1-4.44,7.37-7.56,11.79-10.54,17.64-11.87,33.95-25.34,49.72-39.63a404,404,0,0,0,48.78-53.53C2976.87,709.11,2979.65,705.87,2983.89,704.29Z"/><path class="cls-2" d="M3019.91,528.32l6-36c2.84,3,2.77,6.38,2,10.22-4.24,20.52-7.87,41.17-13.85,61.31-5.62,18.88-13.57,36.81-22.19,54.47a26.43,26.43,0,0,1-5.92,8q1-4,2-8c2.79-7.58,7.22-14.42,10-22,1.67-3.2,2.33-6.8,4-10a180.73,180.73,0,0,1,10-30C3014.76,547,3014.84,537,3019.91,528.32Z"/><path class="cls-2" d="M2861.91,650.27c.62-.06,1.24-.1,1.85-.12,1.31-.25,2.52-1.3,3.74-1.25,27.53,1.22,55.1-.71,82.62,1.16.6,0,1.2.11,1.8.19-2,4.7-6,5.91-10.58,5.92q-34.41,0-68.83,0C2867.93,656.16,2863.92,655,2861.91,650.27Z"/><path class="cls-2" d="M3025.91,488.33q1-8,2-16C3032.58,480.79,3032.52,481.33,3025.91,488.33Z"/><path class="cls-5" d="M2741.92,458.32l2,2-6.13-1.9Z"/><path class="cls-2" d="M2982.06,632.15l1.86-2Z"/><path class="cls-2" d="M2971.77,650.3l2.15-2.1Z"/><path class="cls-2" d="M2974.12,646.1l1.79-1.8Z"/><path class="cls-2" d="M2975.91,644.3l2-2.26Z"/><path class="cls-2" d="M2978,640.22l1.94-2.11C2979.28,638.82,2978.63,639.52,2978,640.22Z"/><path class="cls-2" d="M2980,636.17l1.89-2Z"/><path class="cls-2" d="M3007.91,666.29c5-13,12.78-24.69,18.17-37.6,12.18-29.19,22.94-58.78,29.81-89.69a124.25,124.25,0,0,0,1.76-12.8c.55-4.8,1.87-9.14,6.26-11.88-7,48.3-23.16,93.63-44.36,137.34C3016.78,657.38,3013.69,662.93,3007.91,666.29Z"/><path class="cls-2" d="M3063.91,510.32c-2.83-4-2.37-7.4,2-10C3065.24,503.66,3064.58,507,3063.91,510.32Z"/><path class="cls-5" d="M2824.24,650.19q-73.87.06-147.75.1c-4.32,0-8.66.1-13-.13-10.34-.56-12.93-3.15-13.5-13.2-.11-2-.09-4-.09-6q0-72.37,0-144.75c38.64,3.44,76.59,10.08,113.21,23.44,17.27,6.3,33.74,14.24,50.24,22.22,7.63,3.7,10.61,9.07,10.54,17.37-.24,28-.09,56-.05,84C2823.92,638.87,2824.13,644.53,2824.24,650.19Z"/><path class="cls-2" d="M2950.12,650.06c-4.43,3.37-9.59,4.18-15,4.18h-56.4c-5.37,0-10.53-.77-15-4.09.11-22.89.12-45.78.4-68.66.06-4.38-1.9-10.32,3.37-12.5,4.45-1.83,7.79,2.83,10.95,5.51C2905.15,597,2930.31,621,2950.12,650.06Z"/><path class="cls-5" d="M2745.8,460.39l4.12-.06v1.9Z"/><path class="cls-5" d="M2751.84,462.34l3.93,1.87Z"/><path class="cls-5" d="M3011.91,556.32a118.1,118.1,0,0,1-10,30C3002.48,575.39,3005.55,565.31,3011.91,556.32Z"/><path class="cls-5" d="M3019.91,528.32c-2.63,9.34-4,19-8,28C3012.87,546.5,3013.57,536.6,3019.91,528.32Z"/><path class="cls-5" d="M2997.91,596.31c-1.42,8.2-5.24,15.31-10,22C2989.34,610.11,2993.16,603,2997.91,596.31Z"/><path class="cls-5" d="M3001.91,586.31a21.36,21.36,0,0,1-4,10A21.57,21.57,0,0,1,3001.91,586.31Z"/><path class="cls-5" d="M2823.92,414.34c-4.75,1.9-9.74,2-14.74,2H2534.67c-5,0-10-.09-14.74-2q0-167.17,0-334.36c0-20.65.48-21.06,20.77-25.57,18.88-4.19,37.83-7.6,57.23-8,8.73-5.18,18.25-2.25,27.43-3.08,23.75-2.16,47,1.82,69.94,5.51,36.84,5.94,72.72,16.41,106,34.23,5.56,3,11.27,5.69,16.94,8.47,2.95,1.46,6.41,2.4,5.69,6.87Z"/><path class="cls-2" d="M2823.92,98.4c-12.25-10-26.89-15.73-41.14-21.91-40-17.34-81.92-26.84-125.33-30a451.21,451.21,0,0,0-59.52-.05c3.09-4.74,7.87-5.92,13-5.83,15.58.27,31.18-1.4,46.71,1.85,7.06,1.48,14.46,1.47,21.71,2.3,35.92,4.12,70.26,13.88,103.71,27.29,12.4,5,23.52,12.38,35.66,17.79C2822.35,91.4,2824.79,94,2823.92,98.4Z"/><path class="cls-5" d="M2657.92,844.27c-42.88,5.31-84.85-.49-126.4-10.7-10.05-2.47-11.5-4.73-11.53-16.64-.11-40.88,0-81.76-.06-122.64,1.05-7.89,7.74-6.15,12.16-6.12,65,.46,130,0,195,.12q47.5.12,95,.07c1.31,0,2.48.79,3.71,1.24,2.91,4.4,3.08,9.33,3.09,14.3.07,24.51,0,49,0,73.53a32.52,32.52,0,0,1-3.42,15.58c-8.61,10.15-21.32,13.57-32.6,19-30,14.37-62,23-94.47,29.77-9.29,1.93-18.91,2.88-28.41,4.14C2665.85,846.45,2661.66,847,2657.92,844.27Z"/><path class="cls-2" d="M2824.12,690.39c-7.63,1.3-15.25-.16-22.88-.15q-130.08.13-260.17.08c-7.27,0-14.73-.7-21.14,4-.4-5.36,3.21-7,7.45-7.44a135.21,135.21,0,0,1,13.95-.54q130.27,0,260.55,0a257.27,257.27,0,0,0,27.88-1.36,104.54,104.54,0,0,1,22.91-.38c24.57,2.8,49.2,1.26,73.79,1.75a65.82,65.82,0,0,1,9.95.55c7.59,1.34,9.41,5.47,5.33,12a52.26,52.26,0,0,1-6.61,8.74c-17.76,18.44-35,37.38-55.13,53.4-5,4-10.11,7.62-16.46,9.06-3.7-3.11-4.6-7.16-4.61-11.84,0-14.55.28-29.1-.14-43.64s-4.47-18.55-19.21-19.26C2834,695.1,2828,696,2824.12,690.39Z"/><path class="cls-1" d="M2824.12,690.39c9.62,0,19.26-.18,28.87.16,8.37.3,10.81,2.55,10.88,10.88.21,22.9.75,45.8-.33,68.68-.58.08-1.15.17-1.73.27-.63.64-1.27,1.27-1.91,1.9l0,0c-.66.73-1.43,1.35-2.16,2l-2,.18c-.6.59-1.19,1.19-1.78,1.8l-.05,0c-.68.69-1.42,1.3-2.12,2l-2.08.2c-.59.59-1.16,1.18-1.73,1.77l-.08.08c-.68.69-1.43,1.3-2.14,1.95l-2,.17-1.8,1.82,0,0a24.79,24.79,0,0,1-2.22,2c-.63,0-1.27.06-1.9.12q-1,1-2,1.89l-2.11.21c-.59.58-1.18,1.17-1.76,1.77l0,0c-.68.72-1.44,1.34-2.18,2-.64,0-1.28,0-1.91.09-.65.65-1.3,1.28-2,1.91v-.12c-.59,1-1.16.91-1.71,0Q2824.15,742.25,2824.12,690.39Z"/><path class="cls-2" d="M2824.16,794.12c.57,0,1.14,0,1.71,0-1.5,3.54-4.21,5.74-7.59,7.5a425.53,425.53,0,0,1-83,33.2,410.52,410.52,0,0,1-62.36,12.57c-5.43.63-10.62.8-15-3.16,25.36-1,49.91-6.66,74.39-12.7,25.57-6.3,49.71-16.5,73.52-27.5C2812.13,801.16,2818.06,797.46,2824.16,794.12Z"/><path class="cls-2" d="M2829.73,792.28l2.18-2Z"/><path class="cls-2" d="M2831.94,790.27l1.76-1.78Z"/><path class="cls-2" d="M2835.81,788.29l2-1.9Z"/><path class="cls-2" d="M2839.69,786.28l2.22-2Z"/><path class="cls-2" d="M2841.93,784.27l1.81-1.82Z"/><path class="cls-2" d="M2845.76,782.28l2.14-1.95Z"/><path class="cls-2" d="M2848,780.25l1.73-1.77Z"/><path class="cls-2" d="M2851.79,778.28l2.12-2Z"/><path class="cls-2" d="M2854,776.26c.6-.6,1.19-1.21,1.78-1.81Z"/><path class="cls-2" d="M2857.76,774.28l2.16-2Z"/><path class="cls-2" d="M2859.9,772.28l1.92-1.91Z"/><path class="cls-2" d="M2825.87,794.28l2-1.91Z"/><path class="cls-5" d="M2609.8,486.18q.06,73.37.11,146.73a56.72,56.72,0,0,1-.2,6c-.8,7.84-3.27,10.54-11.34,11.08-7.29.49-14.63.3-21.95.32-13,0-26,.09-38.93,0-15.27-.15-17.5-2.29-17.52-17.31q-.07-66.37.06-132.76c14.62-2.51,28.9-6.64,43.59-8.9C2579,488.92,2594.35,487.37,2609.8,486.18Z"/></svg>