<svg id="Layer_1" data-name="Layer 1" xmlns="http://www.w3.org/2000/svg" viewBox="0 0 3508 2482"><defs><style>.cls-1{fill:#393939;}.cls-2{fill:#4f4f4f;}.cls-3{fill:#2b2b2b;}.cls-4{fill:#242424;}.cls-5{fill:#262626;}.cls-6{fill:#474747;}.cls-7{fill:#3a3a3a;}.cls-8{fill:#414141;}.cls-9{fill:#424242;}.cls-10{fill:#3b3b3b;}.cls-11{fill:#252525;}</style></defs><path class="cls-1" d="M1244.07,2482h-316c-4.78-3.42-5-8.42-5-13.67,0-25.27.16-50.54,0-75.81-.16-19.45-4-23.35-23.57-23.44q-55.37-.26-110.73,0c-19.53.09-23.41,4-23.57,23.44-.21,25.27-.06,50.54,0,75.81,0,5.25-.24,10.25-5,13.67H.1v-28c3.61-19.39,2.61-39.14,3.81-58.68,1.84-29.83,8.85-58.38,16.94-86.72,23.82-83.5,63.84-158.68,119.35-225.38,49.92-60,108.66-109.62,177-147.71a626.37,626.37,0,0,1,172.29-65.3,235,235,0,0,1,39.22-4.9c6.22-.29,12.49-1.31,18-5.55,6-4.57,13.43-2.36,20.37-2,23.65,0,47.22-2.47,70.81-2.51q234.24-.39,468.47-.15a119.38,119.38,0,0,1,18.9,1c29.94,1.94,59.93.76,89.9.89,6.36,0,12.86-.22,16.64-6.8,7.54-12.34,8.05-25.51,6-39.46-1.6-10.91-.8-22.08-.8-33.15q0-257.19,0-514.39c0-6.55-1.28-13.38,2.47-19.48a4.93,4.93,0,0,1,2.89-2.07c4.67-.1,6,2.91,6.35,6.86.34,3.66.23,7.32.23,11q0,239.31,0,478.62c0,17.35-3.31,34.51-3,51.88-.1-61,20.77-126.1,45.44-182.16,33-75,79.57-140.71,138.44-197.55a618.28,618.28,0,0,1,219.51-137.17,582.66,582.66,0,0,1,98.15-26.88c15.5-2.75,32.35.35,46.62-5.92,16.3-7.15,32.49-3.79,48.74-5.08,7.27.26,14.74-1.06,21.51,2.86a6.9,6.9,0,0,1,2.23,2.81c3.2,14.68,2.37,29.59,2.37,44.44q0,121.93,0,243.87c0,3.66.06,7.33,0,11-.43,13.51-3,16.14-16.35,17.1-67.38,4.81-128.32,26.7-180.46,70.2-65.62,54.72-102.12,125.12-110.24,210.17-1.27,13.31,3.38,18.46,16.64,19.28,5.32.33,10.66.17,16,.17q274.89,0,549.77,0c9.87,0,19.69.7,29.55,1.14,1.73.94,3.93,1.19,4.82,3.36a11.86,11.86,0,0,1-.33,4.15c-2.81,3.87-7.12,3.3-10.95,3.23-32.63-.63-65.31,2-97.93-1.26-1.43-.14-3.34-1.72-5.14.09-6.35,6.36-14.08,3.57-21.45,3a171.36,171.36,0,0,0-49.39.06c-5.71.59-11.66,3.7-16.56-2.51-1.11-1.4-3.72-.84-6.11-.42-8.76,1.54-17.74,1.22-26.65,1.22q-330.43,0-660.87,0c-6.66,0-13.35-.36-20,.72-7.32,1.21-12.43,4.87-12.77,12.94-.3,7.3,4.44,12.22,13.12,13.65,6.27,1,12.63.67,19,.67q281.44,0,562.88,0c23.15,0,24-3,23.4,25.47-.14,6.92-3.19,10.46-10.32,10.41-4.66,0-9.33.08-14,.08q-281,0-561.89,0c-6.65,0-13.36-.44-19.94.82-8.3,1.58-12.64,6.69-12.56,14.32s4.5,12.56,12.87,14.06c6.6,1.19,13.3.76,20,.76q281.94,0,563.88,0c20.65,0,20.65,0,20.12,21-.26,10.47-2,12.28-12.63,12.84-4.66.25-9.33.11-14,.11q-280.44,0-560.88.05c-8.6,0-17.41-1.09-25.45,3.21-6.7,7.31-7,13.14-1.11,21.57,1,.47,2,1,3,1.41,1.64.53,3.24,1.3,4.88,1.24,21.66-.78,42.75,4.83,64.48,4.77,158.28-.47,316.57-.26,474.85-.24,16.27,0,32-5.27,48.47-4.15,15.49,1.06,18.27,2.49,21.93,17.31,2.48,12-2.27,18.15-14.63,18.73-4.66.21-9.33.09-14,.09H1283c-6.66,0-13.37-.42-20,.8-8.38,1.55-12.77,6.53-12.8,14.12s4.32,12.66,12.65,14.23c6.59,1.25,13.3.82,20,.82q278.49,0,557,0c2.67,0,5.34,0,8,0,21,0,25.16,5.32,20.88,26.21-1,4.7-3.6,7.34-8.32,7.6-5,.27-10,.18-15,.18q-281.49,0-563,0c-6.66,0-13.37-.44-19.94.9-8.17,1.67-12.57,7-12.24,14.59.34,7.81,4.76,12.17,12.21,13.6,6.6,1.27,13.29.88,20,.88q282.49,0,565,0c22,0,22-1.74,21.49,23.95-.13,6.54-3.39,9.57-9.72,9.87-4.67.21-9.33.17-14,.17q-282,0-564,0c-6.66,0-13.36-.37-20,.79-7.36,1.29-12.22,5.21-12.61,13.18-.36,7.41,4.12,13,12.1,14.87,6.88,1.63,13.93,1.13,20.92,1.13q279,0,558,0h8c21.57,0,24.34,3.43,21.24,25.08-.8,5.53-3.52,8.41-8.91,8.75-4.31.27-8.65.18-13,.18q-283,0-566,0c-6.66,0-13.36-.42-20,.84-8.32,1.61-12.75,6.68-12.77,14.22s4.41,12.6,12.78,14.13c6.59,1.2,13.3.78,20,.78q282.48,0,565,0c24.24,0,23-.42,23,23.37,0,21,.12,42-.06,63-.09,11.51-2,13.28-13.37,13.57-8,.2-16,.06-24,.06q-275.49,0-551,0c-6.66,0-13.36-.38-20,.84-7.44,1.38-12,5.62-12.39,13.44-.4,7.56,4,13,12.12,14.73,6.57,1.41,13.28,1,19.94,1q279,0,558,0h8c22.86,0,25.8,3.54,22.48,26.32-.66,4.51-3,7-7.28,7.39-5.29.47-10.64.29-16,.29q-283,0-566,0c-8.59,0-17.4-1.07-25.43,3.21-4.74,2.71-5,7.24-5.16,12-.19,5.1,1.21,10.45-1.82,15.22A16.82,16.82,0,0,1,1246,2480C1245.36,2480.68,1244.72,2481.35,1244.07,2482Z"/><path class="cls-2" d="M1240.11,1860.14c-4.76,1.85-9.76,1.81-14.74,1.81h-84.63c-5,0-10,0-14.75-1.74-4.86-4.07-6.58-9.39-7.48-15.6-12.78-88.72-43-170.89-92.9-245.61-33.63-50.31-74.17-94.19-122.72-130.31-61.14-45.48-129.29-75.49-204.52-88.44-82.72-14.24-163.16-5-241.44,24.92-58.67,22.45-110.35,55.81-156.23,98.5-79.78,74.2-131.42,165-159.8,269.68-6,22.21-11,44.63-13.91,67.48-1.54,12.18,1.51,15.58,13.91,16.18,4.33.2,8.66.09,13,.09H548.76a88.66,88.66,0,0,1,12,.32c4.27.58,6.21,2.44,3.25,6.63a624.29,624.29,0,0,0-193.37,50.59A614.52,614.52,0,0,0,223,2007.06,621.17,621.17,0,0,0,78.62,2182.79C37.88,2256.34,14,2335.1,4.81,2418.51c-1.3,11.87-.37,24-4.71,35.49V1862.1c5.41-8,2.93-17,3.35-25.63,1.14-23.3,5.25-46.15,10.35-68.8,26-115.41,74.88-219.84,151.81-310.22,86-101,191.9-171,321.38-203.53,27.35-6.88,55.2-9.35,83.31-9.66,2.14,0,4.34.08,5.28-.36-20.14-.1-41.24,3.22-62.47,3.24q-247.92.19-495.84,0c-6.13,0-12.79,1.29-17.17-5V620.31c2-3.78.94-7.85,1-11.76q.09-297.75.08-595.48c0-3.63-.65-7.33.63-10.9C5.3.69,9,1.45,12.63,1.45q609.33-.06,1218.65,0c2.67,0,5.35-.2,8,.06,6,.59,9.71,3.29,9.59,10.09-.22,12.27,1.11,24.64-3.16,36.55-1.15,3.23-.62,6.61-.62,9.91q0,562.26.13,1124.53c0,14.49,5.08,28.69,3.89,43.45-.43,5.38-.64,10.59-4.26,14.94-4.89,5.33-11.1,6.34-18.06,6.34-166.61-.11-333.21.09-499.82-.27-20.47,0-40.86-3.31-53.63-3.1,9.12.42,26,.71,42.83,2.54,35.94,3.91,70.34,14.31,104.06,26.74a578.84,578.84,0,0,1,156,86.2c77.6,60.33,139.91,133.62,185.87,220.73,35.56,67.41,60.94,138.32,73.79,213.46A317.84,317.84,0,0,1,1240.11,1860.14Z"/><path class="cls-3" d="M1244.07.41H2486a28.58,28.58,0,0,1,2.64,3c2.31,4.28,2.34,9,2.34,13.64q0,139.43,0,278.85c0,3.65.15,7.34-1.07,10.85-8.19,4-9.86,3.33-10.71-4.89a105.73,105.73,0,0,1-.19-11q0-98.36-.05-196.73c0-10.77,1.33-21.36,2.72-32-5.14,63.41-54.58,134.65-98.75,172.67a318.89,318.89,0,0,1-103,59.73c-33.7,11.85-68.7,18.65-104.84,16.83-86,.56-159.54-30.5-221.1-89.43-40.22-38.5-67.49-85.55-82.81-139.26-3.34-11.71-3.52-23.93-4.51-30.86,2.43,13,2.45,31.28,2.45,49.55q-.1,240.36,0,480.71c0,27.63,1.62,29.22,29.59,29.23q128.43,0,256.87,0c7.38,0,14.63.37,21.71,2.66,1.74,1.47,1.63,3.38,1.27,5.33-3.43,5.9-9.26,3.9-14.16,3.92-64.5.23-129-.08-193.49.2-35.56.15-71.14-1.28-106.68,1a145.71,145.71,0,0,1-15.91.89q-91.26,0-182.53-.07c-5.21,0-10.65,1.07-15.51-2-3.13-6.81-3.18-14.09-3.18-21.42q0-159,0-317.94c0-30.67-1.84-32.5-32-32.5-29.93,0-32,2-32,31.56q0,159.48,0,318.94c0,7.31.08,14.6-3.28,21.41-17,3.51-34,2.7-51.09.47-3.94-6.62-3.63-14-3.63-21.27q0-159.94,0-319.88c0-29.13-2.11-31.21-31.26-31.22-6.33,0-12.68-.31-19,.44-9.94,1.2-14,5.33-15.29,15.33a118.84,118.84,0,0,0-.45,15q0,163.94,0,327.87c0,4.31.6,8.68-.86,12.89-3.69,3.22-8.22,2.34-12.43,2.35q-93.46.15-186.93,0c-5.26,0-10.81.62-14.88-4-1.71-3.49-.84-7.22-.84-10.82q-.08-300.13,0-600.29C1243.12,6.91,1242,3.48,1244.07.41Z"/><path class="cls-4" d="M3508,1446.17V1864.1c-3.77,4.63-8.91,5-14.39,5-29.8-.07-59.6.2-89.39-.17-92,.41-184,.06-275.95.19-29,0-31.24,2.24-31.25,31.31q0,130-.09,259.92c0,5.49,1.44,11.37-2.43,16.37-16.44,6.72-33.18,5.26-49.88,1.42a47.64,47.64,0,0,0-10.86-1.07c-162.59,0-325.18-.24-487.76.33-16.73.06-33.47,4.7-50.47,3.54-4.17-.29-8.79.75-11.93-3.33a28.68,28.68,0,0,1-.55-4.09c-3-19.08-2-38.31-2-57.49q-.07-273.27,0-546.53c0-4.64-.23-9.27.39-13.92.45-3.37,1.19-6.18,5.15-6.76a99.65,99.65,0,0,1,20.89-1.68q213.32.06,426.63-.06c7.62,0,15.33,1.88,22.95-.24,4.8-.93,9.23-2.26,14.17.92,4.33,2.78,9.65,1.4,14.66.67,10.22-1.48,20.4-1.69,30.42,1.7a34.33,34.33,0,0,0,19.71.62c11.45-3.19,22.95-3.18,34.53-3.71a16.89,16.89,0,0,0,11-4.1c5.45-5.14,5.36-11.94,5.41-18.59.18-23,0-45.93.12-68.89,0-4.59-.69-9.39,2.38-13.5,3.34-2.84,7.46-2.79,11.39-2.68,19.5.55,39-.9,58.5.71,2.93.24,5.65-1,8.53-1.31,7.34,2.9,15,2.49,22.71,2.5q150,0,300,0C3496.82,1441.2,3503.39,1440.28,3508,1446.17Z"/><path class="cls-3" d="M3092,2174.24q0-144.25.07-288.52c0-4.32.05-8.65.35-13,.34-5,3.24-7.85,8.28-8.3q3.48-.32,7-.32l296.54.11c3.62,3,4.91,7.09,4.85,11.63-.07,5,0,10,0,15q0,285.84,0,571.67c0,6.85,1.47,14.22-5,19.48h-2c-4.26-3-5-7.42-5-12.29-.07-30.31.08-60.61,0-90.92,0-6.05,2.14-12,2.07-16-.26,14.45-8.25,28.23-17.52,40.83-30.45,41.39-72.23,61.38-123.25,63.47-28.71,1.18-56.44-2-82.91-14-34.92-15.8-60.48-40.69-75.49-76.11-.64-1.51-1.8-3.1-1.69-4.57.32-4.27-1.61-8.21-1.34-13.69,4.12,37.44,1.32,73.74,2.17,110,.12,5.12-.29,10-5,13.29h-2c-5.66-4.12-6.71-9.85-7.09-16.56-.85-15.08,3.8-29.63,3.91-44.45q.66-92.91,0-185.83c-.12-15.14-4.81-30-3.87-45.45C3085.32,2183.31,3086.57,2178,3092,2174.24Z"/><path class="cls-3" d="M3508,100.4v206c-3.72,4.72-8.89,5-14.34,5-29.16,0-58.32-.13-87.46.08-7.4.5-14.66,2.69-22.17,1.91-52,2.46-100,17.77-143.68,45.95-82.5,53.28-129.07,129.29-141.25,226.52-.63,5-1.73,8.41-7.67,7.48-5.73-3-4.26-8.5-4.3-13.18-.24-30.32-.08-60.64-.12-91-.08-60.31.18-120.62-.14-180.92-.06-1.29-.08-2.59-.06-3.88,1.11-16.83-1.6-33.9,3.89-50.51,1.37-4.15.74-9.15-.85-13.76-3.8-10.94-2.78-22.34-2.34-33.61.28-7.05,5.85-9.15,11.39-10.6,3.86-1,8-.5,11.95-.5q68,0,135.92,0c5.32,0,10.68.22,15.92-1,7-1.62,11.13-5.93,11-13.36-.13-7-4.13-11-10.71-12.58-5.23-1.26-10.59-1-15.92-1q-65.46,0-130.91,0c-3.34,0-6.67,0-10,0-17.64-.31-24.39-10.39-18.35-27,1.13-3.11,3.62-3.55,5.84-4.8,4.59-2.61,9.66-2.18,14.63-2.18q68,0,135.91,0c4.66,0,9.34.13,14-.32,10.27-1,15.43-5.48,15.56-13.44s-5-12.79-15.09-13.87a130.38,130.38,0,0,0-14-.36H3111.73a100.5,100.5,0,0,1-11-.23c-10.28-1.13-13.45-4.23-13.52-14.51-.08-12.25-1.39-24.64,2.5-36.61.8-2.46,0-4.49-.5-6.75-2.94-13.45-2.9-27-1.17-40.63.55-1.11,1.11-2.23,1.62-3.36A24,24,0,0,1,3092,.41q204,0,408,.11c2.62,0,6.14-2,8,1.89-3.27,4.63-8,5.07-13.18,5q-29.88-.13-59.74,0c-2.85,0-6.68-1-8,2.38s2,5.3,4.06,7.33c20.1,20.27,40.19,40.54,60.56,60.53C3498.49,84.4,3504.59,91.37,3508,100.4Z"/><path class="cls-5" d="M3403.53,306.51l104.47-.15v935.85c-3.32,2.63-7.31,3-11.27,3-28.61,0-57.22.11-85.83-.1-3.24,0-6.75.34-9.4-2.36-7-16.36-5.3-33.08-1.67-49.76a50.44,50.44,0,0,0,1.17-10.83q0-409.16-.19-818.3c0-13.81-4.57-27.4-3.88-41.48C3397.25,316,3398.48,310.62,3403.53,306.51Z"/><path class="cls-6" d="M.1,1242.21H591.81c-18,3.45-36.17,4.72-54.18,7.5-37.67,5.81-74.51,14.7-110.25,28A605.38,605.38,0,0,0,308,1337.79a625.83,625.83,0,0,0-71.35,54.68,643.94,643.94,0,0,0-86.43,92.63c-27.65,36.06-51.92,74.19-71.91,115.09a747.82,747.82,0,0,0-57.09,159.66,681.38,681.38,0,0,0-15,90.65c-.45,4.77-.82,9.43-6.09,11.6Z"/><path class="cls-3" d="M3403.6,1240.09l86.67.12c6,0,12,0,17.73,2v204l-340,0c-1.68-1.19-3.63-2-5.18-3.36-16.17-12.17-25.83-29.49-35.34-46.57-21.47-38.53-35.07-79.69-38.93-123.88-2.07-23.75-3.82-24.79-27.26-25.22-23.59-.43-47.21,1.58-70.79-1.08-4.29-.49-8.42-1.66-12.38-1.83,8.34,1.68,17.27,2.1,25.58,5.76a141.08,141.08,0,0,1,26.51,15.82c8.12,6,15,13.22,21.81,20.49,7.11,7.56,12.62,16.28,17.9,25.19a126.53,126.53,0,0,1,12.18,28.4c18.1,60.4,10.57,116.6-29.41,166.68-21.59,27-50.23,41.87-84.68,45.38-4-.56-8.08-1.84-12,.22l-468.12-.09c-2.2-1.16-4.41-2.32-5.42-4.84-1-3.58-.6-6,3.62-7.66,6.13-2.43,12.33-2.4,18.65-2.4,143.58,0,287.16-.25,430.73.18,34.86.1,66.05-9.4,92.29-31.94,18.77-16.12,31.4-37.51,37.73-61.32,13.94-52.48,7.76-102-28-144.86-22.48-26.93-52.55-40.07-87.56-41.85-3.66-.19-7.37.13-10.94-.84-4.23-1.16-9.7-3-8.93-7.65.86-5.14,3.47-10.88,9.37-13.12,2.46-.93,5.28-.49,8-.53,41.33,0,82.64-.22,124,.09,15.34.12,30.53-3.51,45.84-1.86,75.36,8.1,150.93,1.89,226.38,3.57,14.83.33,29.36-5,44.47-3.88C3394.37,1233.62,3399.93,1234.35,3403.6,1240.09Z"/><path class="cls-1" d="M3404,2482q0-301.87,0-603.76c0-4.66.13-9.33.21-14l103.81-.15V2482Z"/><path class="cls-5" d="M760.08,2482q-.06-51.45-.1-102.9a60.22,60.22,0,0,1,.37-7c.53-4.59,3.22-7.22,7.78-7.69a86.87,86.87,0,0,1,9-.37q66.95,0,133.9,0c15.89,0,17.08,1.2,17.1,17q.06,50.46,0,100.91Z"/><path class="cls-5" d="M3094,2482V2346.28l1.43-.27c1.12,3.91,2.26,7.82,3.37,11.73,12.75,44.68,40.88,75.64,84,92.47,47,18.34,94.1,17.12,139.8-4,38.7-17.88,63.87-48.14,74.76-89.73A46.32,46.32,0,0,1,3401,2346c1,45.36.95,90.68,1,136Z"/><path class="cls-7" d="M1244.07.41q0,227.66.1,455.29,0,82.38.21,164.74c3.46,3.13,4.8,7.15,4.73,11.68s0,9.3,0,14q0,286.54,0,573.09c0,7,.41,14-1.69,20.8-.2,2.17-1,3.83-3.42,4.24l-1.76,0c-.68-.41-.93-.84-.74-1.3s.4-.71.62-.71c0-4.67.11-9.33.11-14q0-601.32,0-1202.64c0-4.66.14-9.35-.3-14-.59-6.21-2.61-8.18-8.73-8.88a87.29,87.29,0,0,0-10-.28q-603.41,0-1206.81,0c-4.66,0-9.33.16-14,.24Q1,4.59.1,2.41c.44-.61-1-2.08,1-2,2.67.09,5.33,0,8,0Z"/><path class="cls-1" d="M3508,100.4c-4.85-4.55-9.81-9-14.52-13.68q-33.58-33.45-67.07-67c-3.53-3.53-7.08-7.07-9.74-11.33-1.88-3-1.16-5.16,2.51-5.63a60.37,60.37,0,0,1,8-.37q40.43,0,80.86.05Z"/><path class="cls-8" d="M3092,2174.24l0,307.76H2176l-1-1.69a3.59,3.59,0,0,1,2.15-3c6.58-3.42,13.72-2.24,20.64-2.24q426-.08,851.94-.06c6.66,0,13.35.37,20-.58,9.39-1.34,13.4-5.44,14.74-14.83a90.6,90.6,0,0,0,.51-13q0-118.49,0-237c0-25.47-3.16-28.58-29-28.59q-275.47-.06-551,0c-5,0-10.05.47-14.95-.45-3.31-.63-8.18-1.26-4.05-6.76,7,.09,14,.25,21,.25l566,0C3079.31,2174.1,3085.64,2174.19,3092,2174.24Z"/><path class="cls-6" d="M2176,2480l0,2h-932c0-.64-.06-1.29-.08-1.93,1.4-3.76,4.73-4.53,8.08-4.85s6.6-.23,9.9-.23q448,0,895.9.12C2164.14,2475.12,2171.53,2472.54,2176,2480Z"/><path class="cls-9" d="M.1,2.41l2.27.26c-.07,6.66-.2,13.31-.2,20q0,288.5,0,577c0,6.94.8,14-2,20.7Z"/><path class="cls-10" d="M3092,.41c0,.7-.06,1.4-.1,2.1-1.45,3.71-4.85,4.36-8.1,4.69a98.47,98.47,0,0,1-9.88.22q-284.55,0-569.1-.07c-6.41,0-13.45,1.7-18.38-4.58L2486,.41Z"/><path class="cls-6" d="M564,1864.06c-6.41-2.53-13.13-1.94-19.77-1.94l-404.93,0c-4.33,0-8.67,0-13-.33s-6.57-2.89-6.37-7.3a89.15,89.15,0,0,1,.7-9c9.42-63,26.69-123.57,55.05-180.93,21.83-44.16,48-85.32,80.22-122.6a522.81,522.81,0,0,1,110.16-96.4c50.24-32.84,104.88-55,163.46-67.64a391.94,391.94,0,0,1,57.41-7.75c10.3-.66,20.52-2.11,30.9-2.06,58.93.28,116,10.53,171.06,31.59,35,13.39,67.73,31,98.8,52A504.88,504.88,0,0,1,975.52,1527a567.3,567.3,0,0,1,72.43,97.78c43,72.91,68,151.67,78,235.46-162.77,0-325.53-.25-488.29.25a550.19,550.19,0,0,0-61.75,3.15C572,1864.06,568,1863.92,564,1864.06Z"/><path class="cls-2" d="M2176,2480l-911,0c-7,0-14,.05-21,.07l0-.05a142.56,142.56,0,0,1,.13-37.88q78-.06,156-.13,221,0,441.93,0a108.36,108.36,0,0,0,14-.43c6.07-.79,8-3.94,7.91-11.69s-1.93-10.78-8.1-11.56a112.29,112.29,0,0,0-14-.41l-575.91,0c-5,0-10-.06-15-.38s-8.1-3.27-8.28-8.3c-.28-7.65-.31-15.32,0-23,.19-5.1,3.42-7.79,8.48-8,4.66-.19,9.33-.25,14-.26H1841c4.33,0,8.68.13,13-.2,7.27-.56,9.41-2.59,9.8-9.92s.21-14.65.22-22c0-15,.13-30-.09-45-.15-10.39-2.12-12.23-12.33-12.62-4.32-.17-8.66-.08-13-.08H1265.72c-4.67,0-9.35.14-14-.25-6.29-.52-8.66-2.48-9.06-8.47a167.62,167.62,0,0,1,0-22c.41-6.18,2.63-8.2,8.78-8.85a132.83,132.83,0,0,1,14-.37l574.91,0c4.66,0,9.35.17,14-.24,7.48-.66,9.72-3.73,9.61-12.25-.1-8-2.15-10.72-9.38-11.38-4.3-.4-8.65-.25-13-.25h-573.9c-4.67,0-9.35.13-14-.22-6.73-.51-8.89-2.37-10.23-8.8a70,70,0,0,1-.78-21.9c.67-6,2.81-8,9-8.65,4.63-.45,9.32-.33,14-.33l575.91,0a116.28,116.28,0,0,0,14-.39c6.52-.78,8.55-4.09,8.37-12.32-.17-7.63-2.07-10.34-8.63-11a130.25,130.25,0,0,0-14-.34l-573.91,0c-4.66,0-9.35.15-14-.26-6.57-.58-8.85-2.76-9.26-9.43a175.23,175.23,0,0,1-.05-20c.39-7.3,2.59-9.44,9.74-10,4.31-.35,8.66-.21,13-.21h572.91c4.33,0,8.67.12,13-.12,8.76-.48,11.12-3.05,11.19-11.73s-2.3-11.62-10.74-12.15c-4.31-.28-8.66-.15-13-.15q-286.46,0-572.91,0c-4.66,0-9.35.14-14-.27-6.3-.56-8.67-2.53-9-8.52a228.56,228.56,0,0,1,0-23c.18-4.59,3.1-7.35,7.69-7.71s9.32-.39,14-.39q285.94,0,571.91,0c4,0,8,0,12,0,12.24-.25,13.33-1.33,14.23-13.85,3-2.63,5.2-2.2,6.75,1.66a79.72,79.72,0,0,1,3,10.55c17.37,69.19,79,116.33,149.69,114.57,80.21-2,144.38-68.32,145.72-148.32,1.17-70.36-47.7-133.9-120-149.2-3-.64-11.65,1.86-6.78-7.14q57.8-.06,115.59-.15c6,0,11.95-.25,17.92-.39,3.49-4.69,6.88-4.4,11.2-.61,9.82,8.63,17.32,19.36,26.55,28.51,36.68,36.37,73.67,72.46,109.51,109.64,49.73,51.59,100.5,102.11,151.11,152.81,5.38,5.38,10.07,11,10.49,19.09-.83,6.08-5.61,5.53-9.87,5.92-30.9,2.84-61.39,7.63-90.8,18.09A306.12,306.12,0,0,0,2282,2258.18c-48.47,43.3-79,97.16-93.88,160.14a275.41,275.41,0,0,0-7,49.35c-.25,4.86-.87,9.26-5.14,12.29Z"/><path class="cls-3" d="M2946,1240.35c-1.52.69-3.07,1.32-4.53,2.11-2.3,1.24-5.36,2.26-4.41,5.69.85,3.07,3.92,3.47,6.54,3.61,9.32.5,18.68.9,27.8,2.85,30.79,6.57,56.12,21.91,75.12,47.34,14.39,19.26,24.39,40.39,28.54,64.21,1,5.58,3,11.11,1.78,16.76-1.29,6,5.12,10.72,3,16.19-2,5.13-2.55,10.06-2.84,15.45-1,18.18-6.27,35.35-14.21,51.66-6.58,13.52-15.55,25.57-24.34,37.7a12.38,12.38,0,0,1-2.67,2.95c-20.43,14.44-40.91,28.41-66.39,33.23-12.64,2.38-25.08,2.11-37.69,2.1q-121.42-.12-242.84,0-92,0-183.89,0c-5.91,0-12.15-.9-16.94,4-7.72,3.46-6.5-3-6.84-6.63-1.49-16-4.94-31.59-11.37-46.37-24.56-56.4-79.32-94-144.43-91.57-65.29,2.41-120.82,46.4-138.29,107.18a155,155,0,0,0-6.12,43.35q.23,147.33-.07,294.66c0,5.18,3.16,12.2-5,15l-3.86.26c-8.34-3.09-14.92-8.56-21.15-14.8q-137.71-137.92-275.61-275.69a124.36,124.36,0,0,1-9-9.37c-1.76-2.17-5-4.12-2.81-7.63,2.07-3.28,3.67-7.17,8.66-7.29,3.66-.09,7.32-.18,11-.18q134,0,267.9-.1c5.09,0,10.82,1.83,14.88-3.13,2.52-5.75-2.7-7.75-5.46-10.67-31.29-33.16-64.2-64.74-96.31-97.09-50.69-51.06-102-101.54-152.54-152.72-9.28-9.4-19.41-18-27.61-28.43-4.47-5.73-4.27-7.82,2.12-9.26,4.24-1,8.63-.55,13-.55q129.92,0,259.81,0c7.09,0,13.9.14,17.29-7.78,5.88-2.79,12.18-2.25,18.39-2.25q124.46,0,248.9,0c14,0,28,.06,42-.32l4,.07c4.66.24,9.33.18,14,.42,2.31.11,5.93-.3,6.57,1.44,3.78,10.22,12.56,7.41,19.56,7.4,30.23-.06,60.45.27,90.68-.06,2.91,0,7.43.68,8.24-1.71,2.87-8.4,9.53-7.13,15.62-7.14,28.53,0,56.74,5.82,85.44,4.12,15.56-.93,30.68-5.67,46.49-4.33,7.26.61,14.63.49,21.94.76,46.29-1.39,92.59-.45,138.88-.43C2940.34,1235.43,2945.53,1234,2946,1240.35Z"/><path class="cls-1" d="M2175.93,1861.87c0-103.65.8-207.3-.2-310.94-.8-83.23,71-159.9,164.68-154.49,78.73,4.54,140,68.11,145.72,140,.26,3.29,1.24,6.52,1.88,9.78l-.12,5.84c-2.38,6.43-1.78,13.15-1.78,19.78q0,289.2,0,578.38c0,7.33-.18,14.65-.28,22-.69,1.28-1.31,1.24-1.86-.09-3.61-3.92-7.09-7.95-10.84-11.72-38.27-38.47-77.13-76.36-114.74-115.46-50.31-52.31-102.18-103-153-154.82-6.06-6.17-11.73-12.72-17.64-19-3.23-3.45-6.89-6.29-11.68-7.27C2176,1863.15,2176,1862.51,2175.93,1861.87Z"/><path class="cls-4" d="M1244.39,1240.07c-.07-5.67-.21-11.33-.21-17q0-293.82,0-587.65c0-5,.13-10,.2-15l183.85-.15c9.32,0,18.65-.08,28-.13,2-4.5,6.08-4.68,10.12-4.71,17.63-.17,35.26-.21,52.89,0,4.46,0,7.81,1.43,10.6,4.68l48.45,0c3.18-4.09,7.65-4.95,12.46-4.91q24.32.19,48.64,0c4.78,0,9.3.74,12.47,4.89l212.17.2a5.45,5.45,0,0,1,4.44,4.73A48.13,48.13,0,0,1,1869,633c0,98.38.25,196.77-.13,295.15.38,43.23.06,86.47.17,129.71,0,9,.09,18,1.61,26.86.66,7.68,3.07,15.46-2.6,22.57-1.7,2.13-.17,5.22,0,7.9,2,38.4.73,76.85.91,115.28a15.58,15.58,0,0,1-2.06,7.55,4.27,4.27,0,0,1-2.9,2.45l-21.86-.19c-15.64,2.36-31.47,1.57-47.16,2.11-177.3,6.1-354.67,1.34-532,2.76C1256.47,1245.19,1249.09,1247.13,1244.39,1240.07Z"/><path class="cls-5" d="M2174,1550.21c-6.07,2.38-12.44,1.93-18.75,1.93q-133.83,0-267.67,0c-4,0-8,0-12,.17-2.28.1-5-.07-6.16,2.42s.84,4.35,2.38,6c2.25,2.45,4.64,4.78,7,7.13q140.89,140.88,281.76,281.77c4,4,7.68,8.3,11.5,12.46l-599.92,0c-1.66,0-3.34,0-5-.1-8.44-.59-10.51-2.58-11-10.91-.53-8.7.69-17.29,1.78-25.89,8.2-64.36,33.63-120.77,77-169.23,44.11-49.26,98.59-80.64,162.57-96.08,17.22-4.16,34.79-6.09,52.4-7.54,12.68-1,13.92-2.12,14.06-15.21.11-9.66,0-19.33,0-29l.06-265.93c6.15-1.37,10.27,2.23,13.66,6.32,13.36,16.16,29,30,43.74,44.88,65,65.65,130.78,130.58,195.84,196.21,17.11,17.26,34.94,33.82,51.09,52C2170.72,1544.3,2172.18,1547.33,2174,1550.21Z"/><path class="cls-6" d="M1242.07,1242.21l.12,2c0,6.32-.13,12.65-.13,19q0,289.11,0,578.22c0,6.3.53,12.68-2,18.73-6.93-71.74-23.27-141.28-50.25-208.13a710.35,710.35,0,0,0-88.49-158.28c-25.31-34.12-54.08-65.06-85-93.92a576.38,576.38,0,0,0-74.54-58.57c-57.75-38.33-120.06-66.12-187.45-82.47-16.85-4.09-33.89-7.31-51-9.78-16.79-2.43-33.75-3.66-50.65-6.78Z"/><path class="cls-3" d="M2174,1550.21c-4.37-4.08-8.88-8-13.11-12.25q-142.21-142.11-284.39-284.26c-4-4-8.29-7.67-12.45-11.49,0-.58-.06-1.17-.07-1.75l0-.33c4.16-5.74,10.34-4.9,16.21-4.9q128.38-.06,256.78,0c4.33,0,8.66.07,13-.07,14.88-.5,18.7-4.22,18.94-19.42.31-20.64.1-41.29.08-61.93,0-12.87-.4-25.75,2.11-37.35-.57,15.74-9,29.59-18.3,42.59-25.25,35.17-60.57,54.22-102.71,61.23-49,8.16-94.39-1.23-134.1-31.39-22.77-17.3-40.91-38.93-47.44-68.14-2.69-12-2.25-24.43-4.53-36.5q.08-78.07.14-156.14c4.69-5.9,11.32-4.81,17.59-4.81q140.43,0,280.86,0c3,0,6,.11,9,.16,6.19.09,9.27,3.08,9.31,9.3,0,3,.12,6,.12,9q0,140.4,0,280.81c0,6.28,1.08,12.93-4.92,17.56-.4,7.53-1,8.71-7,9.53a101.42,101.42,0,0,1-14,.58q-126.42,0-252.85,0a100.19,100.19,0,0,0-11,.38c-3.82.43-4.43,2.68-2,5.5,2.14,2.53,4.56,4.85,6.91,7.21q130,130,260,260c4.23,4.24,8.2,8.74,12.11,13.27A21.94,21.94,0,0,1,2174,1550.21Z"/><path class="cls-3" d="M1244.39,1240.07c6.33,0,12.66.14,19,.14l567.74,0c3.66,0,7.33,0,11,.08a36.77,36.77,0,0,1-11.78,1.88c-48.3,1.24-95.34,10.23-141.57,23.64-79.12,23-150.58,60.78-214.62,112.45Q1377.29,1456.4,1318,1566c-39.08,71.79-62.28,148.41-71.36,229.46-.44,4-.61,8-2.25,12.11-.1-3.55-.3-7.09-.31-10.64q0-92,0-183.92,0-184.41-.1-368.83C1244.09,1242.82,1244.24,1241.44,1244.39,1240.07Z"/><path class="cls-2" d="M1244.13,1992.19c7-.06,14-.16,21-.16l575.94,0c4.66,0,9.36.16,14-.3,6.88-.7,8.93-3.69,8.88-11.83s-2.14-10.9-9.12-11.68a100.63,100.63,0,0,0-11-.28q-288.46,0-576.94,0a138.61,138.61,0,0,1-14-.33c-6.13-.62-8.29-2.68-8.68-8.87a174.82,174.82,0,0,1,0-21c.38-6.66,2.69-8.85,9.25-9.45,4.3-.4,8.65-.26,13-.26l574.94,0c4.33,0,8.68.14,13-.22,6.78-.57,8.84-2.67,9.48-9.21a36.17,36.17,0,0,0,0-7c-.63-6.22-2.5-8.35-8.59-9a122,122,0,0,0-13-.33l-574.94,0c-4.66,0-9.35.14-14-.28-6.23-.57-8.61-2.61-9-8.58a190.51,190.51,0,0,1,0-21c.21-5.08,3.4-7.76,8.42-8.16,2.65-.21,5.32-.3,8-.3q366.46.16,732.92.36c3.25,4.66-.52,5.65-3.66,6.83-5,1.89-10.18,3.14-15.26,4.78-62.67,20.23-104.19,75.89-105.67,141.7-.31,13.46-.31,13.47-13.57,13.47q-299.84,0-599.66-.06c-3.92,0-8,1-11.77-.92h0A142.71,142.71,0,0,1,1244.13,1992.19Z"/><path class="cls-6" d="M1244.05,2030.1l594.67,0c4,0,8,.07,12-.06,10.88-.35,13.28-2.26,13.15-12.88-.15-11.81,2.15-23.15,4.67-34.55,6-27.06,19.43-49.94,38.08-70.24,20.77-22.61,46.44-36.35,75.66-44.32,3.84-1,7.58-2.48,11.36-3.73l48.88,0c12.53,3.35,25.29,5.89,37.24,11.23,51.6,23.08,83.75,62.14,92.78,117.91,6.92,42.69-1.44,83.17-28.4,118.14-45.69,59.29-115.76,75-175.82,53.67-53.57-19-85.82-57.52-100.17-111.83-1-3.88-2-7.74-4-11.24-2.33-8.76-3-9.51-11-10-4.32-.25-8.66-.14-13-.14q-288.2,0-576.38,0C1257.16,2032.06,1250.43,2032.74,1244.05,2030.1Z"/><path class="cls-2" d="M1548.94,2313.91h289.84c4,0,8-.12,12,.28,6.2.62,8.46,2.58,8.83,8.71a171,171,0,0,1-.06,21.95c-.42,6-2.76,7.92-9,8.66a85.05,85.05,0,0,1-10,.32q-291.35,0-582.69,0c-19,0-19.65-.74-19.68-19.68,0-20,.19-20.24,19.9-20.24Z"/><path class="cls-5" d="M843.93,2290.09q-33,0-65.94,0c-3.32,0-6.67-.06-10-.4-4.59-.47-7.19-3.23-7.68-7.79a75.85,75.85,0,0,1-.36-8q0-42.95,0-85.9a56.91,56.91,0,0,1,.18-6c.75-7.09,2.79-9.07,10.12-9.72,2.64-.24,5.32-.17,8-.17H912.12c14.53.17,15.94,1.5,16,16.14.07,28.64,0,57.27,0,85.91a59.63,59.63,0,0,1-.17,6c-.75,7.11-2.77,9.32-10.09,9.71s-14.65.21-22,.22Q869.91,2290.11,843.93,2290.09Z"/><path class="cls-6" d="M1244.13,1992.19l-.09,37.9A81.06,81.06,0,0,1,1244.13,1992.19Z"/><path class="cls-6" d="M1244.15,2442.14q-.06,18.95-.13,37.88A79.3,79.3,0,0,1,1244.15,2442.14Z"/><path class="cls-5" d="M480.16,472.33c-.11-4.32-.31-8.65-.31-13q0-170.28,0-340.56c0-18.06,0-18.25,18-22.31,131.74-29.81,258-15,378.27,47.06,4.13,2.13,8,4.74,12,7.12,1.94,3.08.95,6.5.95,9.74.07,80.91-.07,161.83.22,242.74,0,9.53-3,15.77-11,20.93-58,37.33-120.92,61.66-189.25,71.09-64,8.84-127.52,5.63-190-11.65C491.63,481.5,484.19,479.77,480.16,472.33Z"/><path class="cls-6" d="M909.61,640.33q117.48,0,235,0c18.9,0,20.05.83,19.37,19.76-.85,23.7-5,47-9.48,70.26-8.62,44.76-23.67,87.4-42.89,128.64-5.08,10.88-11.44,21.07-17.46,31.45-2.95,5.08-7.23,7.64-13.08,7.68-3.66,0-7.33.14-11,.14H675.1c-3.67,0-7.35.11-11-.22C657,897.39,655,895.3,654.3,888c-.27-3-.2-6-.2-9q0-109.47,0-218.94c0-19.17.55-19.72,19.54-19.72Q791.63,640.31,909.61,640.33Z"/><path class="cls-6" d="M424.09,883q0,109.92,0,219.82c0,3.66.12,7.34-.13,11-.59,8.35-2.93,9.79-11,6.66-5.27-2-10.48-4.3-15.61-6.7a550.61,550.61,0,0,1-128.57-83.54c-59.86-51.91-105.47-114.42-138.21-186.27-24.22-53.15-38.71-109.11-44.51-167.26-.73-7.29-1.68-14.58-1.82-21.88-.23-12,2-14.07,13.66-14.42,2.66-.08,5.33,0,8,0H402.68c21.39,0,21.4,0,21.41,21.84Z"/><path class="cls-6" d="M767.13,954.24q133.41,0,266.82.11c4.72,0,11.49-2.61,13.7,2.47,1.79,4.12-4.2,7.74-7.08,11.16a600.36,600.36,0,0,1-83.64,81.31c-39.61,31.79-83.56,56-130.21,75.17a512.62,512.62,0,0,1-143,35.65c-16.87,1.75-33.83,3.72-50.76,3.83-35,.22-69.85-2.45-104.31-9-11.44-2.2-22.88-4.46-34.22-7.16-13-3.1-14.26-4.84-14.28-18.59q-.12-62.45,0-124.89c0-12.33-.14-24.65.09-37,.21-10.65,2.35-12.78,13.15-12.94,14.32-.22,28.65-.09,43-.1Z"/><path class="cls-6" d="M54.44,799.41c30,93.44,78.23,173.66,145.93,242.27S348,1159,440.52,1190.33c-4.75,2.43-8.08,1.87-11.24,1.87q-180,.06-359.94,0c-15.84,0-17.21-1.35-17.22-17q0-181.95,0-363.89C52.14,808,51.45,804.63,54.44,799.41Z"/><path class="cls-6" d="M1191.43,807.88c3.44,4.26,2.56,7.69,2.56,10.83q.09,178.37,0,356.73c0,1.33,0,2.66,0,4-.46,10.28-2.35,12.24-12.41,12.72-2.66.12-5.33.07-8,.07q-175.89,0-351.78,0c-4.12,0-8.39.6-14.62-1.71,61.36-20.69,116.68-48.47,167.38-85.37s94-81.21,131.72-131.35S1170.76,867.92,1191.43,807.88Z"/><path class="cls-3" d="M480.16,472.33a447.54,447.54,0,0,0,109.62,21.29,465.12,465.12,0,0,0,99.67-3.82,471.82,471.82,0,0,0,187.35-71c8.4-5.43,11.38-11.7,11.35-21.31C887.91,321.24,888,245,888,168.66c0-6,0-12,0-18,2.37,5.4,1.73,11.13,1.73,16.76q0,183.29-.08,366.58c0,13.32.2,26.64,0,40-.15,10.61-1.65,12.14-12.31,12.2-24.3.13-48.61,0-72.92,0H500.81c-4,0-8,.13-12-.24-6.27-.59-8-2.48-8.75-8.7a24.84,24.84,0,0,1-.14-3Q480,523.27,480.16,472.33Z"/><path class="cls-3" d="M144,374.32a469.2,469.2,0,0,1,72-106c7.91,1.22,11.2,7.77,15.25,13.35,45.08,62.08,100.79,112.2,167.93,149.48a47.58,47.58,0,0,0,7.13,3.59c5.64,2,9.08-.05,10.15-5.87.86-4.61.55-9.3.55-13.95q0-137.32,0-274.63c0-6.23.25-12.36,2.78-18.17,3,.11,4,2.08,4.14,4.64q.28,5,.28,10,0,215.84-.11,431.67c0,17.66-.18,17.83-17.85,17.83q-152.4,0-304.81,0c-2.66,0-5.34.07-8-.13-7.76-.59-8.36-1.44-7.58-10.11,15.3,4.31,31,3.31,46.6,3.32q127.48,0,255,0c5.59,0,11.2-.24,16.62,1.32-20.79-7-40.15-17.19-59.4-27.56C283,519.86,229.94,475.7,182.41,424.64c-11.34-12.19-21.87-25.13-32.18-38.22A39.35,39.35,0,0,1,144,374.32Z"/><path class="cls-5" d="M419.84,122.11c2.06,4.7,2.25,9.68,2.25,14.7q0,148.33,0,296.68c0,13.87-2.11,15.13-14.21,8.65a544,544,0,0,1-103.09-71.62c-32.49-28.59-60.06-61.26-85.29-96.13a58.06,58.06,0,0,1-3.4-6.08c24.26-29.88,52.83-55.2,83.39-78.34a525.09,525.09,0,0,1,108.27-63.26C411.69,125,415.8,123.63,419.84,122.11Z"/><path class="cls-5" d="M144,374.32c4.64,1.65,7.52,5.34,10.42,9a701.65,701.65,0,0,0,62.36,68.79,614.21,614.21,0,0,0,99.65,78.23,610,610,0,0,0,94.16,48.23c2.31.95,5.25,1.14,6.56,4.2-3,2.3-6.4,1.46-9.57,1.46q-152.94.07-305.89,0c-6.59,0-13.91.94-15.79-8.27,1.13-30.08,7.2-59.37,14.39-88.44,8.82-35.66,22-69.74,37.86-102.81C139.89,381.16,142.06,377.79,144,374.32Z"/><path class="cls-6" d="M480.08,769.16q0-54.46,0-108.91c0-2,0-4,0-6,.34-11.82,2.17-13.81,14.31-13.86q45.46-.2,90.93,0c12.48.05,14.18,1.89,14.59,14.63.2,6,.11,12,.11,18q0,98.91,0,197.83a128.46,128.46,0,0,1-.66,15.95c-1.08,8.47-3.82,11-12.31,11.32-10,.34-20,.16-30,.17q-29.48,0-59,0a97.73,97.73,0,0,1-10-.42c-4.58-.48-7.24-3.24-7.66-7.81-.33-3.64-.4-7.31-.4-11Q480.06,824.1,480.08,769.16Z"/><path class="cls-5" d="M1102.37,370.1c15.31,26.25,26.39,54.36,36,83.06a523.5,523.5,0,0,1,23.12,103.93c.51,4.27.49,8.61.71,12.92,1.24,1.79.56,3.88.91,5.8,1.51,8.19-2.27,9.7-9.83,9.67q-99.4-.42-198.81,0c-7.14,0-9.92-1.18-9.6-9.12.69-17,.5-34,.09-50.93-.2-8.28,3-14.23,9.45-18.81A653,653,0,0,0,1029.5,444c22.07-21.26,41.7-44.81,60.85-68.73C1093.35,371.52,1096,366.29,1102.37,370.1Z"/><path class="cls-5" d="M126.09,52.4c4.66-.12,9.32-.34,14-.34q144.35,0,288.7,0c4.12,0,8.42-.78,12.61,1.11-1.77,3.19-4.7,3.21-7.08,4Q296.5,104.07,195.15,208.5c-2.79,2.86-5.75,5.54-8.63,8.31-6.91,2.5-9.17-2.46-11.55-7.2A598.69,598.69,0,0,1,130.55,94.2c-2.66-10-5.35-20-7.24-30.1C122.52,59.9,121.51,55.42,126.09,52.4Z"/><path class="cls-3" d="M126.09,52.4c8.19,39.41,19.4,77.92,35.26,115,5.49,12.8,11.48,25.38,17.3,38a33.19,33.19,0,0,0,7.87,11.38c-5.16,7.79-12.15,14-18,21.19-19,23.07-36.89,46.89-52.36,72.49-1.71,2.82-3.82,5.39-5.74,8.08-5.11,3.47-7.14-.8-9.36-3.92C94.82,306,90,296.4,85,287c-10-18.57-19.9-37.21-25.74-53.27C57.1,299.85,62.8,370.12,56,440.24c-.42,1.89-.28,4-2.6,5.3C51.13,443,52,439.94,52,437.16Q52,252,52.1,66.9a47.68,47.68,0,0,1,.22-6c.76-6.11,2.6-8.07,8.91-8.54,5.3-.39,10.64-.26,16-.24Q101.64,52.23,126.09,52.4Z"/><path class="cls-3" d="M1138,318.52c-13-19.62-25.55-39.5-39.88-58.21-12.1-15.8-25.48-30.52-38.2-45.79-1.22-5,0-9.59,2.32-14.08A558.42,558.42,0,0,0,1110,66.73c1.25-5.68,3.47-10.64,8.08-14.35,20.63-.08,41.27-.26,61.91-.19,12.12,0,13.69,1.63,13.72,14.07q.18,74.4.15,148.79,0,104.34,0,208.7c0,3.32-.06,6.66-.28,10-.09,1.37-.82,2.78-2.44,1.28-.63-.59-.68-1.81-1-2.74-6.69-68.87-1.21-137.86-3.12-202.3-3.43,11.07-10.78,25.43-17.9,39.85-6.91,14-14.82,27.5-22.74,41C1144.42,314.11,1142.77,318.09,1138,318.52Z"/><path class="cls-5" d="M1118.08,52.38c-4,27.37-12.1,53.69-21,79.76a497.7,497.7,0,0,1-31.44,73.06c-1.71,3.21-3.79,6.22-5.7,9.32-14.92-13.77-28.79-28.63-44.2-41.92-59-50.83-125-89.37-198.76-114.44-3.35-1.14-7.17-1.44-9.84-4.28,1.21-2.45,3.44-1.75,5.22-1.75q151.38,0,302.75,0C1116.08,52.18,1117.08,52.31,1118.08,52.38Z"/><path class="cls-3" d="M1102.37,370.1c-5.59,4.37-9.58,10.19-13.81,15.72a570.5,570.5,0,0,1-47.43,54A613.44,613.44,0,0,1,961.61,508c-3,2.13-5.92,4.31-8.88,6.47a15.15,15.15,0,0,0-6.47,12.86c0,15.32-.26,30.64,0,46,.17,8.3,2.6,10.32,11,10.9,3,.21,6,.13,9,.13h175.86c1.67,0,3.34,0,5,0,12.83-.24,13.94-1.3,15-14.26a29.66,29.66,0,0,1,1.07,3.84c1.29,9.7-.55,12.15-10.38,12.27-19.33.23-38.66.11-58,.12H964c-1.67,0-3.33,0-5,0-13.76-.17-14.74-1-14.74-14.89q-.06-185.91,0-371.81a51.58,51.58,0,0,1,.5-8c.32-2,1.77-2.67,3.71-1.61a53.58,53.58,0,0,1,2.73,18.33c-.12,40.53-.07,81.06-.07,121.6,0,2.32-.15,4.66,0,7,.3,3.5-1.42,8.23,2.44,10,4.05,1.85,6.3-2.68,8.77-5.08,20.59-20,38.31-42.33,55-65.58,3.29-4.58,5.8-10.58,13.08-10.28,18.91,19.65,34.63,41.75,49.41,64.54C1088.08,343.22,1096.36,356,1102.37,370.1Z"/><path class="cls-5" d="M1030.4,265.92A456.43,456.43,0,0,1,970,341.41q-8.46,8.5-17,16.9c-1.18,1.15-2.5,2.6-4.29,2.1-2.4-.66-2.32-3-2.45-4.94-.18-2.65-.16-5.32-.17-8V207.65c0-6-.22-12,2.31-17.69A438,438,0,0,1,1030.4,265.92Z"/><path class="cls-5" d="M56,440.24c-1.84-4.77-1.9-9.76-1.9-14.77q0-99.36,0-198.73c0-3.16-.84-6.6,1.82-9.92,3.51,2.7,4.49,6.63,5.94,10.16,11.39,27.78,25.33,54.28,40.52,80.13,2.35,4,5.29,7.64,8,11.45-6.89,13.25-13.86,26.46-20.66,39.75C76.23,384.69,65.88,412.37,56,440.24Z"/><path class="cls-5" d="M1138,318.52c3.38-12.8,11.33-23.35,17.65-34.61,11.13-19.83,20.11-40.59,29.16-61.36,1.42-3.26,2.24-6.88,5-9.64,3.06,2.25,2.19,5.14,2.2,7.6q.09,99.48,0,199a35.61,35.61,0,0,1-1.87,12.79c-10.88-29.21-22.37-58.16-37.05-85.73C1148.1,337.17,1143,327.86,1138,318.52Z"/><path class="cls-1" d="M2176.1,1240.07q-.06-145.35-.12-290.68c0-4.33,0-8.66-.39-13-.38-4.6-3.13-7.33-7.72-7.7-4.31-.35-8.64-.4-13-.4q-136.37,0-272.73,0c-6,0-12-.14-18-.21q0-145.89-.09-291.78c0-5.33-.06-10.66-.1-16,6-2.5,12.42-2,18.71-2q136.18,0,272.37,0c7,0,14-.06,21-.09,1.61-4.21,5.24-4.6,9-4.78,4-.18,8-.13,12-.13h246.75c4.33,0,8.65,0,13,0,19.87-.35,24.17-4.39,24.21-24.2.18-86.56.05-173.13.1-259.69,0-5.66-.32-11.32.47-16.93,3.58-6.53,7.35-5.85,12.31-1,60.09,58.53,118.76,118.51,179,176.86C2710.4,524.66,2747,562,2784.38,598.48c6.4,6.24,12.32,12.87,16.16,21.12,4.61,13.76,2.7,27.64.35,41.36-.78,4.56-1.91,9-1.9,13.69.05,65-.34,129.93.3,194.88.15,15.11,4.7,30.08,3.76,45.47-.33,5.45-1,10.48-4.81,14.65-4.56,4.55-10.21,5.36-16.43,5.67-15,.74-29.64-3.62-44.38-3.77q-94.8-1-189.6,0c-14.43.14-28.76,4.27-43.38,4.34-3,0-5.66,1.79-7.92,3.86-6.38,6.44-5.43,14.72-5.44,22.6q-.16,107.19-.06,214.38c0,16.62.18,33.24-.13,49.86-.09,4.26,1.44,9.76-5,11.54-5.08,1.9-10.39,2.05-15.72,2.05Z"/><path class="cls-2" d="M2796,616.31c-3.67-3.38-7.46-6.64-11-10.16-32.12-31.93-63.66-64.48-96.42-95.75-50.83-48.54-99.59-99.15-150-148-13.87-13.43-28-26.61-41.6-40.31-3.74-3.77-7.07-8-10.59-11.94-1.94-1.07-2.29-2.31-.41-3.8.09-14.31.25-28.62.26-42.93q0-122.31,0-244.63c0-5.32.17-10.65.27-16,4-.12,8-.34,12-.34q292.74,0,585.49,0c2.66,0,5.33,0,8,.08l.05-.08c2.21,5.11.94,10.48,1,15.7.16,25.25-1,50.56.49,75.73.79,13.68,6.87,27.36,1.84,41a43.19,43.19,0,0,0-1.35,26.81c2.41,8.29,4.29,16.48,2.81,24.4-7.32,39-2,78.38-3.74,117.53a8.29,8.29,0,0,1-.9,2.8l-.26-.06c-1.91,5.29-5.77,6.8-11.26,7.29-60.7,5.42-115.36,27-162.57,65.21-63.77,51.62-101.84,118.46-112.83,200.21a280.65,280.65,0,0,0-2.41,29.82C2802.66,612.48,2803.48,618.59,2796,616.31Z"/><path class="cls-5" d="M2174,616.3q-144.9,0-289.79,0c-19.82,0-20.19-.37-20.19-20.07q0-277.26,0-554.52V30.82c12.5,77.4,44.82,144,104,196.61,59.33,52.74,128.79,78.71,208,78.95,2.83,3.65,2.94,8,3,12.28.07,8.33.16,16.66,0,25-1.45,77.29,2.91,154.53,2.12,231.83-.11,11-1.91,21.89-2.3,32.87C2178.72,611.83,2177.8,615,2174,616.3Z"/><path class="cls-11" d="M2174,616.3c2.49-42.84,3.61-85.8,1.58-128.6-2.58-54.21-.61-108.39-1.56-162.57-.11-6.32-.13-12.65,2-18.75q113.37-.22,200.17-73.14c57.95-48.63,92.06-111.07,106.37-185.09,1.88,3.88,1.42,7.77,1.43,11.56q0,113.91,0,227.83c0,6.31-.45,12.68,1.9,18.77.14,1.26.27,2.53.41,3.79-.09,15-.24,29.95-.25,44.93q0,122.31,0,244.63c0,18-.71,18.67-18.46,18.67q-145.8,0-291.6-.1Z"/><path class="cls-1" d="M1529.81,620.1l-73.61.06c-1.94-5.09-2-10.42-2-15.76V262.73c0-2,0-4,.16-6,.72-7.71,2.72-10.06,10.66-10.19q27-.44,54,0c8.35.13,10.38,2.56,11,10.91.17,2.32.13,4.66.13,7q0,172.33,0,344.67C1530,612.77,1529.89,616.43,1529.81,620.1Z"/><path class="cls-1" d="M1651.83,620.12l-73.57,0c-.09-4.33-.26-8.65-.26-13q0-170.32,0-340.64c0-19.84.33-20.16,20.06-20.18,13.65,0,27.31-.13,41,.09,10.71.18,12.63,2.31,13,13.07.09,2.33,0,4.66,0,7q0,170.31,0,340.63C1652.07,611.46,1651.91,615.79,1651.83,620.12Z"/><path class="cls-1" d="M1530,54.2c0,13,.16,26,0,39-.17,10.84-2.25,13-12.93,13.13q-24.49.32-49,0c-9.65-.15-12.3-2.8-13.43-12.37a87.22,87.22,0,0,1-.44-10q-.06-30.49,0-61a67.81,67.81,0,0,1,.66-10.95c1.07-6.4,3.46-9.16,9.82-9.28q28-.56,56,0c6.79.13,9,2.91,9.19,10.52.31,13.65.09,27.32.09,41Z"/><path class="cls-1" d="M1652,54.37c0,13,.16,25.95,0,38.91-.17,10.75-2.28,12.91-13,13q-23.94.32-47.89,0c-10.71-.14-13-2.32-13-13q-.27-38.89,0-77.82c.07-10.71,2.32-12.91,13-13.06q24-.31,47.9,0c10.7.14,12.84,2.32,13,13C1652.2,28.43,1652,41.4,1652,54.37Z"/><path class="cls-6" d="M2483.94,2172.1l1.86.09c.1.55.17,1.09.22,1.64,6.32,2.9,13.07,2.21,19.7,2.21q234.47,0,468.93,0h93c2,0,4,0,6,0,14.91.17,16.25,1.55,16.39,16.89,0,1,0,2,0,3q0,132,0,263.93c0,4-.06,8-.42,12-.42,4.58-3.17,7.34-7.75,7.71s-9.32.42-14,.42q-286.46,0-572.91,0-159.48,0-318.95,0c-.21-67,21.32-127.15,60.85-180.32,43.06-57.94,100.28-96.26,170.39-115,21.36-5.73,43.14-8,65-10.4C2476.18,2173.77,2480.17,2173.62,2483.94,2172.1Z"/><path class="cls-11" d="M3474,1544.13q0,36.48,0,72.94a85.05,85.05,0,0,1-.32,10c-.76,6.11-2.72,8-8.9,8.77a85.05,85.05,0,0,1-10,.31H3190c-1,0-2-.1-3,0-10.66,1.14-17-3.49-21.84-13.22-18.46-36.77-29.41-75.62-34.53-116.26a71.47,71.47,0,0,1-.31-14c.53-7.15,2.87-9.43,9.81-10.24a79,79,0,0,1,9-.29q29.47,0,59,0c11.91,3.91,21.77,11.44,32.25,18,41.14,25.61,86,39.93,134.18,45.2,29.21,3.19,57.8.63,86.43-4.24C3465.72,1540.3,3470.63,1538.81,3474,1544.13Z"/><path class="cls-1" d="M2811.94,1715.19V1604.26c0-3.33-.07-6.67.08-10,.46-10,2.95-12.73,12.9-11.78,34.85,3.32,68.07,12.47,99.21,28.73,4.91,2.56,7.55,6.35,7.62,11.91,0,3,.15,6,.15,9q0,98.45,0,196.88c0,18.7-.53,19.22-18.92,19.24q-41,0-82,0a85.05,85.05,0,0,1-10-.3c-6.14-.71-8.11-2.69-8.81-8.83a87.35,87.35,0,0,1-.29-10Q2811.92,1772.15,2811.94,1715.19Z"/><path class="cls-11" d="M3336,1674.14q60.42,0,120.86,0c15.75,0,17.13,1.39,17.15,17.08q.08,58.92,0,117.85c0,15.64-2.4,18.13-18.21,16.74a342,342,0,0,1-65.58-12.79c-51.63-15-97.54-40.27-138.25-75.47-17.25-14.92-32.18-31.73-46.36-49.39a44,44,0,0,1-4.47-6.6c-1.86-3.41-.68-6,3.07-6.69a63.1,63.1,0,0,1,10.92-.72Q3275.54,1674.09,3336,1674.14Z"/><path class="cls-1" d="M2782.12,1715.7q0,57.46,0,114.92c0,17.11-1.78,18.41-18.67,14.26-50.67-12.43-91.63-57.46-99.33-108.87-6.34-42.26,5.22-79.4,33-111.16,18.92-21.64,43.36-35.07,71.57-41.21,10.32-2.24,13.13.13,13.38,11.15.23,10.32.09,20.65.09,31Q2782.14,1670.73,2782.12,1715.7Z"/><path class="cls-1" d="M2654.93,1998c-30.63,0-61.26-.33-91.88.18-10.46.17-16.35-3.69-20.83-13.12-13.42-28.28-21.51-58-25.65-88.85a43.3,43.3,0,0,1-.3-9c.48-6.08,2.53-8.1,8.67-8.91a54.1,54.1,0,0,1,7-.27c32.62,0,65.25.2,97.87-.14,9.36-.1,16.38,2.94,22.95,9.6,33,33.4,66.31,66.45,99.43,99.71,2.43,2.45,7.22,4.64,5.64,8.51s-6.53,2.17-10,2.18C2716.85,1998,2685.89,1998,2654.93,1998Z"/><path class="cls-1" d="M2666.55,1614.68q-79,128.4,31.26,231.27c-.71,2.7-3.42,1.92-5.55,2.18a41.44,41.44,0,0,1-5,.1q-77.42,0-154.83,0c-15.24,0-17.75-2.69-15.71-17.64q19.2-140.86,141.7-213.17C2660.86,1616,2663.18,1613.68,2666.55,1614.68Z"/><path class="cls-1" d="M2960,1986.29q0-44.44,0-88.9c0-2.67-.07-5.34.1-8,.57-8.8,2.65-11.11,11.73-11.24,18.31-.26,36.63-.13,54.94-.14,13.32,0,26.65-.1,40,.06,11,.14,12.31,1.46,11.5,12.21-3,39.15-15,75.58-33.72,109.91-12.37,22.66-28,43-45.83,61.5a240,240,0,0,1-30.88,26.83c-5,3.68-7.15,2.66-7.63-3.35-.35-4.31-.18-8.65-.18-13Q2960,2029.24,2960,1986.29Z"/><path class="cls-1" d="M2675.4,2026.12h87c3.34,0,6.69-.1,10,.22,6.73.64,8.79,2.67,9.55,9.2a60.08,60.08,0,0,1,.22,7q0,44,0,87.95c0,13.84-.88,14.7-15.12,13.49-20.69-1.75-40.81-6.48-60.43-13.12-52.53-17.78-95.81-48.84-130.56-91.91-2.39-3-6.79-6-4.57-10.18,2.14-4.08,7.19-2.55,11-2.56C2613.43,2026.08,2644.42,2026.13,2675.4,2026.12Z"/><path class="cls-1" d="M2960,1740.15c0-30.64-.05-61.28.07-91.92,0-3.79-1.56-8.86,2.84-10.82,3.78-1.68,6.61,2.35,9.35,4.55,59.82,47.83,94.22,110.11,105.15,185.63a79.59,79.59,0,0,1,.76,12c-.06,6.65-1.43,8-8.25,8.6-1.65.16-3.33.12-5,.12q-44.48,0-88.94,0a68.38,68.38,0,0,1-8-.38c-4.6-.53-7.22-3.27-7.65-7.83-.31-3.3-.36-6.65-.37-10Q2960,1785.1,2960,1740.15Z"/><path class="cls-5" d="M2968,1550.15c7.29-2.33,14.62-4.53,21.87-7,41.67-14.11,69-43.11,84.42-83.44,17.79-46.47,16.2-93-5.12-137.82-18.93-39.86-50.38-65.5-93.83-75.59-3.56-.83-7.15-1.55-10.71-2.36-.23-.06-.38-.48-.65-.85,2.83-1.43,5.84-.85,8.73-.86q51-.08,101.9,0c1.67,0,3.34,0,5,.07,9.7.5,11.44,2.17,12.39,11.78,2.08,20.87,4.25,41.7,9.43,62.14,11.3,44.59,30.9,84.94,60.19,120.51,1.48,1.8,2.91,3.64,4.36,5.47-3,3.49-7,3-11,3-17.78,0-35.57-.05-53.35,0-3.22,0-6.59-.94-9.65,1v89.34c0,5.63.16,11.28-2,16.65-2.74,1.79-5.81.95-8.71.95q-50.68.11-101.37,0C2975.77,1553.11,2971.2,1554.23,2968,1550.15Z"/><path class="cls-11" d="M3130,1640.06c3.71.61,4.54,3.42,5.72,5.68,17.1,32.62,38.44,62.29,63,89.62,19,21.11,40.69,39.25,63.79,55.69a402.25,402.25,0,0,0,45.86,28.28,20.76,20.76,0,0,1,5,3.25c2,1.9,1.24,3.85-1.2,4.5a30.64,30.64,0,0,1-7.88,1q-80.88.08-161.78,0c-11.79,0-14.34-2.49-14.37-14q-.21-82.87,0-165.76C3128.07,1645.62,3127.72,1642.86,3130,1640.06Z"/><path class="cls-1" d="M2871.86,1878.06c15.64,0,31.29-.15,46.93,0,10.88.14,13,2.13,13,12.91q.24,46.92,0,93.85c-.05,10.91-2.08,13-12.87,13q-46.93.24-93.86,0c-10.89-.05-13.05-2.16-13.11-12.85q-.24-46.92,0-93.85c.05-10.82,2.21-12.92,12.93-13.06C2840.57,1877.91,2856.22,1878.06,2871.86,1878.06Z"/><path class="cls-3" d="M3474,1544.13c-24.83,4.94-49.8,8.83-75.2,8-39.84-1.36-78.58-8.11-115.53-23.84-24-10.2-46.68-22.5-67.23-38.6-2.86-2.23-5.33-5-8-7.47q122.85,0,245.71,0c19.85,0,20.2.37,20.22,20Q3474,1523.16,3474,1544.13Z"/><path class="cls-1" d="M2871.84,2026.15c15.65,0,31.3-.14,46.94,0,10.92.13,13,2.1,13.06,12.88.18,20.64-.07,41.28.1,61.92.06,7.45-2.64,12.52-9.59,15.85a288.94,288.94,0,0,1-92.58,27c-1.33.16-2.66.21-4,.29-12.82.71-13.77-.06-13.8-12.91-.08-30,0-59.92,0-89.88,0-1.67,0-3.34.14-5,.69-7.29,2.62-9.47,9.81-10,5.63-.4,11.31-.22,17-.23q16.48,0,33,0Z"/><path class="cls-1" d="M2516.3,1726.15c-3.15-3-2.11-6.56-2.12-9.7q-.13-60.42,0-120.84c0-2.33.09-4.66.29-7,.44-5.12,3.37-7.77,8.42-8.11,2.65-.18,5.32-.27,8-.27q58.93,0,117.86,0c3.59,0,7.34-.71,10.91,1.3.21,3.6-2.94,4.09-5,5.18-30.79,15.84-57.85,36.5-81.92,61.41a313.3,313.3,0,0,0-50.32,69.23C2520.66,1720.46,2519.84,1724.24,2516.3,1726.15Z"/><path class="cls-1" d="M2933.33,1582.51c4.7-3,8.12-2.22,11.35-2.23q59.49-.09,119,0c2,0,4,0,6,.14,7.75.68,9.67,2.64,10.25,10.61.19,2.65.13,5.33.13,8q0,57.48,0,115c0,3.84.72,7.86-2.11,13.27-9.8-15.64-17.26-31.19-27.57-44.94a355.75,355.75,0,0,0-33.29-38.52,315.49,315.49,0,0,0-39.36-33.84C2963.87,1600.06,2949.15,1591.65,2933.33,1582.51Z"/><path class="cls-1" d="M2660.65,2143.64c-4.08,3.1-7.49,2.33-10.64,2.34q-60,.08-119.93,0a56,56,0,0,1-7-.26c-6.15-.79-8-2.66-8.73-8.89a58.18,58.18,0,0,1-.24-7q0-60,0-119.91c0-2.94-.58-6,1.38-9.35,3.65,1.67,4.69,5.39,6.31,8.33a336,336,0,0,0,33.18,49.84,309.92,309.92,0,0,0,89.49,75.6C2649.65,2137.25,2654.73,2140.24,2660.65,2143.64Z"/><path class="cls-1" d="M2933.14,2143.64c32-16.3,60.15-36.18,84.68-60.72,24.25-24.25,43.51-52.35,59.49-83.45,3.63,4.25,2.65,7.71,2.66,10.87q.12,59.88,0,119.75a54.1,54.1,0,0,1-.27,7c-.79,6.08-2.69,7.94-8.92,8.68a68.25,68.25,0,0,1-8,.25q-58.89,0-117.77,0C2941.62,2146,2937.89,2146.81,2933.14,2143.64Z"/><path class="cls-1" d="M2733.26,1878.05c11.66,0,23.32-.13,35,0s13.78,2.08,13.86,13.23c.18,24.32.06,48.64.06,73a6.68,6.68,0,0,1,0,1c-.4,2.5.71,5.92-2.6,6.87-2.49.72-4.09-1.87-5.69-3.47q-41.42-41.3-82.74-82.65a17.76,17.76,0,0,1-2.57-3c-1.38-2.19-.74-4,1.77-4.42a47,47,0,0,1,8-.5c11.66,0,23.33,0,35,0Z"/><path class="cls-11" d="M2968,1550.15c6.78,1.8,13.72,2,20.69,2q50.65,0,101.31,0c-4.73,1.88-9.7,2-14.69,2-31.85,0-63.69.13-95.54-.1-7.93,0-15.85-1.23-23.77-1.89A31.27,31.27,0,0,1,2968,1550.15Z"/><path class="cls-11" d="M3092,1446.17c4.72-1.88,9.67-2,14.65-2,13.55,0,27.1,0,40.65,0a73.36,73.36,0,0,0,18.68-2l2.05,4Z"/><path class="cls-2" d="M3093.88,589.75c.83-22.8,6.1-44.8,12.94-66.37,36.84-116.12,138.73-200,260-214.4,4.94-.58,9.95-.5,14.93-.73a6.1,6.1,0,0,1,1.84-.78c19.37-1.42,19.37-1.42,19.37,17.9q0,450.9,0,901.79c0,13.75,1.81,12-12.36,12q-144.48.08-289,0c-13.83,0-14.57-.6-14.59-14.55q-.15-130-.06-259.94c0-29-2.46-31.43-31.25-31.44q-120,0-240-.07c-6.2,0-12.82,1.2-18-3.83-1.33-3.89-.7-7.93-.7-11.9q-.06-143.93,0-287.87c0-14.72,1.34-16.23,16.27-16.24q118.47-.15,236.93-.05c5,0,10,.07,15-.09,15.51-.48,18.62-2.64,24-17.3A11.92,11.92,0,0,1,3093.88,589.75Z"/><path class="cls-6" d="M2798.2,928.09l270,.19c4,0,8-.1,12,.11,9.12.49,11.18,2.47,11.71,11.33.24,4,.13,8,.13,12q0,133,0,265.94c0,20.31.25,20.56,20.71,20.56h269c19.91,0,20.25-.33,20.25-20q0-444.9,0-889.8c0-3.33.1-6.68-.21-10-.66-7.24-2.65-9.19-10-9.86-3.32-.3-6.66-.23-10-.32,7.09-2.51,14.45-1.7,21.73-1.74.12,5.66.35,11.32.35,17q0,450.32,0,900.61c0,5.33-.19,10.66-.29,16-6.33.06-12.66.18-19,.18l-421.62-.15c-5.66,0-11.32.15-17,.23l-128.82-.25c-6.33,0-12.65-.09-19-.15-4.84-1.33-7-4.69-6.93-9.51.07-13.27-1.52-26.67,3-39.59,1.14-3.25.68-6.6.69-9.9,0-64.29.28-128.59-.18-192.88-.1-14.48-5-28.71-3.78-43.44.41-5-.22-10.12,4.33-13.73C2796.27,929.92,2797.22,929,2798.2,928.09Z"/><path class="cls-6" d="M3093.88,589.75a71.13,71.13,0,0,1-1.38,18.87c-1.65,7.18-3.53,8.91-10.74,9.47-4,.32-8,.2-12,.2q-125.34,0-250.69,0a108.41,108.41,0,0,0-12,.33c-6.12.68-8,2.7-8.79,8.87a45.87,45.87,0,0,0-.26,6q0,147.3.13,294.6l-.53.5c-.7.47-1.22.34-1.52-.48q-.06-155.9-.13-311.8c1.63-4.11,1.79-8.42,2-12.76,2.44-51.17,15.81-99.13,42.21-143.25,21.65-36.18,49.18-67.23,83.07-92.23,46.89-34.6,99.36-55.17,157.76-59.75a42.42,42.42,0,0,0,10.77-2q.11,77.91.2,155.81,0,55.42,0,110.86C3092.05,578.63,3091.77,584.33,3093.88,589.75Z"/><path class="cls-1" d="M3092.09,306.37q-.09-82.21-.19-164.43,0-69.75.06-139.51c2.07,5.07,1.95,10.43,2,15.76q0,31.48,0,63c0,3-.08,6,.19,9,.66,7.29,2.68,9.42,9.79,10.08,3.64.33,7.33.21,11,.22q73.47,0,146.94,0c17.18,0,18.07,1,18.11,18.06,0,2,0,4,0,6-.32,11.84-2.1,13.78-14.31,13.81q-75.47.15-150.93.08a95.62,95.62,0,0,0-12,.36c-6.67.84-8.81,4.09-8.65,12.12.16,7.49,2.16,10.28,8.65,11.11a85.49,85.49,0,0,0,11,.35q73.47,0,146.93,0c18.68,0,19.34.68,19.35,18.86,0,18.41-.61,19.06-19.12,19.07q-74.47,0-148.94,0c-16.93,0-17.94,1.06-18,18.28q-.06,36,0,72C3093.92,295.91,3094,301.26,3092.09,306.37Z"/><path class="cls-1" d="M3377.45,200.1c-6,0-12,.34-17.94-.08-6.61-.48-8.86-2.73-9.28-9.38a139.05,139.05,0,0,1,.05-18.93c.44-6.23,2.57-8.71,8.58-8.93q17.94-.66,35.9-.05c6.17.21,8.36,2.55,8.81,8.68a130,130,0,0,1,0,18.93c-.51,6.94-3,9-10.2,9.77a16.59,16.59,0,0,1-2,.11h-14Z"/><path class="cls-1" d="M3377.4,138.24c-5.65,0-11.32.28-17-.06-7.72-.48-9.86-2.67-10.31-10.53a140.8,140.8,0,0,1,0-16.94c.47-7.3,2.59-9.74,9.74-10,11.29-.39,22.62-.39,33.9.06,7,.28,9.34,2.88,9.84,10a130.84,130.84,0,0,1,0,17.93c-.46,6.65-2.69,8.86-9.31,9.34-5.62.41-11.3.09-16.95.09Z"/><path class="cls-4" d="M2485.94,1238.1l.09-307.84c3.11-1.84,6.52-1,9.78-1,97,0,193.9.06,290.85-.23,8.08,0,10.59,1.74,10.56,10.24q-.46,145.9-.06,291.81c0,7.72-1.1,10.52-10.16,10.4-49.63-.65-99.42-2.65-148.87.44-38.45,2.4-76.73,1.6-115.08,1.75-12.32,0-24.63-2.8-37-3.54Z"/><path class="cls-3" d="M2486,1240.17q146.4,0,292.81,0c15.78,0,17.14-1.35,17.14-17.07q.06-137.89,0-275.78c0-15.73-1.35-17.07-17.14-17.07q-146.4-.06-292.81,0c6-2.59,12.42-2,18.71-2q136.73,0,273.44,0c6,0,12-.08,18-.13l1.52.48c.1,6,.28,12,.28,18q0,137.71,0,275.44c0,6,.15,12,.23,18-3,2.7-6.55,2.65-10.29,2.63q-70.79-.25-141.57-.34c-4.33,0-8.82-.22-12.68,2-6.38,3.59-13.2,4-20.25,4q-42.37-.11-84.75,0c-7.06,0-13.92-.34-20.25-4-2.92-1.71-6.35-1.85-9.69-1.94C2494.41,1242.14,2490.11,1241.84,2486,1240.17Z"/><path class="cls-3" d="M1544.45,672.3h225.91c3.67,0,7.34-.11,11,.17,8.18.63,10.72,3.24,10.29,11.39-.45,8.64-1.32,17.27-2.28,25.87-7.41,66.78-28,129.36-60.23,188.19a29.32,29.32,0,0,0-1.45,2.62c-4.42,10.65-12.31,14-23.76,13.92q-194.93-.47-389.85-.19c-1,0-2,0-3,0-13.1-.26-14.94-1.94-15-15.26q-.09-105.94,0-211.89c0-1.33,0-2.67.12-4,.69-7.9,2.62-10,10.33-10.61,4-.31,8-.19,12-.19Z"/><path class="cls-3" d="M1488.23,968.25q87.46,0,174.93.06c4.5,0,10.63-2,13.06,2.38,2.77,5-3.39,8.06-6.16,11.3a509.19,509.19,0,0,1-119,102.64q-99.1,61.55-214.85,76.55c-7.93,1-15.87,2-23.83,2.67-13.28,1.12-16.17-1.42-16.2-14.63-.1-41-.05-82-.06-122.94,0-14.32-.08-28.65,0-43,.12-13.15,1.9-15,15.18-15Q1399.76,968.17,1488.23,968.25Z"/><path class="cls-3" d="M1449.81,1190.46c178-63.46,301.88-181,367.92-358.21,3.13,3.46,2.25,6.92,2.25,10.07q.09,166.88,0,333.77a59.74,59.74,0,0,1-.18,6c-.75,7.21-2.74,9.25-9.95,9.94-3,.28-6,.2-9,.2q-168.9,0-337.81,0C1459.16,1192.19,1455.11,1193,1449.81,1190.46Z"/><path class="cls-5" d="M1864.05,1084.23c1,4.19,2.33,8.34,3.1,12.59,10.89,60,47.21,97.24,104.64,114,47.74,13.88,93.82,8,136.74-17.57,31.59-18.83,51.34-46.8,60.8-82.18,1-3.53,1.81-7.08,2.73-10.7,3.18,1.71,1.89,4.5,1.89,6.71q.14,59,.05,118a62.52,62.52,0,0,1-.37,7c-.51,4.57-3.11,7.3-7.69,7.81a84.08,84.08,0,0,1-9,.4q-146.48,0-292.94,0Z"/><path class="cls-2" d="M2020,1942.07c39.15-2.25,77.64,29.82,77.39,77.85-.23,44.12-37.18,76.17-76.5,76.44-43,.29-78.86-35.49-79-76C1941.65,1979,1976.1,1939.11,2020,1942.07Z"/><path class="cls-5" d="M827.93,582.13c4-3.48,8.4-4.3,12.3-5.93,12.89-5.37,25.29-11.77,37.89-17.76,6.93-3.29,9-1.91,9.76,5.49.1,1,.08,2,.11,3,.44,15.24-1.47,17.26-16.74,17.36-11,.07-21.92.09-32.88,0C835.16,584.21,831.73,585,827.93,582.13Z"/><path class="cls-3" d="M2020.81,644.38h107.88c2.67,0,5.34-.06,8,.11,8.85.58,11.12,2.61,11.25,11.71.26,19,.13,38,.14,56.93,0,11.66.15,23.31-.12,35-.23,9.56-2.44,11.69-11.95,12-7.32.27-14.65.12-22,.12H1944.21c-3,0-6-.18-9,0-8,.41-13.06-3.15-16.37-10.43-13.6-30-23-61-25.52-94-.7-9.08,1-11.12,10.6-11.31,14.31-.28,28.64-.13,43-.14Z"/><path class="cls-3" d="M2045.08,786.34q41.94,0,83.9,0a87.18,87.18,0,0,1,10,.31c6.16.72,8.06,2.67,8.84,8.8a64.3,64.3,0,0,1,.28,8q0,39.95,0,79.9c0,1.33,0,2.66,0,4-.44,10.93-3.15,13.58-14.18,12.58a250.26,250.26,0,0,1-60.34-13.23q-74-25.93-122.92-87.25c-2.41-3-6.9-6.14-5.16-10.11,2.06-4.68,7.64-2.88,11.75-2.9C1986.48,786.28,2015.78,786.34,2045.08,786.34Z"/><path class="cls-3" d="M2032.88,899.87c-4.89,3-8.3,2.31-11.54,2.32q-56.38.09-112.77,0c-1.33,0-2.67,0-4-.05-10.2-.48-12.36-2.34-12.45-12.58-.22-23.94-.11-47.89-.12-71.84,0-15-.06-29.94,0-44.9,0-3.21-.84-6.63,2.22-10.83,16,29.42,34.3,56.33,57.78,79.62S2002.57,883.55,2032.88,899.87Z"/><path class="cls-6" d="M2876.27,172.23c-4.66,0-9.34.28-14-.06-7.29-.54-9.63-2.63-10-9.8-.42-8.64-.42-17.32,0-26,.34-7.17,2.69-9.49,10-9.77,10-.38,20-.38,30,0,6.69.28,9.1,2.65,9.42,9.23.44,9,.44,18,0,27-.32,6.59-2.73,8.76-9.42,9.26-5.3.4-10.65.08-16,.08Z"/><path class="cls-6" d="M2796.71,172.08c-5.33,0-10.66.19-16-.06-5-.23-8.17-3.18-8.29-8.23-.24-9.64-.25-19.3,0-28.94.14-5.07,3.39-8,8.4-8.11,10.65-.21,21.31-.41,31.94,0,6.17.24,8.5,2.59,8.8,8.72a277,277,0,0,1,0,27.94c-.3,6.08-2.66,8.13-8.91,8.64-5.29.43-10.64.09-16,.09Z"/><path class="cls-6" d="M2957.33,126.69c5.32,0,10.65-.19,16,.06,5,.23,8.16,3.18,8.29,8.23.24,9.64.22,19.3,0,28.94-.11,4.52-2.78,7.62-7.42,8a234.3,234.3,0,0,1-33.93.07c-5.13-.34-7.78-3.72-7.87-8.67-.18-9.31-.39-18.65.08-28,.31-6.07,2.67-8.13,8.91-8.64,5.3-.43,10.65-.09,16-.09Z"/><path class="cls-6" d="M3036.55,126.58c4.65,0,9.32-.3,13.94.07,6.59.52,9.13,2.54,10.36,8.75a73.17,73.17,0,0,1,.05,27.75c-1.19,6.31-3.71,8.64-10.18,8.92-9.61.41-19.27.43-28.89,0-6.72-.28-9.13-2.61-9.46-9.15-.45-8.95-.45-17.95,0-26.89.31-6.63,2.71-8.6,9.26-9.46a14.78,14.78,0,0,1,2-.13h13Z"/><path class="cls-6" d="M2717.53,172.17c-4.66,0-9.35.33-14-.08-6.57-.57-8.94-2.77-9.24-9.45-.41-9-.39-18,.07-26.95.31-6.15,2.61-8.59,8.69-8.89,10-.48,20-.47,29.94,0,6.08.28,8.33,2.67,8.65,8.89.45,9,.46,18,.06,27-.3,6.7-2.65,8.92-9.22,9.47C2727.54,172.5,2722.52,172.17,2717.53,172.17Z"/><path class="cls-6" d="M2637.76,172.2c-4.66,0-9.35.31-14-.07-6.69-.55-9.11-2.69-9.44-9.26-.44-9-.44-18,0-27,.32-6.57,2.75-9,9.43-9.24,9.64-.4,19.32-.39,28.95.07,6.16.29,8.56,2.61,8.88,8.69a277,277,0,0,1,0,27.94c-.3,6.09-2.66,8.14-8.89,8.68-4.95.43-10,.08-15,.08Z"/><path class="cls-6" d="M2558.56,172.18c-5,0-10,.33-15-.09-6.58-.54-8.95-2.76-9.26-9.43-.41-9-.39-18,.06-27,.31-6.23,2.56-8.62,8.63-8.9,10-.47,20-.47,30,0,6.1.27,8.38,2.65,8.7,8.84.46,9,.49,18,.07,27-.33,7-2.8,8.92-10.19,9.66-.66.06-1.33.09-2,.09h-11Z"/><path class="cls-1" d="M2305.89,476.3c29.3,0,58.59-.06,87.89.07,3.79,0,8.95-1.6,10.87,2.71s-2.55,7.18-5,10.13c-47.75,58.65-109.4,91.86-184.43,100.38-10.07,1.14-13-1.24-13.06-11.23q-.32-44.93,0-89.87c.06-9.93,2.38-12.05,12.81-12.1,30.29-.16,60.59-.06,90.88-.06Z"/><path class="cls-1" d="M2316.11,391.33c0,14.65.16,29.3-.05,43.95-.15,10.78-2.25,13-13,13q-43.95.24-87.9,0c-10.8-.05-12.9-2.15-13-13q-.24-43.93,0-87.88c.06-10.87,2.15-13,12.92-13q44-.24,87.89,0c10.77.06,12.88,2.23,13,13C2316.27,362,2316.11,376.69,2316.11,391.33Z"/><path class="cls-1" d="M2402,334.35c14.33,0,28.67-.15,43,0,11.17.16,13.6,2.92,12.44,14-3.24,31.12-11.91,60.71-25,89.1-3.51,7.59-8.59,11.08-17.06,10.94-19.33-.32-38.66,0-58-.15-11-.09-13.11-2.06-13.17-12.8q-.27-44,0-88c.06-11.21,2.13-13.05,13.83-13.18,14.66-.15,29.33,0,44,0Z"/><path class="cls-1" d="M2320.32,587.67c28.95-15.39,55.6-33.75,78.83-57s41.79-49.75,57.32-78.58c4.05,2.07,3.28,5,3.29,7.45q.1,58.92,0,117.84c0,10.58-2.13,12.92-12,12.95-41,.16-81.91.05-122.86,0a21.28,21.28,0,0,1-3.82-.68Z"/><path class="cls-2" d="M2877.06,2353.72c-5.32,0-10.68.37-16-.09-6.13-.53-8.4-2.66-8.7-8.85-.45-9.63-.47-19.3-.07-28.94.28-6.73,2.61-9.18,9.18-9.45,10.3-.44,20.64-.44,30.94,0,6.59.27,8.94,2.72,9.25,9.39.43,9.3.44,18.64,0,27.94-.32,7.62-2.7,9.63-10.7,10.12-4.65.29-9.32.06-14,.06Z"/><path class="cls-2" d="M2957.92,2306.31c5,0,10-.35,15,.09,6.15.56,8.47,2.64,8.74,8.81.43,10,.43,20,0,29.93-.29,6-2.72,8.26-9,8.51-10.3.42-20.64.44-30.94,0-6.61-.26-9-2.7-9.3-9.33-.41-9.64-.41-19.31,0-28.94.31-6.54,2.75-8.37,9.56-9.17a18.94,18.94,0,0,1,2-.1h14Z"/><path class="cls-2" d="M2796.89,2306.3c5.31,0,10.66-.35,15.93.1,6.18.52,8.53,2.61,8.8,8.71.45,9.95.45,19.94,0,29.88-.28,6.08-2.65,8.38-8.85,8.64-10.28.43-20.61.44-30.88,0-6.49-.29-9.12-2.92-9.45-9.35-.48-9.6-.49-19.27,0-28.88.3-6.52,2.73-8.56,9.55-9.08,5-.37,10-.07,14.94-.07Z"/><path class="cls-2" d="M2717.58,2306.27c5,0,10-.33,14.94.08,6.57.56,8.92,2.76,9.2,9.45.4,9.61.39,19.27-.06,28.88-.28,6.24-2.53,8.65-8.58,8.9-10.61.44-21.25.26-31.87,0-5.46-.15-8.64-3.59-8.77-9q-.36-14.93,0-29.87c.11-5,3.16-8,8.21-8.27,5.64-.26,11.29-.06,16.93-.06Z"/><path class="cls-2" d="M3036.31,2353.84c-4.65,0-9.32.27-13.94-.06-7.36-.53-9.76-2.59-10.06-9.67-.41-9.62-.38-19.28.08-28.89.3-6.16,2.58-8.5,8.72-8.76,10.61-.45,21.26-.46,31.87,0,6.09.25,8.37,2.64,8.65,8.83.43,9.61.45,19.28,0,28.88-.32,6.48-2.92,8.89-9.36,9.46-5.28.46-10.62.09-15.94.09Z"/><path class="cls-2" d="M2636.71,2353.71c-5,0-10,.37-14.94-.09-6.43-.6-9-3-9.33-9.5a227.41,227.41,0,0,1,.17-26.88c.56-7.95,3.51-10.63,11.43-10.95,9.29-.39,18.62-.38,27.91,0,7.18.31,9.51,2.67,9.82,9.89.39,9.28.4,18.61,0,27.89-.32,7.08-2.7,9.13-10.09,9.66-5,.35-10,.07-14.94.07Z"/><path class="cls-2" d="M2581.88,2329.65c0,4.66.27,9.34-.06,14-.53,7.35-2.59,9.77-9.69,10.07-9.64.41-19.32.38-29-.09-6.17-.3-8.51-2.6-8.78-8.75-.44-10-.44-20,0-29.93.29-6,2.72-8.26,9-8.54,9.63-.43,19.31-.44,29,0,6.63.29,8.59,2.72,9.44,9.31a16.61,16.61,0,0,1,.12,2q0,6,0,12Z"/><path class="cls-6" d="M2955.55,644.34h103.89c3.33,0,6.66-.07,10,.12,9.52.53,12.29,2.72,12.36,11.9q.38,46.44,0,92.88c-.07,8.29-2.61,10.31-11,10.9-2.66.19-5.33.13-8,.13H2875c-2.33,0-4.67-.14-7,0-7.47.35-12.53-2.73-15.86-9.63-13.89-28.78-22.78-59-25.77-90.78-1-11,2.31-14.47,13.32-15.27,4-.29,8-.21,12-.22Z"/><path class="cls-6" d="M2978.08,786.3q42.47,0,84.91,0a82.94,82.94,0,0,1,10,.32c6.09.75,7.92,2.73,8.74,8.93a47.7,47.7,0,0,1,.26,6c0,28,.09,55.93,0,83.9,0,13.08-3,15.73-16.34,14.45a236.7,236.7,0,0,1-47.93-9.5c-37.68-11.74-71.52-30.19-101.38-56.29-12.39-10.83-23.08-23-33.46-35.53-2.36-2.86-7.22-5.67-4.79-10,2.19-3.85,7.3-2.22,11.15-2.26,16-.14,32-.06,48-.06Z"/><path class="cls-6" d="M2826.42,761.39c16.78,29.82,34.78,57.24,58.3,80.67s50.42,41.71,79.93,57.22c-3.69,3.9-7.23,2.91-10.38,2.92q-57.46.12-114.95,0a67.84,67.84,0,0,1-7-.36c-4.59-.49-7.24-3.14-7.85-7.67a50.9,50.9,0,0,1-.42-7q0-58,0-115.93C2824.08,768.67,2823.61,765.94,2826.42,761.39Z"/><path class="cls-1" d="M2628,1089.71q0,43,0,86c0,2.66-.05,5.33-.16,8-.07,1.65-.11,3.56-1.73,4.42-2.24,1.2-3.68-.68-5.13-2s-2.88-2.77-4.3-4.19c-30.87-30.86-61.6-61.86-92.71-92.48-6.9-6.8-10.29-14-10.16-23.77.4-31.31.14-62.64.15-94a54.41,54.41,0,0,1,.19-6c.75-7,2.5-8.54,9.74-8.09a219.19,219.19,0,0,1,45.28,7.57,367.64,367.64,0,0,1,46.93,17.08c8.45,3.65,12.12,9.12,12,18.45-.36,29.65-.13,59.31-.13,89Z"/><path class="cls-1" d="M2656,1108.91c0-29.64-.06-59.29.06-88.93,0-3.45-1.57-8.13,2.56-9.9,3.4-1.45,6,2.19,8.46,4.23,58.79,48,93.55,109.1,101.31,185,1.16,11.3-.26,12.86-11.72,12.92q-43.47.21-87,0c-11.8-.06-13.63-2-13.68-14.38C2655.89,1168.2,2656,1138.56,2656,1108.91Z"/><path class="cls-1" d="M2767.08,1094.3c-15.3-29-33.92-55.53-56.94-78.73-22.84-23-49.52-41-78.13-56.57,2.71-3.56,5.59-2.69,8.06-2.7q57.94-.1,115.9,0c11.8,0,14,2,14,13,.15,39.29.08,78.59,0,117.88C2770,1089.36,2770.67,1091.92,2767.08,1094.3Z"/><path class="cls-1" d="M2561.27,1212.27c-11.63,0-23.27.19-34.9-.06-10.1-.21-12.24-2.32-12.33-12.61-.2-23.27-.08-46.53-.06-69.79a23.46,23.46,0,0,1,.4-5c.69-3.2,2.62-3.61,5-1.71a49.42,49.42,0,0,1,4.38,4.06q37.74,37.71,75.45,75.43c.7.71,1.43,1.39,2.09,2.14,1.29,1.48,3.36,2.87,2.75,5-.82,2.88-3.73,2.41-5.94,2.43-12.3.1-24.59,0-36.89,0Z"/></svg>