<svg id="Layer_1" data-name="Layer 1" xmlns="http://www.w3.org/2000/svg" viewBox="0 0 841.92 595.68"><defs><style>.cls-1{fill:#454545;}.cls-2{fill:#424242;}.cls-3{fill:#555;}.cls-4{fill:#505050;}.cls-5{fill:#494949;}.cls-6{fill:#434343;}.cls-7{fill:#242424;}.cls-8{fill:#464646;}.cls-9{fill:#515151;}.cls-10{fill:#444;}.cls-11{fill:#474747;}</style></defs><ellipse class="cls-1" cx="420.96" cy="297.84" rx="595.33" ry="421.21"/><path class="cls-2" d="M189.59,249.12c-25.82.73-51.65.43-77.48.48-1,0-2.08,0-3.11-.11a1.86,1.86,0,0,1-1.85-1.85c-.09-1.12-.11-2.24-.11-3.36v-90.7c0-1,0-1.92,0-2.88-.08-2.83-.53-3.28-3.44-3.33-2.16,0-4.32,0-6.48,0-2.56,0-5.12,0-7.68,0s-2.91.56-3,3c0,1,0,1.92,0,2.88v90.94c0,1,0,2.09-.07,3.12-.15,1.51-.62,2.11-2.07,2.16-3.19.1-6.4.1-9.59,0-1.47,0-2-.63-2.11-2.11a29.48,29.48,0,0,1-.08-3.12V152.61c0-5.24,0-5.25-5.14-5.25-3.84,0-7.68,0-11.52,0-3,0-3.48.48-3.49,3.52q0,16.92,0,33.83v60c0,4.79-.1,4.88-4.78,4.89-2.16,0-4.33,0-6.48,0-2-.08-2.49-.63-2.63-2.65,0-.79,0-1.59,0-2.39V131.25c0-5,.06-5,4.9-5H78.82c4.23,0,4.31-.09,5.63-4q7.2-21.37,14.41-42.75c1.59-4.69,3.23-9.38,4.85-14.06.92-2.65,1.36-3,4.16-3q25.2,0,50.39,0c3,0,3.43.47,3.49,3.51,0,1,0,1.92,0,2.88V222.86c0,1.12,0,2.25.07,3.36.15,1.51.62,2.11,2.07,2.16,3.19.1,6.4.1,9.59,0,1.47,0,1.95-.63,2.11-2.11a29.36,29.36,0,0,0,.08-3.11V131.49c0-1,0-1.92,0-2.87.13-1.6.48-1.93,2.11-1.93,3.28,0,6.56,0,9.84,0h1.92c1.41.28,1.62,1.33,1.62,2.52,0,5.11.81,10.4-.17,15.29-1.78,8.85-.61,17.64-.9,26.45s0,17.82-.06,26.73c-.08,16.47.16,32.93-.11,49.4C190,247.81,190.28,248.55,189.59,249.12Z"/><path class="cls-3" d="M177.11,493.44a8.86,8.86,0,0,1-3.54.48H111.91c-.4,0-.81,0-1.2,0-2-.14-2.54-.61-2.68-2.59,0-.72,0-1.44,0-2.16V375.4a23,23,0,0,1,.07-2.63c.16-1.49.63-2.07,2.11-2.11q4.78-.15,9.59,0c1.46,0,1.94.63,2.09,2.12.1,1,.07,2.08.07,3.12v91.42c0,1,0,1.92,0,2.88.13,1.92.61,2.5,2.44,2.56q4.44.14,8.88,0c1.88-.05,2.39-.62,2.52-2.48.09-1.11.05-2.24.05-3.36q0-77.13,0-154.28A36,36,0,0,1,136,309c.15-1.56.71-2.07,2.29-2.24a19.23,19.23,0,0,1,2.15-.07h48.47c4.26,0,4.35.09,5.74,4.21q9,26.83,18.06,53.67c.66,2,1.62,3.84,1.87,5.94-.42,1.74-1.88,1.16-2.92,1.17-8.72.07-17.43,0-26.15,0a26.73,26.73,0,0,0-3.35.11c-2.37.32-3.37,1.31-3.67,3.7a34.42,34.42,0,0,0-.12,4.31q0,54.58,0,109.16C178.31,490.6,178.64,492.28,177.11,493.44Z"/><path class="cls-4" d="M440.63,275c.66,3.94,1.72,7.82,2.12,11.8a86,86,0,0,1,.77,11.23c-.09,2.86-.52,3.36-3.4,3.36q-15.83,0-31.65,0l-11,0c-1.56-.15-1-1.56-1.43-2.38a23.49,23.49,0,0,1-.32-4c-.05-.61-.13-1.21-.24-1.81s-.19-1.11-.3-1.67c-.06-.32-.13-.64-.2-.95-.14-.52-.18-1.06-.27-1.58-.06-.33-.11-.65-.16-1a1.5,1.5,0,0,1,.27-1.26c.22-.26.47-.48.71-.72A35.27,35.27,0,0,0,391.22,276c-.34-.34-.91-.18-1.22-.56a78.48,78.48,0,0,0-7.47-9.92,59.79,59.79,0,0,0-9.28-8.27c-.81-.58-1.88-1.05-1.71-2.37A42.13,42.13,0,0,0,356,248.2a58.27,58.27,0,0,0-13.3-1.5q-29.25.06-58.48,0l-3.36,0a10.89,10.89,0,0,1-10.6-10.6c0-.88,0-1.76,0-2.63,0-6.48,0-12.95,0-19.42a31.44,31.44,0,0,1,.49-6.2.55.55,0,0,1-.19-.48,2.23,2.23,0,0,0,.19-.8,2.57,2.57,0,0,1,.12-.55,1.3,1.3,0,0,0,.12-.55,1.25,1.25,0,0,1,.09-.55.92.92,0,0,1,.11-.5,1,1,0,0,1,.22-.44,3.39,3.39,0,0,1,.27-.39c.1-.12.2-.24.31-.35l.15-.17.32-.33.16-.16.33-.32.34-.31a3.47,3.47,0,0,1,.38-.29l.4-.27.42-.28.43-.29.48-.26.5-.26.55-.23.9-.31.67-.24c.51-.18,1-.42,1.48-.64a2.54,2.54,0,0,1,1.39-.12c1.36,1.25,3,1.18,4.71,1.18q27.44,0,54.87,0c1.85,0,3.64-.06,5.17-1.24,10.44,1.67,21.06,2.35,31.12,6.07a130,130,0,0,1,15,6.78c.8.41,1.79.8,1.36,2.06A106.43,106.43,0,0,1,409,225.11c1.17-.46,2,.16,2.78.89a114.07,114.07,0,0,1,13.94,15.36c.62.87,1.54,1.75.57,2.95,2.57,3.74,4.91,7.62,7.16,11.55,1.15-.16,1.51.73,1.89,1.5A84.87,84.87,0,0,1,441,272.08,3.69,3.69,0,0,1,440.63,275Z"/><path class="cls-3" d="M634.18,19.22h54.68c4.64,0,4.75.11,4.75,4.66,0,14.47-.13,28.94.07,43.41.07,4.93-2.16,8-6.19,10.16-6.78,3.71-14.22,5.26-21.72,6.49A170,170,0,0,1,643.34,86c-3.75.11-7.5.51-11.25.36-12.38-.53-24.76-1-36.9-3.85a70.75,70.75,0,0,1-10.76-3.3A28.06,28.06,0,0,1,578,75.47a8.52,8.52,0,0,1-3.36-6.13,29.2,29.2,0,0,1-.1-3.11q0-21,0-42c0-.64,0-1.28,0-1.92.11-2.51.63-3.06,3.21-3.1,4.32,0,8.64,0,13,0Z"/><path class="cls-3" d="M558.27,236.42c.31,14.35-4.41,26-13.46,35.78A47.43,47.43,0,0,1,509.69,288c-14.11.23-26.16-4.84-36-14.81a49.23,49.23,0,0,1-14.11-29.06c-2.72-21.49,7.55-41.6,25.92-51.64a49.35,49.35,0,0,1,49,1.38c11.91,7.44,19.36,18.15,22.68,31.77A38,38,0,0,1,558.27,236.42Z"/><path class="cls-3" d="M575.51,215.15v-55c0-4.2.24-4.37,3.91-2.46q20.22,10.54,40.41,21.11c4.25,2.22,8.54,4.39,12.78,6.62,10.84,5.69,21.75,11.23,32.61,16.86q11.09,5.73,22.13,11.54c.62.32,1.51.5,1.58,1.31.09,1-.93,1.19-1.6,1.53-4,2.06-8,4.11-11.93,6.19-10.55,5.54-21.17,10.94-31.75,16.42q-18.23,9.45-36.41,18.93-13.82,7.22-27.62,14.49c-.42.22-.85.44-1.28.64-2.29,1.08-2.73.79-2.82-1.82,0-.8,0-1.6,0-2.4Z"/><path class="cls-3" d="M190.11,126.25h12.72c.72,0,1.44,0,2.16,0,1.62-.16,2.12-.63,2.28-2.22.1-1,.06-2.08.06-3.12q0-47,0-94.07c0-1,0-2.08.08-3.12a2,2,0,0,1,2-2,11.87,11.87,0,0,1,1.19-.07c4.72,0,9.44,0,14.16,0,2.73,0,3.17.51,3.24,3.27,0,1,0,1.92,0,2.88V120.4c0,1,0,1.92,0,2.88.11,2.41.58,2.86,3.07,3,.72,0,1.44,0,2.16,0h21.83c3.69,0,4,.41,4.08,4.2,0,.4,0,.8,0,1.2q0,56.4,0,112.79c0,1,0,2.08-.08,3.12a1.9,1.9,0,0,1-2,2c-3.36,0-6.72.08-10.07,0-1.49,0-2-.61-2.12-2.09a29.48,29.48,0,0,1-.08-3.12V152.87c0-1,0-2.09-.06-3.12-.14-1.72-.65-2.25-2.4-2.35s-3.52-.05-5.28-.05c-3.2,0-6.4,0-9.6,0-2.18.05-2.68.58-2.8,2.71,0,1,0,1.92,0,2.88v91.68c0,4.91,0,4.95-4.94,4.95-2.08,0-4.16,0-6.24,0s-2.62-.6-2.73-2.78c0-1,0-1.92,0-2.88V153.18c0-1,0-1.92,0-2.88-.1-2.33-.58-2.81-2.84-2.94h-1l-16.32,0c-.37.11-.69,0-.68-.39C190,140.07,189.51,133.16,190.11,126.25Z"/><path class="cls-2" d="M177.11,493.44q0-59.49,0-119a13.41,13.41,0,0,1,.06-1.68c.19-1.48.64-2,2.11-2.13a23.21,23.21,0,0,1,2.64-.07l32.62,0h40.55c4.42,0,4.6.17,4.6,4.6V489.37c0,4.37-.18,4.54-4.64,4.55-2.16,0-4.32,0-6.47,0s-2.66-.59-2.78-2.75c-.06-.95,0-1.92,0-2.88V397.32c0-1,0-2.09,0-3.12-.14-1.85-.65-2.35-2.55-2.47-1.19-.08-2.39-.05-3.59-.05-3.68,0-7.36,0-11,0-2.88,0-3.35.5-3.39,3.36,0,2.56,0,5.12,0,7.68V488.4c0,1,0,2.08-.06,3.12-.15,1.71-.66,2.28-2.41,2.33q-4.56.13-9.12,0c-1.59,0-2.11-.64-2.26-2.22-.1-1-.07-2.08-.07-3.12V397.08c0-1,0-2.08-.07-3.11-.15-1.58-.67-2.09-2.28-2.23-1.19-.1-2.4-.06-3.6-.06-3.67,0-7.35,0-11,0-2.59,0-3.07.56-3.16,3.11,0,1,0,1.92,0,2.88q0,45.72,0,91.42c0,4.89-.25,4.33-4.34,4.33Z"/><path class="cls-5" d="M191.43,532.8H343.1c1.2,0,2.4,0,3.6.09a2.09,2.09,0,0,1,2.16,2.13,118.78,118.78,0,0,1,0,12.23c-.11,1.79-1,2.51-2.78,2.73a21.11,21.11,0,0,1-2.64.09H39.58c-5.24,0-5.5-.27-5.5-5.59,0-2.88,0-5.76,0-8.64,0-2.45.55-2.92,3-3,1,0,2.08,0,3.12,0Z"/><path class="cls-5" d="M191.28,558.24H343c1.2,0,2.41,0,3.6.08,1.58.15,2.24.69,2.31,2.23a108.47,108.47,0,0,1,0,12.23c-.12,1.69-.93,2.42-2.62,2.61a37,37,0,0,1-4.08.12H40a23.86,23.86,0,0,1-3.59-.18c-1.51-.23-2.17-.85-2.2-2.38q-.13-6.24,0-12.48c0-1.55.67-2,2.31-2.17,1.12-.09,2.24-.06,3.36-.06Z"/><path class="cls-2" d="M73.44,392.16a8.74,8.74,0,0,0-3.28-.48H56.08a8.71,8.71,0,0,0-3.28.48,5.92,5.92,0,0,0-.23,2.83q0,47.13,0,94.28c0,.63,0,1.27,0,1.91,0,1.66-.75,2.51-2.44,2.5-2.72,0-5.45.09-8.16,0-1.23-.06-2-.36-2-2.24-.28-10-.09-20.07-.1-30.1,0-17.88-.06-35.76,0-53.64.08-11.57-.28-23.14.1-34.71,0-1.43.43-1.79,1.49-2.07a8.58,8.58,0,0,1,2.15-.08c8.23.07,16.46-.15,24.69.13.42,0,.93.05,1.15-.19,1.86-2,4.27-1.34,6.49-1.27,3.84.12,7.67-.24,11.5-.08,1.09.05,2.2,0,2.87,1.21.55,1,1.57.43,2.39.39a103,103,0,0,1,14.8.05q0,8.15,0,16.29a23.75,23.75,0,0,1-.09,2.39,1.91,1.91,0,0,1-1.86,1.86,23.75,23.75,0,0,1-2.39.09H87.84c-1.72,0-1.34,1.31-1.36,2.3-.22,11.49-.11,23-.07,34.47s0,22.72.11,34.08c.07,9.4-.08,18.81,0,28.22,0,2.15-.5,2.87-2.66,2.92-2.56.05-5.12,0-7.68,0a2.18,2.18,0,0,1-2.48-2.47v-1.92q0-47.15,0-94.3A5.92,5.92,0,0,0,73.44,392.16Z"/><path class="cls-3" d="M529.49,470.43a11.8,11.8,0,0,1,9.14-3.43c5,.12,10.07.11,15.11,0,4.65-.09,7.74,2.07,9.67,6.15.41.86.73,1.78,1.18,2.62.75,1.43,1.39,1.45,2.14.08.42-.76.71-1.6,1.08-2.4,2-4.29,5.21-6.49,10-6.44,7.19.07,14.39.12,21.59,0,4.89-.1,8,2.3,10,6.45.42.87.73,1.79,1.19,2.62.63,1.12,1.23,1.11,1.89,0,.44-.75.74-1.59,1.11-2.39,2-4.34,5.09-6.77,10.08-6.64,5.2.14,10.41.24,15.6,0,7.83-.37,12.37,7.11,10.05,13.95-1.54,4.54-3.32,9-5.19,13.42C640.9,502,637.48,509.6,633.77,517a6.43,6.43,0,0,0,0,6.14c4.38,9.34,8.79,18.66,12.56,28.27,1.11,2.83,2.24,5.66,3.09,8.57a10.16,10.16,0,0,1-2.88,11,9.26,9.26,0,0,1-6.33,2.51c-5.84.08-11.68.13-17.51,0a9.09,9.09,0,0,1-8.52-5.63c-.54-1.16-1.09-2.31-1.64-3.47-.21-.42-.36-1-.94-.94s-.76.53-1,.95c-.58,1.13-1.17,2.27-1.72,3.43a9.23,9.23,0,0,1-8.74,5.68c-7.6.11-15.2.1-22.79,0-4.22,0-7.26-2.17-9.16-5.93-.62-1.21-1.2-2.44-1.87-3.62-.45-.79-1-.72-1.42.07-.7,1.35-1.39,2.71-2,4.09a8.56,8.56,0,0,1-7.94,5.32c-6,.22-12,.12-18,0-3.77-.06-6.35-2.31-8.51-5.15-1.1.3-1.41-.44-1.77-1.26-1.41-3.21-.76-6.27.62-9.25,5.18-11.15,10.3-22.33,15.55-33.44a8.55,8.55,0,0,0,.17-8c-4.55-9.5-8.87-19.11-13.32-28.66-1-2.1-1.91-4.22-2.85-6.34a10.31,10.31,0,0,1,.1-8.8A3.43,3.43,0,0,1,529.49,470.43Z"/><path class="cls-3" d="M353.77,357.66q0,19.3,0,38.61c0,3.91-.16,4-3.66,2.22q-22-11.44-44-22.94-6.7-3.48-13.41-7l-18.34-9.43a10.65,10.65,0,0,1-1-.57c-1.14-.74-1.17-1.19-.11-1.92a7.67,7.67,0,0,1,.84-.46l13.2-6.85q15.45-8,30.89-16c10.71-5.56,21.4-11.17,32.11-16.73,3.34-1.73,3.55-1.59,3.55,2.15Q353.79,338.24,353.77,357.66Z"/><path class="cls-3" d="M476.17,350.66c.32-1,1.19-1.1,1.87-1.44q18.12-9.08,36.25-18.15a13.31,13.31,0,0,1,6.25-1.29q28.55,0,57.1,0,27.47,0,54.93,0a16,16,0,0,1,7.58,1.79c8.11,4.16,16.28,8.2,24.45,12.25,3.65,1.81,7.35,3.53,11,5.32.68.34,1.86.55,1.69,1.43-.22,1.1-1.45.67-2.26.76s-1.44,0-2.16,0H481c-1.12,0-2.24,0-3.36-.07A1.64,1.64,0,0,1,476.17,350.66Z"/><path class="cls-3" d="M410.37,71.09a2,2,0,0,1-2.15,1.82c-1,0-2.08,0-3.12,0H287.76c-1,0-2.08,0-3.12,0-2.34.1-2.83.54-2.88,2.86-.06,3.35,0,6.71,0,10.07a15.34,15.34,0,0,1-.06,1.92c-.16,1.16-.58,1.48-1.6,1-3-1.38-5.82-3-7.84-5.76a7.34,7.34,0,0,1-1.46-4c0-1-.07-1.92-.07-2.88q0-26.16,0-52.31c0-4.55.12-4.67,4.74-4.67h130.3c4.57,0,4.66.1,4.67,4.74,0,2.72,0,5.44,0,8.16-.06,2.3-.58,2.79-2.87,2.9-1,0-1.92,0-2.88,0H331.92c-1.5,0-3.05-.21-4.46.58a3.3,3.3,0,0,1,1.11,2.8c0,2.32-.09,4.63.05,7,.17,3,1.19,4.11,4.09,4.21,4.31.16,8.6.55,12.91.62,16,.24,32.07.94,48.11.91q7,0,14,0c1,0,2.07-.17,3,.54l.36.91a6.38,6.38,0,0,1,.06,1.45,2.17,2.17,0,0,1-.29.89c-1.41.8-3,.5-4.45.5H291.19a31.41,31.41,0,0,0-4.55.14c-2.25.33-3.28,1.31-3.54,3.56a31,31,0,0,0,0,6.94c.25,2.35,1.32,3.34,3.72,3.64a34.42,34.42,0,0,0,4.31.12H405.57a26.9,26.9,0,0,1,3.11.06C409.41,70,410.4,69.86,410.37,71.09Z"/><path class="cls-3" d="M677.87,362.79a4.76,4.76,0,0,1-2.35,1.68c-11.73,5.87-23.48,11.71-35.2,17.61a13.31,13.31,0,0,1-6.22,1.47q-57.12,0-114.23,0a14.46,14.46,0,0,1-6.45-1.52c-11.84-5.66-23.53-11.61-35.27-17.46a5.58,5.58,0,0,1-2.4-1.51c.22-.79.87-.58,1.38-.62.79-.05,1.59,0,2.39,0h194.4A9.6,9.6,0,0,1,677.87,362.79Z"/><path class="cls-3" d="M739.68,320.16l63.35,0c1,0,2.08,0,3.12.05,1.88.14,2.4.66,2.58,2.48.06.63,0,1.27,0,1.91v25c0,.56,0,1.12,0,1.68-.16,1.86-.64,2.33-2.55,2.46-.79.06-1.6,0-2.4,0H712.37c-4.8,0-4.85-.05-4.86-4.79V325c0-.72,0-1.44,0-2.16.13-1.92.29-2.08,2.38-2.65a4.7,4.7,0,0,1,3.4-1.18c7.78,0,15.55,0,23.33,0C737.83,319,739,319,739.68,320.16Z"/><path class="cls-5" d="M122.88,507.36h82.8c1,0,2.08,0,3.11.05,1.9.14,2.63.74,2.76,2.65a81.88,81.88,0,0,1,0,11.51c-.13,1.78-.85,2.36-2.61,2.53a24,24,0,0,1-2.4.06H38.77c-4.55,0-4.68-.14-4.69-4.74,0-3,0-5.92,0-8.88,0-2.59.55-3.07,3.11-3.16,1,0,1.92,0,2.88,0Z"/><path class="cls-6" d="M427.17,565.92c-.68,1.94-.38,4-.45,5.94,0,.72,0,1.45-.05,2.16-.16,1.75-.65,2.24-2.37,2.41-.79.07-1.59.05-2.39.05h-60a23,23,0,0,1-2.63-.08c-1.46-.18-2-.66-2.08-2.15-.11-2.47-.11-5,0-7.43.06-1.6.64-2.11,2.22-2.27a27.62,27.62,0,0,1,2.88-.07h48.22c4.54,0,4.67-.14,4.68-4.75,0-2.88,0-5.76,0-8.64s-.5-3.38-3.36-3.39c-6.56,0-13.12,0-19.68,0q-15.22,0-30.47,0c-4.2,0-4.53-.34-4.55-4.48,0-1.6,0-3.2,0-4.8.1-2,.61-2.54,2.59-2.68.88-.06,1.76,0,2.64,0h47.75a27.43,27.43,0,0,0,2.87-.08c1.47-.17,2-.65,2.11-2.13.11-1.27.07-2.56.08-3.84,0-2.8,0-5.6,0-8.39-.06-2.18-.59-2.68-2.72-2.81-.87,0-1.76,0-2.64,0h-48c-4.55,0-4.69-.15-4.7-4.73,0-1.6,0-3.21.06-4.8.11-1.75.63-2.25,2.35-2.42.79-.07,1.59-.05,2.39-.05h60c.79,0,1.6,0,2.39.05,1.72.17,2.25.66,2.36,2.41.1,1.59,0,3.2.06,4.8a9.45,9.45,0,0,0,.46,3.3c.89,0,1,.65,1,1.34.43,5.78.17,11.57.17,17.35.07,4,.08,8.05,0,12.07,0,5.62.26,11.25-.17,16.87C428.17,565.28,428.07,565.9,427.17,565.92Z"/><path class="cls-3" d="M609.86,140.65H578.68c-3.82,0-4.12-.3-4.13-4.07q0-15.84,0-31.66c0-3.8.31-4.11,4.09-4.11H641c3.82,0,4.12.3,4.12,4.07q0,15.84,0,31.66c0,3.81-.3,4.11-4.09,4.11Q625.44,140.67,609.86,140.65Z"/><path class="cls-2" d="M396,288v1c.45.38,0,1.05.47,1.44v1c.45.38,0,1,.47,1.43v1.93c.65,1.22-.16,2.61.47,3.84,0,1,0,1.92,0,2.88a10.78,10.78,0,0,0,4.26.49h37.41a17.16,17.16,0,0,1,2.87.19,1.58,1.58,0,0,1,1.37,1.7,1.65,1.65,0,0,1-1.34,1.75,7.55,7.55,0,0,1-1.43.17c-.95,0-1.91,0-2.87,0H276.06c-1.12,0-2.25,0-3.36-.05-1.75-.14-2.26-.64-2.4-2.36-.09-1.12-.06-2.24-.06-3.36V286.08a3.55,3.55,0,0,1,2.11-.23q60.28,0,120.59,0a3.53,3.53,0,0,1,2.1.23h.46c0,.32,0,.63,0,.94C395.82,287.28,395.69,287.73,396,288Z"/><path class="cls-3" d="M427.23,547.61l0-11.91c.94-1.36,2.38-1.21,3.75-1.21,12.7,0,25.39,0,38.09,0,6.86,0,7.35-.5,7.35-7.35,0-.72,0-1.44,0-2.15-.1-4.31-1.09-5.34-5.48-5.36-13.33-.06-26.67,0-40,0-1.37,0-2.78.12-3.69-1.24,0-.47,0-.93,0-1.4,0-2.55,0-5.11.06-7.67.06-2.28.58-2.75,2.89-2.86.39,0,.79,0,1.19,0H486c3.18.06,3.59.43,3.59,3.64q0,31.4,0,62.81a15.43,15.43,0,0,1-.09,1.67,1.9,1.9,0,0,1-1.85,1.86,19.23,19.23,0,0,1-2.15.09H431.31c-3.8,0-4.07-.29-4.1-4.09q0-3.24,0-6.47c0-.46.05-.92.07-1.37.87-1.4,2.28-1.27,3.65-1.27H469c6.91,0,7.39-.49,7.39-7.32,0-6.51-.57-7.07-7.15-7.08H430.89C429.52,548.88,428.12,549,427.23,547.61Z"/><path class="cls-5" d="M401,444H363.84c-4.06,0-4.31-.26-4.32-4.39q0-11.28,0-22.55a17.51,17.51,0,0,1,.06-1.92c.17-1.6.66-2.1,2.24-2.27a21.31,21.31,0,0,1,2.4-.07h74.14c4.54,0,4.67.14,4.68,4.75v21.83c0,.72,0,1.45-.05,2.16-.16,1.75-.65,2.25-2.37,2.4-.87.08-1.76.06-2.63.06Z"/><path class="cls-5" d="M401.31,348.48H363.88c-4.1,0-4.35-.26-4.36-4.35q0-11.28,0-22.56c0-.4,0-.8,0-1.2.1-2.47.56-2.95,3-3.07.56,0,1.12,0,1.68,0h74.14c4.56,0,4.71.16,4.72,4.72v21.83c0,.56,0,1.12,0,1.68-.12,2.33-.59,2.82-2.84,2.94-.8.05-1.6,0-2.4,0Z"/><path class="cls-5" d="M401.35,365.28h37.19c4.28,0,4.49.22,4.5,4.45q0,10.92,0,21.84c0,.72,0,1.44-.06,2.16-.17,1.75-.76,2.36-2.54,2.62a17.24,17.24,0,0,1-2.39.12H364.62c-4.7,0-5.09-.42-5.1-5v-21.6a19,19,0,0,1,.08-2.39c.19-1.47.66-1.93,2.15-2.1a25.86,25.86,0,0,1,2.64-.07Z"/><path class="cls-5" d="M401.12,491.52H363.93c-4.15,0-4.4-.25-4.41-4.3q0-11,0-22.08a17.26,17.26,0,0,1,.08-2.16c.19-1.46.65-1.93,2.13-2.1a19.25,19.25,0,0,1,2.4-.08h74.38c4.31,0,4.52.22,4.53,4.42q0,10.92,0,21.84c0,.56,0,1.12,0,1.68-.14,2.15-.61,2.63-2.78,2.75-.8.05-1.6,0-2.4,0Z"/><path class="cls-3" d="M231.38,320.65c-15.22.26-28-12.53-27.89-27.9a27.86,27.86,0,1,1,27.89,27.9Z"/><path class="cls-3" d="M66.69,76.32A27.86,27.86,0,1,1,94.4,48.47,27.68,27.68,0,0,1,66.69,76.32Z"/><path class="cls-7" d="M410.37,71.09c-1.43,0-2.87-.08-4.31-.08H287.37c-1,0-1.92,0-2.88,0-2.11-.09-2.5-.43-2.54-2.59q-.09-5.76,0-11.51c0-2.16.44-2.5,2.54-2.59,1,0,1.92,0,2.88,0H405.82c1.52,0,3-.05,4.56-.08,1.17-.93,2.48-.78,3.91-.79,2.08,0,4.17-.13,6.25,0,5.4.17,10.8,0,16.19.05,6.65.11,13.3.1,19.95.09,7.51,0,15,.06,22.54,0a22.92,22.92,0,0,0,3.22-.26c6.92.14,13.86.18,20.8.2,7.75,0,15.51-.09,23.28,0,5.34.07,10.69-.47,16.06-.36.47,0,.86.82,1.31.27,1.56,2.12,1.55,4-.06,5.68,0,3,0,5.91-.08,8.87,0,2.66-.45,3.1-3.08,3.11-7.76,0-15.52,0-23.28,0H412.77C412,71,411.17,71.07,410.37,71.09Z"/><path class="cls-6" d="M371.54,254.87a19.3,19.3,0,0,1,5,3.3,58.47,58.47,0,0,1,13.21,14.71,20.32,20.32,0,0,1,1,2.16c-.71,1.24-2,.74-2.91.74-35.6-.26-71.2,0-106.79-.09-3.11,0-6.21.24-9.32-.05a1.87,1.87,0,0,1-1.48-.6q0-7.92,0-15.83a21.41,21.41,0,0,1,.1-2.4,1.89,1.89,0,0,1,1.88-1.83c1.11-.08,2.23-.1,3.35-.1Z"/><path class="cls-7" d="M353.29,115.69h32.15c1.47-.51,3-.21,4.48-.22,6.05,0,12.11,0,18.16,0a4,4,0,0,1,2.33.24l10.07,0c1.6-1.85,4-1.12,5.73-1.06,6.13.19,12.26,0,18.39.07,9.29.16,18.59,0,27.89.1,5.18,0,10.37-.14,15.55-.11,6,0,12-.12,18,.09,2.95.1,5.89-.25,8.87.09.86.1,1.06.56,1.58.82l23,.06c4.14,0,4.31.18,4.33,4.31,0,2.71,0,5.42,0,8.13,1.58,1.62,1.58,2.9,0,4.17-3.35.31-6.72.16-10.07.16q-60.36,0-120.72,0c-9.2,0-18.4-.14-27.6,0-1.52,1.46-3.4.82-5.14.84-12,.16-24.09.71-36.06.25-15.69-.59-31.35-.17-47-.35-4.6-.05-9.2.88-13.85.66-.56,0-1-.44-1.55-.28-1.26-.69-1.22-1.9-1.23-3.06q-.06-6,0-12c0-2.76.45-3.16,3.24-3.16q12.1,0,24.22,0,21.35,0,42.68,0A4.74,4.74,0,0,1,353.29,115.69Z"/><path class="cls-7" d="M543.83,101.29c0,3.11,0,6.21-.08,9.32-.06,2.59-.51,3.06-3.13,3.08-7.09,0-14.18,0-21.27.08-4.62,1.57-9.4.89-14.12.9q-36.24.14-72.47,0c-3.55,0-7.1.2-10.66-.13-.87-.08-1-.67-1.62-.8-1.52,0-3-.06-4.56-.06H287.58c-1.12,0-2.24,0-3.35,0-1.75-.13-2.3-.61-2.33-2.39q-.12-6,0-12c0-1.75.6-2.19,2.37-2.32.8,0,1.6,0,2.4,0q126.42,0,252.85,0c1.44,0,2.87.1,4.31.15C546.09,98.5,544.49,99.89,543.83,101.29Z"/><path class="cls-3" d="M69.64,370.54q0-50.37,0-100.74a13.85,13.85,0,0,1,0-1.44c.17-1.75.64-2.36,2.36-2.38q8.15-.11,16.31,0c1.71,0,2.18.64,2.35,2.39,0,.48,0,1,0,1.44q0,50.37,0,100.74c-3.54.56-7.09.22-10.64.22S73.1,371.11,69.64,370.54Z"/><path class="cls-2" d="M529.49,470.43c-.29.57-.57,1.15-.87,1.71a10,10,0,0,0-.3,9.44c2.67,5.82,5.32,11.63,8,17.44,2.91,6.31,5.79,12.64,8.78,18.92a5.17,5.17,0,0,1-.06,4.79c-5.39,11.51-10.67,23.07-16.11,34.55-1.74,3.69-2.27,7.28-.46,11.05a3.42,3.42,0,0,1-2.63.93c-4.64,0-9.28-.07-13.91,0a7,7,0,0,1-6.23-10.08c3.15-6.73,6.26-13.48,9.38-20.22,2.68-5.81,5.32-11.63,8-17.41A4.93,4.93,0,0,0,523,517c-5.7-12.24-11.32-24.51-17-36.77a8.64,8.64,0,0,1-1-4.62c.33-3.1,2.57-5.54,5.56-5.6,5.59-.13,11.19-.06,16.78,0A11.26,11.26,0,0,1,529.49,470.43Z"/><path class="cls-7" d="M543.83,89.63c-1.35.07-2.71.19-4.07.19q-69.22,0-138.45,0-57.1,0-114.22-.07c-4.89,0-4.89,0-4.9-4.93,0-2.88,0-5.76,0-8.63,0-2.24.5-2.65,2.71-2.75,1,0,1.92,0,2.88,0q57.1,0,114.22,0,67.91,0,135.81-.07c1,0,1.92,0,2.88,0,2.5.08,3,.5,3,2.95,0,2,0,4,0,6,0,1,0,2.07.06,3.11C544.5,86.83,546.08,88.23,543.83,89.63Z"/><path class="cls-2" d="M769,520.32c-1.44,0-2.88,0-4.32-.06-1.72-.12-2.2-.65-2.36-2.4-.07-.79,0-1.6,0-2.4V442.55a23.76,23.76,0,0,1,.06-2.39c.16-1.72.66-2.19,2.42-2.35.63-.06,1.28-.05,1.91-.05h37.66c4.28,0,4.51.22,4.51,4.44v73.39c0,4.47-.27,4.72-4.78,4.73h-2.4c-1.62-.32-1.17-1.68-1.18-2.65-.08-5.59,0-11.17,0-16.76,0-1,0-2.08-.06-3.11-.24-2.83-1.21-4-4-4q-11-.27-22,0c-2.95.08-4,1.29-4.07,4.48-.16,6.46,0,12.93-.1,19.39C770.11,518.61,770.58,520,769,520.32Z"/><path class="cls-2" d="M747.36,493.92c1.36,0,2.72,0,4.07,0,2,.12,2.48.64,2.62,2.67.05.71,0,1.44,0,2.15v72.94c0,4.62-.14,4.76-4.66,4.76H712c-4.25,0-4.47-.22-4.47-4.48V498.59c0-3.75-.22-5,5.08-4.6a17.08,17.08,0,0,1,2.11.41c1.62.34,1.16,1.69,1.17,2.67.08,5.51,0,11,0,16.52,0,1,0,1.92.06,2.88.24,2.82,1.22,3.94,4,4,7.34.17,14.69.18,22,0,3-.07,4-1.26,4.06-4.47.14-6.47,0-12.94.09-19.4C746.21,495.62,745.75,494.27,747.36,493.92Z"/><path class="cls-2" d="M271.68,205.46c0,.16,0,.31,0,.47-.18.14-.3.34-.47.49,0,.15,0,.31,0,.47-.17.15-.31.33-.47.49v.45c-.75-2-.43-4.11-.47-6.18,0-1.76-.05-3.52.05-5.27s.64-2.24,2.36-2.41c.79-.07,1.59-.05,2.39-.05H438.62c4.84,0,4.9.06,4.9,5,0,3.68,0,7.36,0,11,0,3.17-.46,3.62-3.62,3.63q-23.38,0-46.77,0c-5.76-2.93-11.5-5.9-17.68-7.9a94.86,94.86,0,0,0-23.64-4.63c-1.75-.1-3.5-.29-5.24-.44-.62-.56-1.35-.39-2.09-.4q-31.28-.19-62.54,0c-.74,0-1.47-.16-2.09.4h-.95c-.24.3-.7.17-.95.46l-.5,0c-.24.3-.71.17-.95.47H276c-.16.16-.34.31-.5.48h0l-.47.46-.47,0c-.16.17-.34.31-.5.48h0l-.48.48h0l-.48.48h0l-.48.48h0l-.48.49h0C272,205.12,271.85,205.3,271.68,205.46Z"/><path class="cls-7" d="M468.87,134.93a14.66,14.66,0,0,0,4.52.39c7.2-.13,14.38.44,21.58.57,2.78.05,3.18.49,3.21,3.27,0,3.2.05,6.4,0,9.6,0,2.34-.5,2.79-2.85,2.84-3,.05-6.08,0-9.12,0l-39.81.06a20.74,20.74,0,0,1-7.12,1.22c-5.1-.08-10.21,0-15.32,0-1.32,0-2.57-.05-3.48-1.19l-10.07,0a3.51,3.51,0,0,1-3,1.24q-9.52,0-19.05,0a3.54,3.54,0,0,1-3-1.23H353.29c-1,1.21-2.33,1.21-3.73,1.21-5.59,0-11.18,0-16.77,0H286.53c-1.12,0-2.24,0-3.35-.09a2.43,2.43,0,0,1-2.5-2.41c-.23-4.87-.18-9.74,0-14.62.07-2.37,2.07-1.94,3.37-1.92,11.71.21,23.41.08,35.12,0,10.58-.05,21.15-.27,31.72-.17.85,0,1.66-.19,2.49-.14,10-.33,20,.13,30-.19a2.92,2.92,0,0,1,2,.29c7.43.06,14.87,0,22.31,0,.94,0,2-.18,2.73.67l19.67,0c2.07-1.35,4.39-.56,6.58-.69,6-.36,12.05.19,18.08.13a99.79,99.79,0,0,1,12.7.21C468.23,134.12,468.6,134.27,468.87,134.93Z"/><path class="cls-7" d="M393.62,52.37c-11.43-.19-22.86-.32-34.29-.59-9.67-.22-19.33-.59-29-.92-2.6-.09-2.88-.37-2.89-3,0-4.07,0-8.15,0-12.23,1.36,0,2.72-.1,4.07-.11h48.94l158.33-.05c1.68,0,3.36.12,5,.18.88,0,1.08.6,1.1,1.27A137.57,137.57,0,0,1,544.81,52a2.25,2.25,0,0,1-.27.67c-1.8,1.11-3.92.6-5.68.51-5.25-.25-10.48.17-15.73.1-7.32-.1-14.66.06-22,.12-7.86.06-15.72,0-23.58.08-10.42.12-20.85,0-31.28,0-8,0-15.95.07-23.92,0-3.39,0-6.8,0-10.2-.24a7.09,7.09,0,0,1-1.54-.43c-4.73-.43-9.46-.06-14.19-.2A7.59,7.59,0,0,1,393.62,52.37Z"/><path class="cls-3" d="M563.55,417.11a4.15,4.15,0,0,1-2.71.46h-95c-3.72,0-4.1-.4-4.11-4.15,0-4.55,0-9.11,0-13.67,0-2.84.65-3.46,3.53-3.66.95-.07,1.91-.06,2.87-.06,16.55,0,33.09,0,49.64,0a16.26,16.26,0,0,1,7.58,1.78c11.86,5.94,23.78,11.77,35.66,17.66A5.27,5.27,0,0,1,563.55,417.11Z"/><path class="cls-3" d="M590.38,417.19c.42-1,1.27-1.17,2-1.51q18.33-9.19,36.69-18.37a12,12,0,0,1,5.53-1.29q25.92,0,51.83,0c4.93,0,5.29.41,5.3,5.33q0,6,0,12c0,.72,0,1.44-.07,2.15a2,2,0,0,1-2,2c-.79.06-1.6.07-2.39.07H593.38A5.75,5.75,0,0,1,590.38,417.19Z"/><path class="cls-3" d="M808.32,293.77a7.08,7.08,0,0,1,.45,2.58c0,3.84,0,7.67,0,11.51,0,2.62-.52,3.07-3.08,3.16-.88,0-1.76,0-2.64,0H712.39c-4.8,0-4.87-.07-4.88-4.77,0-3.12,0-6.24,0-9.36.05-2.58.54-3.09,3.13-3.11,5.52-.06,11,0,16.55-.05a9.34,9.34,0,0,1,4.77-1.19h72.88C806.18,292.56,807.42,292.64,808.32,293.77Z"/><path class="cls-3" d="M758.4,267.37h45.84c4.41,0,4.54.14,4.54,4.62,0,3.2,0,6.4,0,9.6,0,2.48-.52,2.92-3,3-.64,0-1.28,0-1.92,0H712.42c-4.88,0-4.9,0-4.91-5,0-3,0-5.92,0-8.88s.47-3.37,3.35-3.38c9.12,0,18.24,0,27.36,0Z"/><path class="cls-3" d="M758.16,258.23H712.08c-4.42,0-4.56-.14-4.57-4.6,0-3.2,0-6.4,0-9.6,0-2.48.53-2.93,3-3,.64,0,1.28,0,1.92,0h91.44c4.9,0,4.92,0,4.92,5,0,2.8,0,5.6,0,8.4,0,3.53-.35,3.89-3.82,3.89q-13.08,0-26.16,0Z"/><path class="cls-3" d="M757.91,415.7H804c4.63,0,4.8.17,4.8,4.9,0,3.12,0,6.24,0,9.36,0,2.44-.56,2.89-3,3-.71,0-1.44,0-2.15,0H712.65c-5.13,0-5.14,0-5.14-5.24,0-2.88,0-5.76,0-8.63s.48-3.37,3.36-3.38c9.28,0,18.55,0,27.83,0Z"/><path class="cls-3" d="M808.31,389.31a8.74,8.74,0,0,1,.46,2.83c0,3.75,0,7.51,0,11.27,0,2.59-.53,3-3.1,3.15-.64,0-1.28,0-1.92,0H712.62c-1,0-1.93,0-2.88-.07-1.49-.16-2.1-.63-2.13-2.08q-.14-6.46,0-12.94c0-1.47.62-1.94,2.11-2.11a25.78,25.78,0,0,1,2.64-.07l27.33,0c.38-1,1.25-1.12,2.15-1.16,1.35-.07,2.71,0,4.07,0h58.19C805.59,388.09,807.23,387.79,808.31,389.31Z"/><path class="cls-3" d="M747.84,362.88l54.94,0c1,0,1.92,0,2.88,0,2.44.1,3,.61,3.08,3q.1,5.76,0,11.51c0,2.16-.58,2.62-2.77,2.74-.63,0-1.28,0-1.91,0H712.41c-4.87,0-4.89,0-4.9-5,0-3,0-6.08,0-9.12,0-2.6.53-3.05,3.11-3.14.88,0,1.76,0,2.64,0a3,3,0,0,1,2.81-1.18c9.19,0,18.38-.05,27.57,0A9.77,9.77,0,0,1,747.84,362.88Z"/><path class="cls-3" d="M590.33,429.21a3.09,3.09,0,0,1,2.46-.54q47.51,0,95,0c.4,0,.8,0,1.2,0,2,.15,2.55.62,2.66,2.61.07,1.36,0,2.72,0,4.08,0,3.76,0,7.52,0,11.27,0,2.57-.54,3.09-3.14,3.11-7.68,0-15.36,0-23,0-10.56,0-21.11,0-31.67,0a12.42,12.42,0,0,1-5.76-1.35c-11.86-6-23.74-11.88-35.61-17.82A5.74,5.74,0,0,1,590.33,429.21Z"/><path class="cls-3" d="M563.13,429a3.79,3.79,0,0,1-2.11,1.58q-17.91,9-35.82,17.93a11.53,11.53,0,0,1-5.31,1.26q-27.11,0-54.21,0c-.32,0-.64,0-1,0-2.34-.11-2.82-.57-2.93-2.84-.05-1,0-2.08,0-3.12,0-4,0-8,0-12,0-2.59.54-3,3.13-3.13.55,0,1.11,0,1.67,0h93.09A8.28,8.28,0,0,1,563.13,429Z"/><path class="cls-5" d="M298.71,507.36h45.35c4.38,0,4.85.46,4.89,4.77,0,2.56,0,5.12,0,7.68-.06,3.75-.64,4.34-4.33,4.34q-14.64,0-29.28,0H254.14c-1,0-1.93,0-2.88,0-2.14-.13-2.92-.76-3-2.93-.13-3.59-.13-7.2,0-10.79.08-2.29.85-2.91,3.17-3,1.28-.06,2.56,0,3.84,0Z"/><path class="cls-3" d="M791.05,127.2V229c0,1,0,2.08,0,3.12-.12,2-.63,2.53-2.67,2.58q-4.56.1-9.12,0c-1.91-.05-2.39-.6-2.54-2.46-.06-.79,0-1.59,0-2.39V24.12c0-4.88,0-4.9,5-4.9,2.24,0,4.49,0,6.72,0,2,.07,2.55.6,2.67,2.59.07,1,0,2.07,0,3.11Z"/><path class="cls-3" d="M740.19,19.2l9.6,0c4.7,0,4.75.06,4.76,4.87V230.55c0,3.9-.27,4.13-4.29,4.15-2,0-4,0-6,0l-4.08,0c-.51-.73-.26-1.55-.26-2.33q0-105.43,0-210.86C739.93,20.75,739.68,19.93,740.19,19.2Z"/><path class="cls-3" d="M774.73,127V229.19c0,1,0,2.09-.05,3.12-.15,1.72-.65,2.29-2.41,2.33-3.2.09-6.4.08-9.6,0-1.62,0-2.11-.62-2.28-2.2a24,24,0,0,1-.06-2.4V23.89c0-4.57.1-4.67,4.74-4.67,2.32,0,4.64,0,6.95,0,2,.07,2.55.6,2.67,2.59.07,1,0,2.08,0,3.12Z"/><path class="cls-3" d="M738.23,127V229.19c0,1,0,2.08-.05,3.12-.14,1.72-.64,2.28-2.4,2.33q-4.68.13-9.36,0c-1.91-.05-2.39-.6-2.55-2.45-.06-.72,0-1.44,0-2.16V23.89c0-4.56.11-4.67,4.74-4.67,2.32,0,4.64,0,7,0,2,.07,2.54.59,2.67,2.58.06,1,0,1.92,0,2.88Z"/><path class="cls-5" d="M543.83,132.34c0-1.39,0-2.78,0-4.17,3.17-2.18,6.68-3.77,10-5.65,1.53-.87,3-1.79,4.61-2.57,1.82-.9,2.47-.49,2.65,1.51,0,.55,0,1.12,0,1.68v38.13c0,4.07-.26,4.33-4.38,4.33H479.51a4.54,4.54,0,0,1-2.8-.39c-.15-.87.58-1.07,1.09-1.35q8.74-4.72,17.51-9.42c3.59-1.94,7.16-3.89,10.75-5.82.56-.3,1.17-.51,1.75-.77.17,0,.4-.06.47,0,2.11,2.86,5.17,2.64,8.21,2.62,7,0,13.9,0,20.85,0,4.29,0,5.21-1,5.29-5.22,0-2.48,0-5,0-7.43a3.18,3.18,0,0,1,1.11-2.79c-1.32-.74-2.78-.58-4.2-.63-1.88-.07-3.78.22-5.82-.28.49-1.06,1.34-1,2.07-1.07,1.59-.08,3.18-.06,4.78-.08A6.46,6.46,0,0,0,543.83,132.34Z"/><path class="cls-5" d="M543.84,51.7q-.21-8,0-16.05a8.26,8.26,0,0,0-4.22-.61c-11.84,0-23.68-.06-35.52,0a15.81,15.81,0,0,1-8.19-2.21c-5.14-2.92-10.38-5.66-15.57-8.49-.84-.46-1.65-1-2.46-1.5-.39-.25-.93-.54-.81-1.08.16-.7.87-.57,1.4-.63a9.62,9.62,0,0,1,1.2,0h77c3.87.08,4.42.62,4.42,4.5,0,12.88,0,25.76,0,38.64,0,3.7-.49,3.82-3.55,2.09-4.52-2.56-9.16-4.89-13.75-7.32-.16-1.6.08-3.23-.47-4.79-2.68-.57-5.39-.08-8.08-.26-1.17-.08-3.13.2-3.1-1.13,0-1.53,1.91-.63,3-.75C538,51.78,541,52.57,543.84,51.7Z"/><path class="cls-2" d="M259.68,83v29.27c0,.56,0,1.12,0,1.68-.06,3.15-.46,3.58-3.65,3.6-4.64,0-9.28,0-13.92,0-.48,0-1,0-1.44-.07a2,2,0,0,1-2-2c-.07-.8-.09-1.6-.09-2.4V52.45c0-4.23.22-4.44,4.5-4.45s8.48,0,12.72,0c3.49,0,3.88.39,3.89,3.84Q259.7,67.45,259.68,83Z"/><path class="cls-3" d="M122.39,327.06q0,15.35,0,30.71c0,3.84-.28,4.12-4.07,4.13-4.48,0-9,0-13.43,0-3.17,0-3.59-.43-3.59-3.65q0-28.56,0-57.11c0-2,0-4,0-6,.08-2.19.58-2.75,2.73-2.78q7.8-.09,15.59,0c2.22,0,2.71.6,2.73,3,0,5.44,0,10.88,0,16.32Z"/><path class="cls-3" d="M59.05,327.15v29.72c0,.48,0,1,0,1.44-.06,3.16-.44,3.57-3.65,3.59-4.55,0-9.11,0-13.66,0-3.2,0-3.75-.56-3.77-3.82,0-6.15,0-12.3,0-18.46q0-20.49,0-41A28.58,28.58,0,0,1,38.1,295c.26-2,.88-2.62,3-2.67,2.87-.08,5.75,0,8.63,0,2.15,0,4.31,0,6.47,0s2.79.59,2.84,2.91c.07,2.88,0,5.75,0,8.63Z"/><path class="cls-3" d="M353.26,134.38c-.71,0-1.43.07-2.15.07-21.5.05-43,.53-64.49.37-.64,0-1.28,0-1.91,0-2.39.08-2.74.38-2.77,2.85-.05,3.6,0,7.19,0,10.79,0,2.73.37,3,3,3.1.88,0,1.76,0,2.64,0h61.61c1.36,0,2.71,0,4.07.08,0,2.56,0,5.12,0,7.68-.06,2.27-.59,2.75-2.9,2.86-.72,0-1.44,0-2.16,0H275.27a25.12,25.12,0,0,1-2.88-.08c-1.47-.17-1.92-.65-2.09-2.14a15.34,15.34,0,0,1-.07-1.92q0-19.31,0-38.62c0-4,.26-4.27,4.18-4.27h75.1a9,9,0,0,1,3.77.5c-1.36,0-2.71.07-4.07.07h-63c-4.24,0-4.25,0-4.26,4.28q0,4.68,0,9.35a9.14,9.14,0,0,0,.32,3.08,4.74,4.74,0,0,0,2.58.24h66a10.13,10.13,0,0,1,1.91,0C353.91,133,354.07,133.54,353.26,134.38Z"/><path class="cls-2" d="M175.68,82.55V52.8c0-.4,0-.8,0-1.2.06-3.14.46-3.57,3.66-3.59q6.72,0,13.43,0c3.05,0,3.51.48,3.52,3.49,0,7.11,0,14.23,0,21.35v40.31c0,4.22-.22,4.43-4.51,4.44s-8.32,0-12.48,0c-3.18,0-3.63-.45-3.64-3.61q0-15.7,0-31.43Z"/><path class="cls-3" d="M656.53,275c-10.23,0-20.46,0-30.69,0-1.11,0-2.84.55-3.12-.81-.21-1,1.55-1.36,2.49-1.88q12.19-6.69,24.41-13.33l24.23-13.16,13.67-7.47,1.05-.59c2.72-1.44,3.11-1.22,3.11,1.87q0,15.82,0,31.66c0,.55,0,1.11-.07,1.67a2,2,0,0,1-2,2c-.88.07-1.76.08-2.64.08Z"/><path class="cls-3" d="M621.93,156.11a3.92,3.92,0,0,1,2.81-.55q31.43,0,62.85,0h.24c3.49,0,3.85.37,3.85,3.87q0,15.71,0,31.42c0,3.27-.37,3.43-3.21,1.88q-15.48-8.46-31-16.86l-29-15.88c-1.12-.61-2.27-1.18-3.39-1.8A14.15,14.15,0,0,1,621.93,156.11Z"/><path class="cls-3" d="M707.51,145.58v-84c0-4.9,0-4.93,5-4.93,1.84,0,3.68,0,5.51,0,2.26.09,2.9.65,2.91,2.9,0,3.6.44,7.18.49,10.77.17,12.88.33,25.76.67,38.62.54,21,.5,41.91.2,62.86-.29,19.75-.17,39.51-.35,59.26a15.44,15.44,0,0,1-.08,1.67,1.88,1.88,0,0,1-1.88,1.84,100.35,100.35,0,0,1-10.55,0,1.84,1.84,0,0,1-1.8-1.9c-.07-1-.09-2.08-.09-3.11Z"/><path class="cls-3" d="M691.69,532.31v39.81c0,4.13-.23,4.35-4.32,4.37-2.56,0-5.12,0-7.68,0-2.28-.06-2.77-.6-2.89-2.88,0-.64,0-1.28,0-1.92q0-39.33,0-78.66c0-4.78.07-4.85,4.8-4.85,2.4,0,4.8,0,7.19,0s2.84.6,2.88,2.89c.06,4.23,0,8.47,0,12.71Z"/><path class="cls-3" d="M164.52,285.61H140.79c-.72,0-1.44,0-2.16,0-2.16-.12-2.7-.58-2.73-2.77q-.09-8.15,0-16.3c0-2.28.63-2.8,2.86-2.94.64,0,1.28,0,1.92,0q24,0,47.93,0c4.64,0,4.8.17,4.81,4.9v12.94c0,.72,0,1.44-.08,2.16a2,2,0,0,1-2,2c-.8.06-1.6.07-2.4.08Z"/><path class="cls-3" d="M807.36,108.49V192.2c0,1,0,2.08-.1,3.12a1.85,1.85,0,0,1-1.85,1.85,85,85,0,0,1-9.58,0,1.87,1.87,0,0,1-1.82-1.89,4.37,4.37,0,0,1-.06-.72c.16-4.32-.44-8.61-.54-12.93-.27-11.19-.23-22.38-.56-33.56-.73-25-.51-49.89-.2-74.83.2-16.46.08-32.93.3-49.39.06-4.48.15-4.61,4.56-4.62,2.4,0,4.8,0,7.19,0,2,.07,2.5.61,2.63,2.63.06,1,0,1.92,0,2.88Z"/><path class="cls-3" d="M133.22,19.22h24c.72,0,1.44,0,2.16.05,1.73.16,2.26.64,2.36,2.38s.06,3.19.06,4.79c0,3.83,0,7.67,0,11.5,0,2.85-.49,3.33-3.4,3.33q-25.17,0-50.33,0c-2.88,0-3.34-.48-3.36-3.37q-.06-7.68,0-15.34c0-2.86.48-3.32,3.4-3.33,8.39,0,16.78,0,25.16,0Z"/><path class="cls-2" d="M674.88,325.43a129.88,129.88,0,0,1-14.91-.5,33.73,33.73,0,0,1-16.42-6.17c-8.41-5.88-13.9-13.77-15.81-24a39.78,39.78,0,0,1-.52-5c-.09-1.59.3-2,1.83-2.21a15.62,15.62,0,0,1,1.68-.07h9.35c3.66,0,3.9.21,4.54,3.75a19.31,19.31,0,0,0,6.23,11.33,20.07,20.07,0,0,0,11.38,5.12c7.26.79,14.53.26,21.79.44,1.28,0,2.57,0,3.84.07,2.1.16,3.37,1.15,3.61,3.17a45.89,45.89,0,0,1,0,10.28,3.8,3.8,0,0,1-3,3.33,13,13,0,0,1-3.56.42Z"/><path class="cls-2" d="M311.75,426.24H274.56c-4.06,0-4.3-.26-4.32-4.39,0-2.4,0-4.8,0-7.19.07-2.18.59-2.66,2.74-2.79.72-.05,1.44,0,2.16,0h73.66c4.86,0,4.92.07,4.92,5,0,2.24,0,4.48,0,6.71-.08,2-.63,2.52-2.62,2.66-.87.06-1.76,0-2.64,0Z"/><path class="cls-2" d="M311.76,470.4H274.57c-4.07,0-4.31-.26-4.33-4.38,0-2.4,0-4.8,0-7.2.07-2.17.59-2.66,2.73-2.79.72,0,1.44,0,2.16,0h73.66c4.87,0,4.93.07,4.93,5,0,2.24,0,4.48,0,6.72-.08,2-.62,2.52-2.61,2.66-.88.06-1.76,0-2.64,0Z"/><path class="cls-3" d="M747.36,493.92q0,11.86,0,23.72c0,3.83-.28,4.11-4.07,4.11q-12.22,0-24.45,0a15.25,15.25,0,0,1-1.91-.07c-1.47-.18-1.93-.64-2.1-2.13a21.13,21.13,0,0,1-.06-2.39q0-11.38,0-22.77V462.24c-1.19-.53-1.15-1.62-1.16-2.65,0-5.91-.09-11.82,0-17.72,0-2.46.43-2.86,2.84-2.87,9.74-.06,19.48-.09,29.22,0,2.53,0,2.92.41,2.93,3,0,5.82,0,11.65,0,17.48a3.76,3.76,0,0,1-1.21,3.24Z"/><path class="cls-3" d="M769,520.32c0-7.9,0-15.8,0-23.7,0-3.75.38-4.12,4.11-4.13h24.66a11.61,11.61,0,0,1,1.67.07c1.46.19,1.92.64,2.08,2.14a21.13,21.13,0,0,1,.07,2.39l0,23.22q0,15.62,0,31.22c1.54,1.39.55,3.16.61,4.74.22,5.78,0,11.57.08,17.36,0,.25-.23.57-.26.89,0,1.09-1.38,1.07-1.61,1.05-5.25-.51-10.58.76-15.78-.7a4.19,4.19,0,0,0-2.38,0c-4.17,1.36-8.46.3-12.68.68-1.35.12-1.76-1.23-1.8-2.47-.11-6.11,0-12.23,0-18.35a3.72,3.72,0,0,1,1.21-3.21Z"/><path class="cls-5" d="M543.83,89.63v-4.2c4,2.28,8.15,4.34,12.28,6.39a9,9,0,0,1,1.43.85.79.79,0,0,1,0,1.39,7.53,7.53,0,0,1-1.23.73l-12.48,6.5V97.1a7.77,7.77,0,0,0-4-.62H426c-1,0-1.93,0-2.88,0-2.06-.15-2.6-.85-2.57-3.19,0-2.18.55-2.8,2.57-2.95,1-.07,2.08,0,3.12,0H539.13C540.72,90.24,542.35,90.45,543.83,89.63Z"/><path class="cls-3" d="M693.62,120.76q0,7.79,0,15.58a17.1,17.1,0,0,1-.07,2.15c-.19,1.45-.67,1.9-2.15,2.1a9.48,9.48,0,0,1-1.19,0c-4.8,0-9.59,0-14.39,0-2.85,0-3.32-.5-3.32-3.41q0-16.53,0-33.08c0-2.85.49-3.31,3.4-3.33q7.18-.06,14.38,0c2.85,0,3.31.5,3.33,3.41,0,5.51,0,11,0,16.54Z"/><path class="cls-3" d="M669.11,531.82V552c0,.72,0,1.44,0,2.16-.13,2-.61,2.61-2.59,2.66-3.35.08-6.71.07-10.06,0-2,0-2.47-.62-2.61-2.65,0-.55,0-1.11,0-1.67q0-20.37,0-40.74c0-4.5.32-4.8,4.73-4.81,2.31,0,4.63,0,7,0,3.21,0,3.62.42,3.63,3.59,0,7.11,0,14.22,0,21.33Z"/><path class="cls-3" d="M541,318.22c.44-.85,1.19-1,1.81-1.34,10.44-5.23,20.9-10.42,31.31-15.69a5.26,5.26,0,0,1,5.21-.05c10.63,5.39,21.3,10.68,32,16a4,4,0,0,1,1.54,1,1.44,1.44,0,0,1-.14.3c0,.05-.13.12-.19.12-23.11.31-46.22.06-69.33.13a15.46,15.46,0,0,1-1.66-.13C541.33,318.55,541.21,318.4,541,318.22Z"/><path class="cls-3" d="M319.53,315.23c-.09.85-.79,1-1.31,1.3q-11,6-22.1,12-10.31,5.61-20.63,11.22c-1.12.61-2.26,1.19-3.43,1.71-.93.42-1.57.07-1.72-1a12.17,12.17,0,0,1-.1-1.91q0-9.94,0-19.9a17.44,17.44,0,0,1,.09-1.91,1.91,1.91,0,0,1,1.86-1.85,19.23,19.23,0,0,1,2.15-.09H317A4,4,0,0,1,319.53,315.23Z"/><path class="cls-3" d="M319.59,399.86c-.73.69-1.57.45-2.33.45q-21.57,0-43.15,0c-.39,0-.8,0-1.19,0-2-.15-2.56-.63-2.65-2.62s0-3.84,0-5.75V377.06a17.4,17.4,0,0,1,0-1.91c.18-1.65.68-2,2.21-1.27s3,1.57,4.44,2.37l29.7,16.11c3.86,2.1,7.72,4.19,11.58,6.3C318.74,399,319.35,399.19,319.59,399.86Z"/><path class="cls-3" d="M612.33,395.51c-.44.77-1.26,1-2,1.3-10.29,5.16-20.61,10.26-30.87,15.48a5.55,5.55,0,0,1-5.61,0C563.64,407.05,553.32,402,543,396.79a4.69,4.69,0,0,1-2-1.3C543.25,394.82,610.45,394.86,612.33,395.51Z"/><path class="cls-2" d="M311.28,491.52H292.57a19.19,19.19,0,0,1-2.4-.08c-1.46-.18-2-.66-2.08-2.14q-.15-4.68,0-9.36c0-1.6.63-2.1,2.21-2.27a17.26,17.26,0,0,1,2.16-.07h38.14c4.23,0,4.44.22,4.45,4.5,0,2,0,4,0,6-.06,2.89-.51,3.38-3.36,3.4-4.72,0-9.43,0-14.15,0Z"/><path class="cls-2" d="M311.51,434.88h19a19.09,19.09,0,0,1,2.39.08c1.47.18,2,.65,2.09,2.14.1,3.11.1,6.24,0,9.35-.05,1.61-.64,2.1-2.22,2.28a17.1,17.1,0,0,1-2.15.07H292.45c-4.23,0-4.44-.22-4.45-4.5,0-2,0-4,0-6,.06-2.9.51-3.39,3.35-3.41,4.8,0,9.6,0,14.4,0Z"/><path class="cls-2" d="M808.32,293.77l-81.11,0a48.58,48.58,0,0,1,10.77-7.9,8.68,8.68,0,0,1,4.44-.73H804.2c3.78,0,4.09.34,4.12,4.1C808.33,290.73,808.32,292.25,808.32,293.77Z"/><path class="cls-2" d="M808.31,389.31l-68.63,0a72.5,72.5,0,0,1-9.57-6.35c-.58-.48-1.69-.83-1.4-1.71s1.39-.56,2.14-.56q22.42,0,44.83,0h27.81c.8,0,1.6,0,2.39.05,1.74.16,2.29.65,2.38,2.39C808.36,385.15,808.3,387.23,808.31,389.31Z"/><path class="cls-3" d="M370.53,96.45c-18.22,0-36.45.08-54.67,0-10.24,0-20.13-2.25-29.88-5.23-.36-.12-.78-.19-1-.58,1.8-.54,108.88-.61,111.66.06A124.57,124.57,0,0,1,373,96C372.22,96.57,371.27,95.93,370.53,96.45Z"/><path class="cls-2" d="M426.26,244.31A113,113,0,0,0,409,225.11a3.7,3.7,0,0,1,2.87-.94c9.5,0,19,0,28.49,0,2.6,0,3.13.55,3.16,3.09q.08,6.94,0,13.89c0,2.57-.56,3.11-3.12,3.13C435.68,244.35,431,244.31,426.26,244.31Z"/><path class="cls-3" d="M64.64,90.14c6.35-.09,11.71,4.56,12,11.82.21,6.54-5.51,12.17-12,12.18S52.33,108.47,52.45,102A11.82,11.82,0,0,1,64.64,90.14Z"/><path class="cls-3" d="M245.28,346.37c.12,7.05-5.53,11.9-12,12s-12-5.65-12-12.17a12.18,12.18,0,0,1,12-11.92C239.86,334.33,245.7,340.13,245.28,346.37Z"/><path class="cls-2" d="M747.36,462.72l0-17.73c0-.8,0-1.6,0-2.4-.16-1.75-.63-2.23-2.36-2.39-.71-.06-1.43,0-2.15,0q-11.74,0-23.49,0a21.2,21.2,0,0,0-2.39.07c-1.47.17-1.93.63-2.1,2.13a25.59,25.59,0,0,0-.06,2.63c0,5.75,0,11.5,0,17.25a11.12,11.12,0,0,1-4.51.43c-1.93-.14-2.6-.72-2.62-2.7q-.09-9.83,0-19.66c0-1.87.63-2.35,2.5-2.51.64-.05,1.28,0,1.92,0h37.65c4.21,0,4.42.23,4.43,4.51,0,5.36,0,10.71,0,16.07,0,.64,0,1.28-.05,1.92-.16,1.74-.64,2.28-2.36,2.4C750.24,462.76,748.8,462.71,747.36,462.72Z"/><path class="cls-7" d="M543.76,135q0,6.22,0,12.46a17.34,17.34,0,0,1,0,1.91c-.17,1.61-.62,2-2.28,2.18-.63.06-1.28,0-1.92,0H511.72c-3.6,0-3.67-.09-3.91-3.77,0-3.35,0-6.71.09-10.06.05-2.39.5-2.91,2.79-2.91,10.62,0,21.25,0,31.88,0C543,134.9,543.36,135,543.76,135Z"/><path class="cls-3" d="M498.1,384.62a4.77,4.77,0,0,1-2.5.32H465.36c-3.17-.05-3.57-.43-3.59-3.64,0-3.92,0-7.84,0-11.75a9.36,9.36,0,0,1,.17-1.91.94.94,0,0,1,1.27-.76,9,9,0,0,1,1.55.64q16,8,32,16C497.22,383.74,497.81,383.87,498.1,384.62Z"/><path class="cls-3" d="M655.68,384.49c.42-.93,1.26-1.1,2-1.45q15.42-7.73,30.85-15.42c2.72-1.35,3.17-1.08,3.2,1.93,0,4.15,0,8.3,0,12.45,0,2.31-.58,2.9-2.84,2.91-10.61,0-21.23,0-31.85,0A1.7,1.7,0,0,1,655.68,384.49Z"/><path class="cls-3" d="M497.66,461.74c0,.63-.58.71-1,.91l-31.56,15.68c-3.09,1.53-3.33,1.39-3.34-2,0-3.91,0-7.83,0-11.74,0-2.77.49-3.28,3.2-3.29q15.47,0,30.93,0C496.51,461.29,497.2,461.12,497.66,461.74Z"/><path class="cls-3" d="M655.75,461.71a3.59,3.59,0,0,1,2.46-.43H687.7c.4,0,.8,0,1.2,0,2.17.14,2.72.6,2.75,2.77q.09,6.72,0,13.43c0,1.86-.51,2.11-2.22,1.37-.59-.26-1.15-.56-1.72-.85l-29.6-14.8A6,6,0,0,1,655.75,461.71Z"/><path class="cls-2" d="M769,551.52v21.1c.31.81.18,1.77,1.67,1.75,10.35-.16,20.69.09,31-.16,1.07-1.72.49-3.66.61-5.48.3-4.68-.16-9.38.16-14.07.15-2.21.34-2.44,2.95-2.44,2.18,0,2.52.37,2.57,2.5q.19,9.88,0,19.77c0,1.1-.55,1.43-1.09,2h-40c-4.44,0-4.62-.18-4.63-4.55,0-5.35,0-10.7,0-16,0-.63,0-1.28,0-1.91.17-1.74.65-2.27,2.37-2.39C766.09,551.48,767.53,551.53,769,551.52Z"/><path class="cls-3" d="M48.74,286.06a10.07,10.07,0,1,1,10.13-10A10,10,0,0,1,48.74,286.06Z"/><path class="cls-2" d="M69.64,370.54h34.13a9.74,9.74,0,0,1,3.75.48H97.44a19.1,19.1,0,0,0-5,.45,3.41,3.41,0,0,1-1.9.05,20.15,20.15,0,0,0-6.19-.5H45.49c-4.38,0-4.69.3-4.69,4.58V488.85c0,4.29.31,4.58,4.69,4.58a36.89,36.89,0,0,0,4.07-.12,2.57,2.57,0,0,0,2.63-2.61,28.59,28.59,0,0,0,.12-3.59q0-45.11,0-90.21a12.48,12.48,0,0,1,.48-4.74v96.42a29.29,29.29,0,0,1-.08,3.11c-.15,1.49-.63,2.08-2.09,2.13q-4.79.15-9.59,0c-1.46-.05-1.91-.64-2.09-2.13a21.31,21.31,0,0,1-.07-2.4V375.13c0-4.39.18-4.56,4.62-4.57Z"/><path class="cls-3" d="M111.72,265.93a10.07,10.07,0,1,1,0,20.14,9.64,9.64,0,0,1-10-9.93C101.71,270.19,105.83,266,111.72,265.93Z"/><path class="cls-2" d="M186.12,21.62a10.13,10.13,0,0,1,10.13,10A10.24,10.24,0,0,1,186.2,41.77a10.09,10.09,0,0,1-10.13-9.93C176,26.12,180.65,21.38,186.12,21.62Z"/><path class="cls-2" d="M259.18,31.65a9.64,9.64,0,0,1-10.11,10.09,10.06,10.06,0,1,1,.15-20.12A9.71,9.71,0,0,1,259.18,31.65Z"/><path class="cls-2" d="M747.84,362.88H713.28c-.79-2-1.64-4-2.36-6s-.39-2.59,1.85-2.61c5.5,0,11,0,16.49,0l7.89,0a4.12,4.12,0,0,1,3.42,1.37A75.38,75.38,0,0,0,747.84,362.88Z"/><path class="cls-2" d="M739.68,320.16H709.92a46.53,46.53,0,0,1,2.31-6.3,3.4,3.4,0,0,1,3.52-2.32c1.6,0,3.2,0,4.8,0,7.67,0,15.34,0,23,0a4.36,4.36,0,0,1,3,.57C744.2,314.76,741.13,316.8,739.68,320.16Z"/><path class="cls-3" d="M385.43,151.67q12.49-.24,25,0c0,2.56,0,5.11,0,7.66-.06,2.29-.58,2.85-2.88,2.87q-9.57.08-19.16,0c-2.29,0-2.82-.58-2.88-2.86C385.4,156.78,385.44,154.22,385.43,151.67Z"/><path class="cls-3" d="M721.91,33.86c0,3.83,0,7.66,0,11.49,0,2.75-.66,3.43-3.36,3.53s-5.27.09-7.9,0c-2.42-.1-3.09-.81-3.1-3.28q-.06-11.73,0-23.46c0-2.28.59-2.81,2.88-2.86q4.3-.11,8.61,0c2.29.05,2.82.58,2.86,2.88.06,3.91,0,7.82,0,11.73Z"/><path class="cls-2" d="M73.44,392.16a12.48,12.48,0,0,1,.48,4.74v89.92a36,36,0,0,0,.09,3.6c.19,1.94.94,2.78,2.86,2.91a51.8,51.8,0,0,0,6.23,0c1.54-.09,2.1-.72,2.26-2.28.11-1.1.08-2.23.08-3.35V396.59a13.11,13.11,0,0,1,.3-4c.34-1.05.92-1.75,2.1-.86a12.46,12.46,0,0,0-.48,4.74V488.3c0,1,0,2.09,0,3.12-.14,1.77-.63,2.37-2.33,2.43q-4.55.13-9.11,0c-1.73-.05-2.23-.64-2.37-2.37-.09-1-.06-2.08-.06-3.12Z"/><path class="cls-3" d="M807.35,220.1c0,3.75,0,7.5,0,11.25,0,2.87-.48,3.3-3.39,3.34q-3.94.06-7.89,0c-2.5-.05-3-.53-3.07-2.92q-.06-11.73,0-23.46c0-2.27.59-2.8,2.89-2.85,2.87-.06,5.75-.07,8.62,0,2.25.06,2.78.61,2.82,2.92.06,3.91,0,7.82,0,11.73Z"/><path class="cls-5" d="M420.48,113.77c1,0,2.08-.07,3.12-.07h92.63c1,0,2.08,0,3.12.07l-2.86,1.9c-1,0-2.08.07-3.12.07H423.59c-1,0-2.07,0-3.11-.07Z"/><path class="cls-5" d="M420.48,151.68H446.4c-1.22.76-2.38,1.61-3.65,2.27-6.22,3.24-12.47,6.42-18.71,9.63-.21.11-.42.22-.64.32-2.34,1.09-2.85.83-2.9-1.7C420.45,158.7,420.48,155.19,420.48,151.68Z"/><path class="cls-5" d="M445.38,34.59a2.92,2.92,0,0,1-2.06.43H424.13a15.74,15.74,0,0,1-1.68-.08,1.89,1.89,0,0,1-1.86-1.85,78.68,78.68,0,0,1,0-9.59c.08-1.24.64-1.52,1.8-1.13a10.91,10.91,0,0,1,1.51.71L444.7,34A4.67,4.67,0,0,1,445.38,34.59Z"/><path class="cls-1" d="M270.24,275h120.5l.48.95a15.59,15.59,0,0,1-5.22.49H271.2c-.25-.3-.71-.19-1-.48a.65.65,0,0,1,0-1Z"/><path class="cls-3" d="M661.44,576.45a7,7,0,0,1-7.14-7.1,7,7,0,0,1,7.22-7.24,6.88,6.88,0,0,1,7.11,7.07A7,7,0,0,1,661.44,576.45Z"/><path class="cls-3" d="M668.63,495.33a7,7,0,0,1-7.07,7.19,7.12,7.12,0,0,1-7.26-7.08,7,7,0,0,1,7.25-7.26A6.88,6.88,0,0,1,668.63,495.33Z"/><path class="cls-2" d="M353.66,441.87a6.85,6.85,0,0,1-13.69.23,7,7,0,0,1,6.88-7.12A6.91,6.91,0,0,1,353.66,441.87Z"/><path class="cls-2" d="M353.66,484.49A6.85,6.85,0,0,1,340,485a7.11,7.11,0,0,1,6.76-7.26A7,7,0,0,1,353.66,484.49Z"/><path class="cls-2" d="M277.13,491.45a6.85,6.85,0,0,1-6.83-6.65,6.93,6.93,0,0,1,6.89-7.11c3.36,0,6.77,3.43,6.8,6.83A7,7,0,0,1,277.13,491.45Z"/><path class="cls-2" d="M276.91,448.73a6.86,6.86,0,0,1-6.62-6.86A6.94,6.94,0,0,1,277.4,435a7.22,7.22,0,0,1,6.59,7A7.06,7.06,0,0,1,276.91,448.73Z"/><path class="cls-5" d="M518.12,72.9q-47.79,0-95.59,0c-.45,0-1,0-1.2-.6.12-.63.65-.65,1.1-.68.88-.06,1.76-.08,2.64-.08h88c1.72,0,3.5-.21,5.08.71C518.15,72.46,518.13,72.68,518.12,72.9Z"/><path class="cls-2" d="M440.63,275c-.95-2.86-1.89-5.73-2.85-8.59-1.22-3.63-2.95-7-4.36-10.59a3.17,3.17,0,0,1,2.38-.94c1.68,0,3.35-.07,5,0,2,.1,2.54.63,2.65,2.61.08,1.51,0,3,0,4.55,0,3.27,0,6.55,0,9.82C443.46,274.41,443.16,274.68,440.63,275Z"/><path class="cls-5" d="M190.11,126.25l0,17.85a8.52,8.52,0,0,0,.48,3.28v97.35c0,1,0,1.92-.05,2.88,0,.66-.15,1.29-.92,1.51q0-61.2,0-122.4Z"/><path class="cls-8" d="M740.19,19.2c0,1.44,0,2.88,0,4.31v206.9c0,1.43,0,2.87,0,4.31a10.41,10.41,0,0,1-.51-4.25V183.93q0-79.87,0-159.76C739.69,22.5,739.51,20.8,740.19,19.2Z"/><path class="cls-5" d="M468.87,134.93c-8.23-.1-16.45,0-24.68-.37-4.7-.24-9.42-.14-14.13-.19-1.78-.65-3.64-.38-5.47-.46a6.88,6.88,0,0,1-3-.32c.28-.71.83-.56,1.26-.59,5.58-.42,56.58-.11,58.61.39a5.16,5.16,0,0,1-3.95,1.47Z"/><path class="cls-6" d="M353.26,134.38A2.21,2.21,0,0,0,351,133c-1,0-1.92,0-2.88,0H286.74a11.83,11.83,0,0,1-4.5-.46l71.6,0q15.8,0,31.6,0c0,.13,0,.27,0,.4.24.25.53.47.48.87a2.81,2.81,0,0,1-.46.52Z"/><path class="cls-2" d="M806.88,576.48a22.9,22.9,0,0,0,.43-3.07q.08-8.6,0-17.19c0-2.22-.7-3.11-2.13-3.11s-2.11.89-2.13,3.1c-.05,4.93,0,9.87,0,14.81,0,1.36,0,2.75-1.43,3.54-.35-.16-.36-.34,0-.53q0-11.25,0-22.5c1.44,0,2.87,0,4.3,0,2.12.11,2.8.68,2.82,2.73.07,6.61,0,13.21,0,19.82A2.13,2.13,0,0,1,806.88,576.48Z"/><path class="cls-6" d="M395,286.08H270.24a9.26,9.26,0,0,1,3.54-.48H391.5A9.26,9.26,0,0,1,395,286.08Z"/><path class="cls-9" d="M385.44,133.92c0-.33,0-.65,0-1l25,0a.65.65,0,0,1,0,1h0c-1.79.5-3.62.21-5.44.22-5.73.05-11.46,0-17.19,0A4.05,4.05,0,0,1,385.44,133.92Z"/><path class="cls-5" d="M385.44,133.92h25c0,.14,0,.28,0,.42q-12.47.19-24.94,0C385.45,134.19,385.45,134.05,385.44,133.92Z"/><path class="cls-3" d="M410.41,115.69q-12.48.18-25,0a8.58,8.58,0,0,1,3.52-.49h17.93A8.44,8.44,0,0,1,410.41,115.69Z"/><path class="cls-5" d="M370.53,96.45A6.92,6.92,0,0,1,373,96,6.34,6.34,0,0,1,370.53,96.45Z"/><path class="cls-5" d="M410.4,133.92v0Z"/><path class="cls-1" d="M270.24,276l1,.48Z"/><path class="cls-1" d="M141.6,187.74v36.47c0,4-.29,4.25-4.2,4.27-4.08,0-8.16,0-12.24,0-3.29,0-3.71-.43-3.71-3.78q0-29.62,0-59.26V151.75c0-.72,0-1.44,0-2.16.14-2,.63-2.56,2.61-2.66,1.52-.09,3-.05,4.56-.05,3.12,0,6.24,0,9.36,0s3.58.46,3.59,3.66Q141.62,169.15,141.6,187.74Z"/><path class="cls-1" d="M176.65,432q0,18.22,0,36.45c0,4.13-.25,4.37-4.32,4.38s-8.32,0-12.47,0c-2.88,0-3.37-.49-3.38-3.37q0-16.55,0-33.09,0-20.38,0-40.77c0-4.14.23-4.36,4.31-4.38s8.16,0,12.23,0c3.18,0,3.63.45,3.63,3.61Q176.67,413.41,176.65,432Z"/><path class="cls-2" d="M279.84,200.63a3.53,3.53,0,0,1,2.64-.93l3.36,0h56.64c1.42,0,2.92-.23,4.08.94Z"/><path class="cls-6" d="M397.43,298.55a10,10,0,0,1-.47-3.84A9.63,9.63,0,0,1,397.43,298.55Z"/><path class="cls-6" d="M396.47,290.39c-.16-.48-.31-1-.47-1.44C396.16,289.43,396.31,289.91,396.47,290.39Z"/><path class="cls-6" d="M397,292.78l-.47-1.43Z"/><path class="cls-6" d="M396,288c-.16-.32-.31-.65-.47-1C395.68,287.34,395.83,287.67,396,288Z"/><path class="cls-2" d="M277.94,201.1l.95-.46Z"/><path class="cls-2" d="M276.49,201.59l.95-.47Z"/><path class="cls-2" d="M275.52,202.08l.5-.48Z"/><path class="cls-2" d="M275.05,202.54l.47-.46Z"/><path class="cls-2" d="M272.16,205l.48-.49Z"/><path class="cls-2" d="M270.72,207.38l.47-.49Z"/><path class="cls-2" d="M272.64,204.48l.48-.48Z"/><path class="cls-2" d="M273.12,204l.48-.48Z"/><path class="cls-2" d="M273.6,203.52l.48-.48Z"/><path class="cls-2" d="M271.68,205.46l.49-.5Z"/><path class="cls-2" d="M274.08,203l.5-.48Z"/><path class="cls-2" d="M271.2,206.42l.47-.49Z"/><path class="cls-1" d="M523.75,236.27c0,7.56-2.93,12.58-9.1,15.12a14.8,14.8,0,0,1-20.75-12.73c-.28-5.09,1.08-9.4,4.91-12.95a14.93,14.93,0,0,1,22.8,3.45C523,231.64,523.94,234.25,523.75,236.27Z"/><path class="cls-2" d="M538.55,553.91c2.24-4.95,4.46-9.91,6.72-14.84,2.41-5.23,4.79-10.47,7.31-15.64a6.91,6.91,0,0,0-.08-6.56c-5.87-12.43-11.57-24.93-17.33-37.41a9,9,0,0,1-.46-1.11,2.85,2.85,0,0,1,2.45-4,9.72,9.72,0,0,1,1.43-.08c4.8,0,9.59,0,14.39,0a4.19,4.19,0,0,1,4.42,2.88c2.17,5.07,4.51,10.06,6.78,15.09a6.4,6.4,0,0,0,.29.65c.26.48.41,1.15,1.06,1.18s.88-.62,1.11-1.11c1.36-2.89,2.69-5.8,4-8.7,1.13-2.47,2.29-4.93,3.38-7.41a3.9,3.9,0,0,1,3.93-2.56q10.54,0,21.1,0a4.17,4.17,0,0,1,4.1,2.7C605.57,482,608,487,610.48,492a7.54,7.54,0,0,0,.69,1.25.7.7,0,0,0,1.21,0,6.09,6.09,0,0,0,.72-1.24q2.6-5.79,5.17-11.6l.45-.48c0-.16,0-.32,0-.47.17-.15.29-.34.46-.49,0-.16,0-.31,0-.47a4.33,4.33,0,0,0,.46-.5c0-.15,0-.3,0-.44,1.29-.86,1.55,0,1.58,1a8.51,8.51,0,0,1-.85,3.22A340.06,340.06,0,0,1,605.91,515a8.94,8.94,0,0,0-.07,8.59c5.54,11.62,11.08,23.25,15.22,35.47a9,9,0,0,1,.73,4c-.13,1.08-.63,1.41-1.62.94,0-.15,0-.29,0-.43-.16-.17-.29-.35-.46-.5,0-.16,0-.31,0-.47l-.45-.48c-2.28-5-4.36-10.11-6.88-15-.09-.19-.35-.29-.54-.43-1,.38-1.15,1.32-1.52,2.08-2.31,4.72-4.59,9.47-6.88,14.21a8.13,8.13,0,0,1-2,3c-3.14.53-6.32.16-9.47.21-1.29,0-2.06-.91-2.65-2-.94-1.76-1.54-3.66-2.5-5.41-.29-.53-.44-1.33-1.23-1.27s-.76.74-1,1.23c-.65,1.37-1.32,2.72-2,4.07-1.8,3.55-2.39,3.83-6.62,3.19a7.51,7.51,0,0,1-2.32-3.29c-2.28-4.84-4.52-9.71-6.81-14.55-.32-.68-.44-1.56-1.33-1.88-.83.41-1,1.27-1.27,2-1.9,4.15-3.74,8.31-5.62,12.46a23.85,23.85,0,0,1-2.8,5.28c-3.22.55-6.46.19-9.69.2a2.82,2.82,0,0,1-2.45-1.65,53.3,53.3,0,0,1-2.37-4.94,8,8,0,0,0-2.24-3.32A1.67,1.67,0,0,1,538.55,553.91Z"/><path class="cls-1" d="M620.17,564a5.7,5.7,0,0,0-.22-4.2,193.82,193.82,0,0,0-7.22-18.25q-4.5-10-9.27-20a5,5,0,0,1,.2-4.75c5-10.15,9.72-20.47,13.89-31,.65-1.64,1.25-3.29,1.87-4.93a4.27,4.27,0,0,0,.26-3.25c.64-2.49,2.31-3.43,4.8-3.4,4.71.07,9.43,0,14.15,0,3.58,0,4.76,1.64,3.63,5.08a181.24,181.24,0,0,1-6.71,16.94c-3.17,7.16-6.38,14.3-9.94,21.28a5.39,5.39,0,0,0,0,5.21c4.7,10,9.5,19.91,13.59,30.16.91,2.3,1.77,4.62,2.64,6.94a15,15,0,0,1,.56,1.84c.69,3.06-.46,4.61-3.64,4.66-4.87.08-9.75,0-14.62,0C622.32,566.4,620.9,565.79,620.17,564Z"/><path class="cls-1" d="M538.55,553.91a4.26,4.26,0,0,1,2.81,2.7c1,2.26,2.12,4.48,3.11,6.75a3.93,3.93,0,0,0,4.15,2.56c2.4-.06,4.8,0,7.2,0a7.87,7.87,0,0,1-3.3.49H539.34c-.48,0-1,0-1.43,0-2.78-.27-4.07-2.08-3-4.65A45,45,0,0,1,538.55,553.91Z"/><path class="cls-1" d="M576,565.93c2.7.35,4.36-.85,5.34-3.36.77-2,1.79-3.91,2.71-5.86a16.42,16.42,0,0,1,1-1.91c.5-.77,1.06-.63,1.47.1.28.49.47,1,.7,1.52,1.09,2.4,2.2,4.79,3.27,7.2a3.54,3.54,0,0,0,3.57,2.29c2.47,0,5,0,7.42,0a8.79,8.79,0,0,1-3.52.48H579.27A8.42,8.42,0,0,1,576,565.93Z"/><path class="cls-1" d="M619.67,478.05l-.46.5Z"/><path class="cls-1" d="M619.2,479c-.16.16-.31.32-.46.49C618.89,479.34,619,479.18,619.2,479Z"/><path class="cls-1" d="M618.72,480l-.45.48Z"/><path class="cls-1" d="M619.23,562.1l.45.48Z"/><path class="cls-1" d="M619.7,563.05l.46.5Z"/><path class="cls-7" d="M299.63,52c-4.88,0-9.75,0-14.63,0-2.7,0-3-.34-3.07-3,0-3.51,0-7,0-10.54,0-2.57.37-2.9,3-2.91q14.85,0,29.72,0c2.76,0,3,.3,3.06,3,0,3.59,0,7.19,0,10.79,0,2.25-.42,2.64-2.7,2.66-5.12,0-10.23,0-15.34,0Z"/><path class="cls-10" d="M543.84,51.7a7.53,7.53,0,0,1-4,.63c-2.13,0-4.26,0-6.65,0a1.68,1.68,0,0,0,1.83,1.32c1.51.09,3,.09,4.54.11a10,10,0,0,1,3.77.49l-60.51,0c-2.82-1.32-5.86-.73-8.76-.73-14.27,0-28.53-.08-42.8,0-2.9,0-5.8,0-8.7.09a2.77,2.77,0,0,0-2.1.62H410.38c0-.15,0-.3,0-.44a.63.63,0,0,0,0-1v0l-.35-.21.36-.19,61.82-.1c18.13,0,36.26,0,54.39-.11C532.35,52.18,538.09,51.88,543.84,51.7Z"/><path class="cls-11" d="M410.39,52.42c0,.13,0,.27,0,.4l-13,0a11,11,0,0,1-3.74-.41Q402,52.18,410.39,52.42Z"/><path class="cls-11" d="M410.39,52.8l0,1Z"/><path class="cls-1" d="M427.22,518.36l45.3,0a27.43,27.43,0,0,1,2.87.08c1.48.15,2,.62,2.11,2.1.12,1.27.08,2.56.08,3.83,0,2.8,0,5.6,0,8.39-.06,2.28-.58,2.8-2.9,2.85-3.19.06-6.39,0-9.58,0l-37.87,0Q427.21,527,427.22,518.36Z"/><path class="cls-1" d="M427.23,547.61l45.3,0a27.5,27.5,0,0,1,2.87.07c1.47.16,2,.64,2.1,2.12s.08,2.71.08,4.07c0,2.64.05,5.28,0,7.91-.06,2-.61,2.51-2.62,2.63-.95.07-1.91,0-2.87,0l-44.81,0Q427.24,556.08,427.23,547.61Z"/><path class="cls-3" d="M410.4,66.71c-1.12,0-2.24.08-3.36.08H290.75c-1,0-1.92,0-2.88-.05a1.66,1.66,0,0,1-1.78-1.82c0-1.52,0-3,0-4.55a1.66,1.66,0,0,1,1.78-1.82c.72,0,1.44-.06,2.16-.06H407.76c.88,0,1.76,0,2.64.08A7,7,0,0,1,410.4,66.71Z"/><path class="cls-5" d="M507.34,66.7c-1.12,0-2.24.07-3.36.07H423.6c-1,0-2.08,0-3.12-.07a7,7,0,0,1,0-8.12c1,0,2.08-.06,3.11-.06q32.78,0,65.56,0c1.11,0,2.23,0,3.35.07,5.13.81,9.3,3.85,13.84,6C507.13,65,508.3,65.39,507.34,66.7Z"/><path class="cls-1" d="M507.34,66.7,495.6,60.36c-1.05-.57-2.07-1.18-3.1-1.77l38.59-.07c1.91,0,3.83,0,5.75,0,2.09.07,2.56.53,2.67,2.54a26.91,26.91,0,0,1,0,3.36c-.12,1.63-.6,2.09-2.19,2.27a5.78,5.78,0,0,1-.72,0Z"/><path class="cls-11" d="M420.49,54.19a2.23,2.23,0,0,1,2.11-1.33c.64,0,1.28,0,1.91,0q26.61,0,53.2,0c1.83,0,3.72-.15,5.14,1.39-5.35,0-10.71.06-16.07.06q-21.11,0-42.21,0C423.21,54.26,421.85,54.21,420.49,54.19Z"/><path class="cls-1" d="M420.48,58.58V66.7H410.4V58.57Z"/><path class="cls-3" d="M286.13,128.13c0-1.83-.11-3.67-.07-5.51.05-2.27.38-2.55,2.71-2.64h62.09c.8,0,1.6,0,2.39.08,1.21,1.34,1.73,6.07.84,7.47-.69,1.08-1.78.88-2.8.88H319.87q-15.58,0-31.17,0C287.84,128.38,286.94,128.66,286.13,128.13Z"/><path class="cls-1" d="M410.37,120.05c4.08,0,8.16-.07,12.24-.07l112.25,0c4.62,0,4.74.13,4.67,4.67a15.74,15.74,0,0,1-.08,1.68,1.89,1.89,0,0,1-1.88,1.82,11.7,11.7,0,0,1-1.19.07l-43.9-.05c-.86-1.32.3-1.67,1.08-2.12,2.7-1.56,5.55-2.82,8.52-4.37-1.85,0-3.5,0-5.14,0H428.55a15.9,15.9,0,0,0-4.3.29,2.38,2.38,0,0,0,0,4.7,15,15,0,0,0,4.06.29q30.24,0,60.47,0c1.33,0,2.94-.52,3.76,1.21a11,11,0,0,1-3.56.36q-32.76,0-65.52,0c-4.15,0-8.31-.23-12.47-.35a.75.75,0,0,1-.89-.05C408.73,125.65,408.87,121.79,410.37,120.05Z"/><path class="cls-1" d="M410.33,128.13l.64.06a7.55,7.55,0,0,1-2.83.42c-7,0-14.08.25-21.11-.08-10.07-.47-20.15-.46-30.21-.2-22.23.57-44.46.08-66.69.27a8,8,0,0,1-4-.47h63c3.93,0,4.16-.25,4.17-4.26,0-1.27,0-2.55,0-3.83h32.22a3.42,3.42,0,0,1,1.22,2.82c.3,3,1.23,3.93,4.26,4,5.43.16,10.87,0,16.3.06C408.44,127,409.58,127,410.33,128.13Z"/><path class="cls-3" d="M410.33,128.13H389.09c-3.22,0-3.61-.41-3.65-3.54,0-1.52,0-3,0-4.54,8.3-.16,16.6-.14,24.9,0C410.36,122.74,410.35,125.44,410.33,128.13Z"/><path class="cls-1" d="M539.46,103.69c0,1.2.1,2.41,0,3.6-.11,1.49-.59,1.93-2.1,2.09a17.51,17.51,0,0,1-1.92.06H290.22c-4,0-4.16-.18-4.16-4.23s.12-4.32,4.3-4.32H535.6a9.36,9.36,0,0,1,3.79.42,2.58,2.58,0,0,1-2.29,1.14c-.87,0-1.75,0-2.62,0H429.17a18.14,18.14,0,0,0-4.77.31,2.34,2.34,0,0,0-.07,4.65,10.35,10.35,0,0,0,3.09.31q48.45,0,96.91,0c4.49,0,8.14-2,11.95-3.87C537.28,103.44,538.32,102.64,539.46,103.69Z"/><path class="cls-5" d="M539.46,103.69c-2.5,1.26-5,2.45-7.49,3.79a13,13,0,0,1-6.45,1.5c-8.79,0-17.59,0-26.39,0H426.21c-.88,0-1.76,0-2.64,0-2.47-.09-2.95-.57-3.07-3-.22-4.21.22-4.68,4.47-4.68H539.39C539.42,102.1,539.44,102.89,539.46,103.69Z"/><path class="cls-3" d="M286.12,85.43V77.77c.57-.43,1.23-.24,1.85-.24q61.11,0,122.2,0a1.82,1.82,0,0,1,1.29,2.34c-.57,2.4-1.36,4.69-4.08,5.54-.41.06-.8.25-1.22.27H288.69A4.62,4.62,0,0,1,286.12,85.43Z"/><path class="cls-5" d="M539.48,83.51l0,1.93a4.08,4.08,0,0,1-2.34.23H422.69c-3.19,0-3.35-.16-3.4-3.38-.08-4.78-.08-4.78,4.63-4.78q51.33,0,102.67,0a20.13,20.13,0,0,1,11.31,3.69C538.78,81.74,539,82.7,539.48,83.51Z"/><path class="cls-1" d="M539.48,83.51c-1-.61-2.07-1.23-3.11-1.81-8.5-4.72-6.1-3.91-15.89-3.92q-46.78-.06-93.58,0h-2.64c-3.38,0-3.8.48-3.77,4a15.44,15.44,0,0,0,.08,1.67,2,2,0,0,0,2,1.95c1.12.07,2.24.08,3.36.08H539.45c-1.36.65-2.82.45-4.24.45q-44,0-87.93,0-20.61,0-41.21,0l-.35-.21.37-.17.45,0A5.45,5.45,0,0,0,407,85a8.81,8.81,0,0,0,3.34-7.18l-.36-.21.37-.2c4.24,0,8.48-.07,12.72-.07H534.46c.72,0,1.44,0,2.16,0,2.38.09,2.83.51,2.9,2.81C539.55,81.27,539.49,82.39,539.48,83.51Z"/><path class="cls-5" d="M410.39,77.38c0,.14,0,.27,0,.41l-39.82,0H286.12a5.37,5.37,0,0,1,3-.48q59.53,0,119.08,0C409,77.29,409.67,77.35,410.39,77.38Z"/><path class="cls-5" d="M406.09,85.46c0,.13,0,.25,0,.38-1,0-2.07.08-3.11.08H290.1c-1.34,0-2.72.24-4-.48H401.05Z"/><path class="cls-3" d="M785.52,440.16c4.24,0,8.47,0,12.71,0,2.88,0,3.33.48,3.34,3.39q0,10.79,0,21.58c0,2.87-.47,3.31-3.4,3.32q-12.84,0-25.67,0c-3,0-3.48-.51-3.49-3.53q-.06-10.68,0-21.34c0-3,.45-3.39,3.56-3.41C776.89,440.14,781.2,440.16,785.52,440.16Z"/><path class="cls-3" d="M714.72,574q0-11.85,0-23.7a21.19,21.19,0,0,1,.06-2.39c.17-1.48.63-1.93,2.11-2.11a15.18,15.18,0,0,1,1.91-.06h24.41a15.34,15.34,0,0,1,1.92.06c1.48.18,1.94.62,2.11,2.1a21.13,21.13,0,0,1,.07,2.39q0,11.85,0,23.7c-.38.4-.88.29-1.35.29H716.08C715.62,574.32,715.12,574.42,714.72,574Z"/><path class="cls-1" d="M714.72,574h32.63a8.08,8.08,0,0,1-3.51.53h-25.6A8.45,8.45,0,0,1,714.72,574Z"/><path class="cls-3" d="M353.25,147.3c-1,0-1.92.07-2.88.07H290.22c-4.17,0-4.18,0-4.18-4.07,0-1.36,0-2.72.08-4.07.73-.51,1.56-.26,2.33-.26h62.61c3.19,0,3.42.17,3.39,3.39C354.43,144.06,355.05,146,353.25,147.3Z"/><path class="cls-1" d="M353.25,147.3c0-1.84.07-3.68,0-5.51s-.61-2.38-2.46-2.55c-.47,0-1,0-1.43,0l-63.24,0c1.35-.72,2.82-.49,4.24-.49q42.6,0,85.19.06H489.3a12.53,12.53,0,0,1,4.52.39c-.78,1.19-2,1.19-3.22,1.19-4.94,0-9.89,0-14.83,0a23.37,23.37,0,0,0-5.47.5c-1.74.39-3.26-.63-5-.61q-22.32.24-44.63.05c-3.36.08-6.71.11-10.07,0-6.22.16-12.44,0-18.67.08-4.1.06-4.74.65-5.24,4.77a3,3,0,0,1-1.18,2.11Z"/><path class="cls-1" d="M470.35,139.23l23.47,0a31.46,31.46,0,0,1,.11,5.74c-.08,1.76-.59,2.22-2.34,2.38-.48,0-1,0-1.44,0H412.28c-.63,0-1.27,0-1.91-.06a7.21,7.21,0,0,1,0-8.07l10.16,0a3.64,3.64,0,0,1,1.23,2.75c.28,2.6,1.1,3.56,3.57,3.6,9.58.15,19.16.21,28.74,0a12.12,12.12,0,0,0,5.19-1.71C462.83,142,466.38,140.14,470.35,139.23Z"/><path class="cls-3" d="M410.35,139.22q0,4,0,8.07-12.45.21-24.9,0c0-1.28,0-2.55,0-3.82,0-4,.26-4.24,4.15-4.26,2.78,0,5.57,0,8.35,0Z"/><path class="cls-3" d="M331.67,47.53a73.06,73.06,0,0,1,0-7.69,4.16,4.16,0,0,1,2.34-.23h75.85a1.79,1.79,0,0,1,.93.26c.52.22,1.07.46,1.06,1.12,0,2.16,1.1,4.49-.87,6.39a3.07,3.07,0,0,1-.89.38q-38.28,0-76.57,0A3.06,3.06,0,0,1,331.67,47.53Z"/><path class="cls-1" d="M539.45,47.51c-1.36.66-2.83.46-4.26.46H448.8q-19.2,0-38.4,0c-.37-.13-.37-.27,0-.41h0a24.42,24.42,0,0,0,0-7.68v0l-.36-.2.37-.2c10.62,0,21.24-.07,31.86-.07h93c1.42,0,2.88-.2,4.24.46-.78,1.26-2,1.19-3.28,1.19H513.7a1.14,1.14,0,0,0,.39.31c6.5,4.68,13.86,5.61,21.59,5C537,46.23,538.52,46.06,539.45,47.51Z"/><path class="cls-5" d="M539.45,47.51c-4.64,0-9.27,0-13.9,0a9.51,9.51,0,0,1-4.81-1.19c-2.72-1.53-5.49-2.94-8.22-4.44a5,5,0,0,1-2.09-1.5.92.92,0,0,1,.08-.25c.05-.06.13-.14.19-.14,9.58-.34,19.16-.07,28.74-.15A61.18,61.18,0,0,1,539.45,47.51Z"/><path class="cls-5" d="M410.39,39.46c0,.14,0,.27,0,.4l-78.7,0a5.1,5.1,0,0,1,2.8-.47h74.23C409.27,39.37,409.83,39.43,410.39,39.46Z"/><path class="cls-1" d="M410.4,47.51v.41c-1,0-1.91.1-2.87.1H335.42c-1.26,0-2.57.19-3.75-.48Z"/><path class="cls-1" d="M780.46,126.86V28.73c0-.88,0-1.76,0-2.64,0-1.17-.24-2.63,1.14-3.15a6.35,6.35,0,0,1,5.12.16,1.81,1.81,0,0,1,.83,1.64q.09,1.32.09,2.64,0,99.56,0,199.13c0,.24,0,.48,0,.72,0,3.77-1.86,5.06-5.58,4a2,2,0,0,1-1.53-1.91c-.06-1-.08-2.08-.08-3.12Z"/><path class="cls-1" d="M743.53,126.7V28.59c0-.88,0-1.76,0-2.64a8.45,8.45,0,0,1,.09-1.43c.29-1.6.94-1.95,3.52-1.94s3.26.36,3.48,2a23,23,0,0,1,.1,3.11q0,32,0,64V225.33c0,1,0,2.08,0,3.12a4,4,0,0,1-.18,1.42c-.89,2.11-2.81,1.41-4.38,1.42-1.76,0-2.33-.49-2.52-1.94a24.75,24.75,0,0,1-.09-3.11Q743.53,176.47,743.53,126.7Z"/><path class="cls-1" d="M764.14,126.72V28.08c0-1,0-2.08.06-3.12.14-1.71.66-2.18,2.41-2.35l.24,0c3.89-.27,4.49.27,4.49,4.17v200.4c0,3.91-.61,4.44-4.49,4.17-2-.15-2.54-.62-2.67-2.61-.07-1,0-2.08,0-3.12Z"/><path class="cls-1" d="M734.42,127v98.88c0,1,0,2.08-.06,3.12-.14,1.71-.66,2.18-2.41,2.35l-.24,0c-3.88.27-4.49-.27-4.49-4.17V26.76c0-3.9.6-4.44,4.49-4.17,2,.14,2.54.62,2.67,2.61.07,1,0,2.08,0,3.12Z"/><path class="cls-1" d="M718.1,145.94v80.13a29.29,29.29,0,0,1-.08,3.11c-.15,1.47-.65,1.91-2.13,2.11l-.24,0c-3.91.4-4.74-.31-4.74-4.21q0-81.43,0-162.89c0-3.85,1.7-5.08,5.5-4.07A2,2,0,0,1,718,62c.08,1,.09,2.08.09,3.12Z"/><path class="cls-1" d="M804,108.24q0,39.84,0,79.67a37.43,37.43,0,0,1-.18,3.82,2.22,2.22,0,0,1-2.23,2.11l-.95.06c-3.42.11-4.13-.54-4.24-3.9,0-.72,0-1.44,0-2.16V28.51a26.81,26.81,0,0,1,.16-3.59c.21-1.56.8-2.07,2.31-2.29C803,22,804,22.85,804,27.14Q804,67.69,804,108.24Z"/><path class="cls-6" d="M741.57,481.19v30.24c0,.4,0,.8,0,1.2,0,3.49-.36,3.83-3.87,3.84-4.48,0-9,0-13.44,0-.56,0-1.12,0-1.67-.06a2,2,0,0,1-2-2c-.06-.72-.08-1.44-.08-2.16V449.65c0-4,.25-4.2,4.23-4.21q6.48,0,13,0c3.53,0,3.88.34,3.89,3.82Q741.59,465.23,741.57,481.19Z"/><path class="cls-1" d="M775.18,498.23a7.78,7.78,0,0,1,3.06-.46h14.14c.48,0,1,0,1.44.07a1.94,1.94,0,0,1,1.94,2c.06.87.07,1.75.07,2.63q0,30.79,0,61.6c0,4.61-.1,4.7-4.67,4.71-4.08,0-8.15,0-12.23,0-.72,0-1.44,0-2.15-.08a1.94,1.94,0,0,1-2-2c-.06-.87-.07-1.75-.07-2.63q0-30.8,0-61.6a11.64,11.64,0,0,1,.44-4.27c1.1.78,1.21,1.93,1.21,3.15,0,4.31-.06,8.63,0,12.94.07,3.73,1,4.71,4.7,4.78,3,.07,6.07.13,9.1,0,2.72-.15,3.74-1.14,3.86-3.87.17-3.9.16-7.82,0-11.73-.11-2.83-1.14-3.83-4-3.95-3.91-.16-7.82,0-11.74-.06C777.11,499.44,776,499.33,775.18,498.23Z"/><path class="cls-1" d="M801.57,574l0,.53H773.69c-.79,0-1.59,0-2.38,0a2.12,2.12,0,0,1-2.34-1.9,3.55,3.55,0,0,0,3.35,1.45c3.51,0,7,0,10.55,0Z"/><path class="cls-5" d="M525.6,147.34c-3.52,0-7,0-10.55,0-2.48,0-2.86-.47-2.93-3-.13-5.09,0-5.19,5.13-5.22,5.91,0,11.82-.45,17.73-.29.72,0,1.45,0,2.16,0,1.81.14,2.27.57,2.37,2.32.07,1.2.06,2.4,0,3.6-.1,2-.55,2.51-2.65,2.54-3.75.06-7.51,0-11.27,0Z"/><path class="cls-1" d="M718.09,34.08c0,2.71,0,5.43,0,8.15,0,1.2,0,2.55-1.43,3a5.88,5.88,0,0,1-4.87-.22c-.84-.49-.84-1.5-.85-2.38,0-2.8,0-5.59,0-8.39s0-5.75,0-8.62c.06-2.4.64-2.92,3-3a13.64,13.64,0,0,1,1.43,0c2,.13,2.59.62,2.64,2.61.08,3,0,5.91,0,8.87Z"/><path class="cls-1" d="M803.94,220c0,2.64,0,5.27,0,7.91,0,1.2,0,2.59-1.39,3.07a6.4,6.4,0,0,1-5.11-.17,1.79,1.79,0,0,1-.85-1.39,12.27,12.27,0,0,1-.21-1.9c0-5,0-10.08,0-15.11,0-1.27-.1-2.77,1.4-3.28a6.43,6.43,0,0,1,5.12.17c1,.49,1,1.58,1,2.54,0,2.72,0,5.44,0,8.16Z"/><path class="cls-3" d="M577.18,520.38a7.3,7.3,0,0,1,.87-3q3.78-8.43,7.59-16.85c.66-1.45,1.3-2.92,2-4.37.2-.42.42-.94,1-.92s.75.53.95,1q2.09,4.59,4.15,9.18c1.9,4.24,3.75,8.49,5.7,12.7a4.62,4.62,0,0,1,.08,4.13c-3.16,6.92-6.26,13.85-9.42,20.76-.34.76-.53,1.94-1.53,2s-1.12-1.22-1.46-2q-4.62-10.15-9.19-20.34A6.27,6.27,0,0,1,577.18,520.38Z"/><path class="cls-1" d="M570.06,519.62a5.16,5.16,0,0,1-.53,2.07q-2.92,6.43-5.86,12.86c-.22.49-.33,1.19-1,1.16s-.79-.7-1-1.2c-2-4.36-3.93-8.73-5.94-13.08a4.45,4.45,0,0,1,0-3.93q2.93-6.43,5.87-12.86a5.26,5.26,0,0,1,.46-.84c.44-.61.92-.59,1.34,0a7,7,0,0,1,.71,1.25c1.8,4,3.6,8,5.38,12A6.32,6.32,0,0,1,570.06,519.62Z"/><path class="cls-3" d="M299.86,39.44c3.67,0,7.34,0,11,0,2.25,0,2.59.42,2.66,2.7,0,1.27,0,2.55,0,3.83a1.77,1.77,0,0,1-1.95,1.92c-.4,0-.8,0-1.2,0H289.3c-.48,0-1,0-1.43,0a1.7,1.7,0,0,1-1.78-1.83c0-1.44-.08-2.87,0-4.31.07-1.82.47-2.24,2.31-2.29,2.95-.07,5.9,0,8.85,0h2.63Z"/><path class="cls-5" d="M492.52,128.19l-66.63,0c-1,0-1.93,0-2.88-.05-1.86-.14-2.39-.64-2.48-2.52-.26-5.19.46-5.11,4.51-5.1h77.43a5.93,5.93,0,0,1,2.94.36,6.94,6.94,0,0,1-2.77,2c-2.55,1.33-5.14,2.58-7.7,3.89-.85.44-1.64,1-2.46,1.49Z"/><path class="cls-5" d="M407,85l-.5.46Z"/><path class="cls-2" d="M785.24,445.46c2.55,0,5.11,0,7.66,0,2.32.06,2.86.56,2.89,2.85q.09,6,0,12c0,2.29-.56,2.83-2.86,2.85q-7.56.09-15.1,0c-2.43,0-3-.59-3-3q-.09-6,0-12c0-2.14.58-2.65,2.77-2.7C780.12,445.41,782.68,445.46,785.24,445.46Z"/><path class="cls-2" d="M731,568.79c-2.48,0-5,0-7.43,0s-3-.53-3.05-2.94q-.07-6,0-12c0-2.2.55-2.74,2.71-2.77q7.68-.09,15.34,0c2.31,0,2.9.6,2.94,2.84.08,4.07.07,8.15,0,12.22,0,2-.59,2.55-2.62,2.61-2.63.08-5.27,0-7.9,0Z"/><path class="cls-5" d="M470.35,139.23c-4.21,2.94-8.93,4.9-13.51,7.14a7.34,7.34,0,0,1-3.29.5c-9.88,0-19.76,0-29.64,0-2.89,0-3.35-.5-3.42-3.32,0-1.44,0-2.87,0-4.31Z"/><path class="cls-1" d="M410.39,39.84a13.92,13.92,0,0,1,0,7.68Z"/><path class="cls-5" d="M420.5,39.85c10.63,0,21.25,0,31.88,0a14,14,0,0,1,7.11,1.75c2.86,1.59,5.79,3.07,8.68,4.61.4.21.92.32,1.06.87-.11.12-.21.32-.32.32-16.13.31-32.27.07-48.41.14A7.6,7.6,0,0,1,420.5,39.85Z"/><path class="cls-1" d="M420.5,39.85v7.66a2,2,0,0,1-1.84-1.84,17.66,17.66,0,0,1,0-4A2,2,0,0,1,420.5,39.85Z"/><path class="cls-2" d="M775.18,498.23h15.57c.71,0,1.44,0,2.15.05,1.74.16,2.25.64,2.4,2.36.09,1,.06,2.07.06,3.11,0,4.39,0,8.78,0,13.17,0,2.86-.51,3.35-3.37,3.37q-6.71.06-13.41,0c-2.84,0-3.32-.51-3.34-3.4,0-6.23,0-12.45,0-18.68Z"/><path class="cls-2" d="M785.15,568.3c-2.32,0-4.64.05-7,0s-2.91-.56-3-2.81c-.07-3.76-.06-7.51,0-11.27,0-2,.62-2.61,2.61-2.64,5-.07,9.91-.06,14.87,0,1.91,0,2.52.6,2.56,2.43q.13,5.88,0,11.75c0,2-.65,2.47-2.72,2.53-2.48.07-5,0-7.43,0Z"/><path class="cls-2" d="M592.17,520.44a30.29,30.29,0,0,1-2.95,6.84.69.69,0,0,1-1.31,0,28.14,28.14,0,0,1-2.85-6.54,2.38,2.38,0,0,1,.09-1.4q1.26-3.09,2.65-6.12c.31-.68,1-1.09,1.4-.18a39.09,39.09,0,0,1,2.8,6.31A8.54,8.54,0,0,1,592.17,520.44Z"/></svg>