<svg id="Layer_1" data-name="Layer 1" xmlns="http://www.w3.org/2000/svg" viewBox="0 0 3508 2482"><defs><style>.cls-1{fill:#444;}.cls-2{fill:#525252;}.cls-3{fill:#242424;}.cls-4{fill:#353535;}.cls-5{fill:#a9a9a9;}.cls-6{fill:#2b2b2b;}.cls-7{fill:#6b6b6b;}.cls-8{fill:#595959;}.cls-9{fill:#646464;}.cls-10{fill:#9a9a9a;}.cls-11{fill:#a5a5a5;}.cls-12{fill:#b3b3b3;}.cls-13{fill:#656565;}.cls-14{fill:#252525;}.cls-15{fill:#909090;}.cls-16{fill:#4b4b4b;}.cls-17{fill:#474747;}.cls-18{fill:#6a6a6a;}.cls-19{fill:#b2b2b2;}.cls-20{fill:#4c4c4c;}.cls-21{fill:#3b3b3b;}.cls-22{fill:#262626;}.cls-23{fill:#505050;}.cls-24{fill:#2a2a2a;}.cls-25{fill:#292929;}.cls-26{fill:#272727;}.cls-27{fill:#282828;}</style></defs><path class="cls-1" d="M.1,2479.58v-202c6.89-11.8,17-20.83,26.47-30.34q494.13-493.82,988-987.93c6.79-6.79,14.75-12.28,21-19.61a6.05,6.05,0,0,1,2.53-1.5,5.6,5.6,0,0,1,4.17,1.21c4.1,6.24,10.94,9.48,16.09,14.65q110.19,110.58,220.72,220.85c1.41,1.41,2.83,2.82,4.2,4.26,9.83,10.36,9,14.32-4,20.1-4.75,2.62-6.6,6.55-4.85,11.71,1.44,4.24,4.7,6.51,9.21,6.13,5.47-.46,7.91-4.33,9.21-9.15.51-1.92.61-4,2.23-5.43,3.27-3.92,6.81-3.47,10.45-.59a97.63,97.63,0,0,1,8,7.49q52.62,52.44,105.09,105c3.77,3.77,7.5,7.55,9.94,12.37,2.34,5.73-2.28,12.47,3,17.92,5,5.22,11.33,1.76,16.84,3.27a13.66,13.66,0,0,1,2.63,1.4c6.65,2.91,11.09,8.48,16,13.39q84.89,84.75,169.76,169.55c3.33,3.32,6.42,9.94,11.65,7.55,5-2.27,2.55-9.07,2.55-13.85q.15-280.89.19-561.8c0-7.1-2-14.77,3.38-21.11,2.67-1.8,4.75-.5,7.25.87,6.28,3.45,11,8.65,15.89,13.58q292.24,292.23,584.53,584.42c5.15,5.15,9.85,11,17.87,11.87,8.92,2.83,13.69.44,17.31-7.61,1.88-4.17-.15-9.62,4.43-12.78,5.22-.58,6,3.24,6.48,6.89.77,6.26,1.07,12.57-.9,18.7-.9,5.9-5.21,7-10.21,7.36-6,.44-7,3.07-3,7.53,2,2.22,4.18,4.29,6.3,6.4q290.07,289.77,579.86,579.79c4,4,8.45,7.65,11.56,12.4,3.28,5,2.22,8.23-4.51,8q-335.83,0-671.6,0c-4,0-8,.45-11.95-.43-3.79-2.52-4.34-6.49-4.61-10.53-.4-6-.27-12-.27-18q0-228,0-455.9c0-5,.28-10-.39-15-1.27-9.31-6.41-13.8-15.35-13.58-8.47.21-12.93,4.52-14,13.77-.57,5-.31,10-.31,15q0,229.95-.07,459.9c0,7.24,1.14,14.7-2.19,21.64a7.39,7.39,0,0,1-2.59,2.68c-11.1.93-22.23.38-33.36.31a7.51,7.51,0,0,1-3-2.3c-4-6.78-2.69-14.28-2.7-21.5q-.14-230.77-.07-461.54c0-5,.29-10-.41-15-1.2-8.6-5.86-12.88-13.74-12.84s-12.38,4.33-13.53,13c-.66,5-.38,10-.38,15q0,230.27-.07,460.54c0,7.25,1.14,14.69-2.19,21.63a7.45,7.45,0,0,1-2.59,2.67c-11.11.91-22.24.38-33.36.3a7.6,7.6,0,0,1-3-2.3c-4-6.78-2.69-14.28-2.69-21.5q-.15-230.79-.08-461.58c0-5,.3-10-.41-15-1.25-8.86-6.08-13-14.73-13s-13.33,4.23-14.53,13.2c-.67,5-.38,10-.38,15q0,230.28-.07,460.57c0,7.24,1.14,14.69-2.2,21.63a7.37,7.37,0,0,1-2.59,2.67c-11.11.91-22.23.38-33.36.3a7.57,7.57,0,0,1-3-2.3c-4-6.78-2.69-14.28-2.7-21.5q-.13-230.77-.07-461.54c0-5,.29-10-.41-15-1.2-8.6-5.87-12.88-13.74-12.84s-12.38,4.33-13.53,13c-.66,5-.38,10-.38,15q0,230.27-.07,460.54c0,7.25,1.14,14.69-2.19,21.63a7.47,7.47,0,0,1-2.6,2.67c-11.1.91-22.23.38-33.35.3a7.6,7.6,0,0,1-3-2.3c-4-6.78-2.69-14.28-2.69-21.5q-.15-230.77-.08-461.54c0-5,.29-10-.4-15-1.21-8.6-5.87-12.88-13.74-12.84s-12.39,4.33-13.54,13c-.66,5-.38,10-.38,15q0,230.27-.07,460.54c0,7.25,1.14,14.69-2.19,21.63a7.37,7.37,0,0,1-2.59,2.67c-11.11.91-22.23.38-33.36.3a7.67,7.67,0,0,1-3-2.3c-4-6.78-2.68-14.28-2.69-21.5q-.13-230.79-.08-461.58c0-5,.3-10-.4-15-1.26-8.86-6.08-13-14.74-13s-13.33,4.23-14.53,13.2c-.67,5-.38,10-.38,15q0,230.28-.07,460.57c0,7.24,1.14,14.69-2.19,21.63a7.47,7.47,0,0,1-2.6,2.67c-11.11.91-22.23.38-33.36.3a7.6,7.6,0,0,1-3-2.31c-4-6.77-2.68-14.28-2.69-21.49q-.13-230.77-.07-461.54c0-5,.29-10-.4-15-1.2-8.57-5.91-12.9-13.74-12.85s-12.41,4.4-13.55,13c-.65,5-.37,10-.37,15q0,230.77-.08,461.54c0,7.21,1.37,14.73-2.85,21.44a6.68,6.68,0,0,1-3.18,2.2c-1.34.09-2.67.11-4,.11q-553.26,0-1106.51,0a5.34,5.34,0,0,1-3.58-1.3c-6.55-15.57-4-31.44-1.58-47.29a9.14,9.14,0,0,1,1.58-3.24c3.74-3.27,8.34-3.82,13.05-4,5.64-.18,11.3,0,16.94-.14,14.92-.27,18.18-3.42,18.29-18.31.15-18.94.23-37.89,0-56.83-.18-13.08-3.71-16.24-16.7-16.92-10.17-.53-20.67,2-30.42-3a7.17,7.17,0,0,1-2.17-2.44c-4-9.93-2.27-20.36-2.63-30.6-.45-12.75-3.34-16-16.22-15.83-7.62.09-16.3-2.77-22,5.47-3.36,11.82-4.3,24-5.77,36.08-.58,4.78-1.93,9-7,9.29-15.4.93-30.93,3.36-46.08-1.94-4-3.31-4.47-7.94-4.72-12.62-.29-5.31-.14-10.63-.17-16-.13-18.07-2.6-20.47-21-20.47-2,0-4-.05-6,.06-11.19.58-14.51,3.92-15,15.4-.28,6.64.05,13.3-.21,19.94-.2,5-.51,10-4.77,13.63-16.9,4.19-33.75,5.38-50.51-.49-5-3.69-6.56-8.77-6.5-14.83.07-7.32.29-14.66-.28-22-.55-7-4.37-10.9-11.44-11.51-1.32-.12.33,0-1-.09-26.47-2.74-32.36,3.37-29.23,29.84.9,7.53,4.74,11.43,12.21,11.88s14.66.24,22,.24c5.69,0,10.48,1.48,14,6.23,3.57,3.34,3.46,7.82,3.51,12.08q.45,38.34,0,76.7a23.6,23.6,0,0,1-2.59,11.52c-3.07,4.21-7.68,4.81-12.35,5.12-5,.34-9.93.19-14.9.21-19.6.1-21.88,2.32-22,21.51,0,4,0,8-.15,11.92s-.43,8-3.32,11.18a5.75,5.75,0,0,1-3.42,1.39q-172.65.12-345.28,0C5.94,2480.55,2.87,2481.31.1,2479.58Z"/><path class="cls-2" d="M3507.9,10V1839.7c-2.87,3.06-5.85,2.75-8.75.13-2.47-2.23-4.77-4.65-7.12-7q-348.75-348.7-697.49-697.42c-4.44-4.44-9.16-8.45-10.27-15.43-1-6.25-6.13-4.42-10.3-3.63-9.87.22-16.79-5.37-23.23-11.89q-48.13-48.69-96.61-97-63.09-62.73-126-125.62Q2408.8,762.9,2289.84,643.65A174,174,0,0,1,2272,622.27a7.68,7.68,0,0,1-.8-3.39c-.44-56.63-.16-113.22-.18-169.81q-.06-212.23.07-424.47c0-7.49-1.62-15.43,3.5-22.18,8.88-3.09,18.06-.59,27-1.39,6.3.67,7.3,5.72,6.94,10.25-1.06,13.06,5.41,22,14.52,30,6.68,5.86,12.11,13.1,19.42,18.29,3.72-2.15,2.41-5.47,2.45-8.18.17-12.28,0-24.56.14-36.84.06-4.65,0-9.41,4.14-12.79a5.78,5.78,0,0,1,3.2-.77c16.36.11,32.71-.25,49,.18,6,3.53,5.3,9.55,5.34,15.08.22,29.57.56,59.15-.12,88.71-.32,14.07,3.58,25.27,14.39,34.3,4.57,3.82,8.41,8.49,12.82,12.54,1.69,1.55,3.5,3.57,6,2.7,3.13-1.07,2.79-4.18,3-6.77.2-3,.08-6,.08-9,0-40.54-.1-81.08.1-121.61,0-5.81-.95-12.24,5.46-16,17-.2,34-.37,51,.08,6.5,4.27,5.2,11.09,5.23,17.2.22,40.93.09,81.86.11,122.79,0,21.29.33,42.6-.13,63.89-.25,12.14,3.29,22.09,12.41,30.21,5.21,4.63,9.66,10.11,15,14.6,4.84,4,7.86,2.63,8.57-3.58a89.58,89.58,0,0,0,.19-10c0-72.21-.07-144.42.11-216.63,0-6.41-1.57-13.57,5-18.38,17.92-.61,35.82-.58,53.73,0,5,3.18,4.83,8.42,5,13.35.36,12.31.15,24.62.16,36.94,0,83.87.6,167.76-.39,251.62-.27,23.17,14.95,34.2,28.8,47.23,3.22,3,6.28,1.37,7.19-2.95.83-3.93.47-8,.47-11.95q0-157.26.11-314.53c0-6.74-1.76-14.22,4.69-19.55,17.38-.86,34.76-.72,52.14-.09,3.92,2.42,4.39,6.43,4.7,10.45.43,5.65.28,11.32.28,17,0,123.56.52,247.13-.45,370.68-.18,23.46,14,35.37,28.35,48.54,3.67,3.35,6.85,1.69,7.76-3.21.74-3.95.41-8,.41-12q0-205.32.12-410.65c0-7-2-14.86,4.55-20.63,17.45-1.09,34.9-.78,52.35-.16,4.2,2.75,4.44,7.17,4.7,11.5.35,6,.21,12,.21,18,0,155.28.47,310.56-.48,465.83-.15,24.78,15,37,30,50.87,4.18,3.85,7.36,1.25,8.16-3.94.61-4,.34-8,.34-12q0-253.91.1-507.82c0-7.44-1.91-15.49,4.1-21.92,17-2.09,34.13-.49,51.2-.9a5.75,5.75,0,0,1,3.31,1.67c4.33,5.9,3.14,12.78,3.14,19.33q.18,135.39.07,270.77,0,146.88.1,293.76c0,5-2.4,12,3.66,14.27,5.24,2,8.47-4.22,11.86-7.61,29.37-29.32,26.42-22.77,26.44-63.36q.09-252.3.08-504.58c0-7.24-1.2-14.71,2.43-21.58a7.48,7.48,0,0,1,2.75-2.46c14.82-.58,29.65-.22,44.48-.18A6.36,6.36,0,0,1,2995.84,3c4.4,6.65,3,14.19,3,21.39q.15,230.81.08,461.6c0,4-.28,8,.29,12,.89,6.25,4.42,7.5,8.82,3.42,10-9.26,20.27-18.36,28.41-29.4,4.61-6.23,4.53-13.75,4.53-21.12q0-56,0-111.91,0-157.36.06-314.73c0-6.9-1.13-14,2.51-20.55a7.59,7.59,0,0,1,2.78-2.4c15.41-.5,30.83-.19,46.25-.16a6.15,6.15,0,0,1,3.19,1.73c4.41,6.27,3.05,13.5,3.06,20.37q.17,181,.17,361.92c0,6.1-3,15,2.88,17.63,7,3.15,10.33-6.39,15.44-10.15,19.17-14.1,24.39-32.89,24.14-56.55-1.11-104.29-.51-208.61-.42-312.92,0-6.58-1.05-13.4,2.56-19.55a7.71,7.71,0,0,1,2.79-2.34c14.69-.45,29.39-.16,44.08-.15a5.81,5.81,0,0,1,3.19,1.59c4.36,5.89,3.16,12.78,3.17,19.33.11,89.3,0,178.6.18,267.9,0,5.34-2.89,13.07,3.15,15.46,5.84,2.3,9.35-5.06,13.16-8.87,28.68-28.64,25.57-21.61,25.63-61.64.1-71,0-142,.08-212.92,0-6.25-1-12.74,2.68-18.5a8,8,0,0,1,2.81-2.24c14.57-.37,29.13-.12,43.69-.13a5.61,5.61,0,0,1,3.21,1.33c4.47,5.44,3.39,12,3.4,18.21.12,57.94,0,115.87.16,173.81,0,4.71-2.46,11.49,2.95,13.58,5.2,2,8.33-4.38,11.68-7.76,31.38-31.6,27.11-21.79,27.33-65.82.19-38.29,0-76.58.09-114.87,0-5.59-.73-11.41,2.88-16.42a6.93,6.93,0,0,1,2.87-2c14.93-.26,29.86-.06,44.77-.1a5.34,5.34,0,0,1,3.16.84c4.59,4,4.07,9.55,4.1,14.8.14,26.57,0,53.14.07,79.71,0,2.65-.12,5.32.13,8,.45,5,2.93,7.14,7,3.28,10.79-10.32,22-20.31,31.26-32.07,3.44-4.36,3.68-9.85,3.71-15.22.07-14.62-.07-29.23.08-43.84.06-5-.29-10.07,3.42-14.18a5.51,5.51,0,0,1,3.05-1.25c13.8-.1,27.59,0,41.36,0,5.1,0,6.79,3.53,7.56,7.66.88,4.66,2.86,5.74,6.6,2.56C3501.72,9,3504.52,7.45,3507.9,10Z"/><path class="cls-2" d="M1038,1242c-2.93,3.19-5.76,6.47-8.81,9.53Q520.92,1759.82,12.6,2268c-3.72,3.72-6.89,8.29-12.5,9.61v-2c1.88-3.45,1-7.19,1-10.78q.06-506.13,0-1012.25c0-3.59.92-7.33-1-10.79v-2c2.39-2.43,3.54-5.83,6.28-8,3.22-5.56,7.65-10.09,12.46-14.23,8.45-7.26,13.43-5.6,16,5.19,2.61,11.16,5.72,13.71,17.08,14,14.63.36,19-3.81,19.22-18.75.2-14,.15-28,0-42-.06-7.46,2.18-13.45,7.58-18.75,12.84-12.6,25.28-25.62,38.34-38,2.89-2.74,5.91-6,10.42-4.51,5.13,1.71,5.2,6.57,5.29,10.85.61,27.66.15,55.32.28,83,0,3,0,6,0,9,.3,16.89,13.19,24.79,28.62,17.6,4-1.86,6-5.06,6.82-9.23s.6-8.64.6-13c0-44,.12-88-.08-132,0-9.62,2.51-17.22,9.7-23.94,12.17-11.37,23.48-23.65,35.59-35.11,3.28-3.11,6.59-7.41,12-4.86,4.78,2.24,4.38,7.18,4.48,11.4.49,21.66.19,43.33.22,65,0,40.66,0,81.32,0,122,0,19,10.21,26.17,28.62,20.38a12,12,0,0,0,8.75-9.9c.9-4.61.66-9.29.66-14,0-76,.17-152-.15-228,0-11.81,2.86-21,11.85-29.11,11.89-10.68,22.56-22.68,34.23-33.63,3.11-2.91,6.35-6.55,11.31-4.21,4.35,2,4.14,6.49,4.43,10.44.4,5.32.25,10.66.26,16q0,132.48,0,265c0,3.67-.07,7.34.06,11,.48,13.22,4.57,17.19,17.71,17.28,13.69.1,18.12-3.9,18.22-17.68.25-35.32.08-70.65.09-106,0-74.32.35-148.64-.29-222.95-.14-15.25,3.84-26.77,15.44-36.71,10.85-9.31,20.23-20.28,30.71-30.06,3.12-2.92,6.35-6.55,11.31-4.24,4.34,2,4.18,6.46,4.48,10.42.42,5.65.26,11.32.26,17q0,180.47,0,360.93c0,3.34,0,6.67,0,10,.26,15.85,4.91,20.17,20.66,19.22,10.91-.65,14.63-4.4,15.28-15.56.25-4.32.11-8.66.11-13,0-139,.18-278-.27-416.93,0-14.52,3.63-25.53,14.68-35,10.09-8.66,18.86-18.83,28.53-28,3.62-3.44,7.24-7.12,13-6,3.75,1.67,3.94,5,4,8.41,0,3.66,0,7.32,0,11q0,224.24.06,448.46c0,14,2.62,27.69,5.79,41.24,8.21,7.73,22.37,7.82,30.61.08,2.78-13,5.54-26,5.54-39.42q0-201.91.12-403.83c0-5.21-2.88-12.39,4.12-15,6-2.27,9.42,3.84,13.09,7.36,11.79,11.29,23.3,22.88,34.65,34.62,3,3.07,6.48,5.87,7.18,10.54-.89,10.32.93,20.55.91,30.87q-.27,176.85-.1,353.71c0,24.52,2.09,26.57,27,26.58q178.38,0,356.75,0c8.19,0,16.42-.33,24.26,2.75A16,16,0,0,1,1038,1242Z"/><path class="cls-3" d="M2892.19,2479.23c-3.66-3.86-7.24-7.81-11-11.57q-296-296-591.92-592c-3.52-3.52-10.78-6.63-8.38-12,1.89-4.23,9.14-1.34,14-1.81,3-.29,6-.2,9-.28,3.24-3.94,7.73-4.57,12.42-4.68,11.14-.25,22.29-.26,33.42.23,17.38-.54,34.76-.61,52.14,0,15.37-.54,30.74-.58,46.11,0,17.31-.56,34.61-.6,51.92,0,16-.72,32-.19,48-.34q25-.1,50,0c16,.18,32-.4,48,.35,17.3-.56,34.61-.6,51.92,0,15.36-.54,30.72-.58,46.08,0,17.31-.56,34.63-.6,51.93,0,16-.55,32.08-.58,48.12,0q26.21-.87,52.41,0c5-.2,10-.38,15-.38q287.47,0,575,.1c7.38,0,15.58-2.09,21.55,4.85v617.89c-3.11,1.82-6.52,1-9.78,1q-301.18.06-602.37,0A4.3,4.3,0,0,1,2892.19,2479.23Z"/><path class="cls-2" d="M.1,621.91v-2c1.94-3.79,1-7.85,1-11.77Q1.14,311,1.13,13.89c0-4-.62-8,.61-11.9C5.54.12,9.6,1.07,13.53,1.07Q213.72,1,413.88,1h3.32c9.41,1.59,15.72,8,22.07,14.35Q597.51,173.54,755.7,331.76q136,135.93,271.93,271.89a131.46,131.46,0,0,1,9.64,10.11c4,5,3.7,9.07-2.7,11.75-4.9,1.46-9.92,1.32-14.91,1.33q-288.84.09-577.69.1c-7.21,0-14.51-2.44-21.66.54-7.3-.64-14.62-.61-21.95-.61q-185.71,0-371.45,0c-7.29,0-14.68.65-21.75-1.94A10.86,10.86,0,0,1,.1,621.91Z"/><path class="cls-4" d="M3507.9,1861.69l-601.3,0c-3.66,0-7.32-.2-11-.3-3.49-2.71-4.35-6.49-4.48-10.64-.15-4.66-.14-9.32-.14-14q0-284.28,0-568.56c0-6.22-.42-12.46,1.26-18.6,2.28-8.41,5.7-9.7,12.11-4.25,2.28,1.94,4.3,4.18,6.42,6.3q292.09,292,584.22,584.08c5.31,5.31,10.32,10.71,12.87,17.94Z"/><path class="cls-2" d="M3507.9,1853.7c-3.66-3.4-7.42-6.68-11-10.2q-294.69-294.6-589.37-589.21c-2.95-3-5.34-6.75-9.54-8-2.81,1.87-2,4.41-2.14,6.61-.15,3.33-.05,6.66-.05,10q0,290.77,0,581.54c0,5.66-.14,11.32-.22,17l-51.53.16c-3.64-2.54-4.62-6.28-4.85-10.43-.24-4.32-.25-8.65-.25-13q0-263.14-.27-526.28c0-14.76,3.46-26.12,14.79-35.94,11-9.56,20.94-20.46,31.2-30.86,2.25-4.48-.17-7.15-3.29-10.22-30.65-30.13-60.83-60.72-91.33-91a166.82,166.82,0,0,1-11.12-12.8c-2-5.63-5.14-10.85-6.52-16.73a7.83,7.83,0,0,1,1.39-2.47c7.48-.77,13.1,1.08,14.81,9.56.42,2.1,2.29,4,3.79,5.75,1.94,2.27,4.16,4.31,6.28,6.42q348,347.93,696,695.82c4,3.95,7.28,8.83,13.22,10.28Z"/><path class="cls-5" d="M2304,2.28a218.68,218.68,0,0,0-28.16.08c-2.84,3.27-6.63,4.2-10.75,4.4-5.32.25-10.65.22-16,.22q-592.68,0-1185.37-.11c-8.43,0-17.38,2.24-25.24-3.14A3.35,3.35,0,0,1,1038,0H2350l1.32.91-1.46.66.21.79c-8.89,7.55-19.55,3.83-29.48,4.43C2314.75,7.16,2308.51,7.51,2304,2.28Z"/><path class="cls-6" d="M.1,621.91l4,.18c3.59,2.61,4.48,6.39,4.68,10.53.24,5,.24,10,.24,15q0,280.74,0,561.49c0,9.06.19,18.14-2.79,26.89A8.11,8.11,0,0,1,.1,1239.8Z"/><path class="cls-7" d="M614.39,2480.13c4.66-.18,9.31-.52,14-.52q542.69,0,1085.39,0c4.65,0,9.31.3,14,.45.64.24.89.54.76.92s-.3.61-.48.61H614.07c-.51-.45-.63-.81-.37-1.1A1,1,0,0,1,614.39,2480.13Z"/><path class="cls-8" d="M.1,1241.8a16.54,16.54,0,0,1,2,8.66c0,2.67,0,5.33,0,8q0,500.25,0,1000.51c0,5.59,1,11.38-2,16.65Z"/><path class="cls-9" d="M2892.19,2479.23c.56.17,1.11.35,1.66.56q2.16.8.08,1.79H2202a1.47,1.47,0,0,1-.73-1.26c0-.51.09-.77.22-.77a2,2,0,0,1,2.19-.4c26.64.15,53.29.41,79.93.42q297.83,0,595.63,0C2883.54,2479.57,2887.87,2479.35,2892.19,2479.23Z"/><path class="cls-10" d="M1038,0q0,.83.06,1.65c-1.53,4.3-5.29,4.58-9,4.94-4.64.45-9.31.36-14,.36Q731,7,446.89,7c-9.16,0-18.32.18-26.63-4.62L418,1.76c-1.42-.66-1.39-1.23.09-1.74Z"/><path class="cls-8" d="M2.13,2.39q0,300.44-.06,600.87c0,5.59,1,11.38-2,16.65V2C1,1,1.67,1.07,2.13,2.39Z"/><path class="cls-2" d="M2893.93,2481.58c0-.59,0-1.19-.08-1.79,5.32-.07,10.64-.2,16-.2H3507.9c-.44.62,1,2.09-1,2-2.67-.09-5.33,0-8,0Z"/><path class="cls-11" d="M2349.83,1.59c0-.52.09-1,.14-1.57h546c.63.31.84.62.63.94s-.4.48-.61.48c-13.43,1.19-26.89.23-40.33.56-3.93.09-7.86.28-11.79.42a12.07,12.07,0,0,1-7.67,4,202.05,202.05,0,0,1-32.45,0,12.06,12.06,0,0,1-7.66-4c-17.4-.73-34.8-.59-52.19-.09-1.93,1.81-3.88,3.92-6.67,3.87-13.14-.22-26.81,4.62-39.15-3.82q-26.1-.93-52.19,0c-8.83,7.63-19.47,3.79-29.34,4.43-5.79.37-12,.67-16.48-4.5h-54.16c-1.94,1.78-3.85,3.92-6.65,3.88-13.15-.2-26.81,4.59-39.16-3.8-17.4-.67-34.79-.62-52.19,0-1.91,1.84-3.93,3.89-6.67,3.85-13.15-.2-26.82,4.63-39.15-3.86Z"/><path class="cls-12" d="M2.13,2.39.1,2c.44-.61-1-2.08,1-2,2.67.09,5.33,0,8,0h409A16.9,16.9,0,0,1,418,1.76c-4.33.09-8.66.25-13,.25L16.11,2C11.45,2,6.79,2.27,2.13,2.39Z"/><path class="cls-13" d="M.1,2479.58q170.87,0,341.72,0c4.66,0,9.32.22,14,.34.63.27.88.6.76,1s-.3.64-.48.64q-174,0-348-.1C5.46,2481.48,1.94,2483.5.1,2479.58Z"/><path class="cls-14" d="M3507.9,10c-6.79,4.18-11,11.43-18.59,16.29-2.55-8.5-1-16.38-1.3-24.1l1.36-1c6.18.24,12.44-1.25,18.53.85Z"/><path class="cls-15" d="M2993.93,0h52l1.56.72-1.56.72v.91c-2.16,2.1-4.55,3.8-7.68,4a252.79,252.79,0,0,1-36.51,0c-3.1-.22-5.55-1.84-7.77-3.88l0-.94-1.43-.77Z"/><path class="cls-15" d="M3093.92,0h52q2.17.86,0,1.65l0,.94a14.79,14.79,0,0,1-9.79,4c-10.86.5-21.72.48-32.58,0a13.15,13.15,0,0,1-9.59-4.37l0-.9C3093.91.92,3093.91.47,3093.92,0Z"/><path class="cls-15" d="M3191.92,0h52l1.48.77-1.48.75v.93a13.35,13.35,0,0,1-8.72,4,290.86,290.86,0,0,1-34.56,0,13.1,13.1,0,0,1-8.69-4.11V1.5l-1.53-.74Z"/><path class="cls-15" d="M3289.91,0h52l1.62.69-1.61.71v.91c-2.17,2.09-4.5,3.84-7.67,4.07a254.09,254.09,0,0,1-36.5,0c-3.09-.22-5.56-1.83-7.79-3.84l0-.94-1.41-.79Z"/><path class="cls-15" d="M2896,1.44c0-.47,0-.95,0-1.42h52l1.42.81-1.43.78,0,.93a13.68,13.68,0,0,1-8.76,4,299.6,299.6,0,0,1-34.56,0,12.83,12.83,0,0,1-8.65-4.21Z"/><path class="cls-15" d="M3389.91,0h52l1.4.82-1.41.79,0,.94a14.55,14.55,0,0,1-9.76,4.07c-10.86.5-21.71.48-32.57,0a13.44,13.44,0,0,1-9.64-4.31V1.42l-1.61-.71Z"/><path class="cls-16" d="M614.39,2480.13c-.11.48-.21,1-.32,1.45h-52a3.5,3.5,0,0,1,.87-3.37,9.8,9.8,0,0,1,3.28-1.71c13.29-3.36,26.73-1.69,40.13-1.31,3.21.08,5.45,2,7.56,4.12Z"/><path class="cls-17" d="M356.08,2481.58a15.18,15.18,0,0,0-.28-1.64l.56-.72c.93-.95,1.87-2.24,3.08-2.45,16-2.82,31.91-4.63,47.66,1.21a4,4,0,0,1,1,3.6Z"/><path class="cls-18" d="M408.08,2481.58l-.06-2,1-1.6c11.2-6.13,23.33-2.42,35-3.14,5.16-.31,10.69-.67,15.11,3.25a3.88,3.88,0,0,1,.87,3.54Z"/><path class="cls-16" d="M460.07,2481.58c-.05-.54-.11-1.08-.2-1.62l.87-1.72a9.48,9.48,0,0,1,7-3c14.51.27,29.29-3.56,43.4,2.82a3.93,3.93,0,0,1,.9,3.56Z"/><path class="cls-7" d="M512.07,2481.58l-.06-2.06c.34-.53.69-1.06,1-1.6a77.62,77.62,0,0,1,48.13-.11l1.11,1.55-.21,2.22Z"/><path class="cls-19" d="M3093.92,0a4.7,4.7,0,0,0,0,1.35,382,382,0,0,1-48,.09,13.83,13.83,0,0,0,0-1.44Z"/><path class="cls-19" d="M3389.91,0a7.29,7.29,0,0,0,0,1.4,385.82,385.82,0,0,1-48,0,7.28,7.28,0,0,0,0-1.4Z"/><path class="cls-12" d="M2947.92,1.61c0-.53,0-1.06,0-1.59h46c0,.53,0,1.05,0,1.57C2978.6,2.31,2963.26,2.28,2947.92,1.61Z"/><path class="cls-12" d="M3191.92,0c0,.49,0,1,0,1.48-15.34,1-30.68.65-46,.17a9.1,9.1,0,0,1,0-1.65Z"/><path class="cls-12" d="M3289.91,0a12.38,12.38,0,0,1,0,1.61c-15.34.58-30.68.76-46-.09V0Z"/><path class="cls-12" d="M3441.89,1.63a14.41,14.41,0,0,1,0-1.61h46q2.07,1-.1,1.84l.21.35Z"/><path class="cls-20" d="M1840,2481.58h-40c-1.53-.45-1.57-1-.14-1.73l.48-.83c13.07-6.73,26.15-6.62,39.25-.09l.5.84C1841.45,2480.45,1841.42,2481.05,1840,2481.58Z"/><path class="cls-20" d="M2058,2481.58h-40c-1.42-.53-1.45-1.13-.09-1.81l.5-.85c13.1-6.52,26.18-6.63,39.25.1l.48.83C2059.55,2480.55,2059.51,2481.13,2058,2481.58Z"/><path class="cls-16" d="M1912,2481.58h-38c-.66-.15-.93-.41-.82-.77s.28-.61.46-.61l.49-.84c9-6.49,28.09-6.61,37.6-.22l.49.82Q1914.32,2481.07,1912,2481.58Z"/><path class="cls-16" d="M1984,2481.58h-38c-1.51-.32-1.59-.85-.23-1.59l.48-.82c9.43-6.41,28.55-6.32,37.61.18l.49.83c.53.46.65.82.37,1.09A1,1,0,0,1,1984,2481.58Z"/><path class="cls-16" d="M2130,2481.58h-38c-.79-.17-1.1-.45-.93-.83s.4-.64.62-.64l.48-.82c9.21-6.46,28.29-6.48,37.62-.05l.48.82c.74.48.95.87.62,1.16A1.3,1.3,0,0,1,2130,2481.58Z"/><path class="cls-16" d="M2202.12,2479.84q0,.88-.15,1.74h-38c-1.59-.42-1.64-1-.17-1.7l.49-.81C2174.52,2472.48,2194.65,2472.9,2202.12,2479.84Z"/><path class="cls-16" d="M1728,2481.58c-.08-.51-.17-1-.28-1.53l.49-.81c9.33-6.44,28.4-6.41,37.62.05l.48.82c.65.47.82.85.51,1.13a1.18,1.18,0,0,1-.82.34Z"/><path class="cls-7" d="M1984,2481.58c.12-.47.23-.94.34-1.41,11.18-1.13,22.37-.52,33.56-.4a9.16,9.16,0,0,1,.09,1.81Z"/><path class="cls-7" d="M1766,2481.58c.1-.49.2-1,.31-1.48,11.17-.94,22.36-.56,33.55-.25a12.61,12.61,0,0,1,.14,1.73Z"/><path class="cls-7" d="M2091.67,2480.11c.11.49.21,1,.31,1.47h-34a12.48,12.48,0,0,1,.14-1.73C2069.31,2479.54,2080.5,2479.16,2091.67,2480.11Z"/><path class="cls-7" d="M1945.76,2480c.1.53.18,1.06.23,1.59h-34c0-.54.12-1.08.22-1.62A300.4,300.4,0,0,1,1945.76,2480Z"/><path class="cls-7" d="M2163.81,2479.88a12.09,12.09,0,0,1,.17,1.7h-34q.12-.76.27-1.53A308,308,0,0,1,2163.81,2479.88Z"/><path class="cls-18" d="M1873.63,2480.2c.11.46.24.92.36,1.38h-34a9.16,9.16,0,0,1,.09-1.81C1851.27,2479.66,1862.46,2479,1873.63,2480.2Z"/><path class="cls-15" d="M3487.8,1.86c0-.61.07-1.22.1-1.84,6.33,0,12.67,0,19,0,2,0,.56,1.41,1,2Z"/><path class="cls-21" d="M420.26,2.38c4.66-.12,9.32-.34,14-.34l589.88,0c4.66,0,9.32-.22,14-.34,4.66.12,9.32.34,14,.34q302.45,0,604.91-.1T2261.9,2c4.66,0,9.32.21,14,.32q0,304.44,0,608.88c0,3.66-.11,7.33-.17,11a39.4,39.4,0,0,1-10.41,16.24c-9.42,9.25-18.69,18.63-28,28-3.76,3.78-7.32,7.66-8.06,13.3-3.49,26.8-4.48,53.65-4.43,80.66q.43,232.33.14,464.68c0,4,0,8-.09,12-.14,5.61-3,8.62-8.53,9.07a197.86,197.86,0,0,1-32.93,0c-5.62-.48-8.22-3.73-8.35-9.24-.17-7.66-.11-15.32-.11-23q.06-221.85,0-443.7c0-10.28-.43-20.56-6.09-29.59-3.94-1.42-6.46,1-8.84,3.31-7.87,7.66-15.73,15.35-23.23,23.38a28.22,28.22,0,0,0-7.7,19c-.16,4.66-.14,9.32-.14,14q0,210.26-.05,420.51c0,7.89,1.08,16.09-4,23.18-16.22,3.46-32.41,6.14-48.21-1.69-4.82-6.43-3.6-14-3.61-21.2q-.14-182.26-.2-364.54c0-6.25,3.63-15.41-3.46-18.12-6-2.28-10.17,6.17-14.4,10.54-8,8.3-18,15.08-22.62,26.3-2.15,14.79-5.3,29.51-5.33,44.47q-.25,154.8-.09,309.61c0,15.88-1.09,17-16.82,17.32-7.32.15-14.64,0-22-.17-7.81-.23-11.41-3.74-11.25-11.79.24-12.64,0-25.3,0-38q0-115.35,0-230.71a88.88,88.88,0,0,0-5-29.18c-1.88-1.57-3.73-1.18-5.3.36-10.41,10.15-21.06,20.06-30.59,31.08-1.77,2-2.43,4.66-2.89,7.33-5.37,32.69-4.25,65.63-4.25,98.51q0,78.84,0,157.68c0,12.79-1.49,14.26-14.24,14.77-7.31.29-14.64.3-22,0-12.09-.52-13.74-2.16-13.76-14.23q-.11-84.33,0-168.66c0-9.68-1.22-19.13-5.69-27.78a5.32,5.32,0,0,0-4.79.15,22.7,22.7,0,0,0-4.59,3.8c-36.3,37.08-30.55,23-30.92,71-.29,38.16,0,76.33-.09,114.49,0,6,.36,12-3.73,17.14-2.07,3.18-5.37,3.76-8.69,3.85-12.52.37-25.06,1.35-37.51-.84-6.26-4.53-5.8-11.41-5.85-17.91-.18-27.18-.06-54.36-.08-81.53,0-2,.15-4,0-6-.28-2.8,1-6.56-2.78-7.69-2.87-.87-4.84,1.83-6.54,3.75-10.48,11.83-24.33,20.64-31.74,35.24-3.39,20.26-5.81,40.55-5.06,61.17.45,12.19-1.33,13.59-13.53,14.07-5.63.23-11.31-.38-16.88.21-12.15,1.3-20.51-2.86-24.15-14.88-3.61-2.13-5.3,1.06-7.5,2.7-3.85,2.87-7.43,6.39-12.91,5.11-7.74-.27-11.62-7.8-18.77-9.18,2.77,8.75,12.11,5.28,17.74,8.72a10.09,10.09,0,0,1,3.49,2,2.68,2.68,0,0,1-.38,2.52c-2.86,4.93-2,10.37-2,15.64q-.06,185.77,0,371.56,0,105.87,0,211.74c0,3.9.91,8-1.37,12.22-4-.32-6-3.76-8.4-6.17q-44.23-44.05-88.33-88.24-50.16-50.14-100.33-100.27c-3-3-6.41-5.78-9.63-8.67-2.22-2.69-1-5.5-.58-8.45,1.37-9.24-2.53-13.63-11.94-13.68-3.23,0-6.63,1.26-9.26-1.76-3.75-2.24-6.6-5.51-9.65-8.55q-54.53-54.5-109.08-109c-2.66-2.65-4.54-6.84-9.4-6.41-8.6-.54-15.78-4.18-21.94-10l9.64-3.46c-1.29-4.32-4.75-6.58-7.46-9.3q-114.39-114.48-228.87-228.92c-3.29-3.29-6.85-6.34-9.32-10.38,2.49-4.66,7-4.45,11.34-4.7,6.65-.38,13.33,0,20-.41,8.27-.55,12.75-4.93,13.44-13.22.31-3.66.27-7.32.27-11q0-257.91.23-515.81c0-15.14-4.34-26.75-15.33-37.19-11.5-10.93-24.32-20.94-31.72-35.63l-.18-1.84c-2.9-4.56-7-8-10.77-11.77Q728.89,311.75,430.45,13.33C426.93,9.81,423.65,6,420.26,2.38Z"/><path class="cls-4" d="M1878,1017.94c2-.5,3.35.5,3.54,2.38.33,3.3.41,6.63.41,10q0,97.88,0,195.76c0,15.68.06,15.72,15.41,15.75,6.66,0,13.33.19,20-.13s8-1.75,8.48-8.47c.23-3.31.1-6.65.1-10q0-120.36,0-240.71c0-4.94-.77-10,2.07-14.61,4.6,2.52,4.53,7.05,4.69,11.36.4,10.32.19,20.65.19,31q0,100.45,0,200.91c0,4.66-.19,9.34.6,14,1.09,6.33,4.76,10.11,11.13,11.14a58,58,0,0,0,15,.25c7.72-.75,12.08-5,13-12.71a112.5,112.5,0,0,0,.39-13q0-124.44,0-248.89c0-14-.89-28.18,3-42,2.75-.59,3.63,1.17,3.76,3.32.22,3.65.23,7.32.23,11q0,145.38,0,290.74c0,16.78,0,16.79,16.37,16.8,6.33,0,12.67.18,19-.13,6.73-.33,8-1.75,8.51-8.44.25-3.32.11-6.66.11-10q0-168.84,0-337.7c0-5.26-.92-10.71,2-15.62,4.16,2.29,4.4,6.35,4.65,10.38.33,5.32.23,10.65.23,16q0,153.86,0,307.71c0,4,0,8,0,12,.25,17,3.8,20.48,20.54,20.9,8.91.22,18-1.32,26.53,2.93,4.31,2,8.92,2,13.54,2q16.26,0,32.54,0c3.13-4.34,7.81-4.58,12.53-4.79,7-.3,14,.22,21-.52q11.55-1.21,13-12.8a124.7,124.7,0,0,0,.42-15q0-222.89,0-445.77c0-13.71-.93-27.5,3-40.93,2.76-.58,3.61,1.2,3.74,3.35.23,3.65.23,7.32.23,11q0,243.84,0,487.68c0,17.78,0,17.8,17.38,17.79,6.33,0,12.66,0,19-.13,4.82-.08,7.35-2.63,7.47-7.46.08-3.66.13-7.33.13-11q0-267.82,0-535.65c0-5.26-.93-10.72,2-15.62,4.13,2.31,4.41,6.36,4.65,10.39.36,6,.24,12,.24,18q0,254.28,0,508.56c0,26.2,1.7,27.91,27.58,28,6.33,0,12.66.1,19,.42,33.94-.75,67.89-.49,101.82-.15,8.25-.38,16.51.08,24.79-.08,33.84,0,67.67-.82,101.49.41,8.19-.53,16.39-.49,24.61-.36,34.62-.58,69.22.06,103.81-.31,7.39-.57,14.72,1.16,22.13.73,34.46-1.23,68.92-.6,103.36-.42,8.38-.45,16.75,0,25.14.43,31.9-1.36,63.8-.64,95.69-.36,5.24,0,11.46-.21,13.71,6.71-12.54,14.29-26.43,27.28-40,40.55-6,5.83-8.4,12-8.4,20.28q.27,273.45.15,546.89c0,3.33.19,6.66.29,10h-48.3c-3.45-2.71-4.4-6.46-4.59-10.61-.25-5.66-.21-11.32-.21-17q0-228.8-.11-457.59c0-5.37,2.73-13-3.18-15.53s-9.49,4.76-13.28,8.54c-28,27.87-25.49,22.25-25.5,60.73q-.08,205.32-.12,410.63c0,7.07,2,14.88-4.54,20.65l-46.55.08c-3.43-2.72-4.35-6.48-4.52-10.63-.22-5.33-.2-10.66-.2-16q0-180.92-.09-361.81c0-5.06,2.48-12.22-3.21-14.53s-9,4.53-12.54,8.11c-29.13,29.06-26.19,22.38-26.22,62.43q-.12,156.42-.11,312.84c0,6.77,1.66,14.22-4.68,19.61l-48.25.1c-3.92-6.05-2.84-12.88-2.84-19.46-.09-89.6,0-179.21-.18-268.81,0-5.58,3.05-13.56-3.91-16.07-5.91-2.13-9.49,5-13.32,8.83-30.2,30.3-26.61,22-26.69,64.17-.14,71,0,141.9-.09,212.86,0,6.25.91,12.74-2.82,18.46l-48.27-.07c-5.8-4.73-4.68-11.43-4.69-17.62-.15-57.64,0-115.29-.16-172.93,0-5.13,2.51-12.46-2.55-14.84-6.16-2.9-9.42,4.71-13.13,8.42-29.89,29.92-26.13,21.38-26.29,63.31-.16,39,.05,78-.11,116.95,0,5.89.89,12.21-4.63,16.64l-46.52,0c-4.93-3.78-4.59-9.27-4.62-14.57-.13-27.26,0-54.52-.06-81.78a64.24,64.24,0,0,0-.2-8c-.57-4.38-3-6.57-6.58-3.17-11.3,10.75-23.31,20.87-32.41,33.7-3,4.2-2.85,9.45-2.88,14.47-.08,15.29.06,30.58-.09,45.88,0,5-.1,10.07-4.7,13.53l-46.28,0c0-6.56.11-13.12.07-19.68,0-2.22.48-4.7-2-6.19-4.35,11.74-12.25,19.9-24.19,24-3.94-.11-6.92-2.09-9.56-4.8-2.09-2.15-4.24-4.24-6.37-6.36Q1965,1551.69,1668.13,1254.83c-3.53-3.52-6.76-7.34-10.13-11,0-.66,0-1.32,0-2a7.25,7.25,0,0,1,4.77-3.24c13.69-1.65,15.82-11.88,17.26-22.7,3.58-.62,3.75,2,3.85,4.31.2,4.64.16,9.29.27,13.94s2.52,7.46,7.38,7.5c9.62.08,19.27.31,28.88-.07,6-.24,7.42-2.06,7.5-9.34.2-17.26,0-34.53.12-51.8,0-4.93-.76-10,2-14.58,4.72,2.41,4.55,7,4.7,11.21.41,11.56.16,23.14.19,34.71,0,23.39,1.59,25,24.55,25.08,4,0,7.93,0,11.9.22s7.84,1.2,10.45,4.7c11.17,0,22.35,0,33.53,0,4.3,0,8.55-.18,12.55-2,8.45-4.27,17.57-2.74,26.45-2.92,17.08-.37,20.56-3.54,20.6-20.49q.16-85.19-.06-170.37A130.81,130.81,0,0,1,1878,1017.94Z"/><path class="cls-21" d="M420,622.07c3-.05,6-.15,9-.15l609.09,0,0-.07c5.37,7.92,5,17,5,25.9q0,172.34,0,344.65c0,76.26.09,152.51-.12,228.77,0,6.38,1.82,13.58-4.64,18.5L1038,1242l-2.15-.43c-8.85-4.09-15.15-11.27-21.85-18q-188.13-188.1-376.28-376.17c-6.41-6.4-12.37-12.93-15.62-21.53-14.9-17.09-31.65-32.36-47.65-48.37-.59-.59-1.74-.61-3-1-2.09,4.26-1.22,8.61-1.22,12.79q-.08,218.32-.09,436.67c0,5.2,1.35,10.74-2.3,15.45-3.57-2.67-4.3-6.51-4.48-10.62-.25-5.67-.21-11.33-.21-17,0-139.27-.46-278.54.47-417.79.14-22.21-11-35.21-25.61-47.82-4.76-4.12-8-2.26-8.69,3.77a97.66,97.66,0,0,0-.24,12q0,228.39-.12,456.78c0,7,2.05,14.89-4.54,20.63-3.25-4.06-2.28-8.9-2.29-13.48q-.11-59.46,0-118.92,0-184.89,0-369.78c0-5.26,1-10.74-2.26-15.55a17.84,17.84,0,0,1-11.32-5.59c-28.27-28.26-56.68-56.38-84.7-84.88C420.83,630.23,416.84,627.24,420,622.07Z"/><path class="cls-2" d="M1038.24,1239.69c0-5.67-.13-11.33-.13-17q0-292.43,0-584.83c0-5.33,0-10.66-.08-16,17.06,14.92,32.31,31.68,48.41,47.57a12.5,12.5,0,0,1,3.61,9c0,3.33.1,6.66.1,10v535.31c0,18,0,18-18.15,18h-32Z"/><path class="cls-2" d="M1038.07,1948.71V2238.5c0,14.63-2,16.68-16.49,17-1.66,0-3.33,0-5-.07-12.42-.77-14.49-2.81-14.49-14.95q0-291.78,0-583.57c0-12.82,2-14.82,15.12-15.13a87,87,0,0,1,12,.27c6.24.71,8.13,2.72,8.7,8.85.3,3.31.16,6.66.16,10Q1038.07,1804.82,1038.07,1948.71Z"/><path class="cls-2" d="M1070,1947.68q0-142,0-283.94c0-16.81,1.5-18,17.93-14,19.73,4.82,18.06,3.46,18.06,23q0,276.94,0,553.89c0,17.15,0,17.16-17.07,20.67a93.2,93.2,0,0,1-10.82,1.91c-5.4.45-7.28-1.16-7.89-6.57a92.14,92.14,0,0,1-.21-10Q1070,2090.15,1070,1947.68Z"/><path class="cls-3" d="M2057.64,2479a259.72,259.72,0,0,1-39.25-.09c-.08-4.33-.22-8.66-.22-13q0-243.33,0-486.65c0-17.6,0-17.6,17.4-17.61,4,0,8-.09,12,0,9.07.28,10,1.28,10.29,10.67,0,1.33,0,2.67,0,4q0,246.31,0,492.64C2057.86,2472.36,2057.71,2475.69,2057.64,2479Z"/><path class="cls-3" d="M1839.59,2478.93a261,261,0,0,1-39.25.09c-.08-4-.22-8-.22-12q0-244.34,0-488.65c0-16.69,0-16.7,16.3-16.71,5,0,10-.16,15,.11,6.77.37,7.82,1.58,8.33,8.51.15,2,.08,4,.08,6q0,246.33,0,492.65C1839.81,2472.27,1839.66,2475.6,1839.59,2478.93Z"/><path class="cls-3" d="M2202.12,2479.84l-37.82-.77c-.08-4.33-.23-8.66-.23-13q0-243.45,0-486.9c0-17.49,0-17.51,17.52-17.5,4.67,0,9.34,0,14,.17s7.29,2.81,7.79,7.43a65,65,0,0,1,.36,7q0,251.44-.08,502.89Q2202.87,2479.48,2202.12,2479.84Z"/><path class="cls-2" d="M969.92,1654.05c2.25,4.31,2.09,9,2.09,13.65q0,42.87-.07,85.75c-.06,2.15-1.2,3.58-2.74,5-9.28,8.85-9.25,12.18-.1,21,1.75,1.12,2.37,2.87,2.74,4.77.08.46.17.93.25,1.4q0,49,0,98.1c-.1.47-.19.94-.28,1.41-.41,1.91-1,3.7-2.81,4.83-9,8.83-9,12.11.25,20.92,1.53,1.45,2.69,2.86,2.73,5q0,159.94,0,319.87c0,1.34,0,2.67,0,4-.44,8.86-2.37,10.5-11.19,8.95a167.27,167.27,0,0,1-16.58-3.66c-6.86-1.92-7.74-3.3-8.12-10.63-.14-2.66-.06-5.33-.06-8V1670.66c0-17,1.1-18.27,18.16-20.65,2-.27,4-.26,6-.37C965.22,1647.13,968.66,1648.19,969.92,1654.05Z"/><path class="cls-2" d="M904.05,1948.73v267.83c0,15.12-.72,15.57-14,9.05-3.3-1.61-6.44-3.61-9.86-4.84-9.65-3.48-12.32-10.24-12.29-20.19.29-89.94.17-179.88.17-269.82q0-115.93,0-231.86c0-3.33.07-6.66.1-10a9.31,9.31,0,0,1,5.41-8.85c7.74-3.88,15.4-8,23.27-11.55,5-2.27,6.55-1.14,7,4.41.3,3.3.14,6.65.14,10Q904.06,1815.82,904.05,1948.73Z"/><path class="cls-3" d="M1765.83,2479.29l-37.62-.05c-.09-4-.25-8-.25-12q0-244.34,0-488.65c0-16.92,0-16.93,17.09-16.93,4.66,0,9.33,0,14,.17,4.38.11,6.74,2.39,6.89,6.83.08,2.33.16,4.66.16,7q0,247.32,0,494.64C1766.07,2473.3,1765.91,2476.3,1765.83,2479.29Z"/><path class="cls-3" d="M2129.77,2479.24l-37.62.06c-.08-4-.24-8-.24-12q0-244.32,0-488.65c0-17,0-17,17-17q7,0,14,.16c4.38.1,6.77,2.34,6.93,6.78.09,2.33.16,4.66.16,7q0,247.32,0,494.64C2130,2473.25,2129.86,2476.25,2129.77,2479.24Z"/><path class="cls-3" d="M1911.72,2479.14c-12.53.82-25.07.47-37.6.22-.09-4-.26-8-.26-12q0-244.3,0-488.61c0-17.08,0-17.08,17-17.09,4.33,0,8.67-.16,13,.12,6.31.41,7.5,1.64,8,7.76.21,2.31.11,4.65.11,7q0,246.3,0,492.61C1912,2472.49,1911.8,2475.82,1911.72,2479.14Z"/><path class="cls-3" d="M1983.85,2479.35l-37.61-.18c-.08-4-.24-8-.24-12q0-244.32,0-488.63c0-16.87,0-16.88,17.14-16.88,4.66,0,9.32,0,14,.18,4.41.12,6.7,2.48,6.85,6.89.07,2.33.15,4.66.15,7q0,247.31,0,494.62C1984.1,2473.36,1983.94,2476.35,1983.85,2479.35Z"/><path class="cls-2" d="M1137.74,1888.06q0-53.37,0-106.74c-2.15-7.83-2.64-15.66.19-23.45q.06-38.47.1-76.93c0-1.67,0-3.33,0-5,.29-8.66,1.73-9.78,9.34-6.37,6.68,3,13.13,6.49,19.67,9.8a11.73,11.73,0,0,1,6.87,11.26c0,2.67.08,5.33.08,8v499.57c0,2.33-.13,4.66,0,7,.27,5.55-2,9.52-6.79,12.36a121.63,121.63,0,0,1-21.5,10.53c-6.51,2.28-7.26,1.66-7.65-5.54-.07-1.32,0-2.66,0-4q0-88.42,0-176.85a33.6,33.6,0,0,1,0-22l-.15-108.12C1135.1,1903.72,1135.55,1895.9,1137.74,1888.06Z"/><path class="cls-2" d="M1204.07,1948.52q0-112.49,0-225c0-3-.07-6,0-9,.12-2.59-.46-5.77,2.66-6.93,2.41-.89,4.54.82,6.23,2.41,6.79,6.39,14.46,11.75,21,18.49,4.25,4.4,6.46,9.13,6.06,15.18-.13,2,0,4,0,6,0,132.64-.17,265.27.27,397.91,0,12.49-4.3,20.85-13.84,27.79-5.36,3.9-10,8.78-15.41,12.65-4.46,3.2-6.37,2-6.87-3.61-.27-3-.13-6-.13-9Q1204.05,2062,1204.07,1948.52Z"/><path class="cls-2" d="M836.08,1949.77q0,113.91-.08,227.83c0,3.79,2,9.08-2,11s-6.56-3.34-9.74-5.42c-7-4.61-12.38-11.1-18.44-16.79-3.89-3.64-5.94-7.91-5.7-13.28.1-2.33,0-4.66,0-7q0-197.35-.2-394.71c0-10.51,2.5-18.52,10.57-25.42,6.3-5.39,12.06-11.46,18.78-16.39,4.49-3.29,6.2-2.44,6.7,3.31.26,3,.13,6,.13,9Z"/><path class="cls-2" d="M768.78,2119c-3.88-.85-4.87-3.57-6.23-5.74-3.54-5.64-7.1-11.29-10.21-17.17-18.34-34.69-18.3-34.71-18.3-74,0-56.63.08-113.26-.09-169.88a52.34,52.34,0,0,1,4.4-22.3c7.17-15.78,14.8-31.31,24.25-45.88,1.38-2.13,2.3-4.92,5.36-5.38a4,4,0,0,1,1,.46,1.46,1.46,0,0,1,.51.84,51.48,51.48,0,0,1,.56,5.93q0,164.88-.15,329.78C769.85,2116.55,769.28,2117.47,768.78,2119Z"/><path class="cls-2" d="M1274,2017.68c-1.81-3-2-6.24-2-9.57V1923.9c0-3.66.13-7.28,2.26-10.48,1.76-3.91,5.52-2.88,8.63-3.55,5-1.09,8.64-3.92,8.67-9.37,0-6-3.91-8.8-9.39-9.74-3.51-.61-7.43.32-10.19-2.9V1781.5c3.13-1.91,4.91-.67,5.89,2.49,8.07,9.86,13.72,21.15,19.26,32.52.14.29.21.63.38.92,9.71,16.4,10.87,34.25,10.68,52.89-.58,57.55-.28,115.11-.14,172.67a57,57,0,0,1-4.21,22.31,304.57,304.57,0,0,1-24.28,46.87c-1.51,2.39-2.48,5.5-5.78,6.39-2.56-1.64-1.72-4.22-1.73-6.38-.08-19.63,0-39.26,0-58.89,0-3.35.18-6.66,2-9.64,2.19-3.08,5.78-2.65,8.86-3.53,4.79-1.37,8.47-4,8.48-9.45s-3.69-8.09-8.48-9.46C1279.82,2020.33,1276.24,2020.75,1274,2017.68Z"/><path class="cls-3" d="M564.06,2479a10.87,10.87,0,0,0-1.78.39l0-.1c-4.62-2.85-5-7.49-5.1-12.21-.18-6,.11-11.93-.22-17.89-.6-10.65-4-13.8-14.77-14.56-10.15-.7-20.61,1.77-30.41-2.89a6.72,6.72,0,0,1-2.36-2.79c-4.45-32.24-2.48-64.55-1.1-96.84.05-1.22,1.21-2.31,2-3.36l1.64-1.06c13.25-.06,26.5,0,39.75-.21,9.12-.15,10.26-1.32,10.43-10.44.18-9.27,0-18.55.07-27.83,0-4-.24-8,1.78-11.65,4.78,1.84,4.43,6.18,4.73,10.06.44,5.63.08,11.29.31,16.93.49,12.27,3.95,15.64,16.47,16.07,5.64.2,11.29,0,16.94.21,4.45.15,8.59.95,11.47,4.81,0,.68,0,1.37,0,2-.27.5-.55,1-.81,1.49-3.46,3.34-7.89,3.15-12.19,3.32-6.32.25-12.65-.06-19,.28-7.86.43-12.57,4.41-12.75,12.42q-.76,33.42,0,66.87c.18,8,4.88,12,12.75,12.42,6.32.34,12.65,0,19,.28,4.3.17,8.74,0,12.2,3.32l.81,1.48,0,2.05c-4.61,6-11.29,4.8-17.47,4.9-27,.41-26.92.36-27.58,27.15C568.8,2469.13,569.93,2475.22,564.06,2479Z"/><path class="cls-3" d="M408,2327.67l52.09,0,1.64,1c2.94,3.24,3.07,7.31,3.11,11.29q.43,39,0,78a26.87,26.87,0,0,1-2.12,10.71,7,7,0,0,1-2.44,2.94c-17.07,4.31-34.13,5.1-51.15-.32l-1-1.63q0-51,0-102.08Z"/><path class="cls-3" d="M614,2327.66c13.61,0,27.21-.2,40.82-.1,10,.07,11.12,1.11,11.16,10.71q.19,40.32,0,80.65c0,9.6-1.19,10.64-11.16,10.71-13.6.1-27.21,0-40.82-.09l.1.11c-4.54-3.41-4.81-8.4-4.86-13.4q-.39-37.65,0-75.29c0-5,.32-10,4.86-13.4Z"/><path class="cls-3" d="M408.14,2327.56c-14,0-28,.11-42-.07-8.62-.11-9.88-1.37-10-9.85-.19-11-.21-22,0-33,.16-7.38,1.54-8.77,8.88-8.92q17-.37,34,0c7.32.15,8.71,1.55,8.84,9,.25,14.31.12,28.63.15,43Z"/><path class="cls-3" d="M460.11,2327.65c0-14-.12-28,.06-42,.11-8.58,1.38-9.84,9.9-10,11-.19,22-.22,33,0,7.33.17,8.73,1.55,8.85,9,.24,14.31.12,28.63.15,42.95l.1-.1c-2.06,2.15-4.2,4.1-7.41,4.36a239,239,0,0,1-37.27,0c-3.22-.25-5.36-2.2-7.42-4.35Z"/><path class="cls-3" d="M408,2479.53l-51.66-.3c-.09-12.95-.31-25.9-.22-38.84.07-9.62,1.18-10.64,11.14-10.73,13.62-.12,27.23,0,40.85,0l-.11-.1c2.21,2.08,4.13,4.28,4.39,7.55a223.42,223.42,0,0,1,0,34.9c-.25,3.28-2.11,5.5-4.43,7.5Z"/><path class="cls-3" d="M614,2325.61c-13,0-25.94.11-38.91-.05-9.61-.12-10.83-1.38-11-11.12-.16-12.3,0-24.6-.06-36.91,3-1.88,6.29-1.86,9.6-1.87,9.94,0,19.87-.12,29.81,0,9.55.15,10.58,1.21,10.65,11.18C614.21,2299.79,614,2312.7,614,2325.61Z"/><path class="cls-3" d="M564.06,2479c0-11.23,0-22.45,0-33.67.06-12.93.72-13.62,13.27-13.69,12.21-.07,24.43,0,36.64,0q0,23.86-.08,47.73C597.29,2479.56,580.67,2480.17,564.06,2479Z"/><path class="cls-3" d="M1426.11,1627.73a60.15,60.15,0,0,1,6.24-2.84c7-2.28,13.63-.51,17.83,4.55,4.38,5.28,4.57,11.09.49,18.15-.81,1.41-1.85,2.69-2.78,4a60,60,0,0,1-6.65,1.69c-12.47,1.75-20.83-8-17.28-20.11C1424.51,1631.34,1425.38,1629.56,1426.11,1627.73Z"/><path class="cls-3" d="M972.75,1492.88c8.41.58,14,7.46,13.31,16.46-.62,8.26-8,14.69-16.09,14a15.4,15.4,0,0,1-13.68-16.54C957,1498.76,964.57,1492.32,972.75,1492.88Z"/><path class="cls-3" d="M1437.6,1784.57c-8.12-.29-15-7.81-14.47-15.82.52-7.86,8.12-14.85,16-14.69,8.07.16,14.71,7.47,14.39,15.85C1453.19,1777.67,1445.41,1784.85,1437.6,1784.57Z"/><path class="cls-3" d="M1127.07,1523.39c-8.2,0-14.94-7-14.92-15.59,0-8.33,7.26-15.48,15.35-15.16a15.3,15.3,0,0,1,14.42,15.09C1142,1516.29,1135.28,1523.36,1127.07,1523.39Z"/><path class="cls-3" d="M1137.74,1888.06c5.61,7.78,5.58,15.6.17,23.46-2.4,1.1-4.71,2.54-7.21,3.24A14.46,14.46,0,0,1,1115,1909c-3.71-5.23-3.84-12.71-.32-17.74a15.4,15.4,0,0,1,16.61-5.75C1133.5,1886.14,1135.59,1887.18,1137.74,1888.06Z"/><path class="cls-3" d="M1438.55,1884.8c8,.29,15.43,8.17,14.91,15.83-.54,8.13-7.34,14.83-14.9,14.68-8.42-.16-16-8.2-15.43-16.43C1423.64,1891.07,1430.81,1884.52,1438.55,1884.8Z"/><path class="cls-3" d="M1283.23,1623.78a14.95,14.95,0,0,1-.67,29.89c-9.07-.08-14.71-6-14.55-15.28S1274.07,1623.53,1283.23,1623.78Z"/><path class="cls-3" d="M969.92,1654.05a35.73,35.73,0,0,1-9.75-4.41c-1.11-2.39-2.58-4.68-3.26-7.19-2.07-7.55,2.67-16,9.91-18.13,8-2.38,16.13,1.57,18.5,9,2.86,9-1.05,17.23-9.54,19.86A39.08,39.08,0,0,1,969.92,1654.05Z"/><path class="cls-3" d="M1127.46,1362.12c8.18.26,14.68,7.43,14.45,16s-7.07,14.76-15.8,14.22c-8.42-.51-14.18-6.73-14-15.08C1112.38,1368.7,1119.31,1361.87,1127.46,1362.12Z"/><path class="cls-3" d="M1137.91,1757.87c5.42,7.86,5.43,15.68-.19,23.45a62.09,62.09,0,0,1-6.5,2.31c-6.73,1.62-13.31-.69-16.66-5.65-3.62-5.34-3.13-13.27,1.14-18.43s10.26-6.67,16.92-4.32A48.29,48.29,0,0,1,1137.91,1757.87Z"/><path class="cls-3" d="M1272,1887.86c2.82-.88,5.58-2.1,8.46-2.56,6.56-1,11.57,1.8,15.08,7.19s3,10.7-.29,15.8a14.13,14.13,0,0,1-14.3,6.83,46.6,46.6,0,0,1-6.67-1.7C1265.93,1905.57,1266.54,1896.93,1272,1887.86Z"/><path class="cls-3" d="M1138.06,2019.64q8,11,0,22c-2.06,1.09-4,2.52-6.19,3.2a15,15,0,1,1,0-28.46C1134.06,2017.11,1136,2018.54,1138.06,2019.64Z"/><path class="cls-3" d="M1142,1638.48a14.94,14.94,0,1,1-15.42-14.69A14.89,14.89,0,0,1,1142,1638.48Z"/><path class="cls-3" d="M1276,1493.78c9.49-1.41,17,1.61,21.94,10a50.74,50.74,0,0,1-.43,6.88c-1.36,6.77-6.13,11.45-12.37,12.49a15.79,15.79,0,0,1-15.23-7.14c-3-4.93-2.74-13,1-17.71C1272.3,1496.58,1274.31,1495.29,1276,1493.78Z"/><path class="cls-3" d="M966.05,1783.8a35.72,35.72,0,0,1-4.71-3.6c-8.3-8.75-6.06-20.29,4.88-25.14a39,39,0,0,1,5.72-1.6c12.47,4.82,16.51,11.41,13.31,21.3-2.1,6.51-7.52,8.77-13.16,10.87v0C970.44,1783.85,967.72,1785.54,966.05,1783.8Z"/><path class="cls-3" d="M972,1915.9a37.55,37.55,0,0,1-5.73-1.58c-11-4.86-13.19-16.36-4.89-25.15a36.09,36.09,0,0,1,4.72-3.61c1.67-1.69,4.38,0,6-1.85v0c5.24,2.06,10.47,4,12.82,10C988.86,1903.73,984.72,1911,972,1915.9Z"/><path class="cls-3" d="M1277.91,1784l-5.89-2.49c-1.67-3.24-3.52-6.39-3.92-10.15-.93-8.74,4.49-16,12.93-17.15,7.73-1.07,15.14,4.55,16.55,12.55a15.17,15.17,0,0,1-11.76,17.12C1283.29,1784.41,1280.55,1784,1277.91,1784Z"/><path class="cls-3" d="M1274,2017.68c2.23-.64,4.43-1.64,6.7-1.84,9.13-.82,16.67,5.65,17,14.32.32,9-7.43,16.15-17,15.32-2.27-.2-4.47-1.19-6.7-1.83C1265.72,2033.7,1265.72,2027.62,1274,2017.68Z"/><path class="cls-2" d="M2277.78,1859.68c7.44-8.62,15.26-16.86,24.19-24,0,5.23.18,10.46-.13,15.67-.38,6.52-1.77,7.87-8.39,8.24C2288.24,1859.89,2283,1859.68,2277.78,1859.68Z"/><path class="cls-14" d="M330.12,1974.25c4.76,0,9.51,5,9.34,9.68s-5.23,9.42-9.91,9.1c-4.35-.3-8.72-4.84-8.84-9.19C320.59,1979.1,325.37,1974.23,330.12,1974.25Z"/><path class="cls-14" d="M515.81,1902.1a8.69,8.69,0,0,1-8.38,9.2c-5.28.23-9.22-3.76-9.25-9.4,0-5.15,3.47-9.07,8.32-9.32S515.72,1896.65,515.81,1902.1Z"/><path class="cls-14" d="M515.91,1983.32a8.88,8.88,0,1,1-17.73.66c-.17-5.43,3.82-9.67,9-9.57A8.91,8.91,0,0,1,515.91,1983.32Z"/><path class="cls-22" d="M418.15,1992.83c-5-.27-9.4-5.29-8.87-10.1s5-8.69,9.47-8.5a9.5,9.5,0,0,1,8.83,10.06C427.12,1988.87,422.5,1993.06,418.15,1992.83Z"/><path class="cls-22" d="M418.9,1911.19c-4.8.28-9.57-4.3-9.66-9.26a9.43,9.43,0,0,1,8.67-9.11c4.47-.17,9.18,3.85,9.67,8.24A9.53,9.53,0,0,1,418.9,1911.19Z"/><path class="cls-3" d="M515.8,1820.45a8.76,8.76,0,1,1-17.52.42,8.76,8.76,0,0,1,17.52-.42Z"/><path class="cls-21" d="M2506.05,1239.69c-3.59,2.25-7.62,2.1-11.62,2.1h-82.87c-4,0-8,.17-11.63-2-2.56-2-2.7-5.06-3.52-7.85-.88-3-2.6-5.45-6-5.67-3.93-.26-5.9,2.34-6.92,5.72-.84,2.77-.9,5.87-3.53,7.83-4.25,2.54-9,2-13.59,2q-45.29,0-90.56,0c-3.41-2.72-4.39-6.48-4.58-10.61-.2-4.33-.23-8.65-.23-13q0-284.55.05-569.11c0-8.69-1.56-17.89,5.1-25.32,3.65,3.39,7.42,6.67,10.95,10.19Q2521.59,868.32,2756,1102.78c5,5,9.86,10.06,17.86,9.09.09.59.17,1.19.25,1.79-.39,3.6-3.62,4.24-6,5.79-2.69,1.77-4.3,4.18-3,7.42,1.41,3.7,4.53,4.38,8,3.58,3-.68,5.84-3.42,9.1-.69,2.48,2.19,5.07,4.27,7.4,6.6q48.55,48.47,97,97.05c2.76,2.77,7.82,4.81,5.49,10.45-4.26-2.56-9-2-13.63-2q-42.47,0-84.91,0c-4.63,0-9.38.54-13.63-2.06-2.7-1.38-3.34-3.78-3.69-6.59-.5-4-2.38-7.16-6.91-7.05-4.09.1-5.57,3.25-6.15,6.72-.45,2.68-.82,5.27-3.19,7-4.27,2.5-9,2-13.6,2q-47.25,0-94.5,0c-2-2.45-1.9-5.4-2.18-8.32-.37-3.84-1.93-7.12-6.28-7.45s-6.47,2.64-7.18,6.48a41.57,41.57,0,0,1-2.28,7.41c-3.65,2.08-7.67,1.88-11.65,1.88H2537.6c-4,0-8,.19-11.62-2-2.35-1.78-2.44-4.41-2.82-7-.56-3.91-2.44-7-6.87-6.87-3.82.1-5.81,2.8-6.44,6.32C2509.33,1235.19,2509.25,1238.2,2506.05,1239.69Z"/><path class="cls-3" d="M2276.17,623.75c-.09,5.65-.25,11.31-.25,17q0,293,0,586.08c0,5,0,10-.08,15-13.33,0-26.65.08-40,0-10.85-.09-11.72-1.09-11.91-12.21,0-1,0-2,0-3V679.93c0-2.66.06-5.33.1-8,14.57-12.66,27.42-27.08,41.31-40.44,3.34-3.22,6.28-6.9,10.38-9.27C2275.89,622.73,2276,623.24,2276.17,623.75Z"/><path class="cls-3" d="M2895.93,2.33c17.33-.37,34.65-.77,52,.21q0,122.45-.09,244.9,0,153.95.18,307.89c0,9.8-2.65,17-9.89,23.62-11.31,10.33-21.77,21.58-32.68,32.35-2.29,2.26-4.07,5.32-7.67,6-2.68-1.49-1.76-4.08-1.94-6.25-.16-2,0-4,0-6q0-295.89,0-591.78C2895.77,9.65,2895.88,6,2895.93,2.33Z"/><path class="cls-21" d="M2796.05,2.41q23.88-.84,47.78,0V564.33c-4.27,1.52-5.52-1-7-2.49-11.61-11.48-23-23.14-34.71-34.55-4.07-4-6.38-8.42-6-14.16.11-2,0-4,0-6Q2796,254.77,2796.05,2.41Z"/><path class="cls-3" d="M2994,2.53c17.32-.93,34.64-.63,52-.16.06,4,.17,8,.17,12q0,220.83.22,441.66c0,10.55-2.73,18.27-10.59,25.34-11.13,10-21.3,21.08-32,31.62-2.32,2.29-4.18,5.23-7.57,6.27-2.9-1.34-2-4-2.08-6.12-.18-3-.05-6-.05-9q0-243.81,0-487.62C2994.05,11.86,2994,7.2,2994,2.53Z"/><path class="cls-3" d="M3093.92,2.27c17.32-.21,34.64-.82,52,.34-.08,4.67-.23,9.33-.23,14q0,170.45.17,340.88c0,9.78-2.59,17-9.87,23.64-11.31,10.31-21.76,21.58-32.68,32.34-2.28,2.25-4,5.39-8.28,6-2.29-3.13-1.39-6.89-1.4-10.34q-.11-55-.05-110,0-141.94,0-283.9C3093.56,10.93,3093.79,6.6,3093.92,2.27Z"/><path class="cls-21" d="M2698,2.37l45.82-.05q.06,64.94.13,129.86,0,159.84,0,319.66c0,4.28.47,8.62-.64,12.65-3.26,1.68-4.63-.74-6.15-2.25-11.36-11.25-22.58-22.63-34-33.85-3.55-3.5-5.42-7.49-5.22-12.46.05-1.33,0-2.66,0-4Q2698,207.15,2698,2.37Z"/><path class="cls-21" d="M2600,2.31l45.82.07V366.14c-3.38,1.9-4.73,0-6.07-1.29-11.57-11.49-23-23.09-34.65-34.54-3.54-3.49-5.44-7.47-5.23-12.45,0-1.33,0-2.66,0-4q0-152.79,0-305.57C2599.89,6.3,2600,4.31,2600,2.31Z"/><path class="cls-3" d="M3191.93,2.41c17.32-.62,34.64-.7,52,.06,0,85.94-.11,171.88.16,257.82,0,9.06-2.55,15.73-9.18,21.88-11.47,10.64-22.22,22.06-33.35,33.06-2.31,2.28-4.14,5.28-8.19,6.28-2.54-3.47-1.46-7.57-1.46-11.32q-.11-121.91-.05-243.82Q3191.83,34.39,3191.93,2.41Z"/><path class="cls-21" d="M2500.06,2.39l45.81-.08q.09,128.77.15,257.56c0,2.3.34,4.69-1,6.85-2.86,1.51-4.24-.91-5.76-2.42-11.35-11.24-22.57-22.61-33.94-33.83A15.94,15.94,0,0,1,2500,218c.06-1.66,0-3.32,0-5Q2500,107.71,2500.06,2.39Z"/><path class="cls-3" d="M3290,2.57c17.31-1,34.64-.61,52-.24q.11,82.37.24,164.72c0,4.49-.82,8.48-4.2,11.81-14.68,14.49-29.27,29.08-43.92,43.61-.42.42-1.19.49-2.3.91-2.83-3.34-1.56-7.47-1.57-11.17q-.13-95.84-.07-191.67C3290.09,14.55,3290,8.56,3290,2.57Z"/><path class="cls-21" d="M2402.05,2.34h45.82V168.41c-4.31,1.74-5.7-1.18-7.43-2.88-10.65-10.5-21-21.29-31.85-31.61-5-4.78-6.76-10.15-6.72-16.88C2402.07,78.81,2402,40.58,2402.05,2.34Z"/><path class="cls-3" d="M3389.9,2.33c17.33-.37,34.65-.8,52,.24,0,21-.3,42,0,62.92a21.16,21.16,0,0,1-7,16.72c-12.23,11.78-24.07,24-36.11,35.93-2.07,2.06-3.85,4.57-6.75,5.42-2.91-1.61-2.2-4.2-2.2-6.36Q3389.75,59.76,3389.9,2.33Z"/><path class="cls-3" d="M2424,473.87c-16.28,0-32.57.06-48.85-.06-10.21-.07-11.06-.86-11.16-10.56q-.21-19.42,0-38.87c.11-8.95,1-10,9.58-10.12q19.92-.28,39.87,0c8.52.12,9.87,1.44,10,9.92.29,16.6.28,33.21.39,49.82Z"/><path class="cls-3" d="M2423.89,474c15.62-.05,31.24-.2,46.86-.12,10.22.05,11.08.86,11.19,10.56.14,12.62.17,25.26,0,37.88-.13,8.61-1.23,9.69-10,9.81-13,.17-25.93.19-38.89,0-8-.13-9.32-1.36-9.37-9.41-.1-16.27.19-32.55.33-48.83Z"/><path class="cls-21" d="M2304,2.28l46,.1V70.24c-4.13,1.87-5.46-.57-7-2.07-11.3-11.19-22.45-22.53-33.8-33.68a17,17,0,0,1-5.4-13.33C2304,14.87,2304,8.57,2304,2.28Z"/><path class="cls-14" d="M2884.09,1019.18a12.33,12.33,0,0,1,11.33-12.77,12.13,12.13,0,0,1,12.58,12.43c0,6.87-5.15,12.23-11.69,12.22A12.15,12.15,0,0,1,2884.09,1019.18Z"/><path class="cls-14" d="M2781.69,1018.43a12.69,12.69,0,0,1-12.57,12.65c-6-.1-11-5.14-11.29-11.55-.35-7.26,4.86-13,11.81-13.12A12.29,12.29,0,0,1,2781.69,1018.43Z"/><path class="cls-14" d="M3035,1019.29c-.29,6.15-6.51,12-12.55,11.79-6.59-.22-12.69-6.9-12.09-13.26.57-6.07,7-11.65,13.06-11.26C3029.63,1007,3035.32,1013.21,3035,1019.29Z"/><path class="cls-14" d="M3023.13,924.51a12.5,12.5,0,0,1-12.7-12.44,12.28,12.28,0,0,1,12.21-11.84c6.21,0,12.1,5.81,12.21,12A12.1,12.1,0,0,1,3023.13,924.51Z"/><path class="cls-14" d="M3149.39,924.5A12,12,0,0,1,3137,912.9c-.25-6.18,5.31-12.27,11.54-12.64a12.28,12.28,0,0,1,12.84,11.14A12.52,12.52,0,0,1,3149.39,924.5Z"/><path class="cls-14" d="M2884.08,1124.79a12.34,12.34,0,0,1,12.3-11.93c6.66.11,11.63,5.49,11.56,12.52a12,12,0,0,1-12.15,11.92A12.29,12.29,0,0,1,2884.08,1124.79Z"/><path class="cls-14" d="M2757.82,912.28a12,12,0,0,1,12.11-11.95,12.27,12.27,0,0,1,11.77,12.42c-.14,6.29-6.14,12.07-12.42,12C2762.42,924.59,2757.64,919.41,2757.82,912.28Z"/><path class="cls-14" d="M2908,912.48c0,7-5.11,12.27-11.82,12.22a12.19,12.19,0,0,1-.08-24.37A11.92,11.92,0,0,1,2908,912.48Z"/><path class="cls-14" d="M2642.49,924.5c-6.52-.25-12-6-11.78-12.22s6.29-12.06,12.25-12.06c6.36,0,12.63,6.66,12.27,13S2649,924.76,2642.49,924.5Z"/><path class="cls-3" d="M420,622.07c4.1,4.34,8.1,8.78,12.31,13q39.4,39.49,78.88,78.92c3.05,3,6.39,5.84,8.57,9.66-14.68,14.54-29.29,29.15-44.08,43.57a16.47,16.47,0,0,0-5.4,13.37c.17,3.32,0,6.66,0,10V1224.5c0,17.4,1.15,17.22-16.74,17.13-7.34,0-14.67-.08-22-.08-5,0-7.33-2.46-7.31-7.38,0-3.33-.07-6.66-.07-10q0-194.46,0-388.92c0-4.19.81-8.54-1-12.5-3.73-.52-5.06,2.24-6.83,4-12.09,12-23.81,24.28-36.21,35.9-6.14,5.76-8.25,12-8.23,20.29q.33,144.46.14,288.93c0,19.33.06,38.66,0,58,0,11.18-.59,11.67-12,11.75-8.66.07-17.34.19-26-.11-6.43-.22-7.5-1.45-7.95-7.7-.24-3.31-.11-6.66-.11-10q0-145.47,0-290.94c0-3.92.78-8-.94-11.89-3.38-.93-4.73,1.92-6.46,3.63-12.33,12.18-24.33,24.7-36.91,36.61-5.82,5.52-7.93,11.53-7.91,19.43.22,71.65.13,143.3.13,214.95,0,11.67.11,23.33-.06,35-.14,9.78-1.25,10.85-11,11-9.33.13-18.67.2-28-.07-6.94-.2-7.84-1.32-8.26-8.4-.18-3-.08-6-.08-9q0-96,0-192c0-3.87.66-7.88-.95-11.49-3.82-.58-5.15,2.19-6.92,3.94-12.09,12-23.87,24.22-36.19,35.92-5.75,5.46-8.16,11.35-8.11,19.32.27,48.65.14,97.31.13,146,0,15.79,0,15.79-16.05,15.81h-15c-15.1,0-15.13,0-15.14-14.71q0-48.48,0-97c0-3.62.62-7.32-.79-10.82-2.48-1.45-3.78.45-5.11,1.78-13.71,13.63-27.29,27.38-41.08,40.93-3.91,3.83-5.19,8.19-5.15,13.47.14,17.33,0,34.66,0,52,0,2.66-.06,5.33-.16,8-.16,4-2.35,6.15-6.32,6.18q-16.5.09-33,0c-4.57,0-6.48-2.77-6.57-7.08,0-1.67.07-3.35-.12-5-.45-3.84,1.91-9.5-1.93-11.07-4.5-1.84-6.76,4.11-9.88,6.76-4,3.45-7.79,7.26-11.67,10.91-2.86-4.54-2.16-9.64-2.16-14.59q-.06-99.39,0-198.77,0-200.26,0-400.53c3.66-.09,7.32-.25,11-.25q196.94,0,393.87,0C412.66,621.84,416.33,622,420,622.07Z"/><path class="cls-3" d="M622.1,825.93c3.22,2.87,6.59,5.59,9.64,8.64q197.68,197.58,395.3,395.27c3.47,3.47,7.85,6.37,8.81,11.76l-399.92,0c-1.66,0-3.33,0-5-.05-7.59-.42-8.53-1.35-9-8.79-.1-1.66-.05-3.33-.05-5q0-196.93,0-393.87C621.93,831.26,622,828.59,622.1,825.93Z"/><path class="cls-3" d="M524.38,1241.38c-.11-4.66-.31-9.32-.32-14q0-241.76,0-483.51c0-4.25-.83-8.63.95-12.76,3-1.28,4.36,1.15,5.89,2.66,10.65,10.54,21.15,21.24,31.85,31.73a16.73,16.73,0,0,1,5.38,13.4c-.12,2.33,0,4.67,0,7q0,221.27,0,442.55c0,4.32-.23,8.65-.35,13Z"/><path class="cls-22" d="M330.49,1811.71a9,9,0,0,1,8.88,8.84,9.29,9.29,0,1,1-8.88-8.84Z"/><path class="cls-22" d="M339.35,1902.51c-.22,4.42-4.76,8.68-9.25,8.69-4.93,0-9.6-4.86-9.24-9.65.33-4.57,4.71-8.73,9.22-8.74C335,1892.79,339.59,1897.65,339.35,1902.51Z"/><path class="cls-22" d="M418.76,1811.71c5.17.2,8.93,3.91,9,8.83a8.88,8.88,0,0,1-9.8,8.94,9.31,9.31,0,0,1-8.42-9.49C409.67,1814.89,413.45,1811.5,418.76,1811.71Z"/><path class="cls-22" d="M339.36,1739.06a9.3,9.3,0,0,1-18.57-.29c.06-5,4.78-9.12,9.94-8.77A9.26,9.26,0,0,1,339.36,1739.06Z"/><path class="cls-14" d="M427.62,1738.8c.18,4.87-3.51,8.66-8.7,8.93s-9.12-3-9.39-8.07a9.24,9.24,0,0,1,9.14-9.7A9.05,9.05,0,0,1,427.62,1738.8Z"/><path class="cls-14" d="M506.87,1747.65a8.62,8.62,0,0,1-8.71-9,8.77,8.77,0,0,1,9-8.75,8.89,8.89,0,0,1,8.75,9A8.72,8.72,0,0,1,506.87,1747.65Z"/><path class="cls-2" d="M2744.26,1861.41c-.08-4.33-.22-8.67-.22-13q0-220.44-.21-440.88c0-10.5,2.59-18.35,10.49-25.45,11.14-10,21.31-21.1,32-31.63,2.29-2.26,4.06-5.34,7.68-6,2.72,1.46,1.88,4,2,6.24s.06,4.66.06,7q0,244.93,0,489.88c0,4.66-.18,9.33-.27,14Z"/><path class="cls-2" d="M2646.14,1861.53c-.08-4-.25-8-.25-12q0-172.45-.18-344.9c0-9.76,2.49-17.07,9.78-23.72,11.31-10.32,21.77-21.57,32.68-32.35,2.31-2.28,4.14-5.28,8.12-6.25,2.65,3,1.61,6.86,1.63,10.3.09,27.33,0,54.65,0,82q0,156,0,311.91c0,5-.16,10-.24,15Z"/><path class="cls-2" d="M2548,1861.61c-2.11-4.36-1.93-9.06-1.93-13.71,0-81.89.09-163.78-.14-245.67,0-8.33,2.41-14.51,8.47-20.21,11.64-10.94,22.7-22.49,34-33.79,1.41-1.41,2.79-2.87,4.28-4.19s2.89-3.16,5.12-2,1.77,3.38,1.91,5.32c.11,1.66.08,3.33.08,5q0,147.79,0,295.6c0,4.66.2,9.35-1.93,13.71Z"/><path class="cls-23" d="M3145.86,2113.71H3264l-.14-.13v116.1l.13-.13H3145.85l.14.14q0-58,0-116.11Z"/><path class="cls-2" d="M2448.21,1861.47q-.11-82.47-.23-165c0-4.47.74-8.56,4.1-11.89q21.65-21.5,43.22-43a8.81,8.81,0,0,1,2.53-1.26c2.85,1.49,2.16,4.1,2.16,6.27q-.06,107.46-.22,214.93Z"/><path class="cls-2" d="M2350.15,1861.54c-.08-22.31-.13-44.62-.28-66.93,0-4.9,1.18-9.07,4.78-12.64,14-13.81,27.81-27.76,41.74-41.61a18.75,18.75,0,0,1,3.07-2.09c3.11,1.52,2.41,4.13,2.41,6.3q0,58.44-.18,116.88Z"/><path class="cls-23" d="M3264,2113.72c0-16.3-.05-32.61.08-48.91.07-10,.91-10.8,10.88-10.89,13-.12,26-.18,38.94,0,8,.14,9.5,1.54,9.64,9.31q.38,20.46,0,40.93c-.14,7.68-1.68,9.08-9.75,9.19-16.64.22-33.28.14-49.92.19Z"/><path class="cls-23" d="M3146,2113.59c-15.6,0-31.21,0-46.81-.14-10.46-.09-11.18-.85-11.26-11.49-.1-12.62-.13-25.24,0-37.85.11-8.92,1.09-10,9.55-10.15,13.28-.2,26.57-.21,39.85,0,7.44.14,8.7,1.39,8.76,8.92.12,16.93-.13,33.86-.23,50.79Z"/><path class="cls-23" d="M3263.85,2229.69c16.6-.05,33.21-.22,49.82-.1,8.7.06,9.77,1.14,9.9,9.82q.27,19.43,0,38.85c-.13,8.18-1.27,9.35-9.24,9.46q-20.43.3-40.86,0c-8.11-.11-9.24-1.22-9.34-9.34-.21-16.27-.11-32.55-.13-48.82Z"/><path class="cls-23" d="M3145.85,2229.56c.1,16.26.36,32.53.24,48.8-.06,8-1.3,9.23-9.37,9.35q-19.92.32-39.85,0c-7.5-.13-8.75-1.35-8.88-8.78q-.36-19.92,0-39.84c.12-8.43,1.22-9.43,10.21-9.5,15.94-.11,31.88.07,47.82.12Z"/><path class="cls-24" d="M129.14,393.62c-.55,2.55-2.15,4-4.88,3.8a3.68,3.68,0,0,1-3.64-3.95c0-2.72,1.64-4.51,4.31-4.49S129.12,390.71,129.14,393.62Z"/><path class="cls-24" d="M335.13,393.61c-.54,2.55-2.14,4-4.87,3.81a3.68,3.68,0,0,1-3.64-3.95c0-2.73,1.63-4.51,4.31-4.5S335.12,390.7,335.13,393.61Z"/><path class="cls-25" d="M77.57,479.56c0,2.63-1.28,4.4-4,4.67a4.3,4.3,0,1,1-.86-8.55C75.41,475.41,77,476.88,77.57,479.56Z"/><path class="cls-24" d="M125.34,225c-2.89-.08-4.51-1.58-4.72-4.24a3.68,3.68,0,0,1,3.35-4.21c2.69-.37,4.62.87,5.06,3.59S127.87,224.47,125.34,225Z"/><path class="cls-25" d="M77.57,133.73c-.12,2.85-1.59,4.48-4.26,4.58s-4.43-1.38-4.54-4.12A4,4,0,0,1,73,129.72C75.63,129.61,77.2,131.14,77.57,133.73Z"/><path class="cls-24" d="M335.14,221.22c-.57,2.53-2.07,4.17-4.87,3.69s-4-2.39-3.59-5.09a3.69,3.69,0,0,1,4.24-3.32C333.6,216.7,335.07,218.35,335.14,221.22Z"/><path class="cls-25" d="M73.61,311.21c-2.83,0-4.57-1.41-4.67-4.08s1.6-4.35,4.29-4.35a3.86,3.86,0,0,1,4,3.57C77.63,309.1,76.11,310.61,73.61,311.21Z"/><path class="cls-25" d="M129.23,307c-.39,2.63-1.79,4.36-4.54,4.18s-4.16-1.92-3.91-4.65a3.86,3.86,0,0,1,3.91-3.71C127.45,302.67,128.82,304.37,129.23,307Z"/><path class="cls-25" d="M231.66,523c-.07,2.8-1.48,4.43-4.2,4.41a3.82,3.82,0,0,1-4.05-3.52c-.31-2.67,1-4.56,3.68-4.88S231.22,520.43,231.66,523Z"/><path class="cls-25" d="M278.88,527.31c-2.68-.54-4.2-2-3.91-4.8a3.88,3.88,0,0,1,3.95-3.67,3.94,3.94,0,0,1,4.4,4.24C283.29,525.76,281.53,527.16,278.88,527.31Z"/><path class="cls-25" d="M329.93,518.81c3.3,0,5.07,1.36,5.19,4a4.19,4.19,0,0,1-8.33.87C326.3,520.83,328.16,519.62,329.93,518.81Z"/><path class="cls-25" d="M176,302.67c2.89.14,4.43,1.74,4.42,4.34s-1.57,4.32-4.34,4.21a3.71,3.71,0,0,1-3.71-3.79C172.17,304.78,173.4,303.1,176,302.67Z"/><path class="cls-25" d="M124.4,432.63c2.79-.05,4.54,1.3,4.72,4s-1.54,4.37-4.19,4.45a3.83,3.83,0,0,1-4.11-3.48C120.41,434.84,121.83,433.26,124.4,432.63Z"/><path class="cls-25" d="M129.18,177.46c-.52,2.5-2,4.14-4.74,3.78s-4-2.16-3.62-4.88a3.86,3.86,0,0,1,4.13-3.47C127.61,173,129.07,174.63,129.18,177.46Z"/><path class="cls-25" d="M283.38,393.38c-.49,2.67-2,4.18-4.74,3.92a3.84,3.84,0,0,1-3.7-3.9,4,4,0,0,1,4.19-4.45C281.78,388.94,283.24,390.68,283.38,393.38Z"/><path class="cls-25" d="M231.67,177.51c-.32,2.6-1.78,4.12-4.55,3.88a3.81,3.81,0,0,1-3.76-3.82c-.11-2.67,1.41-4.51,4.06-4.57S231.49,174.75,231.67,177.51Z"/><path class="cls-25" d="M433,441.1c-2.52-.54-4.17-2-3.8-4.76s2.19-4,4.9-3.6a3.84,3.84,0,0,1,3.43,4.15C437.4,439.56,435.74,441,433,441.1Z"/><path class="cls-25" d="M330.75,432.58c2.76.23,4.46,1.73,4.38,4.39a3.91,3.91,0,0,1-4.55,4,3.86,3.86,0,0,1-3.81-3.81C326.59,434.48,328.16,433,330.75,432.58Z"/><path class="cls-25" d="M283.35,436.44c-.05,2.87-1.51,4.58-4.17,4.62s-4.31-1.67-4.25-4.39a3.88,3.88,0,0,1,3.65-4C281.33,432.4,282.84,433.93,283.35,436.44Z"/><path class="cls-25" d="M283.37,177.44c-.49,2.53-2,4.15-4.72,3.81s-4-2.13-3.65-4.87a3.87,3.87,0,0,1,4.11-3.49C281.75,173,283.27,174.59,283.37,177.44Z"/><path class="cls-25" d="M335.23,177.08c-.39,2.61-1.78,4.35-4.52,4.19s-4.17-1.92-3.94-4.64a3.85,3.85,0,0,1,3.9-3.71C333.42,172.8,334.84,174.44,335.23,177.08Z"/><path class="cls-25" d="M437.66,177.06c-.1,2.78-1.51,4.41-4.24,4.36a3.81,3.81,0,0,1-4-3.54c-.29-2.67,1-4.54,3.71-4.84S437.24,174.51,437.66,177.06Z"/><path class="cls-25" d="M227.22,432.58c2.68.28,4.31,1.72,4.27,4.43a3.83,3.83,0,0,1-3.61,4,3.93,3.93,0,0,1-4.74-3.83C222.89,434.44,224.61,433,227.22,432.58Z"/><path class="cls-25" d="M231.5,307.53c-.62,2.53-2.15,4-4.91,3.56A3.89,3.89,0,0,1,223.1,307a3.93,3.93,0,0,1,4.45-4.17C230.26,303,231.55,304.74,231.5,307.53Z"/><path class="cls-25" d="M433.36,518.84c2.69.29,4.24,1.8,4.26,4.47a3.69,3.69,0,0,1-3.49,4c-2.71.28-4.54-1.07-4.76-3.78S430.75,519.33,433.36,518.84Z"/><path class="cls-25" d="M330.92,302.67c2.77.5,4.46,1.95,4.16,4.69s-2.06,4.1-4.8,3.74a3.87,3.87,0,0,1-3.56-4C326.7,304.33,328.46,303,330.92,302.67Z"/><path class="cls-25" d="M73.57,397.36c-2.85,0-4.57-1.44-4.63-4.13A3.93,3.93,0,0,1,73.28,389a3.85,3.85,0,0,1,4,3.62C77.58,395.31,76.1,396.85,73.57,397.36Z"/><path class="cls-6" d="M279.75,354.68c-2.78-.08-4.65-1.39-4.73-4.06s1.74-4.2,4.4-4.23a3.66,3.66,0,0,1,4,3.48C283.71,352.58,282.29,354.16,279.75,354.68Z"/><path class="cls-25" d="M73.56,225c-2.86,0-4.51-1.52-4.64-4.16a3.85,3.85,0,0,1,3.39-4.19c2.71-.45,4.55.85,4.94,3.54S76,224.47,73.56,225Z"/><path class="cls-25" d="M437.49,306.44c0,2.79-1.26,4.56-4,4.71a3.94,3.94,0,0,1-4.42-4.2,3.85,3.85,0,0,1,3.51-4.09C435.34,302.45,436.89,303.91,437.49,306.44Z"/><path class="cls-25" d="M386.45,306c0,3.29-1.36,5-4,5.19a3.66,3.66,0,0,1-4-3.45c-.35-2.59.58-4.59,3.37-5S385.71,304.34,386.45,306Z"/><path class="cls-6" d="M77.61,263.84c-1,3.28-2.9,4.23-5.48,3.55A3.77,3.77,0,0,1,69.06,263c.4-2.68,2.26-4,4.92-3.63C76.86,259.75,77.41,262,77.61,263.84Z"/><path class="cls-6" d="M279.29,259.23c2.68.32,4.25,1.78,4.17,4.5a3.67,3.67,0,0,1-3.71,3.8c-2.65.16-4.53-1.11-4.7-3.86S276.75,259.64,279.29,259.23Z"/><path class="cls-25" d="M72.09,432.63c3.31,0,5.08,1.31,5.23,4s-1.56,4.38-4.22,4.43A4,4,0,0,1,69,437.53C68.47,434.63,70.39,433.48,72.09,432.63Z"/><path class="cls-25" d="M73.63,527.27c-2.82,0-4.56-1.37-4.69-4a3.93,3.93,0,0,1,4.25-4.39,3.88,3.88,0,0,1,4.07,3.55C77.64,525.13,76.14,526.66,73.63,527.27Z"/><path class="cls-25" d="M125.46,527.26c-2.83,0-4.5-1.35-4.71-4a4.17,4.17,0,0,1,8.29-.86C129.52,525.09,128,526.64,125.46,527.26Z"/><path class="cls-25" d="M283.34,305.93c0,3.29-1.3,5.06-4,5.23s-4.38-1.54-4.44-4.19a4,4,0,0,1,3.49-4.14C281.29,302.31,282.49,304.19,283.34,305.93Z"/><path class="cls-25" d="M74.08,181.34c-3.37-.06-5.09-1.48-5.15-4.16a4.19,4.19,0,0,1,8.35-.65C77.7,179.41,75.78,180.57,74.08,181.34Z"/><path class="cls-25" d="M279.39,216.55c2.57.45,4.19,1.95,3.88,4.68a4.19,4.19,0,0,1-8.35-.37C275,218.19,276.57,216.69,279.39,216.55Z"/><path class="cls-25" d="M335.16,133.86c-.68,3.07-2.17,4.7-5,4.32s-4-2.29-3.59-5a3.88,3.88,0,0,1,4.21-3.45C333.59,129.83,334.77,131.74,335.16,133.86Z"/><path class="cls-24" d="M227.38,346.32c2.73.12,4.32,1.51,4.27,4.22a3.71,3.71,0,0,1-3.45,4,4,4,0,0,1-4.74-3.76C223.08,348,224.84,346.68,227.38,346.32Z"/><path class="cls-24" d="M231.72,263.14c-.18,3-1.6,4.5-4.29,4.43-2.13-.05-3.76-1.17-4-3.44a4,4,0,0,1,3.8-4.7C230.05,259.06,231.26,260.91,231.72,263.14Z"/><path class="cls-25" d="M335.07,479.48c-.19,3-1.7,4.73-4.41,4.68s-4.3-1.78-4.14-4.56a3.86,3.86,0,0,1,3.81-3.88C333.15,475.51,334.53,477.18,335.07,479.48Z"/><path class="cls-24" d="M124.65,354.65c-2.66-.29-4.14-1.78-4.07-4.45a3.66,3.66,0,0,1,3.63-3.79c2.61-.21,4.51,1,4.61,3.75S127.18,354.2,124.65,354.65Z"/><path class="cls-24" d="M73.24,346.44c2.67.4,4.24,1.85,4.09,4.54a3.65,3.65,0,0,1-3.76,3.67c-2.61.08-4.46-1.38-4.56-4S70.66,346.63,73.24,346.44Z"/><path class="cls-26" d="M283.57,479.74c-.36,3.07-1.91,4.62-4.65,4.39s-4.15-2.14-3.83-4.8a4,4,0,0,1,4.08-3.62C281.93,475.7,283.31,477.38,283.57,479.74Z"/><path class="cls-25" d="M129.1,479.63c-.3,3-1.81,4.64-4.54,4.53s-4.22-2-4-4.66a3.84,3.84,0,0,1,3.91-3.77C127.25,475.62,128.66,477.26,129.1,479.63Z"/><path class="cls-24" d="M124.16,259.36c2.77.07,4.47,1.55,4.66,4.08.2,2.72-1.61,4.16-4.25,4.15a3.66,3.66,0,0,1-4-3.46A4,4,0,0,1,124.16,259.36Z"/><path class="cls-26" d="M283.58,133.18c-.07,3-1.23,4.9-4,5a4.21,4.21,0,0,1-1-8.35C281.44,129.32,282.78,131.07,283.58,133.18Z"/><path class="cls-24" d="M433.33,389.14c2.91.27,4.36,1.79,4.3,4.45a3.66,3.66,0,0,1-3.56,3.86c-2.63.24-4.49-1-4.64-3.73S431.12,389.73,433.33,389.14Z"/><path class="cls-24" d="M433.42,216.4c2.7.18,4.26,1.6,4.2,4.29-.05,2.13-1.19,3.76-3.46,4a4,4,0,0,1-4.7-3.82C429.11,218.08,430.86,216.76,433.42,216.4Z"/><path class="cls-24" d="M434.5,267.62c-3.3-.05-5.14-1.27-5.09-4a4,4,0,0,1,4.36-4.21c2.2,0,3.54,1.4,3.83,3.59C438,265.8,436.3,267.05,434.5,267.62Z"/><path class="cls-25" d="M386.64,263.56c-.21,2.27-1.33,3.78-3.68,4-2.84.23-4.48-1.26-4.52-4,0-2.19,1.13-3.9,3.52-4.05C384.75,259.26,386.17,260.94,386.64,263.56Z"/><path class="cls-24" d="M335,263.87c-1,3.23-2.93,4.17-5.44,3.58a3.64,3.64,0,0,1-3-4.33c.36-2.63,1.94-4.12,4.69-3.63S334.75,262,335,263.87Z"/><path class="cls-25" d="M129.08,134.36c-.66,2.63-2.15,4.27-5,3.83s-3.95-2.35-3.5-5.05a3.83,3.83,0,0,1,4.27-3.36C127.6,129.93,129,131.65,129.08,134.36Z"/><path class="cls-24" d="M437.68,350c-.07,2.79-1.34,4.6-4.05,4.53a4,4,0,0,1-4.21-4.36,3.65,3.65,0,0,1,3.64-3.78C435.74,346.14,437.32,347.45,437.68,350Z"/><path class="cls-25" d="M176.09,259.39c2.7.08,4.37,1.55,4.47,4.24a3.62,3.62,0,0,1-3.66,3.92c-2.86.23-4.45-1.35-4.45-4.11A3.75,3.75,0,0,1,176.09,259.39Z"/><path class="cls-24" d="M330.42,354.64c-2.77-.49-4.07-2.12-3.81-4.77a3.68,3.68,0,0,1,3.92-3.5c2.65-.05,4.46,1.38,4.31,4.09C334.7,353,332.94,354.42,330.42,354.64Z"/><path class="cls-24" d="M228,224.75c-2.77-.17-4.48-1.66-4.58-4.19-.11-2.68,1.68-4.16,4.34-4.09a3.68,3.68,0,0,1,3.85,3.58A3.93,3.93,0,0,1,228,224.75Z"/><path class="cls-24" d="M231.72,392.92c-.18,3-1.57,4.62-4.27,4.56a3.72,3.72,0,0,1-4-3.46,4,4,0,0,1,3.79-4.73C230.07,388.89,231.25,390.78,231.72,392.92Z"/><path class="cls-26" d="M437.59,479.78c.06,2.68-1.4,4.26-4.09,4.34a3.73,3.73,0,0,1-4.05-3.47c-.34-2.86,1.43-4.29,4.06-4.38A3.66,3.66,0,0,1,437.59,479.78Z"/><path class="cls-25" d="M180.4,220.3c-.17,2.79-1.55,4.47-4.3,4.4-2.33,0-3.5-1.71-3.63-3.9s.88-3.92,3.19-4.23C178.43,216.19,180,217.7,180.4,220.3Z"/><path class="cls-26" d="M176,346.41c2.65-.06,4.27,1.35,4.35,4a3.71,3.71,0,0,1-3.46,4.05c-2.86.34-4.3-1.39-4.41-4A3.64,3.64,0,0,1,176,346.41Z"/><path class="cls-27" d="M386.37,392.9c-.07,2.82-1.41,4.5-4.17,4.52-2.3,0-3.6-1.48-3.74-3.73s.83-3.95,3.07-4.36C384.29,388.81,385.79,390.4,386.37,392.9Z"/><path class="cls-25" d="M386.47,176.94c-.42,3-1.76,4.63-4.59,4.42-2.36-.18-3.49-1.84-3.47-4s1.07-3.89,3.42-4.13C384.69,172.9,385.89,174.76,386.47,176.94Z"/><path class="cls-25" d="M176,181.44a3.69,3.69,0,0,1-3.56-3.95c0-2.68,1.39-4.48,4.23-4.3a3.77,3.77,0,0,1,3.68,3.93C180.39,179.83,178.84,181.35,176,181.44Z"/><path class="cls-25" d="M180.5,436.32c-.47,3-1.81,4.67-4.63,4.42-2.35-.21-3.42-1.95-3.44-4.11s1.09-3.81,3.45-4C178.81,432.29,179.89,434.22,180.5,436.32Z"/><path class="cls-27" d="M176.6,389.16c2.5.62,4.11,2.06,3.67,4.86a3.71,3.71,0,0,1-4.11,3.41c-2.87-.16-4-2-3.66-4.74C172.79,390.39,174.29,389.31,176.6,389.16Z"/><path class="cls-26" d="M432.41,130.38c3-.13,4.68.76,5,3,.44,2.69-.89,4.52-3.64,4.75s-4.36-1.37-4.43-4.05C429.33,131.77,431.12,130.82,432.41,130.38Z"/><path class="cls-25" d="M386.36,219.71c0,3.26-1.41,4.94-4.11,5-2.26,0-3.59-1.49-3.79-3.74s.74-4,3-4.39C384.25,216.05,385.69,217.69,386.36,219.71Z"/><path class="cls-26" d="M231.61,134.52c-.54,2.58-2.09,4-4.83,3.59a3.68,3.68,0,0,1-3.36-4.12c.21-2.8,2.16-3.91,4.81-3.6C230.54,130.66,231.56,132.21,231.61,134.52Z"/><path class="cls-25" d="M386.39,437c-.34,2.25-1.69,3.74-3.89,3.79-2.79,0-4.19-1.76-4.07-4.47a3.55,3.55,0,0,1,3.75-3.75C384.94,432.58,386.3,434.27,386.39,437Z"/><path class="cls-25" d="M386.38,522.84c-.05,2.74-1.4,4.43-4.15,4.47a3.55,3.55,0,0,1-3.8-3.7c-.15-2.73,1.24-4.54,4-4.51C384.65,519.12,386,520.58,386.38,522.84Z"/><path class="cls-25" d="M180.43,523.18c-.37,2.66-1.72,4.33-4.54,4.12-2.36-.18-3.49-1.85-3.47-4s1.06-3.91,3.41-4.13C178.65,518.88,180,520.57,180.43,523.18Z"/><path class="cls-26" d="M382.5,346.37c2.64.47,4.11,2,3.76,4.74a3.69,3.69,0,0,1-4.07,3.43c-2.79-.14-4-2-3.71-4.71C378.7,347.47,380.25,346.49,382.5,346.37Z"/><path class="cls-26" d="M227,476.29c2.4-.1,4.1.79,4.48,3,.44,2.69-.9,4.52-3.65,4.75s-4.38-1.38-4.42-4C223.37,477.76,224.94,476.58,227,476.29Z"/><path class="cls-26" d="M386.43,134.06a3.6,3.6,0,0,1-3.88,3.58c-2.69,0-4.28-1.57-3.86-4.3.33-2.17,2-3.18,4.23-2.94A3.52,3.52,0,0,1,386.43,134.06Z"/><path class="cls-27" d="M180.46,479.54c-.12,2.7-1.5,3.87-3.66,4s-3.86-.86-4.1-3.11c-.28-2.76,1.34-4.21,4-4.13A3.59,3.59,0,0,1,180.46,479.54Z"/><path class="cls-26" d="M386.45,479.66a3.52,3.52,0,0,1-3.3,3.85c-2.17.31-3.91-.52-4.37-2.71-.58-2.71.86-4.33,3.57-4.49C384.52,476.19,386,477.3,386.45,479.66Z"/><path class="cls-27" d="M175.71,130.34c2.8.07,4.47,1,4.66,3.26.23,2.81-1.51,4.12-4.16,4a3.38,3.38,0,0,1-3.56-3.66C172.64,131.58,174.33,130.77,175.71,130.34Z"/><path class="cls-3" d="M2782.19,1129.76a49.39,49.39,0,0,1-4.91,4.8c-5.1,3.82-10.71,3.61-15.32-.32-3.77-3.22-5.15-9.59-3.14-14.44a8.33,8.33,0,0,1,6.46-5.46c2.9-.46,5.87-.47,8.81-.68C2781.14,1116.83,2782.1,1123.08,2782.19,1129.76Z"/><path class="cls-1" d="M408,2479.49l0-49.95h52.1A7.29,7.29,0,0,1,464,2435a159.45,159.45,0,0,1,0,38.5c-.3,2.45-2,4.1-3.7,5.67l-.47.81Z"/><path class="cls-3" d="M460.34,2479.15q-.1-24.81-.22-49.6l-.09.09c2.06-2.15,4.19-4.1,7.41-4.36a239.16,239.16,0,0,1,37.28,0c3.21.25,5.35,2.2,7.41,4.36l-.11-.11a12.45,12.45,0,0,1,4.65,9.53q.75,15.46,0,30.93c-.19,3.88-1.49,7.12-4.72,9.44l.06.08Z"/><path class="cls-1" d="M512,2479.44q0-24.95.07-49.9c13,.05,25.93,0,38.89.18,10.26.13,11.22,1.13,11.33,11.64.12,12.63.06,25.27.08,37.9Z"/><path class="cls-2" d="M1865.88,451V700.81c0,3.66,0,7.32-.13,11a11.44,11.44,0,0,1-4.8,9.41c-14.28,10.56-29.93,18.71-46,26.11-4.53,2.08-6.19,1-6.78-3.76a64.3,64.3,0,0,1-.2-8c0-58.3.08-116.6-.1-174.9,0-8.28,1.73-15.37,6.36-22.47,19.14-29.41,27.46-62.1,25.41-96.91-1.71-29-10.15-56.35-26.8-80.58a28.06,28.06,0,0,1-4.93-16.79q.13-90.94.06-181.89c0-1.67,0-3.34.08-5,.15-3.79,1.7-5.85,5.69-4a273.4,273.4,0,0,1,46.73,26.81,12.44,12.44,0,0,1,5.26,10.29c.09,3.66.12,7.32.13,11Z"/><path class="cls-2" d="M1486,450.1c0-84.27.17-168.53-.21-252.79,0-10.19,2.85-16.73,11.72-21.95,12.06-7.1,23.91-14.52,36.63-20.39,7.61-3.51,9.46-2.39,9.67,6.13.25,10.65.09,21.31.09,32,0,49.29-.09,98.58.08,147.87a39.18,39.18,0,0,1-6.13,21.58c-28.59,46.67-33.89,95.85-14.7,147.38,3.84,10.33,8.45,20.29,15,29.26,4.28,5.89,5.86,12.43,5.85,19.71-.12,59.62,0,119.23-.09,178.85,0,11.91-1.76,13-12.7,7.59-12.52-6.25-24.46-13.54-36.37-20.88-6.31-3.89-8.94-9.1-8.88-16.55.24-28.64.09-57.28.08-85.93Z"/><path class="cls-3" d="M2174,722c2.28,3.6,2,7.66,2,11.64q0,247.44,0,494.87c0,.33,0,.66,0,1-.18,11.15-1,12.11-11.87,12.24-9.33.11-18.66,0-28,0h-12L2124,783.08c0-.33,0-.67,0-1-.58-6.45,1.95-11.36,6.52-16C2145.11,751.48,2160.34,737.51,2174,722Z"/><path class="cls-2" d="M1139.17,724.62c3.82.26,5.28,2.73,7.11,4.54,12.3,12.21,24.38,24.63,36.86,36.66a20.81,20.81,0,0,1,6.9,16.84c-.32,8.66-.07,17.33-.07,26v415.88c0,17.2,0,17.2-16.89,17.21-8.66,0-17.33.16-26-.11-7.34-.22-8.63-1.67-9.08-8.88-.18-3-.08-6-.08-9q0-242.93,0-485.85C1138,733.64,1137.13,729.25,1139.17,724.62Z"/><path class="cls-2" d="M1433,670c-4.39-2.71-7.44-7.18-10.65-11.22-15.58-19.59-29.61-40.21-40.45-62.88a36.75,36.75,0,0,1-3.84-16.32q.08-128.91,0-257.8a43.45,43.45,0,0,1,5.65-21,387.62,387.62,0,0,1,44.15-65.24c1.66-2,3.09-4.41,6-4.77a4.2,4.2,0,0,1,.95.47,1.42,1.42,0,0,1,.52.82c.23,2.31.58,4.61.58,6.92q0,212.84-.07,425.67a10.93,10.93,0,0,1-.45,2.95,5.11,5.11,0,0,1-1,1.62A6.6,6.6,0,0,1,1433,670Z"/><path class="cls-2" d="M1916.56,671.29V231.47c2.62-1.28,3.83.11,4.86,1.32,18.14,21.41,34.48,44,46.78,69.37a36.58,36.58,0,0,1,3.87,16.32q-.09,132.4,0,264.81a35.7,35.7,0,0,1-3.86,16.32c-12.89,25.8-29.41,49.08-48.69,70.45C1919.13,670.48,1918.37,670.56,1916.56,671.29Z"/><path class="cls-2" d="M1237.53,822.44c3.9.86,5.57,3.55,7.65,5.61,11.6,11.49,22.87,23.33,34.77,34.5,6.12,5.75,8.3,12.06,8.26,20.33-.27,52.31-.14,104.63-.14,156.94q0,93.48,0,186.94c0,14.87-.11,15-15.14,15-9,0-18,.14-27-.07-8.41-.2-9.55-1.53-9.9-10.12-.08-2,0-4,0-6q0-195.43,0-390.87C1236.06,830.8,1235.1,826.73,1237.53,822.44Z"/><path class="cls-3" d="M2078,1239.8c-3.31,2-7,2-10.65,2-10.64,0-21.29.16-31.93-.08-7.84-.19-9-1.6-9.43-9.56-.07-1.33,0-2.66,0-4l.06-358.22c14.56-12.69,27.44-27.1,41.34-40.47,2.59-2.5,4.8-5.48,8-7,3.19,1.44,2.41,4.06,2.52,6.23.15,3.32.05,6.65.05,10Z"/><path class="cls-2" d="M1335,920.68c4.07.19,5.5,2.69,7.32,4.5,13,12.9,25.81,26,38.94,38.76a20.66,20.66,0,0,1,6.72,15.91q-.17,124.87-.11,249.75c0,10.63-1.52,12-12.31,12.1-10,.13-20,.16-30,0-9.61-.17-11.06-1.69-11.44-11-.1-2.33,0-4.66,0-7q0-145.35,0-290.71C1334.13,929.07,1333.66,925.06,1335,920.68Z"/><path class="cls-3" d="M1976,920c2.31,3.59,2,7.65,2,11.63q0,148.47,0,296.92c0,2-.06,4-.15,6-.18,4.32-2.33,7-6.76,7-12,.13-24,.12-36,0-4.33,0-6.78-2.36-7-6.78-.1-1.66-.18-3.32-.18-5q0-131,.11-261.92Q1953.1,945,1976,920Z"/><path class="cls-3" d="M1878,1017.94c2.26,3.61,2,7.66,2,11.63q0,99.78,0,199.56a57.74,57.74,0,0,1-.36,7c-.36,3-2.13,5.22-5.12,5.22-15.53,0-31.15,2.44-46.55-1.51,0-52.61.23-105.22-.12-157.83-.07-9.44,2.76-16.27,9.53-22.81C1851.22,1045.75,1865.3,1032.51,1878,1017.94Z"/><path class="cls-2" d="M1435.17,1020.42c3.59.52,5,2.56,6.59,4.17,12.51,12.46,24.87,25.08,37.54,37.38a20.56,20.56,0,0,1,6.77,15.88c-.14,50.65,0,101.29-.1,151.94,0,11-.94,11.82-12.12,11.93-9.66.09-19.33.13-29,0s-10.62-1.29-10.89-11.17c0-1.33,0-2.67,0-4q0-97.45,0-194.92C1434,1028,1433.41,1024.34,1435.17,1020.42Z"/><path class="cls-2" d="M1758,220.81V292.7c0,2.33.09,4.67-.06,7-.44,6.9-1.36,7.52-7.83,4.47a184.49,184.49,0,0,0-41.49-14c-7.2-1.48-8.2-2.76-8.37-10.12-.26-11-.11-22-.11-32.94q0-52.42,0-104.84c0-2.33,0-4.67,0-7,.26-10.3,2.34-12.17,12.79-10.71,8.89,1.24,17.77,2.67,26.58,4.4,20.66,4.06,18.39,2.58,18.46,23C1758,174.88,1758,197.85,1758,220.81Z"/><path class="cls-2" d="M1758,681.24c0,25,0,50,0,75,0,11.8-.86,12.7-12.48,15.2-12.06,2.61-24.28,4.2-36.52,5.63-6.68.78-8.21-.6-8.75-7.45-.19-2.32-.09-4.66-.09-7q0-67,0-134c0-2,0-4,0-6,.38-8.4,1-9.53,9.46-11.52a189.84,189.84,0,0,0,39.58-13.7c7.09-3.44,8.66-2.42,8.7,5.84.16,26,.06,52,.06,78Z"/><path class="cls-2" d="M1650.05,695.15q0,34.49,0,69c0,2.66,0,5.34-.3,8-.37,3.61-2.55,5.33-6.15,4.93-14.23-1.58-28.42-3.43-42.36-6.89-5-1.24-7.23-4.32-7.21-9.32,0-2.33-.08-4.66-.08-7V607.9c0-1.33,0-2.67,0-4,.33-9.21,1.51-10,10-6a171.47,171.47,0,0,0,34.8,12.25c11,2.56,11.23,3,11.27,14C1650.1,647.84,1650.05,671.5,1650.05,695.15Z"/><path class="cls-2" d="M1593.94,219.63c0-25.3,0-50.6,0-75.9,0-10.11,1-11.33,10.86-13.28,11.1-2.18,22.25-4.09,33.43-5.8,9.39-1.44,11.7.37,11.72,9.61q.16,72.41,0,144.81c0,8.45-1,9.43-9.42,11.32a189.15,189.15,0,0,0-37.63,13.16c-8,3.64-8.9,3.08-8.94-6C1593.88,271.57,1593.94,245.6,1593.94,219.63Z"/><path class="cls-2" d="M1532.86,1118.2c4.83,1.22,6.68,4.2,9,6.49,11.83,11.71,23.47,23.64,35.41,35.24,4.59,4.46,7,9.29,6.89,15.83-.26,18.31,0,36.63-.13,55-.07,9.76-1.23,10.84-11,11q-15,.21-30,0c-9.72-.15-10.88-1.25-10.92-11.08q-.18-40.47,0-80.93C1532.14,1139.47,1531.22,1129.19,1532.86,1118.2Z"/><path class="cls-3" d="M1781.86,1241.77c-13.63,0-27.26.11-40.88,0-9.67-.11-10.89-1.3-10.94-11.06-.11-21.6,0-43.2,0-64.81,14.59-12.7,27.47-27.17,41.43-40.52,2.58-2.46,4.53-5.82,8.27-6.76a5.94,5.94,0,0,1,1,.52c.24.21.53.53.53.8C1782.67,1160.52,1781.69,1201.15,1781.86,1241.77Z"/><path class="cls-3" d="M1038.07,220c0-16.29-.07-32.58.08-48.88.09-9.84,1.21-11,10.89-11.08,13-.15,25.94-.17,38.9,0,8.48.13,9.85,1.49,10,10q.28,20,0,39.9c-.12,8.43-1.49,9.8-10,9.9-16.63.2-33.26.1-49.89.13Z"/><path class="cls-3" d="M1038,220c0,15.66.16,31.33,0,47-.08,9.79-1.23,10.9-11,11-12.33.15-24.66.18-37,0-8.47-.14-9.86-1.51-10-10q-.3-19,0-38c.14-8.45,1.56-9.91,10-10,16-.16,32,0,48,0Z"/><path class="cls-3" d="M1297.81,1377.12c.2,8.15-6.65,15.2-15.09,15.52s-14.61-6.29-14.64-15.47a15,15,0,0,1,14.26-15C1290.49,1361.76,1297.6,1368.65,1297.81,1377.12Z"/><path class="cls-3" d="M1438.51,1492.87c7.87.28,15.42,8.19,15,15.68-.47,7.72-8.54,15.1-16.06,14.67s-14.82-8.65-14.29-16.34S1430.88,1492.6,1438.51,1492.87Z"/><path class="cls-23" d="M1656.07,1239.84c-6,2.57-12.33,2-18.59,1.68-4.22-.22-6.93-2.54-7-6.81-.16-5.5-2.9-13.21,1.61-15.89,5.1-3,8.15,4.76,11.85,8,4.44,3.9,8.86,8,12.16,13Z"/><path class="cls-14" d="M1680,1215.89c3.3,6.17,1.88,12.8,1.76,19.27-.08,4.41-2.93,6.36-7.09,6.46-5.57.14-11.13.15-16.7.21l-1.92-2h0A195,195,0,0,0,1680,1215.89Z"/><path class="cls-3" d="M2642.53,1325.89c7.42-.2,13,5,12.86,12.06-.12,6.36-5.78,11.58-12.51,11.53s-12.33-5.32-12.36-11.68C2630.49,1331.22,2635.68,1326.07,2642.53,1325.89Z"/><path class="cls-3" d="M2633.91,1239.91c-2.17-2.65-3.7-5.53-3.4-9.09a12.71,12.71,0,0,1,13.81-11.47,12.43,12.43,0,0,1,10.66,15.14c-.62,2.54-2.08,4.87-3.15,7.3C2645.56,1243.91,2639.46,1244.49,2633.91,1239.91Z"/><path class="cls-3" d="M2506.05,1239.69c-.76-3.17-2.07-6.25-1.71-9.62.65-6.11,7-11.52,13-11,6.79.53,12.23,6.74,11.36,13.5-.32,2.51-1.76,4.88-2.69,7.32C2519.29,1245.22,2512.66,1243.91,2506.05,1239.69Z"/><path class="cls-3" d="M2380,1239.78a18.64,18.64,0,0,1-1.81-9.58c.68-6.22,5.89-11.18,11.77-11.19s11.11,4.94,11.8,11.17a18.58,18.58,0,0,1-1.81,9.57C2393.29,1244.87,2386.64,1244.85,2380,1239.78Z"/><path class="cls-3" d="M2516.14,1349.58a12.08,12.08,0,0,1-11.82-12.28c-.06-6.56,5.49-11.6,12.5-11.33,7.2.27,12.29,5.38,11.95,12A12.37,12.37,0,0,1,2516.14,1349.58Z"/><path class="cls-3" d="M2516.14,1432c6.74,0,12.47,5.21,12.61,11.59s-5.51,11.86-12.19,12a11.81,11.81,0,1,1-.42-23.61Z"/><path class="cls-3" d="M2759.93,1239.83a21.43,21.43,0,0,1-2-8.63c0-7.27,4.61-12.19,11.44-12.24,6,0,12.23,5.86,12.15,12,0,2.91-1.09,5.8-1.68,8.71C2773.25,1243.88,2766.61,1245.24,2759.93,1239.83Z"/><path class="cls-3" d="M2401.76,1550c0,7.12-4.59,11.63-11.83,11.61s-11.82-4.55-11.77-11.68a11.8,11.8,0,1,1,23.6.07Z"/><path class="cls-3" d="M2378.16,1337.22c.18-7.12,5.17-11.66,12.37-11.24a11.8,11.8,0,1,1-12.37,11.24Z"/><path class="cls-3" d="M2390.38,1455.56a11.79,11.79,0,1,1,11.37-12.47A11.64,11.64,0,0,1,2390.38,1455.56Z"/><path class="cls-1" d="M966.05,1783.8a9.86,9.86,0,0,1,6,1.86A10.55,10.55,0,0,1,966.05,1783.8Z"/><path class="cls-1" d="M972.06,1883.71a9.78,9.78,0,0,1-6,1.86A10.61,10.61,0,0,1,972.06,1883.71Z"/><path class="cls-1" d="M512.13,2429.65H460V2327.57h52.1Z"/><path class="cls-1" d="M614.12,2327.56v102.09c-13,0-25.91.06-38.87-.07-10-.11-11.26-1.16-11.3-10.63q-.19-40.36,0-80.72c0-9.47,1.28-10.53,11.3-10.63C588.21,2327.47,601.17,2327.56,614.12,2327.56Z"/><path class="cls-3" d="M2401.79,1018.46c-.1,7.4-5.67,13.15-12.4,12.81s-11.46-5.75-11.34-12.69,5.23-12.15,11.85-12.18A11.82,11.82,0,0,1,2401.79,1018.46Z"/><path class="cls-14" d="M2528.47,1019.22a12.75,12.75,0,0,1-12.33,12.06c-6.85,0-12.32-6.12-11.82-13.32.47-6.84,6.13-12,12.58-11.54A12.68,12.68,0,0,1,2528.47,1019.22Z"/><path class="cls-3" d="M2504.28,1124.55c.2-6.26,6.07-11.88,12.46-11.92s12.51,6.69,12,13.36c-.42,6-6.89,11.53-13.13,11.3C2509.25,1137.05,2504.07,1131.25,2504.28,1124.55Z"/><path class="cls-3" d="M2401.78,1125.85a11.84,11.84,0,0,1-12.44,11.43c-6.62-.37-11.4-5.74-11.29-12.66s5.24-12.21,11.8-12C2397,1112.93,2402,1118.47,2401.78,1125.85Z"/><path class="cls-3" d="M2504.35,911.49a12.42,12.42,0,0,1,12.85-11.26c6.12.32,11.88,6.63,11.57,12.69-.34,6.8-6.83,12.5-13.42,11.78C2509.26,924,2503.81,917.5,2504.35,911.49Z"/><path class="cls-14" d="M2655.38,1125.21c.09,5.62-6.41,12.12-12.22,12.23s-12.09-6.11-12.4-12.06,5.65-12.37,11.64-12.72S2655.28,1118.83,2655.38,1125.21Z"/><path class="cls-14" d="M2643.27,1031.05c-5.84.19-12.27-5.86-12.52-11.8-.27-6.12,6.28-12.78,12.63-12.84,5.27,0,11.62,5.92,12,11.26C2655.79,1023.84,2649.45,1030.85,2643.27,1031.05Z"/><path class="cls-3" d="M2401.79,912.25a12.4,12.4,0,0,1-11.74,12.47c-6.93.27-12.2-5.48-11.92-13a11.84,11.84,0,0,1,23.66.54Z"/></svg>