<svg id="Layer_1" data-name="Layer 1" xmlns="http://www.w3.org/2000/svg" viewBox="0 0 841.92 595.68"><defs><style>.cls-1{fill:#383838;}.cls-2{fill:#474747;}.cls-3{fill:#4d4d4d;}.cls-4{fill:#242424;}.cls-5{fill:#2d2d2d;}.cls-6{fill:#404040;}.cls-7{fill:#484848;}.cls-8{fill:#424242;}.cls-9{fill:#414141;}.cls-10{fill:#252525;}.cls-11{fill:#272727;}.cls-12{fill:#2f2f2f;}.cls-13{fill:#464646;}</style></defs><path class="cls-1" d="M0,75.36V73c.71-1,1.56-.92,2.63-.55C9.13,74.65,15.57,77,21.59,79.08c.82.11.28.48.47.22,0-.06,0-.1-.09-.13C15.29,77,8.76,74.44,2.1,72.23A5.52,5.52,0,0,1,0,70.56v-2.4a1.87,1.87,0,0,1,2.43-.63c4.52,1.58,9,3.25,13.5,4.87.27.19,0-.45,0-.14,0,.15-.07.2-.18.16C11.59,70.63,7.29,69.27,3,67.79a6.57,6.57,0,0,1-3-2v-2.4a2,2,0,0,1,2.76-.56c2.13.92,4.42,1.51,6.58,2.41.29.13.05-.38.08-.06,0,.06,0,.07-.13,0-2.11-1-4.34-1.59-6.52-2.36A5.54,5.54,0,0,1,0,61V58.57c.62-.76,1.32-1.21,2.12-.74.48.22-.05.33.17.1C1.25,57.72.73,56.83,0,56.17V.49A4.12,4.12,0,0,1,2.37.26q119.89,0,239.78,0a7.3,7.3,0,0,1,2.14.11c1.35,1.45.2,1.63-.92,1.77-4.44.58-8.88,1.12-13.29,1.9a147.51,147.51,0,0,0-55.41,21.85,149.52,149.52,0,0,0-54.86,63.34,146.76,146.76,0,0,0-13,47.93,132,132,0,0,0-1,16.51c.82,30.21,9.36,57.94,26.93,82.68,18.86,26.54,43.94,44.83,74.61,55.47a146,146,0,0,0,37.28,7.54c2.78.2,5.58.22,8.35.64,1.45,2.55,1.17,3.45-1.54,4.18a74.8,74.8,0,0,0-18.44,7.3c-15,8.78-24.23,21.94-29.4,38.22A75.72,75.72,0,0,0,200,375.2c.62,17.93,5.7,34.35,17.67,48.09a60.3,60.3,0,0,0,30.47,19,38.93,38.93,0,0,1,4.38,1.22,2.14,2.14,0,0,1,1.52,2.21c-.06,1-.24,1.95-1.55,2a21.3,21.3,0,0,1-4.29.35q-71.62,0-143.24-.06a119.55,119.55,0,0,1-24-2.69,150.65,150.65,0,0,1-37.34-12.75c-14.67-7.38-28.12-16.5-39.64-28.31A19.7,19.7,0,0,1,0,399.36v-157a4.31,4.31,0,0,1,2.59-2.06C2,240.54,1,241.44,0,240v-2.4c1.56-2.44,4.47-2.34,6.72-3.48a23.88,23.88,0,0,1,3.17-1.2c-2.59,1.14-5.31,1.91-7.93,2.94-1.09.43-1.4-.19-2-.66v-2.4c1.18-2,3.38-2.24,5.27-2.94,3.29-1.21,6.6-2.38,8.7-3.13-3,1-7.19,2.66-11.43,4.08-1.07.36-1.81.51-2.54-.41V228c1.5-2.5,4.36-2.71,6.67-3.49,5.2-1.75,10.29-3.8,14.59-5.12-5.58,2-12.1,4.28-18.62,6.6-.93.33-1.91.75-2.64-.39v-2.4c1.5-2.51,4.36-2.64,6.67-3.42,7.4-2.53,14.69-5.35,19.78-7-3.89,1.33-10,3.68-16.28,5.74-2.64.87-5.22,1.91-7.86,2.76A1.86,1.86,0,0,1,0,220.8v-2.4c1.63-2.47,4.49-2.51,6.89-3.41,9.25-3.49,18.6-6.68,25.24-9.07-7.94,2.88-18.6,6.58-29.2,10.43C2,216.7.87,217.18,0,216v-2.4c1.6-2.2,4.22-2.27,6.46-3.19,5-2,10.13-3.68,15.2-5.52,6.55-2.38,13.13-4.66,16.68-5.95-8.91,3-20.66,7.56-32.62,11.5a18.9,18.9,0,0,0-3.12,1.14A1.81,1.81,0,0,1,0,211.2v-2.4c1.4-2.48,4.2-2.71,6.41-3.44,12.75-4.24,25.3-9,38-13.37a13.57,13.57,0,0,0,2.24-.75c.83-.2.31-.49.48-.22,0,0,0,.07-.16.11-14.7,5.07-29.31,10.42-44,15.51-1.07.37-2.06.93-3-.24V92.16c1.37-1.79,3.08-.57,4.27-.08,6.43,2.66,13.07,4.7,19.59,7.07,7.94,2.89,15.92,5.69,21.67,7.64-4.5-1.66-11.31-3.92-18-6.4-8.24-3-16.59-5.72-24.79-8.84A7.26,7.26,0,0,1,0,89.76v-2.4C1,86.28,2,86.51,3.18,86.94c12.7,4.44,25.3,9.15,38.05,13.43,0,0,0,.13,0,.08-8.54-3-17.07-6-25.61-9.09-4.37-1.55-8.79-3-13.08-4.75A7.31,7.31,0,0,1,0,85v-2.4a2.17,2.17,0,0,1,2.76-.63c8.26,3.28,16.78,5.84,25,9.11a50.6,50.6,0,0,0,6,2C23.66,89.42,13.19,85.75,2.74,82A7.15,7.15,0,0,1,0,80.16v-2.4c.84-1.08,1.76-.8,2.9-.42,8.47,2.8,16.81,6,25.24,8.84.3.13,0-.34,0,0,0,.07-.08.08-.23,0-8.35-3.17-16.84-6-25.24-9A7.14,7.14,0,0,1,0,75.36Z"/><path class="cls-2" d="M252.46,446.87c.43-1.39-.2-2.12-1.48-2.48-2.08-.58-4.18-1.09-6.23-1.77-18.35-6.13-31.14-18.37-39.09-35.82a78.44,78.44,0,0,1-6.87-36.66c.83-17.69,6.47-33.65,18.17-47.18a61.33,61.33,0,0,1,17.44-13.7,72.15,72.15,0,0,1,15.85-6.07c1.13-.3,2.52-.43,2.19-2.21,0-1.06.79-1.05,1.49-1.14a28.77,28.77,0,0,1,3.35-.08q103.94,0,207.87,0c1.57,0,3.2-.36,4.68.52a2.69,2.69,0,0,1,.24.87c.06,1.06-.6,1.36-1.49,1.41a93.29,93.29,0,0,0-11.53,1.76,3.25,3.25,0,0,1-1.15.25A75.81,75.81,0,0,0,437,312.37c-3.2,1.81-5.9,4.38-9.26,5.92-.81.38-.4,1.43-1.07,1.88-.82.88-2.67.41-2.81,2.16a4,4,0,0,1-2.23,2.23c-1.59,0-1.27,1.46-1.72,2.32-1.55.39-2.05,1.81-2.94,2.9-6.27,7.63-10.14,16.49-13.36,25.7a1.46,1.46,0,0,0,0,.47,16.65,16.65,0,0,1-.52,2.22c-.83,4.89-1.9,9.75-1.62,14.76-1.26,15.21-.9,30.46-1,45.7,0,3.19,1.23,6.18.85,9.47a83.36,83.36,0,0,0-.33,12.45c.14,4.05,1.22,5.2,5.3,5.54a70.14,70.14,0,0,1,12.32,1.72c1-.14,1.83.52,2.8.49,9.11,1.36,17.8,4.22,26.38,7.46,2.67,1,5.17,2.4,7.84,3.38,1-.18,1.07,1.38,2.1,1.21,1.66.14,2.91,1.19,4.28,1.94a19.48,19.48,0,0,0,4.6,1.92c.41,2.2,2.47,1.91,3.89,2.59,6,4.63,12.53,8.4,18.24,13.38,1.26,1.1,1.94,3,4,3.13.6.66.51,2,1.88,1.92,4.18,4.66,8.93,8.79,12.76,13.76.74,1,2.13,1.51,2.11,3,.54.77,1.49,1.06,2.09,1.76,0,1.53,1.35,2.15,2.06,3.19a149.82,149.82,0,0,1,9.83,15.61c1.51,2.93,3.67,5.57,4.13,9,.16,1.16,2.38,1.08,2,2.78-.09,2.4,1.31,4.2,2.5,6.09.69,3.29,2.31,6.25,3.26,9.46A154.62,154.62,0,0,1,541,576.06a3.36,3.36,0,0,1,.15,1.26,92.4,92.4,0,0,1,.94,15.14c-.05,1.23-.09,2.41-1.21,3.22H329.74a3.24,3.24,0,0,1-1.21-2.74c.05-1,0-2.07,0-3.11q0-57,0-113.89a19.13,19.13,0,0,0-.28-4.78c-.25-1-.7-1.86-1.87-1.86s-1.63.89-1.88,1.86a19.13,19.13,0,0,0-.28,4.78q0,57.66,0,115.33c0,1.56.3,3.24-1.19,4.41h-4.8a3.24,3.24,0,0,1-1.21-2.74c.05-1,0-2.07,0-3.11q0-57,0-113.89a19.13,19.13,0,0,0-.28-4.78c-.24-1-.7-1.86-1.87-1.86s-1.63.89-1.88,1.86a19.13,19.13,0,0,0-.28,4.78q0,57.66,0,115.33c0,1.56.3,3.24-1.19,4.41h-59c-.89-.57-.78-1.45-.78-2.34.12-46.38,0-92.76.05-139.14a31.77,31.77,0,0,0-.24-4.78A2.7,2.7,0,0,1,252.46,446.87Z"/><path class="cls-1" d="M841.82,299V448.32a5,5,0,0,1-.69.61,5.6,5.6,0,0,1-2.54.58c-5.28,0-10.55.12-15.82-.09-.92,0-1.84,0-2.77,0-11.22.14-22.44.16-33.66,0-.93,0-1.86,0-2.79,0-11.23.14-22.46.16-33.69,0-.93,0-1.86,0-2.79,0-11.23.14-22.45.16-33.68,0-.93,0-1.86,0-2.79,0-11.23.14-22.46.16-33.69,0-.93,0-1.86,0-2.79,0-11.19.14-22.39.16-33.59,0-.89,0-1.78,0-2.68,0-9.63.27-19.24.38-28.65-2.24a35.17,35.17,0,0,1-5.17-1.71c-1.09.2-1.85-.88-2.92-.75a63.46,63.46,0,0,1-17.74-10.45c-1-.86-2.41-1.19-3.13-2.41-.07-1.64-1.66-1.58-2.57-2.29a7.07,7.07,0,0,0-1.61-2.38,35.48,35.48,0,0,1-7.84-10.91c-.52-1.19-2.33-1-2.08-2.52.15-1.85-1.1-2.88-2.3-3.95-.78-4-2.67-7.59-3.75-11.48a19.68,19.68,0,0,1-1-4.13,5.41,5.41,0,0,1-.5-2.34,77.29,77.29,0,0,1-.63-33.13c0-.4,0-.81,0-1.21a80,80,0,0,1,4.64-15.92,18.88,18.88,0,0,0,1.19-4.1c1.3-1,2.41-2.18,2.33-4,3.11-3.12,4.11-7.83,7.82-10.53.44-.31.38-1,.47-1.54.66-1,2.39-.93,2.4-2.52,7-6.91,14.71-12.68,24-16.11a7.08,7.08,0,0,1,3-.63c-1.29-.25-.84-1.14-.56-2a5.84,5.84,0,0,1,3.06-.4c5.11,0,10.23.05,15.35,0a69.28,69.28,0,0,0,46.51-18.23c14.84-13.28,23-30,24.66-49.89.29-3.36.41-6.7.41-10q0-72.21,0-144.41c0-18.47-5.49-35.17-17.45-49.39a71.09,71.09,0,0,0-42.8-25c-1.17-.21-2.35-.46-3.53-.63-.79-.12-1.41-.4-1.18-1.39.63-.75,1.48-.48,2.25-.48q57.21,0,114.41,0c3.11,0,3.27.34,3.52,3.42.3,3.72-1,7.25-1,10.92q0,114.9.07,229.81c0,5,1.14,10,1,15,1.53,5.54.66,11.27,1.29,16.9,2,17.62,7.2,33.91,18.55,47.81C781,339.44,797.31,348,816.82,350.59a68.91,68.91,0,0,0,17.69,0c4.83-.58,5.62-1.35,5.62-6.14q0-21.11,0-42.2a12.82,12.82,0,0,1,.12-2.63C840.46,298.71,841,298.5,841.82,299Z"/><path class="cls-3" d="M252.46,446.87a52.61,52.61,0,0,1,.49,8.6q0,67.13,0,134.25a22.52,22.52,0,0,1-.47,6H0V399.36a7.12,7.12,0,0,1,2.66,2,144,144,0,0,0,27.12,22,144.44,144.44,0,0,0,16.58,9.15,140.27,140.27,0,0,0,21.49,8.2,142.36,142.36,0,0,0,31.07,5.69c16,.88,32,.34,48,.38C182.09,446.94,217.28,446.87,252.46,446.87Z"/><path class="cls-2" d="M841.82,299a10.8,10.8,0,0,0-.46,4.26q0,21.46,0,42.93c0,4.6-.14,4.8-4.7,5.42a75.6,75.6,0,0,1-52.07-11.32,72.57,72.57,0,0,1-24.25-25.75,94.22,94.22,0,0,1-11.69-38.24,70,70,0,0,1-.38-9.81c.1-2.22-.83-4.22-1-6.36a5.19,5.19,0,0,1-.21-2.59q0-127.62,0-255.24c0-.77-.26-1.6.22-2.33h94.55Z"/><path class="cls-4" d="M311.5,595.68c0-1.28-.08-2.56-.08-3.84V472.18c0-1,0-2.08.07-3.12a1.85,1.85,0,0,1,1.81-1.87l.48-.05c3.83-.38,4.51.22,4.51,4.08q0,60.91,0,121.82c0,.88-.05,1.76-.07,2.64Z"/><path class="cls-4" d="M323,595.68c0-1.28-.08-2.56-.08-3.84V472.18c0-1,0-2.08.07-3.12a1.85,1.85,0,0,1,1.81-1.87l.48-.05c3.83-.38,4.51.22,4.51,4.08q0,60.91,0,121.82c0,.88-.05,1.76-.07,2.64Z"/><path class="cls-5" d="M540.9,595.68c.29-6.27-.37-12.49-.94-18.72a4.46,4.46,0,0,1,2.93-.7c6.7,0,13.4,0,20.1,0,2.8,0,3.06.29,3.09,3.08.06,4,0,8,0,12,0,1-.29,2.39,1.48,2.38a38.89,38.89,0,0,0,6.65.3c9,.06,18-.12,26.93.09H604c11.23-.14,22.45-.16,33.68,0h2.79c11.23-.14,22.46-.16,33.69,0h2.79c11.23-.14,22.45-.16,33.68,0h2.79c11.23-.14,22.46-.16,33.69,0h2.79c11.23-.14,22.45-.16,33.68,0h2.79c11.23-.14,22.45-.16,33.68,0h2.8c5.26-.18,10.52-.06,15.78-.08a3.63,3.63,0,0,1,2.7.85.66.66,0,0,1,0,.82Z"/><path class="cls-6" d="M747.27,0q0,129.12,0,258.24c0,.64,0,1.28,0,1.92a10.37,10.37,0,0,1-.46-3.79V6.94c0-1,0-2.08,0-3.12-.07-2.77-.52-3.23-3.2-3.32-.48,0-1,0-1.44,0H633a12.08,12.08,0,0,0-4.27.43c0,1-.73,1-1.42,1.14C626,2,624.27,2.4,624.89,0Z"/><path class="cls-7" d="M624.89,0l2.42.94c-.16,1.52-1.39,1.17-2.22,1.12-14.38-.87-28.77-.35-43.16-.35q-160.56-.09-321.13,0a84.29,84.29,0,0,0-10.29.38c-1.37.17-2.87.46-4.15-.52C246,.37,246.79.31,247.61.24c1-.08,2,.25,2.94-.23Z"/><path class="cls-8" d="M250.55,0,246.7,1q-1.23,2.21-2.42,0A12,12,0,0,0,240,.49Q218,.48,195.9.49H0C.13.34-.22,0,.26,0,.9,0,1.54,0,2.18,0Z"/><path class="cls-4" d="M0,206.4c7.42-2.29,14.66-5.08,22-7.64,8.61-3,17.19-6.1,25.79-9.13a3.05,3.05,0,0,1,2.49-.31,5,5,0,0,1-3.42,3q-5.64,2-11.3,4-16.85,6-33.7,11.94c-.6.22-1.22.37-1.84.55Z"/><path class="cls-4" d="M0,89.76c2.72.41,5.19,1.62,7.74,2.51,12.74,4.48,25.46,9,38.2,13.51a8.45,8.45,0,0,1,4.72,3.5,3.19,3.19,0,0,1-2.44-.36q-21-7.44-42-14.9A31.76,31.76,0,0,0,0,92.16Z"/><path class="cls-4" d="M0,85c1.08.29,2.19.49,3.24.86Q21.78,92.38,40.31,99a6.08,6.08,0,0,1,3.63,3.12c-1,.41-1.75-.1-2.5-.37Q29.25,97.39,17.05,93c-4.81-1.71-9.64-3.4-14.46-5.11A8.69,8.69,0,0,0,0,87.36Z"/><path class="cls-4" d="M0,211.2a76.22,76.22,0,0,0,8.19-2.71q16.49-5.84,33-11.71a4.08,4.08,0,0,1,2.78-.44,5.91,5.91,0,0,1-3.47,3c-2.18.79-4.36,1.58-6.54,2.35L4.13,212.29c-1.35.48-2.74.88-4.11,1.31Z"/><path class="cls-4" d="M0,216c7.51-2.26,14.8-5.15,22.2-7.73,5.05-1.75,10.08-3.56,15.68-5.54a6.14,6.14,0,0,1-3.5,3.53c-2.33.86-4.66,1.71-7,2.53L0,218.4Z"/><path class="cls-4" d="M0,80.16c4,.77,7.74,2.52,11.58,3.84,7,2.39,14,5,21,7.44a20.81,20.81,0,0,1,2.44,1,4.24,4.24,0,0,1,2.36,2.36c-1,.56-1.76,0-2.52-.23q-9.49-3.33-19-6.71c-4.29-1.52-8.58-3-12.88-4.53-1-.33-2-.51-3-.77Z"/><path class="cls-4" d="M0,220.8c5.62-1.61,11-3.79,16.56-5.68,4.16-1.42,8.29-2.93,12.44-4.37a3.21,3.21,0,0,1,2.41-.37,7.31,7.31,0,0,1-4.23,3.35c-5.81,2-11.6,4.13-17.42,6.13C6.53,221,3.36,222.33,0,223.2Z"/><path class="cls-4" d="M0,75.36c3.72.7,7.15,2.28,10.69,3.5C16.14,80.73,21.55,82.68,27,84.6a6.3,6.3,0,0,1,4.1,3.4,14.23,14.23,0,0,1-4.76-1.28c-7.54-2.64-15.06-5.32-22.59-8a16.31,16.31,0,0,0-3.7-1Z"/><path class="cls-9" d="M841.34,595.68l-.07-.48a3.93,3.93,0,0,1-1.14-3c.07-4.84-.09-9.68.1-14.52,0-.94,0-1.88,0-2.82q-.21-16.85,0-33.7c0-1.09,0-2.17,0-3.25q-.19-16.62,0-33.23c0-1.08,0-2.17,0-3.25q-.19-16.62,0-33.24c0-1.09,0-2.18,0-3.27-.15-4.54,0-9.07-.08-13.61a3.55,3.55,0,0,1,1.21-3h.48q0,72.72,0,145.44C841.8,594.39,842.28,595.23,841.34,595.68Z"/><path class="cls-4" d="M0,70.56c3.49.61,6.67,2.17,10,3.28,3.78,1.26,7.53,2.62,11.27,4,2.14.8,2.44,1.16,3.41,3.16-.87.32-1.55-.18-2.26-.43l-19-6.7A15.31,15.31,0,0,0,0,73Z"/><path class="cls-4" d="M0,225.6c7.42-2.28,14.64-5.12,22-7.63a4,4,0,0,1,2.76-.49,5.93,5.93,0,0,1-3.48,3c-3.45,1.27-6.9,2.54-10.37,3.76S3.65,226.76,0,228Z"/><path class="cls-10" d="M0,65.76c3,.47,5.59,1.84,8.39,2.74,2.2.7,4.35,1.54,6.52,2.33a6.41,6.41,0,0,1,3.63,3.1,5.27,5.27,0,0,1-3.16-.6c-4-1.4-7.94-2.84-11.92-4.25A15.23,15.23,0,0,0,0,68.16Z"/><path class="cls-10" d="M0,230.4c6-1.67,11.74-4.34,18.13-6.08a3.68,3.68,0,0,1-2.56,3c-1.48.61-3,1.12-4.5,1.65C7.41,230.24,3.71,231.52,0,232.8Z"/><path class="cls-10" d="M0,235.2c3-.73,5.89-1.93,8.82-2.94a15.16,15.16,0,0,1,3.23-.84,6,6,0,0,1-3.48,3.22c-2.84,1-5.63,2.2-8.57,3Z"/><path class="cls-10" d="M0,61a49.47,49.47,0,0,1,9,3,5.77,5.77,0,0,1,2.72,2.49c-.56.75-1.09.3-1.56.15-2.48-.84-5-1.71-7.41-2.58A10.2,10.2,0,0,0,0,63.36Z"/><path class="cls-10" d="M0,56.17a7.41,7.41,0,0,1,4.7,2.15c.26.29.57.64.33,1s-.7.31-1.09.21a26.47,26.47,0,0,0-3.94-1Z"/><path class="cls-10" d="M0,240l5.71-1.69C4.31,241,2.27,241.83,0,242.4Z"/><path class="cls-3" d="M244.28.93l2.42,0C306.09-.12,365.49.67,424.89.52s118.65-.05,178,0c8.15,0,16.31-.38,24.45.45l1.45,0A67.26,67.26,0,0,1,659.86,12c19.52,12.94,30.8,31.15,34,54.35a73.24,73.24,0,0,1,.67,10.05q0,74.49,0,149c0,18.42-5.75,35-17.63,49.1-13,15.46-29.61,24.39-49.77,26.29-5.55.52-11.19.15-16.79.19l-6.47,0c-.49,1-1.51,1.17-2.44,1.44-4.22.18-8.45.65-12.59-.65a7,7,0,0,0-2.14-.11c-29.19,0-58.38-.27-87.56.15-8.65.13-17.32.84-26,.78-1.46,0-2.93,0-3.63-1.64l-9.36,0H256.28l-3.84,0A151.55,151.55,0,0,1,124.3,225.49a146,146,0,0,1-17.88-50.86,139.17,139.17,0,0,1-1.7-27.73c1.5-31.44,11.24-60,30.08-85.35a150.62,150.62,0,0,1,55-45.75A147.62,147.62,0,0,1,238.55,1.45C240.46,1.23,242.37,1.1,244.28.93Z"/><path class="cls-4" d="M34.08,167.44a5.68,5.68,0,0,1,3.73-3.14l22.59-8c5.5-1.95,11-3.88,16.49-5.85.72-.25,1.84-.31,1.86-1.22s-1.11-1-1.82-1.23q-19.2-6.82-38.41-13.6a7.53,7.53,0,0,1-4.62-3.55c1.9,0,49.58,16.91,51.64,18.28-.52,1.06-1.63,1.17-2.54,1.49-4.8,1.75-9.63,3.43-14.45,5.15Q53,161.29,37.38,166.81A5.91,5.91,0,0,1,34.08,167.44Z"/><path class="cls-4" d="M40.46,137.93c2,.08,29.86,10,31.66,11.22-.59,1-1.68,1.14-2.6,1.47-5.41,2-10.83,3.86-16.25,5.78q-5.3,1.89-10.61,3.76a3,3,0,0,1-2.25.37,6.35,6.35,0,0,1,4-3.35c3.37-1.23,6.77-2.41,10.15-3.61l8.81-3.11a8.35,8.35,0,0,0,1.53-.67c.67-.41.6-.92-.06-1.26a18.09,18.09,0,0,0-2-.77L43.93,141A5.13,5.13,0,0,1,40.46,137.93Z"/><path class="cls-4" d="M82,144.29c-1,.63-1.73.08-2.44-.17L32.11,127.27c-1.72-.62-3.41-1.25-4.21-3.29a4.19,4.19,0,0,1,2.91.46q16.16,5.72,32.3,11.49,7.78,2.77,15.56,5.59A4.76,4.76,0,0,1,82,144.29Z"/><path class="cls-4" d="M82.4,153.61a7.25,7.25,0,0,1-4.31,3.48c-5.33,1.92-10.66,3.85-16,5.75q-15.92,5.68-31.83,11.31a4.51,4.51,0,0,1-2.67.51,7.5,7.5,0,0,1,4.5-3.51l18.49-6.62q14.12-5,28.22-10A8.53,8.53,0,0,1,82.4,153.61Z"/><path class="cls-4" d="M2.12,95.52A4.28,4.28,0,0,1,4.88,96l47.83,17a7.09,7.09,0,0,1,3.44,2.06c.2.25.42.54.27.87s-.65.39-1,.29c-.77-.22-1.52-.47-2.28-.73L12,100.89,5.73,98.61A6.56,6.56,0,0,1,2.12,95.52Z"/><path class="cls-4" d="M63.38,174.94a6.31,6.31,0,0,1-3.79,3.19l-11.51,4.13Q30,188.71,11.93,195.13a6.63,6.63,0,0,1-3.2.67,5.25,5.25,0,0,1,3.55-3.15l13.33-4.76,35.25-12.52A4.19,4.19,0,0,1,63.38,174.94Z"/><path class="cls-4" d="M21.67,181.49a4.51,4.51,0,0,1,3.14-2.91c2.32-.85,4.66-1.68,7-2.51l41.58-14.81a5.15,5.15,0,0,1,2.72-.52,6.39,6.39,0,0,1-4,3.31c-4.3,1.52-8.59,3.07-12.88,4.6Q42.63,174.58,26,180.49C24.71,181,23.43,181.71,21.67,181.49Z"/><path class="cls-4" d="M56.93,182a7.5,7.5,0,0,1-4.37,3.42l-21,7.48L4.25,202.6a2.86,2.86,0,0,1-2,.32,6.86,6.86,0,0,1,3.87-3.25Q11,197.86,16,196.1q19.18-6.82,38.38-13.63A4.13,4.13,0,0,1,56.93,182Z"/><path class="cls-4" d="M14.86,109.2c3.76,1.32,7,2.44,10.22,3.58l40.23,14.35A7.78,7.78,0,0,1,69,129.3c.25.3.55.59.41,1.06-.66.43-1.23,0-1.8-.21l-36.65-13c-4-1.41-8-2.82-12-4.26C16.66,112.11,16.07,111.58,14.86,109.2Z"/><path class="cls-4" d="M8.83,102.73a4.07,4.07,0,0,1,2.75.43q19,6.74,38,13.52l9.94,3.55a6.16,6.16,0,0,1,3.61,2.94c-.69.62-1.28.18-1.83,0Q37.07,114.58,12.89,106A6.75,6.75,0,0,1,8.83,102.73Z"/><path class="cls-4" d="M76.11,137.59a2.76,2.76,0,0,1-2.25-.29q-24-8.55-48.07-17.11a8.61,8.61,0,0,1-4.46-3.33c1-.49,1.77,0,2.51.3Q32,120,40.1,122.92q15.56,5.56,31.12,11.13A8.57,8.57,0,0,1,76.11,137.59Z"/><path class="cls-4" d="M69.36,168.12a6.19,6.19,0,0,1-3.77,3L44.8,178.59,18.36,188a7.19,7.19,0,0,1-3.25.74A6,6,0,0,1,19,185.43l12.87-4.6q17.64-6.26,35.27-12.5C67.83,168.1,68.47,167.62,69.36,168.12Z"/><path class="cls-10" d="M46.57,153.6c.88-2.54,3.36-3.14,5.69-4.29-2-1.51-4.6-1.69-5.39-4.16,2.18,0,10,2.75,11.69,4.07-1.51,1.11-8.71,3.75-12,4.39Z"/><path class="cls-10" d="M46.58,153.61h0Z"/><path class="cls-11" d="M841.28,465.14c0,.95,0,1.9,0,2.84a3.21,3.21,0,0,1-3,1.23c-3.27,0-6.54-.08-9.8,0-3.5.11-4.55,1.13-4.6,4.67q-.14,10.88,0,21.77c0,3.61,1.12,4.6,4.82,4.69,3.19.08,6.38,0,9.57,0,1.18,0,2.31.1,3,1.22v2.84a3.19,3.19,0,0,1-3,1.22c-3.27,0-6.54-.07-9.8,0-3.5.11-4.55,1.13-4.6,4.67q-.14,10.88,0,21.77c0,3.61,1.12,4.6,4.82,4.69,3.19.08,6.38,0,9.57,0,1.18,0,2.31.1,3,1.22v2.84c-.73,1.11-1.85,1.23-3,1.22-3.19,0-6.39,0-9.58,0-3.7.09-4.76,1.08-4.81,4.71q-.14,11,0,22c0,3.75,1.13,4.78,4.93,4.88,3.19.08,6.38,0,9.57,0a3.28,3.28,0,0,1,3,1.22l0,2.37c-.72,1.11-1.84,1.22-3,1.22-3.26,0-6.53-.07-9.79,0-3.49.11-4.51,1.14-4.63,4.64-.11,3,0,6,0,9.07a3.21,3.21,0,0,1-1.21,2.81h-2.38a3.26,3.26,0,0,1-1.2-2.82c0-3.12.08-6.23,0-9.34s-1.16-4.3-4.42-4.35q-11.37-.16-22.74,0c-3.27,0-4.29,1.12-4.43,4.35s0,6.22,0,9.34a3.26,3.26,0,0,1-1.2,2.82h-2.38a3.27,3.27,0,0,1-1.21-2.82c0-3.12.09-6.23,0-9.34s-1.15-4.3-4.42-4.35q-11.37-.16-22.74,0c-3.26,0-4.28,1.12-4.42,4.35s0,6.22,0,9.34a3.27,3.27,0,0,1-1.21,2.82h-2.37a3.24,3.24,0,0,1-1.21-2.82c0-3.12.08-6.23-.05-9.34s-1.16-4.3-4.42-4.35q-11.37-.16-22.74,0c-3.27,0-4.29,1.12-4.43,4.35s0,6.22-.05,9.34a3.26,3.26,0,0,1-1.2,2.82h-2.38a3.29,3.29,0,0,1-1.21-2.82c0-3.12.09-6.23-.05-9.34s-1.15-4.3-4.42-4.35q-11.37-.16-22.74,0c-3.26,0-4.28,1.12-4.42,4.35s0,6.22-.05,9.34a3.27,3.27,0,0,1-1.21,2.82h-2.37a3.27,3.27,0,0,1-1.21-2.82c0-3.12.09-6.23,0-9.34s-1.16-4.3-4.42-4.35q-11.37-.16-22.74,0c-3.27,0-4.29,1.12-4.42,4.35s0,6.22,0,9.34a3.29,3.29,0,0,1-1.21,2.82h-2.38a3.26,3.26,0,0,1-1.2-2.82c0-3.12.08-6.23,0-9.34s-1.16-4.3-4.43-4.35q-11.37-.16-22.74,0c-3.26,0-4.28,1.12-4.42,4.35s0,6.22,0,9.34a3.26,3.26,0,0,1-1.2,2.82h-2.38a3.27,3.27,0,0,1-1.21-2.82c0-3.12.09-6.23,0-9.34s-1.16-4.3-4.42-4.35q-11.37-.16-22.74,0c-3.27,0-4.28,1.12-4.42,4.35s0,6.22,0,9.34a3.27,3.27,0,0,1-1.21,2.82c-2.1-.57-2.32-.76-2.36-2.9-.06-3.44,0-6.87,0-10.3a21.31,21.31,0,0,0-.08-2.4c-.18-1.46-.66-1.92-2.15-2.09a21.13,21.13,0,0,0-2.39-.07H544a12,12,0,0,1-4-.48l-.06-.92c-.46-2.09,1-2.12,2.36-2.16,4.07-.1,8.15,0,12.23,0,1.2,0,2.4,0,3.59,0,4.54-.09,5.54-1.05,5.6-5.51.06-3.6,0-7.2,0-10.8s.07-7,0-10.55-1.14-4.72-4.81-4.77c-8-.11-16-.05-24,0a5.83,5.83,0,0,1-4-1.23,50.47,50.47,0,0,1-2.48-6.16,29.93,29.93,0,0,1-1.19-8.63c.07-5.18.1-10.36,0-15.54-.08-3.74-1.17-4.78-4.93-4.91-2.55-.08-5.1,0-7.65,0a7.6,7.6,0,0,1-4.35-1.23l-1.5-1.9c-.79-1.75.28-2.11,1.64-2.14,3.76-.06,7.52,0,11.28,0,4.58-.06,5.5-.95,5.53-5.49q.06-10.2,0-20.39c0-4.28-1-5.25-5.25-5.29-7.12-.05-14.24-.06-21.35,0-4,0-4.95,1-5,5-.07,3.44,0,6.88-.05,10.31,0,1,0,2.26-1.69,1.77l-1.94-1.9c-1.27-1.78-1.17-3.83-1.14-5.87,0-1.75.07-3.51-.06-5.26-.22-2.8-1.23-3.85-4-4-3.26-.19-6.53-.13-9.8,0a17.85,17.85,0,0,1-7-1.22,22.7,22.7,0,0,1-4.26-2.42c-.53-2,1.09-1.6,2-1.62,5.28-.11,10.56,0,15.83-.05,1.12,0,2.24,0,3.36-.07,2.69-.25,3.81-1.23,3.87-3.92.18-7.75.2-15.51,0-23.26-.07-2.75-1.24-3.82-4.15-3.88-7.67-.15-15.34-.13-23,0-3.19.05-4.28,1.18-4.35,4.45-.15,6.63,0,13.27-.06,19.91a25.74,25.74,0,0,1-.07,2.63c-.1,1-.44,1.68-1.61,1.52l-1.92-1a4.92,4.92,0,0,1-1.2-3.77c0-6.14.05-12.28,0-18.42,0-4.4-1-5.38-5.37-5.41-7-.05-14-.06-21.05,0-4.2,0-5.15,1-5.22,5.3-.05,2.87,0,5.74,0,8.61,0,1,.07,2.14-1.19,2.61a6.77,6.77,0,0,1-2.4-.45,3.32,3.32,0,0,1-1.19-2.82c0-2.56,0-5.11,0-7.67-.07-4.64-1-5.54-5.7-5.6-2.72,0-5.43,0-8.15,0-3.92,0-4-.09-3.84-4.07.67-1.18,1.82-1.18,3-1.2,3.36,0,6.72.06,10.07,0,3.52-.12,4.59-1.14,4.63-4.67q.15-10.9,0-21.82c-.05-3.52-1.11-4.53-4.64-4.64-3.28-.11-6.55,0-9.83,0-1.15,0-2.32,0-3.12-1.06a10.13,10.13,0,0,1-.06-3c.68-1.18,1.84-1.17,3-1.19,3.35,0,6.7.07,10-.05,3.5-.11,4.57-1.15,4.61-4.68q.15-10.89,0-21.79c-.05-3.53-1.11-4.53-4.63-4.66-2.95-.1-5.91,0-8.86-.07-1.35-.06-2.57-.32-2.12-2.17l.52-1.87a3.55,3.55,0,0,1,3-1.19c2.24,0,4.48,0,6.72,0,4.32-.09,5.32-1.08,5.36-5.47.07-5.84.06-11.68,0-17.52a12.24,12.24,0,0,1,1.16-5.66,6.34,6.34,0,0,1,2-2.29c1.09-.47,1.45.15,1.59,1.07a17.74,17.74,0,0,1,.09,2.63c0,7.35-.05,14.7,0,22,0,4.1,1.07,5.14,5.13,5.18q10.67.09,21.32,0c4.09,0,5.13-1.07,5.17-5.14.07-7,.08-14.06,0-21.09,0-3.78-1.11-4.86-4.89-4.91-7.59-.1-15.18,0-22.77,0a17.74,17.74,0,0,1-2.63-.09c-.89-.14-1.57-.46-1.08-1.57a9.31,9.31,0,0,1,7.86-3.62c6.07,0,12.14.05,18.21,0,4.24-.05,5.22-1.06,5.32-5.24.05-2.08,0-4.15,0-6.23a3.85,3.85,0,0,1,1.21-3.08l.87-.12c1.94-.58,2.68.37,2.7,2.15,0,2.64-.05,5.27,0,7.9.12,3.44,1.11,4.54,4.44,4.59q11.37.18,22.75,0c3.24-.05,4.27-1.14,4.41-4.37.13-3,0-6.07.05-9.1,0-1.16,0-2.33,1.05-3.13a6.84,6.84,0,0,1,2.55-.09c1.17.69,1.17,1.84,1.18,3,0,3.11-.07,6.23.06,9.34s1.17,4.32,4.42,4.36q11.39.17,22.76,0c3.25-.05,4.27-1.14,4.4-4.38.13-3,0-6.07.06-9.1,0-1.15,0-2.33,1-3.13a7.05,7.05,0,0,1,2.55-.08c1.16.69,1.16,1.85,1.18,3,0,3.12-.08,6.23.05,9.35s1.18,4.31,4.43,4.35q11.37.17,22.75,0c3.25-.05,4.27-1.14,4.41-4.38.12-3,0-6.06.06-9.1,0-1.15,0-2.33,1-3.13a6.89,6.89,0,0,1,2.56-.07c1.16.69,1.16,1.84,1.17,3,0,2.95,0,5.91,0,8.86.1,3.79,1.1,4.74,4.94,4.87,1.11,0,2.23,0,3.35.1.94.13,1.5.53,1,1.59a10.51,10.51,0,0,1-2.38,2.42,5.32,5.32,0,0,1-3,1.2c-3,.43-3.82,1.25-3.9,4.3a20.8,20.8,0,0,1-1.23,6.5,29.63,29.63,0,0,1-1.94,4.3c-1.82.74-1.6-.73-1.64-1.64-.1-2.71,0-5.44,0-8.15-.08-4.28-1-5.27-5.25-5.3q-10.66-.09-21.35,0c-4,0-5,1.06-5,5q-.12,10.55,0,21.11c0,3.95,1.07,5,5,5,6.55.09,13.11,0,19.67.06,2.44,0,2.75.5,2.41,3.11,0,.3,0,.61,0,.92-.8,1.16-2,1.21-3.25,1.22H539.1c-1,0-2.07,0-3.1.07-2.67.26-3.73,1.25-3.89,3.92-.21,3.59-.07,7.18-.08,10.77,0,3.91-.08,7.82,0,11.73.1,3.5,1.16,4.6,4.65,4.67,6.54.12,13.08,0,19.62,0,1.26,0,2.47,0,3.29,1.21l.51,1.9c.5,1.91-.81,2.08-2.12,2.12-3.67.12-7.34,0-11,.05-3.51,0-7-.09-10.53.05-3.23.13-4.34,1.19-4.39,4.41q-.18,11.13,0,22.27c.06,3.25,1.16,4.36,4.37,4.41,7.58.14,15.17.13,22.75,0,3.32-.05,4.35-1.17,4.46-4.58.13-4,0-8,.09-12,0-.94-.4-2.56,1.63-1.88a29.2,29.2,0,0,1,2,4.3c1.21,2.91,1.18,6,1.2,9,0,4.1,1,5,5.14,5.12a8.81,8.81,0,0,1,5.14,1.23,10.8,10.8,0,0,1,2.43,2.39c.55,1.51-.54,1.58-1.51,1.63-2.23.12-4.46,0-6.7.09-3.37.15-4.43,1.14-4.48,4.53q-.16,11,0,22c.05,3.41,1.11,4.5,4.46,4.55q11.37.18,22.74,0c3.24-.05,4.28-1.13,4.39-4.38.14-4.38,0-8.77.07-13.16,0-1.05-.31-2.33,1.18-2.81a8.33,8.33,0,0,1,2.41.94,3.66,3.66,0,0,1,1.19,3.25c0,3.84-.07,7.67,0,11.5.09,3.55,1.11,4.62,4.62,4.67q11.14.15,22.28,0c3.63,0,4.61-1.11,4.72-4.82.07-2.63,0-5.27,0-7.9a3.33,3.33,0,0,1,1.21-2.83h2.38a3.31,3.31,0,0,1,1.21,2.83c0,2.72-.07,5.43,0,8.14.13,3.43,1.1,4.52,4.44,4.57q11.37.18,22.73,0c3.34-.05,4.32-1.14,4.44-4.57.1-2.71,0-5.43,0-8.14a3.29,3.29,0,0,1,1.2-2.83h2.39a3.32,3.32,0,0,1,1.2,2.83c0,2.72-.06,5.43,0,8.14.12,3.43,1.1,4.52,4.44,4.57q11.36.18,22.73,0c3.34-.05,4.31-1.14,4.44-4.57.1-2.71,0-5.42,0-8.13a3.33,3.33,0,0,1,1.21-2.84h2.38a3.31,3.31,0,0,1,1.21,2.83c0,2.72-.07,5.43,0,8.14.12,3.43,1.1,4.52,4.44,4.57q11.37.18,22.73,0c3.34-.05,4.32-1.14,4.44-4.57.1-2.71,0-5.43,0-8.14a3.29,3.29,0,0,1,1.2-2.83h2.39a3.3,3.3,0,0,1,1.2,2.83c0,2.72-.06,5.43,0,8.14.12,3.43,1.1,4.52,4.44,4.57q11.35.18,22.73,0c3.33-.05,4.31-1.14,4.44-4.57.1-2.71,0-5.43,0-8.14a3.3,3.3,0,0,1,1.21-2.83h2.38a3.29,3.29,0,0,1,1.2,2.83c0,2.72-.06,5.43,0,8.14.12,3.43,1.1,4.52,4.44,4.57q11.37.18,22.73,0c3.34-.05,4.32-1.14,4.44-4.57.1-2.71,0-5.42,0-8.13a3.32,3.32,0,0,1,1.2-2.84h2.39a3.23,3.23,0,0,1,1.2,2.72c0,2.47,0,4.94,0,7.42.08,4.44,1,5.37,5.34,5.44,3.12,0,6.23,0,9.34,0A3,3,0,0,1,841.28,465.14Z"/><path class="cls-5" d="M422.87,321.62a10.75,10.75,0,0,0,4,.46h24.46c3.79,0,4.11.33,4.12,4.09q0,12.7,0,25.42a15.25,15.25,0,0,1-.07,1.91c-.19,1.47-.65,1.93-2.13,2.11a17.26,17.26,0,0,1-2.16.07H424.74c-2.83-.09-3.31-.53-3.32-3.44,0-8.23,0-16.46,0-24.69a10.32,10.32,0,0,0-.48-4A7.86,7.86,0,0,1,422.87,321.62Z"/><path class="cls-5" d="M457.39,461.29a10.52,10.52,0,0,0,.49-4V436.65c0-.72,0-1.44,0-2.15.11-2.4.59-2.89,3.07-3,1.83-.05,3.67,0,5.51,0h20.61c.8,0,1.61,0,2.4.05,1.75.16,2.24.64,2.41,2.36.06.63.05,1.28.05,1.91v24.94a17.1,17.1,0,0,1-.08,2.15c-.18,1.47-.64,1.94-2.12,2.12a21.31,21.31,0,0,1-2.4.07h-18a9.91,9.91,0,0,0-3.78.46Z"/><path class="cls-5" d="M493.83,486.32a9.55,9.55,0,0,0,.52-3.78c0-3.68,0-7.35,0-11,0-3,.47-3.49,3.5-3.5q13.54,0,27.09,0c3,0,3.44.48,3.45,3.54,0,8.8,0,17.59,0,26.39,0,.31,0,.64,0,.95-.16,2-.63,2.55-2.62,2.66-1.52.08-3,0-4.56,0h-9.35a3.93,3.93,0,0,0-3.11.95A201.27,201.27,0,0,0,493.83,486.32Z"/><path class="cls-5" d="M530.87,541h29.74c4,0,4.28.29,4.29,4.18q0,12.71,0,25.42c0,4-.46,4.45-4.38,4.47-5.68,0-11.35,0-17,0-1.28,0-2.58,0-3.58,1a20.08,20.08,0,0,1-.69-4A158.34,158.34,0,0,0,530.87,541Z"/><path class="cls-5" d="M421.4,449.27q0-6.82,0-13.66a19.34,19.34,0,0,1,.1-2.15,1.92,1.92,0,0,1,1.87-1.84c.63-.07,1.27-.09,1.91-.1h26.35a11.61,11.61,0,0,1,1.67.08c1.46.2,1.91.66,2.09,2.15a17.1,17.1,0,0,1,.07,2.15v24.44c-3.17-1.3-6.33-2.64-9.52-3.89A141.31,141.31,0,0,0,424.18,450C423.24,449.78,422.32,449.51,421.4,449.27Z"/><path class="cls-5" d="M402.15,357.55a4.17,4.17,0,0,0,3.33,1c3.28,0,6.55,0,9.83,0s3.67.43,3.68,3.8q0,13.06,0,26.12c0,3.2-.45,3.64-3.58,3.66-5,0-10.07,0-15.1.05-.58-2.2-.25-4.43-.24-6.64,0-4.38-.3-8.76.2-13.13A47.67,47.67,0,0,1,402.15,357.55Z"/><path class="cls-5" d="M492,301.44v13.4a19.31,19.31,0,0,1-.07,2.15c-.18,1.48-.64,1.94-2.1,2.14a15.18,15.18,0,0,1-1.91.07H462c-3.87,0-4.14-.3-4.16-4.28,0-2.87,0-5.74,0-8.61,0-1.24-.14-2.42-1.49-3a47.57,47.57,0,0,1,13-1.91C476.88,301.1,484.42,301,492,301.44Z"/><path class="cls-5" d="M400.27,372.43q0,9.88,0,19.77V395a3.86,3.86,0,0,1,1.2,3q-.06,13.83,0,27.67a3.86,3.86,0,0,1-1.2,3c.33,2.44.6,2.77,2.92,2.81,3.74.06,7.49,0,11.24,0,.71,0,1.43,0,2.15.05,1.7.18,2.25.67,2.32,2.42.1,2.55.05,5.11.06,7.66,0,2.39,0,4.78,0,7.17-5.48-.61-11-1.2-16.44-1.85-2.3-.27-2.66-.68-2.69-3.1-.05-4.56,0-9.12,0-13.67q0-26.62,0-53.26A13.21,13.21,0,0,1,400.27,372.43Z"/><path class="cls-5" d="M418.94,325.82c0,8.84.06,17.68,0,26.52,0,2.83-.51,3.3-3.4,3.33-4.3,0-8.6,0-12.91,0a64.08,64.08,0,0,1,7.55-18.24A55,55,0,0,1,418.94,325.82Z"/><path class="cls-5" d="M455.5,303.43c0,3.75,0,7.51,0,11.26,0,.71,0,1.44-.05,2.15-.17,1.62-.64,2.1-2.2,2.3a13.48,13.48,0,0,1-1.68.06l-25.85,0a41.58,41.58,0,0,1,8.48-6.51A69.83,69.83,0,0,1,455.5,303.43Z"/><path class="cls-5" d="M510.26,504.46l13.9,0c.71,0,1.43,0,2.15.08a2,2,0,0,1,2,1.95c0,.56.08,1.12.08,1.68l0,26.6c-1.69-2.63-2.71-5.59-4.17-8.34A181,181,0,0,0,510.26,504.46Z"/><path class="cls-4" d="M318.3,401.12q0,7.08,0,14.14c0,.64,0,1.28,0,1.92a2.61,2.61,0,0,1-.22,1.16c-1.13,1.86-3,1.07-4.56,1.11a1.83,1.83,0,0,1-2-1.94c-.05-.64-.07-1.28-.07-1.92v-29a17.51,17.51,0,0,1,.06-1.92c.18-1.48.62-1.89,2.13-2.08.16,0,.32,0,.48,0,3.65-.22,4.19.27,4.2,3.93C318.31,391.38,318.29,396.25,318.3,401.12Z"/><path class="cls-4" d="M329.81,401.26c0,4.79,0,9.58,0,14.37a11.83,11.83,0,0,1-.11,2.15c-.26,1.41-.89,1.73-3.17,1.75-2.49,0-3.17-.28-3.46-1.69a9.25,9.25,0,0,1-.12-1.9q0-14.87,0-29.71c0-.48,0-1,.05-1.44a2.37,2.37,0,0,1,.17-.93c1-1.9,2.76-1.24,4.26-1.24s2.11.52,2.31,1.87a15.4,15.4,0,0,1,.08,2.15C329.82,391.51,329.81,396.39,329.81,401.26Z"/><path class="cls-5" d="M469.85,468h17.91a17.33,17.33,0,0,1,1.91.06c1.57.19,2.11.68,2.21,2.28s.07,3.34.07,5c0,3,0,6-.06,9.07a37.3,37.3,0,0,1-4.26-3.47,155.2,155.2,0,0,0-15.24-11.14C471.52,469.25,470.7,468.61,469.85,468Z"/><path class="cls-1" d="M492,301.44l-22.6,0c0-.14,0-.28.08-.42L599,301c.8,0,1.6,0,2.4.05.45.74.2,1.21-.57,1.44a6.81,6.81,0,0,1-1.91.18c-9.42,0-18.84,0-28.27,0-1.24,0-2.48,0-3.31-1.2h-2.4a3.6,3.6,0,0,1-3,1.22q-14,0-28,0a3.6,3.6,0,0,1-3-1.22h-2.41a3.59,3.59,0,0,1-3,1.22q-14,0-28.06,0a3.62,3.62,0,0,1-3-1.22Z"/><path class="cls-5" d="M565.38,409a9.87,9.87,0,0,0-.48,3.78c0,4.15,0,8.31,0,12.46,0,2.91-.49,3.42-3.32,3.43q-13.66,0-27.33,0c-2.88,0-3.37-.51-3.38-3.37q0-13.42,0-26.85c0-2.85.51-3.34,3.39-3.35,7.35,0,14.7,0,22.06,0,1.34,0,2.75.14,3.83-1A126.43,126.43,0,0,0,565.38,409Z"/><path class="cls-5" d="M559.16,357.62c-.26-1.48-1.3-1.9-2.62-1.91l-5.76,0H535.2a17.1,17.1,0,0,1-2.15-.07c-1.49-.18-1.95-.64-2.14-2.1a13.5,13.5,0,0,1-.08-1.91V326.19a15.34,15.34,0,0,1,.07-1.92c.19-1.47.65-1.93,2.13-2.11a17.1,17.1,0,0,1,2.15-.08h26.37c2.84.08,3.3.52,3.34,3.42,0,3.2,0,6.4,0,9.59a8.79,8.79,0,0,0,.48,3.3A96.93,96.93,0,0,0,559.16,357.62Z"/><path class="cls-5" d="M601.38,443.52q0,8.64,0,17.26a23.75,23.75,0,0,1-.1,2.39,1.92,1.92,0,0,1-1.86,1.86,17.44,17.44,0,0,1-1.91.09H571.14a13.41,13.41,0,0,1-1.68-.07c-1.45-.21-1.9-.67-2.09-2.16a15.18,15.18,0,0,1-.06-1.91q0-12.71,0-25.41c0-.24,0-.48,0-.72.09-2.82.53-3.27,3.44-3.32,2.32,0,4.63,0,7,0a9.46,9.46,0,0,0,3.54-.48A74.49,74.49,0,0,0,601.38,443.52Z"/><path class="cls-5" d="M559.62,392.17H535.43c-.72,0-1.44,0-2.15-.05-1.74-.16-2.23-.65-2.4-2.36a17.59,17.59,0,0,1,0-1.92V362.92a17.34,17.34,0,0,1,0-1.91c.16-1.74.65-2.24,2.37-2.4.79-.07,1.59-.05,2.39-.05l23.47,0a99.68,99.68,0,0,0-1.32,13.12,81.7,81.7,0,0,0,1.13,15.76C559.15,389,559.38,390.58,559.62,392.17Z"/><path class="cls-5" d="M637.86,448.33q0,6.36,0,12.7a19.23,19.23,0,0,1-.09,2.15,1.93,1.93,0,0,1-1.87,1.85c-.64.06-1.28.09-1.91.09H607.62a13.25,13.25,0,0,1-1.67-.07c-1.46-.2-1.91-.66-2.1-2.15a15.18,15.18,0,0,1-.07-1.91q0-8.26,0-16.53c3.33.82,6.64,1.73,10,2.43a83.1,83.1,0,0,0,18.56,1.43C634.19,448.3,636,448.33,637.86,448.33Z"/><path class="cls-5" d="M820.23,448.33q0,6.35,0,12.69a19.23,19.23,0,0,1-.1,2.15,1.92,1.92,0,0,1-1.86,1.85,15.18,15.18,0,0,1-1.91.1H790c-.32,0-.64,0-1,0-2.27-.12-2.84-.61-2.88-2.88-.06-4.07,0-8.14,0-12.21,0-.56,0-1.12,0-1.68Z"/><path class="cls-5" d="M747.28,448.33q0,6.35,0,12.69a19.23,19.23,0,0,1-.1,2.15,1.92,1.92,0,0,1-1.86,1.85,15.18,15.18,0,0,1-1.91.1H717.07c-.32,0-.64,0-1,0-2.27-.12-2.84-.61-2.87-2.88-.07-4.07,0-8.14,0-12.21,0-.56,0-1.12,0-1.68Z"/><path class="cls-5" d="M710.81,448.33c0,4.23,0,8.46,0,12.69,0,.72,0,1.44-.09,2.15a1.92,1.92,0,0,1-1.86,1.85,15.28,15.28,0,0,1-1.91.1H680.6c-.32,0-.64,0-1,0-2.27-.12-2.84-.61-2.88-2.88-.07-4.07,0-8.14,0-12.21v-1.68Z"/><path class="cls-5" d="M674.33,448.33q0,6.35,0,12.69a19.23,19.23,0,0,1-.1,2.15,1.92,1.92,0,0,1-1.86,1.85,15.18,15.18,0,0,1-1.91.1H644.12c-.32,0-.64,0-1,0-2.28-.12-2.85-.61-2.88-2.88-.07-4.07,0-8.14,0-12.21,0-.56,0-1.12,0-1.68Z"/><path class="cls-5" d="M783.76,448.33q0,6.35,0,12.69c0,.72,0,1.44-.09,2.15a1.92,1.92,0,0,1-1.86,1.85,15.38,15.38,0,0,1-1.91.1H753.55c-.32,0-.64,0-1,0-2.27-.12-2.84-.61-2.88-2.88-.07-4.07,0-8.14,0-12.21v-1.68Z"/><path class="cls-5" d="M567.3,301.44h30.05a11.56,11.56,0,0,0,4-.43h2.43l3.22.69a4.9,4.9,0,0,1-2.38,1.12,60.52,60.52,0,0,0-21.33,11.85c-1.88,1.6-3.63,3.34-5.44,5-2.09-.76-4.27-.43-6.42-.46-3.8-.07-4.12-.34-4.13-4.1C567.29,310.56,567.3,306,567.3,301.44Z"/><path class="cls-5" d="M841.28,465.14l-14.34,0a23.68,23.68,0,0,1-2.38-.1,1.92,1.92,0,0,1-1.84-1.87c-.07-.71-.09-1.43-.09-2.15q0-6.33,0-12.67h18.72Z"/><path class="cls-12" d="M754.47,384.44c-1.44,0-2.88.08-4.31,0-1.72-.11-2.29-.65-2.35-2.4q-.13-4.06,0-8.15c.06-1.61.63-2.21,2.21-2.26q4.44-.15,8.87,0c1.58.05,2.15.65,2.21,2.26q.15,4.06,0,8.15c-.06,1.82-.66,2.32-2.57,2.42-1.36.08-2.72,0-4.08,0Z"/><path class="cls-12" d="M776,384.45c-1.36,0-2.72.07-4.08,0-1.85-.11-2.4-.64-2.46-2.53q-.12-4,0-7.92c.06-1.75.62-2.33,2.34-2.39q4.32-.13,8.63,0c1.72.06,2.28.65,2.34,2.4q.13,4,0,7.92c-.06,1.88-.62,2.41-2.48,2.52C778.83,384.52,777.39,384.45,776,384.45Z"/><path class="cls-12" d="M666.71,371.57c1.44,0,2.89-.08,4.32,0,1.6.11,2.2.65,2.25,2.23.1,2.79.1,5.6,0,8.39-.06,1.58-.66,2.15-2.27,2.2-3,.09-5.92.09-8.87,0-1.48-.05-2.07-.62-2.12-2.08-.1-2.87-.1-5.76,0-8.63.05-1.46.64-2,2.14-2.07s3,0,4.55,0Z"/><path class="cls-12" d="M732.38,384.46c-1.36,0-2.72.06-4.08,0-1.91-.11-2.5-.6-2.56-2.43q-.13-4.08,0-8.16c.06-1.59.64-2.19,2.22-2.25q4.44-.14,8.87,0c1.51.05,2.11.6,2.17,2,.11,2.87.11,5.75,0,8.62-.06,1.55-.67,2.05-2.33,2.15-1.43.09-2.87,0-4.31,0Z"/><path class="cls-12" d="M710.19,384.45c-1.36,0-2.72.07-4.08,0-1.77-.11-2.38-.61-2.43-2.3-.1-2.8-.09-5.6,0-8.39.06-1.49.62-2.07,2.09-2.12,3-.1,6.08-.05,9.11,0a1.89,1.89,0,0,1,2.05,1.92,68.93,68.93,0,0,1,0,8.86c-.09,1.42-.68,1.92-2.2,2s-3,0-4.55,0Z"/><path class="cls-12" d="M688.22,384.45c-1.36,0-2.72.07-4.07,0-1.91-.11-2.5-.6-2.56-2.44q-.14-4.08,0-8.15c.06-1.59.66-2.2,2.23-2.25q4.44-.14,8.87,0c1.57.06,2.13.66,2.19,2.29.09,2.71.1,5.43,0,8.15-.06,1.73-.63,2.26-2.36,2.37-1.44.1-2.88,0-4.32,0Z"/><path class="cls-12" d="M644.59,384.42c-1.51,0-3,.09-4.55,0s-2-.64-2.1-2.12q-.15-4.3,0-8.63c.06-1.44.65-2,2.16-2q4.44-.15,8.87,0c1.59,0,2.18.65,2.23,2.24q.15,4.2,0,8.4c-.06,1.56-.66,2.07-2.29,2.18-1.43.1-2.88,0-4.32,0Z"/><path class="cls-5" d="M578.81,428.65c-2.79,0-5.59,0-8.38,0-2.55-.05-3.07-.56-3.1-3.15-.05-4.07,0-8.14,0-12.21,2.63,3.76,4.87,7.79,7.91,11.26C576.44,425.89,577.62,427.27,578.81,428.65Z"/><path class="cls-5" d="M567.32,334.1c0-3,0-5.91,0-8.86,0-2.58.55-3.07,3.12-3.14,1.67-.05,3.35,0,5,0a20.79,20.79,0,0,1-2.43,3.52Z"/><path class="cls-5" d="M567.29,595.2q0-6.83,0-13.65c0-.72,0-1.44.09-2.15a1.92,1.92,0,0,1,1.86-1.86,17.33,17.33,0,0,1,1.91-.09h26.34c.32,0,.64,0,1,0,2.28.13,2.84.62,2.88,2.89.07,3.91,0,7.82,0,11.73,0,1,0,2.08,0,3.12Z"/><path class="cls-5" d="M603.77,595.2q0-6.83,0-13.65a19.23,19.23,0,0,1,.1-2.15,1.92,1.92,0,0,1,1.85-1.86,17.56,17.56,0,0,1,1.91-.09H634c.32,0,.64,0,1,0,2.27.13,2.84.62,2.87,2.89.07,3.91,0,7.82,0,11.73,0,1,0,2.08,0,3.12Z"/><path class="cls-5" d="M640.24,595.2q0-6.83,0-13.65c0-.72,0-1.44.09-2.15a1.92,1.92,0,0,1,1.86-1.86,17.33,17.33,0,0,1,1.91-.09h26.34c.32,0,.64,0,.95,0,2.28.13,2.84.62,2.88,2.89.07,3.91,0,7.82,0,11.73,0,1,0,2.08,0,3.12Z"/><path class="cls-5" d="M676.71,595.2q0-6.83,0-13.65a19.23,19.23,0,0,1,.1-2.15,1.92,1.92,0,0,1,1.85-1.86,17.56,17.56,0,0,1,1.91-.09h26.34c.32,0,.64,0,1,0,2.27.13,2.84.62,2.87,2.89.07,3.91,0,7.82,0,11.73,0,1,0,2.08,0,3.12Z"/><path class="cls-5" d="M713.19,595.2q0-6.83,0-13.65c0-.72,0-1.44.09-2.15a1.92,1.92,0,0,1,1.86-1.86,17.33,17.33,0,0,1,1.91-.09h26.34c.32,0,.63,0,1,0,2.27.13,2.84.62,2.88,2.89.07,3.91,0,7.82,0,11.73,0,1,0,2.08,0,3.12Z"/><path class="cls-5" d="M749.66,595.2q0-6.83,0-13.65a19.23,19.23,0,0,1,.1-2.15,1.92,1.92,0,0,1,1.85-1.86,17.44,17.44,0,0,1,1.91-.09h26.34c.32,0,.64,0,1,0,2.27.13,2.83.62,2.87,2.89.07,3.91,0,7.82,0,11.73,0,1,0,2.08,0,3.12Z"/><path class="cls-5" d="M786.14,595.2q0-6.83,0-13.65c0-.72,0-1.44.1-2.15a1.92,1.92,0,0,1,1.86-1.86,17.33,17.33,0,0,1,1.91-.09h26.34c.31,0,.63,0,.95,0,2.27.13,2.84.62,2.88,2.89.07,3.91,0,7.82,0,11.73,0,1,0,2.08,0,3.12Z"/><path class="cls-5" d="M822.61,595.2q0-6.59,0-13.16c0-.72,0-1.44,0-2.15.17-1.74.65-2.26,2.36-2.39,1.35-.1,2.71-.06,4.07-.06l12.19,0q0,8.9,0,17.78Z"/><path class="cls-5" d="M841.32,575.05l-13.41,0c-.8,0-1.6,0-2.4,0-2.08-.18-2.67-.77-2.85-2.8,0-.55,0-1.11,0-1.67q0-12.71,0-25.39c0-3.82.32-4.14,4-4.16,4.87,0,9.74,0,14.61,0Z"/><path class="cls-5" d="M841.28,501.62l-14.15,0c-.72,0-1.45,0-2.16-.05-1.61-.17-2.1-.66-2.28-2.24a15.24,15.24,0,0,1-.06-1.91q0-12.6,0-25.2c0-.4,0-.8,0-1.2.12-2.42.59-2.94,3.06-3,5.2-.06,10.4,0,15.59,0Q841.29,484.81,841.28,501.62Z"/><path class="cls-5" d="M841.28,538.1l-14.15,0c-.72,0-1.45,0-2.16-.05-1.61-.17-2.1-.66-2.28-2.24a15.34,15.34,0,0,1-.06-1.92q0-12.58,0-25.19c0-.4,0-.8,0-1.2.12-2.42.59-3,3.06-3,5.2-.06,10.4,0,15.59-.05Q841.29,521.29,841.28,538.1Z"/><path class="cls-13" d="M329.81,147.84a74.11,74.11,0,0,1-7.41,34.72,77.17,77.17,0,0,1-10.66,16.18,72.41,72.41,0,0,1-22.66,17.83,64.94,64.94,0,0,1-29.47,7.58,89.58,89.58,0,0,1-13.4-.47,71.52,71.52,0,0,1-29.77-11.4,73.2,73.2,0,0,1-26.05-29.78,76.94,76.94,0,0,1-1.78-62.6,71.28,71.28,0,0,1,16.22-24.41c10.93-10.6,23.76-17.63,38.94-20.34A70.42,70.42,0,0,1,284,79.51a73,73,0,0,1,34.54,29.34,78.14,78.14,0,0,1,11.07,31.93C329.93,143.56,329.55,146.38,329.81,147.84Z"/><path class="cls-4" d="M656.44,136.56a4.1,4.1,0,0,1,0-8.19,4.1,4.1,0,1,1,0,8.19Z"/><path class="cls-4" d="M618.51,132.37a4.12,4.12,0,0,1-4,4.19,4.09,4.09,0,0,1-.2-8.18A4.13,4.13,0,0,1,618.51,132.37Z"/><path class="cls-4" d="M277.94,242.44a4,4,0,0,1-4.14-4,4.1,4.1,0,0,1,8.19-.08A4,4,0,0,1,277.94,242.44Z"/><path class="cls-4" d="M534.35,132.58a4.08,4.08,0,0,1-4.21,4,4.1,4.1,0,0,1,.2-8.19A4.1,4.1,0,0,1,534.35,132.58Z"/><path class="cls-4" d="M572.27,171.83a3.94,3.94,0,0,1-3.95-4.18,4.06,4.06,0,0,1,4.26-3.9,4,4,0,0,1-.31,8.08Z"/><path class="cls-4" d="M572.27,277.86a4.07,4.07,0,0,1-3.95-4.22,4,4,0,1,1,3.95,4.22Z"/><path class="cls-4" d="M278,22.52a4,4,0,0,1,4,3.88,4.1,4.1,0,1,1-8.2.07A4,4,0,0,1,278,22.52Z"/><path class="cls-4" d="M408.15,132.4a4.12,4.12,0,0,1-4,4.18,4.1,4.1,0,0,1-.16-8.2A4.13,4.13,0,0,1,408.15,132.4Z"/><path class="cls-4" d="M404.19,30.56a4.15,4.15,0,0,1-4.19-4,4.09,4.09,0,0,1,8.18-.19A4.13,4.13,0,0,1,404.19,30.56Z"/><path class="cls-4" d="M404.06,57.73a4.13,4.13,0,0,1,4.12,4.09,4,4,0,0,1-3.95,4A4,4,0,0,1,400,61.88,4.14,4.14,0,0,1,404.06,57.73Z"/><path class="cls-4" d="M450.18,167.82a4,4,0,0,1-8.06.09,4.1,4.1,0,0,1,4-4.17A4,4,0,0,1,450.18,167.82Z"/><path class="cls-4" d="M450.18,273.84a4,4,0,0,1-4.1,4,4.08,4.08,0,0,1-4-4.22,4,4,0,0,1,8.06.2Z"/><path class="cls-4" d="M656.55,199.17a4,4,0,0,1,4,4.12,4.08,4.08,0,0,1-4.24,3.93,4.14,4.14,0,0,1-3.9-4.05A4,4,0,0,1,656.55,199.17Z"/><path class="cls-4" d="M492.31,132.47a4.1,4.1,0,0,1-4.1,4.09,4.09,4.09,0,0,1,0-8.18A4.13,4.13,0,0,1,492.31,132.47Z"/><path class="cls-4" d="M446.06,93.14a4,4,0,0,1,.33,8.06,4.09,4.09,0,0,1-4.27-4.14A3.9,3.9,0,0,1,446.06,93.14Z"/><path class="cls-4" d="M404.13,101.2a4,4,0,1,1,.06-8.07,4,4,0,0,1-.06,8.07Z"/><path class="cls-4" d="M408.18,203.17A4.09,4.09,0,1,1,400,203a4,4,0,0,1,4-3.87A4,4,0,0,1,408.18,203.17Z"/><path class="cls-4" d="M656.51,57.74a4.07,4.07,0,0,1,4,4.13,4.07,4.07,0,0,1-8.14,0A4.12,4.12,0,0,1,656.51,57.74Z"/><path class="cls-4" d="M572.38,93.14a3.94,3.94,0,0,1,4,4.09,4,4,0,0,1-3.93,4,4.08,4.08,0,0,1-4.16-4A4,4,0,0,1,572.38,93.14Z"/><path class="cls-4" d="M534.36,97.07a4,4,0,0,1-4,4.13,4,4,0,1,1-.16-8.07A4,4,0,0,1,534.36,97.07Z"/><path class="cls-4" d="M530.39,171.82a4,4,0,1,1-.3-8.06,4,4,0,1,1,.3,8.06Z"/><path class="cls-4" d="M408.18,238.41a4,4,0,0,1-4.13,4,4,4,0,0,1-4-3.85,4.09,4.09,0,1,1,8.17-.18Z"/><path class="cls-4" d="M530.16,277.85a4,4,0,1,1,.4-8.06,4,4,0,0,1-.4,8.06Z"/><path class="cls-4" d="M534.35,62a4.07,4.07,0,0,1-8.14-.25,4.16,4.16,0,0,1,4.21-4A4.09,4.09,0,0,1,534.35,62Z"/><path class="cls-4" d="M660.55,238.57a4.07,4.07,0,0,1-8.14-.14,4.12,4.12,0,0,1,4.15-4A4.07,4.07,0,0,1,660.55,238.57Z"/><path class="cls-4" d="M404,163.76a4,4,0,1,1-4,4.17A4.1,4.1,0,0,1,404,163.76Z"/><path class="cls-4" d="M362.05,234.39a4.13,4.13,0,0,1,4.05,4.18,3.92,3.92,0,0,1-4.05,3.87,3.83,3.83,0,0,1-4-3.87A4,4,0,0,1,362.05,234.39Z"/><path class="cls-4" d="M366.1,61.85a3.9,3.9,0,0,1-4,3.94,3.83,3.83,0,0,1-4.09-4,4,4,0,0,1,3.93-4A4.13,4.13,0,0,1,366.1,61.85Z"/><path class="cls-4" d="M282,61.72a4.09,4.09,0,0,1-8.17,0,4.09,4.09,0,0,1,8.17,0Z"/><path class="cls-4" d="M366.11,26.48A4.15,4.15,0,0,1,362,30.57a4,4,0,0,1-3.91-4,3.84,3.84,0,0,1,4.11-4A3.92,3.92,0,0,1,366.11,26.48Z"/><path class="cls-4" d="M530.36,199.17a4,4,0,0,1,4,4.12,4.1,4.1,0,0,1-4.25,3.93,4.16,4.16,0,0,1-3.89-4.07A4,4,0,0,1,530.36,199.17Z"/><path class="cls-4" d="M277.79,277.85a4,4,0,1,1,4.2-4A4.09,4.09,0,0,1,277.79,277.85Z"/><path class="cls-4" d="M324,97.26a3.92,3.92,0,0,1-4,3.94A4.14,4.14,0,0,1,315.91,97a4,4,0,0,1,8.06.23Z"/><path class="cls-4" d="M366.11,203.19a4.14,4.14,0,0,1-4.22,4,4,4,0,0,1-3.85-4.1,3.83,3.83,0,0,1,4.17-3.94A3.92,3.92,0,0,1,366.11,203.19Z"/><path class="cls-4" d="M319.93,269.78a4,4,0,0,1,.06,8.07,4.09,4.09,0,0,1-4.08-4.15A4,4,0,0,1,319.93,269.78Z"/><path class="cls-4" d="M408.19,273.84a4.09,4.09,0,1,1-4.13-4.06A4.1,4.1,0,0,1,408.19,273.84Z"/><path class="cls-4" d="M534.35,238.41a4.07,4.07,0,0,1-8.14.19,4.15,4.15,0,0,1,4-4.21A4.08,4.08,0,0,1,534.35,238.41Z"/><path class="cls-4" d="M446.18,128.4a4.08,4.08,0,1,1-4.06,4.12A4.07,4.07,0,0,1,446.18,128.4Z"/><path class="cls-4" d="M366.11,132.59a4.12,4.12,0,0,1-4.21,4,4.09,4.09,0,0,1,.21-8.17A4.13,4.13,0,0,1,366.11,132.59Z"/><path class="cls-4" d="M660.55,97.13a4.05,4.05,0,0,1-4.09,4.07,4.14,4.14,0,0,1-4.05-4.14,4,4,0,0,1,4-3.92A4,4,0,0,1,660.55,97.13Z"/><path class="cls-4" d="M492.3,203.16a4.12,4.12,0,0,1-3.93,4.06,4,4,0,0,1-4.12-4.06,3.82,3.82,0,0,1,3.89-4A3.92,3.92,0,0,1,492.3,203.16Z"/><path class="cls-4" d="M324,61.73a3.87,3.87,0,0,1-3.83,4.06,3.93,3.93,0,0,1-4.23-3.92A4.15,4.15,0,0,1,320,57.74,4,4,0,0,1,324,61.73Z"/><path class="cls-4" d="M324,26.4a4,4,0,0,1-4,4.17,4.15,4.15,0,0,1-4.07-4.11,4,4,0,0,1,3.89-4A3.93,3.93,0,0,1,324,26.4Z"/><path class="cls-4" d="M446.26,30.57a4.13,4.13,0,0,1-4.14-4,4,4,0,0,1,4.06-4.08,4,4,0,0,1,4,3.88A4.05,4.05,0,0,1,446.26,30.57Z"/><path class="cls-4" d="M660.55,26.36a4.07,4.07,0,1,1-8.13.19,4.07,4.07,0,0,1,8.13-.19Z"/><path class="cls-4" d="M618.51,26.46a4.13,4.13,0,0,1-3.88,4.11,4,4,0,0,1-4.17-4,3.83,3.83,0,0,1,3.83-4A3.94,3.94,0,0,1,618.51,26.46Z"/><path class="cls-4" d="M534.35,26.58a4.07,4.07,0,0,1-4.19,4,4.16,4.16,0,0,1-3.95-4.24,4.07,4.07,0,0,1,8.14.26Z"/><path class="cls-4" d="M492.3,26.51a4.13,4.13,0,0,1-3.93,4.06,4,4,0,0,1-4.12-4.06,3.81,3.81,0,0,1,3.88-4A3.94,3.94,0,0,1,492.3,26.51Z"/><path class="cls-4" d="M614.45,57.74a4.13,4.13,0,0,1,4.06,3.93,4,4,0,0,1-4.06,4.12,3.81,3.81,0,0,1-4-3.88A3.94,3.94,0,0,1,614.45,57.74Z"/><path class="cls-4" d="M488.34,57.74a4.13,4.13,0,0,1,4,4,3.93,3.93,0,0,1-4.13,4,3.81,3.81,0,0,1-3.92-4A4,4,0,0,1,488.34,57.74Z"/><path class="cls-4" d="M324,238.39a3.86,3.86,0,0,1-3.84,4.05,3.94,3.94,0,0,1-4.22-3.93,4.13,4.13,0,0,1,4.12-4.12A4,4,0,0,1,324,238.39Z"/><path class="cls-4" d="M484.25,238.4a4,4,0,0,1,4.17-4,4.13,4.13,0,0,1,3.88,4.11,3.93,3.93,0,0,1-4.21,3.94A3.82,3.82,0,0,1,484.25,238.4Z"/><path class="cls-4" d="M366.09,273.87a4.13,4.13,0,0,1-4.25,4,4,4,0,0,1,.4-8.07A4,4,0,0,1,366.09,273.87Z"/><path class="cls-4" d="M610.46,203.14a3.81,3.81,0,0,1,3.9-4,4,4,0,0,1,4.15,4,4.13,4.13,0,0,1-4,4A4,4,0,0,1,610.46,203.14Z"/><path class="cls-4" d="M362.13,93.14a4,4,0,0,1,4,4A4.13,4.13,0,0,1,362,101.2a4,4,0,0,1,.18-8.06Z"/><path class="cls-4" d="M488.08,101.2a4,4,0,0,1,.33-8.06,4,4,0,0,1,3.89,4A4.13,4.13,0,0,1,488.08,101.2Z"/><path class="cls-4" d="M656.42,277.85a4,4,0,1,1,.14-8.06,4,4,0,0,1,4,4.21A4,4,0,0,1,656.42,277.85Z"/><path class="cls-4" d="M319.93,207.22a4.15,4.15,0,0,1-4-4.21,3.93,3.93,0,0,1,4.07-3.84,3.88,3.88,0,0,1,4,4.13A4,4,0,0,1,319.93,207.22Z"/><path class="cls-4" d="M660.52,167.73a3.94,3.94,0,0,1-3.83,4.09,4,4,0,1,1-.15-8.06A4,4,0,0,1,660.52,167.73Z"/><path class="cls-4" d="M614.46,171.82a3.86,3.86,0,0,1-4-3.89,3.92,3.92,0,0,1,4-4.17,4.12,4.12,0,0,1,4.07,4.15A4,4,0,0,1,614.46,171.82Z"/><path class="cls-4" d="M618.51,97.16a4.14,4.14,0,0,1-4.2,4,3.92,3.92,0,0,1-3.85-4,3.86,3.86,0,0,1,3.88-4A4,4,0,0,1,618.51,97.16Z"/><path class="cls-4" d="M618.51,238.33a4,4,0,0,1-4.07,4.11,3.81,3.81,0,0,1-4-3.89,4,4,0,0,1,4-4.16A4.12,4.12,0,0,1,618.51,238.33Z"/><path class="cls-4" d="M576.38,132.45a4,4,0,1,1-3.94-4A4.08,4.08,0,0,1,576.38,132.45Z"/><path class="cls-4" d="M362.16,171.83a4,4,0,0,1-.24-8.07,4.12,4.12,0,0,1,4.17,4.06A4,4,0,0,1,362.16,171.83Z"/><path class="cls-4" d="M446.21,207.22a4.14,4.14,0,0,1-4.09-4.14,4,4,0,0,1,8.06-.09A4.06,4.06,0,0,1,446.21,207.22Z"/><path class="cls-4" d="M618.51,273.89a4.15,4.15,0,0,1-4.27,4,3.94,3.94,0,0,1-3.78-4.13,3.88,3.88,0,0,1,4.19-3.93A4.05,4.05,0,0,1,618.51,273.89Z"/><path class="cls-4" d="M450.18,238.54a3.87,3.87,0,0,1-4,3.9,3.93,3.93,0,0,1-4.07-4.08,4.14,4.14,0,0,1,4-4A4,4,0,0,1,450.18,238.54Z"/><path class="cls-4" d="M572.4,22.45a4,4,0,0,1,4,3.95,4,4,0,1,1-8.06-.07A4,4,0,0,1,572.4,22.45Z"/><path class="cls-4" d="M576.39,238.53a3.88,3.88,0,0,1-4,3.91,3.93,3.93,0,0,1-4.09-4.06,4.16,4.16,0,0,1,4-4A4.11,4.11,0,0,1,576.39,238.53Z"/><path class="cls-4" d="M446.07,65.78a3.88,3.88,0,0,1-3.95-3.94,4.14,4.14,0,0,1,4.12-4.1,4,4,0,0,1,3.94,4A3.89,3.89,0,0,1,446.07,65.78Z"/><path class="cls-4" d="M488.25,269.78a4,4,0,0,1,4.05,3.9,4.13,4.13,0,0,1-4.06,4.17,4,4,0,0,1,0-8.07Z"/><path class="cls-4" d="M576.39,61.77a4,4,0,0,1-8.06.06,4.11,4.11,0,0,1,4.13-4.08A4,4,0,0,1,576.39,61.77Z"/><path class="cls-4" d="M488.25,163.75a4.15,4.15,0,0,1,4.05,4.18,4,4,0,0,1-4.06,3.89,4,4,0,0,1,0-8.07Z"/><path class="cls-4" d="M576.39,203.26a4,4,0,1,1-8.06-.22,3.92,3.92,0,0,1,4.26-3.87A3.88,3.88,0,0,1,576.39,203.26Z"/><path class="cls-5" d="M567.3,558q0-6.48,0-12.94c0-.72,0-1.44.09-2.15a1.92,1.92,0,0,1,1.87-1.85,17.33,17.33,0,0,1,1.91-.09h26.35a11.75,11.75,0,0,1,1.68.08c1.45.2,1.91.66,2.09,2.14a15.34,15.34,0,0,1,.07,1.92q0,12.69,0,25.39c0,.4,0,.8,0,1.2-.12,2.57-.73,3.26-3.35,3.3-4.31.08-8.62,0-12.93,0H571.42c-.72,0-1.44,0-2.15-.09a1.92,1.92,0,0,1-1.87-1.85c-.07-.71-.09-1.44-.09-2.15Q567.29,564.46,567.3,558Z"/><path class="cls-5" d="M603.78,558c0-4.31,0-8.62,0-12.94a19.34,19.34,0,0,1,.1-2.15,1.94,1.94,0,0,1,1.89-1.83c.63-.06,1.27-.08,1.91-.08h26.83c2.83.08,3.31.52,3.32,3.44q0,13.41,0,26.83c0,3.15-.62,3.76-3.84,3.77q-13.43.06-26.84,0c-2.86,0-3.33-.51-3.36-3.39,0-4.55,0-9.1,0-13.66Z"/><path class="cls-5" d="M693.76,541h13c.71,0,1.44,0,2.15.1a1.92,1.92,0,0,1,1.84,1.87,17.63,17.63,0,0,1,.09,1.92q0,12.95,0,25.89c0,.32,0,.64,0,1-.12,2.58-.72,3.18-3.35,3.31-.72,0-1.44,0-2.16,0h-23c-.8,0-1.6,0-2.4,0-2.36-.16-3-.75-3.11-3,0-.48,0-1,0-1.44V545.09c0-.31,0-.63,0-1,.1-2.59.56-3.07,3.11-3.17.64,0,1.28,0,1.92,0Z"/><path class="cls-5" d="M803.29,541c4.48,0,9,0,13.43,0,3,0,3.48.48,3.49,3.51q0,13.42,0,26.85c0,3-.64,3.66-3.69,3.68q-13.31.06-26.61,0c-3.07,0-3.72-.65-3.73-3.65q0-13.54,0-27.09c0-2.81.52-3.27,3.46-3.3C794.18,540.94,798.74,541,803.29,541Z"/><path class="cls-5" d="M747.27,557.79c0,4.48,0,9,0,13.43,0,3.17-.62,3.78-3.83,3.79-8.79,0-17.58,0-26.37,0a13.26,13.26,0,0,1-1.67-.12,2.24,2.24,0,0,1-2.1-2.23c-.07-.72-.08-1.44-.09-2.16V545.1a15.71,15.71,0,0,1,0-1.68c.17-1.74.64-2.24,2.36-2.41.63-.06,1.28,0,1.91,0h25.42c.64,0,1.28,0,1.91,0,1.72.17,2.28.66,2.36,2.4.1,2.31.06,4.63.06,7,0,2.48,0,5,0,7.43Z"/><path class="cls-5" d="M766.74,541h12.47c.64,0,1.28,0,1.92,0,2,.15,2.45.65,2.59,2.69,0,.47,0,1,0,1.43q0,12.72,0,25.42c0,4-.45,4.47-4.35,4.48-8.48,0-16.95,0-25.42,0-.32,0-.64,0-1,0-2.61-.14-3.29-.74-3.3-3.34q-.08-13.78,0-27.57c0-2.56.56-3.09,3.14-3.12,4.63,0,9.27,0,13.9,0Z"/><path class="cls-5" d="M674.32,557.9c0,4.48,0,9,0,13.43,0,3-.65,3.66-3.7,3.68q-13.3.06-26.61,0c-3.14,0-3.73-.65-3.73-3.88,0-8.88,0-17.75,0-26.62,0-.48,0-1,.07-1.43a2,2,0,0,1,2-2c.71-.07,1.43-.09,2.15-.09h25.65c.4,0,.8,0,1.2,0,2.45.11,3,.56,3,3,.06,4.64,0,9.27,0,13.91Z"/><path class="cls-5" d="M786.15,521q0-6.24,0-12.48a17.1,17.1,0,0,1,.1-2.15,1.92,1.92,0,0,1,1.88-1.84c.63-.06,1.28-.08,1.91-.08h27.11c2.46.12,3,.57,3,3q.06,13.78,0,27.59c0,2.42-.57,3-3,3q-13.92.06-27.83,0c-2.65,0-3.14-.56-3.16-3.35,0-4.55,0-9.11,0-13.67Z"/><path class="cls-5" d="M766.8,538.08c-4.48,0-8.95,0-13.43,0-3.22,0-3.67-.44-3.68-3.56,0-8.8,0-17.6,0-26.39a15.76,15.76,0,0,1,.09-1.68,1.93,1.93,0,0,1,1.86-1.86,17.63,17.63,0,0,1,1.92-.09h26.38c.32,0,.64,0,1,0,2.26.14,2.72.62,2.84,2.95,0,.4,0,.8,0,1.2v25.2c0,.4,0,.8,0,1.2-.11,2.45-.56,3-3,3-4.64.06-9.28,0-13.92,0Z"/><path class="cls-5" d="M730.16,538.08H717.21a19.55,19.55,0,0,1-2.16-.12,1.82,1.82,0,0,1-1.72-1.71,19,19,0,0,1-.12-2.39q0-12.6,0-25.19c0-.56,0-1.12,0-1.68.17-1.84.66-2.37,2.56-2.46s3.84,0,5.76,0h20.87c.8,0,1.6,0,2.4,0,1.73.16,2.21.65,2.4,2.37a3.85,3.85,0,0,1,0,.48c0,9.28,0,18.56,0,27.83,0,2.26-.61,2.81-2.93,2.84-4.71.06-9.43,0-14.15,0Z"/><path class="cls-5" d="M693.64,538.08c-4.47,0-8.95,0-13.43,0-3,0-3.46-.48-3.47-3.53q0-13.32,0-26.63c0-2.9.5-3.4,3.35-3.41q13.67,0,27.34,0c2.85,0,3.34.51,3.35,3.4q0,13.32,0,26.64c0,3.05-.46,3.5-3.46,3.53C702.76,538.1,698.2,538.08,693.64,538.08Z"/><path class="cls-5" d="M657.26,538.08H645c-.64,0-1.28,0-1.92,0-2.18-.13-2.67-.6-2.82-2.72,0-.47,0-1,0-1.43v-25.2c0-.4,0-.8,0-1.2.11-2.45.57-2.92,3-3,1.27-.05,2.56,0,3.83,0,7.92,0,15.84,0,23.75,0,2.92,0,3.42.49,3.43,3.32q.06,13.43,0,26.87c0,2.87-.51,3.35-3.38,3.38-4.56,0-9.12,0-13.67,0Z"/><path class="cls-5" d="M620.76,538.08H608c-.71,0-1.44,0-2.15-.08a2,2,0,0,1-2-2c-.05-.64-.08-1.28-.08-1.92V508.45c0-.32,0-.64,0-1,.12-2.43.58-3,3-3,5.68-.05,11.36,0,17,0,3.59,0,7.19,0,10.79,0,2.6,0,3.15.55,3.16,3.1q.06,13.68,0,27.35c0,2.56-.56,3.08-3.15,3.11-4.64.05-9.27,0-13.91,0Z"/><path class="cls-5" d="M584.5,504.49c4.48,0,9,0,13.43,0,2.91,0,3.42.49,3.43,3.33q0,13.43,0,26.87c0,2.86-.51,3.36-3.39,3.37q-13.66,0-27.35,0c-2.76,0-3.28-.51-3.3-3.2q0-13.56,0-27.11c0-2.73.52-3.22,3.26-3.25C575.22,504.46,579.86,504.49,584.5,504.49Z"/><path class="cls-5" d="M511.6,355.68H499.37c-.64,0-1.28,0-1.92,0-2.54-.1-3-.58-3.09-3.2,0-.32,0-.64,0-1V326.32c0-.4,0-.8,0-1.2.11-2.45.56-2.92,3-3,1.12,0,2.24,0,3.36,0q12,0,24,0c3.22,0,3.67.44,3.68,3.56,0,8.8,0,17.6,0,26.39a15.76,15.76,0,0,1-.09,1.68,1.93,1.93,0,0,1-1.86,1.86,19.23,19.23,0,0,1-2.15.1Z"/><path class="cls-5" d="M438.65,395h12.72c.72,0,1.44,0,2.15.1a1.93,1.93,0,0,1,1.86,1.86,17.63,17.63,0,0,1,.09,1.92q0,13,0,25.91c0,.32,0,.64,0,1-.13,2.19-.6,2.68-2.71,2.83-.48,0-1,0-1.44,0H425.63c-.4,0-.8,0-1.2,0-2.45-.12-2.92-.57-3-3-.06-1.44,0-2.88,0-4.32V399.69c0-4.47.18-4.64,4.54-4.65S434.42,395,438.65,395Z"/><path class="cls-5" d="M820.22,485c0,4.16,0,8.32,0,12.48a19.23,19.23,0,0,1-.1,2.15,1.94,1.94,0,0,1-1.88,1.84q-1,.09-1.92.09H789.21c-2.46-.11-3-.57-3-3q-.06-13.8,0-27.59c0-2.43.57-3,3-3q13.92-.06,27.83,0c2.65,0,3.14.56,3.16,3.35,0,4.55,0,9.11,0,13.67Z"/><path class="cls-5" d="M601.37,484.8c0,4.24,0,8.48,0,12.72a19.34,19.34,0,0,1-.1,2.15,1.93,1.93,0,0,1-1.88,1.84q-1,.09-1.92.09h-27.1c-2.47-.11-3-.57-3-3q-.06-13.8,0-27.59c0-2.43.57-3,3-3q13.92-.06,27.83,0c2.66,0,3.14.56,3.17,3.34,0,4.48,0,9,0,13.44Z"/><path class="cls-5" d="M547.73,501.6c-4.4,0-8.8,0-13.19,0-3.29,0-3.7-.42-3.7-3.79q0-12.94,0-25.91c0-.64,0-1.28.09-1.91a1.92,1.92,0,0,1,1.85-1.87,19.41,19.41,0,0,1,2.16-.1h25.9a13.64,13.64,0,0,1,1.92.08c1.45.2,1.9.66,2.08,2.16a15.41,15.41,0,0,1,.07,1.92v25.19c0,.32,0,.64,0,1-.09,2.75-.53,3.25-3.25,3.27-4.63.05-9.27,0-13.91,0Z"/><path class="cls-5" d="M474.71,428.64H462a19.23,19.23,0,0,1-2.15-.1,1.92,1.92,0,0,1-1.86-1.86,17.33,17.33,0,0,1-.1-1.91V398.86c0-.4,0-.8,0-1.2.17-2,.66-2.45,2.7-2.59.48,0,1,0,1.44,0h25.67c.4,0,.8,0,1.2,0,2.45.11,3,.56,3,3,.06,5.51,0,11,0,16.55,0,3.36,0,6.72,0,10.08,0,3.58-.36,3.91-4,3.93C483.5,428.66,479.1,428.64,474.71,428.64Z"/><path class="cls-5" d="M710.8,484.8q0,6.36,0,12.72a19.34,19.34,0,0,1-.1,2.15,1.92,1.92,0,0,1-1.88,1.84c-.63.06-1.27.09-1.91.09H679.79c-2.46-.11-3-.57-3-3q-.06-13.8,0-27.59c0-2.43.56-3,3-3q13.9-.06,27.82,0c2.66,0,3.15.56,3.17,3.34,0,4.48,0,9,0,13.44Z"/><path class="cls-5" d="M564.9,521.28q0,6.36,0,12.72a19.33,19.33,0,0,1-.09,2.15,1.94,1.94,0,0,1-1.89,1.84c-.63.06-1.27.09-1.91.09H533.89c-2.46-.11-3-.57-3-3q-.06-13.8,0-27.59c0-2.43.57-3,3-3q13.9-.06,27.83,0c2.65,0,3.14.56,3.16,3.34,0,4.48,0,9,0,13.44Z"/><path class="cls-5" d="M511.55,431.53c4.48,0,9,0,13.43,0,2.91,0,3.42.5,3.43,3.34q0,13.42,0,26.87c0,2.86-.51,3.36-3.39,3.37q-13.67,0-27.34,0c-2.77,0-3.29-.51-3.3-3.2q-.06-13.56,0-27.11c0-2.73.53-3.23,3.27-3.25C502.27,431.5,506.91,431.53,511.55,431.53Z"/><path class="cls-5" d="M713.2,484.8q0-6.36,0-12.71a17.26,17.26,0,0,1,.1-2.16,1.91,1.91,0,0,1,1.88-1.83,17.33,17.33,0,0,1,1.91-.09h26.15c.32,0,.64,0,1,0,2.46.11,3,.56,3,3q.06,13.78,0,27.59c0,2.42-.57,3-3,3q-13.92.06-27.83,0c-2.65,0-3.14-.55-3.16-3.34,0-4.48,0-9,0-13.44Z"/><path class="cls-5" d="M438.4,392.16H425.93c-.64,0-1.28,0-1.92,0-1.9-.15-2.39-.63-2.56-2.47-.05-.55,0-1.12,0-1.68q0-12.59,0-25.19c0-.4,0-.8,0-1.2.12-2.43.58-3,3-3,4.4-.06,8.79,0,13.19,0,4.8,0,9.6,0,14.39,0,2.91,0,3.42.49,3.43,3.33q0,13.43,0,26.87c0,2.86-.51,3.34-3.38,3.37-4.56,0-9.12,0-13.68,0Z"/><path class="cls-5" d="M474.75,392.16c-4.47,0-8.95,0-13.43,0-2.91,0-3.41-.49-3.42-3.33q-.06-13.44,0-26.87c0-2.87.5-3.36,3.38-3.37q13.68,0,27.35,0c2.76,0,3.29.51,3.3,3.21q0,13.54,0,27.11c0,2.73-.52,3.22-3.26,3.24C484,392.19,479.39,392.16,474.75,392.16Z"/><path class="cls-5" d="M511.39,358.56h13a19.53,19.53,0,0,1,2.16.11,1.91,1.91,0,0,1,1.83,1.88,17.63,17.63,0,0,1,.09,1.92q0,12.82,0,25.67c0,.32,0,.64,0,1-.11,2.46-.57,3-3,3q-14,.06-28.06,0c-2.43,0-3-.57-3-3q-.06-13.68,0-27.35c0-2.66.55-3.15,3.34-3.17,4.55,0,9.11,0,13.67,0Z"/><path class="cls-5" d="M766.69,501.6H754a17.52,17.52,0,0,1-1.92-.05c-1.71-.18-2.17-.67-2.34-2.43a13.85,13.85,0,0,1,0-1.44V472c0-.31,0-.64,0-.95.12-2.46.57-3,3-3,5-.06,10.07,0,15.11,0,4.08,0,8.16,0,12.24,0,3.22,0,3.67.44,3.68,3.56q0,13.19,0,26.39a15.43,15.43,0,0,1-.09,1.67,1.92,1.92,0,0,1-1.85,1.87,19.34,19.34,0,0,1-2.15.1Z"/><path class="cls-5" d="M620.72,501.6c-4.48,0-9,0-13.43,0-3,0-3.49-.47-3.5-3.5q0-13.32,0-26.64c0-3,.49-3.43,3.56-3.44q13.44,0,26.87,0a13.25,13.25,0,0,1,1.67.09,1.93,1.93,0,0,1,1.86,1.86,17.63,17.63,0,0,1,.09,1.92q0,12.94,0,25.91c0,.32,0,.64,0,1-.14,2.25-.62,2.76-3,2.82s-4.8,0-7.2,0Z"/><path class="cls-5" d="M547.72,465.12c-4.4,0-8.79,0-13.19,0-3.23,0-3.68-.43-3.69-3.55,0-8.8,0-17.6,0-26.4,0-.55,0-1.12.09-1.67a2,2,0,0,1,1.86-1.87c.63-.07,1.27-.09,1.91-.1h26.39a13.86,13.86,0,0,1,1.44.05c1.7.19,2.17.67,2.34,2.44,0,.55,0,1.12,0,1.68v25.19c0,.4,0,.8,0,1.2-.11,2.46-.56,3-3,3-4.72.06-9.44,0-14.16,0Z"/><path class="cls-5" d="M511.45,395h12.71c.72,0,1.44,0,2.16.08a2,2,0,0,1,2,2c.06.63.08,1.28.08,1.91q0,12.84,0,25.68c0,.32,0,.64,0,1-.12,2.42-.58,2.95-3,3-5.67.05-11.35,0-17,0-3.6,0-7.2,0-10.79,0-2.6,0-3.15-.55-3.16-3.1q-.06-13.68,0-27.35c0-2.56.56-3.08,3.15-3.11,4.64-.05,9.28,0,13.92,0Z"/><path class="cls-5" d="M657.12,501.6c-4.48,0-9,0-13.43,0-2.91,0-3.41-.5-3.42-3.34q0-13.42,0-26.87c0-2.86.51-3.35,3.39-3.36q13.67,0,27.34,0c2.77,0,3.29.52,3.3,3.21q.06,13.56,0,27.11c0,2.73-.52,3.22-3.26,3.24C666.4,501.63,661.76,501.6,657.12,501.6Z"/><path class="cls-5" d="M474.87,355.68H462.4c-.72,0-1.45,0-2.16-.05-1.62-.17-2.11-.65-2.3-2.22a13.32,13.32,0,0,1-.06-1.67V326.06c0-.32,0-.64,0-1,.12-2.44.58-3,3-3,5.28-.06,10.56,0,15.84,0,4,0,8,0,12,0,2.61,0,3.16.54,3.17,3.09q.06,13.68,0,27.35c0,2.57-.56,3.09-3.15,3.12-4.63,0-9.27,0-13.91,0Z"/><path class="cls-5" d="M400.31,428.68V395l14.12,0a19.09,19.09,0,0,1,2.39.08c1.46.18,1.92.65,2.11,2.12a15.25,15.25,0,0,1,.07,1.91v25.38c0,.4,0,.8,0,1.19-.12,2.28-.61,2.84-2.88,2.89-3.42.07-6.86,0-10.29,0Z"/><path class="cls-5" d="M530.83,301.44H564.9v13.65c0,.72,0,1.44-.1,2.15A1.92,1.92,0,0,1,563,319.1a15.38,15.38,0,0,1-1.91.1H534.69a13.58,13.58,0,0,1-1.43,0c-1.73-.18-2.28-.66-2.37-2.39-.1-2.07-.06-4.15-.06-6.23C530.82,307.51,530.83,304.47,530.83,301.44Z"/><path class="cls-5" d="M494.35,301.44h34.07c0,4.55,0,9.1,0,13.65,0,.72,0,1.44-.09,2.15a1.92,1.92,0,0,1-1.86,1.86,15.18,15.18,0,0,1-1.91.1H498.22a13.85,13.85,0,0,1-1.44,0c-1.72-.18-2.28-.66-2.36-2.39-.11-2.07-.06-4.15-.07-6.23Z"/><path class="cls-3" d="M252.92,186.7c-5.86-.1-14.4-3.12-21.38-9.73A36.61,36.61,0,0,1,219.8,152.7a37.07,37.07,0,0,1,7.88-26.94c7.1-9,16.34-13.78,27.94-14a35.22,35.22,0,0,1,20.07,5.42A36.39,36.39,0,0,1,289.6,133,37.85,37.85,0,0,1,292,158.54C287.7,175.6,272.58,186.81,252.92,186.7Z"/><path class="cls-4" d="M277.88,199.19a3.94,3.94,0,0,1,4.12,4,4.1,4.1,0,0,1-8.2,0A3.94,3.94,0,0,1,277.88,199.19Z"/><path class="cls-4" d="M319.94,171.81a3.89,3.89,0,0,1-4-3.88,4.08,4.08,0,0,1,4-4.18,4,4,0,0,1,0,8.06Z"/><path class="cls-4" d="M320,136.55a4.08,4.08,0,0,1-4.05-3.93,4.14,4.14,0,0,1,4-4.24,4.09,4.09,0,0,1,0,8.17Z"/><path class="cls-4" d="M278,93.15a4,4,0,1,1-.15,8,4,4,0,1,1,.15-8Z"/><path class="cls-10" d="M282,132.58a4.1,4.1,0,1,1-4.06-4.2A4.23,4.23,0,0,1,282,132.58Z"/><path class="cls-4" d="M277.89,163.76a4,4,0,1,1-4.07,4.12A4.11,4.11,0,0,1,277.89,163.76Z"/></svg>