<svg id="Layer_1" data-name="Layer 1" xmlns="http://www.w3.org/2000/svg" viewBox="0 0 3508 2482"><defs><style>.cls-1{fill:#525252;}.cls-2{fill:#282828;}.cls-3{fill:#242424;}.cls-4{fill:#444;}.cls-5{fill:#3b3b3b;}.cls-6{fill:#383838;}.cls-7{fill:#3c3c3c;}.cls-8{fill:#3d3d3d;}.cls-9{fill:#484848;}.cls-10{fill:#505050;}.cls-11{fill:#252525;}.cls-12{fill:#404040;}.cls-13{fill:#3f3f3f;}.cls-14{fill:#414141;}.cls-15{fill:#424242;}</style></defs><path class="cls-1" d="M3507.9,621.89V1863.62c-3.1,8.93-9.22,15.59-15.79,22.14q-289.2,288.79-578.09,577.88c-6.65,6.65-13.3,13.21-22.27,16.72a29.72,29.72,0,0,1-5.58,0,58.61,58.61,0,0,1-18-12.39q-293.43-293.35-586.83-586.71c-4.79-4.79-7.78-11.75-15.4-13.3-3.64-6.06-8.67-10.94-13.62-15.88q-295.56-295.14-590.79-590.61c-3.77-3.77-7.39-7.7-11.23-11.37-4.11-3.92-3.56-7.32.15-10.93,3.85-3.26,8.38-2.15,12.75-2,6.41,7.17,13.79,13.35,20.58,20.14q267.2,267.2,534.42,534.35c10.13,10.13,20.17,20.36,30.46,30.34,3.16,3.07,6.07,8.88,11.22,6.47,4.86-2.27,2.72-8.32,3-12.81.24-3.31,0-6.66,0-10q0-273.39.11-546.78c0-6.44-2.32-14,5.15-18.55a6.52,6.52,0,0,1,2.54,2.2c4.62,3.63,4.19,8.82,4.19,13.85q0,43.49,0,87,0,241.41.1,482.81c0,5.41-2.77,13.38,2.73,15.61s8.61-5.89,13-9.17c21.08-15.77,26.85-36.61,26.69-62.78-1-163.93-.5-327.87-.52-491.8,0-29.3-1.63-30.88-31.11-31.25-4.28,0-8.72.58-12.64-1.85-6.63-4.71-5.61-9-.21-14.4q31.48-31.38,62.89-62.83,264.45-264.56,528.86-529.14c6.37-6.38,15.26-10.43,18.83-19.76.88-2.29,4.78-1.65,7.45-1.81q300.25-.2,600.45-.07C3497.45,616.87,3503.61,616.35,3507.9,621.89Z"/><path class="cls-2" d="M3507.9,621.89c-4.66-.09-9.31-.26-14-.27q-295.51,0-591,0c-5,0-10,.18-15,.27-7.27,4.84-15.44,5-23.79,5q-449.35-.07-898.72,0c-5.33,0-10.66,0-16,.11a26.44,26.44,0,0,0-18.79,7.88c-10.07,9.74-15.14,9.74-25.4,0a26.57,26.57,0,0,0-18.8-7.85q-20-.27-40,0a24.17,24.17,0,0,0-18.55,8.11c-8.72,9.42-16.88,9.56-25.62.39-5.78-6.08-12.47-8.48-20.49-8.54-13-.09-26-.05-39,0-7.75,0-14,2.55-19.32,8.58-8,9-16.64,9.13-24.78.27-6-6.51-13.06-10-21.28-8.66-23.38,3.81-38.56-7.45-54.38-23.34q-285.24-286.56-571.64-572c-3.79-3.78-7.22-11.25-13.16-8.74s-3.12,10.15-3.12,15.53q-.18,283.88-.28,567.73c0,5.52,3.75,13.13-5.09,16.26a5.62,5.62,0,0,1-3.46-1.19c-3-5-3.29-10.46-3.29-16.06q.08-294.83,0-589.64c0-7-.23-14,9-15.67H2540c4,3.62,4.38,6.71-1.53,8.36-4.48,1.25-9.14,1.79-13.68,2.84-11.38,2.64-15,6.76-15.57,18.62-.56,11.31-.2,22.64-.2,34,0,28-.15,56,.06,83.92.11,15,3.26,17.06,17.53,12.35,2.22-.74,4.47-1.34,6.69-2,14.33-4.55,17.5-8.49,17.61-23.79.27-40,.07-79.92.08-119.88,0-6,0-11.84,7-14.33h42c7.8,1.49,9.15,6.85,9.11,13.84-.23,38.62-.15,77.24-.08,115.86,0,20.45,2,23,21.48,28.86,21.42,6.46,22.46,5.69,22.48-16.86q0-50.94,0-101.88c0-24-1.57-25.8-24.63-30.43a48.11,48.11,0,0,1-4.89-1c-5.9-1.87-5.38-4.83-1.47-8.4h886Z"/><path class="cls-1" d="M.1,833.84v-212c3.18-5.46,8-7.17,14.15-6.93,12.59.5,25.32-1,37.56,3.53,2.81,1,6,.39,8.95.39q456.3,0,912.61,0c13.24,0,26-5,39.48-4,6.17.46,11.62,1.18,15.64,6.28,9.91,14.19,6.76,29.8,4.39,45.11-.7,4.57-1.87,9-1.87,13.72q0,561,.68,1122.05c0,19.18,2.38,39,4.49,58.39.23,1.31.43,2.63.57,4a15,15,0,0,0-2.13,11.26c.82,3.92.39,7.9.39,11.85q.06,286.09,0,572.21c0,6.64,1.37,13.65-3.27,19.57-1.57,1.43-3.44,1.32-5.31,1.18-9.72-3.41-16.46-10.79-23.49-17.76-6.86-6.81-13.34-14-20.56-20.43-8.2-7.27-10.87-16.41-11.24-26.71-.17-4.66-.07-9.33-.07-14q0-250.92,0-501.86c0-5,.13-10-.14-15-.7-13-5.53-17.79-17.72-17.68s-17.1,5-17.94,17.8c-.34,5.32-.19,10.66-.19,16q0,231.43,0,462.87c0,4.66.31,9.35-.29,14-1.08,8.26-5.24,10.06-11.59,4.65-9.14-7.78-16.47-17.68-25.92-24.92-19.81-15.17-25-34.16-24.77-58.91,1.23-132.62.58-265.25.58-397.88,0-5.34.16-10.67-.21-16-.86-12.61-6.13-17.66-18.15-17.51-11.52.14-16.53,5.06-17.42,17.23-.36,5-.21,10-.21,15q0,182.46,0,364.9c0,4.33.19,8.68-.22,13-.32,3.27-.61,6.71-4.54,8.07-3.61,1.25-6.37-.32-8.9-2.6-9.91-8.93-18.39-19.45-28.68-27.82-15.49-12.61-20.34-27.61-20.14-47.73,1-102.63.49-205.27.48-307.91,0-5,.15-10-.23-15-.93-12.16-6-17.05-17.5-17.15-12-.1-17.2,4.93-18.06,17.62-.34,5-.2,10-.2,15q0,135.47-.11,270.93c0,5.81,2.6,13.65-4.77,16.52-7.16,2.78-10.94-4.45-15.21-8.54-12-11.53-23.51-23.62-35.48-35.21-6.22-6-8.57-12.72-8.55-21.33q.3-111.46.12-222.94c0-4.66.11-9.33-.17-14-.8-12.9-5.8-18-17.67-18s-17.37,5-17.91,17.72c-.66,15.65-.22,31.32-.23,47,0,47.32.07,94.64-.13,142,0,5.18,2.35,12.15-4.23,14.82s-9.63-4.15-13.38-7.68c-11.89-11.18-23-23.23-34.86-34.4-7.17-6.73-9.65-14.25-9.57-23.93.36-41.65.16-83.3.15-125,0-4.33.11-8.67-.2-13-.93-13.22-7.07-18.52-20.16-17.44-10,.82-14.63,5.33-15.27,16.17-.9,15.3-.27,30.65-.35,46-.08,16.66.1,33.33-.1,50,0,3.62.36,7.75-3.83,9.73-4.67,2.21-8.06-.54-11.14-3.5-14-13.39-27.52-27.14-41.07-40.93-4.26-4.32-5.9-9.25-5.89-15.22,0-14.66.43-29.34-.19-44-.66-15.37-11.64-22.4-26.24-17.28-5.73,2-8,6.42-9.35,11.93-3.37,14-8,15.74-17.61,5-12.91-14.57-28.37-18.62-47.24-18.54-120.32.51-240.64.28-361,.23-6.2,0-12.88,1.25-17.36-5V1647.67c5.75-11.33,15.26-19.48,24-28.25q142.31-142.23,284.51-284.56c5.74-5.74,12.2-10.55,18.14-16,5.06-3.45,12-4.76,13.66-12,2.23-7.57,8.75-11.83,13.77-17,14.54-15.14,29.16-30.23,44.73-44.33,1.19-1.08,1.17-2,1.46-3.1a6,6,0,0,0-2.08-5.14c-18.26-16.78-35.86-34.22-52.58-52.56a21,21,0,0,1-5.54-10.08,10.09,10.09,0,0,0-6.81-6.85c-9.33-2.36-15.08-9.75-21.38-16-51.6-51.06-102.74-102.58-154.11-153.86Q87.55,927.63,17.26,857.36C10.27,850.39,3.29,843.54.1,833.84Z"/><path class="cls-3" d="M1030.21,1863.41c-.09-.58-.19-1.16-.28-1.74-1.78-3.83-.84-7.89-.84-11.82q-.08-607.33,0-1214.68c0-2.34,0-4.67,0-7s-.13-4.68,2.54-5.94,4.58.44,6.24,1.87c8.08,7,14.63,15.75,23.09,22.08,21.44,16.05,26.92,36.53,26.72,63.06-1.2,165-.6,329.91-.59,494.87,0,5.66-.25,11.35.4,17,1.25,10.64,6.41,15.14,17.27,15.26,11.27.12,16.75-4.59,17.94-15.64.61-5.64.37-11.32.37-17q0-232.44,0-464.88c0-5-.49-10.05.6-15,1.29-5.84,5.94-7.76,10.31-3.66,16.5,15.49,32.72,31.29,48,48.06,2.39,2.64,2.91,5.81,3,9,.17,4,.08,8,.08,12q0,207,0,413.9c0,5.33-.17,10.67.24,16,1,12.16,6,17.1,17.52,17.17s16.92-4.85,18-16.75c.46-5.32.28-10.66.28-16q0-184.46.07-368.91c0-6.22-2.46-15,3.51-17.8,7.38-3.51,11.56,5.38,16.3,9.8,10.24,9.54,19.5,20.13,29.93,29.44,9.14,8.16,12.48,17.33,12.43,29.66-.42,106.64-.25,213.28-.23,319.92,0,5.66-.3,11.36.65,17,1.62,9.5,7,13.54,17.77,13.72,11.38.18,17.15-3.91,18.87-13.6,1-5.6.68-11.3.68-17q0-136,.13-271.93c0-5.93-2.82-14.13,4.28-17s10.59,5.16,14.89,9.19c11.18,10.49,21.54,21.84,32.72,32.31,7.37,6.91,10.21,14.55,10.16,24.67-.31,73.64-.17,147.29-.16,220.94,0,5-.15,10,.23,15,.92,12.18,6,17.16,17.39,17.31,12,.15,17.26-4.91,18.16-17.56.33-4.65.21-9.32.21-14q0-84.48,0-169c0-3.66-.17-7.34.12-11,.32-3.95-.56-8.73,4.52-10.39,4.27-1.39,6.83,2,9.47,4.53,13.48,12.9,26.37,26.41,39.76,39.4,6,5.78,8.28,12.18,8.24,20.42-.24,41.66-.12,83.31-.11,125,0,4.33-.08,8.67.12,13,.63,14.3,5.73,19.76,18.23,19.61,12-.15,17.2-5.47,17.44-19.32.54-29.65,0-59.31.32-89,0-5.55-2.47-13.2,4.46-15.7,5.93-2.14,9.44,4.5,13.24,8.17,12.94,12.5,25.46,25.44,38.27,38.08,5.6,5.52,8.19,11.61,8,19.53-.3,13.32-.47,26.66.12,40,.55,12.33,5,17.29,15.51,18.14,12.07,1,17.56-3.24,20.22-15.49,2.25-10.3,5.85-11.57,13.56-4.5,5.4,5,10.39,10.35,15.63,15.47a19.12,19.12,0,0,1,5.63,12c4.2,4.29,8.36,8.6,12.6,12.84q297.21,297.19,594.43,594.38c4,4,8.43,7.61,11.32,12.6,3.63,6.61,4.91,13.64,4.9,21.2-.09,91.11,0,182.21-.2,273.32,0,5.49,2.53,12.16-4.33,16-5.58,2.42-11.49,2.49-17.43,2.48q-53,0-106,0c-5,0-10-.11-15,.76q-10.61,1.88-12.42,12.49a83.61,83.61,0,0,0-.74,14q0,52.47,0,104.95c0,5.66,0,11.3-2.22,16.66a4.47,4.47,0,0,1-2.51,2.75,42.56,42.56,0,0,1-15.29,2.4q-61.69,0-123.39,0c-5,0-10,.06-14.64-2a5.92,5.92,0,0,1-3.11-2c-2.89-5.45-2.86-11.37-2.85-17.32q0-50.4,0-100.82c0-4,.06-8-.12-12-.68-14.68-4.86-19-19.31-19.62-6.65-.3-13.31-.13-20-.13-28,0-55.91-.16-83.87.07-18.33.16-22.5,4.22-22.64,22.36-.28,36.61,0,73.21-.1,109.81,0,5.62.19,11.26-2.18,16.57a4.63,4.63,0,0,1-2.39,2.72c-5.57,2.32-11.41,2.48-17.33,2.47-33.88-.08-67.77,0-101.66,0-4.32,0-8.64-.11-13,.26-12,1-16.27,5.31-17.23,17.57-.38,5-.24,10-.24,14.95q0,51.81,0,103.64c0,5.43,0,10.85-5,14.54h-4c-1.59-1.25-4-2.08-5-3.15-8.21-8.81-14-6-19,3.15h-48c-3-3.6-3-7.91-3-12.27,0-14.63-.06-29.26,0-43.89,0-9.88-3.24-18.09-10.38-25-7.42-7.16-14.5-14.66-21.94-21.79-2.32-2.22-4.68-5.55-8.44-3.93s-3.11,5.59-3.13,8.81c-.2,27.93,0,55.85-.11,83.78,0,5,.6,10.06-3,14.27h-48c-5.41-3.87-5-9.64-5-15.28,0-43.56-.51-87.12.25-130.67.3-17.26-4.27-31.17-17.63-42.29-5.86-4.87-10.63-11-16.42-16-5.08-4.38-7.25-3.35-8,3.43a85,85,0,0,0-.16,10q0,87.29,0,174.56c0,5.92.77,12.11-5,16.28h-46c-5.8-4.32-5-10.65-5-16.69q0-105.84,0-211.7c0-44.88,2.35-37.7-29.86-70.09-2.49-2.51-4.92-6.75-8.83-5.46-4.83,1.59-3.21,6.78-3.21,10.49q-.18,138.32-.1,276.62c0,6.06.83,12.45-5,16.83h-48c-5.22-3.71-5-9.26-5-14.74q-.08-62,0-124,0-96,0-191.93c0-41.14,1.31-36.62-27.29-65.32-1.88-1.89-3.7-3.84-5.72-5.59-1.72-1.5-3.42-3.68-6-2.85-3.24,1-2.69,4.24-2.89,6.79-.26,3.31-.11,6.66-.11,10q0,184.93,0,369.88c0,6.31,1.28,13.11-5,17.73h-46c-3.6-3.06-5-6.89-5-11.67.09-12.65,0-25.31,0-38,0-129.56-.88-259.12.66-388.65.35-29.34-16.26-44.81-34.33-61.49-4.24-3.92-7.3-1.94-8,3.54a90.41,90.41,0,0,0-.3,12q0,232.8,0,465.59c0,6.57,1.54,13.73-5,18.66h-46c-5.71-4.13-6.51-10-7.07-16.61-1.28-15.14,4.15-29.49,4.14-44.47-.12-137.85-.42-275.71.21-413.56.13-29-5.07-57.5-5.16-86.34-.83-5.85-4-10.42-8-14.56-7-7.14-14-14.22-21.23-21.07C1038.41,1878.73,1033.05,1872,1030.21,1863.41Z"/><path class="cls-4" d="M.1,1861.62q197.49,0,395-.17c9.67,0,17.56,2.3,23.9,9.84a98.06,98.06,0,0,0,11.4,11.2c4,3.42,6.64,2.25,7.19-3.06.31-3-.2-6-.17-9,.07-6,1.47-8.23,7.33-8.5,10-.46,20-.48,30,0,6.51.28,8.69,2.75,9.06,9.59.44,8,.23,16,.27,24,.05,10.67.1,21.33.08,32a20.43,20.43,0,0,0,6.23,15.27c12.07,12,24,24,36.09,36,1.84,1.82,3.72,4.65,6.64,3.6,3.51-1.26,2.85-5,2.87-7.84.13-15,.1-30,.12-45,0-18-.1-36,.07-54,.12-11.89,2.1-13.74,14.21-13.93,7.33-.12,14.68-.23,22,.22,6.69.4,8.8,2.67,9.48,9.25a105.72,105.72,0,0,1,.27,11c0,45.66.23,91.31-.15,137-.09,10.79,2.83,19.13,11,26.49,11.09,10.07,21.28,21.12,32,31.64,2,2,3.88,5.67,7.19,4.1,3.08-1.46,1.84-5.34,2-8.22s.06-6,.06-9q0-91.49,0-183c0-19,.51-19.51,19.7-19.53,5.33,0,10.68-.16,16,.21,7.31.51,9.45,2.64,10.09,9.76.35,4,.22,8,.22,12q0,114.46,0,228.94c0,4,.1,8,.12,12a19.49,19.49,0,0,0,6.12,14.29c12.77,12.68,25.46,25.44,38.2,38.15a19.58,19.58,0,0,0,3,2.59c3,2,5.33,1.16,5.78-2.36a103.5,103.5,0,0,0,.58-13q0-140.46,0-280.93c0-4.33,0-8.67.34-13,.34-5,3.2-8.18,8.26-8.3q14.48-.37,29,0c5.1.13,7.82,3.4,8.12,8.42.26,4.32.32,8.65.32,13q0,164,0,327.92c0,4.33.08,8.66.11,13a18.58,18.58,0,0,0,5.42,13.55q18.74,18.73,37.47,37.47c1.61,1.6,3.31,3.85,5.91,3.05,3.22-1,2.84-4.18,3-6.75.2-4,.15-8,.15-12q0-188,0-375.9a127.82,127.82,0,0,1,.32-13c.64-6.16,2.65-8.49,8.8-8.78,9.31-.44,18.67-.45,28,0,6,.31,8,2.72,8.63,9,.42,4.3.29,8.65.29,13q0,212.46,0,424.9c0,4.33.11,8.66.08,13a20.3,20.3,0,0,0,6.45,15.17c12.31,12.2,24.5,24.51,36.77,36.76a23.72,23.72,0,0,0,3.77,3.25c2.2,1.42,4.11.6,4.38-1.85a116.74,116.74,0,0,0,.55-13q0-226.46,0-452.89c0-11.33-.12-22.66.07-34,.19-11.52,2.09-13.44,13.45-13.65,8.33-.16,16.68-.24,25,.22,6.56.36,8.19,2.39,8.09,8.82-1.33,88-.35,175.94-.54,263.92-.18,87.64,0,175.29,0,262.93,0,4.33.13,8.67,0,13-.28,12.67,3.81,23,13.51,31.86a482.46,482.46,0,0,1,36.55,36.93c-3,2.24-6.46,1.11-9.68,1.11q-503.34.09-1006.68,0c-3.25,0-6.67.94-9.77-1Z"/><path class="cls-3" d="M1032,0a19.48,19.48,0,0,0-3.9,12.15c0,3-.1,6-.1,9q0,299.39,0,598.75c-3.11,1.85-6.52.93-9.78.94q-299.32.07-598.65,0c-12.06,0-15.65-2.89-16.15-14.84-.51-12.22-1.48-24.59,2.88-36.48,1.19-3.22.71-6.59.71-9.9q0-249.31-.13-498.64c0-14.84-4.88-29.37-3.94-44.48.42-6.71,1.52-12.37,7.09-16.53Z"/><path class="cls-4" d="M2891.86,2479.44c2.91-3.2,5.69-6.52,8.74-9.57q298.82-298.82,597.67-597.57c3.05-3,6.41-5.79,9.63-8.68v615.87c-3.1,1.89-6.51,1-9.77,1q-298.26.09-596.53,0C2898.36,2480.44,2894.93,2481.44,2891.86,2479.44Z"/><path class="cls-3" d="M.1,619.89V214c8.54-3.89,9-11.38,9-19.38q-.11-88,0-176c0-5.5-.61-11.14,2.69-16.1A30.59,30.59,0,0,1,14.1,0h46c5.08,4,6.67,9.07,7,15.53C67.91,31,63.54,45.88,63.34,61c-.65,50.53-1.09,101.1.21,151.6.47,18,3.67,36.16,4.34,54.32.71,5.48,3.48,9.91,7.28,13.82Q86,291.81,97.06,302.54c2.18,2.1,4.26,5.82,8.18,2.35,2.63-13,5.47-26.15,5.58-39.17.58-69.89.42-139.79.15-209.68,0-13.19-4.79-26-3.88-39.47.45-6.62,1.31-12.44,7-16.55h46a27.91,27.91,0,0,1,2.46,2.75c3.43,5.8,2.52,12.22,2.52,18.46,0,107.25.92,214.52-.59,321.75-.39,27.51,14.18,42.95,32,58.35,5.3,4.59,9,2.7,10.21-4.39.78-4.61.42-9.31.42-14q0-180.87,0-361.72c0-6.24-.91-12.67,2.52-18.47A25.79,25.79,0,0,1,212.09,0h46a27.73,27.73,0,0,1,2.5,2.81c3.29,5.86,2.48,12.3,2.48,18.57,0,137.63.49,275.26-.42,412.89-.16,24.23,5,43.83,24.65,58.62,5.2,3.92,9.4,13.78,14.8,11.56,6.59-2.72,2.84-12.54,2.84-19.17q.29-231.94.17-463.88c0-6.28-.77-12.71,2.47-18.59A26.57,26.57,0,0,1,310.08,0h48A7.08,7.08,0,0,1,360,3.25c1.39,6.24,1.13,12.57,1.13,18.88,0,171.39.26,342.78-.34,514.17-.07,21.26,5.17,38.07,21.57,51.94,8.76,7.42,17.48,15.35,23.47,25.56,1,1.7,2,3.25,1.52,5.35-2.42,2.6-5.59,1.71-8.49,1.71q-196,.06-391.94,0C4.59,620.87,2.18,621.45.1,619.89Z"/><path class="cls-4" d="M346.37,1171.65c1.86,8.07,6.6,14.19,12.45,19.88,14,13.65,27.78,27.59,41.56,41.49,3,3,6.8,5.66,5.89,10.82-7.49,2.4-15.15,3-23,3q-182.32-.15-364.65-.09c-6.58,0-13.56,1.22-18.51-5V833.84c5,3.45,9,7.91,13.22,12.14q150.06,150,300,300.08c7.18,7.2,14.38,13.8,24.73,15.75.16,4.77-3.77,4.57-6.75,5.6-4.72,1.62-8.38,4.26-7.71,9.94.43,3.68,2.89,5.94,6.49,6.49,5,.75,8-2.1,10.05-6.31C341.46,1174.77,341.47,1170.61,346.37,1171.65Z"/><path class="cls-5" d="M.1,1241.76l388.44,0c6,0,12-.29,17.73,2.1-16.36,16.57-32.64,33.2-49.1,49.66-4.79,4.79-8.94,9.83-10.81,16.46-3.36.73-4.52-1.29-5.7-4-2.57-5.86-6.89-9.81-13.25-5.87s-4.65,9.67-.82,14.62c1.82,2.35,2.42,4.54,1.64,7.27-3,3.15-5.87,6.37-8.93,9.43q-153,153-305.95,305.9c-4,4-7.62,8.46-13.25,10.35Z"/><path class="cls-4" d="M1128,2481.49q0-249.87,0-499.74,0-6,.16-12c0-1.64.11-3.51,1.83-4.34s3.12.45,4.37,1.53c1,.87,2,1.81,2.9,2.75,11.78,11.77,23.43,23.69,35.4,35.28,5.15,5,7.85,10.6,7.36,17.75-.12,1.66,0,3.33,0,5q0,226.88,0,453.76Z"/><path class="cls-3" d="M1960,2481.49H1804c-3.91-3.26-5.08-7.57-5.07-12.46q.16-65.66,0-131.29c0-4.89,1.35-9.06,5.14-12.29l-.14.14c3.24-3.81,7.43-5.16,12.33-5.15q65.76.21,131.51,0c4.9,0,9.07,1.35,12.31,5.14l-.15-.15c3.6,3.28,5.11,7.27,5.1,12.22-.09,43.42,0,86.84-.1,130.26a22.8,22.8,0,0,1-2.27,10.59A31.28,31.28,0,0,1,1960,2481.49Z"/><path class="cls-3" d="M2270,2481.49H2114a28.88,28.88,0,0,1-2.66-3,22.69,22.69,0,0,1-2.28-10.59c-.13-43.42,0-86.83-.1-130.25,0-5,1.49-8.94,5.11-12.22l-.14.14c3.23-3.77,7.38-5.15,12.27-5.13,44.1.18,88.2-.05,132.29.13a25.37,25.37,0,0,1,10.63,2.18c5.27,1.62,5.69,6,5.72,10.41.28,45.23.18,90.46.07,135.69a21,21,0,0,1-2.25,9.63A30.18,30.18,0,0,1,2270,2481.49Z"/><path class="cls-1" d="M1804.06,2325.45l-.06,156H1650c-.15-13.3-.41-26.61-.43-39.91q-.11-48.91,0-97.83c0-3.32.09-6.65.23-10,.2-4.78,2.87-7.29,7.53-7.63,3.31-.24,6.65-.29,10-.29q60.9,0,121.8,0C1794.09,2325.83,1799.08,2325.58,1804.06,2325.45Z"/><path class="cls-4" d="M1226,2481.49c.07-6,.21-12,.21-18q0-192.35,0-384.68,0-5.49.16-11c0-1.65.08-3.53,1.8-4.36s3.09.51,4.34,1.56c.76.65,1.47,1.36,2.18,2.07,12.24,12.24,24.41,24.57,36.77,36.7,4.56,4.48,7,9.56,6.78,16-.11,2.66,0,5.33,0,8q0,170.37,0,340.72c0,4.32-.18,8.65-.28,13Z"/><path class="cls-4" d="M1326,2481.49q-.09-86.46-.18-172.92,0-67.47.07-134.94c0-3.49-1.66-8.4,2.08-10.09,4-1.79,6.09,3.07,8.55,5.47,10.73,10.46,21,21.45,32,31.63,6.93,6.43,9.54,13.61,9.5,23-.26,66.63-.14,133.27-.12,199.91,0,19.32.08,38.65.13,58Z"/><path class="cls-4" d="M1424,2481.49l.09-205.78c0-3.33,0-6.66.16-10,.06-1.65.09-3.52,1.82-4.35s3.15.44,4.35,1.56c2,1.8,3.84,3.69,5.73,5.57,10.6,10.59,21,21.37,31.86,31.72a25,25,0,0,1,8.2,19.44c-.22,53.94-.18,107.88-.21,161.82Z"/><path class="cls-3" d="M2622,0c4.55,4.81,10.84,4.7,16.65,5.75,18.52,3.31,19.33,4.16,19.34,23.28q0,65.41,0,130.85c0,14.92-.35,15.11-14.35,9.16a186.91,186.91,0,0,0-26.58-8.63c-11.53-3-12.95-4.49-13-16.42-.12-39.62-.06-79.24-.07-118.86,0-4-.06-8-.06-12,0-4.77-.92-9.27-3.94-13.14Z"/><path class="cls-3" d="M2558,0c-2.1,6.11-2,12.45-2,18.78q0,59.44,0,118.87c0,3.67-.09,7.33-.18,11-.16,6.13-3.14,9.88-9.2,11.34a194,194,0,0,0-34,11.55c-6,2.71-7.77,1.46-8.44-5a67.83,67.83,0,0,1-.16-7q0-66.42,0-132.85c0-16.79,1-17.71,17.36-20.69C2527.77,4.9,2534.8,5.26,2540,0Z"/><path class="cls-4" d="M1524,2481.49c-1.54-4.82-1.63-9.81-1.63-14.8q0-47.34,0-94.69c0-1.66,0-3.33.11-5,.19-2.27-.25-5,2.15-6.27,3.15-1.65,4.89,1.21,6.65,3,13,12.86,25.86,25.82,38.79,38.74,2.9,2.91,5.16,6.23,5.23,10.44.37,21.91,1.24,43.82-.54,65.71a16.61,16.61,0,0,1-.75,2.89Z"/><path class="cls-6" d="M358,1.88c0-.62,0-1.24.11-1.86h52c.05,6.67.16,13.33.16,20q0,288.4,0,576.81c0,4.66-.15,9.35.26,14,.54,6.24,2.52,8.13,8.65,8.93a52.37,52.37,0,0,0,7,.28l598.9,0c1,0,2,0,3-.07.66,0,1.33,0,2-.06.72,2.18,0,3-2.2,2.22L20.09,622c-6.66,0-13.32-.09-20-.14v-2q93.3.08,186.61.14,100.79,0,201.58,0c6,0,12,.49,17.72-1.94-2.81-7.85-3-16-3-24.21q.07-276.35,0-552.68c0-6.33.33-12.68-.57-19-1.36-9.38-5.44-13.41-14.86-14.68-6.62-.9-13.32-.25-20-.67C363.75,6.62,359.4,7.05,358,1.88Z"/><path class="cls-7" d="M.1,2479.49H1009.24c5.66,0,11.33-.1,17-.15l3.69.07c4-5.26,9.79-4.84,15.45-4.92,27.2-.36,29.65-2.77,29.65-29.91q.06-254.9,0-509.81c0-4.67-.19-9.34.23-14,.3-3.28.36-6.92,4.94-7.46,2.47,6.42,1.76,13.14,1.76,19.77q0,267.71,0,535.42,0,6.49,0,13-536.47,0-1072.94-.12C6.17,2481.36,2.32,2483.67.1,2479.49Z"/><path class="cls-1" d="M14,2.14c.09,27.54.24,55.08.27,82.63q.08,62.73,0,125.45c0,3.91.74,8-1.4,12.29C7.21,221.74,5,215.74.1,214V2A19.85,19.85,0,0,1,14,2.14Z"/><path class="cls-8" d="M2270,2481.49v-2a13.93,13.93,0,0,1,11.56-5c2.66.07,5.31,0,8,0q285.6.06,571.22,0c8.84,0,17.48.24,25.34,4.91l5.79.09,616,0c-.44.62,1,2.09-1,2-2.67-.09-5.33,0-8,0Z"/><path class="cls-6" d="M62,274c-2-4-2-8.36-2-12.68Q60,130.7,60.1,0h54q0,155.07,0,310.14c0,4.14,2.29,9.68-4,12-2.79-8-3-16.22-3-24.57q.11-129.33,0-258.65c0-4,.07-8-.13-12-.74-15-6.4-20.19-21.37-19.65-12.46.44-17.35,5.07-18.23,17.63-.58,8.3-.25,16.64-.25,25,0,69.91.07,139.81-.18,209.72C66.92,264.59,69.82,271.38,62,274Z"/><path class="cls-1" d="M1622,2481.49v-22c8.1,2.32,18.56,12.35,24,22Z"/><path class="cls-9" d="M2113.79,2479.43c.06.69.13,1.37.19,2.06H1960a11.81,11.81,0,0,1-.08-2c3.29-3.79,7.51-5.11,12.42-5.1q64.45.18,128.92,0C2106.07,2474.44,2110.61,2475.24,2113.79,2479.43Z"/><path class="cls-6" d="M310.08,0c0,.69,0,1.38-.05,2.06a16.68,16.68,0,0,1-1.45,1.35c-8,5.79-42.08,5.07-50.09-1-.13-.79-.27-1.58-.4-2.37Z"/><path class="cls-6" d="M212.09,0c-.12.78-.25,1.56-.37,2.34-1.89,1.77-3.51,3.8-6.46,4.06-12.78,1.13-25.56.79-38.32.11a8.94,8.94,0,0,1-6.79-4.44L160.09,0Z"/><path class="cls-6" d="M14,2.14.1,2c.44-.61-1-2,1-2,4.33.08,8.67,0,13,0Z"/><path class="cls-5" d="M1027.84,622.07l2.2-2.22q0-299.88,0-599.76a66,66,0,0,1,.57-9.95c.39-2.56,2.43-3.19,4.44-1.67a66.4,66.4,0,0,1,6.62,6.06q40,39.9,79.9,79.86l511.82,511.74c2.59,2.59,5.33,5,7.75,7.79,5,5.63,11.07,8.12,18.6,7.93,9.65-.24,19.33.1,29-.05,6.12-.09,11,.75,13,7.92,1.25,4.56,5.28,6.77,10.13,6.55a9,9,0,0,0,8.72-7.06c1.63-6.16,5.78-7.4,11.29-7.38q30,.15,60,0c6.18,0,10.41,1.95,13.68,7.85,5.31,9.59,14.22,9.15,18.53-.82,2.27-5.24,5.46-7,10.63-7q31,.07,62,0c5.42,0,9.16,1.89,12,7.05,5.58,10,13.1,10.09,18.55.2,2.82-5.13,6.39-7.31,11.89-7.24,3,0,6-.08,9-.08l928.77,0c3.67,0,7.34.07,11,.1-4.09,4.39-8,8.9-12.27,13.13q-296.78,296.79-593.59,593.55c-4.24,4.24-8.72,8.26-12.17,13.22l.1-.09-2.05.25a14.74,14.74,0,0,1-11.68,4.81c-2.66-.07-5.31,0-8,0q-280.53-.08-561.08,0c-8.06,0-16.4,1.11-23.22-4.9-4.2-.12-8.36,0-12.24,2q-11.46-11.14-22.93-22.29c-1.18-1.15-2.53-2.56-4.31-2.06-2.39.67-2.22,3-2.48,5-.08.66,0,1.33-.1,2-1.07,14.47-1.7,15.1-15.83,15.24-5,0-10,.06-15,0-13.52-.18-15.13-1.67-15.24-14.86-.12-13.66-.63-27.35.13-41,.68-12.29-3-21.68-12.37-29.91-10.72-9.46-20.39-20.12-30.54-30.23a58.58,58.58,0,0,0-5.89-5.38c-2-1.54-4-1-4.45,1.61a54.43,54.43,0,0,0-.56,8.94q-.06,45,0,90c0,3,.06,6-.09,9-.48,9.42-2.48,11.45-12.22,11.76-7,.22-14,.2-21,0-10.5-.27-12.29-2.07-12.7-12.24-.14-3.33-.07-6.66-.07-10,0-45.32-.24-90.64.16-135.95.09-10.5-3-18.46-10.73-25.54-10.57-9.65-20.37-20.15-30.51-30.27a67.57,67.57,0,0,0-5.08-4.8c-2.81-2.27-5.1-1.93-5.54,2a100.19,100.19,0,0,0-.38,11q0,93.46,0,186.93c0,18.56-.42,18.94-19.12,19-5.67,0-11.35.17-17-.22-7.23-.49-9.22-2.64-9.78-10-.3-4-.17-8-.18-12,0-77.3-.18-154.61.18-231.91.06-11.84-2.75-21.1-11.9-29.09-10.27-9-19.46-19.17-29.13-28.82a53.63,53.63,0,0,0-5.09-4.8c-3.45-2.63-5.33-1.82-5.83,2.7a100.45,100.45,0,0,0-.28,11q0,140.45,0,280.9a122,122,0,0,1-.35,13c-.66,6.16-2.69,8.53-8.79,8.83-9.64.47-19.33.48-29,0-6.5-.28-8.62-2.78-9.24-9.49-.4-4.3-.28-8.66-.28-13q0-163.93,0-327.88c0-4.33-.09-8.66-.17-13a17.55,17.55,0,0,0-5.35-12.54q-19.43-19.46-38.87-38.89c-1.55-1.54-3.14-4.06-5.84-2.55-1.94,1.07-1.7,3.46-1.75,5.42-.11,3.67-.11,7.33-.11,11q0,190.43,0,380.86c0,20.38,0,20.39-20.72,20.4-4.67,0-9.34.13-14-.11-9-.46-10.82-2.43-11.25-11.64-.19-4-.1-8-.1-12V799c0-4-.3-8,0-12,.88-10.07-2.65-17.85-10.16-24.73-10.55-9.67-20.37-20.15-30.5-30.28-1.18-1.17-2.31-2.42-3.58-3.49-1.7-1.43-3.2-4-5.85-2.68-2.42,1.25-1.86,4.06-1.94,6.32-.14,3.66-.09,7.33-.09,11q0,238.43,0,476.83c0,4.33-.06,8.67-.29,13-.28,5.08-3.07,8.18-8.18,8.3q-14.48.33-29,0c-5-.11-8-3.08-8.3-8.2-.26-4.65-.31-9.32-.31-14q0-261.9,0-523.81c0-23.59.61-20-14.9-35.66-8.9-9-17.89-17.93-26.87-26.86a37.37,37.37,0,0,0-5.22-4.62c-2.19-1.48-3.82-.48-4.32,2a25.71,25.71,0,0,0-.38,5c-.06,4.33,0,8.66,0,13q0,596.3,0,1192.58c0,7-.16,14-.25,21-2.07-5.79-1.69-11.83-1.69-17.81q0-96.9,0-193.81,0-503.5,0-1007C1028.21,636.05,1028,629.06,1027.84,622.07Z"/><path class="cls-4" d="M2886.07,2479.35c-4.66.05-9.32.13-14,.13H2270q-.11-68-.25-135.94c0-6,.46-12-1.92-17.76-2.34-4.9-2.86-10.08-2.86-15.47q.06-61.8,0-123.62c0-5.32.52-10.45,2.93-15.26,2.36-6.07,1.84-12.44,1.84-18.73q0-135.58,0-271.17c0-6,.24-12,.36-17.93,3.68,3.37,7.49,6.61,11,10.14q297.41,297.28,594.73,594.63C2879.4,2471.91,2882.68,2475.69,2886.07,2479.35Z"/><path class="cls-1" d="M1664,1241.84c5.34-.06,10.67-.16,16-.16h571c5.66,0,11.33.18,17,.28q0,290.82,0,581.65a130.06,130.06,0,0,1-.35,14c-.59,5.5-3,6.47-7.15,3.23a64,64,0,0,1-5.8-5.5l-581-580.88C1669.91,1250.66,1665.93,1247,1664,1241.84Z"/><path class="cls-5" d="M2269.92,1241.8c13.33,0,26.65-.25,40,0,9.52.17,11.45,2.37,11.89,12,.15,3.32.08,6.66.08,10v524.55a59.82,59.82,0,0,0,0,6c1,10.06-2.66,17.83-10.15,24.7-10.56,9.66-20.37,20.13-30.5,30.26-1.17,1.18-2.29,2.42-3.56,3.49-1.7,1.43-3.18,4.1-5.83,2.72-2.39-1.25-1.82-4.07-1.91-6.33-.14-3.66-.08-7.33-.08-11q0-290.25,0-580.5c0-5.33.11-10.66.17-16Z"/><path class="cls-5" d="M2368,1502.71q0-121,0-241.94c0-18.64.47-19.08,19-19.11,7.33,0,14.67-.17,22,.16,8.33.38,10.31,2.56,10.85,11,.19,3,.11,6,.11,9q0,215.45,0,430.89c0,3.66-.09,7.33-.17,11a16.54,16.54,0,0,1-4.87,11.7q-19.74,19.86-39.55,39.64c-1.37,1.37-2.86,3.38-5,2.64-2.8-1-2.15-3.86-2.27-6.08-.19-3.32-.11-6.66-.11-10Q2368,1622.18,2368,1502.71Z"/><path class="cls-5" d="M2466.15,1452.75q0-96,0-191.9c0-18.74.45-19.17,18.93-19.19,7.66,0,15.34-.19,23,.23,7.19.39,9.23,2.68,9.88,9.92.27,3,.19,6,.19,9,0,111.61-.13,223.22.21,334.83,0,11.94-3.12,21-12.12,29-10.45,9.27-19.88,19.68-29.85,29.5-2,2-4,5.52-7.28,4.33-3.9-1.42-2.64-5.64-2.86-8.81s-.08-6.66-.08-10Q2466.13,1546.21,2466.15,1452.75Z"/><path class="cls-5" d="M2565.87,1402.41V1261.63c0-1.67,0-3.33,0-5,.22-13.27,1.72-14.8,15.14-15,8-.09,16-.14,24,0,10.7.26,12.48,2.19,12.83,13.16.07,2,0,4,0,6,0,78.22-.2,156.44.22,234.65.07,12.3-3.31,21.57-12.52,29.78-11.16,10-21.3,21-32,31.58-1.56,1.54-3.12,4-5.82,2.67-2-1-1.73-3.42-1.8-5.38-.12-3-.11-6-.11-9Q2565.86,1473.8,2565.87,1402.41Z"/><path class="cls-3" d="M3358.32,1550.56q0-93.37,0-186.76c0-17,1-17.9,18.22-17.45a56.62,56.62,0,0,1,6,.39c3.77.5,6.08,2.69,6.46,6.48.33,3.31.41,6.64.41,10q0,187.75,0,375.5c0,17-.8,17.69-17.22,17.46-12.47-.17-13.79-1.29-13.81-13.85q-.11-95.86,0-191.74Z"/><path class="cls-3" d="M3186.16,1549.66q0-93.4,0-186.82c0-15.72,1.23-16.84,17.14-16.49,11.34.26,12.73,1.58,13,12.63.08,3.67,0,7.33,0,11v361.65c0,3.33,0,6.66,0,10-.19,13.39-1.38,14.52-15.16,14.53-2,0-4,0-6-.15-6.45-.64-8.18-2.21-8.78-8.53-.34-3.64-.21-7.32-.21-11Q3186.16,1643.08,3186.16,1549.66Z"/><path class="cls-3" d="M3159.62,1551.75q0,93.9,0,187.81c0,15.9-1.16,17-17.07,16.57-11.29-.27-12.73-1.63-13.07-12.62-.11-3.33-.06-6.66-.06-10V1367.89c0-2.66,0-5.33,0-8,.21-12,1.49-13.31,13.11-13.53a68.66,68.66,0,0,1,8,.16c6.93.67,8.47,2.27,8.95,9.42.24,3.65.14,7.32.14,11Z"/><path class="cls-3" d="M3446.17,1550.72q0,93.91,0,187.82c0,17.23-1,18.15-18,17.58-10.23-.34-11.63-1.66-12-11.57-.12-3-.07-6-.07-9V1366.91c0-2.33,0-4.66,0-7,.21-12.27,1.42-13.44,14.08-13.56a62.68,62.68,0,0,1,7,.15c6.91.7,8.47,2.31,8.92,9.4.21,3.32.12,6.66.12,10Q3446.18,1458.32,3446.17,1550.72Z"/><path class="cls-3" d="M3331.69,1551.78q0,93.92,0,187.82c0,15.89-1.12,16.91-17.09,16.53-11.31-.27-12.66-1.56-13-12.65-.09-3.32-.05-6.65-.05-10V1367.86c0-2.66,0-5.33,0-8,.19-12,1.4-13.3,13.08-13.5a66.35,66.35,0,0,1,8,.17c6.91.69,8.44,2.3,8.9,9.44.24,3.65.13,7.33.13,11Q3331.71,1459.37,3331.69,1551.78Z"/><path class="cls-3" d="M3243.87,1550.7q0-93.93,0-187.86c0-15.74,1.18-16.8,17.16-16.49,11.68.23,12.93,1.43,13,13.56.09,17.32,0,34.64,0,52v318.76c0,3.66,0,7.33,0,11-.16,13.26-1.27,14.39-14.1,14.52-14.86.15-16-.91-16.06-15.58Q3243.83,1645.63,3243.87,1550.7Z"/><path class="cls-3" d="M3101.9,1550.68q0,94.92,0,189.86c0,14.69-1.2,15.75-16,15.6-12.87-.13-14.09-1.23-14.1-14.49q-.09-108.42,0-216.84,0-81.43,0-162.88c0-14.63,1.23-15.76,16-15.57,2,0,4,.09,6,.23,5.1.36,8,2.92,8,8.23,0,3.67.16,7.33.16,11Q3101.91,1458.24,3101.9,1550.68Z"/><path class="cls-5" d="M2665.86,1462.05c-2.51-3.91-1.78-7.68-1.79-11.26q-.08-96,0-191.94c0-2.34-.05-4.68.16-7,.66-7.36,2.57-9.69,9.78-9.95,10.65-.37,21.34-.37,32,0,7.24.26,9.22,2.61,9.9,9.87.22,2.31.17,4.66.17,7,0,47-.21,94,.18,141,.08,10.48-2.9,18.47-10.66,25.57-10.81,9.89-20.81,20.66-31.25,31C2672,1458.5,2670.19,1461.58,2665.86,1462.05Z"/><path class="cls-5" d="M2763.81,1304.11c0-16.28-.14-32.56,0-48.84.13-11.41,2.12-13.35,13.49-13.55,9.3-.16,18.62-.23,27.91.13,7.81.3,10.17,2.49,10.29,10.37.29,18.6.09,37.2,0,55.8a16.11,16.11,0,0,1-4.8,11.69q-19.7,19.77-39.43,39.5c-1.38,1.38-2.87,3.32-5,2.68-2.85-.87-2.4-3.76-2.41-6-.09-17.28,0-34.55,0-51.82Z"/><path class="cls-7" d="M2862.09,1255.49c-.17-12.11,7.74-17.43,19.77-13.34,3.36,1.14,2.86,3.36,1,5.29-4.76,5-9.55,10-14.65,14.72-3.64,3.32-5.52,2.35-6.14-2.72A32.52,32.52,0,0,1,2862.09,1255.49Z"/><path class="cls-3" d="M2759.94,312.07v232.8c0,3.66-.14,7.33-.08,11,.1,6.58-2.87,11.18-8.22,15-11.75,8.35-24.61,14.64-37.47,20.93-5.37,2.62-7.22,1.44-8-4.43a64.3,64.3,0,0,1-.25-8c0-53.62.13-107.24-.14-160.86-.05-9.77,2.73-18,7.62-26.32,27.36-46.23,29.85-94.24,9.33-143.64a140.49,140.49,0,0,0-12.36-23.94,26.65,26.65,0,0,1-4.39-15.12q0-84.42,0-168.85a26.58,26.58,0,0,1,.35-5c1-5.38,3.32-6.91,8.47-4.87a111.52,111.52,0,0,1,13.34,6.79c8.11,4.59,16.23,9.16,23.91,14.49,5.08,3.53,7.79,8,7.76,14.21,0,4,.1,8,.1,12Z"/><path class="cls-3" d="M2402,310.85q0-116.42,0-232.82c0-4,.1-8,.12-12,0-5.75,2.44-10.07,7.13-13.52,10.79-7.93,22.51-14.25,34.42-20.2,7.36-3.67,9.55-2.19,10.2,5.91.21,2.65.13,5.32.13,8,0,52.62-.2,105.25.16,157.87.08,11.47-2.86,21.43-8.4,31.27-18.33,32.59-24,67.53-17.36,104.24,3.36,18.41,9,36.17,19.57,52a36.43,36.43,0,0,1,6,20.77q-.1,83.94,0,167.87c0,.33,0,.66,0,1-.41,11.13-2.3,12.22-12.64,7.31a221.93,221.93,0,0,1-31.19-17.84c-5.44-3.76-8.17-8.52-8.07-15.07.06-4-.07-8-.07-12Q2401.94,427.26,2402,310.85Z"/><path class="cls-3" d="M2809.86,102.94c6.5,3.82,9.76,9.41,13.63,14.18,13.25,16.35,24.22,34.24,34.3,52.69,3.66,6.7,4.16,13.91,4.15,21.32q0,63.45,0,126.92c0,37.31-.2,74.63.1,111.94.09,12.5-3.46,23.45-10,33.92-10.25,16.4-20.73,32.61-33.21,47.43-2.53,3-5.14,5.94-7.52,8.68-3.78-1.43-3.1-4.08-3.25-6.24-.21-3-.12-6-.12-9q0-192.89,0-385.78C2808,114.1,2807.18,109.05,2809.86,102.94Z"/><path class="cls-3" d="M2352,298.22c0,76.38,0,140,0,203.61a81.67,81.67,0,0,1-.43,11c-.5,3.74-2.74,4.48-5.48,1.72a112,112,0,0,1-8.34-9.93c-12.33-15.76-23.78-32.09-32.71-50.09a48.74,48.74,0,0,1-5.06-22.15q.12-122.4,0-244.8a41,41,0,0,1,5.7-20.85c11.18-19.75,23.25-38.84,38.2-56,.66-.75,1.22-1.6,1.91-2.31,1.57-1.59,2.9-4.26,5.69-2.64,1.94,1.13,1.57,3.47,1.5,5.46C2350.64,177.79,2352.84,244.4,2352,298.22Z"/><path class="cls-3" d="M2657.93,530.17c0,22.65.09,45.3,0,67.94-.07,13.42-1.92,15.58-14.88,17.88-8.51,1.52-16.92,3.8-25.66,3.78-10.57,0-13.17-2.22-13.28-12.76-.23-21.64-.11-43.29-.12-64.94,0-21.31-.08-42.63.07-63.94.07-11.57,1.27-13.08,12.36-15.77a198.31,198.31,0,0,0,29.41-9.55c10.31-4.29,11.92-3.15,12.1,8.43.16,10.32.05,20.65.06,31v38Z"/><path class="cls-3" d="M2504,529.27q0-31.49,0-63a89.72,89.72,0,0,1,.2-9c.7-6.92,2.62-8.31,9.13-5.62a255.67,255.67,0,0,0,33.15,11.05c7.42,1.95,8.86,4.25,9.37,12.15.22,3.32.14,6.66.14,10q0,57,0,114c0,3,.07,6-.09,9-.51,9.52-2.84,12-12.14,11.83-10.72-.18-21.1-2.85-31.5-5.18-4.69-1.05-7.38-4.42-7.83-9.25-.31-3.31-.41-6.65-.42-10Q2503.93,562.27,2504,529.27Z"/><path class="cls-10" d="M3260,312c-1.14-16.29-.58-32.6-.4-48.9.09-8.62,2.16-10.6,10.78-10.8q18.46-.41,36.94,0c8.58.19,10.42,2.12,10.59,10.91q.36,18.46,0,37c-.17,9.59-2,11.33-12.12,11.48-15.31.22-30.62.17-45.93.24Z"/><path class="cls-10" d="M3201.89,312.08c18.68-.59,37.35-.78,56,.12,2.21,17.47.43,35,1,52.53.12,3.74-2.13,4.25-5.15,4.24q-23.9-.08-47.79,0c-3.11,0-5.17-.67-5-4.34C3201.48,347.12,3199.74,329.56,3201.89,312.08Z"/><path class="cls-10" d="M3201.89,312.08c0,13.91-.08,27.83.1,41.73.15,11.91,2.13,13.87,14,14.07,9.93.16,19.87.21,29.8-.07,9.47-.27,11.82-2.51,12-11.9.29-14.56.12-29.14.15-43.71l2.07-.2-.12-.12q-.17,21-.35,42c0,3-.11,6-.37,9-.36,4.22-2.63,7-7,7q-22.47.17-44.95-.05c-3.77,0-6.7-2.23-6.74-6.06C3200.29,346.49,3197.9,329.19,3201.89,312.08Z"/><path class="cls-4" d="M1080.21,1913.31c-.06,6.65-.18,13.31-.18,20q0,261.08,0,522.16c0,4.32.12,8.66-.16,13-.53,8.32-2.63,10.68-11,10.9-13,.32-26,.09-38.94.1q0-297.51.08-595c0-7,.14-14,.21-21C1047.54,1879.38,1064.11,1896.11,1080.21,1913.31Z"/><path class="cls-11" d="M642.45,1191a15,15,0,0,1,.73-30.07,15,15,0,0,1-.73,30.07Z"/><path class="cls-11" d="M486.75,1552.9a15,15,0,0,1,.79,30,15.09,15.09,0,0,1-15.24-15.16A14.87,14.87,0,0,1,486.75,1552.9Z"/><path class="cls-11" d="M502,1176a14.83,14.83,0,1,1-14.24-15A14.94,14.94,0,0,1,502,1176Z"/><path class="cls-11" d="M331.34,1553a14.42,14.42,0,0,1,14.84,14.23c.31,8.65-6.19,15.72-14.47,15.73a15,15,0,0,1-.37-30Z"/><path class="cls-3" d="M346.37,1171.65a62.89,62.89,0,0,1-.81,7.91,14.28,14.28,0,0,1-15.36,11.29,14.89,14.89,0,0,1-13.59-14.63c-.09-7.4,4.89-13.23,12.52-14.25a73.76,73.76,0,0,1,8.93-.16A21.61,21.61,0,0,1,346.37,1171.65Z"/><path class="cls-3" d="M487.43,1422.26A14.86,14.86,0,0,1,502,1437.92c-.38,8.25-6.63,14-15.06,13.9a14.38,14.38,0,0,1-14.59-14.43A15,15,0,0,1,487.43,1422.26Z"/><path class="cls-3" d="M331.84,899.88a14.15,14.15,0,0,1,14.32,14.59,14.62,14.62,0,0,1-15,15.06,15.06,15.06,0,0,1-14.54-14.72A14.8,14.8,0,0,1,331.84,899.88Z"/><path class="cls-3" d="M657.68,1045.76c-.27,8.37-7.32,14.6-15.95,14.09-8.28-.49-14-6.82-13.65-15.21a14.73,14.73,0,0,1,14.81-14.32A15,15,0,0,1,657.68,1045.76Z"/><path class="cls-3" d="M328.23,1322c-2.2-1.47-4.64-2.7-6.56-4.47a14.62,14.62,0,0,1,11.3-25.41c6.91.61,11.08,4.48,12.65,11.92.41,1.94.5,4,.74,5.93C343.41,1318.63,336.86,1321.88,328.23,1322Z"/><path class="cls-11" d="M642.4,1291.8a14.83,14.83,0,1,1-14.34,14.65A14.3,14.3,0,0,1,642.4,1291.8Z"/><path class="cls-3" d="M487.13,1030.31A14.87,14.87,0,0,1,502,1045.66c-.2,8.26-6.37,14.22-14.72,14.22a14.59,14.59,0,0,1-14.92-14.14A15,15,0,0,1,487.13,1030.31Z"/><path class="cls-3" d="M657.69,1437.62a14.72,14.72,0,0,1-15.88,14.17c-8.3-.45-14-6.74-13.73-15.13a14.82,14.82,0,0,1,14.73-14.41A15,15,0,0,1,657.69,1437.62Z"/><path class="cls-3" d="M331.75,1030.33A14.7,14.7,0,0,1,346.14,1046c-.36,8.32-6.54,14.07-14.94,13.9a14.78,14.78,0,1,1,.55-29.56Z"/><path class="cls-3" d="M502,1306.37a14.78,14.78,0,0,1-14.05,15.07,15,15,0,0,1-15.6-14.61,14.83,14.83,0,0,1,29.65-.46Z"/><path class="cls-3" d="M346.16,1436.74c.23,8.4-5.48,14.64-13.78,15a14.66,14.66,0,0,1-15.75-14.28,14.93,14.93,0,0,1,14.93-15.24A14.67,14.67,0,0,1,346.16,1436.74Z"/><path class="cls-3" d="M502,914.69a14.83,14.83,0,1,1-15.3-14.8A14.83,14.83,0,0,1,502,914.69Z"/><path class="cls-1" d="M2267.89,2171.44c1.91,4.75,2,9.74,2,14.75q0,62.43,0,124.86c0,5-.12,10-2.07,14.74l-153.9-.2q.11-67.86.21-135.73c0-18.47,0-18.51,18-18.51Q2200,2171.37,2267.89,2171.44Z"/><path class="cls-1" d="M1960.07,2325.59H1803.92q.11-68,.19-135.94c0-18.27,0-18.29,18.27-18.3q59.47,0,119,0c3,0,6-.09,9,.13,7,.51,8.55,2.09,9.12,9.2.27,3.31.16,6.66.17,10q0,60,0,119.95C1959.66,2315.61,1959.92,2320.6,1960.07,2325.59Z"/><path class="cls-1" d="M2113.79,2479.43l-153.88.09c-.12-26.18-.34-52.35-.34-78.53,0-25.18.22-50.37.35-75.55,20.22.14,40.43.4,60.65.38,31.16,0,62.32-.24,93.48-.37Q2113.92,2402.45,2113.79,2479.43Z"/><path class="cls-12" d="M1626,1502.28c-2.7-.11-4.08-1.31-4.12-3.59a3.24,3.24,0,0,1,2.84-3.42,3.32,3.32,0,0,1,4.18,3C1629.27,1500.61,1627.63,1501.68,1626,1502.28Z"/><path class="cls-12" d="M1524.06,1720.5a3.81,3.81,0,0,1-7.61-.13,3.47,3.47,0,0,1,3.82-3.67C1522.62,1716.7,1523.81,1718.21,1524.06,1720.5Z"/><path class="cls-12" d="M1788,1721c-.5,2.32-2,3.49-4.28,3.18a3.74,3.74,0,1,1,1-7.41C1787,1717,1788.05,1718.64,1788,1721Z"/><path class="cls-12" d="M1516.31,1764.18c.49-2.26,1.91-3.56,4.22-3.24a3.76,3.76,0,0,1-.94,7.46C1517.28,1768.11,1516.2,1766.55,1516.31,1764.18Z"/><path class="cls-12" d="M1624.58,1761.24c2.55.08,4.15,1.06,4.24,3.36a3.47,3.47,0,0,1-6.88.77C1621.51,1763.06,1622.79,1761.81,1624.58,1761.24Z"/><path class="cls-12" d="M1783.73,1760.88c2.32,0,3.86,1.11,4,3.46a3.74,3.74,0,1,1-7.44.67C1780.11,1762.68,1781.46,1761.34,1783.73,1760.88Z"/><path class="cls-12" d="M1418.27,1808.48c0,2.22-1.06,3.82-3.35,3.89a3.35,3.35,0,0,1-3.67-3.56,3.27,3.27,0,0,1,2.9-3.34C1416.47,1805,1417.79,1806.23,1418.27,1808.48Z"/><path class="cls-12" d="M1466.89,1812.4c-2.29-.49-3.41-1.91-3.1-4.16a3.11,3.11,0,0,1,3.3-2.89c2.22.06,3.7,1.39,3.63,3.63S1469.11,1812.34,1466.89,1812.4Z"/><path class="cls-12" d="M1678.44,1805.36c2.28,0,3.79,1.06,3.81,3.37a3.38,3.38,0,0,1-3.61,3.65,3.27,3.27,0,0,1-3.32-2.93C1674.93,1807.15,1676.22,1805.84,1678.44,1805.36Z"/><path class="cls-12" d="M1734.79,1808.73c-.22,2.21-1.41,3.69-3.64,3.64s-3.48-1.59-3.4-3.82a3.1,3.1,0,0,1,3.07-3.13C1733.06,1805.25,1734.41,1806.47,1734.79,1808.73Z"/><path class="cls-12" d="M1414.39,1451c2.27,0,3.71,1.14,3.88,3.42a3.13,3.13,0,0,1-2.61,3.51,3.35,3.35,0,0,1-4.3-2.8C1410.88,1452.8,1412.24,1451.51,1414.39,1451Z"/><path class="cls-13" d="M1520.17,1450.69c2.34.17,3.78,1.42,3.84,3.73s-1.44,3.71-3.72,3.74a3.48,3.48,0,0,1-3.84-3.65C1516.41,1452.15,1517.88,1450.94,1520.17,1450.69Z"/><path class="cls-12" d="M1682.24,1454.18c0,2.28-1,3.81-3.33,3.84a3.41,3.41,0,0,1-3.67-3.61,3.27,3.27,0,0,1,2.9-3.35C1680.47,1450.65,1681.72,1452,1682.24,1454.18Z"/><path class="cls-13" d="M1788,1455c-.5,2.33-2,3.47-4.29,3.17a3.73,3.73,0,1,1,1-7.4C1787,1451.05,1788.06,1452.67,1788,1455Z"/><path class="cls-12" d="M1576.45,1853.63c-.62,2.13-1.92,3.49-4.21,2.88-2-.55-3.31-2.07-2.71-4.34a3.27,3.27,0,0,1,3.64-2.47C1575.49,1849.88,1576.48,1851.37,1576.45,1853.63Z"/><path class="cls-12" d="M1523.85,1499c-.35,2.34-1.73,3.66-4.06,3.46a3.75,3.75,0,0,1,.56-7.48C1522.67,1495.13,1523.82,1496.66,1523.85,1499Z"/><path class="cls-12" d="M1784,1502.52c-2.29-.25-3.76-1.46-3.73-3.81a3.75,3.75,0,0,1,7.5,0C1787.77,1501.05,1786.33,1502.3,1784,1502.52Z"/><path class="cls-12" d="M1418.26,1542.74c-.18,2.26-1.36,3.76-3.61,3.7s-3.47-1.6-3.37-3.83a3.2,3.2,0,0,1,3.11-3.13C1416.68,1539.26,1418,1540.44,1418.26,1542.74Z"/><path class="cls-12" d="M1470.81,1542.78c-.22,2.21-1.41,3.7-3.64,3.65s-3.47-1.61-3.4-3.83a3.08,3.08,0,0,1,3.06-3.13C1469.07,1539.31,1470.42,1540.52,1470.81,1542.78Z"/><path class="cls-12" d="M1682.32,1542.76c-.24,2.23-1.43,3.73-3.68,3.67s-3.49-1.59-3.36-3.83a3.22,3.22,0,0,1,3.14-3.11C1680.72,1539.25,1682,1540.47,1682.32,1542.76Z"/><path class="cls-12" d="M1734.87,1542.75c-.44,2.48-1.72,3.85-4,3.64s-3.35-1.84-3.11-4a3.08,3.08,0,0,1,3.27-2.89C1733.36,1539.46,1734.42,1540.93,1734.87,1542.75Z"/><path class="cls-12" d="M1576.4,1586.35c-.09,2.54-1.14,4.1-3.42,4.14a3.31,3.31,0,0,1-3.57-3.61,3.23,3.23,0,0,1,2.94-3.27C1574.65,1583.23,1575.88,1584.53,1576.4,1586.35Z"/><path class="cls-13" d="M1573.28,1627.91c2.34.35,3.66,1.74,3.46,4.06a3.76,3.76,0,0,1-7.49-.57C1569.41,1629.08,1570.94,1627.93,1573.28,1627.91Z"/><path class="cls-12" d="M1418.27,1676.83c-.48,2.3-1.86,3.41-4.16,3a3.47,3.47,0,0,1,.84-6.88C1417.23,1673,1418.23,1674.62,1418.27,1676.83Z"/><path class="cls-12" d="M1467,1672.85c2.2.11,3.76,1.2,3.78,3.45a3.35,3.35,0,0,1-3.68,3.54,3.12,3.12,0,0,1-3.26-2.92C1463.55,1674.69,1464.66,1673.27,1467,1672.85Z"/><path class="cls-12" d="M1678.47,1672.82c2.27.14,3.69,1.28,3.79,3.55a3.12,3.12,0,0,1-2.74,3.41,3.35,3.35,0,0,1-4.2-3C1675,1674.56,1676.28,1673.25,1678.47,1672.82Z"/><path class="cls-12" d="M1731.26,1680c-2.68-.41-3.81-1.8-3.47-4.08a3.22,3.22,0,0,1,3.24-3,3.35,3.35,0,0,1,3.69,3.54C1734.7,1678.67,1733,1679.67,1731.26,1680Z"/><path class="cls-14" d="M1576.44,1542.46c0,2.29-1.1,3.79-3.47,3.86a3.15,3.15,0,0,1-3.36-3,3.22,3.22,0,0,1,3.4-3.91C1574.85,1539.35,1576.05,1540.51,1576.44,1542.46Z"/><path class="cls-13" d="M1626.32,1546.49c-2.92,0-4.23-1.29-4.32-3.6a3.05,3.05,0,0,1,3-3.34,3.25,3.25,0,0,1,3.75,2.51C1629.41,1544.52,1627.75,1545.62,1626.32,1546.49Z"/><path class="cls-12" d="M1783.83,1672.57c2.33-.07,3.81,1,4,3.36a3.41,3.41,0,0,1-3.39,3.92,3.34,3.34,0,0,1-4-3.29C1780.23,1674.25,1781.64,1673,1783.83,1672.57Z"/><path class="cls-14" d="M1415.11,1724.05c-2.35-.09-3.77-1.29-3.71-3.68a3.14,3.14,0,0,1,3.16-3.23,3.26,3.26,0,0,1,3.73,3.61C1418.26,1722.66,1417,1723.69,1415.11,1724.05Z"/><path class="cls-14" d="M1467.31,1724c-2.33-.12-3.71-1.35-3.61-3.74a3.11,3.11,0,0,1,3.2-3.19,3.33,3.33,0,0,1,3.7,3.7C1470.55,1722.72,1469.21,1723.72,1467.31,1724Z"/><path class="cls-14" d="M1682.32,1498.73c-.23,2.31-1.52,3.64-3.92,3.4a3.14,3.14,0,0,1-3-3.33,3.32,3.32,0,0,1,3.9-3.49C1681.13,1495.46,1682.16,1496.75,1682.32,1498.73Z"/><path class="cls-14" d="M1573.35,1724c-2.31,0-3.76-1.15-3.82-3.52a3.13,3.13,0,0,1,3-3.36,3.25,3.25,0,0,1,3.9,3.44C1576.47,1722.44,1575.3,1723.64,1573.35,1724Z"/><path class="cls-14" d="M1470.64,1455c-.45,2.26-1.85,3.37-4.08,3a3.14,3.14,0,0,1-2.89-3.27,3.27,3.27,0,0,1,3.57-3.57C1469.49,1451.22,1470.57,1452.75,1470.64,1455Z"/><path class="cls-14" d="M1679.14,1724c-2.32,0-3.75-1.22-3.76-3.59a3.14,3.14,0,0,1,3.08-3.3,3.23,3.23,0,0,1,3.81,3.52C1682.28,1722.54,1681.05,1723.66,1679.14,1724Z"/><path class="cls-14" d="M1731.09,1724c-2.32-.25-3.64-1.54-3.38-4a3.16,3.16,0,0,1,3.38-3,3.29,3.29,0,0,1,3.45,3.92C1734.37,1722.88,1733.05,1723.88,1731.09,1724Z"/><path class="cls-14" d="M1734.66,1498.85c-.26,2-1.36,3.19-3.22,3.29a3.26,3.26,0,0,1-3.75-3.59,3.13,3.13,0,0,1,3.15-3.24C1733.22,1495.17,1734.47,1496.56,1734.66,1498.85Z"/><path class="cls-14" d="M1418.36,1764.88c-.3,1.94-1.35,3.22-3.25,3.25a3.3,3.3,0,0,1-3.69-3.68,3.14,3.14,0,0,1,3.22-3.18C1417,1761.17,1418.25,1762.57,1418.36,1764.88Z"/><path class="cls-14" d="M1470.6,1764.2c.08,2-.75,3.37-2.55,3.82-2.34.59-3.92-.59-4.32-2.9a3.11,3.11,0,0,1,2.48-3.74C1468.57,1760.79,1470,1762,1470.6,1764.2Z"/><path class="cls-13" d="M1784.37,1546.83c-2.64-.42-4.07-1.66-4-4s1.65-3.55,3.91-3.41a3.42,3.42,0,0,1,3.56,3.79C1787.76,1545.62,1786.12,1546.55,1784.37,1546.83Z"/><path class="cls-14" d="M1573.08,1768.15c-2.37-.23-3.72-1.5-3.5-3.89a3.13,3.13,0,0,1,3.33-3,3.29,3.29,0,0,1,3.5,3.86C1576.26,1766.93,1575,1768,1573.08,1768.15Z"/><path class="cls-13" d="M1625.5,1457.9c-1.88-.06-3.24-1-3.44-2.84-.25-2.29.88-4,3.26-4.07s3.66,1.5,3.5,3.84C1628.7,1456.72,1627.39,1457.71,1625.5,1457.9Z"/><path class="cls-14" d="M1682.33,1765c-.37,1.9-1.45,3.17-3.34,3.15a3.3,3.3,0,0,1-3.57-3.81,3.12,3.12,0,0,1,3.31-3.07C1681.13,1761.25,1682.3,1762.68,1682.33,1765Z"/><path class="cls-14" d="M1731.32,1761.2c1.92.31,3.23,1.34,3.27,3.24a3.3,3.3,0,0,1-3.7,3.68,3.15,3.15,0,0,1-3.19-3.22C1727.59,1762.5,1729,1761.31,1731.32,1761.2Z"/><path class="cls-14" d="M1573.05,1458.09c-2.37-.24-3.71-1.52-3.47-3.92a3.16,3.16,0,0,1,3.34-3.05,3.3,3.3,0,0,1,3.49,3.89C1576.25,1456.88,1575,1457.91,1573.05,1458.09Z"/><path class="cls-13" d="M1523.91,1542.84c-.08,2.29-1.21,3.77-3.51,3.88a3.47,3.47,0,0,1-4-3.44,3.34,3.34,0,0,1,3.46-3.84C1522.18,1539.3,1523.57,1540.53,1523.91,1542.84Z"/><path class="cls-12" d="M1467.68,1590.55c-2.37,0-3.83-1.15-3.86-3.54a3.05,3.05,0,0,1,3-3.29c2.29-.12,3.89,1.07,3.92,3.46C1470.82,1589.06,1469.47,1590.1,1467.68,1590.55Z"/><path class="cls-13" d="M1523.93,1809.1c-.25,2.33-1.55,3.66-3.85,3.55a3.48,3.48,0,0,1-3.66-3.74,3.36,3.36,0,0,1,3.81-3.52A3.55,3.55,0,0,1,1523.93,1809.1Z"/><path class="cls-14" d="M1573.09,1812.29c-2.37-.24-3.71-1.52-3.52-3.9a3.13,3.13,0,0,1,3.31-3.07,3.25,3.25,0,0,1,3.5,3.84A3.33,3.33,0,0,1,1573.09,1812.29Z"/><path class="cls-12" d="M1520.25,1672.47c2.7.56,3.88,2,3.57,4.26a3.44,3.44,0,0,1-4.19,3.1,3.33,3.33,0,0,1-3.16-4.09C1516.8,1673.43,1518.57,1672.69,1520.25,1672.47Z"/><path class="cls-14" d="M1573.28,1673c1.93.36,3.15,1.45,3.15,3.34a3.24,3.24,0,0,1-3.76,3.56,3.11,3.11,0,0,1-3.09-3.28C1569.57,1674.2,1571,1673,1573.28,1673Z"/><path class="cls-14" d="M1467.18,1502.19c-2.38-.25-3.7-1.55-3.45-3.94a3.14,3.14,0,0,1,3.37-3,3.29,3.29,0,0,1,3.46,3.91C1470.38,1501,1469.06,1502,1467.18,1502.19Z"/><path class="cls-13" d="M1787.88,1809.42c-.44,2.27-1.81,3.54-4.12,3.23a3.51,3.51,0,0,1-3.34-4c.23-2.33,1.84-3.45,4.11-3.2S1788,1807.09,1787.88,1809.42Z"/><path class="cls-13" d="M1734.84,1853c-.29,2.33-1.58,3.67-3.95,3.49a3.14,3.14,0,0,1-3.07-3.3,3.08,3.08,0,0,1,2.84-3.45C1733,1849.44,1734.47,1850.56,1734.84,1853Z"/><path class="cls-13" d="M1470.94,1852.85c-.51,2.6-1.86,3.88-4.22,3.56a3.15,3.15,0,0,1-2.87-3.46,3.11,3.11,0,0,1,3.05-3.28C1469.26,1849.52,1470.46,1851,1470.94,1852.85Z"/><path class="cls-14" d="M1415,1495.2c2,.24,3.21,1.31,3.31,3.18a3.27,3.27,0,0,1-3.58,3.77,3.13,3.13,0,0,1-3.27-3.12C1411.28,1496.64,1412.69,1495.41,1415,1495.2Z"/><path class="cls-12" d="M1731.37,1590.56c-2.33-.16-3.67-1.41-3.54-3.8a3,3,0,0,1,3.26-3.07c2.28,0,3.8,1.33,3.65,3.72C1734.61,1589.26,1733.27,1590.29,1731.37,1590.56Z"/><path class="cls-13" d="M1467.16,1628c2.72.42,4,1.79,3.87,4.07a3.41,3.41,0,0,1-3.88,3.47c-2.34-.12-3.5-1.73-3.42-4A3.55,3.55,0,0,1,1467.16,1628Z"/><path class="cls-14" d="M1576.53,1498.8c-.32,2.28-1.64,3.61-4,3.33a3.13,3.13,0,0,1-2.94-3.42,3.28,3.28,0,0,1,4-3.4C1575.38,1495.53,1576.35,1496.87,1576.53,1498.8Z"/><path class="cls-13" d="M1731.68,1628c2.26.43,3.52,1.81,3.34,4.09a3.41,3.41,0,0,1-4,3.35c-2.31-.18-3.46-1.79-3.3-4S1729.34,1628,1731.68,1628Z"/><path class="cls-13" d="M1628.9,1720.73c-.38,1.94-1.47,3.15-3.38,3.13-2.37,0-3.69-1.43-3.46-3.81a3.15,3.15,0,0,1,3.28-3.11C1627.71,1717,1628.87,1718.45,1628.9,1720.73Z"/><path class="cls-14" d="M1730.56,1451c2.63.24,4.09,1.43,4,3.65a3.28,3.28,0,0,1-3.77,3.37,3.15,3.15,0,0,1-3.12-3.06C1727.49,1452.69,1728.92,1451.58,1730.56,1451Z"/><path class="cls-12" d="M1414.69,1590.61c-2.14-.19-3.55-1.38-3.5-3.71a3,3,0,0,1,3.19-3.06,3.14,3.14,0,0,1,3.57,3.6C1417.88,1589.29,1416.72,1590.38,1414.69,1590.61Z"/><path class="cls-12" d="M1626,1812.46c-1.94.1-3.27-.75-3.69-2.54-.55-2.32.54-3.87,2.86-4.22a3.09,3.09,0,0,1,3.68,2.44C1629.36,1810.5,1628,1811.79,1626,1812.46Z"/><path class="cls-14" d="M1523.84,1587.48c-.34,1.86-1.36,3.15-3.22,3.08a3.34,3.34,0,0,1-3.49-3.77,3,3,0,0,1,3.24-2.94C1522.74,1583.83,1523.86,1585.21,1523.84,1587.48Z"/><path class="cls-14" d="M1787.83,1587.56c-.39,1.88-1.48,3.11-3.31,3a3.32,3.32,0,0,1-3.38-3.86,3,3,0,0,1,3.31-2.86C1786.83,1583.9,1787.9,1585.3,1787.83,1587.56Z"/><path class="cls-12" d="M1418.33,1632.09c-.42,2.2-1.72,3.49-4,3.23a3.37,3.37,0,0,1-3.25-4,3.42,3.42,0,0,1,4-3.27C1417.37,1628.26,1418.37,1629.81,1418.33,1632.09Z"/><path class="cls-12" d="M1626,1856.51c-1.93.11-3.29-.68-3.72-2.48a3.14,3.14,0,0,1,2.83-4.22,3.09,3.09,0,0,1,3.7,2.4C1629.37,1854.56,1628,1855.85,1626,1856.51Z"/><path class="cls-12" d="M1678.89,1856.57c-2.26-.12-3.7-1.29-3.73-3.6a3,3,0,0,1,3.1-3.16,3.16,3.16,0,0,1,3.7,3.48C1682,1855.16,1680.77,1856.23,1678.89,1856.57Z"/><path class="cls-12" d="M1682.33,1631.66c-.18,2.23-1.31,3.7-3.61,3.71a3.67,3.67,0,0,1-.09-7.33C1680.93,1628,1682.1,1629.4,1682.33,1631.66Z"/><path class="cls-12" d="M1414.78,1849.71c2.28.29,3.46,1.64,3.15,4a3,3,0,0,1-3.38,2.82,3.32,3.32,0,0,1-3.3-4C1411.47,1850.69,1412.88,1849.85,1414.78,1849.71Z"/><path class="cls-15" d="M1517.09,1632.55c0-2.18,1.09-3.66,3.37-3.79a3,3,0,0,1,3.29,2.85c.28,2.3-.89,3.76-3.24,3.83A3.21,3.21,0,0,1,1517.09,1632.55Z"/><path class="cls-15" d="M1625.92,1628.75c2.08.58,3.39,1.87,2.87,4.21a3.07,3.07,0,0,1-3.62,2.46c-2.35-.29-3.37-1.86-2.89-4.14C1622.66,1629.48,1624,1628.67,1625.92,1628.75Z"/><path class="cls-14" d="M1787.82,1853.44c-.34,1.86-1.36,3.14-3.22,3.08a3.33,3.33,0,0,1-3.48-3.77,3,3,0,0,1,3.24-2.94C1786.73,1849.79,1787.84,1851.18,1787.82,1853.44Z"/><path class="cls-12" d="M1628.92,1587.43c-.48,2.16-1.8,3.44-4.14,3a3.06,3.06,0,0,1-2.64-3.52c.2-2.37,1.76-3.46,4.06-3.07C1628,1584.19,1628.9,1585.5,1628.92,1587.43Z"/><path class="cls-12" d="M1678.94,1590.6c-2.23-.06-3.71-1.21-3.78-3.51a3,3,0,0,1,3-3.22,3.13,3.13,0,0,1,3.78,3.37C1682,1589.08,1680.85,1590.23,1678.94,1590.6Z"/><path class="cls-12" d="M1520.63,1849.73c2.25.29,3.45,1.6,3.15,3.94a3,3,0,0,1-3.32,2.84,3.3,3.3,0,0,1-3.29-3.93C1517.36,1850.72,1518.73,1849.87,1520.63,1849.73Z"/><path class="cls-12" d="M1625.94,1672.81c2.08.63,3.41,1.92,2.85,4.29a3.08,3.08,0,0,1-3.66,2.45c-2.33-.32-3.38-1.9-2.87-4.2C1622.67,1673.55,1624,1672.72,1625.94,1672.81Z"/><path class="cls-15" d="M1787.82,1632c-.09,2.28-1.28,3.58-3.63,3.44a3,3,0,0,1-3.09-3.07,3.33,3.33,0,0,1,3.65-3.58C1786.65,1628.79,1787.54,1630.14,1787.82,1632Z"/><path class="cls-4" d="M778.12,369.88H660l.14.14V253.92l-.11.1,118.1,0-.12-.13V370Z"/><path class="cls-4" d="M778.11,254c0-15.6-.11-31.2,0-46.8.12-11.11,1.82-12.84,12.7-13,11.29-.18,22.58-.22,33.86.05,9.25.22,11.31,2.18,11.51,11.19q.42,18.42,0,36.84c-.19,9-2.3,11.06-11.45,11.26-15.6.32-31.2.25-46.8.34Z"/><path class="cls-4" d="M660.12,253.92c-15-.08-30-.06-45-.29-11.15-.16-12.92-1.9-13.09-12.73q-.27-17,0-34c.17-10.54,2-12.47,12.13-12.67q17-.33,34,0c9.81.19,11.86,2.14,12,11.79.17,16-.06,32-.13,48Z"/><path class="cls-4" d="M778,370c15-.06,30-.28,45-.15,11.46.1,13.19,1.93,13.35,13.6.16,11,.21,22-.07,33-.24,9.16-2.27,11.24-11.36,11.45q-18,.4-36,0c-8.41-.2-10.51-2.36-10.66-11-.27-15.65-.11-31.31-.13-47Z"/><path class="cls-4" d="M660,369.87c.07,15.32.32,30.63.15,45.95-.1,9.88-2.09,11.88-11.69,12.08q-17.48.38-35,0c-9.24-.21-11.16-2.13-11.37-11.36q-.4-17.47,0-35c.2-9.61,2.19-11.58,12.08-11.68,15.32-.17,30.64.06,46,.12Z"/><path class="cls-1" d="M358,1.88c12,.05,24,0,36,.18,12.57.16,14.11,1.81,14.34,14.72,0,2,0,4,0,6q0,287.82,0,575.65c0,6.61.86,13.38-2.29,19.65-13.91-13.86-27.69-27.85-41.78-41.52-5.14-5-7.91-10.5-7.51-17.67.21-3.65,0-7.32,0-11q0-263.08,0-526.18C356.73,15.1,356.14,8.41,358,1.88Z"/><path class="cls-1" d="M258.49,2.39,310,2.08c.11,4.33.31,8.66.31,13q0,244.77,0,489.54c0,4.52,1,9.25-1.18,13.43-3.29.84-4.66-1.43-6.22-3-12.77-12.66-25.36-25.51-38.24-38.07-4.65-4.53-6.82-9.62-6.42-16,.2-3.32,0-6.66,0-10q0-215.79,0-431.6C258.26,13.7,258.41,8,258.49,2.39Z"/><path class="cls-1" d="M160.15,2.09l51.57.27c.08,4,.24,8,.24,12q0,195.47,0,390.91a80.19,80.19,0,0,1-.44,11c-.41,3-2.53,3.87-5.08,2a48.83,48.83,0,0,1-5.16-4.71c-10.86-10.82-21.41-22-32.63-32.4-6.68-6.21-9-13.16-8.93-22.11.22-88.31.1-176.62.14-264.94C159.87,63.41,160.05,32.75,160.15,2.09Z"/><path class="cls-1" d="M62,274q-.06-128.42-.11-256.82a49.75,49.75,0,0,1,.23-6C62.89,5,64.74,2.59,70.8,2.37c11-.4,22-.23,33,0,5.13.1,7.81,3.26,8.16,8.32q.26,3.48.25,7,0,145.41,0,290.8c0,4.66,0,9.36-2.14,13.69Z"/><path class="cls-3" d="M161,1045.55a14.93,14.93,0,0,1,15-15.24A15.38,15.38,0,0,1,191,1044.76c.31,8.41-6.41,15.09-15.07,15C167.59,1059.68,161.12,1053.52,161,1045.55Z"/><path class="cls-11" d="M190.93,1176c0,7.58-6.88,14.64-14.57,14.88-8.09.25-15.42-6.94-15.38-15.06,0-7.64,7-14.75,14.55-14.91A15.53,15.53,0,0,1,190.93,1176Z"/><path class="cls-3" d="M190.89,1437.25c0,8.06-6.31,14.2-14.61,14.3-8.67.11-15.49-6.44-15.28-14.69a14.83,14.83,0,0,1,14.56-14.58C183.74,1422.14,190.93,1429.17,190.89,1437.25Z"/><path class="cls-3" d="M190.91,1306.67a15,15,0,0,1-29.9-.58c.15-7.87,6.9-14,15.26-13.94S191.05,1298.66,190.91,1306.67Z"/><path class="cls-11" d="M1720.72,800.81a9.71,9.71,0,0,1-19.38.21,9.69,9.69,0,1,1,19.38-.21Z"/><path class="cls-11" d="M1917.91,810.14a9.45,9.45,0,0,1-9.09-9.7,9.89,9.89,0,0,1,9.5-9.47,9.37,9.37,0,0,1,9,9.75A9.54,9.54,0,0,1,1917.91,810.14Z"/><path class="cls-11" d="M2031.22,713.07a9.26,9.26,0,1,1-18.51.49,8.89,8.89,0,0,1,8.5-9.13A9.05,9.05,0,0,1,2031.22,713.07Z"/><path class="cls-11" d="M1513.2,800.25a9.24,9.24,0,0,1-18.43,1.3c-.44-5.13,3.62-10.12,8.54-10.5S1512.93,795.05,1513.2,800.25Z"/><path class="cls-11" d="M1513.08,714.14a9.24,9.24,0,0,1-18.47-.44,9.24,9.24,0,1,1,18.47.44Z"/><path class="cls-11" d="M1607.5,617.16c5.17.13,9.59,4.59,9.48,9.57a9.26,9.26,0,1,1-18.47-.94A8.71,8.71,0,0,1,1607.5,617.16Z"/><path class="cls-11" d="M1503.91,530.49a9.23,9.23,0,0,1,.5,18.45,9.46,9.46,0,0,1-9.67-9.11A8.81,8.81,0,0,1,1503.91,530.49Z"/><path class="cls-11" d="M1617,800.94a9.25,9.25,0,1,1-18.43-1.42,8.65,8.65,0,0,1,9.23-8.37A9.7,9.7,0,0,1,1617,800.94Z"/><path class="cls-11" d="M1927.39,714a9,9,0,0,1-9.71,8.86,9.64,9.64,0,0,1-8.68-10.12,9.22,9.22,0,0,1,18.39,1.26Z"/><path class="cls-11" d="M1814.39,723c-5.05-.2-9.41-4.71-9.29-9.62a9.4,9.4,0,0,1,9.9-8.83,9,9,0,0,1,8.5,10A8.8,8.8,0,0,1,1814.39,723Z"/><path class="cls-11" d="M2125.1,791.12a9.78,9.78,0,0,1,9.85,9.19,9.5,9.5,0,0,1-9.33,9.6c-5.14,0-9.17-4.33-9.14-9.76A8.76,8.76,0,0,1,2125.1,791.12Z"/><path class="cls-11" d="M1607.47,704.57a9.3,9.3,0,0,1,9.45,9.45,9.57,9.57,0,0,1-9.13,8.85,9,9,0,0,1-9.26-9.53A8.77,8.77,0,0,1,1607.47,704.57Z"/><path class="cls-11" d="M1720.38,713.34a9.37,9.37,0,0,1-18.67,1.42,9.38,9.38,0,0,1,8.6-10.16A9.48,9.48,0,0,1,1720.38,713.34Z"/><path class="cls-3" d="M1503.67,635.4c-5.16-.15-8.94-3.88-8.91-8.78,0-5.17,4.57-9.72,9.51-9.55s9.23,5,8.91,10.13C1512.87,632,1508.79,635.54,1503.67,635.4Z"/><path class="cls-11" d="M2031.18,800.67c0,4.89-3.86,8.59-9,8.69-5.59.11-9.72-4-9.4-9.26.29-4.76,4.43-8.94,9-9.06C2026.7,790.91,2031.2,795.51,2031.18,800.67Z"/><path class="cls-11" d="M1823.52,800.23c0,5.41-4,9.66-9.13,9.68a9.18,9.18,0,0,1-9.15-9.57,9.88,9.88,0,0,1,9.8-9.21A8.74,8.74,0,0,1,1823.52,800.23Z"/></svg>