<svg id="Layer_1" data-name="Layer 1" xmlns="http://www.w3.org/2000/svg" viewBox="0 0 3510 2483"><defs><style>.cls-1{fill:#262626;}.cls-2{fill:#2d2d2d;}.cls-3{fill:#3d3d3d;}.cls-4{fill:#2c2c2c;}.cls-5{fill:#303030;}.cls-6{fill:#4d4d4d;}.cls-7{fill:#373737;}</style></defs><path class="cls-1" d="M3509.9,2481c-.44.61,1,2.08-1,2-2.66-.09-5.33,0-8,0H.1V1239.75c2.65-2.81,5.39-4.25,9.74-3.77,10.25,1.13,20.61.77,30.93.77q386.1,0,772.19,0c6.63,0,13.33-.75,19.85,1.07,7,11.06,4.84,23.84,5.89,35.75,9,102.63,49.52,190.45,122.59,263.15,70.52,70.17,155.88,108.91,254.49,119.11,10.25,1.06,20.55,1.88,30.84,2.63,10.87.79,12.22,2,12.35,13.24.19,17.65,0,35.29.06,52.94,0,37-.1,73.92,0,110.87.08,19.19,3.61,22.74,22.9,22.77,67.62.13,135.27-.89,202.87.4,40.67.77,81.37,2.91,122,1.3,83.26-3.29,166.52-.59,249.77-1.63,6.72-.09,13.62-.6,19.07,4.59,4,3.59,3,8.42,3.3,13,.44,8.29-1,16.55-.31,24.83a55.23,55.23,0,0,1,.18,7.39c-.58,3.56.45,7.64-3.11,10.34-5.69,3.07-5,9-5.41,13.88a104.5,104.5,0,0,1-5.42,25.76c-39.32,110.63-115.35,181.69-229.55,210.33-27.88,7-57,4.54-85.68,4.85-74.06.81-137.07-26.89-192.36-74.39-47.33-40.66-78.34-91.81-96.33-151.18-3.55-11.71-3.27-24-4.86-35.94,5.43,53.32,2,106.82,2.84,160.24.4,25.63-.08,51.28.14,76.91.15,17.34,3.87,21.08,21.39,21.13,66.63.17,133.27-.12,199.9.14,35.89.13,71.71,5.13,107.61,2.77,85.69-5.63,171.45-1.5,257.16-2.85,2.66,0,5.33,0,8-.22,10.9-1,14.34-4.67,15.77-15.56.63-4.81-2.4-11,4.18-14.1,7.09-2.36,14.43-2.1,21.76-2.1q301.83,0,603.67,0c6.33,0,12.68.32,19-.54,9.5-1.31,14.26-5.27,14.77-14.65a675.49,675.49,0,0,0,0-71.86c-.45-8.45-5.76-13.14-14.13-14.26-6.3-.84-12.64-.61-19-.61q-302.34,0-604.67,0c-7.91,0-15.85.37-23.33-3.09-2.76-4.12-2.3-8.85-2.1-13.37.69-16-2.07-32.14,1.69-48,7.34-4.08,15.39-3.47,23.33-3.47l604.73,0c6.33,0,12.68.34,19-.59,9.35-1.37,14-5.45,14.52-14.92a684,684,0,0,0,0-70.88c-.49-9.44-5.19-13.56-14.51-14.93-6.28-.93-12.64-.59-19-.59q-302.35,0-604.72.08c-8.32,0-16.27-.13-22.79-6.17-3.21-4-2.31-8.81-2.31-13.3q0-295,0-590c0-4.63-.38-9.37,2.24-13.6a9.82,9.82,0,0,1,4.1-4.17c5.27-2,10.73-2.51,16.36-2.51q291.27.07,582.55,0c4.67,0,9.33,0,13.82,1.41,7.71,0,6.6,5.7,6.85,10.56,2.31,44,11.74,86.3,31.46,125.94,26.45,53.17,64.77,95.56,115.82,126.19,6.79,4.07,13.05,9,20.27,12.38,2.59,7.33-.61,14.32-1.51,21.38-4.55,35.59,3.65,68.4,23.15,97.92,27.35,41.39,67.23,63.52,116.34,62.52,59.08-1.21,102.13-30.48,127-84.91,12-26.34,13.59-53.93,10-82.16-.51-4-1.4-7.86-1.51-11.88,5.27-5.38,11.58-9.45,18-13.23A304.09,304.09,0,0,0,3067,1387c17.33-31.11,28.08-64.67,33.6-99.86a115.64,115.64,0,0,1,2.56-12.73c1.91-6.92,4.19-7.35,11-2.5,1.09,5,.76,10,.76,14.94q0,236.12,0,472.24c0,8.3-1.17,16.49-1.58,24.74-.3,6-1,12,3.17,17.69,3.8,5.21-.23,11.61,0,17.5-1.69,9.9-1.61,19.9-1.61,29.89q0,168.36,0,336.73c0,20.5,0,20.54-20.87,20.54q-363.91,0-727.83,0c-6.66,0-13.33-.24-20,.56-8.33,1-14,5.44-14.48,13.91a630.6,630.6,0,0,0,0,72.88c.48,8.47,6,13,14.38,14,6.64.81,13.32.56,20,.56q359.91,0,719.83,0c24.86,0,22.93-1.16,23,23,.08,38,0,75.94,0,113.91a130.2,130.2,0,0,0,.37,14c1.17,11,5.44,15.38,16.33,16.57,5.64.61,11.32.39,17,.39q174.46,0,348.92,0C3498,2476,3505,2474.72,3509.9,2481Z"/><path class="cls-1" d="M3509.9,214.38V963.92c-2.53,8.05-8.49,12.67-15.47,16.94-34.93,21.38-69.62,43.14-104.67,64.31a70.07,70.07,0,0,0-9,6.23c-3.58,3-5.73,6.62-4.16,11.39s5.06,8.1,10.19,8.33c14.43.63,23.9,10.49,34.53,18.15,3.61,2.6,5.23,6.72,6.32,11a41.13,41.13,0,0,0,7.1,14.18c6.38,8.81,4.25,15.43-5.87,19.25-16.89,6.38-19.62,14.12-10.52,28.91,3.61,5.88,8.39,8.2,15.13,6.75,6.13-1.31,10.63.22,14.28,6,3.9,6.21,5.76,5.51,9-1.67,5.65-12.33,7.78-25.36,8.13-38.77.08-2.66-.27-5.37.22-8,1.2-6.47,4.08-12.29,10.35-14.87s9.36,3.27,13.41,6.48c12.09,9.55,18.64,22.16,21,37.16v85.94c-3.23,5.39-8.06,7.13-14.19,6.89-11.57-.45-23.29.87-34.5-3.45-2.5-1-5.27-.41-7.92-.42-9.65,0-19.3-.21-28.95,0-22.15.53-44.31-1.32-66.45,3.12-11.51,2.31-23.83,1.68-35.69-.26-7.22-11.22-11.35-23.82-14.64-36.45-7.9-30.27-18.62-59.64-27.7-89.52-3.4-11.2-6.65-12.2-17.76-7.05q-33.06,15.3-66.34,30.09a272.87,272.87,0,0,1-72.64,20.8c-6.06.85-12.33,1.37-17.34-3.56-1.78-14.54-.49-29.12-.79-43.65-1.34-9,9-8.55,11.89-14.35,1.21-2.41,4.36-4.07,7-5.53,25.49-14.26,47.19-33.54,69.13-52.41,11-9.48,24.24-15.16,36-23.26s12.22-9.35,2.38-19.55c-3.94-4.08-5.45-8.58-2.76-13.54,4.35-8,4.09-16.27.92-24.17-12.64-31.47-20.74-64.53-34.68-95.62-8-17.81-11.83-37.41-20.05-55.32-1-2.12-1.73-4.33-2.77-6.42-4.45-8.89-7.6-9.53-15-2.86-12.55,11.35-22.88,25.13-37.81,33.91-5.57,3.27-10.09,4.4-13.86-2.1-.95-41.55-.29-83.07-.36-124.57.53-2.73-.2-5.64,3-7.76,14.29-9.5,17.66-19,12.63-34.93-1.6-5.05-2.42-10.29-4-15.34-2.67-8.65-3.62-18.36-14.2-21.9-1.06-.5-2.07-1-3.13-1.49-1.92-.67-3.85-1.56-5.82-1.48-21.64.87-42.69-5.4-64.43-4.72-29.93.94-60-1-89.88.47-92.36,4.65-184.77,3.25-277.16,3.89-35.56.24-70.73-6.23-106.4-4.46-15.27.76-30,5.58-45.43,4.46-8-.58-15.9-.45-23.46-3.55a8.39,8.39,0,0,1-3.38-6.9c-.11-15.53-2-31.2,2.67-46.42,1-3.3.91-6.54.92-9.83,0-63.43.23-126.86-.15-190.28-.08-13.79-5.13-27.26-3.82-41.31.46-4.94-.16-10,1.05-14.81,8.39-6.36,16.15-3,23.6,1.7q36.39,22.83,72.75,45.71,103.27,64.74,206.39,129.7c9.54,6,17.44,5.5,26.69-.37,90.27-57.25,181.11-113.6,271.43-170.79,12-7.64,12-10.93-.32-18.62q-133.76-83.82-267.27-168c-12.17-7.69-21.53-8.59-34.39-.46q-136.4,86.19-273.17,171.77c-7.94,5-15.89,9.42-25.55,4.32-1.64-16.25-2.69-32.49,2-48.44,1-3.31.79-6.59.79-9.89,0-63.28.3-126.57-.2-189.85-.11-14.13-4.13-28.1-4.55-42.39-.17-5.9-4.62-9.34-10.51-10.42-4.95-.91-10-.63-15-.63-188.28.12-376.58.95-564.85-.25C1272.73,5.31,653.6,8.78,34.47,7.51c-7.66,0-15.31-.08-23,0a14.17,14.17,0,0,1-11.4-5c.44-.62-1-2.09,1-2,2.67.09,5.33,0,8,0Q1755,.51,3500.9.63c2.93,0,6.78-2.3,9,1.88-3.34,4.65-8.18,5-13.35,5-20.33,0-40.66-.2-61,0-14.73.19-17.42,3.87-15.19,18.41,7,46,22.27,89.77,35.43,134.12,7.57,25.54,15.83,50.87,23.29,76.45,1.25,4.3,1.75,10.17,7.86,10.06,5.72-.1,8.19-5.08,10.12-9.82,2.53-6.17.92-13.34,4.69-19.26C3503.77,214.37,3505.27,210.54,3509.9,214.38Z"/><path class="cls-2" d="M3509.9,2481H3126a122,122,0,0,1-13-.34c-6.1-.66-8.05-2.71-8.74-8.91a100.2,100.2,0,0,1-.31-11q0-64,0-127.91c0-19.19-.55-19.74-19.51-19.74l-734.87,0c-4.67,0-9.36.15-14-.28-6.59-.61-8.59-2.79-9.34-9.45a62.63,62.63,0,0,1-.22-7q0-39.47,0-78.94c0-2,0-4,.17-6,.72-7.3,2.67-9.45,9.82-10.05,4.64-.38,9.32-.23,14-.23l735.88,0c5,0,10,.14,15-.34,6.13-.61,8.13-2.68,8.77-8.86a124.6,124.6,0,0,0,.32-13q0-179.88.05-359.74c2.28-13.59,2.26-27.38,3.75-41,2.3-21.14,8.64-41.27,16.65-60.65q89.79-217.14,321.5-258.39c15.1-2.69,30.52-2.21,45.68-4.37,4.9-.7,9.26.64,12.36,4.84v689.57c-4,5.6-9.94,5-15.67,5q-85,.06-169.95,0a144.12,144.12,0,0,0-15,.35c-11.25,1.18-16,6.46-16,17.63s4.75,16.45,16,17.63a144.12,144.12,0,0,0,15,.35q85,0,169.95,0c5.73,0,11.7-.62,15.67,5Z"/><path class="cls-2" d="M2490,314.34l.09,307.72c-4.55,3.17-5.79.2-6.53-3.55-.89-4.62-.55-9.3-.55-14q0-279.79,0-559.59c0-6,.23-12-.33-18-1.08-11.59-5.43-16-16.84-17.14a138.88,138.88,0,0,0-14-.35q-269.94,0-539.9,0c-28.29,0-30.88,2.57-30.88,30.76q0,590.57-.07,1181.13c0,7.07,2,14.86-4.94,20.36l-2,2a33,33,0,0,1-14.83,3q-295.18.06-590.37,0c-4.66,0-9.35.12-13.69-2.09a5.83,5.83,0,0,1-3.11-2.35c-.13-.65-.25-1.3-.38-2a4.07,4.07,0,0,1,2.14-3.08c5.86-2.73,12.12-2.51,18.37-2.51H1834.1c6.33,0,12.68.3,19-.48,10-1.24,14.13-5.4,15.44-15.23a98.7,98.7,0,0,0,.46-13q0-275.81,0-551.61c0-26.36-2.94-29.29-29.24-29.3q-275.46,0-550.92,0c-26.87,0-29.7,2.91-29.78,29.89-.07,20,.21,40-.14,60-.17,10.13-1.81,12-11.6,11.94-48.64-.35-97.3,1.52-145.92-1a24.63,24.63,0,0,1-6.8-1.33c-3.41-1.78-3-5-2.43-7.81,7.88-39.37,9.87-79.18,9.12-119.21a11.29,11.29,0,0,1,.79-3.88c3.17-3.94,6.46-2.14,10.49-1,21.26,6.15,42.58,9.72,62.91-3.29a16.11,16.11,0,0,1,6.54-2.23c15.65-2.27,24.57-12.39,29.85-26.24,3.78-9.93,7.19-19.87,12.88-29s3.32-14.75-6.43-18.92c-21-9-42.84-9.56-65.37-7-20,2.32-39.5,9.78-60.12,7.15-5-1-5.21-5.29-6.15-8.94A459.19,459.19,0,0,0,1040.34,390c-2.59-4.56-4.57-9.12,1-13.08,12.81-3.31,26-2.38,38.71-1.22,21.31,1.94,42.59,1.39,63.88,1.53,27.64.17,55.29.24,82.93-.05,17.66-.18,21.77-4.37,22.06-21.93.19-11.64.44-23.31-.15-34.94-.61-11.95-4.74-15.94-16.6-16.79-13-.92-25.93,1.48-38.87,1.63-66.24.77-132.44-3.43-198.7-1.74-3.69.09-7.51-2.24-11,.76-6.07,2.92-8.39-2.72-11.22-5.6a488.38,488.38,0,0,0-68.13-58.39q-99.69-70-220.88-83.05c-61.81-6.79-122.23-.84-181.54,16.52-68.14,19.94-128.68,53.82-181.06,102-9.06,8.33-18.65,16.07-26.63,25.54-2.07,2.46-4.39,5.33-8.38,3-4.38-3-9.07-.72-13.57-.73-66.63-.16-133.26.44-199.88-.42-20.26-.26-40.54-1.86-60.86-1.64a14.29,14.29,0,0,1-11.39-5V110.44c2.2-5.17,5.62-6.65,11.35-5.29,12,2.83,24.1,5.16,36.13,7.83,43.85,9.75,88.05,6.65,132.32,4.89,24.6-1,49.25-.5,73.91.5,27.55,1.1,55.19,1.15,82.79,1.07,22.63-.07,45.32,1.2,67.53-5.18,7.48-2.15,15.18,1.07,22.84,1.12,54,.32,107.73,4.93,161.59,7.34,30.83,1.37,61.8,5.68,92.77.92,6-.92,11.92,1,17.89,1.38,28.81,1.84,57-2.86,85.3-7.37,12-1.92,21.92-9.54,33.37-13.15,4.46-1.4,8.8-2.87,13.5-3.37,17.05-1.8,32.45-9.24,48.3-14.9,8.61-3.07,17.42-4.52,26.17-5.88,20.11-3.13,39.67-8,59.21-13.67,19-5.46,38.14-5.8,55.56,6.19,3.13,2.16,6.87,2.33,10.54,2.7,6.55.65,12.36,2.44,13.74,10.13.77,4.31,4.37,4.62,7.58,5.19,13.12,2.35,26.22,4.47,39.65,4.65,25,.33,49.68,1.8,74,9.47,14.39,4.54,30,6.43,45.07-.28,5.56-2.48,11.88-1,17.81-1.85,13.89-1.95,19.23-7.54,19.86-21.6.43-9.65.39-19.32,0-29-.52-13.48-4.09-18-17.72-19.48-23.23-2.45-46.58-2-69.86-.25a405.28,405.28,0,0,1-54.88,0c-22.93-1.41-45.89-2.33-68.84-3-26.29-.8-52.58.19-78.91-1.58-29.27-2-58.48,2.79-87.74,4C829.3,33.81,788,38.79,746.61,43.36A1074,1074,0,0,1,589,49.24c-44.56-1.66-89.2-1.47-133.7-5.16-18.56-1.54-37.31-2.2-55.86-2.15-59,.14-117.89-3.73-176.87-2.47-10,.21-19.95-.81-29.92-1.21A1004.32,1004.32,0,0,0,49,42.59C35,44,21,42.43,7.14,44.82c-3.12.54-5-2.35-7-4.33v-38l2467.59,0c4,0,8-.12,12,.2,7.34.61,9.41,2.61,10.05,9.78.36,4,.23,8,.23,12q0,143.9,0,287.79Q2492,313.33,2490,314.34Z"/><path class="cls-2" d="M3322,1241.66l187.88.08v2c-3.14,4.13-7.46,5-12.38,5q-24.45,0-48.89,0-150.18,0-300.35,0c-4.33,0-8.65-.07-13,.14-13.8.65-17,3.3-20.53,16.82-.73,2.78-.53,6.32-5,6.08-2.46,5.9-3.27,12.18-4.29,18.42-11.05,67.62-41.61,125.14-90.37,173-17.39,17.06-37.18,31.2-58,43.87-5.38,3.28-11.19,6-15.46,10.85-6.46,3.66-6.35-2.09-7.43-5.44-5.53-17.27-13.16-33.46-24.23-47.91-28.06-36.64-66.08-55.58-111.36-55.22-56.32.46-103.4,32-127,85.31a151.91,151.91,0,0,0-6.64,17.78c-1.11,3.72-2.61,6.42-6.87,3.12-40.52-19.75-73.92-48.29-101.74-83.4-36-45.4-57.08-97.12-64.34-154.55a225.61,225.61,0,0,1-2.18-35.79,10.81,10.81,0,0,1-4-10.77,69.28,69.28,0,0,0-.27-21.51c-.81-9.15-2.65-18.41,4.9-26.15,1.48-1.52,1.94-4.19,2.18-6.79,4-44.95,23.94-83.73,50.16-118.95,46.52-62.51,105.9-107.9,183.64-124.19,100.71-21.1,193.56-3.64,273.76,63.49,48.71,40.78,84.53,91,102.36,152.92,4,13.94,3.43,28.37,5.34,40.19,0-5.22-1.32-12.68-1.86-20.2-.29-3.87-.78-8.36,5.72-6.59,5.31,1.83,4.81,6.44,4.92,10.58.29,10.65.1,21.31.12,32,0,28.68,2.2,30.9,30.49,30.92q79,0,158,0C3311.38,1236.77,3317.58,1236.26,3322,1241.66Z"/><path class="cls-2" d="M832.07,1241.74H28.94c-9.67,0-19.31,0-28.84-2v-20c3.8-5.52,9.57-5,15.19-5,54.61,0,109.26,1.08,163.84-.41,34.62-.94,69.13.6,103.7.6,16.13,0,31.8-2.29,47.53-5,5.77-1,11.52-3.13,14.42-8.13,5.9-10.15,15.79-14.85,25.16-20.39,3.54-2.09,7.47-4.19,7.48-8.62,0-8.33,5.85-11,11.83-14.24,10.43-5.66,21.59-10.54,25.31-23.72,1.12-3.94,6.32-4.49,9.41-6.93,1.55-1.22,3.59-2.36,2.93-4.69s-3-2.47-4.94-2.55c-8.38-.36-16.5,1.9-24.79,2.65-24.84,2.24-49.82,2.12-74.62,5.41-61.39,8.14-123.36,9.2-185,14.49-42.09,3.61-84.32,5.56-126.3,10.42-4.61.54-8.42.28-11.16-3.86V1035.87c2.21-5.63,6.78-7.14,12.28-7,22.58.61,45.22-1.33,67.78,1.41a89.7,89.7,0,0,0,21.9-.4,683.92,683.92,0,0,1,82.55-5c49.53-.14,99-3.33,148.5-4.26,12.73-.24,25-6.48,38.13-2.51,3.22,1,5.09-4.05,8.65-4.06,4,.78,7.3,3.11,10.69,5.19,66.63,40.77,138.88,63,216.91,67.85,82.44,5.15,160-12.16,234.14-47.19,12.32-5.83,24-13,35.78-19.88,3.4-2,6.66-4.57,11.05-3.75,2.36,1.78,4.24,4.09,7.63,4.33,27.55,1.89,54.57,7.82,82,11,22.69,2.61,45.09,8.27,68,10.15,44.78,3.66,89.49,6,134.43,1.8,22.86-2.13,46-.64,68.94-.44,6,0,9.15,3.29,9.28,9.15q.67,31,0,61.92c-.12,5.51-3.12,8.15-9.13,7.82-20-1.1-39.78-3.46-59.65-5.58-21.1-2.25-42.24-4.63-63.66-2.24a251.59,251.59,0,0,1-51.91.23c-28.91-2.79-57.89-1.31-86.83-3.12-41.49-2.59-83.11-3.4-124.65-5.76-62.21-3.53-124.54-3.74-186.82-2.15-27.91.71-55.76,4.08-83.6,6.73-20.54,2-41.28,1.39-61.9,0-7-.47-14-.93-20.89.45-3.78.76-9,.26-9.69,5.25s4.26,6.5,8,7.52a47.87,47.87,0,0,1,21.92,13.4c9.65,10.07,20.44,18.88,30.4,28.59a46.82,46.82,0,0,0,13.9,9.56c14.87,6.56,30.62,9,46.71,9.49,4.35.15,9.08,0,12.65-2.36,16.2-10.61,34.74-7.92,52.32-8.86,24.6-1.31,49.31-.32,74-.34a345,345,0,0,0,35.91-1.56c10.87-1.15,22-1.57,32.47,3.08,3.34,1.47,7.1,1.85,10.77,2,42.86,2.25,85.59,6.67,128.2,11.14,46.47,4.86,93,5.34,139.46,7.67,46.88,2.33,93.81,3.1,140.67,5.66,9.6.53,11.9,2.2,11.46,11.82-.42,9.11,3.93,19.31-4.71,27l-.06.06c-2.93,5-7.2,7.17-13.14,6.92-13.22-.55-26.6,1.26-39.47-3.55-2.78-1-6-.36-8.93-.36-26.63,0-53.26-.32-79.87.09-17.18.26-34.26-.84-51.55,2.69-17.84,3.65-36.47.93-54.74,1.07-52.58.39-105.16.09-157.75.15C842.58,1246.77,836.38,1247.33,832.07,1241.74Z"/><path class="cls-3" d="M3109.82,1271.78c.1-6,0-12,.38-18,.51-7.26,2.65-9.25,9.87-9.94,2.65-.25,5.33-.18,8-.18l381.84.06v215.87c-73,2-141.63,19.58-204.55,57.35-30.7,18.42-59,40.07-83.64,66.09-58.36,61.74-95.15,134.34-108,218.65-.9,5.92-1.54,11.9-3.78,17.53q0-265.23,0-530.47C3109.94,1283.1,3109.86,1277.44,3109.82,1271.78Z"/><path class="cls-1" d="M.1,40.49A187.44,187.44,0,0,1,33,38.44a31.81,31.81,0,0,0,7-.29c20.75-4.21,41.85-2.49,62.72-4.09,27-2.06,53.95-1.58,80.91-1.38,18.62.13,37.21,2.65,55.89,1.78a508.1,508.1,0,0,1,54.92.21c37.28,2.31,74.61.76,111.87,2.14,29.6,1.1,59.25,1.95,88.78,4.09,22.33,1.61,44.69.13,66.89,1.93,28.65,2.32,57.27,1.19,85.9,1.63,26.7.42,53.22-2.47,79.73-5,34.16-3.24,68.18-8.4,102.4-10.25,26.93-1.45,53.77-4.26,80.75-4.94,13.63-.34,27.24-2.76,40.89-1.7,34.27,2.67,68.62.89,102.88,2.23,29.93,1.17,59.87,4.35,89.79,3.31,23.63-.82,47.25-1.5,70.9-1.69,9.71-.07,19.29,1.09,28.87,2.21,7.39.86,9.59,2.81,9.72,10.12.31,18.31.12,36.63.06,55,0,5.64-2.78,9.19-8.22,11.15-6.36,2.28-12.75,3.79-19.53,3.58-6.07-.18-11.95.6-17.4,3.6a16.88,16.88,0,0,1-8.66,2.15c-14.28-.46-28.65-.39-42.29-5.69a80.33,80.33,0,0,0-25.29-5.61c-16-.73-31.83-2.9-47.88-2.57-15.78.33-31.07-3.54-46.28-7.28-2.82-.69-5.42-2.26-8.07-3.4.74-2.94,2.78-1.78,4.16-2.14s2.68-.67,2.88-2.24-.89-2.43-2.09-3.06c-2.75-1.44-5.78-1.44-8.77-1.69-4.31-.37-8.63-.7-12.91-1.29-2.42-.34-5.59-.11-3.16-4.62,1-1.83-2.29-2.81-4.15-3.24-12.48-2.91-25-4.18-37.5-.07-6,2-12.24,3.31-17.72,6.69a16.7,16.7,0,0,1-7.6,2.24c-16.63,1.31-32.86,5.06-49.25,7.85-3.3.56-6.47,1-8.86,3.93-2.83,3.42-7.24,3.1-11.11,3.66-6,.85-11.61,2.16-16.84,5.61-6,4-13.43,3.92-20.31,4.45-11,.86-20.76,5.14-30.21,9.76a108.2,108.2,0,0,1-42.23,10.81A217.24,217.24,0,0,0,741.79,129c-16.52,2.65-33.21,1.58-49.85.65-2.65-.15-5.36-.94-8-.61-31,3.92-61.88-.92-92.82-.73-11.66.07-23.33-1.19-34.86-2.38-18.27-1.89-36.6-1.78-54.86-2.87-21.57-1.28-43.17-3.55-64.87-2.72a145.56,145.56,0,0,1-24.95-.86c-5.07-.68-10,.41-14.79,1.77a92.14,92.14,0,0,1-26.7,3.17c-28-.45-56-.81-83.94-.38-25.37.39-50.54-2.69-75.87-1.71-37.26,1.44-74.54,2.29-111.81,3.45-7.06.22-14-1-20.84-2.2-21-3.66-42.13-6.72-62.77-12.24-4.85-1.3-9.78-2.2-14.81-.93Z"/><path class="cls-2" d="M.1,730.06V388.27c4-5.23,9.72-4.9,15.37-5,38.54-1,77,3,115.53,2.16,26.23-.57,52.49-.14,78.74-.07,3.95,0,8-.54,11.81,1,4.25,2.12,5.52,5.12,3.31,9.63s-4.21,9-6.49,13.44a455.85,455.85,0,0,0-43,126.75c-.71,3.81.17,9.11-6.29,9.09-12.69-7.22-26.6-6.25-40.41-5.92a34.9,34.9,0,0,0-21.45,7.39c13,4.16,19.55,15.6,29.8,22.62,5.21,3.56,10.22,7.22,15.88,10.15,7.32,3.79,11.43,10.57,14,18.28a560.71,560.71,0,0,0,10.47,120.66c.67,3.43,2.19,7.17-1.25,10.19-15.84,1.38-31.75,1-47.63,1.87-38,2.13-76.1,3.21-114.15,4.58C9.05,735.23,3.73,735,.1,730.06Z"/><path class="cls-2" d="M.1,959.92V806c2.36-5.4,6.68-6.82,12.31-7,34.89-1.35,69.83-3.09,104.68-3.23,25.51-.1,51.1-1.94,76.61-.09,7.06-3.61,8.37,1.82,10.32,6.47a464.68,464.68,0,0,0,57.39,99.94c11.58,15.39,24.38,29.8,37.16,44.2,4.16,4.69,5.1,8.34-1.09,11.74a20.66,20.66,0,0,1-6.93.83c-38.58-1.25-77.08,2-115.65,2.25-52.83.36-105.56,5.42-158.46,3.84C10.52,964.74,4.32,965.59.1,959.92Z"/><path class="cls-1" d="M.1,1149.8c31.37-4.23,62.93-6.13,94.48-8.27,30.88-2.09,61.69-5.09,92.56-7.26,25.89-1.82,51.85-2.6,77.72-4.65,21.23-1.67,42.36-4.62,63.56-6.81,14.89-1.55,29.76-3.53,44.81-3,11.71.39,23.28-1.44,34.75-3.42a110.41,110.41,0,0,1,27.82-1.16c3.06.25,6.29.13,7.11,4,.72,3.36-1.1,5.81-3.77,7.53a50.36,50.36,0,0,1-6.21,3.17c-3.92,1.82-8,3.4-11.07,6.34-.53,1.46.31,2,1.31,2.22,4.74,1.16,5,3.77.91,5.54-12.33,5.28-21.46,15.66-34.09,20.51-6.36,2.44-6.34,4-3.09,10.74,2.46,5.08,2.29,6.76-3.21,7.62-9.73,1.52-16.42,8.57-24.93,12.17-2.91,1.23-4.22,4.13-5.68,6.75-5,8.93-13,12.16-22.74,14.14-23.76,4.82-47.72,4.5-71.62,3.69-40.92-1.38-81.81.65-122.72.26-40.64-.38-81.27-.08-121.91-.08H.1Z"/><path class="cls-1" d="M.1,959.92c22.29,0,44.59.45,66.86-.13,24.57-.65,49.12-2.31,73.68-3.39,8.63-.38,17.29-.5,25.93-.45,43.89.23,87.72-3.33,131.63-2.13,3.12-3.4,5.72-1.76,8.37.74,22.43,21.11,46.75,39.84,71.92,57.52,2.81,2,5.55,3.91,3.5,8a11,11,0,0,1-1.91.57c-16.48,1.76-32.92,4.14-49.44,5.09-34.5,2-69.1,1.65-103.61,3.76-14.92.92-29.93.14-44.9.42-24.6.47-49.17,1.58-73.6,4.66a176.35,176.35,0,0,1-37.81.22c-20.9-1.86-41.88-1-62.82-.52-2.61,0-5.2,1-7.8,1.6Z"/><path class="cls-1" d="M222.05,390.25c-46.47,0-93,.91-139.39-.35-27.52-.75-55-1.5-82.56-1.63V296.33c91.39,2.64,182.8,1.91,274.2,2,4.67,0,9.32.18,13.74,1.92,2.25,3.66,1.31,6.58-1.52,9.69a461.58,461.58,0,0,0-55.18,75.36C229.24,388.86,227.11,392.28,222.05,390.25Z"/><path class="cls-4" d="M3509.9,1155.8c-1.59-2.54-3.69-4.89-4.67-7.64-4.1-11.54-14.07-18.36-21.59-27.09-4.09-4.75-8-3.81-11.12,1.54a17.78,17.78,0,0,0-2.32,9.58c.46,14.48-1.57,28.46-7.75,41.7-2,4.36-1.7,9.09-1.81,13.75,0,2.42-.87,4.68-3.45,5.54s-4.46-.85-5.9-2.73c-2.63-3.43-5.19-6.92-7.64-10.49-2.75-4-6.14-5.35-11.13-4.42-10.29,1.9-13.73,0-18.43-8.9-1.55-2.94-2.62-6.15-4.29-9-4.82-8.24-3.39-15.73,1.81-23.28,2.48-3.59,5.13-6,9.63-5.93a22.62,22.62,0,0,0,5.94-.48c4.8-1.3,6.76-5.19,3.68-9.09-4.91-6.2-7.41-13.25-9.86-20.51-1.43-4.24-4.6-7.35-8.41-9.58-4.88-2.85-10-5.36-14.41-8.92-2.82-2.25-6.07-1.87-9.51-1.6-9.54.75-21.11-12.24-19.83-21.81.61-4.52,3.92-6.75,7.34-8.88q20.36-12.65,40.73-25.25,40.38-24.88,80.77-49.74c4.24-2.62,8.15-5.75,12.22-8.64Z"/><path class="cls-4" d="M3509.9,214.38A24.78,24.78,0,0,0,3504,231c.35,12.19-8.27,19-15.39,26.78-2.32,2.52-4.84,1.52-6.76-1a40.83,40.83,0,0,1-6.47-13.41C3458.86,188.66,3442,134,3426,79.12c-6-20.4-9.2-41.53-12.68-62.52-1.88-11.33.24-13.88,11.73-14,28.27-.2,56.54-.11,84.82-.13Z"/><path class="cls-1" d="M196.1,798c-2.87,3.1-6.54,2.68-10.23,2.4a126.2,126.2,0,0,0-25.84.82c-4.92.63-10,1.21-14.9.64-26.87-3.15-53.69.7-80.55.51-18.19-.14-36.44,1.9-54.71,1.91-3.26,0-6.51,1.13-9.77,1.73v-76q46.76-1,93.46-3.57c21.86-1.22,43.76-1.67,65.65-2.39a38.14,38.14,0,0,1,14.71,2c5.57-.13,6,4.53,7,8.09C186,752.77,192.1,771,198.49,789.08,199.76,792.7,201.05,796.13,196.1,798Z"/><path class="cls-1" d="M3509.9,2195.15q-101.37,0-202.75,0c-18.51,0-19.2-.72-19.24-19,0-5.66-.17-11.33.25-17,.53-7.15,2.73-9.18,10-9.8,3.64-.32,7.32-.21,11-.21H3509.9Z"/><path class="cls-5" d="M2491.86,1207.34a175.26,175.26,0,0,1-1.92,34.48l-613.94,0q0-607.53,0-1215a124.72,124.72,0,0,1,.33-13c.64-6.18,2.64-8.15,8.76-8.89a80.92,80.92,0,0,1,10-.33H2469c18.27,0,19,.75,19,19.26q0,288.78,0,577.56c0,6.95-.75,14,2.08,20.72q300.53,0,601.07,0c6.29,0,12.69-.68,18.66,2.21-1.52,3.65-4.8,4.38-8.16,4.64-4.62.34-9.27.2-13.91.2H2528.79c-6.33,0-12.67-.22-19,.61q-12.6,1.66-14.25,14.25c-.83,6.29-.6,12.63-.6,19q0,235.83.1,471.67c0,19.78-2,39.34-3.66,59C2491,1198.21,2490.18,1202.81,2491.86,1207.34Z"/><path class="cls-5" d="M945.06,1915.29h234a106.19,106.19,0,0,1,12,.34c6.09.69,8,2.74,8.74,8.93a87.28,87.28,0,0,1,.3,10q0,236.84,0,473.68c0,17.87-.86,18.74-18.51,18.74q-237.48,0-474.95,0c-17.67,0-18.5-.85-18.5-18.72q0-236.85,0-473.69c0-18.56.68-19.25,19-19.26Q826.08,1915.27,945.06,1915.29Z"/><path class="cls-5" d="M832.07,1241.74q25.95,0,51.89,0c123.35.12,246.69-3.46,370.06-2,0,.66,0,1.31,0,2-4.08,5.9-10.3,5-16.17,5q-92.47.06-184.95,0c-26.92,0-29.63,2.22-25.32,28.66q17.22,105.66,108.66,162.3c26.75,16.54,56,26.23,87,30.65,22.06,3.14,25.65.33,25.69-21.62.09-41.3,0-82.6,0-123.9q0-33.46,0-66.94c0-5.34-.07-10.67,5-14.17q299.63,0,599.25,0c7,0,14-.66,20.74,2l0,615.56c.85,1.35,1.94,2.71,0,4q-298,0-595.95,0c-4.67,0-9.35.15-14-.24-7.15-.58-9.17-2.72-9.79-10-.31-3.64-.2-7.33-.2-11q0-76.45,0-152.9c0-3,0-6,0-9-.13-14.94-.81-15.83-15.49-17-31.28-2.38-62.34-6.13-92.73-14.3-59.13-15.89-112.53-43.06-159.63-82.16-39-32.4-72-70.2-97.31-114.29-31.14-54.22-50-112.36-55.09-174.87C832.83,1265.67,831.77,1253.75,832.07,1241.74Z"/><path class="cls-2" d="M353.76,1521.76c3,6.29,2.28,13,2.28,19.67q0,196.33,0,392.67c0,22.28-.1,22.43,17.5,35.27a664.2,664.2,0,0,1,93,81.6,675.75,675.75,0,0,1,48.13,57.35,614.44,614.44,0,0,1,59.07,96c24,48.42,40.22,99.3,49.91,152.35,6.41,35.12,10.42,70.47,10.38,106.21a72.48,72.48,0,0,1-.29,9c-.76,6.14-2.69,8.06-8.86,8.82a72.64,72.64,0,0,1-9,.3q-75.48,0-151,0c-17.48,0-18.66-1.36-18.9-18.7a412.83,412.83,0,0,0-35.58-162.8c-13.41-30.4-31.62-57.73-50.92-84.54C352.47,2205,344,2201,331.74,2201c-103,.35-205.94.21-308.91.18-6.31,0-12.7.52-18.76-2,3.58-5.08,8.93-5.09,14.35-5.09H98.34q110.42,0,220.81,0c27,0,29.91-2.84,29.91-29.65q0-311.55.06-623.09C349.12,1534.58,347.46,1527.17,353.76,1521.76Z"/><path class="cls-6" d="M636.06,1289.72c5.39,58,17.13,114.53,37.9,169.08,31,81.41,76.61,153.45,137.74,215.65q122.82,125,292.71,167.84a568.54,568.54,0,0,0,90.56,15.38,35.64,35.64,0,0,1,12.72,3.28H654.58c-20.3,0-20.32,0-20.32-20.57l0-550.42C634.68,1288.28,635.27,1288.21,636.06,1289.72Z"/><path class="cls-2" d="M1874,1863.37l0-4c7.43,2.6,15.14,2,22.79,2q307.38,0,614.76,0c4,0,8,0,12,0,12.15.27,14,2.07,14.33,13.86.1,4,0,8,0,12q0,34,0,67.93a97.41,97.41,0,0,1-.4,10c-.46,4.58-3.15,7.36-7.74,7.72s-9.32.42-14,.42q-307.38,0-614.75,0c-9,0-18,0-27,.06-6.5-1.08-4.65-6.42-4.88-10.26-1.12-18.44,2-36.66,3.39-55,.17-2.33.8-4.57-.54-6.73C1872.81,1888.73,1874.72,1876.12,1874,1863.37Z"/><path class="cls-2" d="M1874,2031.19l638.65.06c4.67,0,9.34-.13,14,.15,8.42.5,10.47,2.59,11.11,10.87.18,2.32.14,4.66.14,7q0,38,0,75.92a92.14,92.14,0,0,1-.42,10c-.49,4.58-3.25,7.28-7.83,7.62s-9.31.41-14,.41q-310.83,0-621.66,0c-6.66,0-13.32,0-20,.05-5.54-.41-4.78-4.93-4.82-8.23q-.57-47.79,0-95.6C1869.26,2036.12,1868.5,2031.6,1874,2031.19Z"/><path class="cls-6" d="M353.76,1521.76c.05,15.64.13,31.28.14,46.92q.09,304,.17,608.06c0,4.33.14,8.67-.2,13-.54,6.81-2.55,8.74-9.15,9.46a46.05,46.05,0,0,1-5,.15l-335.66-.08q0-28.93,0-57.86c3.34-2.35,7.12-1.12,10.67-1.13q129.93-.12,259.88-.06c12.7,0,12.7,0,13.85-12.38.65-7,.57-14,.57-21q0-85.41,0-170.82c0-6-1.2-12.52,5.14-16.62.07-20,.2-39.93.21-59.9q0-130.3,0-260.61c0-19-.06-19-18.83-19H22.88c-18.91,0-18.92,0-18.95-18.86,0-9.32-.14-18.64.09-28s1.92-11.06,11.07-11.53c2.33-.11,4.67-.07,7-.07q159.84,0,319.69,0C345.78,1521.46,349.77,1521.65,353.76,1521.76Z"/><path class="cls-6" d="M2658.2,1515.56c2.54-6.87,4.7-13.9,7.67-20.57,24.7-55.54,67.33-87.11,128-90.71,55.56-3.3,110.66,28.38,136.64,83.71,4.55,9.7,7.49,19.94,11.15,29.93a241.36,241.36,0,0,1,2.57,43.81c-2.36,69.89-58.72,129.94-128.35,138-76.46,8.82-149.74-46.33-160.27-128.5C2653.23,1552.33,2655.78,1534,2658.2,1515.56Z"/><path class="cls-2" d="M294.26,1919.41q0,103.26.08,206.51c0,13.8-1.53,15.28-15.73,15.29q-126.77.09-253.54.05c-7,0-14,.08-21,.12,6-2.71,12.4-2.16,18.71-2.16q121.92,0,243.84-.06c4.49,0,9.21.85,13.37-1.54-.11-4.24-3.31-5.35-5.55-7q-93.33-70.89-209.9-83.49c-15.3-1.62-30.57-1.7-45.88-1.9-12.6-.17-14.52-2-14.54-14.61q-.13-79.41,0-158.81c0-12.42,2-14,14.78-14.41,39.48-1.14,78.47,3.06,117.22,10.2a567.23,567.23,0,0,1,141.35,45.32C282.92,1915.43,288.67,1917.25,294.26,1919.41Z"/><path class="cls-5" d="M1874,2031.19v112.06c0,6.33.1,12.67-.1,19-.34,10.6-2.38,12.52-13.25,12.9-2.33.08-4.66.05-7,.05h-578.9c-20.51,0-20.73-.22-20.73-20.53q0-123.9,0-247.82v-11.23c3.9,1.69,2.79,5.07,3.11,7.45a308.21,308.21,0,0,0,36,108.44,316.76,316.76,0,0,0,40.49,56.82c22.52,25.54,48.71,46.23,78.17,63a299.72,299.72,0,0,0,116.06,38c83,9.23,158.44-10.94,224.71-61.45,63.84-48.65,102.7-113.46,117.38-192.53,2.21-2.29-.24-5.72,2-8,0-2,0-4,0-5.92,2,5,2,10.32,2,15.6l.06,56.36Q1874.05,2002.28,1874,2031.19Z"/><path class="cls-2" d="M1872,2215.18c1.08-12.18,2.55-13.75,14.46-13.95s24-.08,36-.08H2222.1c3.33,0,6.66,0,10,0,14,.18,15.78,1.72,15.84,15.35.1,27,0,53.91,0,80.87,0,2.32-.11,4.66-.31,7-.44,5-3.18,8-8.24,8.36-4.31.31-8.65.36-13,.36l-331.64,0c-7,0-14-.37-20.77,2-6.84-1.49-4.73-7.22-4.86-11.3a531.66,531.66,0,0,1,3.48-83.86C1872.85,2218.28,1873,2216.67,1872,2215.18Z"/><path class="cls-5" d="M1254.05,2207.65c26,144.87,109.35,235.87,253.51,271.95-4.08,1.78-7.39,1.29-10.58,1.29q-112.45,0-224.93,0h-2c-13.76-.25-15.69-2.12-16-15.54,0-2.66,0-5.33,0-8q0-118.41,0-236.8Z"/><path class="cls-5" d="M1872,2215.18c2.15,5.37,2,11,2,16.63l0,83.31q0,73.89,0,147.8c0,17-1,18-18.21,18q-111.9,0-223.81,0c-3.5,0-7.11.46-11.28-1.1,135.09-33.94,220.32-115.66,249.31-252.67,2.21-2.29-.24-5.72,2-8Z"/><path class="cls-6" d="M2181,1511.47q57.42,0,114.86,0c15.51,0,16.13.71,16.19,16.54,0,6.32.17,12.66-.26,19s-2.33,8-8.7,8.66c-3.3.32-6.65.23-10,.23q-113.36,0-226.72,0c-18.6,0-18.73-.17-18.75-19.11,0-5.32-.16-10.66.21-16,.48-6.79,2.42-8.57,9.3-9.14,3.31-.28,6.66-.18,10-.18Z"/><path class="cls-7" d="M636.06,1289.72l-1.77.22c-.29-5.9-.6-11.8,1.77-17.77Z"/><path class="cls-2" d="M1872,1907.32c-.66,2.66-1.31,5.33-2,8C1870.67,1912.65,1871.32,1910,1872,1907.32Z"/><path class="cls-2" d="M1872,2219.12c-.66,2.67-1.31,5.34-2,8C1870.67,2224.46,1871.32,2221.79,1872,2219.12Z"/><path class="cls-6" d="M2491.86,1207.34c-2-4.74-1.91-9.76-1.91-14.76V640a57.94,57.94,0,0,1,.24-7c.75-6.22,2.59-8.15,8.75-8.83a92.37,92.37,0,0,1,10-.27q293.94,0,587.87,0c4.33,0,8.66.22,13,.34l.06-.16c6.32,23.8,5.35,48.1,4.85,72.34-.11,4.9-2.63,9.17-4.55,13.56-.77,42.64-.53,85.29-.13,127.93,6.14,4.25,4.85,10.74,4.86,16.71q.12,103.59,0,207.17c0,11.29-.15,22.58,0,33.87a37.18,37.18,0,0,1-5,20.11q0,23,0,46c1.25.71,1.25,1.42,0,2.13v41.65l-1.45,0c-1.57-9.13-3-18.29-4.72-27.38-11.19-58.24-38.07-108.2-79-151-30.61-32-65.5-57.58-106.6-74.32-30.82-12.55-62.9-19.33-96.14-21.54-43.49-2.88-85.82,2.21-127,16.49-39,13.52-73.14,35-103.41,63-36.32,33.52-64.8,72.43-82.4,118.82C2499.81,1154.69,2493.43,1180.5,2491.86,1207.34Z"/><path class="cls-4" d="M2490,314.34v-2c30.18-17.68,59.46-36.83,89.1-55.39q99.51-62.3,198.94-124.73c4.23-2.66,8.54-5.24,12.55-8.2,5.82-4.3,11.12-4.35,17.38-.36,25.57,16.27,51.41,32.12,77.09,48.22q74.92,47,149.79,94c21.15,13.29,42.32,26.56,63.38,40,9.66,6.16,9.68,8.05-.25,14.34-30.66,19.44-61.45,38.68-92.2,58q-82.93,52.05-165.89,104.08c-10.16,6.38-20.39,12.65-30.39,19.25-7,4.64-13.32,4-20.35-.45-41.34-26.23-82.84-52.2-124.3-78.25Q2584,372,2503.2,321.32C2499,318.68,2494.39,316.65,2490,314.34Z"/><path class="cls-4" d="M3159.14,27.34c1.69,2.09,2.76,2.79,2.83,3.59,1.53,16.17,11.18,25.45,25.74,30.67,6.83,2.45,11,1.32,14.05-5.06,2.74-5.68,5.52-11.34,8.25-17,4.35-9.07-2.07-23.63-11.23-27.24-3.32-1.31-8.36-2-7.42-6.53s6-3,9.49-3.13c11.39-.44,12.46,0,20.58,7,2.19-4.37,5.59-6.33,10.72-6.57,12-.57,24-.64,36-.35,8.76.2,10.6,1.9,11.76,10.25a94.69,94.69,0,0,0,4,16.48c2.93,8.95,4.73,18,3.16,27.5-.9,5.47.71,10.6,3,15.47a96.14,96.14,0,0,1,8.28,28.68c2.22,16.58,7.41,32.43,11.69,48.51,2.05,7.72,4,15.47,6,23.2,1.18,4.6,1.59,9.18-.12,13.76-2,5.34-.84,9.84,3.8,13.24,4.28,3.14,6.26,7.64,7.85,12.45,4.81,14.54,9.71,29.06,14.46,43.62,2.07,6.34,3.83,12.77,3.5,19.56-.15,3.07.17,6.09,2.28,8.47,4.38,5,5.67,11.17,7.4,17.26,9.79,34.63,20.4,69,35.2,101.86,4,9,3.44,16.24-3.39,23.7-7.41,8.09-13.86,17.05-20.74,25.62-3.81,4.76-7.92,8.22-14.43,4.25-2.46-1.49-5.24-1.46-7.15,1.15-1.71,2.33-.58,4.49,1.11,6.28,3.79,4,1.86,7.32-1.19,10.39-9.39,9.44-18.64,19.05-28.39,28.12-6.75,6.27-12.26,6.72-19.95,1.69-30.67-20-61.41-40-91.63-60.69-12.64-8.66-25-17.76-38.28-25.38-8.48-4.86-12.93-11.62-15.66-20.74-8.69-29-17.87-57.9-27-86.78a221.39,221.39,0,0,0-7.91-21.56,71.82,71.82,0,0,1-5.88-30.1c.27-24.64.21-49.28,0-73.92-.06-8.32,1-15.91,7.85-21.65a20.2,20.2,0,0,0,3.55-4.8c3.92-6.22,3.87-7.69-2.71-10.54s-8.55-7.82-8.56-14.29c0-15.65-.07-31.3-.07-46.95q0-33,0-65.94a87.19,87.19,0,0,1,.5-10c.54-4.51,3.26-7.28,7.77-7.84A92,92,0,0,1,3140.16,3c6.09.72,7.6,4.25,3,8.75-7.59,7.48-7.62,16.68-7.61,26,0,6.66,3.63,8.43,8.94,4.52S3155.65,34.81,3159.14,27.34Z"/><path class="cls-4" d="M3256.51,716.75a14.29,14.29,0,0,1,4.64-10.71c21.16-20.72,40.59-43.28,64.64-60.93,1.88-1.37,3.82-2.66,5.8-3.88,7.41-4.59,13.68-4.57,21.8.67,13.19,8.52,23.09,17.8,22,34.76,11.77,71.91,41.57,135.14,91.08,188.87,6.37,6.91,6.29,8,.08,14.83-11.82,13.06-27,21.57-41.64,30.77-25.11,15.77-50.32,31.38-75.45,47.1-14.59,9.13-17.51,8.2-22.23-7.89-4.48-15.3-10.19-30.32-9.73-46.72.16-5.68-2.31-11-4.14-16.4-17.76-52-36.57-103.63-53.34-156C3258.47,726.51,3256.61,721.84,3256.51,716.75Z"/><path class="cls-4" d="M3110,1115.81,3110,838a87.21,87.21,0,0,0,24.26-17.25c7.4-7.65,15-15.09,22.6-22.57a43.13,43.13,0,0,1,6.06-5.17c5.13-3.45,7.3-2.84,9.85,3.07,4.74,11,9.27,22.08,13.79,33.17,1.26,3.07,2.2,6.28,3.28,9.42,5.17,15.09,11.1,29.89,16.64,44.81,9.83,26.47,18.62,53.35,28.06,80,3.16,8.92,4.65,18-.09,27.13-2.47,4.75-.67,8.25,4.16,10.45a61.76,61.76,0,0,1,7,3.88c6.15,3.86,6.64,8.34.83,12.37-9.56,6.64-19,13.63-29.3,19-11.12,5.77-20.5,13.57-29.85,21.53-18.51,15.74-37,31.39-58.12,43.75C3122.32,1105.5,3116.36,1111,3110,1115.81Z"/><path class="cls-4" d="M3110,1163.9c0-.71,0-1.42,0-2.13,23.4-1.8,46-7.48,67.81-15.7,29.6-11.14,58-25.18,86.61-38.51,2.41-1.13,4.72-2.48,7.18-3.49,6-2.44,7.72-1.86,9.87,4.06,2.05,5.62,3.45,11.46,5.27,17.16,7.34,23.13,15.47,46,21.85,69.43,4.29,15.7,10.6,30.83,13.4,46.94l-192.93.07c-1.66,0-3.33,0-5-.08-9.51-.52-11.86-2.56-12-12-.28-16.31-.12-32.64-.15-48.95C3111.9,1175,3112.11,1169.32,3110,1163.9Z"/><path class="cls-4" d="M3218.73,598.12c-2.52.13-4-.72-4.92-2.14a25.55,25.55,0,0,1-2.78-5.27q-7.68-21.09-15.15-42.24c-.75-2.14-1.87-4.7.22-6.55s4.5-.33,6.37.9q18.77,12.31,37.39,24.85c3.67,2.46,4.53,5.85,1.56,9.35a172.41,172.41,0,0,1-19.74,19.7A10.71,10.71,0,0,1,3218.73,598.12Z"/><path class="cls-4" d="M3110.15,710l-.3-85.9c8.36,17.7,13.79,36.45,19.88,55a12.32,12.32,0,0,1-2,12.14C3122.47,698.07,3117.08,704.76,3110.15,710Z"/><path class="cls-3" d="M196.1,798c-8.55-23.59-17.12-47.18-22.18-71.86-10-42.76-12.94-86.16-11.78-129.93-5.66-17.51-2.52-34.68,2.05-51.78.51-1.9,2.26-2.17,4-2.13,3.16-13.88,6-27.84,9.54-41.62,10.05-38.68,25.46-75.26,44.32-110.43,14.86-24.89,30.73-49.1,49.55-71.23,5.38-6.34,11-12.52,16.44-18.77,50.23-53.66,109.44-93.89,178.17-120.3a456.12,456.12,0,0,1,123.26-28.77c86.81-7.79,169.88,6.45,248.81,44.16a480.24,480.24,0,0,1,111.15,73.92c11.23,9.9,21.61,20.77,32.38,31.2a17.2,17.2,0,0,1,12.25,6.42c15.88,18.68,30.82,38,43.85,58.81,2.81,4.48,6,8.87,4,14.67,1.24,2.71,2.29,5.53,3.73,8.13,20,35.81,35.83,73.32,45.85,113.17.73,2.89,1.75,5.71,2.64,8.56a12.92,12.92,0,0,0,2.56,2.16c3.73.54,3.9,3.63,4.57,6.37,5.16,20.89,7.3,42.23,9.5,63.55.47,4.54.79,9.44-4.64,11.87,0,11.3-.21,22.61.06,33.91.75,31.78-3.55,63-10,94,5.74,2.46,3.42,7,2.6,10.91-5.52,26.08-14.17,51.14-25,75.49-1.17,2.64-3.13,5-2.75,8.21-19.07,39.09-41.08,76.35-69.32,109.62-8.35,9.82-15.77,20.69-27.27,27.41-3.25,1.89-1.29,6.06-3.86,8.17C959.17,969,950.89,979.7,940.45,988c-12.52,9.92-25.23,19.53-38.26,28.75a25.44,25.44,0,0,1-16.38,5q-14,7.69-28,15.38c-56,30.58-116,48.39-179.42,54.24-95.8,8.84-186.09-10.26-270.75-55.86-8.78-4.72-17.11-10.27-25.66-15.43-26.48-16.44-50.63-35.87-73.53-56.92-3.4-3.13-6.84-6.22-10.26-9.33-11.61-13.66-23.81-26.81-35-40.86-26.66-33.52-47.71-70.29-64.51-109.59C197.93,801.55,197,799.79,196.1,798Z"/><path class="cls-1" d="M1066,816c1-3.16,1.79-6.43,3.11-9.46,11.8-27.27,20.43-55.54,27-84.47a24.5,24.5,0,0,1,10.8-1.55c25.26,3,50.61,1.09,75.91,1.48,19,.3,38,.15,57,0,12-.11,14.06-2.09,14.14-14,.17-22.64.06-45.29.09-67.94a87.28,87.28,0,0,1,.31-10c.75-6.51,3-8.77,9.41-9.56a82.94,82.94,0,0,1,10-.34H1855.6c17.54,0,18.38.88,18.38,18.86q0,290.78,0,581.53c0,18.49-.71,19.2-19,19.2q-300.43,0-600.85-.06c0-7.32.12-14.66-.17-22-.35-9.12-2.46-11.71-11.22-11.73-19,0-37.86-2.45-56.89-2.43-26.29,0-52.57-1.45-78.81-3.38a52.25,52.25,0,0,0-6-.31c-28.34,1.17-56.58-1.84-84.88-2.44-15.51-.33-31.32-.41-46.59-4.69-3.46-1-7.27-.69-10.92-1-25.56-2-51.23-3.14-76.64-6.3-15.22-1.9-30.29-4.17-45.66-3.88a26.72,26.72,0,0,1-11.7-2.3c-8.21-3.76-16.85-4.17-25.49-3-12,1.62-23.93,1.49-35.93,1.49-18.33,0-36.67.43-55-.11-17.72-.51-35.25,2.09-52.9,2.29-3.75,0-7.35.88-10.19,3.47-5,4.57-11.21,5.76-17.59,6.07a127,127,0,0,1-65.65-14.16,7.18,7.18,0,0,1-2.54-1.56c-6.16-8.28-15.91-13-22-21-9.18-12.11-19.67-21.42-34.66-25.32-4.12-1.07-7.95-3.39-11.79-5.37-3.47-1.79-6-4.39-5-8.77.94-4,3.73-6.56,7.69-6.81,11.28-.7,22.45-3.46,33.85-2.2,27.64,3,55.2,1.81,82.76-1.16,28.49-3.06,57-5.32,85.71-5.29,31.66,0,63.33-.26,95,.09,29,.33,57.88,2,86.81,3.41,18.95.9,37.88,2.19,56.86,2.82,26.27.88,52.58,2.29,78.83,2.95,34.62.87,69.23,3.93,103.86,2.38,16-.71,31.92-.49,47.83-.88,19-.46,36.83,4.88,55.35,6.15,8,.55,16,1.15,23.94,1.21,7.58,0,9.28-1.18,9.42-8.35q.45-24.48,0-49c-.15-7.87-2.55-10.43-10.29-10.5-21.31-.2-42.64-1.24-63.94.74-7,.65-14,.84-20.94,1.12q-24.45,1-48.9,1.82a43.39,43.39,0,0,1-9-.17c-30.59-5.35-61.8-3.7-92.44-8.46-6.59-1-13.12-2.12-19.44-4.43-10.51-3.86-21.76-2.62-32.61-4.34-14.77-2.35-29.81-2.74-44.28-7.37-5.59-1.79-11.9-1.18-17.8-2.15-2.88-.47-5.58-2.07-8.36-3.15,28.39-19.21,55.5-40,80.26-63.81,8.5-5.62,17.95-5.46,27.55-4.63,29.6,2.55,59.16,1.3,88.82.29,47.22-1.61,94.48-5.28,141.76-1.38,18.82,1.56,24.55-3.12,24.73-21.73q.39-42.47,0-84.93c-.15-17.59-3.44-20.22-21.45-20.62-50.6-1.12-101.17-2.94-151.77-4.06C1071.86,820.8,1067.41,821.28,1066,816Z"/><path class="cls-1" d="M1820,311.3q0,117.92,0,235.83a106.26,106.26,0,0,1-.33,12c-.69,6.09-2.72,8-8.93,8.73a87.35,87.35,0,0,1-10,.29q-237,0-473.92,0c-17.89,0-18.78-.87-18.78-18.47q0-238.32,0-476.65c0-17.63.89-18.5,18.74-18.5q237.46,0,474.92,0c17.22,0,18.27,1,18.28,18Q1820,191.9,1820,311.3Z"/><path class="cls-1" d="M1041.9,380.36a53.68,53.68,0,0,1-4.3-5.41c-16.18-26.65-35.56-50.89-55.79-74.5,4.72-1.95,9.7-2.11,14.72-2.11,37.27,0,74.56-.63,111.8.3,19.27.47,38.53,1.58,57.82,1.75,25.31.22,50.48-2.64,75.77-2.58,10.11,0,11.88.84,12,10.89.23,19.63.19,39.25.06,58.87-.08,12.65-2,14.58-14.5,14.63-33.28.12-66.57-.51-99.83.23C1107,383.15,1074.51,379.43,1041.9,380.36Z"/><path class="cls-1" d="M1106.11,594.17c-1.41-25.57-5.16-50.82-10.11-75.92-1.81-1.64-.12-4.35-1.86-6l0-2c17.25-1.38,34.25-5,50.94-8.82s33-1.14,49.49-.91c11.5.16,21.74,5.89,32.6,8.88,7.74,2.13,10.94,12,6.54,18.63-7.79,11.74-12.66,24.67-18,37.59-5.55,13.52-14.57,24.67-30.69,26.93a11.79,11.79,0,0,0-7,3.51c-4.49,4.67-10.14,6.05-16.34,6-14,0-27.92-.07-41.89,0C1113.56,602.16,1108.74,600.14,1106.11,594.17Z"/><path class="cls-1" d="M1232.68,483.28a79.21,79.21,0,0,1,15.83,4.73,8.29,8.29,0,0,1,4.94,6.95c.75,5.88-3.06,8.84-8.56,6.44a10.61,10.61,0,0,1-4.67-3.47c-2.33-3.69-5.55-5.4-9.66-6.2-2.69-.53-5.37-1.87-4.61-5.28S1229.62,483.16,1232.68,483.28Z"/><path class="cls-6" d="M2799,1241.9H2601.15c-16.22-.09-17.92-1.88-16.84-17.78,6.81-100.61,86-184.94,186.11-197.54,98.8-12.42,179.84,36.14,222.64,116,14.05,26.22,20.6,54.73,22.52,84.31.83,12.79-1.34,15-14.66,15Q2900,1241.95,2799,1241.9Z"/><path class="cls-1" d="M168.19,542.3q-3,27-6.05,53.91a67.17,67.17,0,0,0-18.73-15.77c-8.37-4.93-16.89-10.58-23.14-18.58-3.38-4.32-7.83-7.05-12.91-9-4.54-1.75-9-3.81-15.53-6.62,8.34-2.17,13.72-5.4,19.23-8.33a25.1,25.1,0,0,1,11.39-3.37c12-.16,23.92-.18,35.88-.15C163.64,534.39,167.19,536.82,168.19,542.3Z"/><path class="cls-1" d="M3477.36,1047.31c-.88-.47-1.12-1.81-1-3.11.6-9.77,4.82-18.45,8.45-27.3.64-1.56,2.07-2.68,4-2a2.8,2.8,0,0,1,1.85,3.18c-2.61,9.77-2.51,20.52-10.14,28.49A2.5,2.5,0,0,1,3477.36,1047.31Z"/><path class="cls-1" d="M2028,622.12q0-175.89,0-351.77a122,122,0,0,1,.34-13c.67-6.11,2.71-8,8.91-8.74a74.75,74.75,0,0,1,9-.29q132.48,0,265,0c17.84,0,18.75.89,18.75,18.51q0,356.28,0,712.54c0,17.64-.89,18.5-18.75,18.5q-132.49,0-265,0c-17.21,0-18.22-1-18.22-18Q2028,801,2028,622.12Z"/><path class="cls-1" d="M945,2125.2H837.09c-3,0-6,0-9,0-14.43-.17-15.9-1.62-16-16.17-.05-6.65-.19-13.33.25-20s2.62-8.79,9.2-9.51a92.18,92.18,0,0,1,10-.26q112.89,0,225.78,0c20,0,20.68.72,20.69,20.83,0,5.33.15,10.68-.34,16-.57,6.18-2.64,8.12-8.79,8.82a100.2,100.2,0,0,1-11,.31Z"/><path class="cls-1" d="M944.47,2193.15H831.55c-3,0-6,.08-9-.18-7.74-.65-10-2.68-10.29-10.57-.35-8.31-.36-16.66,0-25,.34-7.29,2.6-9.31,9.78-10,3-.29,6-.2,9-.2q112.92,0,225.84,0c18.89,0,20.82,2,21,21.31.06,5.32,0,10.66-.32,16-.29,5-3.19,7.93-8.26,8.3-3.65.26-7.32.33-11,.33Q1001.42,2193.17,944.47,2193.15Z"/><path class="cls-1" d="M887,2215.17q29,0,58,0a81.43,81.43,0,0,1,9,.4c4.59.51,7.47,3.25,7.6,7.82.27,9.64.27,19.3.07,28.94-.11,5-3.08,8-8.16,8.4-2.65.24-5.32.33-8,.33q-58.47,0-116.93,0c-1.67,0-3.34,0-5-.09-8.94-.6-11-2.56-11.39-11.63-.28-7-.23-14-.06-21,.28-10.82,2.26-13,12.94-13.13,15.32-.23,30.65-.09,46-.11Z"/><path class="cls-1" d="M1034.35,2261c-10.33,0-20.67.24-31-.08-8.48-.26-10.73-2.49-11.09-10.79-.35-8-.34-16,0-24s2.47-10.6,10.08-10.71q32-.46,64,0c6.94.1,9.12,2.54,10.52,9.75a67.41,67.41,0,0,1,0,25.83c-1.47,7.51-3.73,9.6-11.5,9.85-10.32.34-20.66.09-31,.09Z"/><path class="cls-1" d="M1862.08,1552.91c.53,52.75-10.17,99.65-32.82,143.17-37,71.18-93,121.51-169.33,148.45a281.54,281.54,0,0,1-92.12,16.35c-41.66.27-82.25-7.34-120.46-24.9-23.38-10.75-45.74-23.25-65.86-39.48-32.29-26-58.47-57.09-78-93.83-17.85-33.63-29.69-69.14-34.38-106.89-7.2-57.87,1.41-113.39,25-166.76a293.05,293.05,0,0,1,56.34-84.34c30.49-31.92,66.26-56.59,107.7-72.6a293.78,293.78,0,0,1,99.5-20,288,288,0,0,1,122.66,24,303,303,0,0,1,173.48,208.06,251.64,251.64,0,0,1,5.76,30.42C1861.17,1528.46,1862.81,1542.37,1862.08,1552.91Z"/><path class="cls-3" d="M1254.06,1241.73q0,107.38,0,214.78c0,18.5-2.32,20.79-21.09,18.61-75.32-8.71-134.5-44.08-176.3-107.62-20.92-31.79-32.42-67-36.18-104.71a78.86,78.86,0,0,1,0-13c.31-4.6,3.14-7.3,7.72-7.72,4-.35,8-.4,12-.4q107,0,213.9,0Z"/><path class="cls-1" d="M2842,1563.75c-5.82,22.11-25.69,36.09-47.49,33.4s-38.21-21.06-38.69-43.6c-.05-2,.14-4,.23-6,3.83-5,9.09-5,14.68-4.43a281.32,281.32,0,0,0,58.6,0c11.49-1.21,13.56.64,13.53,11.8C2842.89,1557.9,2843.62,1561,2842,1563.75Z"/><path class="cls-2" d="M2842,1563.75c0-.33,0-.66,0-1-.66-14.4-1.38-14.55-16.08-13.79-19.28,1-38.6,1.52-57.88-.64-4-.45-8-.5-12-.72,3.36-34.6,40.7-51.17,68.71-32.21C2840.2,1525.81,2847.09,1545.16,2842,1563.75Z"/><path class="cls-2" d="M1066,816c40.94-1,81.78,3,122.73,2.3,10.9-.19,21.84,2.28,32.85,1.65,6.3-.36,12.59-1,18.89-1.5,10.33-.74,13.36,1.72,13.45,12.2.23,24.28.12,48.56.13,72.85,0,13.63.12,27.28-.08,40.91-.18,11.27-2.23,13-13.67,13.48-16,.65-31.85-1.9-47.83-2.19-34-.62-67.87,1.43-101.74,2.79-24.62,1-49.22.83-73.81,1.45-17,.43-33.82-3.13-50.83-2,8-10.22,17.87-18.7,26.27-28.61,26.35-31.08,48.93-64.56,66.72-101.24C1061.09,823.93,1063.67,820,1066,816Z"/><path class="cls-5" d="M656.13,622.25V734c0,1.33,0,2.66,0,4-.18,14.42-1.63,15.89-16.17,16-5.66,0-11.33.17-17-.16-8.28-.48-10.24-2.63-10.81-11.1-.17-2.65-.11-5.32-.11-8q0-113.75,0-227.49c0-18.39.63-19,19.14-19,4.66,0,9.33-.13,14,.16,8.27.54,10.28,2.66,10.83,11.12.21,3.31.13,6.65.13,10Z"/><path class="cls-2" d="M1094.14,512.24l1.86,6Z"/><path class="cls-3" d="M1556.1,906.94q0-56.9,0-113.78a91.93,91.93,0,0,1,.26-10c.68-6.26,2.53-8.51,8.7-8.79,9.29-.42,18.64-.42,27.94,0,6.12.28,8,2.55,8.63,8.85a94.55,94.55,0,0,1,.25,10q0,113.28,0,226.56c0,19.24-.59,19.8-19.43,19.86-4,0-8,.06-12,0-12.09-.31-14-2.17-14.33-13.9-.09-3-.05-6-.05-9Z"/><path class="cls-3" d="M1488.16,907V793.24c0-2.66-.05-5.33.11-8,.54-8.58,2.42-10.71,10.76-11q12-.47,24,0c8.38.31,10.29,2.45,10.83,11,.16,2.65.11,5.32.11,8v226.54c0,2.33,0,4.66-.07,7-.43,10.24-2.4,12.44-12.3,12.82-7,.27-14,.26-21,0-10-.37-12-2.51-12.34-12.76-.22-6.65-.1-13.31-.1-20Z"/><path class="cls-3" d="M1624.11,964.94c0-20.28-.1-40.55,0-60.83.08-12.24,1.83-13.93,13.82-14.13,7-.13,14-.21,21,.1,8.34.37,10.22,2.48,10.81,11,.12,1.65.1,3.32.1,5v116.68c0,1.66,0,3.33-.09,5-.58,9.34-2.62,11.45-12.28,11.81-7,.25-14,.25-21,0-9.94-.37-12.2-2.55-12.3-12.75-.21-20.61-.06-41.22-.06-61.83Z"/><path class="cls-3" d="M1669.78,816c0,10,.19,19.92-.06,29.87-.24,9.7-2.3,11.8-11.74,12.07-8,.24-16,.28-23.9-.11-7.22-.35-9.64-2.56-9.74-9.85q-.43-31.85,0-63.71c.1-7.3,2.52-9.62,9.66-10,8.62-.39,17.27-.38,25.89,0,7.24.31,9.46,2.5,9.72,9.85.36,10.61.09,21.24.09,31.85Z"/><path class="cls-2" d="M1646,309.17c1.06,39.42-31.62,80.76-80.88,80.44-49.86-.33-80.61-40.57-80.74-80-.16-51.37,41.54-81.21,81.77-81.79C1603.2,227.25,1648,261.43,1646,309.17Z"/><path class="cls-5" d="M1474,1556c.15-51.53,41.08-92.78,91.71-92.36,43.76.36,89.5,35.6,89.63,92.67.11,52.26-39,92-91.52,92.77C1514.34,1649.88,1473.88,1607.15,1474,1556Z"/></svg>