<svg id="Layer_1" data-name="Layer 1" xmlns="http://www.w3.org/2000/svg" viewBox="0 0 3508 2482"><defs><style>.cls-1{fill:#525252;}.cls-2{fill:#3b3b3b;}.cls-3{fill:#282828;}.cls-4{fill:#242424;}.cls-5{fill:#505050;}.cls-6{fill:#767676;}.cls-7{fill:#2b2b2b;}.cls-8{fill:#646464;}.cls-9{fill:#484848;}.cls-10{fill:#414141;}.cls-11{fill:#494949;}.cls-12{fill:#595959;}.cls-13{fill:#434343;}.cls-14{fill:#3e3e3e;}.cls-15{fill:#4a4a4a;}.cls-16{fill:#acacac;}.cls-17{fill:#979797;}.cls-18{fill:#444;}.cls-19{fill:#4b4b4b;}.cls-20{fill:#262626;}.cls-21{fill:#252525;}.cls-22{fill:#3c3c3c;}</style></defs><path class="cls-1" d="M3507.89,624.08v619.8c-2.87,9.35-9.61,15.87-16.26,22.52q-289.86,289.74-579.88,579.3c-12.05,12-17.14,24.53-17.11,41.48q.65,283.84.3,567.7c0,6.76-.23,13.43-1.8,20.09-.8,3.37-1.84,5.56-5.61,5.52H1040c-3.33,0-6.66.26-10-.26-4.42-2.95-4.36-7.89-4.88-12.29-.47-3.9-.16-7.95-.16-11.93q0-288.27,0-576.56c0-5.32-.34-10.66.6-15.91,5.09-10.42,13-18.68,21.08-26.78q219.76-219.64,439.54-439.31c15-15,29-30.9,45.64-44.14,2.79-2.22.86-5.63,3.16-7.61,1-1.06,2-2.13,3-3.22,8.55-2.65,13.17-10,19-15.91q31.31-31.27,62.56-62.59c4-4,7.84-8.16,13.69-9.44,6.16-1.81,11.66-3.88,12.14-12,.13-2.19,2.85-5.17,6.38-5.34,26.59-.71,53.15-.22,79.72-.28,3,0,6,.07,8.78,1.28.91.92-.41.07.71.59,4.72,2.22,3.94,10.66,9.24,10.27,4.74-.35,4.75-8,9-10.72,7.11-2.48,14.45-1.37,21.68-1.43q28.29-.23,56.57,0c4.55,0,9.37-.62,13,3.1,4.56,1.31,2.72,10.5,8.85,8.47,3.42-1.14,3.8-7.43,7.77-9.76,3-1.92,6.35-1.81,9.65-1.81,26.16,0,52.33-.32,78.46.18,4.45,1.1,7.53,3.41,7.88,8.48.14,2,.9,4.12,3.35,4.1s3.09-2.15,3.37-4.11c.48-3.31,3.41-4.59,5.28-6.78,3-2,6.34-1.87,9.64-1.86,26.2,0,52.4-.38,78.56.2,5.27.75,5.92,5.51,8,9.14,2.33,4.13,5.29,4.59,6.75-.28,1.26-4.18,3.17-7.12,7.25-8.64,45.55-1.1,91.06-.18,136.57-.48,7.64-.05,15.29.15,22.92-.21,5.44-.26,10.6-1.23,14.29-5.78,1.83-2.46,3.51-5.21,3.34-8.21-1-17.06,4.66-33.4,4.63-50.45q-.4-244.38-.1-488.76c0-15.31-5.91-30-4-45.49.39-3.29-.11-6.68.59-10,1.26-5.94,6.3-8.5,11.87-6a18.07,18.07,0,0,1,5.08,3.14c15.09,14.1,30.24,28.15,43,44.5a16.08,16.08,0,0,1,3.33,10c.11,4.66.1,9.33.1,14q0,254.37,0,508.74c0,5.33-.14,10.67.18,16,.79,13,5.72,18,17.6,18.13s17.15-5,18-17.67c.36-5.32.2-10.66.2-16q0-231.88,0-463.77c0-5-.44-10,.56-15,1.21-6,4.75-7.29,9.81-4.22,8.06,4.88,13.77,12.64,21.17,18.16,24.87,18.51,31.67,42.17,31.23,73.25-1.85,130.57-.79,261.19-.78,391.79,0,5.33-.16,10.67.21,16,.89,12.58,6.2,17.6,18.27,17.39,11.47-.19,16.42-5.12,17.3-17.37.36-5,.21-10,.21-15q0-183.9,0-367.81c0-4.66-.42-9.37.51-14,1.36-6.73,6.25-9.05,11.28-4.55,17.61,15.77,34.9,31.92,49.35,50.78,3.76,4.91,2.8,10.8,2.8,16.39q.1,153.91,0,307.84c0,8.66-.31,17.34.22,26,.84,13.86,8.14,19.51,21.95,17.45,7.57-1.13,12-5.3,13.16-12.86.87-5.63.65-11.3.65-17q0-136.44,0-272.87c0-4.65-.47-9.38.68-13.94,1.48-5.88,5.52-7.38,9.83-3.45,17,15.48,33.3,31.67,48.72,48.73,3.86,4.27,2.71,10,2.71,15.19q.09,112.94,0,225.88c0,5.33-.24,10.68.47,16,1.38,10.31,6.85,14.69,17.87,14.55,10.53-.13,15.7-4.39,17.13-14.28.71-5,.51-10,.51-15,0-59-.08-117.94.14-176.91,0-5.49-2.63-12.76,4.76-15.74s10.57,4.15,14.64,7.93c11,10.23,21.05,21.38,32,31.58,7.65,7.11,10.76,15,10.64,25.53-.49,42-.2,83.95-.2,125.93,0,4.33-.1,8.67.18,13,.81,12.86,5.84,17.92,17.75,18s17.49-5,17.79-17.83c.71-30.31,0-60.63.4-90.94.07-5.33-2.41-12.26,4.72-15.18s10.49,3.83,14.31,7.6c13.26,13.1,27.12,25.62,38.94,40.16a25.6,25.6,0,0,1,6,17.36c-.13,13.66-.49,27.33.19,41,.73,14.9,11.49,21.71,25.67,16.74,7.05-2.47,8.94-8.17,10.13-14.72,1.78-9.88,4.5-10.78,12.86-5.22,6.74,4.47,11.9,10.58,17.54,16.15,2.95.28,5.38.19,7.88-2.46,28.81-30.49,59-59.65,88.6-89.31q224.53-224.61,449.34-448.94c21.13-21,41.49-42.85,63.15-63.35C3499.41,624.62,3502.32,619.41,3507.89,624.08Z"/><path class="cls-2" d="M0,1861.69V1647.76c2.29-1.62,2.68-4.54,4.46-6.5,9.34-12.93,21.32-23.41,32.51-34.61Q214,1429.41,391.32,1252.35c3.29-3.29,6.51-6.67,10.05-9.69,3.79-3.24,7.08-3.43,9.45,1.63,2.72,9.48,2.16,19.21,2.16,28.89,0,185.49.23,371-.31,556.46-.06,20.2,5.54,35.55,20.43,49.4,21.1,19.62,41.68,39.91,60.84,61.51,2.4,2.7,5.89,2,7.93,4.51a33.72,33.72,0,0,1,1.73,3.11c1.74,4.43,1.35,9.1,1.35,13.71q0,39.64,0,79.29c0,4.58-.6,9.32,2.53,13.27,8.47,2.33,17.59-2.48,24.06-12.76,2.82-10.17.91-20.56,1.45-30.82.19-3.66.2-7.33.21-11,0-4.64,2.28-7.05,6.38-9,4.26-2,6.26.89,8.58,3,12.48,11.32,23.84,23.77,35.76,35.65q162.45,161.85,324.44,324.16l108.82,108.79c3.73,3.74,7.66,7.33,9.61,12.54,1.82,4.84-.57,5.69-4.59,5.43q-504.24,0-1008.43,0c-4,0-8,.58-11.93-.53-1.68-3.49-.82-7.22-.82-10.82Q1,2171.29,1,1873.46C.94,1869.54,2,1865.47,0,1861.69Z"/><path class="cls-1" d="M0,622.08v-2c2-3.78.94-7.85.94-11.76Q1,306.55,1,4.79C.46.85,4.26,1.7,6,.28H1028c.68.67,1.33,1.37,2,2.1,2.55,5-1.6,7.36-4.17,10.07-7.8,8.2-16,16-24,24.05Q789.46,249.31,576.59,461.55c-35,34.86-69.11,70.54-105,104.49-.67.64-1.34,1.28-2,1.93a25.54,25.54,0,0,1-1.87,2c-6.58,1.4-8,8.08-12.12,11.95-12.36,12.47-23.61,26-37.68,36.76-3.48,2.66-3.56,9.57-10.39,8.3q-194.47.32-388.91.09c-4.68,0-9.33-.13-13.77-1.88C2.78,624.92,1.41,623.46,0,622.08Z"/><path class="cls-3" d="M3507.89,624.08C3494,635.61,3482,649,3469.4,661.8a15.71,15.71,0,0,0-3.42,6c-1.59,4.78-4.45,8.21-9.3,9.65-4.36,1.3-7.49,4.21-10.56,7.28l-7.79,7.76q-268.26,268.2-536.55,536.36c-3.76,3.76-7.78,7.27-11.67,10.9-3.9-5.39-5.21-11.45-5.21-18.06q0-296.25-.18-592.49c0-9.7,5.15-15.29,11-21.17q80.53-80.58,161.07-161.14c20.89-21,41.18-42.71,62.38-63.32,79.3-77.08,156.52-156.23,235.09-234,41.89-41.49,83.43-83.33,125.12-125,7.5-7.51,14.7-15.36,23.68-21.25a10.68,10.68,0,0,1,2.35-1.59,2,2,0,0,1,2.45.6Z"/><path class="cls-4" d="M2890.05,2479.36c-.15-5.66-.42-11.32-.42-17q0-291.35-.29-582.68c0-13.44,4-22.85,13.47-32.31q296.93-296.1,593.32-592.74c3.76-3.75,7.12-8,11.76-10.77v619.81c-3.24,9.25-9.71,16.07-16.5,22.85q-289.12,288.67-577.92,577.68c-6.3,6.31-12.71,12.32-21,15.84A1.91,1.91,0,0,1,2890.05,2479.36Z"/><path class="cls-1" d="M2891.72,2479.3c3-3.16,5.83-6.4,8.88-9.45q298.82-298.79,597.67-597.53c3-3,5.73-6.52,9.62-8.63v615.8c-3.09,1.89-6.51,1-9.77,1q-298.36.09-596.74,0C2898.17,2480.43,2894.71,2481.59,2891.72,2479.3Z"/><path class="cls-5" d="M0,1008V892c5.05-5.58,11.51-6.71,18.75-7.06,13.72-.67,26.88,3.19,40.37,4,14.24.82,27.91-4.28,42.31-4.17,12.15.09,22.81,8.81,21.62,22.07-1.09,12.15.76,24.51-3.51,36.44a19.6,19.6,0,0,0,0,12.79c4.46,12.57,2.83,25.54,3.4,38.38.24,5.62-2.39,10-4.91,14.56-3.94,3.38-8.77,3.86-13.65,3.89-29.56.17-59.12.1-88.68,0A31.11,31.11,0,0,1,5,1011.11C2.83,1010.8,1.43,1009.36,0,1008Z"/><path class="cls-6" d="M2891.72,2479.3c5.33.06,10.65.18,16,.18h600.19c-.43.62,1,2.09-1,2-2.66-.08-5.33,0-8,0H1028a1.86,1.86,0,0,1-.86-1.53c0-.62.08-.93.23-.93a1.76,1.76,0,0,1,2.47,0c5.33.14,10.65.4,16,.4q604.76,0,1209.52,0h621.74c4.34,0,8.67-.08,13-.12A6.66,6.66,0,0,0,2891.72,2479.3Z"/><path class="cls-7" d="M0,1008l4-.07c3.34,3.05,5.24,6.75,5,11.35-.11,2.66,0,5.32,0,8Q8.95,1324.12,9,1621c0,7.79-.24,15.46-3,22.85a15.57,15.57,0,0,1-6,3.91Z"/><path class="cls-8" d="M1028.09,2479.74l-.12,1.75q-509.49,0-1019-.12c-2.92,0-6.78,2.3-9-1.88q.66-2.19,2.11-.42c5.33.14,10.65.4,16,.4q496.35,0,992.7,0c5,0,10-.16,15-.24A1.43,1.43,0,0,1,1028.09,2479.74Z"/><path class="cls-9" d="M2515.92.28h990c.67.45.89.9.67,1.35s-.45.67-.67.67l.23.8c-5.76,3.35-12,4.21-18.6,4.21q-478.21,0-956.43-.06c-5.37,0-10.88.48-15.39-3.43A3.21,3.21,0,0,1,2515.92.28Z"/><path class="cls-7" d="M116.05,1008.22c.08-34.64.25-69.28.17-103.92,0-10.57-1.88-12.46-12.27-12.49-34.65-.08-69.3.1-103.95.19V622.08l4,.2C9.65,626.2,9,632.15,9,637.82q.09,95.88,0,191.75c0,11.32-.21,22.64.11,34,.47,16.68,4.88,21.1,21.82,21.36,23,.34,46,.08,68.93.1,5.35,0,10.66.1,15.75,2a7.66,7.66,0,0,1,3.47,1.43,7,7,0,0,1,1.8,3.24c1.9,5.33,2.18,10.87,2.16,16.47-.06,23.89-.26,47.77.08,71.66.23,16.36,4.59,20.59,20.77,21.11,9,.29,17.92-.11,26.88.25,4.64.19,8.93,1,9,7-4.25,4.78-10,4.52-15.44,4.76-8.95.39-17.95-.41-26.88.5-9.27,1-13.36,4.66-14,13.79-2.4,33.91,2.81,34.08,29.28,33.83,7.59-.07,15.27-.81,22.71,1.77,2.37.82,4.41,1.51,4.31,4.44-.94,4.32-4.5,5.42-7.93,5.49-17.23.36-34.48.54-51.71,0-6-.21-8.67-3.2-8.84-9.39-.43-14.88-.21-29.75-.16-44.62A12.28,12.28,0,0,1,116.05,1008.22Z"/><path class="cls-10" d="M1028.08,2.41,1028,.28h622l1,1.57a3.48,3.48,0,0,1-1.6,3.2c-1.71.81-2.78,2.77-5,2.7-6.17-3.21-12.51-.29-18.75-.33-41-.27-81.93-.14-122.9-.14q-228.81,0-457.64-.12C1039.27,7.16,1032.16,9.67,1028.08,2.41Z"/><path class="cls-11" d="M1650,2.06c0-.59-.06-1.19-.08-1.78h620a3.19,3.19,0,0,1,.18,3.57c-4.48,3.92-10,3.39-15.37,3.4q-72.49.09-145,0-221,0-442-.11C1661.6,7.16,1654.19,9.74,1650,2.06Z"/><path class="cls-12" d="M2,2.69Q2,301,2,599.33c0,7,.66,14-2,20.75V2.28C.93,1.18,1.61,1.31,2,2.69Z"/><path class="cls-13" d="M2.11,2479.07l-2.11.42v-617.8c2.56,6.39,2,13.11,2,19.75q0,252.34,0,504.68Q2,2432.59,2.11,2479.07Z"/><path class="cls-14" d="M2269.69,1.87l.24-1.59h82a3.21,3.21,0,0,1,.16,3.61A15.79,15.79,0,0,1,2342,7.16q-30.87.3-61.75,0A14.9,14.9,0,0,1,2271.67,5,3.56,3.56,0,0,1,2269.69,1.87Z"/><path class="cls-14" d="M2515.92.28c0,.61.1,1.23.16,1.84a18.75,18.75,0,0,0-.58,1.79c-3.17,3.14-7.27,3.32-11.35,3.34q-29.49.09-59,0c-4.09,0-8.19-.31-11.43-3.36a3.18,3.18,0,0,1,.18-3.58Z"/><path class="cls-15" d="M2433.93.28c0,.65,0,1.29,0,1.94-.21.57-.43,1.15-.6,1.77-2.9,2.89-6.73,3.33-10.43,3.3-19.8-.15-39.61.19-59.42-.12-4-.06-7.59-.67-10.85-3-.31-.53-.58-1.12-.85-1.7.07-.73.13-1.46.2-2.19Z"/><path class="cls-16" d="M2,2.69,0,2.28c.79-4.29,4.1-1,6-2C5.19,1.93,3.56,2.22,2,2.69Z"/><path class="cls-17" d="M3505.89,2.3v-2q2.58-.58,2,2Z"/><path class="cls-2" d="M1650,2.06c5.66.07,11.32.21,17,.21q292.35,0,584.7,0c6,0,12-.25,18-.39l.33.55A13.21,13.21,0,0,1,2274.8,13c-.12,23.85.95,47.72-.73,71.56-1.05,10.62-1.15,21.28-1.15,31.94,0,159.94,3.06,320-1.06,479.79-2.74,106.05-1.71,212-2.71,318-1,106.28-.22,212.58-.24,318.87,0,2.28.55,4.69-1,6.78-5.72,2.34-11.76,1.83-17.71,1.84q-83.2.08-166.42.08c-5.88,3.31-11.76,3.59-17.64,0q-37.29,0-74.59,0c-5.29,0-10.65-.33-15.63,2-6.6,4.45-12.37,1.37-18.12-2l-76.5-.09c-4.64,0-9.29,0-13.61,2.15-6.48,1.61-12.78,5.12-19.74,1.94-2.83-3.46-6.75-4-10.84-4q-34,0-68,0a21.79,21.79,0,0,0-9.68,2.12,25.6,25.6,0,0,1-19.16,0c-4.31-2.12-9-2.19-13.61-2.19q-38.25,0-76.5.13c-6.73,2.22-13,6.76-20.68,4.42-20.59,1-41.19.34-61.77.52a108.56,108.56,0,0,0-20.83,2c-8.63-.88-17.3-1.52-25.94-2.68-28,1.09-56,1.32-83.9-.13-8.52,1.37-17.19,1.54-25.75,2.86-18-3.49-36.28-1.65-54.43-1.94-9.55-.16-19.11-.44-28.65-.2-8.64,1.12-17.32-.84-26,.25-84.25-.29-168.49,0-252.72-.16-5.62,0-11.34.66-16.79-1.36-7.06-1.7-7.46-5.61-3.39-10.78a101.26,101.26,0,0,1,8.26-8.7q294.82-294.71,589.55-589.5c6.21-6.22,15.86-10.21,15.85-21.23,2.45-9.19,1.9-18.55,1.9-27.86q0-282.16,0-564.33c0-7.08-.81-14.43,4.67-20.29Z"/><path class="cls-14" d="M2268,1239.94l0-689.47q0-223.34,0-446.66c0-6.64-.56-13.37,2.26-19.7,2.26-2.62,4.73-4.7,8.53-4.72,22.08-.13,44.15-.44,66.23.2a16.8,16.8,0,0,1,5.65,1.66,6.6,6.6,0,0,1,3.3,1.6c3.07,5.4,3,11.34,3,17.3,0,14.3-.34,28.61.16,42.91.47,13.26,4.53,17.46,17.41,18q18.45.74,36.92,0c12.52-.51,16.74-4.63,17.26-17.08.64-14.95.23-29.93.2-44.9,0-5.34.48-10.52,2.57-15.49a4.75,4.75,0,0,1,2.86-2.18C2440,79,2446,79.22,2452,79.23c16.67,0,33.33,0,50,0,4.58,0,9.43-.37,12.82,3.81,5,3.58,6.27,8.64,6.22,14.58-.13,14.94-.36,29.89.09,44.83.43,14.16,4.55,18.21,18.84,18.6,12,.33,23.93.47,35.88-.09s16.3-4.61,16.87-16.35c.62-12.94.62-25.92,0-38.85-.56-11.76-4.77-15.82-16.89-16.33-15.6-.65-31.23-.25-46.84-.19-5.63,0-10.34-1.16-13.78-5.81A11.09,11.09,0,0,1,2511,74.6c-.09-20.52-.22-41,.06-61.55.06-4.24,1.17-7.74,4.51-10.42l.5-.51c7,.06,14,.17,21,.17h947.11c7.32,0,14.66-.31,21.94.81-2.21,4.21-5.58,7.44-8.88,10.74L3135.41,375.55q-116.22,116.18-232.6,232.19c-9.26,9.18-13.23,18.51-13.2,31.55q.54,246.29.25,492.56c0,36,.16,71.94.24,107.9-5.64-3.14-9.45-8.36-14.18-12.53a102.51,102.51,0,0,0-8.51-6.93c-2.52-1.79-4.6-.89-5.08,2.16s-.34,6-.61,9c-.71,7.82-2.58,9.87-10.59,10.2s-16,.34-24,0c-8.83-.33-10.89-2.54-11.2-11.71-.27-7.65-.11-15.32-.12-23s-.51-15.36.11-23c.88-10.83-2.85-19.45-10.39-26.92-11.59-11.5-23-23.17-34.55-34.72-1.6-1.6-3.25-3.94-5.84-3.19-3.29.95-2.91,4.19-2.93,6.73-.14,14-.13,28-.15,42,0,20,.09,40-.07,60-.1,12-2,13.7-14.16,13.94-6,.11-12,.12-18,0-11.94-.24-13.54-1.94-13.79-14.26-.07-3.33,0-6.66,0-10,0-45-.26-90,.17-135,.1-10.86-3-19.12-11.08-26.42-10.13-9.14-19.43-19.2-29.11-28.85a48.82,48.82,0,0,0-5.1-4.77c-3.77-2.8-6-1.84-6.61,3a89.27,89.27,0,0,0-.34,11q0,92.46,0,184.93c0,20.33,0,20.34-20.8,20.35-5,0-10,.15-15-.2-7.37-.51-9.43-2.55-10-9.73-.33-4-.2-8-.2-12,0-78-.21-155.94.2-233.91.06-12-3.14-21-12.15-29-10-8.81-19-18.71-28.41-28.13-1.65-1.65-3.29-3.31-5-4.89-1.2-1.12-2.52-2.56-4.3-2-2.39.77-2.16,3.16-2.25,5.08-.17,3.66-.14,7.33-.14,11q0,140.45,0,280.89c0,4,.11,8-.15,12-.53,8.34-2.53,10.4-11.12,10.71-8,.29-16,.3-24,0s-10-2.5-10.6-10.24c-.3-4-.18-8-.18-12,0-109.29-.21-218.58.25-327.87.06-13.77-3.79-24.46-13.55-33.76-10.14-9.64-19.83-19.76-29.74-29.64a34.3,34.3,0,0,0-4.46-4c-3-2.09-5.29-1.15-5.7,2.38a109.71,109.71,0,0,0-.54,13q0,189.93,0,379.85c0,4.33.13,8.69-.25,13-.56,6.29-2.54,8.81-8.46,9.09-9.63.46-19.31.28-29,0-5.12-.14-7.81-3.38-8.07-8.42-.23-4.32-.28-8.66-.28-13q0-212.91,0-425.83c0-4-.19-8,0-12,.37-7.5-2.31-13.47-7.73-18.68-10.09-9.7-19.84-19.75-29.78-29.6-2.13-2.11-4.44-4-6.77-5.93-1.52-1.23-3.19-2.91-5.29-2.15-2.77,1-2.29,3.81-2.39,6-.17,4-.12,8-.12,12q0,237.92,0,475.82c0,4.33.13,8.69-.29,13-.61,6.22-2.56,8.49-8.75,8.78-9.3.43-18.66.43-28,0-6.16-.3-8.14-2.61-8.74-8.8-.42-4.29-.29-8.65-.29-13,0-174.6-.21-349.2.32-523.8.05-16.15-4.72-28.21-16.25-38.69-7.88-7.16-15.12-15-22.72-22.52a50.35,50.35,0,0,0-6.79-5.86c-3.57-2.41-5.75-1.55-6.24,2.61a109.93,109.93,0,0,0-.39,13q0,287.4,0,574.78C2269.76,1226.12,2270.43,1233.18,2268,1239.94Z"/><path class="cls-18" d="M1028.09,2479.74l-2.31-.5c-3.12-3.45-6.11-7-9.4-10.33q-232-232-464.08-463.89c-2.92-2.92-5.64-8.64-9.89-7s-2.24,7.69-2.37,11.82c-.26,8-.09,16-.1,24,0,4.68-.18,9.33-2.07,13.73-3.75-1.37-4.56-4.47-4.74-8-.2-4-.15-8-.15-12q0-161.77,0-323.56c0-5.66.12-11.32-.43-17-.56-5.81-2.34-11.15-6.76-15.15-4.72-4.27-9.88-9.15-16.68-6.91-7.27,2.4-6,9.7-6,15.47-.21,30.63,0,61.25-.16,91.88-.09,12.54,4.49,23.35,10.19,34,15,28,14.78,57.39,8.21,87.37A74.42,74.42,0,0,1,513.1,1914c-5.1,9.1-9.68,18.21-10.36,28.85-.19,3-.95,6-4.7,6.74-3.71-3.35-7.56-6.55-11.09-10.06-22.19-22.1-44-44.6-66.62-66.24-8.91-8.52-12.55-17.6-12.51-29.88.35-105.6.21-211.19.2-316.79q0-141.41-.08-282.82a2.23,2.23,0,0,1-.45-3.06c7.32-1.4,11.1,4.2,15.69,8.09,4.24,3.59,7.29,3.6,7.8-2.65.6-7.35,5-9.3,11.47-9.29,9.62,0,19.31.73,28.84-.19,13.34-1.28,17.76,7.41,17.53,18.06-.31,14.25-.42,28.5.12,42.74.16,4.31.08,8.63,1,12.85,1.35,7.28,6.64,11.88,11.52,16.73,5.83,5.79,11.55,11.68,17.49,17.34,2.17,2.07,4.19,5.74,8.09,2.42,2.54-4,1.91-8.41,1.92-12.67.09-25.84,0-51.68,0-77.52,0-14.12,4.34-21.18,19.87-19.9,9.22.77,18.53,0,27.81.26,4.79.12,8.32,1.4,9.69,6.36,2.63,4.76.61,9.77.6,14.63,0,45.81.13,91.61-.05,137.41,0,11.69,3.5,21.36,12.15,29.31,5.62,5.16,10.72,10.87,16.28,16.1,2.54,2.39,4.87,5.94,9.24,3.27a137.67,137.67,0,0,0,6.1-37q1.17-54.95,0-109.93c-.26-13.48-4.36-26.73-3.82-40.5.62-15.45,4.82-21,20.12-19.91,8.29.58,16.65-.06,25,.19,9.49.29,14.21,4.18,14.56,13.77.48,13.22,1.73,26.64-2.77,39.55-1.14,3.28-.81,6.59-.81,9.89,0,51.31-1.07,102.64.54,153.9a434.31,434.31,0,0,0,5.36,55.28c6.37,15.4,20.17,24.38,31.17,35.73,3.33,3.44,6,1.64,6.63-2.9a81.65,81.65,0,0,0,.27-11q0-136.1,0-272.18c0-7.24-.4-14.57,3.94-21a228.61,228.61,0,0,1,49.89,0c4.57,6.31,4.14,13.65,4.14,20.89,0,107.79.91,215.59-.62,323.35-.38,26.93,13.22,42.47,30.64,57.93,2.11,1.86,4.47,2.93,7.21,1.29,1.15-1.32,2.44-2.65,2.42-4.34-.12-13.66,4.63-26.65,4.57-40.45-.39-97.64-.26-195.27-.15-292.9,0-15.65-5.15-30.69-4.22-46.53s4.6-21.62,20.43-20.47c8,.58,16,0,24,.17,10.72.28,15.23,4.18,15.45,15.06.26,13.24,1.65,26.67-3,39.57-1.17,3.24-.64,6.6-.64,9.91,0,116.29-.7,232.59.65,348.87.22,18.82,1.63,38.36,5.45,57.24,6.75,15.59,20.79,24.83,32,36.5,2.52,2.63,4.91,1.5,5.52-2.18s.33-7.32.33-11q0-234.84,0-469.67c0-7.66-.19-15.32,3.18-22.49,15.07-3.82,30.38-2,45.5-1.24,6,.3,8.64,7.09,8.85,12.81.5,13.59,1.68,27.32-2.58,40.6-1.06,3.3-.92,6.56-.92,9.86,0,149.15-.44,298.31.52,447.46.12,17.94,3.11,36.24,4.32,54.38.84,6.62,4.9,11.35,9.3,16,11.32,12,24.34,22.34,33.81,36a10,10,0,0,1,2.58,2.77,8.37,8.37,0,0,1,.68,2.39c-.09,7.33-.28,14.65-.28,22q0,288.12,0,576.25c0,7-.06,14-.09,21C1029.23,2479.28,1028.66,2479.5,1028.09,2479.74Z"/><path class="cls-18" d="M1030,1241.89q128.79,0,257.59,0c6.31,0,12.69-.42,18.68,2.28,11.33,8,11.33,8,19.76-.35a34,34,0,0,1,12.68-1.91q30.77,0,61.54,0c5,0,10,0,13.81,4.07,8.68,8.76,14.32,2.9,19.73-4.09h90.39c.8.54,2,.87,2.37,1.61,4.5,10.12,10.72,7.62,17.36,2.48,4.11-4.4,9.55-4.06,14.85-4.07q36.82,0,73.65,0c6.06,4.54,4.7,10,1.94,15.63-3.92,3.56-8,7-11.74,10.72q-34.9,34.76-69.7,69.62c-3.51,3.51-6.89,7.19-11.2,9.8-4.46-.75-3.55-7-8.83-8-.22,5.38,6.36,5.7,6.83,9.86-2.52,4.39-6.21,7.79-9.74,11.32L1039.63,1851c-3.06,3.06-6.28,6-9.43,8.93l-.63-.62c-11.21-13.57-6.29-29-4.42-43.77.62-4.87,1.84-9.69,1.84-14.7q0-249.8-.22-499.6c0-15.47-5.08-30.73-3.7-46.46C1023.54,1249.32,1023.48,1243.93,1030,1241.89Z"/><path class="cls-4" d="M2008.18,2167.15q0-142.37,0-284.74c0-16.93.72-17.56,16.8-13.9,20.72,4.71,18.94,4,19,23.31q.06,275.75,0,551.51c0,18.62,0,18.62-18.47,22.73-16.89,3.76-17.3,3.45-17.3-14.16Q2008.18,2309.52,2008.18,2167.15Z"/><path class="cls-4" d="M1909.64,2167.65q0,142.38,0,284.75c0,16.94-.58,17.39-16.82,13.78-21.21-4.72-19-4.66-19-23.33q-.09-275.76,0-551.52c0-18.66,0-18.66,18.46-22.74,16.73-3.71,17.33-3.25,17.33,14.31Q1909.66,2025.27,1909.64,2167.65Z"/><path class="cls-4" d="M1976.29,2168.59q0,142.93,0,285.87c0,18.79-.31,19.07-18.79,18.94-15.08-.12-16-.9-16-15.78q0-289.86,0-579.73c0-15.69.75-16.35,16.32-16.43,18.1-.1,18.45.22,18.46,18.27Q1976.3,2024.15,1976.29,2168.59Z"/><path class="cls-4" d="M1842,2168.61q0,131.44,0,262.89c0,3.66,0,7.33-.24,11-.26,4.31-2.65,6.08-6.75,4.54a131.06,131.06,0,0,1-24.12-12c-3.1-2-4.38-4.9-4.47-8.45s-.2-7.32-.2-11q0-248.39-.29-496.79c0-12.85,3.47-21,15.67-25.13,4.39-1.5,8.37-4.16,12.75-5.73,4.78-1.72,6.81-.34,7.37,4.82a113.82,113.82,0,0,1,.28,12Q1842,2036.66,1842,2168.61Z"/><path class="cls-4" d="M2075.78,2167.69V1901.83c.07-16.8,1.15-17.61,15.82-10.29,23,11.47,19.92,7.93,19.93,32.2q.15,244.86,0,489.74c0,20,3.16,18.33-18.6,29.08a103.38,103.38,0,0,1-10.07,4.41c-4,1.49-6.54,0-6.82-4.43-.23-3.65-.24-7.33-.24-11Q2075.76,2299.63,2075.78,2167.69Z"/><path class="cls-4" d="M1774.33,2167.59q0,112.9-.08,225.82c0,4.46,2.17,10.81-2.26,13-5.15,2.49-8.6-3.68-12.21-6.7-20.29-17-20.22-17.08-20.22-43.9q0-191.36,0-382.7c0-4.33,0-8.66.11-13,0-3.4.61-6.7,3.07-9.26a203.89,203.89,0,0,1,25.34-22.56c3.67-2.75,5.48-1.87,6,2.54a100.2,100.2,0,0,1,.27,11Q1774.34,2054.68,1774.33,2167.59Z"/><path class="cls-4" d="M2143.38,2166.55q0-112.89.07-225.8c0-4.51-2.16-11.06,2-13.08,4.95-2.43,8.61,3.72,12.07,6.91,25.07,23.11,20.63,13.55,20.68,45.54q.3,190.34.08,380.67c0,4-.16,8,0,12a17.05,17.05,0,0,1-5.49,13.39c-6.92,6.75-13.84,13.5-21.67,19.2-4.47,3.25-6.73,2.25-7.34-3a93.24,93.24,0,0,1-.3-11Q2143.38,2279,2143.38,2166.55Z"/><path class="cls-18" d="M2521.92,1493.86h114c2.19,6.83.88,13.84.92,20.76.19,28.65-.12,57.31.23,86,.08,6.46-1.51,8.4-8.16,8.34-33.33-.35-66.66-.25-100-.07-5.43,0-8.27-.37-8.18-7.28.41-34.32.18-68.64.18-103C2520.92,1497,2520.82,1495.28,2521.92,1493.86Z"/><path class="cls-4" d="M1706.28,2336.05c-4.17-.22-5-3.53-6.54-5.87a296.56,296.56,0,0,1-25-48.85,40.27,40.27,0,0,1-2.79-15.62q.06-98.46,0-196.92a38.88,38.88,0,0,1,2.45-14.68,305.48,305.48,0,0,1,27.57-53.16c.89-1.37,1.73-2.87,3.61-3.32,2.89,1.24,1.86,3.9,2.06,6,.21,2.31.08,4.66.08,7q0,155.94-.06,311.88C1707.62,2327,1708.67,2331.76,1706.28,2336.05Z"/><path class="cls-4" d="M2211.2,1997.27c4,1.4,4.92,4.09,6.3,6.27a321.37,321.37,0,0,1,25.13,48.8,42.15,42.15,0,0,1,3.26,16.52q-.06,98.41,0,196.85c0,4.69-.33,9.3-2.09,13.73a299.79,299.79,0,0,1-27.34,53.25c-.9,1.38-1.79,2.82-3.61,3.33-2.82-.37-2.41-2.73-2.52-4.57-.19-3-.14-6-.14-9q0-155.88,0-311.76C2210.19,2006.45,2209.7,2002.12,2211.2,1997.27Z"/><path class="cls-18" d="M2638,1435.88c14.61,0,29.23-.13,43.84,0,12,.13,13.82,2,14,14,.15,10.62.21,21.25-.07,31.87-.26,9.48-2.47,11.75-12,11.91-15.28.27-30.55.1-45.83.11A331.59,331.59,0,0,1,2638,1435.88Z"/><path class="cls-18" d="M2519.92,1493.83c-14.29,0-28.59.13-42.88-.09-10.75-.16-12.87-2.29-13.08-12.94-.21-11-.24-21.94,0-32.9.24-9.45,2.5-11.75,12-11.92,14.62-.27,29.25-.11,43.88-.13A337.13,337.13,0,0,1,2519.92,1493.83Z"/><path class="cls-19" d="M2519.92,1493.83l0-58c2,4.67,2,9.62,2,14.56v43.44q0,47.4,0,94.77c0,2.66-.06,5.33.13,8,.6,8.36,2.62,10.6,10.94,11,8,.36,16,.18,23.95.18q30.44,0,60.87,0c3.32,0,6.66-.07,10-.41,4.57-.46,7.27-3.17,7.7-7.74.34-3.63.4-7.3.4-11q0-47.39,0-94.77l0-43.42c0-5,.07-9.88,2-14.56l-.06,57.93q0,47.39,0,94.77c0,2.66-.06,5.33.13,8,.59,8.38,2.61,10.7,10.91,11,10,.36,20,.13,29.93.22a89.26,89.26,0,0,1,9,.4c4.57.5,7.42,3.2,7.65,7.78a406,406,0,0,1-.05,43.85c-.27,4.63-3.35,7.47-7.88,7.49-16.56,0-33.21,2.35-49.64-1.58,3.06-4.23,7.42-5,12.29-5,8.3,0,16.61.31,24.9-.29s12.48-4.88,13.52-13.13c3.53-28.08-4.19-35.8-32.27-32.26-8.24,1-12.54,5.34-13.14,13.51s-.32,16.59-.29,24.89c0,4.87-.78,9.23-5,12.29-3-8-1.75-16.45-2-24.73-.17-6.31.1-12.65-.14-19-.37-9.6-2.48-11.75-11.89-12.16-6-.26-12-.12-18-.12q-32.46,0-64.91,0c-3,0-6-.08-9,.2-7.22.69-9.49,2.7-9.89,9.92-.43,8-.18,16-.27,23.95-.05,5-.06,10-.31,15s-2.93,8.45-8,8.48c-16.58.1-33.24,2.31-49.69-1.53.17-.49.35-1,.51-1.5,2.93-3.19,6.79-3.43,10.76-3.47,7-.08,14,0,21-.1,3.33-.07,6.84.19,9.84-1.29,13.76-6.81,8-19.55,8.54-30.12.43-8-4-13.21-12.4-14-8.63-.87-17.29-.33-25.94-.46-4.24-.07-8.55,0-11.77-3.52l-.51-1.5c5.08-2.06,10.43-2,15.76-2,10,0,20,.16,30-.26,7.31-.31,9.37-2.61,10.08-9.74a89.79,89.79,0,0,0,.21-9Q2519.95,1541.31,2519.92,1493.83Z"/><path class="cls-20" d="M1957.84,1241.91c6.61-4.58,12.64-3.9,18.12,2,.68,2.21,1.3,4.43.77,6.76a10.57,10.57,0,0,1-10.61,8.47,10.34,10.34,0,0,1-9.64-9.5C1956.17,1246.9,1957.12,1244.43,1957.84,1241.91Z"/><path class="cls-21" d="M1634.32,1257.51c-3.53-4.85-4-10.09-1.94-15.63,6-3.83,11.91-4.14,17.84.07.18.63.41,1.25.53,1.89C1652.92,1256.44,1647.41,1261,1634.32,1257.51Z"/><path class="cls-20" d="M1976.85,1612.5A10.53,10.53,0,0,1,1967,1623a10.16,10.16,0,1,1,9.86-10.51Z"/><path class="cls-20" d="M3465.28,1030.65a10.38,10.38,0,0,1-9.91,10.42,10.49,10.49,0,0,1-10.45-9.91,10.64,10.64,0,0,1,10-10.44A10.34,10.34,0,0,1,3465.28,1030.65Z"/><path class="cls-20" d="M1435,1613.07a10.58,10.58,0,0,1-10.46,9.94,10.32,10.32,0,0,1-9.94-10.37,10.47,10.47,0,0,1,10.4-10A10.59,10.59,0,0,1,1435,1613.07Z"/><path class="cls-20" d="M1966.27,1420.75a10.37,10.37,0,0,1,10.57,9.75,10.52,10.52,0,0,1-9.81,10.56,10.16,10.16,0,0,1-.76-20.31Z"/><path class="cls-20" d="M1543.31,1430.58a10.32,10.32,0,0,1-9.82,10.48,10.17,10.17,0,1,1,9.82-10.48Z"/><path class="cls-20" d="M3455.42,838.79a10.28,10.28,0,0,1,9.87,10.41,10.45,10.45,0,0,1-10.42,9.95,10.18,10.18,0,1,1,.55-20.36Z"/><path class="cls-20" d="M1533.2,1602.67a10.46,10.46,0,0,1,10.12,10.25A10.35,10.35,0,0,1,1533.1,1623c-5.38-.09-10.23-5-10.2-10.25A10.61,10.61,0,0,1,1533.2,1602.67Z"/><path class="cls-20" d="M3238.58,1041.15a10.21,10.21,0,0,1-.32-20.41,10.21,10.21,0,0,1,.32,20.41Z"/><path class="cls-20" d="M3346.58,1020.8a10.49,10.49,0,0,1,10.4,9.94,10.63,10.63,0,0,1-10,10.36,10.5,10.5,0,0,1-10.38-10A10.39,10.39,0,0,1,3346.58,1020.8Z"/><path class="cls-20" d="M1641.69,1420.69a10.2,10.2,0,0,1-.43,20.4,10.2,10.2,0,0,1,.43-20.4Z"/><path class="cls-21" d="M1316.1,1623a10.2,10.2,0,0,1,.66-20.39,10.17,10.17,0,0,1,9.66,10.55A10,10,0,0,1,1316.1,1623Z"/><path class="cls-21" d="M1651.55,1613a10.33,10.33,0,0,1-10.2,10.06,10.19,10.19,0,0,1,.26-20.38A10.34,10.34,0,0,1,1651.55,1613Z"/><path class="cls-20" d="M3357,848.74a10.17,10.17,0,1,1-20.34.38,10.25,10.25,0,0,1,9.9-10.36A10.68,10.68,0,0,1,3357,848.74Z"/><path class="cls-20" d="M2066.18,1241.84c5.89-3.58,11.77-4.27,17.65,0,.44,2.24,1.29,4.48,1.27,6.72a10.14,10.14,0,1,1-20.26,0C2064.84,1246.31,2065.71,1244.07,2066.18,1241.84Z"/><path class="cls-21" d="M1539.68,1349.47c-3-.06-6,.33-8.92-.27a9.29,9.29,0,0,1-7.72-10.11,10.18,10.18,0,0,1,10.47-8.76,9.86,9.86,0,0,1,9.6,8.53c.47,3.08-.61,5.92-1.43,8.79Z"/><path class="cls-21" d="M1858.54,1602.65c5.56.17,9.74,4.93,9.44,10.76a9.79,9.79,0,0,1-9.59,9.58,10.17,10.17,0,1,1,.15-20.34Z"/><path class="cls-20" d="M2074.71,1623a10.16,10.16,0,1,1,10.39-9.85A10.26,10.26,0,0,1,2074.71,1623Z"/><path class="cls-21" d="M1868,1431.06a9.81,9.81,0,0,1-10,10,10.18,10.18,0,0,1,.36-20.35A9.93,9.93,0,0,1,1868,1431.06Z"/><path class="cls-20" d="M2075.13,1420.72a10.48,10.48,0,0,1,10,10.34,10.3,10.3,0,0,1-10.24,10,10.18,10.18,0,1,1,.26-20.35Z"/><path class="cls-21" d="M1759.75,1612.81a10,10,0,0,1-10,10.17,9.83,9.83,0,0,1-9.58-9.58,10,10,0,0,1,9.43-10.75A10.3,10.3,0,0,1,1759.75,1612.81Z"/><path class="cls-21" d="M2085.13,1522.12a10.18,10.18,0,0,1-20.32,0A10.23,10.23,0,0,1,2075,1512,10,10,0,0,1,2085.13,1522.12Z"/><path class="cls-21" d="M2075.07,1349.72a9.93,9.93,0,0,1-10.26-10,10.2,10.2,0,0,1,10.61-9.69,9.82,9.82,0,1,1-.35,19.64Z"/><path class="cls-21" d="M1750.05,1420.71a10.22,10.22,0,0,1,9.67,10.63,9.84,9.84,0,1,1-9.67-10.63Z"/><path class="cls-21" d="M1543.24,1522.08a9.75,9.75,0,0,1-10.52,9.59,10.28,10.28,0,0,1-9.8-9.51c-.2-5.36,4.57-10.13,10.16-10.16A10,10,0,0,1,1543.24,1522.08Z"/><path class="cls-21" d="M1651.52,1339.69a9.63,9.63,0,0,1-10,10,9.86,9.86,0,1,1,10-10Z"/><path class="cls-21" d="M1641.65,1512a9.92,9.92,0,0,1,9.88,10.28,9.62,9.62,0,0,1-9.65,9.39,9.85,9.85,0,1,1-.23-19.67Z"/><path class="cls-21" d="M1424.83,1512c5.6,0,10.34,4.79,10.14,10.17s-5.11,9.73-10.78,9.5a9.72,9.72,0,0,1-9.51-9.6A10,10,0,0,1,1424.83,1512Z"/><path class="cls-21" d="M1740.33,1244c8.54-7.07,10.06-7.06,19.16,0,.37,10.12-2.77,15-9.6,15S1740,1254.18,1740.33,1244Z"/><path class="cls-21" d="M3455.11,767.84A10.23,10.23,0,0,1,3445,757.66c.14-5.4,5-9.72,10.73-9.48a9.68,9.68,0,0,1,9.49,9.59A9.94,9.94,0,0,1,3455.11,767.84Z"/><path class="cls-21" d="M3465.21,940.08a9.91,9.91,0,0,1-10.46,9.69,10.24,10.24,0,0,1-9.75-10.52c.32-5,4.82-9.07,10.09-9.16A9.76,9.76,0,0,1,3465.21,940.08Z"/><path class="cls-21" d="M3238.11,949.8a9.84,9.84,0,1,1,10.34-9.79A9.83,9.83,0,0,1,3238.11,949.8Z"/><path class="cls-21" d="M3357,939.83c.08,5.37-4.73,10-10.34,9.95a9.81,9.81,0,1,1-.23-19.62C3352,930,3356.9,934.42,3357,939.83Z"/><path class="cls-21" d="M1759.74,1340.37a9.62,9.62,0,0,1-10.54,9.34,9.5,9.5,0,0,1-9.11-9.77,9.83,9.83,0,1,1,19.65.43Z"/><path class="cls-21" d="M1867.91,1340a9.44,9.44,0,0,1-10.12,9.71,9.82,9.82,0,0,1,.18-19.64A9.53,9.53,0,0,1,1867.91,1340Z"/><path class="cls-21" d="M3129.66,1041.09a10.28,10.28,0,0,1-9.48-10.8,10.12,10.12,0,0,1,10.72-9.49,10.19,10.19,0,0,1-1.24,20.29Z"/><path class="cls-21" d="M1750.2,1531.65a9.49,9.49,0,0,1-10.1-9.75,9.83,9.83,0,1,1,10.1,9.75Z"/><path class="cls-21" d="M1848,1245.91c8.44-9.11,10.5-9.32,19.74-1.94a6.41,6.41,0,0,1,.13,1c.11,9.16-2.57,13.5-8.69,14.09C1852.83,1259.66,1849.13,1255.32,1848,1245.91Z"/><path class="cls-21" d="M1867.92,1522.26a9.49,9.49,0,0,1-10.45,9.38,9.67,9.67,0,0,1-9.23-9.7,9.78,9.78,0,0,1,10-9.93A9.56,9.56,0,0,1,1867.92,1522.26Z"/><path class="cls-21" d="M1976.69,1521.73a10.05,10.05,0,0,1-10.24,10,9.74,9.74,0,0,1-9.88-10.18,10.07,10.07,0,0,1,20.12.23Z"/><path class="cls-21" d="M1976.69,1340.36a10.09,10.09,0,0,1-10.82,9.35,9.78,9.78,0,0,1-9.27-10.75,10.08,10.08,0,0,1,20.09,1.4Z"/><path class="cls-22" d="M2449,2132.45a8.12,8.12,0,1,1-8.24-8A8.14,8.14,0,0,1,2449,2132.45Z"/><path class="cls-22" d="M2533.31,2140.52a8.58,8.58,0,0,1-8.31-8.21,7.85,7.85,0,0,1,8.36-7.85,8.1,8.1,0,0,1,7.71,8.61A7.78,7.78,0,0,1,2533.31,2140.52Z"/><path class="cls-22" d="M2541.1,2364.49a8.2,8.2,0,0,1-8.13,8.25,7.89,7.89,0,0,1-7.93-7.31,8.47,8.47,0,0,1,8.69-8.77A7.78,7.78,0,0,1,2541.1,2364.49Z"/><path class="cls-22" d="M2532.51,2062.84a7.77,7.77,0,0,1-7.44-8.63,8.26,8.26,0,0,1,8-7.29,8,8,0,0,1,8,8.22A8,8,0,0,1,2532.51,2062.84Z"/><path class="cls-22" d="M2633.17,2364.61a8.18,8.18,0,0,1-8.2,8.1,8,8,0,0,1-7.71-7.51,8.28,8.28,0,0,1,7.73-8.58A7.88,7.88,0,0,1,2633.17,2364.61Z"/><path class="cls-22" d="M2633.14,2133a7.77,7.77,0,0,1-8.56,7.52,8.29,8.29,0,0,1-7.37-7.93,8,8,0,1,1,15.93.41Z"/><path class="cls-22" d="M2441.34,2218.15a8.11,8.11,0,0,1-8.37-8.06,7.75,7.75,0,0,1,7.53-7.76,7.84,7.84,0,0,1,8.34,6.91A8.22,8.22,0,0,1,2441.34,2218.15Z"/><path class="cls-22" d="M2441.17,2047a8.25,8.25,0,0,1,7.68,8.77,7.85,7.85,0,0,1-8.17,7.13,7.76,7.76,0,0,1-7.68-7.62A8.17,8.17,0,0,1,2441.17,2047Z"/><path class="cls-22" d="M2541.09,2210.4a7.86,7.86,0,0,1-7.61,7.72,8.58,8.58,0,0,1-8.4-8.2,7.7,7.7,0,0,1,7.67-7.6A8.07,8.07,0,0,1,2541.09,2210.4Z"/><path class="cls-22" d="M2625.83,2047a7.88,7.88,0,0,1,7.29,8,8,8,0,0,1-8.48,7.82,7.91,7.91,0,0,1-7.37-7.9A8.34,8.34,0,0,1,2625.83,2047Z"/><path class="cls-22" d="M2717.92,2047a7.81,7.81,0,0,1,7.23,8,8,8,0,0,1-8.49,7.79,7.88,7.88,0,0,1-7.32-7.94A8.31,8.31,0,0,1,2717.92,2047Z"/><path class="cls-22" d="M2725.18,2132.23a7.74,7.74,0,0,1-6.94,8.22,8.56,8.56,0,0,1-8.82-7.66,8,8,0,0,1,8.13-8.17A7.8,7.8,0,0,1,2725.18,2132.23Z"/><path class="cls-22" d="M2633.14,2286.81a8.09,8.09,0,0,1-8.32,8,7.66,7.66,0,0,1-7.69-7.48c0-4.25,4-8.07,8.45-8.08A7.52,7.52,0,0,1,2633.14,2286.81Z"/><path class="cls-22" d="M2625.47,1970.25a7.57,7.57,0,0,1,7.61,7.53c.07,4.24-3.15,7.34-7.61,7.33-4.78,0-8.56-3.65-8.26-8C2617.48,1973.22,2621.16,1970.14,2625.47,1970.25Z"/><path class="cls-22" d="M2625.42,2217.94c-4.45-.11-8.29-4-8.1-8.26a7.82,7.82,0,0,1,7.81-7.35,8.06,8.06,0,0,1,8,8.25A7.61,7.61,0,0,1,2625.42,2217.94Z"/><path class="cls-22" d="M2533.33,2279.27a7.73,7.73,0,0,1,7.62,7.52,7.86,7.86,0,0,1-8.11,8.06,7.72,7.72,0,0,1-7.75-7.38C2525,2283.25,2529,2279.32,2533.33,2279.27Z"/><path class="cls-22" d="M2725.15,2210.81a7.48,7.48,0,0,1-7.82,7.13,8.45,8.45,0,0,1-7.75-8.56,7.5,7.5,0,0,1,7.89-7A8,8,0,0,1,2725.15,2210.81Z"/><path class="cls-22" d="M2725.14,2287.24a8,8,0,0,1-8.82,7.53,7.41,7.41,0,0,1-6.75-7.38,8.35,8.35,0,0,1,8.4-8.13A7.45,7.45,0,0,1,2725.14,2287.24Z"/><path class="cls-22" d="M2448.82,2287.36a7.91,7.91,0,0,1-15.77.34,7.89,7.89,0,1,1,15.77-.34Z"/><path class="cls-2" d="M2533,1985a7.34,7.34,0,1,1,7.76-7.41A7.62,7.62,0,0,1,2533,1985Z"/><path class="cls-19" d="M2463.9,1665.76a28.91,28.91,0,0,1-1.89-11.66c.63-14.78-1.92-29.7,1.88-44.35l.07.06c3.5,2.27,4.7,5.83,4.8,9.66q.49,18.27,0,36.56c-.1,3.83-1.28,7.39-4.79,9.67Z"/><path class="cls-4" d="M408,1242.28c0,.51,0,1-.06,1.55-4.39,4.05-8.93,8-13.16,12.2Q206.92,1443.76,19.11,1631.52c-4.23,4.23-8.7,8.22-13.06,12.33-2.61-6.38-2-13.1-2-19.73q0-204.75,0-409.49V1007.89c37.36-.27,74.72-.89,112.07.33,0,15-.2,29.91-.1,44.87.09,12.75,1.91,14.61,14.28,14.79,11,.16,21.94,0,32.91,0,4.35,0,8.64-.35,12.61-2.4-3.49-2.55-4.55-6.09-4.61-10.28-.17-12.18-.15-24.35,0-36.53,0-4.42,1.43-7.75,4.72-10.46-4.63-2.33-9.65-2.3-14.65-2.31-10,0-20,.11-30-.1-10.82-.23-12.94-2.23-13.06-13-.21-18.63-.08-37.27-.1-55.91q0-22.46-.08-44.93c2.15-5.4,6.45-6.83,11.85-6.86,7.93,0,15.87,0,23.8-.19,4-.08,7.92-.59,11.21-3.15,6-5.16,3.82-12.25,4.21-18.66a106,106,0,0,0-.22-14.91c-.32-3.89-1.82-7.75-5.9-8.28-11.46-1.49-23-2.47-34.41.77-1.25.36-2,1.69-2.82,2.76-5.26,10.82-1.91,22.35-2.79,33.5-.44,5.55-.83,10.67-6.94,13q-47.43,0-94.86-.09C5.32,889.87,4,888.6,4,872.85Q4,747.56,4,622.28c4.65-.16,9.3-.45,14-.45q195.68,0,391.35,0c7.64-4.12,15.87-4.79,24.41-4.79q289.82.12,579.63.07c4.33,0,8.75-.53,12.95.54,5.42,1.37,7.5,4.66,3.81,9.75-2.75,3.79-6.22,7-9.51,10.24Q723.5,934.71,426.34,1231.74C421.2,1236.88,416.55,1243,408,1242.28Z"/><path class="cls-5" d="M274,1859q0-83.43,0-166.86c0-4,.09-8,.21-12a13.19,13.19,0,0,1,5.92-11,156.18,156.18,0,0,1,24.08-14.19c6.16-2.81,8.7-1.23,9.52,5.31a64.3,64.3,0,0,1,.25,8c0,36.64-.1,73.28.08,109.91a48.8,48.8,0,0,1-6.32,24.69c-20.88,38-21.42,76.28.21,114.19a45.65,45.65,0,0,1,6.1,23.74c-.16,37,0,73.94-.08,110.91,0,16-2.22,17.35-16.49,9.52-5.82-3.19-11.32-7-16.92-10.6a13.45,13.45,0,0,1-6.39-11.76c-.07-4-.17-8-.17-12Q274,1942.9,274,1859Z"/><path class="cls-5" d="M498,1949.61c-1.08-13,2.6-24.37,8.9-36,18.3-33.87,19.25-69.27,1.74-103.51a96.31,96.31,0,0,1-10.83-47.7c.66-31.64.14-63.29.22-94.94,0-15.48,2.13-16.75,16-9.59,5.61,2.9,10.94,6.33,16.35,9.61a14.67,14.67,0,0,1,7.47,13.28c0,2,.13,4,.13,6q-.06,180.4-.14,360.81c-11.41,7.74-23,15.14-35.93,20.21-5.7-1.36-2.78-5.93-2.8-8.82-.24-33.17-.13-66.35-.2-99.53,0-3.25.9-6.65-.92-9.74Z"/><path class="cls-5" d="M238.16,1860.79q0,68.89-.07,137.79c0,3.76,1.87,9.4-2.39,10.78s-6-4.35-8.4-7.25c-9.24-11-16.6-23.28-23.5-35.84a32.83,32.83,0,0,1-3.94-16.3q0-90.36,0-180.71a33.78,33.78,0,0,1,4-16.28,257.77,257.77,0,0,1,26-39,19.86,19.86,0,0,1,3.39-3.63c2.15-1.62,4-.77,4.34,1.69a67.36,67.36,0,0,1,.53,10Q238.19,1791.4,238.16,1860.79Z"/><path class="cls-5" d="M348.15,2020.17c0-15,0-29.89,0-44.84a66.7,66.7,0,0,1,.48-8.94c.52-3.7,2.87-5.15,6.45-3.93,8.8,3,17.56,6.12,26.34,9.19a8.85,8.85,0,0,1,6.34,8.1c.22,2.31.32,4.64.32,7q0,42.86,0,85.7c0,1,0,2-.05,3-.5,10.22-3,12.53-12.84,11.26a134,134,0,0,1-16.64-3.11c-7.79-2-9.91-4.47-10.19-12.57-.39-11.28-.2-22.58-.24-33.87C348.13,2031.46,348.14,2025.82,348.15,2020.17Z"/><path class="cls-5" d="M348.18,1698.73c0-15.62-.13-31.23,0-46.84.14-12.14,2-14.23,13.87-16.66a145.08,145.08,0,0,1,15.73-2.54c6.84-.64,9.17,1.36,10,8a62.17,62.17,0,0,1,.28,8q0,40.86,0,81.72c0,15.59-.16,15.61-14.72,20.12-4.76,1.47-9.37,3.38-14.05,5.1-9,3.29-10.8,2.27-11.07-7s-.11-18.6-.12-27.9q0-11,0-21.92Z"/><path class="cls-5" d="M463.9,2020.53c0,16,.11,31.91,0,47.86-.11,12-1.64,13.74-13.15,16a139.94,139.94,0,0,1-16.75,2.54c-6.63.49-8.91-1.74-9.75-8.44a47.53,47.53,0,0,1-.24-6q0-42.38,0-84.75c0-1.66.11-3.32.11-5,0-6.09,2.65-10,8.82-11.53a132.25,132.25,0,0,0,21.58-7.67c6.89-3,9.13-1.63,9.26,6.08.29,17,.09,33.9.09,50.85Z"/><path class="cls-18" d="M498,1949.65c2.12,5.4,1.91,11.07,1.91,16.71q0,42.35,0,84.67c0,5.65-.18,11.32,2,16.71-5.39-2.35-3.86-7.29-3.89-11.32-.16-27.28-.1-54.55-.09-81.83C498,1966.28,498,1958,498,1949.65Z"/><path class="cls-3" d="M408,1242.28c7.88-7.68,15.83-15.26,23.61-23q291.63-291.51,583.15-583.11c3.53-3.53,10.74-6.69,8.43-12-1.88-4.31-9.14-2-14-2q-288.93-.12-577.85-.08c-7.33,0-14.66-.17-22-.26l42.74-43.3a4.47,4.47,0,0,1,3.56-1.21c7.18,1.19,11.88.19,8.79-8.87-.54-1.58.75-3,1.92-4.18l-.29-.06a16.15,16.15,0,0,1,2-2.06c3.62-3.44,7.32-6.8,10.85-10.33q269.4-269.28,538.76-538.59c3.53-3.54,6.94-7.2,10.41-10.8,17,0,34-.12,51-.12q272.91,0,545.81,0c7,0,14,.18,21,.27,2.42,4.72-.72,7.8-3.36,10.89a194.79,194.79,0,0,1-18.86,19.25c-16.6,14.71-23.14,32.63-23,54.94.69,87.9.28,175.82.28,263.73q0,118.88,0,237.76c0,25.33,2.62,27.57,28.18,28.15,6.3.15,14.28-3.74,18.69,4.77-4,4.41-8,9-12.19,13.19Q1338.9,932,1042.12,1228.66c-4.23,4.24-8.75,8.22-12.15,13.23-.07,6.32-.2,12.65-.2,19q0,289.22,0,578.43c0,6.65-.11,13.31-.17,20l-3.62-1.56c-2.8-7.72-3.05-15.72-3-23.84q.11-276.75,0-553.49c0-6.32.37-12.68-.66-18.95-1.66-10.15-7.4-14.28-19.43-14.25s-17.65,4.18-19.26,14.43c-1,6.27-.63,12.63-.63,19q0,253.77,0,507.54c0,4.66.18,9.33-.21,14-.27,3.25-.16,7-4.77,7.55-2.62-6.39-1.82-13.12-1.83-19.73q0-261.54,0-523.07c0-4.33.09-8.66-.08-13-.4-9.62-2.35-11.78-11.91-12-11.31-.22-22.63,0-33.95.07-4.06,5.23-9.85,4.9-15.6,5-27.15.3-29.59,2.73-29.6,29.88q-.06,209.22-.18,418.43c0,5.64,3.27,13-4.84,16.53-2.88-6-2-12.42-2-18.69q-.06-214.35,0-428.71c0-4.33.14-8.67-.21-13-.55-6.74-2.59-9.06-9.23-9.34-9-.39-18-.39-27,0-6.69.29-8.78,2.59-9.34,9.25-.36,4.3-.23,8.65-.23,13q0,190.86,0,381.73c0,4-.11,8-.44,12-.16,1.93-1.42,2.94-3.49,1.84-2.84-7.27-3-14.84-3-22.53q.09-179.77,0-359.57c0-28.52-1.82-30.33-30.65-30.74-5.51-.07-10.84-.28-14.75-4.94h-47.1c-4.56,5.34-10.77,4.83-16.89,4.88-25.82.21-28.55,2.92-28.57,28.77-.06,74.53.06,149.06-.18,223.59,0,5,2.91,11.76-4.83,14.51-2.53-5.71-1.88-11.78-1.89-17.74q0-117.42,0-234.82c0-19.24-.22-19.43-19.61-19.45-5.33,0-10.67-.15-16,.17-7.83.46-9.71,2.47-10.23,10.5-.24,3.65-.14,7.32-.14,11q0,92.94,0,185.86a102.71,102.71,0,0,1-.51,11c-.21,2-1.65,2.74-3.6,1.61-3.39-8-3-16.37-3-24.75q0-78.8,0-157.6c0-4,0-8-.08-12-.55-15.87-4.75-20.1-20.38-20.53a130.59,130.59,0,0,0-15.95.5c-3,.29-6,.56-8.47-1.64-2.55-3.1-6-4-9.8-4-8.29,0-16.6-.25-24.88,0-9.14.29-11.24,2.26-11.43,11.32-.29,13.93-.13,27.87-.14,41.81,0,19.57.08,39.15-.12,58.72,0,3.61,1.58,8.29-3.76,10.13-3-8.46-3.07-17.23-3-26.08.09-23.61.19-47.23-.06-70.84-.08-7,0-14.73-8-17.89-8.25-3.3-17-3.46-25.17.64-5.81,2.93-6.4,9-6.58,14.72-.44,13.63.09,27.27-.32,40.9-.12,3.93,1.44,9.14-4.83,10.44-1.95-4.76-1.78-9.78-1.79-14.77,0-15,.08-30-.07-44.94-.12-12.32-1.83-14-13.78-14.24-7.32-.13-14.66-.21-22,.14s-9.21,2.4-10.09,9.6c-.51,4.17,1.81,10.35-2.14,12-4.92,2.1-7.25-4.48-10.63-7.31C418.21,1251.79,414.09,1246,408,1242.28Z"/><path class="cls-18" d="M244.57,565.49a10.26,10.26,0,0,1,10.32,10,9.9,9.9,0,0,1-19.75.85A10.28,10.28,0,0,1,244.57,565.49Z"/><path class="cls-18" d="M464.18,401.51c-5.74.19-10.57-4.23-10.44-9.57.12-5,4.51-9,9.88-9.15a9.36,9.36,0,1,1,.56,18.72Z"/><path class="cls-18" d="M245.26,474.59c5.59.14,9.63,4.05,9.56,9.24a9.88,9.88,0,0,1-9.61,9.45c-5.5.13-10.34-4.67-10.09-10C235.36,478.16,239.67,474.46,245.26,474.59Z"/><path class="cls-18" d="M473.3,484.46a9.13,9.13,0,0,1-9.75,9c-5.33-.14-9.72-4.27-9.81-9.23-.09-5.35,4.75-9.73,10.51-9.49A9.1,9.1,0,0,1,473.3,484.46Z"/><path class="cls-18" d="M344.68,391.75a9.1,9.1,0,0,1,9.8-9c5.36.17,9.71,4.31,9.75,9.27,0,5.36-4.8,9.69-10.57,9.43A9,9,0,0,1,344.68,391.75Z"/><path class="cls-18" d="M466.36,564.25a43.22,43.22,0,0,1,4.79,4.88c3.24,4.55,2.84,9.83-.72,13.39s-8.8,4-13.4.7a43.93,43.93,0,0,1-4.94-4.72C454.14,571.05,458.28,565.67,466.36,564.25Z"/><path class="cls-18" d="M363.37,575.93c0,5.22-3.48,9.09-8.4,9.33a9.81,9.81,0,0,1-10.18-10,9.44,9.44,0,0,1,9.55-9.43C359.38,566.08,363.37,570.51,363.37,575.93Z"/><path class="cls-18" d="M353.79,474.78a9.33,9.33,0,1,1-9.11,9.55A9,9,0,0,1,353.79,474.78Z"/><path class="cls-18" d="M468.06,562.13l-2,2.06Z"/><path class="cls-5" d="M175.84,1008.24l-.09,57.27c-15.31.11-30.62.38-45.92.26-10-.08-12-2-12.18-11.51q-.39-17.46,0-34.93c.22-9.28,2.14-11.32,11.27-11.41C144.57,1007.77,160.21,1008.11,175.84,1008.24Z"/><path class="cls-5" d="M116,890q.26-20.73.51-41.45c.07-4.92-.27-9.89,1.4-14.67.56.26,1.11.52,1.71.75a10.72,10.72,0,0,1,3.16,7.43c.48,13.42.28,26.85.09,40.27a10.5,10.5,0,0,1-3,6.74,15,15,0,0,0-1.71.8Z"/><path class="cls-5" d="M174.19,890.15c-6.43,2.07-13.07,1.25-19.64,1.38-12.18.23-24.37.35-36.56.51,0-.72.08-1.44.13-2.16l.07-.08c1.21-2.45,3.93-4.24,5.84-4.24,15.95,0,32-2.84,47.81,1.68A4.87,4.87,0,0,1,174.19,890.15Z"/><path class="cls-4" d="M1647.84,622.05c-12,0-24,.09-36,0-14-.11-15.65-1.73-15.87-15.37,0-2.33,0-4.66,0-7,0-171.91.27-343.82-.35-515.72-.08-21.75,6.1-38.64,22.27-52.9a266.27,266.27,0,0,0,28-28.51l3.79.24c0,10.66.13,21.32.13,32q0,283.77,0,567.53C1649.76,608.93,1650.47,615.66,1647.84,622.05Z"/><path class="cls-4" d="M2352,84.3l-81.78-.18q-.09-40.86-.17-81.7l81.7.05v0c4.32,2.66,5,6.89,5.07,11.48q.33,29.64,0,59.27C2356.77,77.48,2356.61,81.92,2352,84.3Z"/><path class="cls-4" d="M2516,84.19l-82.11.12c-4-2.28-4.62-5.93-4.72-10.16-.5-20.15-.09-40.29-.21-60.44a14.47,14.47,0,0,1,4.91-11.48h0l81.7.4q.14,40.86.28,81.7Z"/><path class="cls-14" d="M2433.86,2.23q0,41,0,82.08l.11-.12c-3.17,4-7.52,5.17-12.32,5.14q-28.74-.18-57.46,0c-4.81,0-9.17-1.15-12.34-5.13l.11.1-.24-81.85Z"/><path class="cls-1" d="M2075.93,310.18c-5.08,2.1-10.45,1.86-15.77,1.86q-40.48,0-81,0c-2.66,0-5.33-.06-8,.11-8.88.55-11.16,2.57-11.31,11.67-.29,17-.13,34-.16,51,0,14,.13,28-.11,42-.18,10.78-2.36,13.1-13,13.16q-47,.25-94,0c-10.13-.06-12.41-2.37-12.47-12.6q-.3-46.46,0-92.93c.06-10,2.33-12.15,12.7-12.21,29-.17,58-.06,87-.11,17.36,0,18.19-.84,18.21-17.92q.06-42,0-83.93c0-5.33-.25-10.69,1.82-15.78,5,3,5,8,5,12.93.06,24.63-.12,49.27.08,73.9.16,19.92,4.07,23.74,24.27,23.89,24.64.19,49.28-.11,73.92.18C2067.81,305.36,2073.59,303.62,2075.93,310.18Z"/><path class="cls-1" d="M2075.93,310.18q-47.89,0-95.79,0c-3.32,0-6.66.1-10-.2-7.25-.66-9.32-2.69-10-9.84-.32-3.3-.22-6.64-.22-10q0-47.87,0-95.75c35.18-.1,70.36-.31,105.54-.23,9.81,0,12.06,2.15,12.12,11.69.2,31.52.08,63,.06,94.56A27.53,27.53,0,0,1,2075.93,310.18Z"/><path class="cls-21" d="M2075.21,875a10.09,10.09,0,0,1,9.86,10.34,10.41,10.41,0,0,1-9.55,9.75,10.1,10.1,0,0,1-10.37-9.84A10.36,10.36,0,0,1,2075.21,875Z"/><path class="cls-21" d="M1316.79,1057a10,10,0,1,1-.86,19.94,10,10,0,0,1,.86-19.94Z"/><path class="cls-21" d="M1641.55,1076.9a10,10,0,1,1,0-19.92,10,10,0,0,1,0,19.92Z"/><path class="cls-21" d="M1424.4,875a10,10,0,1,1,.1,20,10,10,0,0,1-.1-20Z"/><path class="cls-21" d="M1533.18,895a10,10,0,1,1,.56-20,10,10,0,0,1-.56,20Z"/><path class="cls-21" d="M1641.77,895a10,10,0,1,1-.43-19.94,10,10,0,0,1,.43,19.94Z"/><path class="cls-21" d="M1433.76,1241.88a32.88,32.88,0,0,1,1.12,5.86c.06,5.79-3.18,10.1-8,11.15s-9.56-1.66-11.74-7.06c-.72-1.8-.73-3.9-1.07-5.86C1421.86,1237.38,1423,1237.14,1433.76,1241.88Z"/><path class="cls-21" d="M1966.17,895a10,10,0,0,1,.45-19.94,10,10,0,1,1-.45,19.94Z"/><path class="cls-21" d="M1543.88,1246c-1.86,10-6.21,14.34-12.81,12.92s-8.81-6.82-6.92-17C1534.93,1237.14,1536.05,1237.38,1543.88,1246Z"/><path class="cls-21" d="M1976.67,1066.89a10.37,10.37,0,0,1-10.21,10,10,10,0,0,1-.14-19.94A10.39,10.39,0,0,1,1976.67,1066.89Z"/><path class="cls-21" d="M1434.7,1066.59a10.35,10.35,0,0,1-9.9,10.35,10,10,0,0,1-.72-19.94A10.32,10.32,0,0,1,1434.7,1066.59Z"/><path class="cls-21" d="M2085.06,1066.52a10.33,10.33,0,0,1-9.67,10.54,10,10,0,1,1,9.67-10.54Z"/><path class="cls-21" d="M1533.53,1057a10,10,0,0,1-.12,19.94,10,10,0,1,1,.12-19.94Z"/><path class="cls-21" d="M1326,1243.81c.23,2,.86,4,.61,5.85a10.37,10.37,0,0,1-9.86,9.35c-4.56.13-8.61-2.91-10-8-.59-2.18-.37-4.57-.52-6.86C1315.58,1237,1316.8,1237,1326,1243.81Z"/><path class="cls-21" d="M1858.08,875.05a10,10,0,0,1,.72,19.94,10,10,0,0,1-.72-19.94Z"/><path class="cls-21" d="M1749.89,1057c5.11,0,9.2,4.09,9.44,9.5.26,5.78-3.95,10.44-9.47,10.47a9.27,9.27,0,0,1-9.42-9.4C1740.3,1061.69,1744.48,1057,1749.89,1057Z"/><path class="cls-21" d="M1868.13,1067.4a9.84,9.84,0,0,1-9.64,9.54,10,10,0,0,1-.1-20A9.85,9.85,0,0,1,1868.13,1067.4Z"/><path class="cls-21" d="M1533.47,803.55c-5.88.08-10.57-4.25-10.39-9.59s5.15-9.58,10.78-9.39a9.25,9.25,0,0,1,9.15,9.66A9.36,9.36,0,0,1,1533.47,803.55Z"/><path class="cls-21" d="M2074.88,803.46a9.69,9.69,0,0,1-9.93-10.05,9.38,9.38,0,0,1,10-8.9c5.82.14,10.32,4.63,10,10A9.74,9.74,0,0,1,2074.88,803.46Z"/><path class="cls-21" d="M1759.33,884.56c.25,5.79-4,10.44-9.5,10.44a9.3,9.3,0,0,1-9.4-9.42c-.13-5.84,4.08-10.52,9.48-10.54C1755,875,1759.1,879.15,1759.33,884.56Z"/><path class="cls-4" d="M1966.19,985.45a9.48,9.48,0,0,1-.13-19c5.64-.15,10.62,4.23,10.66,9.4S1971.84,985.52,1966.19,985.45Z"/><path class="cls-4" d="M1868.24,975.81c.1,5.35-4.57,9.74-10.3,9.66a9.49,9.49,0,0,1-.34-19C1863.27,966.23,1868.13,970.49,1868.24,975.81Z"/><path class="cls-4" d="M1858.1,1167.4a9.19,9.19,0,0,1-9.57-9.15,9.32,9.32,0,0,1,9.91-9.83c5.29.16,9.61,4.2,9.8,9.17C1868.44,1162.93,1863.82,1167.39,1858.1,1167.4Z"/><path class="cls-21" d="M1641.29,985.48c-5.69-.24-10.14-5-9.67-10.29.45-5,5-8.77,10.26-8.7a9.34,9.34,0,0,1,9.47,10.27A9.43,9.43,0,0,1,1641.29,985.48Z"/><path class="cls-4" d="M1533.51,966.62A9.55,9.55,0,0,1,1543,976c0,5.63-4.45,9.78-10.27,9.48-5.47-.29-9.61-4.28-9.63-9.28C1523.09,970.88,1527.9,966.45,1533.51,966.62Z"/><path class="cls-4" d="M1434.8,975.94c.17,5.34-4.46,9.63-10.33,9.55a9.3,9.3,0,0,1-9.56-9.21,9.52,9.52,0,0,1,9.21-9.65C1429.71,966.32,1434.63,970.61,1434.8,975.94Z"/><path class="cls-21" d="M1315.9,985.47a9.25,9.25,0,0,1-9.34-9.41,9.35,9.35,0,0,1,10.18-9.58c5.29.28,9.53,4.44,9.56,9.42C1326.34,981.26,1321.62,985.61,1315.9,985.47Z"/><path class="cls-4" d="M1976.72,1157.67c.15,5.16-4.69,9.72-10.34,9.73a9.48,9.48,0,0,1-.49-19C1971.51,1148.2,1976.57,1152.51,1976.72,1157.67Z"/><path class="cls-4" d="M1533.59,1148.57a9.51,9.51,0,0,1,9.4,9.46c0,5.64-4.51,9.73-10.34,9.38-5.47-.32-9.6-4.36-9.57-9.34C1523.11,1152.77,1528,1148.35,1533.59,1148.57Z"/><path class="cls-4" d="M1434.83,1157.76c.23,5.31-4.39,9.68-10.23,9.68a9.34,9.34,0,0,1-9.68-9.1,9.56,9.56,0,0,1,9.09-9.76C1429.57,1148.2,1434.6,1152.46,1434.83,1157.76Z"/><path class="cls-21" d="M1316.47,1167.42a9.5,9.5,0,1,1-.31-19c5.28,0,9.79,3.92,10.15,8.84C1326.69,1162.57,1322.15,1167.26,1316.47,1167.42Z"/><path class="cls-4" d="M2084.93,975.63c.19,5.09-3.76,9.3-9.14,9.72-5.76.44-10.61-3.6-10.82-9a9.55,9.55,0,0,1,9.14-9.72C2079.86,966.16,2084.71,970.21,2084.93,975.63Z"/><path class="cls-21" d="M1651.33,1157.68a9.2,9.2,0,0,1-9,9.72c-5.69.31-10.57-3.88-10.73-9.23s4.51-9.79,10.22-9.74A9.25,9.25,0,0,1,1651.33,1157.68Z"/><path class="cls-4" d="M1956.85,793.63a9.29,9.29,0,0,1,9.67-9.08c5.66.09,10.45,4.73,10.2,9.87s-5.39,9.4-11,9.07A9.28,9.28,0,0,1,1956.85,793.63Z"/><path class="cls-4" d="M1858.27,803.53a9.5,9.5,0,1,1,0-19c5.3.07,9.69,4,10,9C1868.54,798.89,1864,803.45,1858.27,803.53Z"/><path class="cls-21" d="M1651.35,793.71a9.26,9.26,0,0,1-8.94,9.8c-5.68.36-10.6-3.82-10.81-9.15s4.44-9.83,10.15-9.81A9.27,9.27,0,0,1,1651.35,793.71Z"/><path class="cls-4" d="M2084.9,1157.76c.1,5.12-3.89,9.22-9.3,9.55-5.78.35-10.52-3.77-10.63-9.22-.09-5.1,3.92-9.22,9.31-9.55C2080.05,1148.19,2084.8,1152.31,2084.9,1157.76Z"/><path class="cls-4" d="M1750.42,1167.39a9.47,9.47,0,1,1,9-9.71A9.22,9.22,0,0,1,1750.42,1167.39Z"/><path class="cls-4" d="M1749.93,966.51a9.47,9.47,0,1,1-9.45,9.23A9.16,9.16,0,0,1,1749.93,966.51Z"/><path class="cls-4" d="M1759.4,794.4a9.15,9.15,0,0,1-9.58,9.09,9.48,9.48,0,1,1,9.58-9.09Z"/><path class="cls-4" d="M2642,540.25q.11-31,.21-62c0-3.33-.09-6.67.17-10,.63-7.79,2.64-10.12,10.56-10.22q31-.39,62,0c8.49.11,10.61,2.64,10.72,12.11.25,23.32.2,46.64.27,69.95l.09-.09q-33.36,0-66.74-.08c-2.32,0-4.65.08-7,.29-5,.45-7.84,3.27-8.25,8.3-.24,3-.3,6-.31,8.95,0,15.94,0,31.87,0,47.81,0,5,.07,10-1.74,14.74-4.11-1-4.7-4.33-4.75-7.7-.31-21.14-.57-42.28.1-63.42A10.4,10.4,0,0,1,2642,540.25Z"/><path class="cls-4" d="M2805.93,540.16c1.7-5.14,1.74-10.47,1.75-15.8q0-24.44,0-48.89c0-3,.07-6,.32-9,.42-5,3.27-7.81,8.3-8.31,1.32-.13,2.65-.24,4-.24,19,0,37.93-.16,56.89,0,10.24.11,12.33,2.18,12.44,12.45q.32,28.43,0,56.87c-.12,10.23-2.26,12.34-12.48,12.5-16.63.26-33.27.1-49.9.14-3.33,0-6.67-.09-10,.24-6.57.66-8.64,2.77-9.31,9.4a89.25,89.25,0,0,0-.21,9q0,23.45,0,46.89c0,5,.11,10-1.79,14.76-4.06-1.07-4.72-4.38-4.77-7.77-.3-21.18-.58-42.36.11-63.54A10.78,10.78,0,0,1,2805.93,540.16Z"/><path class="cls-4" d="M2351.87,84.2H2434q-.09,32-.19,63.93c0,3.33-.05,6.67-.33,10-.39,4.62-3,7.22-7.68,7.72a48.72,48.72,0,0,1-5,.27c-18.65,0-37.31.14-56,0-10.91-.1-12.92-2.07-13-12.92C2351.71,130.15,2351.85,107.18,2351.87,84.2Z"/><path class="cls-4" d="M2515.86,84.32c22.65-.06,45.31-.22,68-.14,12.15,0,13.9,1.84,14,14q.21,27.48,0,55c-.11,10.91-2,12.84-12.94,12.95q-28,.25-56,0c-10.92-.1-12.92-2.06-13-12.92-.14-23,0-46,.08-68.94Z"/><path class="cls-4" d="M2642,540.25q0,39.91,0,79.82c-3.76,1.63-7.74,1.84-11.75,1.84-18.63,0-37.26.12-55.88,0-12-.1-14-2.06-14.09-14q-.25-27.43,0-54.87c.11-10.91,2.09-13,12.9-13C2596.06,539.92,2619,540.15,2642,540.25Z"/><path class="cls-4" d="M2805.93,540.16v80.06c-2.92.54-5.84,1.52-8.77,1.54-19.9.15-39.8.28-59.69,0-9.52-.11-11.61-2.29-11.67-12.12-.14-23.2.09-46.41.16-69.62l-.09.09Z"/><path class="cls-21" d="M3129.65,293.13c5.25-.23,9.43,3.6,9.9,9.05.5,5.91-3.47,10.75-9,10.95s-10.06-4.52-10.09-10.13A9.69,9.69,0,0,1,3129.65,293.13Z"/><path class="cls-21" d="M3238.08,202.64c5.73,0,10.34,4.39,10.21,9.77a9.9,9.9,0,0,1-9.67,9.32,9.63,9.63,0,0,1-10-9.89C3228.63,206.53,3232.61,202.66,3238.08,202.64Z"/><path class="cls-4" d="M3130.4,202.67a9.52,9.52,0,0,1-.42,19,9.52,9.52,0,1,1,.42-19Z"/><path class="cls-4" d="M978,1809.62q0-272.8,0-545.61c0-4.66,0-9.34.41-14s3.15-7.42,7.73-7.72a234.57,234.57,0,0,1,34,.06c4.64.37,7.05,3.46,7.45,8,.27,3,.35,6,.35,9q0,291.3,0,582.59c0,5.34.06,10.68-2,15.76C1009.35,1842.3,993.2,1826.43,978,1809.62Z"/><path class="cls-4" d="M880,1711.74q0-222.9,0-445.79c0-4.33-.12-8.68.16-13,.54-8.3,2.67-10.66,11.06-10.88,13-.33,26-.12,39-.14q0,250.05-.09,500.1c0,4.32,0,8.65-.37,13-.27,3.13-2.09,4-4.83,2.12a16.14,16.14,0,0,1-2.26-1.95C908.47,1740.63,893.43,1727,880,1711.74Z"/><path class="cls-4" d="M779.56,1242c12,0,24-.19,36,0,12.46.14,14.16,2,14.42,14.74,0,1.66,0,3.33,0,5q0,190.18,0,380.36c0,6,.31,12-2,17.74-14.92-13.29-28.44-28-42.68-42a17.76,17.76,0,0,1-5.48-13.45c0-4.33-.08-8.65-.08-13q0-165.19,0-330.4C779.7,1254.64,779.61,1248.32,779.56,1242Z"/><path class="cls-4" d="M682,1513.76q0-126.12,0-252.23c0-19,.59-19.62,19.53-19.63,10.3,0,20.61.07,30.91.11q-.08,87.79-.17,175.59,0,63.86,0,127.7c0,3,0,6-.1,9-.07,2,.19,4.36-1.71,5.44-2.7,1.54-4.31-1-5.83-2.57C710.44,1542.66,695.37,1529,682,1513.76Z"/><path class="cls-5" d="M576.18,2012.16c-3-4.28-2.16-8.05-2.16-11.61q-.09-139.9,0-279.8c0-3.76-1.88-9.33,2.47-10.78,4-1.34,6.5,3.83,9,6.78,9.41,11.3,17.16,23.73,24.23,36.61a35.23,35.23,0,0,1,4.2,17.28q0,88.93,0,177.88a33.92,33.92,0,0,1-3.66,16.4c-8.55,15.9-18.23,31-30.51,44.34A37.13,37.13,0,0,1,576.18,2012.16Z"/><path class="cls-4" d="M582.1,1245.84a18,18,0,0,1,11.14-3.79c9.32,0,18.65-.3,28,.06,7.88.31,9.92,2.57,10.59,10.28.26,3,.19,6,.19,9q0,91.37,0,182.72c0,6,.3,12-2,17.74-14.94-13.25-28.39-28-42.68-41.92-4.76-4.65-5.41-10.37-5.39-16.5,0-24.6,0-49.2,0-73.8Q582,1287.73,582.1,1245.84Z"/><path class="cls-4" d="M484,1315.75q0-28.44,0-56.86a83.59,83.59,0,0,1,.4-9c.51-4.59,3.26-7.32,7.82-7.63a231.44,231.44,0,0,1,32.89,0c6,.45,7.82,2.81,8.53,9.09a83.57,83.57,0,0,1,.26,9q0,43.4,0,86.79c0,5.65.19,11.33-2,16.73C515.36,1348.45,499.18,1332.6,484,1315.75Z"/><path class="cls-5" d="M464,1699c0,15,0,29.91,0,44.87a65.07,65.07,0,0,1-.46,8.94c-.5,3.63-2.76,5.34-6.38,4.11q-13.69-4.61-27.29-9.51a7.91,7.91,0,0,1-5.28-6.71,50.55,50.55,0,0,1-.51-7q0-43.86,0-87.73a36.05,36.05,0,0,1,.34-6c.94-5.56,3.14-7.81,8.64-7.56a101.85,101.85,0,0,1,23.54,4c6.39,1.83,7.32,7.08,7.35,12.66.07,13.63.07,27.25.09,40.88Z"/><path class="cls-21" d="M1425.08,1441.05a10.45,10.45,0,0,1-10.39-9.85,10.22,10.22,0,0,1,9.71-10.42,10.48,10.48,0,0,1,10.43,9.82A10.37,10.37,0,0,1,1425.08,1441.05Z"/><path class="cls-21" d="M1326.64,1431a10.4,10.4,0,0,1-10.48,9.93,10.08,10.08,0,0,1,.28-20.15A10.41,10.41,0,0,1,1326.64,1431Z"/><path class="cls-21" d="M1326.38,1340.35a10,10,0,0,1-11,9.15,9.65,9.65,0,0,1,.94-19.27A9.88,9.88,0,0,1,1326.38,1340.35Z"/><path class="cls-21" d="M1434.87,1339.82c.14,5.12-3.92,9.29-9.42,9.69-5.88.42-10.55-3.68-10.65-9.36a9.7,9.7,0,0,1,9.32-9.81A10,10,0,0,1,1434.87,1339.82Z"/><path class="cls-21" d="M1326.4,1522.14a10,10,0,0,1-10.86,9.31,9.65,9.65,0,0,1,.63-19.28A9.93,9.93,0,0,1,1326.4,1522.14Z"/><path class="cls-18" d="M2464,1665.7q0-27.95,0-55.9c14.28,0,28.55-.15,42.82.06,10.7.17,12.83,2.32,13.06,13,.21,10.28.24,20.58-.05,30.86-.26,9.43-2.52,11.74-12,11.92C2493.19,1665.87,2478.58,1665.69,2464,1665.7Z"/><path class="cls-18" d="M2637.94,1665.73c0-13.93-.1-27.87.07-41.81.14-12,2.08-13.9,13.95-14.09,9.95-.16,19.91-.21,29.86.07,9.44.27,11.73,2.53,12,12q.42,15.92,0,31.85c-.25,9.41-2.53,11.71-12,11.89-14.6.27-29.21.1-43.81.12Z"/><path class="cls-13" d="M244.65,657.3a10.38,10.38,0,0,1,10.41,10A10.06,10.06,0,0,1,235,668,10.38,10.38,0,0,1,244.65,657.3Z"/><path class="cls-13" d="M582.9,758.94a10,10,0,1,1-10.49-9.74A10.19,10.19,0,0,1,582.9,758.94Z"/><path class="cls-13" d="M582.89,667.37a10,10,0,0,1-20,.41,10.38,10.38,0,0,1,9.82-10.48A10.18,10.18,0,0,1,582.89,667.37Z"/><path class="cls-13" d="M473.34,668.16a9.69,9.69,0,0,1-10.86,9,10,10,0,0,1-8.7-11.24,9.61,9.61,0,0,1,10.27-8.61A10.21,10.21,0,0,1,473.34,668.16Z"/><path class="cls-13" d="M244.52,749.18a10.17,10.17,0,0,1,10.42,9.76,10.31,10.31,0,0,1-9,10.22,10,10,0,1,1-1.46-20Z"/><path class="cls-13" d="M464,749.05a10,10,0,1,1-1.46,20,10,10,0,0,1,1.46-20Z"/><path class="cls-13" d="M463,861a10,10,0,0,1,.43-20.05A10,10,0,1,1,463,861Z"/><path class="cls-13" d="M354.61,841c5.17.13,9.11,4.35,9.2,9.83.09,5.91-4.27,10.43-9.82,10.18a10,10,0,0,1,.62-20Z"/><path class="cls-13" d="M363.8,758.73c.18,5.49-3.5,9.9-8.65,10.33a10,10,0,1,1-.72-20C359.62,749.12,363.61,753.23,363.8,758.73Z"/><path class="cls-13" d="M363.68,668a9.39,9.39,0,0,1-9.62,9.22,9.77,9.77,0,0,1-9.49-10.47,10.14,10.14,0,0,1,9.74-9.36C359.63,657.4,363.92,662.25,363.68,668Z"/><path class="cls-5" d="M117.89,833.88c3.08-1.58,6.43-1.64,9.76-1.65q19.48,0,39,.08c4.26,0,8.64,1,8.73,6.14.31,17.24,2.24,34.54-1.16,51.7l-.36-.32c-3.68-2.94-4.9-6.85-4.87-11.46,0-8.32.51-16.67-.42-25-1-9.17-4.82-12.94-14-14-8.29-.91-16.64-.39-25-.42-4.52,0-8.46-1.14-11.36-4.84Z"/><path class="cls-4" d="M1550,362.21q0,119.43,0,238.87a106.08,106.08,0,0,1-.34,12c-.7,6.09-2.72,8.41-8.94,8.66-11,.44-22,.45-33,0-6.67-.24-8.75-2.67-9.46-9.26a92.37,92.37,0,0,1-.26-10q0-216.87,0-433.76c0-3.66.09-7.33.26-11a15.08,15.08,0,0,1,5.58-11.28c12.2-10.38,22.86-22.35,34.36-33.46,1.44-1.39,2.8-2.86,4.28-4.2s2.86-3.24,5.07-2.56,2.18,3.15,2.27,5.09c.17,3.66.16,7.33.16,11Z"/><path class="cls-4" d="M1452,411.1q0,95.92,0,191.84c0,18.42-.71,19.09-19.12,19.13-6.66,0-13.33.13-20-.08-10.3-.32-12.31-2.33-12.79-12.32-.14-3-.08-6-.08-9V270c0-3.33.1-6.66.09-10a21.1,21.1,0,0,1,6.35-15.23c12.46-13,26.11-24.77,37.48-38.78,1.25-1.53,2.79-3.22,5-2.55s2.62,2.87,2.73,4.87c.2,3.66.29,7.32.29,11Q1452,315.18,1452,411.1Z"/><path class="cls-4" d="M1354,460.23q0,67.44,0,134.88c0,6,.14,12-1.37,17.88-1.63,6.39-3.72,8.56-10.33,8.8-10.65.38-21.33.4-32,0-7.32-.26-9.37-2.59-10.08-9.73a89.59,89.59,0,0,1-.22-9c0-78.93.19-157.87-.21-236.8-.07-12.32,3.38-21.67,12.64-29.81,10-8.77,19-18.69,28.65-27.85,2.48-2.34,5.29-6.22,9.3-4.29,3.24,1.56,2.93,5.76,3.18,9,.36,4.64.4,9.31.41,14Q1354,393.79,1354,460.23Z"/><path class="cls-4" d="M1254,509.79v91.83c0,3,.07,6-.12,9-.58,8.85-2.61,11-11.68,11.32-9.64.29-19.31.3-29,0-8.41-.29-11-2.57-11-10.84-.16-51.57-.06-103.15,0-154.72a17.33,17.33,0,0,1,5.29-12.56q19.38-19.45,38.8-38.86c1.39-1.38,2.83-3.36,5-2.79,2.92.76,2.43,3.63,2.57,5.85.19,3,.13,6,.13,9Z"/><path class="cls-4" d="M1155.93,559.1c0,16.33.13,32.66,0,49-.13,11.85-2.15,13.75-14.22,13.94-9.33.14-18.67.22-28-.09-9-.31-11.36-2.47-11.52-11.45-.27-15.65-.16-31.32.07-47A38.13,38.13,0,0,1,1112,538c11-12.51,23.3-23.8,35-35.68,1.59-1.63,3.35-3.83,5.93-3,3.14,1.06,2.92,4.23,2.94,6.81.12,16.32.12,32.65.15,49,0,1.34,0,2.67,0,4Z"/><path class="cls-13" d="M572.82,585.4A10.1,10.1,0,0,1,563,575.15a10,10,0,0,1,9.58-9.5A10.26,10.26,0,0,1,583,575.41,10.15,10.15,0,0,1,572.82,585.4Z"/><path class="cls-13" d="M582.93,483.4a10,10,0,0,1-19.94.88c-.3-5.17,3.57-9.4,9-9.85C577.87,474,582.71,477.93,582.93,483.4Z"/><path class="cls-5" d="M118.17,834.19c14.25,0,28.5-.26,42.74-.07,10.63.15,12.83,2.35,13,13,.19,14.24,0,28.48-.06,42.73l-55.64,0Q118.19,862,118.17,834.19Z"/></svg>