<svg id="Layer_1" data-name="Layer 1" xmlns="http://www.w3.org/2000/svg" viewBox="0 0 3508 2482"><defs><style>.cls-1{fill:#262626;}.cls-2{fill:#2d2d2d;}.cls-3{fill:#3d3d3d;}.cls-4{fill:#303030;}.cls-5{fill:#2c2c2c;}.cls-6{fill:#4d4d4d;}.cls-7{fill:#383838;}.cls-8{fill:#2b2b2b;}</style></defs><path class="cls-1" d="M0,1242V.51H24.73Q1761.82.51,3498.9.63c2.93,0,6.78-2.3,9,1.88a14.18,14.18,0,0,1-11.42,5c-4-.1-8,0-12,0q-272.9,0-545.8,0c-6.32,0-12.66-.23-19,.63-8.39,1.15-13.11,5.94-14.21,14.31-.84,6.3-.61,12.64-.61,19q0,237.31-.06,474.64c0,13.06.66,26.12-2,39.17-2.27,11.26,5.33,21.75,4,33.2-.44,4,.06,8-.52,12q-1,6.93-1.38,13.91c-.68,11.38-1.91,12.72-13.33,12.84-28.65.27-57.29.08-85.94.1-41,0-81.94,0-122.91,0-5.53,0-11,0-16.46-1.27-8.89,1.46-17.88,1.24-26.86,1.24-45.63,0-91.27-.11-136.91.06-16.57.06-20.54,4.74-19.25,21.26,6.84,87.79,36.94,166.51,92.14,235.35,33.33,41.55,73.85,74.67,119.95,101.11,49.27,28.25,102.49,44.39,158.69,51.08,11.54,1.37,23.21,1.91,34.8,3,5.33.51,11.34-.49,15.15,5a31.27,31.27,0,0,1,.75,7.94q.12,90.82,0,181.63c0,12-1.4,13-13.77,13.3-11.3.27-22.51-2.84-33.82-.88-8.95,1.35-16.86-.15-25.59-4-10.73-4.79-23.53-3.19-35.39-4.71-50.53-6.46-98.47-22.06-145.07-42a606.48,606.48,0,0,1-162.35-102.61q-118.16-103.86-174.32-250.94c-12.64-33.32-23.34-67.24-28-102.6-2-15-5.2-30.11-4.58-45.19,1.45,7.66-2.75,10.45-9.06,11.87-11.1,2.5-22.49,2.08-33.7,2.92-19.53,1.47-39,3.63-58.6,4.6-13.43.67-17.14,4.89-15.68,18.28,1.23,11.22,2.07,22.51,4.22,33.6,1.88,9.68,5.19,12.12,15,12.16,28,.1,55.71-3.16,83.51-5.43,14.79-1.21,19.17,2.13,19.24,17,.06,11,.27,21.94-.17,32.9-.15,3.72.93,8.27-3.93,10.37a38.58,38.58,0,0,0-7.75,5.19,4.44,4.44,0,0,1-3.77-.31c-6.95-1.72-13.91-2.25-20.95-.26-1.29.13-2.54.24-3.78.34a182.82,182.82,0,0,1-21.59.35c-1.25.06-2.49.08-3.73,0-10.78.27-21.54,1.38-32.33,0-4-.51-12,8.12-11.26,12.94,1.36,9,.63,18.31,4.25,27,1.15,1.75,1.9,3.54.85,5.6-2.15,7.55.33,14.77,1.85,22,1.07,5.09,4.9,4.36,9.37,4.63,19.12,1.16,38.24-.59,57.31.88,2,.15,2.71-1.51,4.29-1.4a14.39,14.39,0,0,1,11.55-.53c4.69,3.55,11,.58,15.76,4,4.3,1.87,3.91,5.93,3.89,9.34-.15,23.52.15,47-.07,70.55,0,3.77.4,8.27-4.73,9.79-9.08,2.7-18.4,2-27.63,1.33-5.09-.4-9.61.24-13.73,3.27-2.76.51-5.36,1.79-8.22,1.78-8.82-4.53-17.62-4-26.36.22a16.87,16.87,0,0,1-3.22-.73c-4.33-.35-8.53-.57-5.42,6a16.33,16.33,0,0,1-.15,3c0,3.85-.38,7.82,3,10.76a4,4,0,0,1,1.58,4.73c-1,7.14,4.15,5.13,7.28,4.22,6.25-1.84,12.77-2.17,19-4.26,4.73-1.59,10-.6,14.85,1.17a9.45,9.45,0,0,1,1.95,2.85c-.46,5.68-4.45,7.56-9.25,8.36-5.58.92-11.16,1.74-16.51,3.8,13.09-4.36,27.62-.09,40.31-7.24,2.83-1.6,6.29-2.06,9.51-2.91,13.34-3.51,18.66-.45,17.9,14.42-.73,14.3.12,28.61-.08,42.91-.05,3.73,1.17,8.22-3.42,10.65-8.15,5-17.08,6.61-26.54,6.58-9.71,0-19.21,1.88-28.54,4.41s-13,7.14-12.49,16.56c.41,7.95.85,15.93,1.64,23.86,1,10.2,5.69,13.92,15.9,13.61,12-.36,23.84-2.24,35.81-2.5,5.54-.13,12.78-.58,13.16,6.94.34,6.54-6,7.17-11.55,8.46-12.74,3-25.48.28-35.75,1.41,10.82-.36,24.05.73,37.3-1.22,9.77-1.44,13.82,2.12,14.29,11.37.58,11.63.38,23.28.21,34.92-.06,3.83-.71,7.32-4.75,9-5.08,3.27-10.81,2.93-16.47,2.93-50,0-100.16-2.66-150,.59-108.21,7.08-216.43,1.09-324.61,3.4-4,.09-8,.11-12-.12s-8.81-.95-8.89-5.95c-.07-4.41,4.26-5.41,8.08-5.74,9.28-.79,18.46-2.46,27.87-2.25,12.32.28,24.66.38,37-.08,13.55-.5,18.31-5.15,17.45-18.61-1.19-18.59-2.15-37.21-4-55.76-1-10.62-5.6-14.79-17.35-15.15-19-.59-38-1.27-57,.24-23.91,1.9-47.9,1.46-71.81,3.39-15.4,1.25-18.8,4.33-19.45,20.2-.88,21.35,3,42.51,2.08,63.87-.61,14.71-1.34,16-16.09,15.93-34.32-.22-68.68-1-103-.62-106.64,1.34-213.28.37-319.91.44-29.18,0-58.21-5.57-87.54-4-4.81.26-8.82-2.44-12.85-4.94-5.55-3.44-6.88-6.89-3-12.94,7.27-11.42,7.88-23.9,2.8-36.39-2.08-5.12-2.49-10.3-2.57-15.63-.11-7.28-3.93-11-11.05-11.54a149.45,149.45,0,0,0-23-.15c-17.28,1.42-34.58,1.8-51.9,2.07-13.09.2-17.36,4.61-17.79,17.61-.57,17-.07,34-.22,51-.13,13.6-1.46,15-14.72,15.11-14.33.13-28.66,0-43,0q-213,0-425.94.15c-23.81,0-47.41-2.86-61.75-3.13,42.33-.58,91.05,13.53,138.83,31.3,92.86,34.55,173.07,88.65,240.09,161.32,79.94,86.69,132.1,188,155,304.14,7.17,36.42,10.54,73.1,11.44,110.09.35,14.62-1.18,15.83-16,15.84q-88.49.09-177-.06c-4.4,0-9.47,1.46-12.84-3.22-3.81-23.33-3.73-47.09-8.06-70.38-25.42-136.61-99-238-222.11-302.84-56.4-29.72-116.87-44.28-180.61-45.39-11.63-.2-12.91-1.57-13.23-13-.15-5.32-.06-10.66-.06-16q0-686.2,0-1372.42c0-7,.42-14-.56-21C415,12.56,409.67,8.13,399.37,8c-10.77-.15-16.43,4.42-17.84,14.72-.91,6.62-.53,13.31-.53,20q0,588.75,0,1177.5c0,5.33-.12,10.66-.08,16,.07,7.57-3.76,10.8-11,10.72-.67,0-1.33,0-2,0-17.65.61-18.9-.54-18.9-18.37Q349,635.83,349,43.08c0-7,.44-14-.61-21C346.9,12.34,341.42,8,331.05,8S315.14,12.32,313.63,22C312.55,29,313,36,313,43q0,584.76,0,1169.51c0,5.33,0,10.66,0,16-.07,17.32-8.38,23.09-25.47,17.89-4.18-1.27-5.82-4.1-6.21-8.05-.49-5-.3-10-.3-15q0-320.37,0-640.73c0-6,.22-12-.3-18-1.05-11.86-6.55-17-17.91-16.84-10.94.13-16.28,5.07-17.42,16.35-.61,6-.36,12-.36,18q0,320.86,0,641.73c0,24,1.75,23.13-23.38,23.13q-60.49,0-121,0c-12.7,0-25.43.41-38-1.06-6-.7-11.17-.62-16.83,2.38-6.12,3.23-13.2,0-19.87.17-5.45-.78-10.91-1.24-16.4-1.62C5.73,1246.63,2.24,1245.4,0,1242Z"/><path class="cls-2" d="M844,1861.74q89.49,0,179,0c18,0,19.68-1.49,18.87-19.28-4.08-89.28-23.91-174.53-63.85-255a643.93,643.93,0,0,0-84.37-128.26c-47.66-56.69-104.72-102.31-169-138.86-74.07-42.11-153.84-66.55-238.39-75.86-3.93-.43-7.89-.61-11.88-2.51H1018.5c4.33,0,8.68.13,13-.2,7.71-.59,9.78-2.7,10.3-10.61.32-5,.17-10,.18-15,0-15.33-.13-30.66.15-46,.17-9.53,2.5-12.21,12-12,30.67.72,61.22-3.37,91.89-2.18,2.66.1,5.33.18,8,.42,1.79.16,3.54,1,3.31,3-.54,4.74,5.26,9.5-.68,14.48-1.82,1.52-.06,5.73,1.25,8.48,7.12,14.89,5,30-.13,44.63-1.55,4.43-.41,5.93,2.47,8a16,16,0,0,0,9.46,2.72c13.67.07,27.33.13,41,0a29.47,29.47,0,0,0,8.79-1.66c4.81-1.6,9-2.07,12.42,2.76,1.64,2.36,4.44,2.83,7.16,2.93,3.33.14,6.66.2,10,.2q149.49,0,299,0c13.65,0,27.19-2.66,40.9-1.33,26.93,2.6,54,.81,80.93,1.29a68.66,68.66,0,0,0,8-.19c7.24-.7,9.62-2.7,9.91-9.9.34-8.64.71-17.42-.4-25.94-2.38-18.28-.44-36.63-1.82-54.91-.44-5.8,1.61-7.6,7.4-8.63a14.27,14.27,0,0,1,3-.25c19.35.7,38.59-1.71,57.88-2.47q43.47-1.71,86.91-1.64c19.56,0,20.54,1.39,21.42,20.94,1,21.94,2.8,43.84,4,65.78.63,11.73-.74,13-12.92,13.16-13.33.16-26.66.23-40,0a133.3,133.3,0,0,0-32.86,3.53c3,.17,6.09.48,9.13.48q143.49,0,287,0c6.7,0,13.27-.39,19.71-2.61,5.44-1.87,11.2-1.39,16.86-1.39q83.49,0,167,0a3.47,3.47,0,0,1,3.67-.71,4.58,4.58,0,0,1,1.76,3.41,105.61,105.61,0,0,1,1.63,20.86q-.06,598.67-.07,1197.33c0,6.61.93,13.38-2.32,19.64a27.57,27.57,0,0,1-2.65,3q-1136.46,0-2272.93-.12c-2.93,0-6.78,2.3-9-1.88,4-5.22,9.78-4.87,15.49-5,34.4-1.07,68.74,3.09,103.07,1.79,91.77-3.46,183.57-.7,275.34-1.86,18.18-.23,22.89-5,23-23.64.29-65,.12-129.95.07-194.92a256.79,256.79,0,0,1,1.05-26.18c.64-6.33,1.92-12.28-3.2-17.87-2.3-2.51-1.53-6.94-1-10.58,3.12-27,.13-30.54-26.72-30.55q-184.81,0-369.64,0c-6.25,0-12.93,1.17-17.48-5v-2c3.56-4.27,8.31-4.74,13.54-5,20.91-1.15,41.66,2,62.52,1.87,105.55-.92,211.11-2.57,316.68-2,19.57.11,24.08-4.62,24.16-24.35.23-63.55.07-127.11.07-190.67a213.09,213.09,0,0,1,1-22.87c.79-7.26,2.13-14.5-3.27-21.09-2.29-2.8-1.3-7-.81-10.69,1.76-9.88-.36-20.5,5.62-29.58,5.43-1.32,10.82-2.58,16.52-2.56,73.3.2,146.6-.15,219.9.2,57.88-.29,115.76-.09,173.63-.14C835.09,1856.75,840.25,1857.05,844,1861.74Z"/><path class="cls-3" d="M2282,2479.47c0-3.67-.08-7.33-.08-11q0-605.31,0-1210.63c0-6,.15-12,.23-18,4-3.1,8.76-2.83,13.41-2.83q246.42-.15,492.83.14c18.54,0,37.07,2.68,55.65,3.45,3.3.14,6.59,1.07,9.76-.6a178.58,178.58,0,0,1,27.93,1.15,55.22,55.22,0,0,0,10,.31c4.64-.23,7.34-2.89,7.83-7.52a75.65,75.65,0,0,0,.35-8q0-90.93-.09-181.84c-5.27-3.92-4.87-9.61-4.87-15.25q0-69.38,0-138.76c0-4,.08-8-.12-12-.62-12.36-3.69-15.68-16.14-17-47.87-5-91.35-21.32-128.65-52-49.93-41-80.2-93.46-88.71-157.9-.91-6.92-.11-14-1.39-20.88-.7-3.74,1.59-6,4.17-8.06l211.69-.23c4,0,8,.09,12-.08,9.76-.39,11.72-2.3,12.17-11.74.16-3.32,0-6.66.06-10,1.84-17.09,1.78-34.31,4-51.4a133.18,133.18,0,0,1,7-29.07c45.54-123.82,131.78-200.37,263.82-217.46,96.59-12.51,181.07,18.42,251.77,86.15,30.25,29,53.26,62.68,70.89,100.52,6.48,13.92,7.39,28.71,10.48,43.19v1947.2c-3.1,1.89-6.52,1-9.77,1q-603.2.07-1206.39,0C2288.49,2480.44,2285.07,2481.4,2282,2479.47Z"/><path class="cls-4" d="M844,1861.74l-188.13-.06c-3.86-2.77-4.66-6.71-4.89-11.22-2.86-54.9-22.29-103.43-59.3-143.87-38.47-42-86.77-66.6-143.68-73.28-17.31-2-20.92,1.26-21,18.63-.14,63.91,0,127.83-.2,191.74,0,4.65,2.88,11.15-4.86,13.34-5.52,1.53-11.15,1.74-16.82,1.74q-193.85,0-387.69,0c-6.29,0-12.86.91-17.47-5v-4c6.84-8,16.75-5.82,25.22-6.65,70.69-6.95,130.65-36.65,179.66-87,45.9-47.17,73.65-104.29,81.67-169.93,10.9-89.24-11.86-169.06-70.39-237.84-48.09-56.51-109.87-88.3-182.89-99.24-3.47-.52-11.2,2-7.44-6.94l193-.15a111.18,111.18,0,0,0,12-.31c6.19-.66,8.26-2.64,8.89-8.75a135.46,135.46,0,0,0,.35-14q0-325.85,0-651.68c0-5-.14-10,.32-15,.61-6.59,2.88-9.2,9.31-9.55a258.11,258.11,0,0,1,27-.06c6.55.33,8.54,2.74,9.1,9.59.38,4.63.23,9.32.23,14q0,326.34,0,652.68a135.66,135.66,0,0,0,.33,14c.7,6.62,3.8,8.95,10.83,8.88s9.88-2.41,10.57-9.2c.43-4.3.29-8.66.29-13q0-238.87,0-477.76Q308,384,308,26.19c0-4.67-.15-9.35.26-14,.58-6.67,2.71-9.08,9.3-9.39,9-.43,18-.43,27,0,6.54.33,8.6,2.76,9.14,9.55.4,5,.25,10,.25,15q0,595.22,0,1190.41c0,5-.16,10,.32,15,.65,6.71,3.7,9,10.7,9s10-2.35,10.68-9.07c.48-5,.32-10,.32-15q0-595.2,0-1190.4c0-5-.15-10,.25-15,.55-6.77,2.62-9.19,9.17-9.52,9-.45,18-.45,27,0,6.58.32,8.73,2.74,9.28,9.41.42,5,.26,10,.26,15q0,691.16,0,1382.31c0,4.33,0,8.66,0,13,.1,16,1.27,17.28,16.89,17.35a271.35,271.35,0,0,1,27.91,1.61c64,7,123.66,27,178.05,61.35,66.21,41.75,118,97.08,153.4,167.34,24.44,48.49,39.4,99.55,44.18,153.68C843.53,1836.48,844,1849.08,844,1861.74Z"/><path class="cls-5" d="M3507.9,532.29c-6-15.88-11-32.12-18.44-47.46-15-30.79-33.72-58.78-57.42-83.66a307.07,307.07,0,0,0-106.25-73.11,296.18,296.18,0,0,0-96-22c-82.51-5-155.72,19.09-218.1,72.57-64.74,55.51-101.54,126.63-109.9,211.94-.32,3.29-1.2,6.52-1.81,9.79l-.06-500.71q0-39,0-78c0-3-.08-6,.2-9,.68-7.24,2.7-9.34,9.89-10,4-.34,8-.22,12-.22H3507.9Z"/><path class="cls-6" d="M25.83,1242.12c2.92.63,5.82,1.42,8.77,1.87q145.67,22.18,219.9,149.41c27.19,46.73,39.79,97.49,39.89,151.73.14,71.32-21.35,135.16-65.34,190.85-51.32,64.94-118.45,102.77-201.16,112.13A211.52,211.52,0,0,1,0,1849.75V1637.84c3-4.14,7.54-5,12.09-6.15,41.68-10.47,66.25-37,70-79.49a86.33,86.33,0,0,0-65-91.43c-5.94-1.52-12.88-.86-17.06-6.86V1242Z"/><path class="cls-1" d="M0,2165.62H398.82c4.33,0,8.68-.14,13,.21,7.7.63,10.17,3.24,9.62,10.88s-1.72,15.22-1.43,22.9a2.23,2.23,0,0,1,.76,1.64c0,.63-.08.94-.21.94a18.61,18.61,0,0,0-.56,7.16c-.39,38.84-14,73.84-32.94,106.73C337.83,2401.38,264.89,2454.67,167.9,2473c-27.73,5.25-56.33,3.68-84.72,2.62-24.06-.9-47-5.63-69.65-13-5.48-1.78-10.12-4.45-13.53-9.13Z"/><path class="cls-1" d="M0,1853.75l410.78,0c3.66,0,7.32.1,11,.16,5.19,2.37,2.92,5,.31,7.73-1.15,8.67-2.5,17.33-2.08,26.13a2.26,2.26,0,0,1,.61,2.44c-.9,2.16-.71,4.42-.62,6.67-.37,2.32.39,4.67-.13,7s-1.41,4.81-.9,7.37c-1.15,1.47,1.09,3-.12,4.47.22,2.36-1.4,4.47-.88,6.86-4.85,29.38-16.43,56.38-31,81.91-42.24,73.81-104.29,123.36-185.43,149.16-17.46,5.55-35.51,6.88-53.45,8a576.3,576.3,0,0,1-101.63-2.85c-13-1.51-25.32-5.44-37.58-9.77-4-1.4-6-4.81-8.83-7.36Z"/><path class="cls-4" d="M420,2201.59c0-.65,0-1.31,0-2,1.89,4.76,2,9.76,2,14.77q0,124.43,0,248.86a59.74,59.74,0,0,1-.18,6c-.73,7.27-2.69,9.39-9.87,10-4.3.37-8.65.23-13,.23H0v-26c15.05,2.94,29.22,9,44.24,12.19,79.4,17,154.45,5.53,224.21-35.68,76.34-45.09,124.5-111.66,145.31-197.86,1.95-8.06,2.86-16.37,4.25-24.56C419.89,2206,418.08,2203.18,420,2201.59Z"/><path class="cls-4" d="M0,2141.63c16.57,3.72,32.46,10,49.25,13,27.94,4.9,55.8,8,84.39,5.65a317.87,317.87,0,0,0,103.21-25.74,301.46,301.46,0,0,0,81.9-52.86,312.9,312.9,0,0,0,70.87-93.36A313.75,313.75,0,0,0,414,1919.71c1.88-1.6.07-4.41,2-6,0-1.33,0-2.66,0-4,1.88-1.59.07-4.4,2-6l0-8c1.88-1.6.07-4.41,2-6,0-.66,0-1.32,0-2,1.89,4.76,2,9.75,2,14.77q0,122.43,0,244.86a59.74,59.74,0,0,1-.18,6c-.73,7.27-2.69,9.4-9.87,10-4.3.37-8.66.23-13,.23H0Z"/><path class="cls-4" d="M0,1453.91c33,.12,57,16,74,43.08,33.2,53,4.15,124.33-56.19,138.92A64.25,64.25,0,0,1,0,1637.84Z"/><path class="cls-7" d="M2282,2479.47l1225.92,0c-.44.62,1,2.08-1,2-2.67-.09-5.33,0-8,0h-1217C2282,2480.82,2282,2480.14,2282,2479.47Z"/><path class="cls-3" d="M1534.05,268.48l2-.15c1.07-1.21,3-.69,4-1.9.67,0,1.33-.07,2-.12,1.08-1.19,3-.68,4-1.87.65,0,1.3-.06,2-.11,1.09-1.21,3-.71,4.07-1.88.6,0,1.2,0,1.79-.09,1.82-8.37,7.67-3.91,12.15-3.81a517.22,517.22,0,0,1,89.94-12.17c2.83-3,6-4.89,10.39-4.9a293.84,293.84,0,0,1,54.11,4.93c3.8.71,8,1.44,9.48,6h0c2.29,2.17,5.64-.16,8,1.89a390.89,390.89,0,0,1,92,32.16c21.55,10.59,41.59,23.65,60.73,38.1,2.92,2.21,5.72,4.58,9.17,5.95,8.46,2.05,15.14,7,21.34,12.87a386.2,386.2,0,0,1,62,75.37c3,4.72,6.81,9.27,4.63,15.56,2.29,7.38,6.23,14,9.72,20.79,15.49,30.15,25.82,62,32.52,95.19,13.08,18.67,12.76,40.25,9.84,60.88-1.65,11.67-1.63,23.48-3.87,35-1.2,20.18-5,40-8.15,59.92,3.26,25.14-9.64,46-17.77,68.24-2.3,6.3-6,11-12,13.86-8.36,16.58-18.34,32.2-28.19,47.91,1.07,5.2-.85,9.36-3.93,13.52a333.08,333.08,0,0,1-38.42,43.11c-3.47,3.3-8.1,2.81-11.66,5.23-22.29,19.13-45.65,36.73-71.42,51.07-42.16,23.47-87.09,38.49-135,44.34q-114.24,14-217.46-37.29c-45.12-22.48-82.89-54.22-116.12-91.73-3.4-.75-5.54-2.65-5.79-6.28-12-16.22-23.78-32.58-34.2-49.87-3.7-2.07-7.48-3.63-9.71-7.94-12-23.06-22.87-46.49-29.45-71.76a16.07,16.07,0,0,1,1.25-12.32c-3-18-7.49-35.81-9.06-54.08-.28-3.31-.67-6.62-1-9.92-2.63-7.84.72-16.16-1.92-24l0,0a15.49,15.49,0,0,1-2.23-1.93c-5.19-7.8-2.24-38.63,4.27-45.9,2.42-7,2.66-14.32,3.87-21.49,5.12-30.58,14.56-59.85,26.12-88.51-2.89-12.88,12.11-40.77,23.8-44.27q56.14-91,151.53-139.47c4.15-2.11,8.34-4.15,12.51-6.23,2.86-7.95,9.45-9,16.74-10.1C1526.41,269.69,1530.53,270.58,1534.05,268.48Z"/><path class="cls-5" d="M2588.92,568.26q-117,0-234,0a106.32,106.32,0,0,1-12-.33c-6.1-.7-8-2.72-8.74-8.93a76.94,76.94,0,0,1-.28-9q0-237.37,0-474.76c0-17.84.9-18.75,18.52-18.75q237.47,0,474.94,0c17.62,0,18.51.91,18.51,18.76q0,237.38,0,474.76c0,17.18-1,18.23-18,18.24Q2708.41,568.29,2588.92,568.26Z"/><path class="cls-2" d="M732,754.22q79,0,158,0c17,0,18,1.06,18,18.24q0,158.91,0,317.82c0,16.53-1.19,17.74-17.5,17.75q-159.48,0-319,0c-16.33,0-17.5-1.2-17.51-17.74q0-159.42,0-318.83c0-15.87,1.33-17.22,17-17.23Q651.5,754.17,732,754.22Z"/><path class="cls-4" d="M2664.08,622.39c2.47,19.78,3.1,39.76,8.54,59.18,11,39.24,30,73.57,58.43,103,39.59,41.07,87.79,63.84,144,70.66,4.95.6,10,.58,14.93,1.1,7.2.75,9.08,2.76,9.8,10.06a48.84,48.84,0,0,1,.16,5q-.06,86.37-.13,172.74c-63.17-.59-123.57-13.72-180.74-40.7-34.18-16.14-65.4-37-94.2-61.49-45.55-38.78-80.88-85.39-106.58-139.26-21-43.94-34.12-90.15-38.51-138.75-.75-8.28-2-16.5-1.88-24.86.2-15.26,1.48-16.78,16.39-16.84,21.65-.09,43.29,0,64.93,0Q2611.65,622.3,2664.08,622.39Z"/><path class="cls-6" d="M2853.82,1240c-4.76,1.89-9.76,1.9-14.76,1.9H2297.9c-5.33,0-10.67,0-15.74-2-.1-.63-.21-1.26-.33-1.88-2-7.87-1-15.88-.79-23.79.82-30.75-6.34-61.11-4.24-91.93.45-6.51.73-12.81,4-18.61.26-19.14-.11-38.27.22-57.38.08-4.48-1.92-8.29-2.47-12.5a57,57,0,0,1,1.47-32.3,19.23,19.23,0,0,0,.89-5.82c0-2-.1-4,0-6,2.87-48.47-5.34-96.6-4.5-145,.11-6.49,4.16-11.1,4.32-16.81.44-16.27,3.05-33.24-.55-48.7-5-21.46-1.69-42.61-3.26-63.81-.7-9.4,5.05-17.63,4.9-26.94l2,.36c2.8,33.65,9.57,66.59,18.65,99,26.89,96.05,73.94,181,141.93,254C2548.16,1153.31,2676,1218,2827,1237.32,2835.89,1238.47,2844.87,1239.15,2853.82,1240Z"/><path class="cls-5" d="M1145.2,152.4c.55-4.08.8-6,1.07-8,.7-5.19,4-7.38,8.91-7.65a31.26,31.26,0,0,1,4,0c50.56,3.71,101.19.78,151.78,1.7,4,.07,8-.07,12,.12,10.27.49,12.59,3,13,13.48a24.86,24.86,0,0,1,0,3c-2.8,33.66,2,67,3.67,100.52.28,5.64.48,11.32.26,17-.35,9.1-2.45,11.15-11.26,11.75-2.66.18-5.33.12-8,.12-16.65,0-33.32.44-50-.08-34.32-1.07-68.52,3-102.82,2.08a97.4,97.4,0,0,1-11-.46c-5.92-.86-8.13-3.36-8.37-9.29-1.69-42.21-8.2-84-11.2-126.08-.18-2.64-.45-5.29-.47-7.94a2.78,2.78,0,0,1,2.12-3,2.69,2.69,0,0,1,3.06,2C1143,144.38,1143.7,147.27,1145.2,152.4Z"/><path class="cls-2" d="M628,282.22V234.29c0-2.33,0-4.66,0-7,.14-15.54,1.39-16.81,17.37-16.85,19-.06,38,0,56.94,0,.66,0,1.33,0,2,0a42.66,42.66,0,0,1,23,5.62c65.9,35.9,104.79,90.57,115,165.18a106.77,106.77,0,0,1,1.37,14.89c0,6.75-2.27,9.64-8.7,9.81-15.63.42-31.3.46-46.93,0-7.17-.2-9.46-3.08-9.8-11.21a127.63,127.63,0,0,0-5.1-30.43c-10.59-36.58-33-64.06-64.82-84.28a25.16,25.16,0,0,0-4.39-2.37c-4.64-1.77-6.76-.56-7.53,4.58a62.17,62.17,0,0,0-.36,9c0,16.31.08,32.62-.09,48.93-.12,12-2.09,14-13.95,14.17-13.65.17-27.31.2-41,0-10.63-.18-12.81-2.35-12.92-13.15-.19-19.63-.05-39.27-.05-58.91Z"/><path class="cls-5" d="M2281.88,154.93c0,13.17.17,23.82,0,34.47-.21,10.38-1.83,12.29-12.1,13.07-28.87,2.21-57.71,4.61-86.47,7.92q-29.78,3.42-59.55,6.75c-11.44,1.28-13.82-.87-15.53-12.44-4.11-27.66-6.25-55.54-9.64-83.28a56.13,56.13,0,0,1-.46-7c0-9.82,2.26-12.51,11.75-13.91a516.51,516.51,0,0,1,77.57-6c26,.08,51.85-1.87,77.75-3.47,10.63-.65,13.54,1.88,14.72,12.58A376.77,376.77,0,0,1,2281.88,154.93Z"/><path class="cls-5" d="M1988,233.93l3.82,1c-36.2,5.8-72.72,7.54-109.27,9.07,9.93-2.84,20.09-3.36,30.35-3.67a293.57,293.57,0,0,0,30.69-2.81,144.77,144.77,0,0,0-35.3-.09,131.31,131.31,0,0,1-23.94.85c-8.69-.46-11.21-2.49-12.36-11.27-2.87-21.77-5.55-43.58-7.87-65.42-1.34-12.57-1.89-25.22-2.68-37.85-.55-9,.54-10.35,9.7-11.25,22.2-2.16,44.4-4.65,66.77-4,18,.55,35.94-1.13,53.81-3.26,18.49-2.2,21.93-.16,22.3,17.92.67,33.33,4.75,66.35,7.15,99.52.22,3,.46,6-1.17,8.76-1.11,1.86-3.68,3.58-4.88,2.26-5.69-6.32-12.35-2.2-18.55-2.26-2.94,0-5.88.85-8.82,1.31C1987.86,233.13,1988,233.53,1988,233.93Z"/><path class="cls-5" d="M2281.9,362.38c0,16.63.13,33.27,0,49.91-.12,11.88-2.13,13.88-14.14,14-13.3.09-26.64.73-39.88-1.4a38.56,38.56,0,0,0-8-.43c-21.26,1-42.55,1.57-63.75,3.3-19.9,1.63-23.24-.1-27.09-19.68a460.88,460.88,0,0,1-7.14-56.41c-.54-7.62-1.6-15.23-1.82-22.86-.36-12.79,1.73-14.8,14.3-16.67q57.3-8.53,115.12-12c7-.42,13.9-1.48,20.87-1.9,9.7-.59,11.32.71,11.44,10.28.23,18,.06,35.94.06,53.91Z"/><path class="cls-5" d="M1566,258.55l-12.15,3.81c-12.47-3.43-25.13-2.11-37.71-1.19-17.92,1.32-35.77,3.8-53.8,3.22-8.37-.27-16.6,1.07-24.9,1.68-12.92,1-16.7-2.68-17.4-15.71-1.71-31.9-3.7-63.78-7.55-95.51-.12-1-.21-2-.27-3-.81-13.25,2.06-16.29,15.53-17.39,29.52-2.43,59-5.09,88.54-7.54,8.3-.69,16.61-1.12,24.93-1.43,6.9-.26,8.18,1.09,7.87,7.8s1,13.25,1.68,19.86c2,19.87,4.3,39.71,5.31,59.66.16,3.32.16,6.79,1.16,9.89C1561,234.47,1563,246.62,1566,258.55Z"/><path class="cls-5" d="M2283.83,688.74c-2.57,7.08-1.92,14.48-1.92,21.76q0,136.34.17,272.66c0,17-.23,34-.36,50.93a8.68,8.68,0,0,1-2.4,2c-4,.39-5-3-6.74-5.45-6.25-4.38-10.55-2.27-14.9,6.78-1.43,3-2.25,6.19-6.51,7.71-8.52,3-11.18,1.81-11.23-7,0-.65,0-1.31,0-2-3.47-4.69-8-5.15-13.05-3.14-5.77,2.3-12.08,2-18,4-5.3,1.77-10.3,1.09-13-4.9,0-1.33,0-2.67,0-4,1.37-4.33,1.9-8.53-2-12,0-.67,0-1.34,0-2,.16-4.45,3.09-7.22,6-10h2c6-3.53,11.17,2.3,17.34,1.67,4.74-.48,9-.47,12.67-3.66h6c10.72-.4,21.13,3.51,32.15,1.64,3.85-.66,7.1-.88,9.83-3.68l0-85.9c-3.8-6.74-9.36-1.17-14-2h-10c-15.38-4.23-31.11-1.3-46.65-2-5.34-.24-10.83-.77-16.41.2-6.15,1.07-8.84-3.51-9.88-9.19-1.19-6.45-.07-13.56-5.06-19,0-1.33,0-2.66,0-4,3.14-9.76.57-19.28-1.29-28.81-1.82-9.36.66-11.8,10.58-11.53,10.31.28,20.68,1.71,31-1.1,1.84-.51,2.32-2,3.76-2.53h2c8,5.69,16,5.72,24,0h2c7.58,2.11,15.16,4.15,22-2h2c1.83-1.18,4.68.67,6-2,0-13.65.14-27.3-.08-40.95-.18-11.05-2-12.37-13.29-11.56q-43.82,3.15-87.64,6.13c-10.65.73-13.66-1.86-15-12.5-1.73-14.21-3.5-28.41-5.22-42.62a60.46,60.46,0,0,1-.58-7c0-9.49,2.71-12.58,12.24-13.27q45.32-3.24,90.64-6.31c1.33-.09,2.67-.14,4-.29,12.11-1.31,14.14-3.44,14.95-15.35.17-2.56-.54-5.36,2-8C2284.7,681.69,2283.59,685.37,2283.83,688.74Z"/><path class="cls-4" d="M286,199.16q0,88.86,0,177.73c0,18.92-.54,19.43-19.76,19.44-5,0-10,.15-15-.27-6.48-.55-8.95-2.66-10.13-9a76.79,76.79,0,0,1-1-13.9q-.08-175.72,0-351.47c0-1,0-2,0-3,.36-13.8,2.58-16,16.63-16.17,6.33-.07,12.67-.2,19,.2,7.33.46,9.42,2.6,10.08,9.73.34,3.63.22,7.32.22,11Q286,111.29,286,199.16Z"/><path class="cls-5" d="M1341.88,426.08c-9,14.17-16.47,29.19-23.8,44.27a82.85,82.85,0,0,0-31.52-3c-25.23,2.13-50.56,1-75.84.67-7.76-.08-10.7-3-12-10.77s-2-15.84-2.66-23.79c-.44-5.6.33-11.27-5.15-15.36-2.23-1.67-1.23-5.85-4.8-8.06-4.39,8.29,0,16.83-1.24,24.91s.06,16.5-2.07,25.18c-4.56-1.84-5.28-5.54-6.25-8.87-2.25-7.74-3.44-15.8-2.4-23.69.87-6.7-3.54-11.22-4.75-16.93-.34-1.61-1.36-1.2-2-.43-3.28,3.87-5.33,2-6-1.68a182.93,182.93,0,0,1-2.78-32.7c0-2.21,1.22-4.47,2.13-6.59.62-1.43,1.5-3.59,3.43-2.68,1.2.56,1.68,2.62,2.46,4,4.63-7.41,5.16-7.69,14-8.14,37.53-1.9,75-4.27,112.65-4.21,8.62,0,17.24-1.32,25.87-1.72a55.43,55.43,0,0,1,11.93.71c7.9,1.36,9.87,4,9.72,12.25-.24,14-.59,27.93-.83,41.9C1339.9,416.33,1340,421.33,1341.88,426.08Z"/><path class="cls-5" d="M1729.92,252.42c-13.52-.84-26.82-3.56-40.35-4.54-11.22-.81-22.4-1.44-33.63-1.5.21-16.34-1.44-32.57-3.53-48.72-3.05-23.42-4-47.06-7.73-70.4-1-6.05.59-7.62,6.73-8.53a4.83,4.83,0,0,1,1-.09c31.58,1.8,63.09-4.37,94.69-.79,6.4.73,12.57-1,18.84-1.6,8.48-.86,11,1,11.72,9.42,2.59,29.81,5.14,59.63,7.41,89.47.5,6.59-.25,13.27-.37,19.91-.09,5.16-3.43,6.71-7.81,7.26-8.86,1.1-17.71,2.33-26.68,2.76,4.94,2.34,10.29.53,15.33,2.31C1753.63,248.9,1741.43,248.35,1729.92,252.42Z"/><path class="cls-5" d="M1965.64,1198.4c-1.31-.13-2.62-.24-3.92-.38-9.54-1-10.83-2.28-11.74-11.4-1.22-12.26-2.46-24.51-3.53-36.78-.9-10.29,1.2-13.34,11.6-14.63,11.89-1.46,23.86-2.3,35.82-3,36.89-2,73.68-5.77,110.65-6.36,5.31-.09,10.6-1.23,15.91-1.49,9.74-.47,12.65,2.2,13.4,11.74.93,11.95,1.89,23.9,2.73,35.85.63,8.84-.69,10.53-9.23,12.16a114.56,114.56,0,0,1-22.87,1.91,85.56,85.56,0,0,0-24.44,3.11,38.1,38.1,0,0,0,14.66.23c10.91-1.93,22-1,32.91-1.82a10.38,10.38,0,0,1,3.93.34,3.16,3.16,0,0,1,1.95,1.93,3.29,3.29,0,0,1-1.16,2.5c-2.15,1.76-4.89,2.05-7.51,2.44-7.58,1.14-15.18,2.1-22.76,3.22a47.65,47.65,0,0,0-6.78,1.48,2.9,2.9,0,0,0-2.27,3c.16,2.09,1.86,2.57,3.56,2.67,4.85.29,9.82-2,15.46.69-3.43,3.64-7.54,3.62-11.21,3.77-34.94,1.45-69.72,5-104.58,7.39-6.25.42-12.76.52-17.44-5.2-2.18-2.68-5.43-2-8.4-2-4.33.11-8.66.29-13,.28a3.61,3.61,0,0,1-3.76-2.68c-.48-1.87.59-3.2,2-4.23C1958.65,1200.94,1962.47,1200.83,1965.64,1198.4Z"/><path class="cls-5" d="M1915.84,898c11.3-12.93,24.57-24,35-37.72,6.22-8.13,12.64-16.1,19-24.14,7.73,2.92,15.86,2.63,23.72,1.72,23.25-2.7,46.55-1.28,69.83-1.65,8.31-.13,16.65-.2,25,.16,9,.39,12.06,2.88,13.28,11.72,2.63,19.12,4.91,38.28,7.05,57.46.84,7.48-1.16,10.05-8.54,10.31-14.34.5-28.49,2.64-42.73,4-5.33.51-10.61-.22-15.92-.73-18.93-1.79-38.18-2.88-56.78,0-15.63,2.42-31,2.69-46.62,3a51.86,51.86,0,0,1-6-.15c-7.5-.68-9.75-2.63-11.4-10.15C1919.66,907,1920,901.72,1915.84,898Z"/><path class="cls-5" d="M1224.6,1085.87c-.35,1.22-.69,2.44-1,3.67-.86,3.13-2.42,5.67-6.11,5.37-3.35-.27-4.07-3.08-4.51-5.76a31.75,31.75,0,0,0-4.46-12.08c-1.89-3-1.86-6.26-.94-9.63,3.24-11.82,3.84-23.25-1.92-34.89-4.12-8.32,3.07-18,12.54-18.4,27.26-1.27,54.53-1.69,81.8-2.4,23.26-.61,46.55-1.41,69.82-2.12,10.17-.3,11.94.74,12,10.8.12,13.29,2.93,26.45,1.51,39.83-.83,7.9-1.89,9.67-9.74,11.45-9.81,2.23-19.79,2.46-29.8,2.42-4.86,0-9.88-.65-14.48,2.3,17.09,3.19,34.35.53,51.69,1.42-3.25,4.49-7.94,5.5-12.66,5.86-5.64.42-11.32.44-17,.33a120,120,0,0,0-30.84,3.06c14.31.62,28.5,2.78,45,2-4.85,3.44-8.22,2.74-11.38,2.92-28.22,1.65-56.51,1.52-84.72,3.64-10.27.77-20.63.23-31,.33C1231.47,1096.06,1225.79,1094.31,1224.6,1085.87Z"/><path class="cls-5" d="M1472.09,1234.86c11.6-3.39,23.48-2.34,35.23-3,11.25-.6,23.13,3.06,34.08-3.63-1-1-1.39-1.83-1.82-1.84-19.63-.46-39.26-1.14-58.88.48-.66,0-1.32.22-2,.24-3.56.11-8,1.4-9-3.65-.92-4.6,3.67-4.68,7.9-6.85-11.3-1.07-14.71-8.65-16.33-16.91-2.61-13.37-4.62-26.88-6.43-40.39-.9-6.66,1.85-9.84,8.78-10.8,7.24-1,14.55-1.77,21.86-2.11,34.24-1.59,68.49-3.3,102.8-2.27,2,.06,4,.26,6,.47,4.67.5,7.37,3.12,7.43,7.82.2,13.31,3.32,26.49,2.13,39.83-1,11.57-4.64,22.77-5.19,34.45-.15,3.28-2.67,5.18-5.3,6.82-3.26,2-6.88,2.29-10.57,2.42-30.27,1.09-60.51,2.83-90.82,2.07-4.66-.12-9.32.32-14,.32C1475.75,1238.36,1473.1,1238.87,1472.09,1234.86Z"/><path class="cls-5" d="M1298,716.22c5.35,12.57,8,26,13,38.75,7.15,18.33,16.45,35.6,25,53.27-4.33,3.16-8.69,4.45-13.87,1.5-1.84-1-4.57-1.06-6.82-.83-13.6,1.41-27.34.75-40.86,2-9.48.88-19.16-.87-28.85,3.77-8.11,3.88-18.36,2.34-27.52,0-6.1-1.57-11.87-4-18.33-4.58-6.06-.54-9-5.67-10-11.07-1.45-7.49-3-15.2-2.71-22.74.52-12.39-.71-24.52-2.46-36.69a48.1,48.1,0,0,1-.25-8c.14-5.36,2.86-8.75,8.15-9.85a50.57,50.57,0,0,1,7.89-1.24c18.28-.84,36.57-2,54.87-2.17Q1276.64,718.18,1298,716.22Z"/><path class="cls-5" d="M1370.1,858.11l5.79,6.28c-.38,2.28-1.36,4.65-1.05,6.83,2.1,14.88.34,29.9,1.91,44.81,1,9.79-1.38,12.63-10.81,14.39-3.59.66-7.26,1.49-10.86,1.38-22.62-.66-45.17,1.31-67.73,2.14-13.52.5-27.06,2.76-40.67,2.15-6.33-.29-13.34,1.46-18.44-5.12-1.22-1.58-5.67-.71-8.64-.87-10.79-.57-13.41-2.61-13.43-12.9,0-12.34-1.65-24.54-2.05-36.81-.37-11.74,1.94-13.62,13.84-14.25,35.5-1.87,71-3.42,106.57-4.27,11.92-.28,23.84-2,35.83-1.85A26.56,26.56,0,0,0,1370.1,858.11Z"/><path class="cls-5" d="M1230.11,1177.75c0-5.47-.27-11,.06-16.4.48-8,2.74-10.64,10.56-12.18a63.25,63.25,0,0,1,11.91-1q59.44-.14,118.89-.06a62.34,62.34,0,0,1,8,.47c4.49.58,7.76,3.2,7.86,7.7.36,17.22,3.92,34.33,1,51.83-.84-4.38-1.69-8.77-2.52-13.15-1-5.48-7.64-4.74-9.64-10.78a62.68,62.68,0,0,0-5.53,22.69c-.71,10.69-3,13.3-13.39,13-35.32-.95-70.51,2.83-105.82,2.35-8.56-.12-16.92-3.47-25.65-1.1-2.66.72-5.1-1.35-6.25-4a12.06,12.06,0,0,1-1.2-4.8c.34-17.65-3.48-35.14-2.06-52.82.27-3.41-.82-8.68,3.87-9.12,5.2-.48,5.32,5,6.23,8.74,1.49,6.11,1.56,12.42,1.83,18.71Z"/><path class="cls-5" d="M1987.79,434.32c-3-2.75-4.91-6.25-7-9.63a393.05,393.05,0,0,0-60.63-75.1c-6.7-6.44-14.74-11.45-20.33-19.07,15.77-2.83,31.75-3.33,47.69-4.13,22.93-1.14,45.88-2.08,68.8-3.38,10.64-.6,14.26,1.63,15.15,12.23,2.28,27.18,5.64,54.32,4.47,81.7-.06,1.33,0,2.67-.13,4-.73,9.17-3.67,12.59-13,13C2011.13,434.51,1999.45,434.24,1987.79,434.32Z"/><path class="cls-5" d="M1722.55,1048.56a145.61,145.61,0,0,0-26.8.27,70.93,70.93,0,0,1-8.93.83c-7-.08-9.84-2.47-10.52-9.32-.82-8.27-1.4-16.58-1.53-24.88-.11-7.16,2.94-10.48,10.08-11.06,12.26-1,24.56-2.2,36.84-2.14,26.93.12,53.88-1.33,80.8,1.51,9.2,1,18.62,0,27.92-.23,13.71-.4,16.36,1.88,17.73,15.23.84,8.27,2.09,16.5,3,24.77,1.05,10.15-2.44,14.19-12.83,14.12-7-.05-13.92-1.19-20.89-1.52-17.66-.82-35.2,1.69-52.79,2.63-12.3.66-24.57,1.24-36.87,1.29-9.65,0-19.27-.24-28.71,2.62-4.78,1.45-9.93.83-14.9.46-3.33-.25-5.71-2.15-5.81-5.7-.12-4,3-4.94,6.12-5,8-.29,16-.18,23.95-.4C1712.49,1051.88,1716.83,1052.39,1722.55,1048.56Z"/><path class="cls-5" d="M2281.83,575.32c0,6,.23,12-.06,18-.42,8.75-2.6,11.47-11.09,12.54-18.5,2.33-37,4.84-55.58,6.11-16.58,1.13-33.14,3.14-49.84,2.35-12.67-.59-15.3-2-16.93-14.68-1.79-13.89-6.39-27.2-7.77-41.11-.82-8.22.21-9.31,8.14-10a16.83,16.83,0,0,1,2-.09c28.64.73,57.16-3.25,85.82-2.12a195.45,195.45,0,0,0,29.89-1.4c11.88-1.35,15.09,1.72,15.44,13.51.18,5.65,0,11.31,0,17Z"/><path class="cls-5" d="M1095.54,186.86c-2.86-2-.85-7.05-5.8-7.18-2.29-.05-1.54-3.23-1.77-5.09a135.3,135.3,0,0,0-2.89-17.75,79,79,0,0,0,1.5,29.5c3.72,15,6.94,30.32,2.9,45.94-.92,3.59.81,6.41,2.37,9.39,4.75,9.13,8.35,31.63,6.37,43.82-3.5-9.88-1.67-18.87-6.28-28.57,0,5.34-.6,8.65.11,11.64,2.13,8.9-1,17.66-.24,26.5.25,2.86-2.07,4.31-4.46,4.5-12.92,1.06-25.86,2.52-38.79.21-4.27-.77-5.55-3.72-5.7-8-1.78-50.19-.56-100.39-.86-150.58-.13-21.1.43-21.55,21.53-17.29,6.65,1.34,14.3,1,18.24,8.47a2.46,2.46,0,0,0,1.49,1.08c6.34,1.41,6.51,1.38,6.71,6.68.36,9.73,4.25,18.79,5.07,28.45C1095.55,174.51,1096.27,180.41,1095.54,186.86Z"/><path class="cls-5" d="M2061.78,1004.21c11.66.51,28.68-1.32,45.58,1.38,10.81,1.72,12.69,3.56,14.08,14.49.09.66.16,1.32.2,2,1.49,22.24-2.81,21.54-18.22,22.52-25.57,1.62-51.1,4-76.76,3.48-8.7-.17-17.22,1.28-25.82,2.23-18.84,2.08-37.78,3.27-56.68,4.76-4.72.38-7.79-2.07-8.7-6.51a223.81,223.81,0,0,1-4.15-35.66c-.14-3.47,2.09-5.52,5.4-6.16a26.57,26.57,0,0,1,6-.55C1980.64,1007.47,2018.52,1003.38,2061.78,1004.21Z"/><path class="cls-5" d="M1123.46,740.06c.38-3.92.67-7.85,1.16-11.76a3.32,3.32,0,0,1,2.3-3c1.88-.53,3.18.56,4.15,2a13.06,13.06,0,0,1,2,7.59c0,17,3.07,33.73,4.25,50.63.34,5,.39,10,.24,14.92-.14,4.35-2.34,7.32-6.57,9.07a58.32,58.32,0,0,1-20.14,4.86c-17.26.74-34.48,2.43-51.79,1.8-3-.11-6-.1-9-.41-4.56-.47-7.16-3.14-7.79-7.69a6.66,6.66,0,0,1-.11-1c0-23.94-.22-47.87.07-71.8.08-6.32,1.89-6.77,9.19-7.61,16.87-1.95,33.88-.75,50.75-2.88C1116.82,722.92,1119.26,725.08,1123.46,740.06Z"/><path class="cls-5" d="M1139.82,1080.43c5.55,2.46,9.88,1,13.45,3.13,1.2.72,2.23,1.74,1.77,3.21a3.42,3.42,0,0,1-1.92,2,24.11,24.11,0,0,1-6.84,1.12c-29.33-1.09-58.54,2.93-87.86,2.11-2.67-.08-5.35,0-8-.27s-5.88-.18-6.31-3.58c-.38-3,3.49-2.53,5.35-5.16-6.33-2.22-7.5-7.43-7.46-13.33.07-12.33-.17-24.65.08-37,.21-10.21,2.32-12.69,12.52-12.46,21,.48,41.86-2.93,62.88-2.36,7.61.21,15.26-1.42,22.9-1.64,10.68-.3,12.91,2.07,13.54,12.51q1.11,18.43,2.46,36.86c.89,12.26.94,12.24-10.85,13.49C1144.26,1079.27,1143,1079.7,1139.82,1080.43Z"/><path class="cls-5" d="M1599.21,1033.27c-3.35-1.12-3-3.47-3.73-5.2-.62-1.53-1.06-3.12-2.08-6.2-4.53,4.86-5.24,9.69-5.08,14.91.36,12-1.69,14.3-13.66,15.15-1,.07-2,.1-3,.1-40.31-.13-80.56,3.07-120.89,2.34-8.37-.15-9.58-1-10.88-9.46A135.47,135.47,0,0,1,1438,1020c.37-11.48,2.2-13.46,13.36-13.88,33.29-1.25,66.57-2.82,99.9-2.08a163.13,163.13,0,0,0,20.94-1.17,112.12,112.12,0,0,1,17.95-.49c6.74.37,9,2.6,9.51,9.18C1600.15,1018.71,1600.5,1025.92,1599.21,1033.27Z"/><path class="cls-5" d="M1102.58,934.16h22.82c-15.59-.17-30.25,8.05-46.33,4.63-8-1.7-16.58-.45-24.89-.78-9.54-.38-11.88-2.51-12.06-12q-.4-22,0-43.92c.16-9.13,2-10.88,11.05-12.1,24.86-3.33,49.83-2,74.76-1.27,10.09.31,10.93,2,13.37,12.37,2.12,9.05,3.78,18.2,7.14,27,2,5.22,3.39,10.93,1.34,16.57-1.85,5.09-4.67,5.75-8.59,1.94-1.5-1.46-2.73-3.65-4.73-1.8-9.65,9-21.67,7-33.15,7.59-.3,0-.58.27-.87.41C1102.49,933.27,1102.54,933.71,1102.58,934.16Z"/><path class="cls-5" d="M1110.22,430.18c0-5.25-.09-10.5,0-15.75,0-1.93.33-4.4,2.88-4.49s3,2.3,3.66,4.15a11.16,11.16,0,0,1,.65,2.91c.83,10.6,1.92,21.2,2.33,31.81.35,9.19-2.09,11.66-11.07,13.48-7.61,1.54-15.17,1.31-22.83.35-10.89-1.37-21.87-2.05-32.72-3.63-9-1.32-11-3.49-11-12.4q-.33-36.42,0-72.83c.1-8.82,2.57-11,11.66-11.26q18-.45,35.93,0c10,.21,12.54,2.77,13.86,13.11a283.31,283.31,0,0,1,2.46,41.79C1106,421.86,1105.45,426.64,1110.22,430.18Z"/><path class="cls-5" d="M1233.36,2.53c20.66,0,41.31-.1,62,0,12.58.08,14.43,2.09,14.59,14.58a73.44,73.44,0,0,1-.21,8c-.82,9-3,11.54-11.88,13.28-4.39.86-8.32,2.21-11.52,5.43-3.53,3.56-8,4.68-12.83,4.51-31.33-1.1-62.53,3.17-93.86,2.13-2.33-.08-4.67,0-7-.23-7.25-.76-9.37-2.49-10.41-9.69a102.21,102.21,0,0,0-3.78-15.48,47.07,47.07,0,0,1-2.06-10.75c-.5-8.16,2-10.94,10-11.65,3-.26,6-.18,9-.18h58Z"/><path class="cls-5" d="M1998,788.23c11.42-24,20.89-48.72,27.39-74.54.64-2.56,1.61-5,2.42-7.56,2.22,5.16,6.71,6,11.59,6,9.65.05,19.31,0,29,.12,13.25.19,15.73,2.45,17.45,15.18,1.65,12.2,3.38,24.4,5,36.6.36,2.64.72,5.29.82,7.94.44,11.09-2,14.21-12.84,14C2051.89,785.59,2025,789.43,1998,788.23Z"/><path class="cls-5" d="M2281.73,1104.06q0,67,.1,133.94h-1.91c0-11.64.09-23.29,0-34.93-.11-13.07-.81-14-14.22-14.61-12-.53-24-.26-35.93-.52-4.09-.1-8.61.65-12.18-3.62,4-3.21,8-1.37,11.67-1.09,14.63,1.11,29.25,2.4,43.33-3.37a13.86,13.86,0,0,0,2.69-1.28c.47-.34.67-1.08,1.23-2.06-3.13-3.36-7.26-2.38-11-2.09-10.94.86-21.85,2-32.78,3-2,.19-4,.39-6,.42-10.54.11-14.23-2.72-14.45-13.23-.27-12.66-2.11-25.18-2.53-37.81-.35-10.62.15-11.42,10.17-13.38,13.37-2.62,26.64-5.82,40.45-5.66,6.66.08,13.19-1.63,19.54-3.72Q2280.83,1101.8,2281.73,1104.06Z"/><path class="cls-5" d="M1288.09,580.35c.76,16-2.33,31.85-2,47.84q-40.95,0-81.92,0a72.65,72.65,0,0,1-9-.31c-6.16-.77-8-2.65-8.91-8.8-1.75-11.28-.3-22.52.48-33.76.23-3.32,2-5.66,5.43-6.22,3.64-.58,6.87.55,8.41,3.92,1.64,3.57,2.56,7.47,3.78,11.19,1.54,0,1.38-1.18,1.51-2,1.6-10.39,2.83-11.78,13.32-11.86C1242.13,580.2,1265.11,580.34,1288.09,580.35Z"/><path class="cls-5" d="M1094.11,625.31c3.33-3.59,6.75-1.89,10.55-3.54-4.76-1.94-8.68-1.47-12.48-1.48-13-.06-26,.29-38.88-1.85-9.17-1.53-10.92-3-11.18-12.05q-.43-15,0-30c.26-10.06,2.39-12,12.1-10.69,18.49,2.43,36.9,5.39,55.47,7.36,9.46,1,10.2,2.64,10.83,12,.61,9,1.76,17.88,2.68,26.82,1.15,11.23-1.06,14-12.09,14.29C1105.82,626.31,1100.5,626.68,1094.11,625.31Z"/><path class="cls-5" d="M1470.32,2.51q24.5,0,49,0a76.8,76.8,0,0,1,9,.49c4.14.51,6.73,3,7.14,7.15a50,50,0,0,1,0,9.94c-.45,4.53-3.23,7.32-7.74,7.84a90.17,90.17,0,0,1-12,.52c-30.67-.59-61.27.65-91.84,3-8.54.64-12-1.55-13.1-9.95-2.62-20.95-4.14-18.83,15.56-19C1441,2.43,1455.66,2.5,1470.32,2.51Z"/><path class="cls-5" d="M2246,4.85c-15,3.12-29.89,6.4-44.9,9.3C2191.66,16,2182,17,2172.55,18.78a221.46,221.46,0,0,1-43.69,3.85c-8.62-.09-17.25,1.49-25.88,1.57s-12.49-3.67-13.74-11.48c-1-6.06.86-8.8,6.84-9.83a36.11,36.11,0,0,1,6-.35q69.42,0,138.85,0c1.63,0,3.26.22,4.88.33C2245.88,3.54,2246,4.19,2246,4.85Z"/><path class="cls-5" d="M2046,1073.57c-10.45-2.1-22.33,2-34.26-1-7-1.81-14.53.64-21.76,1.87-3.43,9-11.3,4.74-17.27,5.49-6.94.87-13.93-.6-20.83-1.78a33.89,33.89,0,0,1-5.79-1.47c-1.94-.7-3.56-2-3.67-4.27-.11-2.43,1.74-3.58,3.69-4.08a47.9,47.9,0,0,1,9.78-1.84c32.94-1.37,65.6-6.28,98.49-8,17.6-.9,35.26-.63,52.85-2.31a29.73,29.73,0,0,1,11.89.87c2,.63,3.77,1.73,3.93,4,.21,3-2,4.19-4.4,4.44-7.3.77-14.39,2.92-21.61,3.73C2080.47,1071.05,2063.85,1072.1,2046,1073.57Z"/><path class="cls-5" d="M2036,646.21c0-6-.2-11.92,0-17.87a334.92,334.92,0,0,0-6-78c3.94,3.35,8.5,2.94,13.23,2.55,17.43-1.44,19.26,0,21.63,17.36,1.66,12.14,3.64,24.28,3,36.63-.53,10.47-2.68,12.7-13.06,13.33-1.66.11-3.32.05-5,.16-9.49.65-11.25,2.38-11.83,12.18C2037.75,637.15,2037.73,641.8,2036,646.21Z"/><path class="cls-5" d="M1703.65,2.51q23.44,0,46.9,0a86.56,86.56,0,0,1,9,.36c4.42.46,7.72,2.45,7.6,7.47-.11,4.84-3.25,7.15-7.66,7.64a84.61,84.61,0,0,1-10,.19c-21.93-.16-43.85-.23-65.72,1.6-10.27.85-20.55,1.52-30.83,2.21a15.08,15.08,0,0,1-4-.25c-5.23-1.06-8.49-5.3-8.41-10.79.07-5.19,2.6-7.81,9.18-8.17,7.63-.43,15.3-.25,23-.27C1683,2.48,1693.33,2.5,1703.65,2.51Z"/><path class="cls-5" d="M1929.26,2.51q27.49,0,55,0c3,0,6,0,9,.25,2.69.21,5.62.63,6.21,3.92.67,3.75-1.26,6.53-4.51,8.1-5,2.44-10.46,1.88-15.72,1.09a140.29,140.29,0,0,0-35.9-1c-23.29,2.54-46.6,1.17-69.9,1.54a43.18,43.18,0,0,1-9.89-1c-3.47-.77-6.18-2.94-6.12-6.87.06-4.32,3.45-5.33,6.9-5.71a86.74,86.74,0,0,1,9-.34Q1901.27,2.49,1929.26,2.51Z"/><path class="cls-8" d="M1227.93,1230.74c52.06-5.76,125.18-7.07,137.83-5.29-1.82,3.49-5.41,1.86-7.81,3.21,1,2.78,5.31.28,6,4.13-3.12,3.37-7.56,3-11.7,3-13,.07-25.92,0-38.88-.2a35.73,35.73,0,0,0-9.89,1,30.44,30.44,0,0,1-11.85,1.24c-10.64-1.38-21.22-.67-31.83.14C1248.72,1238.8,1237.92,1237.82,1227.93,1230.74Z"/><path class="cls-5" d="M1880.23,254.64a28.45,28.45,0,0,1,16.75-3.95c15.68,1.39,31.19-.36,46.73-2a71.77,71.77,0,0,0,14.58-3.21,58.81,58.81,0,0,1,21.62-2.6c10,.56,19.61-3.41,29.66-2.87,2.31.12,4.66-.44,7-.28,3.34.24,5.69,2,6,5.56s-2.07,5.36-5.19,6.34a3.58,3.58,0,0,1-1,.21c-11.58,0-23,4-34.69,1.21a17.64,17.64,0,0,0-10.73.71,44.25,44.25,0,0,1-22.63,2.27c-16.64-2.71-33.18-.37-49.75.11C1892.32,256.29,1886.1,256.93,1880.23,254.64Z"/><path class="cls-5" d="M1534.05,268.48l-28.13,11.9a32.68,32.68,0,0,0-12.73-1.95c-16.93.24-33.9-.95-50.77,1.57a30.61,30.61,0,0,1-12.88-.45c-2.85-.79-4.64-2.63-4.31-5.81.27-2.63,2-4.08,4.46-4.73a4.29,4.29,0,0,1,2-.31c11.9,3.33,23.14-3,34.89-2.35,11.59.64,23.2.34,34.82,1C1512.19,268,1523.18,266.85,1534.05,268.48Z"/><path class="cls-5" d="M2276.73,221.82c-3.15,2.09-6.45,2.1-9.65,2.37-23.19,1.95-46.44,3.46-69.58,5.91-22.81,2.42-45.51,5.78-68.25,8.74-3.63.47-7.23,1.46-10.9.63-2.43-.54-4.38-1.86-4.71-4.51s1.22-4.48,3.51-5.45c5.94-2.51,12.23-2.93,18.6-2.87a206.2,206.2,0,0,0,38.64-3.14c9.49-1.73,19.21-2.46,28.58,1,3.62,1.32,7.14,1,10.81.71q27.33-2.35,54.69-4.48C2271,220.5,2273.75,219.81,2276.73,221.82Z"/><path class="cls-5" d="M2281.73,1104.06h-1.8q0-22.93,0-45.85c0-2.66.08-5.33-.15-8-.66-7.53-2.76-9.06-10.43-7.71a29.28,29.28,0,0,0-5.78,1.52c-14.65,5.81-30.3,7.43-45.5,10.88-4.54,1-9.22,1.52-13.83.25-2.37-.66-4.34-2-4.45-4.7s1.72-4.31,4-5c2.52-.79,5.17-1.17,7.77-1.71,9.42-2,19.08-2.76,28.32-5.65,7.67,6,9.46,6,13.49-2,3.8-7.61,9.31-11.8,17.69-12.65,4.14-.41,7.23.62,8.8,4.72-1.28,2.29-5.3,2.23-5.18,5.21.05,1,3.13,2.17,5.17.78h1.82Q2282.63,1069.07,2281.73,1104.06Z"/><path class="cls-5" d="M1480.85,1058.68l88.7-4.27c3.66-.17,7.33-.53,10.87.8a3.09,3.09,0,0,1,2.31,2.91,3,3,0,0,1-2.38,2.82,16.51,16.51,0,0,1-4.87.92c-14.35-.34-28.51,2.92-42.86,2.2-25-1.25-49.85,2.68-74.83,2-3.64-.1-7.34.26-10.86-1.11a3.07,3.07,0,0,1-2.29-2.91,2.84,2.84,0,0,1,2.35-2.83,43,43,0,0,1,7.87-1c8.65-.13,17.31-.05,26-.05C1480.84,1058.3,1480.85,1058.49,1480.85,1058.68Z"/><path class="cls-8" d="M1320.33,294.44c-3.2,2.86-6.68,1.83-9.87,1.88-9,.17-18,.15-27,.05-24-.25-47.87,2.32-71.8,3.39-18.2.81-36.53,1.69-54.63-1.87-1.62-.31-3.38-.35-4-3,2.13-3.05,5.68-2.49,8.8-2.45,15,.22,29.84-.71,44.89.46,18.14,1.4,36.48.36,54.76-1.23,17.19-1.49,34.55-.93,51.83-1.18C1315.92,290.49,1318.75,290.59,1320.33,294.44Z"/><path class="cls-8" d="M2120.47,1049a2.77,2.77,0,0,1-2.76,2.46c-57.07,2.68-113.89,8.79-170.89,12.53-2.1.14-4.7.64-7.06-3.26,59-6.09,117.41-10.42,175.85-14.16C2117.47,1046.4,2119.75,1046.44,2120.47,1049Z"/><path class="cls-5" d="M1042.43,26.08c0-5.3-.26-10.62.09-15.9.27-4.07,2.7-6.71,7.06-7s7.38,2.14,7.88,7.18c1,10.55,1.83,21.15,2.19,31.74.21,6.33-2.18,9-6.66,9.31-5.3.35-9.84-2.86-10.44-8.46S1042.42,31.72,1042.43,26.08Z"/><path class="cls-5" d="M2177.94,882.15c5.31,2,7.1,6.15,7.77,11.59,1.2,9.68,3.78,12,13.45,12.24,13.92.32,27.86.14,41.79.23,5.73,0,11.39.42,15,5.93a32.07,32.07,0,0,1-11.72,1.94c-16.58,0-33.16.16-49.74-.05-11.1-.14-13-2.07-14.81-13.09A103,103,0,0,1,2177.94,882.15Z"/><path class="cls-5" d="M2221.93,834.19c-2.27,5.68-6.86,7.77-12.56,7.77-7.24,0-14.48-.27-21.73-.39-7.1-.13-7.91.88-6.83,8.08.78,5.21,1.46,10.43,2.26,15.63s-.32,9.83-5.14,12.88a104.65,104.65,0,0,1-3.86-29.58c0-10,2.79-13.25,12.93-13.87C2198.61,834,2210.28,834.32,2221.93,834.19Z"/><path class="cls-5" d="M1272.1,836a8.34,8.34,0,0,1-1,0c-3.83-.47-8.46.36-10-4.5-.88-2.72,4.17-7.51,9-7.65,9.92-.27,19.77-1.05,29.62-2.11,2.23-.24,4.59.57,6.86,1a2.86,2.86,0,0,1,2.51,2.71,3.64,3.64,0,0,1-2.06,3.18,2.21,2.21,0,0,1-.88.44C1294.57,830.32,1283.84,835.7,1272.1,836Z"/><path class="cls-5" d="M2196,1032.09c14.7,2.85,28.23-.17,40.72-8.23,2-1.27,3.92-3.12,6.22-1.39,2.47,1.85.85,4.16,0,6.28-1,2.44-2,4.91-2.93,7.36-10.77-.51-21.11,2.1-31.54,4.22C2199.87,1042.06,2198.65,1041.05,2196,1032.09Z"/><path class="cls-5" d="M2279.91,1000.05c-.89,5.45-4.45,7.51-9.63,7.9-11.31.84-22.18-.52-32.35-5.86,8.24-3,16.83-1.72,25.29-2C2268.78,1000,2274.35,1000.07,2279.91,1000.05Z"/><path class="cls-5" d="M1104,248.13c5.28,9.84,4.29,19.83,5,29.47.12,1.81-1.87,2.55-3.72,2.23-1.49-.26-2.63-1.42-2.18-2.75,2.76-8-2.53-15.45-1.36-23.31C1101.89,252.18,1101.44,250.46,1104,248.13Z"/><path class="cls-5" d="M2231.94,1002.1c-5.15,7.41-9.18,9.06-17.17,6.61-4.34-1.34-8.57-3.07-12.84-4.62C2211.75,1000.73,2221.92,1002.6,2231.94,1002.1Z"/><path class="cls-5" d="M2247.94,834.16c-7.39,10.59-16.59,10.6-24,0Z"/><path class="cls-5" d="M2271.93,832.16c-6.7,9.72-13.16,10.3-22,2C2257.07,831.38,2264.56,832.38,2271.93,832.16Z"/><path class="cls-5" d="M1125.15,432.75c1.28,8.49,3.61,16.87,2.81,26C1123.41,453.74,1123,450.2,1125.15,432.75Z"/><path class="cls-5" d="M2265.92,912.14a24.36,24.36,0,0,1,3-2.41c6.51-3.74,7.66-3.25,11,4.42C2275.17,914.12,2270.42,914,2265.92,912.14Z"/><path class="cls-5" d="M2194,1016.1c7.35,5.2,7.48,6,2,12A30.49,30.49,0,0,1,2194,1016.1Z"/><path class="cls-5" d="M2199.94,1004.09a15.18,15.18,0,0,1-6,10C2192.66,1006.66,2192.67,1006.65,2199.94,1004.09Z"/><path class="cls-5" d="M1286,628.22c2.81,7.83,1.73,16,1.92,24C1285,644.4,1286.18,636.26,1286,628.22Z"/><path class="cls-5" d="M2279.93,830.15c-1,3.61-3.3,3.44-6,2Z"/><path class="cls-5" d="M1737.9,254.31l-8-1.89Z"/><path class="cls-5" d="M1546,264.44l-4,1.87Z"/><path class="cls-5" d="M1552.06,262.45l-4.07,1.89Z"/><path class="cls-5" d="M1540,266.43l-4,1.9Z"/><path class="cls-3" d="M2172.47,1598.16c2.13,4.07,1.43,7.81,1.43,11.4q.06,372.76,0,745.51c0,17.67-.77,18.42-18.77,18.42q-493.35,0-986.72,0c-17.74,0-18.52-.79-18.52-18.68q0-371.25,0-742.51c0-4.13-1-8.57,1.7-12.42,4.16.87,5.49,4.23,7.37,6.79,24.94,34,53.42,64.8,84.33,93.27,60,55.23,127.7,98,204.74,125.68,55.29,19.83,112.25,30.87,170.85,34.5,19,1.18,37.94,2,56.91,1.48,83.46-2.42,164-18.11,240.45-52.84,61.27-27.83,115.86-65.24,165.1-111a712.44,712.44,0,0,0,84.13-93.35c1.4-1.85,2.92-3.62,4.49-5.33C2170.42,1598.64,2171.22,1598.6,2172.47,1598.16Z"/><path class="cls-3" d="M1660.8,1349.89h396.82c4.33,0,8.68-.15,13,.24,7,.64,8.52,2.89,7.15,9.95a79.86,79.86,0,0,1-2.13,7.7,392.82,392.82,0,0,1-62.74,125.32c-57.13,76-129,132.16-220.71,160.94-33.86,10.64-68.61,15.85-104.06,18.11-36.84,2.35-73.18-.19-109.36-6.54-74.38-13-139.5-45.43-196.62-94.48a467.17,467.17,0,0,1-89.45-102.92c-20.67-32.27-35.39-67.07-46.47-103.56a44.63,44.63,0,0,1-1.21-4.85c-1.44-7.72-.16-9.35,8-9.81,3.66-.21,7.33-.1,11-.1Z"/><path class="cls-3" d="M422.08,1861.62c-.1-2.58-.21-5.16-.31-7.73q.09-102.84.19-205.67c0-3.66-.1-7.33.12-11,.54-9,3.08-11.47,11.74-10.81,23.34,1.77,46.47,5.37,68.25,14,88.42,35.19,139.43,100.18,153.25,194.29,1.3,8.91.7,17.94.55,26.92Z"/><path class="cls-6" d="M672.3,2177.59c0-14.64-.11-29.28,0-43.92.11-12.42,1.68-14.1,13.69-14.14,30-.12,59.92,0,89.87,0,1.33,0,2.67,0,4,.11,7.76.66,9.58,2.56,10.15,10.61.14,2,.11,4,.11,6V2221c0,1,0,2,0,3-.3,11.46-1.82,13-13.66,13.21-5.66.12-11.32,0-17,0q-33,0-65.9,0c-2.66,0-5.33,0-8,0-11.33-.36-13.06-2.06-13.25-13.75-.16-10-.06-20-.06-29.94,0-5.33,0-10.65,0-16Z"/><path class="cls-2" d="M2901,1349.87h487.9a138.53,138.53,0,0,1,14,.34c6.12.61,8.07,2.7,8.78,8.86a87.28,87.28,0,0,1,.3,10q0,492.7,0,985.42c0,18.45-.6,19-19.16,19q-492.9,0-985.81,0c-18.45,0-19.06-.6-19.06-19.14q0-492.7,0-985.42c0-18.44.65-19.08,19.17-19.08Z"/><path class="cls-5" d="M3209.73,622.2h-72c-3,0-6,0-9-.07-10.94-.4-13.52-3.41-12.31-14.22,4-35.61,33-68.7,67.62-79.24,52.9-16.1,108.18,20.77,118.69,73.66.26,1.3.5,2.62.66,3.94,1.5,12.51-1.15,15.8-13.69,15.86-26.66.14-53.32,0-80,0Z"/><path class="cls-1" d="M3208.8,908.28q-55.92,0-111.83,0a89.45,89.45,0,0,1-10-.28c-6.17-.7-8.49-2.64-8.81-8.75-.45-8.62-.44-17.3,0-25.92.3-6.22,2.54-8.23,8.59-9a84.88,84.88,0,0,1,10-.3q113.33,0,226.66,0c17.92,0,18.62.73,18.66,18.48,0,5.32.16,10.66-.24,16-.51,6.69-2.68,8.82-9.19,9.52a94.81,94.81,0,0,1-10,.25Q3265.72,908.3,3208.8,908.28Z"/><path class="cls-1" d="M3209.51,976.22H3100.67c-3,0-6,0-9,0-11.9-.31-13.61-2-13.81-14.26-.11-6.32-.2-12.65.12-19,.41-8.3,2.58-10.28,11-10.84,2.65-.17,5.32-.11,8-.11q112.83,0,225.66,0c19,0,19.35.43,19.36,19.78,0,5,.15,10-.27,15-.56,6.54-2.79,8.6-9.46,9.24-3.3.32-6.65.22-10,.22Z"/><path class="cls-1" d="M3154,999.94q28,0,55.93,0c3,0,6,.08,9,.26,5.07.29,8.12,3,8.47,8.06a187.2,187.2,0,0,1,0,27.92c-.36,4.59-3.11,7.23-7.75,7.64q-3.48.32-7,.31-59.93,0-119.85,0a42.55,42.55,0,0,1-6-.27c-6-.83-8.25-2.77-8.57-9-.43-8.3-.45-16.64-.07-24.94.33-7.15,2.68-9.44,10-9.76,9.31-.4,18.64-.21,28-.23Q3135,999.9,3154,999.94Z"/><path class="cls-1" d="M3299.43,1044.09c-10,0-20,.22-30-.07-9.09-.26-11.07-2.31-11.37-11.5-.25-7.65-.28-15.33.15-23,.38-6.65,2.69-9.23,9.3-9.31q32.47-.45,65,0c6.56.09,8.92,2.74,9.27,9.37.42,8,.42,16,.08,24s-2.58,9.76-10.42,10.44c-.67.06-1.34.08-2,.08h-30Z"/><path class="cls-2" d="M420,2201.59q-1,3-2,6Q419,2204.59,420,2201.59Z"/><path class="cls-2" d="M420,1889.73q-1,3-2,6Q419,1892.72,420,1889.73Z"/><path class="cls-2" d="M418,1903.71q-1,3-2,6Q417,1906.71,418,1903.71Z"/><path class="cls-2" d="M416,1913.7c-.65,2-1.31,4-2,6C414.66,1917.71,415.32,1915.71,416,1913.7Z"/><path class="cls-5" d="M1639.87,620.23V513.43c0-3,0-6,0-9,.16-14.48,1.55-15.9,16.13-16,6.32,0,12.67-.18,19,.33s8,2.64,8.73,8.83a89.59,89.59,0,0,1,.28,10q0,113.79,0,227.58c0,18.46-.58,19-19.11,19-5.32,0-10.68.16-16-.33-6.1-.56-8.06-2.69-8.74-8.86a100.2,100.2,0,0,1-.29-11Q1639.85,677.13,1639.87,620.23Z"/><path class="cls-1" d="M2669.93,310.29c2.2,43.11-35.72,79.91-79.65,79.91-47,0-81.51-38.88-81.08-84.32.37-39.82,41.28-78.63,81.37-78.27C2629.54,228,2674.24,265.85,2669.93,310.29Z"/><path class="cls-4" d="M731.49,994.08c-16.3,0-32.6.11-48.91,0-12.56-.11-14.49-2-14.53-14.59-.12-31.93,0-63.86,0-95.78a43.47,43.47,0,0,1,.2-5c.87-7.44,3.11-9.6,10.85-10.33,2.31-.22,4.65-.19,7-.19h91.83a66.13,66.13,0,0,1,8,.28c6.94.83,9.08,3.07,9.87,10.21a62.46,62.46,0,0,1,.24,7q0,45.89,0,91.79c0,2,0,4-.15,6-.69,7.82-2.65,10-10.42,10.47-7,.39-14,.2-21,.22-11,0-22,0-32.94,0Z"/><path class="cls-1" d="M2279.91,1034.09c-4.12,4.76-9.9,4-16.86,5.87,4.31-8.26,9.67-11.39,16.87-11.86C2279.92,1030.1,2279.92,1032.09,2279.91,1034.09Z"/><path class="cls-1" d="M1947.87,919.79c-.89,0-1.26-.34-.93-1,.09-.19.57-.25.87-.27.89-.06,1.26.33.93,1C1948.65,919.7,1948.17,919.7,1947.87,919.79Z"/><path class="cls-1" d="M1271.33,1233.59h-26.66c0-.27-.05-.54-.07-.82h26.47C1271.16,1233.05,1271.24,1233.32,1271.33,1233.59Z"/><path class="cls-2" d="M1663,2153.53q56.94,0,113.88,0c15.79,0,17,1.32,17.1,17.1,0,5.65.19,11.33-.22,17-.5,7.17-2.7,9.18-10,9.84-3,.26-6,.18-9,.18q-112.89,0-225.78,0c-18.48,0-19.09-.64-19.12-19.07,0-5-.17-10,.22-15,.56-7.14,2.77-9.21,10-9.85,3.3-.3,6.65-.2,10-.2Q1606.54,2153.51,1663,2153.53Z"/><path class="cls-2" d="M1662.25,2129.69H1551.37c-3.33,0-6.67.09-10-.11-8.91-.54-11-2.56-11.37-11.63-.27-7-.29-14,0-21,.39-8.8,2.62-10.78,11.72-11.29,2.65-.15,5.32-.09,8-.09q112.38,0,224.77,0c19,0,19.43.51,19.47,19.74,0,3.66.06,7.32,0,11-.35,11.22-2.22,13-13.79,13.34-3,.08-6,0-9,0Z"/><path class="cls-2" d="M1719,2061.73q-28.93,0-57.87,0c-3,0-6-.08-9-.37-4.6-.44-7.37-3.12-7.74-7.69a179.09,179.09,0,0,1,0-27.89c.35-4.56,3.08-7.28,7.68-7.74a89.56,89.56,0,0,1,9-.37q57.86,0,115.73,0c2.32,0,4.67-.05,7,.18,7.22.7,9.5,2.69,9.91,9.86s.37,14.63.13,21.93c-.31,9.49-2.5,11.83-12,12-17.29.27-34.59.12-51.88.14Z"/><path class="cls-2" d="M1571.76,2061.65c-10,0-19.94.22-29.9-.06-9.41-.26-11.54-2.52-11.87-12.09-.23-7-.26-14,.08-20.92.38-7.88,2.61-10.57,10.13-10.68q31.89-.47,63.79,0c7.1.1,9.34,2.67,9.69,10,.37,7.95.38,15.95,0,23.9-.37,7.13-2.69,9.44-10,9.69-10.62.37-21.27.09-31.9.09Z"/><path class="cls-6" d="M2958.24,1861.22c0,15,.12,30,0,45-.13,11.66-1.92,13.56-13.34,13.61q-45,.21-90,0c-11.11,0-13.11-1.93-13.16-12.71q-.24-46.46,0-92.9c0-9.93,2-12,11.76-12q46.47-.27,92.94,0c9.67.06,11.56,2.16,11.7,12.11.21,15.64.05,31.3.05,47Z"/><path class="cls-3" d="M2900,1605.88q-57.43,0-114.88,0c-15.93,0-17.14-1.27-17.22-17,0-6-.17-12,.32-18,.51-6.15,2.65-8.08,8.78-8.83a74.65,74.65,0,0,1,9-.29q113.88,0,227.76,0c17.24,0,18.19,1,18.23,18,0,5.66.16,11.34-.32,17-.54,6.15-2.66,8.1-8.79,8.82a85.12,85.12,0,0,1-10,.3Q2956.43,1605.9,2900,1605.88Z"/></svg>