<svg id="Layer_1" data-name="Layer 1" xmlns="http://www.w3.org/2000/svg" viewBox="0 0 3508 2482"><defs><style>.cls-1{fill:#525252;}.cls-2{fill:#3e3e3e;}.cls-3{fill:#242424;}.cls-4{fill:#353535;}.cls-5{fill:#444;}.cls-6{fill:#767676;}.cls-7{fill:#393939;}.cls-8{fill:#646464;}.cls-9{fill:#383838;}.cls-10{fill:#5e5e5e;}.cls-11{fill:#2b2b2b;}.cls-12{fill:#6f6f6f;}.cls-13{fill:#313131;}.cls-14{fill:#2d2d2d;}.cls-15{fill:#343434;}.cls-16{fill:#9a9a9a;}.cls-17{fill:#292929;}.cls-18{fill:#2a2a2a;}.cls-19{fill:#272727;}.cls-20{fill:#282828;}.cls-21{fill:#3f3f3f;}.cls-22{fill:#252525;}.cls-23{fill:#3b3b3b;}.cls-24{fill:#262626;}.cls-25{fill:#505050;}.cls-26{fill:#4f4f4f;}</style></defs><path class="cls-1" d="M3507.9,2.41V1242c-5.21,4.89-11.8,4.93-18.28,5-21.33.1-42.66,0-64,0q-261.47,0-522.93.2c-11.2,0-19.31-3.23-27.25-11.19q-296.7-297.07-593.77-593.79a94.28,94.28,0,0,1-14.41-18.39c-1.69-5.43,1.71-8.73,5-12.08q16.93-17,33.86-34Q2587.33,296.61,2868.6,15.52c6.75-6.75,13.11-14.29,24-14.11q301.8,0,603.53.06C3500.05,1.47,3504.12.4,3507.9,2.41Z"/><path class="cls-1" d="M0,214.34V2.41c2.34-1.7,5-.74,7.58-1q504.24,0,1008.49,0c4,0,8-.29,12,.26,4.8,1.46,6.81,4.79,6.72,9.7-.28,14.25,1.72,28.65-3.17,42.56-1.13,3.22-.6,6.61-.6,9.92q0,248.74.21,497.49c0,14.79,4.49,29.39,3.86,44.46-.71,16.87-4.45,21.17-21,21.37-29.25.34-31,2.12-31,31.41,0,166.5.23,333-.32,499.49-.06,20.21,5.24,36.09,20.62,49.36,7.7,6.64,15.86,13.29,20.86,22.76,1.19,2.24,4.5,3.41,7.36,4.08,2,.63,2.25,2.5,2.75,4.13.51,7.11-5.16,10.5-9.24,14.6q-95.09,95.6-190.61,190.75-203.82,203.67-407.58,407.41c-3.06,3.06-6.2,6-9.27,9.09-5.35,5.34-9.08,4.66-11.28-2.75a47.28,47.28,0,0,1-3.29-18c.1-124.83-1.68-249.7.49-374.49,2.59-148.78.29-297.54,1.52-446.31a233.07,233.07,0,0,0-.84-23.93c-1.39-10.42-1.88-20.83.38-31.21a136.8,136.8,0,0,0-1-30.66,63.31,63.31,0,0,1-.22-18.79,151.69,151.69,0,0,0,0-42.4,61.38,61.38,0,0,1,1.2-21.66c.78-10.62,1-21.23-1.05-31.75a15.42,15.42,0,0,1-.29-4.95c3.74-27-1.5-54.2,1.47-81.24a104.59,104.59,0,0,0-.64-26.81c-.84-5.64-1.63-11.38-.69-16.8,3.47-19.93.07-39.68-.69-59.47.16-6.28-2.58-10.68-7.89-14.3-4.35-3-7.74-7.29-11.51-11.06Q200,420.56,16.86,237.51C11,231.64,5.19,225.76,2.08,217.82A6,6,0,0,0,0,214.34Z"/><path class="cls-1" d="M3507.9,1244V2479.58c-2.76,1.81-5.85,1-8.77,1q-611.34.06-1222.68,0c-1.34,0-2.67,0-4-.12-3.67-1.89-1.76-3.91-.47-6.37,4.86-9.19,12.32-16.34,20.1-22.56,19.72-15.74,25.46-35.38,25.32-60.4-.92-165.45-.45-330.92-.54-496.38,0-8.19,1.38-16.81-4.65-23.87-6.06-6-13.78-4-20.91-4.08-23.49-.25-31.73-8.28-27.22-31.45,3.5-18,2.72-35.72,2.74-53.57.18-163.54,0-327.08.33-490.62,0-12.15-5.32-23.39-4-35.47.54-4.94-1.73-10.82,5.22-13.65,6.78-2.77,9.9,2.26,13.46,5.8q113.35,112.79,226.26,226,184.13,184,368.22,368.12c1.89,1.89,3.78,3.76,5.62,5.7,9.35,9.84,8.68,12.62-4.12,18.32a29,29,0,0,0-6,3,6.81,6.81,0,0,0-2.66,4.46c6.54-6.65,15.37-8.41,19.5-16.33,5.14-9.25,13.32-15.74,21-22.58,6.33-5.67,11.22-3.46,13.18,5.14,2.87,12.57,5.65,15.63,15.08,16.62,13.55,1.42,20.18-4,20.79-17.68.65-14.31.41-28.65.14-43a23.86,23.86,0,0,1,7.67-18.63c12.57-12.41,24.86-25.09,37.58-37.35,3.44-3.31,6.65-9.15,12.1-7.26,6.21,2.15,4.63,8.89,4.67,14,.16,25,.06,50,.07,74.95,0,3.34,0,6.67,0,10,.15,19.22,4.22,25,17.76,25.07,13.78.11,18.12-5.63,18.19-24.6.11-32.32,0-64.64,0-96.95,0-12.66.16-25.32,0-38a22.08,22.08,0,0,1,6.83-17c13.42-13.44,26.68-27,40.41-40.17,2.93-2.81,5.73-7.17,10.64-5.18,5.19,2.1,4.09,7.34,4.1,11.58.13,60.3,0,120.6.08,180.9,0,5.33-.27,10.68.62,16,1.55,9.28,6.6,13.24,16.82,13.41,10.75.19,16.28-3.87,17.91-13.34.9-5.28.63-10.63.63-16,0-74.63.15-149.25-.16-223.88,0-10.1,2.74-17.76,10.11-24.71,13.32-12.57,25.85-26,39.1-38.64,3.12-3,6.21-7.57,11.26-5.26,4.59,2.09,3.54,7.24,3.58,11.32.25,23.32.11,46.64.11,70q0,104.44,0,208.89c0,4.66-.12,9.33.2,14,.92,13.58,7.46,19,21,17.5,8.81-1,13-5,14.26-14,.81-5.62.53-11.31.53-17,0-106.94.15-213.89-.21-320.83,0-11.07,2.85-19.4,11-26.93,12.74-11.72,24.42-24.57,37.05-36.43,2.7-2.53,5.19-6.52,10-4.4,4.6,2,3.67,6.35,4,10,.32,4.31.12,8.66.12,13q0,181.89,0,363.8c0,5.33-.18,10.67.25,16,1,12,6.14,16.83,17.8,16.82s16.77-4.84,17.7-16.89c.42-5.32.24-10.66.24-16q0-207.88-.23-415.77c0-12,3.16-21,11.95-29,12.52-11.48,24-24.08,36.33-35.76,2.55-2.42,5.17-5.86,9.26-4.52,4.76,1.57,4.36,6.19,4.58,10.13.24,4.32.11,8.66.11,13v458.75c0,4.66-.05,9.33,0,14,.33,16.45,4.77,22,17.7,22.09,13.13.11,17.81-5.44,18.2-21.6.11-4.66.05-9.33.05-14V1323.12c0-4.67-.11-9.33.08-14,.46-11.32,3.47-21.21,12.54-29.24,10.46-9.25,19.77-19.79,29.92-29.42C3497.49,1246.63,3502,1243.76,3507.9,1244Z"/><path class="cls-2" d="M2862.18,1862c5.3-2.63,11.12-1.64,16.68-2.45,3.72-.54,4.46-2.67,2.16-5.55a71.38,71.38,0,0,0-5.48-5.81q-297.14-297.06-594.33-594c-2.62-2.62-5-7.85-9.28-5.83-3.41,1.6-1.82,6.68-1.82,10.21q-.09,292.71,0,585.43c0,2,0,4,.15,6,.7,7.15,2.67,9.35,10,9.72,8,.4,16,.18,24,.24,5.33,0,10.68-.12,15.83,1.66-1.41,5.14-5.68,4.78-9.64,5-6.31.38-12.65-.16-19,.53-10.49,1.15-14.8,5.33-16.07,15.68-.73,6-.46,12-.46,18q0,277,0,554c0,7.88.05,15.71-3.73,23a3.1,3.1,0,0,1-2.09,2.65,5.44,5.44,0,0,1-3.2-1.66,55.49,55.49,0,0,1-3-19.53q.08-292.15,0-584.31c0-4,.25-8,.56-12-.05-1.31-.1-2.62-.21-3.93,2.34-6.31-.44-12.53-.44-18.83.06-196.19-.72-392.38.64-588.56q.56-78.87,1.37-157.79c.29-25.55-3.18-28.79-28.79-28.79q-586.26,0-1172.5,0c-25.46,0-28.54,3.19-28.58,29-.07,44.3,0,88.6,0,132.9,0,4,.24,8-.66,11.94-.8,3.47-2.35,5.62-6.2,3.15l-.39-3.57a54.6,54.6,0,0,1-4.84-23c.21-49,.06-97.91.21-146.86,0-5-2-11.29,5-14,8.26-1.66,16.58-1.55,24.91-1.55H2226.41c6.33,0,12.66.14,19-.29,5.12-.35,9.89-1.53,13.42-5.61,1.89-2.41,3.68-5.09,3.58-8.11-.63-18.33,6.93-36.13,4.3-54.39-1.8-12.48-3.8-24.8-3.79-37.47q.12-153.44.06-306.87c0-6.28-.79-12.74,3.14-18.4a2.77,2.77,0,0,1,3.49,0c3.63,3.9,7.14,7.91,10.91,11.68Q2578.79,931.82,2877,1230.19c8.5,8.52,17.22,11.93,29.08,11.91q289.92-.39,579.85-.18c7.33,0,14.67,0,22,.08v2c-16.14,14-30.53,29.75-45.59,44.83-2.94,3-4.06,6.77-4.76,10.8-1.43,8.25-1.49,16.57-1.49,24.91q0,256.9,0,513.81c0,4.33.13,8.67-.19,13-.54,7.37-2.59,9.8-9.65,10.12-9,.41-18,.38-27,0-6.27-.3-8.24-2.46-8.88-8.63a124.73,124.73,0,0,1-.31-13q0-238.9,0-477.82c0-4,.13-8-.27-12-.5-5-2.73-5.87-6.41-2.26-13.79,13.53-27.38,27.28-41,41-3,3-4.09,6.82-4.2,11q-.2,7-.2,14,0,212.92,0,425.84c0,4.33.13,8.69-.28,13-.59,6.23-2.56,8.56-8.68,8.86-9.31.45-18.66.45-28,0-6.21-.28-8.17-2.53-8.79-8.73-.43-4.3-.29-8.66-.3-13q0-190.42-.1-380.86c0-5,2.65-12.43-2.61-14.54-4.35-1.75-7.69,5.24-11.17,8.6-10.07,9.72-19.67,19.93-29.83,29.56-6,5.7-8.51,12.19-8.46,20.42.21,34,.07,68,.07,102q0,119,0,237.91c0,18.55-.47,19-19.11,19-5.33,0-10.68.15-16-.15-8.32-.49-10.3-2.6-10.8-11.12-.23-4-.12-8-.12-12q0-141.45-.08-282.9c0-4.5,2.2-11.23-1.93-13-5.1-2.21-7.9,4.66-11.28,7.89-10.13,9.66-19.55,20.07-29.88,29.5-7.75,7.08-10.82,15-10.75,25.54.36,52.31.16,104.63.16,156.94q0,40,0,80c0,3,.08,6-.17,9-.61,7.36-2.59,9.78-9.67,10.1-9,.4-18,.37-27,0-6.28-.3-8.25-2.49-8.9-8.63a111.18,111.18,0,0,1-.31-12q0-92.46,0-184.93a92.12,92.12,0,0,0-.24-10c-.55-5-2.49-5.65-6.44-2.26-3,2.6-5.75,5.56-8.58,8.38-9,9-17.62,18.23-27,26.76-7.23,6.59-10.05,14.1-10,23.83.31,46.31.14,92.63.12,139a105.72,105.72,0,0,1-.27,11c-.65,6.25-2.56,8.55-8.69,8.84-9.31.44-18.67.44-28,0-6.18-.29-8.11-2.58-8.8-8.75a89.7,89.7,0,0,1-.27-10q0-43.48,0-87c0-2.67.14-5.34-.07-8-.21-2.83,1-6.71-2.49-7.88-2.8-.93-4.57,2.26-6.4,4.08-12.07,12-24,24.09-36.12,36a22.26,22.26,0,0,0-6.94,17c.11,15.66,0,31.32,0,47a74.82,74.82,0,0,1-.29,9c-.75,6.12-2.66,8.29-9,8.58-9,.42-18,.45-27,0-7.07-.32-8.95-2.69-9.67-10.11-.26-2.65-.07-5.36-.48-8-.82-5.24-3.16-6.1-7.35-2.51-3.54,3-6.7,6.5-10,9.76-4,4-7.82,8.21-12.7,11.23C2879,1866.06,2870.64,1870.22,2862.18,1862Z"/><path class="cls-3" d="M2269.59,621.88c-.55.07-1.1.17-1.64.29a13.76,13.76,0,0,1-11.44,5.05c-2.66-.11-5.31,0-8,0q-437.65-.06-875.31-.07c-5.15,0-10.3.61-15.5-1.22-2.58-.91-2.58-2.47-3.32-4.14a130.5,130.5,0,0,1-1.49-20.89Q1353,312,1353,23c0-6.6-.93-13.37,2.31-19.61a28.79,28.79,0,0,1,2.65-3h676a29.26,29.26,0,0,1,2.62,2.94,21.42,21.42,0,0,1,2.28,9.63c-.08,36,.67,71.92-.36,107.87-1.14,7.53,3.24,7.19,9,7.38,34.06,1.18,68.14-1.29,102.18.8,10.68.65,13.07,2.41,13.1,12.73,0,12.9,1.5,26-3.32,38.5-.73,1.9-.53,4-.44,5.94.71,14.89,4.34,29.45,4.8,44.43.25,8.13,7.25,10.34,14.52,10.67a365,365,0,0,0,40-.05c23.72-1.54,47,7.34,70.47,3.82,30.46-4.57,61-2.55,91.5-3.84a17.72,17.72,0,0,0,11.08-3.93c5.65-5,5.52-11.8,5.56-18.44.17-26.22,0-52.43.07-78.65,0-5.29,0-10.57,2.17-15.55a4.77,4.77,0,0,1,2.25-2.77c5.2-2.22,10.66-2.57,16.22-2.55,26.31.06,52.62.21,78.93,0,18.13-.18,22.17-4.31,22.35-22.67.26-26.3,0-52.6.09-78.9,0-5-.05-10,2.51-14.54a27.1,27.1,0,0,1,2.48-2.77h364c1.45.62,1.52,1.35.18,2.2-3.7,3.83-7.34,7.72-11.11,11.49Q2579.52,311.51,2282,608.91C2277.8,613.14,2273.74,617.55,2269.59,621.88Z"/><path class="cls-4" d="M409.65,994.08q.06,173.4.13,346.79.14,259.35.29,518.69c.91,2.62-.39,3.71-2.79,4-2.38-1.1-5.15-1.83-5.33-5.19,3.84-6.06.89-12.55.92-18.78.21-49.62.12-99.23.12-148.84V1488c0-2.66,0-5.33,0-8-.3-21-4.17-25-25.41-25q-174.37-.18-348.73-.12c-7.91,0-16,1.42-23.66-2.08a5.38,5.38,0,0,1-2.94-2.45c-1.84-4.14-1.2-8.53-1.2-12.82Q1,1222.17,1,1006.85c0-3.59,1-7.33-.95-10.77v-2c4.29-5.54,10.44-5,16.42-5q64.44.08,128.89,0,121.89,0,243.79,0c5.93,0,12-.88,17.6,2.31A12.26,12.26,0,0,1,409.65,994.08Z"/><path class="cls-5" d="M405.92,1858l2.18,3.84c2.92,2.57,2.3,5.06,0,7.7-2.64,3-5.43,5.87-8.26,8.69Q206,2071.71,12.42,2265.43c-2.47,2.47-4.37,6.24-9,4.92A12,12,0,0,1,0,2267.66V1455.93a12.13,12.13,0,0,1,3.25-2.66c2.66-.53,4.63.81,6.48,2.48,2.71,2.46,5.34,5,7.92,7.6Q205.51,1651.2,393.37,1839C398.81,1844.49,405.22,1849.39,405.92,1858Z"/><path class="cls-3" d="M1030,.41h292l2.85,2.87c2.13,1.74,3.75,3.87,3.77,6.68.06,14.9,2,29.93-2.56,44.53-1.15,3.63-1,7.21-1,10.84q0,248.65,0,497.31c0,12.55,5.26,24.62,3.88,37.4-.38,3.59.44,7.36-.22,10.92-3,16-3.31,16.19-17.51,16.21q-133.36.11-266.71,0c-5.31,0-10.73.16-15.16-3.64-.78-4-.31-8-.31-11.95q0-303.72,0-607.45A5.1,5.1,0,0,1,1030,.41Z"/><path class="cls-4" d="M3.94,216.64c3.72,3.82,7.39,7.68,11.16,11.45Q204.9,417.84,394.7,607.57c4.95,4.94,10,9.76,15,14.64a14.42,14.42,0,0,1-3,2.66c-4.23,2.53-9,2.31-13.61,2.31q-188.87.09-377.74.06c-5.67,0-11.44.2-15.42-5v-2c2-3.44,1-7.18,1-10.76Q1,417.81,1.2,226.16C1.21,223.18-2.39,218.16,3.94,216.64Z"/><path class="cls-4" d="M407.84,622.26l1.9,0c.1,20.9.31,41.8.28,62.7q-.11,82.61-.38,165.22l-1.35,1.38c-1.07.73-2.16,1.41-3.29,2a108.54,108.54,0,0,1-45.36-1.13,44.16,44.16,0,0,0-10.79-1.29c-94.48,0-189-.37-283.42.35-16.69.13-33.35,4.74-50.32,3.6-4.2-.28-8.61.64-12.28-2.22-.9-1-1.88-1.82-2.83-2.73v-26a52.46,52.46,0,0,0,3.94-4.23c4.91-1.39,9.94-.73,14.9-.73q174.38-.07,348.76,0c5.33,0,10.66.12,16-.17,10.95-.61,16.58-4.21,16.75-10.59.17-6.73-5.67-10.52-17.27-11.09-5-.24-10-.14-15-.14q-174.88,0-349.76,0c-6.23,0-12.71,1-18.32-3v-28c3.39-4.66,8.32-5,13.49-5h60q149.47,0,299,0c6.32,0,12.7.43,18.9-1.24,4.46-1.2,8.22-3.59,8.22-8.74s-3.76-7.54-8.23-8.74c-6.19-1.66-12.57-1.23-18.89-1.24q-177.48,0-354.94,0c-6.26,0-12.95,1.18-17.49-5v-28c3.39-4.66,8.32-5,13.49-5h60q149.47,0,299,0c6.32,0,12.7.43,18.9-1.24,4.46-1.2,8.22-3.59,8.22-8.74s-3.76-7.54-8.23-8.74c-6.19-1.66-12.57-1.23-18.89-1.24q-177.48,0-354.94,0c-6.26,0-12.95,1.18-17.49-5v-26a13.11,13.11,0,0,1,11.41-5c4,.23,8,0,12,0H368c5.33,0,10.66.14,16-.19,12.56-.8,16.17-3.69,18.94-16.14A17.21,17.21,0,0,1,407.84,622.26Z"/><path class="cls-3" d="M2401.82,246.06c-4.68,2.16-9.67,2.26-14.68,2.26H2172.43c-1.33,0-2.67,0-4-.06-10.06-.51-12.3-2.46-12.38-12.71-.21-27.28-.1-54.57-.13-81.86,0-3.66.11-7.34-.2-11-.63-7.33-2.63-9.4-9.75-10.1-3.3-.33-6.65-.23-10-.23-29,0-57.92,0-86.88-.06a52.39,52.39,0,0,1-11.89-1c-6.16-1.47-6.81-4.22-3.35-11,29.28-2.19,58.6-.63,87.9-.95,27-.31,29.12-2.19,29.15-28.95q0-36.48,0-73c0-4.93-.27-9.94,2.57-14.39a26.08,26.08,0,0,1,2.43-2.72h246a28.88,28.88,0,0,1,2.66,3A22.85,22.85,0,0,1,2406.87,14c.14,32.75,0,65.5.1,98.25,0,4.9-1.29,9-5.09,12.21l.1-.1c-4,5.54-9.89,5-15.63,5q-96,0-192,0c-5.33,0-10.67-.22-16,.47-9.6,1.24-14.4,5.13-14.83,14.5q-1.89,40.93,0,81.91c.41,9.43,5.17,13.35,14.73,14.59,5.3.69,10.64.47,16,.48q95.49,0,191,0C2391.22,241.35,2397.34,240.79,2401.82,246.06Z"/><path class="cls-4" d="M407.93,850.16l1.71,0q0,57,0,114c-.45.48-.91.95-1.37,1.42l-1.67,1c-3.81,2.67-8.21,2.52-12.51,2.49-43.6-.28-87.43,2.73-130.75-.8-65.84-5.35-131.59-1.58-197.35-3-16.18-.35-32,5.58-48.45,3.88-4.26-.44-8.65.4-12.88-1.1-1.34-1.48-3.33-2.31-4.62-3.93v-26c.9-.9,1.81-1.81,2.73-2.69,5.1-3.6,11-2.23,16.49-2.24q175.43-.13,350.87-.08c5.67,0,11.35.28,17-.45,6.58-.84,13.22-2.56,13.09-10.8-.12-7.6-6.4-9.32-12.62-10.24a76,76,0,0,0-11-.47c-122.29.12-244.58-.35-366.87.27-3.72,0-7.33.38-9.69-3.29v-28a13.23,13.23,0,0,1,11.38-5c4,.21,8,0,12,0H367.56c5.32,0,10.65.13,16-.18,13.12-.75,16.58-3.7,19.51-16.68C403.77,855,404.35,851.69,407.93,850.16Z"/><path class="cls-3" d="M0,908.11c6.18-1.61,12.49-1.9,18.84-1.9q185.88,0,371.76,0c16.18,0,17.74,1.69,17.42,17.73-.25,11.91-2.06,13.74-14.11,14-4,.09-8,0-12,0L2.15,938A6.85,6.85,0,0,1,0,936.1Z"/><path class="cls-3" d="M0,794.15c5.13-1.79,10.45-1.92,15.8-1.92H391.59c1.66,0,3.33,0,5,.09,8.93.59,10.85,2.57,11.39,11.64,1.08,18.14-.69,20-19.05,20q-192.39.06-384.78.08C3,822.87,1,823.54,0,822.14Z"/><path class="cls-3" d="M407.93,850.16c0,6.66.27,13.34-.13,20-.44,7.17-2.7,9.18-10,9.82-3,.27-6,.19-9,.19L0,880.12v-30l2-.06c4.43-2.4,9.17-.85,13.71-.85q190.76-.16,381.51,0c3.57,0,7.32-1,10.74,1Z"/><path class="cls-3" d="M0,736.17q195.42,0,390.85,0c15.82,0,17.93,2.32,17.12,18-.48,9.43-2.51,11.49-12.12,11.93-4,.17-8,.09-12,.09H0Z"/><path class="cls-3" d="M407.84,622.26c.05,6,.31,12,.08,18-.35,9.44-2.47,11.4-12.16,11.83-3.66.17-7.33.09-11,.09L0,652.2v-30Z"/><path class="cls-3" d="M0,678.19q191.93,0,383.84.06c4.34,0,8.67,0,13,.14,2,.08,4.19.11,5.84,1,8.05,4.42,5.05,12.24,5,18.82s-2.27,8.71-7.9,9.64a48.23,48.23,0,0,1-8,.4L0,708.18Z"/><path class="cls-3" d="M0,964.09,4.11,964c2.79-1.65,5.86-.88,8.79-.88q193.19-.06,386.37,0c2.91,0,6-.88,8.73,1h-.1a85.08,85.08,0,0,1,0,29.9L0,994.08Z"/><path class="cls-6" d="M2271.74,2479.33c6.33.09,12.66.24,19,.24q608.59,0,1217.18,0c-.44.62,1,2.09-1,2-2.67-.09-5.33,0-8,0h-1229l-1.4-1,1.61-.62-.25-.78C2270.59,2478.23,2271.2,2478.33,2271.74,2479.33Z"/><path class="cls-7" d="M1030,.41c-.14.71-.27,1.42-.41,2.14q-.87,2.46-1.87.05c-6.66-.06-13.32-.17-20-.17l-982.08,0c-6.66,0-13.32,0-20-.05Q3.64,1,6,.41Z"/><path class="cls-8" d="M1650,2481.58H1028a2.86,2.86,0,0,1-.41-3.53,7.65,7.65,0,0,1,3.52-1.63c4.75-2,9.77-1.82,14.76-1.82q295.14,0,590.26.07c5.09,0,10.76-1.52,15,3.19A4.06,4.06,0,0,1,1650,2481.58Z"/><path class="cls-9" d="M2888.1,2.61l-.18-2.2q306,0,612,.11c2.62,0,6.14-2,8,1.89H2908.1C2901.43,2.42,2894.77,2.55,2888.1,2.61Z"/><path class="cls-10" d="M1650,2481.58l-.06-1.65c-.17-5.12,3.92-4.68,7-5,4.63-.57,9.32-.29,14-.29q284.31,0,568.61,0c8.71,0,17.32.44,25.79,2.6a34.74,34.74,0,0,1,3,2.15,12.2,12.2,0,0,1,1.87.66c-.08.54-.14,1.08-.21,1.62Z"/><path class="cls-2" d="M0,996.08c2.57,6.38,2,13.09,2,19.72q0,206.57,0,413.14c0,7-.37,14,1.78,20.79-1.18,1.77-2.47,1.5-3.81.2Z"/><path class="cls-11" d="M0,2267.66l3.84-.32c5.06.82,4.73,4.93,5,8.46.43,6.63.19,13.28.19,19.92q0,83.66-.05,167.32c0,5.67,1.12,11.7-3.51,16.45a4.31,4.31,0,0,1-5.43.09Z"/><path class="cls-2" d="M3.94,216.64C1.49,222.7,2,229.08,2,235.37Q2,417.93,2,600.49c0,6.63.56,13.34-2,19.72V214.34Z"/><path class="cls-1" d="M0,2479.58l4.06-.31c3.36-3.87,7.81-4.74,12.65-4.73,80.72.13,161.44,0,242.16.1,4.1,0,8.09.47,11.33,3.39a3.19,3.19,0,0,1-.21,3.55q-131,0-262-.1C5.35,2481.47,1.84,2483.5,0,2479.58Z"/><path class="cls-1" d="M1028.08,2479.88c0,.57-.06,1.14-.11,1.7H760a3.18,3.18,0,0,1-.17-3.58c3.55-3.09,7.86-3.36,12.33-3.36q121.76-.19,243.5.06C1020.23,2474.7,1026.05,2473.15,1028.08,2479.88Z"/><path class="cls-1" d="M636,2481.58H392a3.17,3.17,0,0,1-.17-3.57c3.55-3.09,7.86-3.37,12.33-3.37q109.86-.15,219.7,0c4.46,0,8.78.31,12.35,3.41A3.17,3.17,0,0,1,636,2481.58Z"/><path class="cls-12" d="M636,2481.58a17.72,17.72,0,0,0,.14-1.8l.51-1.81a8.49,8.49,0,0,1,3.34-1.64,26.15,26.15,0,0,1,10.65-1.75c32.26,0,64.52-.09,96.79.09,3.54,0,7.29-.38,10.39,2.14a3.44,3.44,0,0,1,2.08,2.9c0,.63,0,1.25.1,1.87Z"/><path class="cls-13" d="M2401.93,2.42v-2h122c0,.7-.09,1.4-.14,2.1-3.23,4.06-7.7,5-12.55,5q-48.39-.15-96.78,0C2409.55,7.49,2405.2,6.34,2401.93,2.42Z"/><path class="cls-14" d="M2155.94.41c0,.65,0,1.3,0,1.94-3.24,3.88-7.51,5.15-12.42,5.13-32.59-.14-65.19-.07-97.78,0-4.57,0-8.62-1-11.59-4.78l-.25-2.26Z"/><path class="cls-12" d="M392.18,2479.41c-.07.72-.13,1.45-.19,2.17H270c0-.7-.07-1.4-.1-2.1.27-.56.54-1.12.77-1.73,3.69-3.13,8.13-3.06,12.61-3.09,31.75-.22,63.49,0,95.24-.1,4.48,0,9,.08,12.83,3.15A17.93,17.93,0,0,1,392.18,2479.41Z"/><path class="cls-15" d="M1322.26,2.68,1322,.41h36c0,.72-.08,1.44-.11,2.16-10.26,8.46-21.44,5.1-32.56,2.56A13.74,13.74,0,0,1,1322.26,2.68Z"/><path class="cls-4" d="M0,1449.93l3.82-.2.23.27c.55,2,5.38,4.2-.18,6L0,1455.93Z"/><path class="cls-16" d="M6,.41c-.13.64-.25,1.29-.35,1.93L0,2.41C.79-1.88,4.1,1.39,6,.41Z"/><path class="cls-4" d="M0,822.14l4.14,2-4.14,0Z"/><path class="cls-4" d="M0,936.1,2.15,938,0,938.1Z"/><path class="cls-5" d="M3307.84,909.12q0,69.95,0,139.88c0,3.66-.06,7.32-.22,11-.14,3-.58,6.17-2.84,8.34-7.09,6.77-15.84,10.91-24.71,14.71-3,1.3-5.18-.68-5.65-3.83a54.19,54.19,0,0,1-.48-8c0-31,.08-61.94-.09-92.91,0-7.93,2.1-14.86,5.87-21.81,17-31.37,17.05-63.06.17-94.47-3.91-7.28-6.1-14.5-6-22.77.19-30.64.07-61.28.07-91.92,0-1,0-2,0-3,.39-10.18,2-11.19,11.35-6.47,5.35,2.69,10.46,5.84,15.65,8.83,4.43,2.55,6.54,6.51,6.69,11.54.12,3.66.2,7.32.21,11Q3307.85,839.2,3307.84,909.12Z"/><path class="cls-5" d="M3083.9,908.41c0-47.3.31-94.6-.22-141.89-.13-11.82,3.49-19.83,14.32-24.64,4.24-1.88,8.11-4.6,12.33-6.54,3.94-1.82,6.51-.15,7.08,4.09a60.68,60.68,0,0,1,.4,8c0,30-.09,60,.08,89.92a48.39,48.39,0,0,1-6.1,23.77c-17,32-17.47,64.41.17,96.4a45.34,45.34,0,0,1,5.92,22.81c-.15,30.31,0,60.62-.08,90.92,0,13.92-2.19,15.12-14.13,8.44-19.76-11.08-19.77-11.08-19.78-33.37Q3083.89,977.35,3083.9,908.41Z"/><path class="cls-5" d="M3052.24,1036.12c-3.17.17-4.32-1.63-5.54-3.15a197.94,197.94,0,0,1-22-33.27,41.3,41.3,0,0,1-4.72-19.17q.08-71.43,0-142.86a40.14,40.14,0,0,1,4.74-19.17c6.23-11.84,13.88-22.72,22-33.27,1.18-1.54,2.36-3.32,4.77-3.13,2.31,1,2.05,3.25,2.23,5.17C3055.35,805,3054.05,1028.72,3052.24,1036.12Z"/><path class="cls-5" d="M3339.12,1035.07c-1.89-9.25-1.76-243.78.26-252.61,4,.67,6,4,8.07,6.73a233.06,233.06,0,0,1,17.43,25.56,35.11,35.11,0,0,1,5,18q0,76.41-.06,152.82c0,3,0,6.21-1.13,8.86-6.32,15.19-14.86,29-26.84,40.44A2.07,2.07,0,0,1,3339.12,1035.07Z"/><path class="cls-5" d="M3243.88,772.55c0,12.3,0,24.6,0,36.9a52.59,52.59,0,0,1-.49,7.94c-.59,3.73-3,5-6.54,3.89-6.64-2.16-13.24-4.43-19.85-6.67-4.29-1.44-6.37-4.58-6.69-9-.18-2.31-.3-4.64-.3-7q0-33.4,0-66.82a68.24,68.24,0,0,1,.42-8c.57-4.75,3.4-7.15,8.18-6.66a131.12,131.12,0,0,1,14.8,2.1c7.86,1.71,10.1,4.16,10.29,12.33.32,13.62.09,27.26.09,40.89Z"/><path class="cls-5" d="M3243.85,1046c0,12.63.14,25.26,0,37.89-.16,11.41-2.19,13.58-13.61,15.78-2.61.5-5.24.94-7.88,1.25-9.47,1.09-12.11-.89-12.2-10.7-.23-24.93,0-49.86-.09-74.8,0-6.51,2.64-10.57,9.18-12.33,5.44-1.46,10.65-3.77,16-5.54,6-2,7.82-.84,8.45,5.57.35,3.63.21,7.31.22,11q0,16,0,31.92Z"/><path class="cls-5" d="M3147.91,772.33c0-13-.18-26,.06-38.92.19-10,2.08-12.1,11.8-14.14a117.56,117.56,0,0,1,11.83-1.77c4.89-.51,7.48,2,8,6.78a56.7,56.7,0,0,1,.31,6c0,23.29.1,46.57,0,69.85-.06,11.47-1.06,12.55-12,16.41-4.08,1.44-8.05,3.2-12.17,4.47-5,1.53-6.81.39-7.49-4.77a88.72,88.72,0,0,1-.36-11c0-11,0-22,0-32.93Z"/><path class="cls-5" d="M3147.86,1045c0-12,0-23.92,0-35.88a64,64,0,0,1,.42-7.95c.42-3.16,2.33-4.65,5.61-4a15.46,15.46,0,0,1,1.92.5c25.89,9,24.07,4.54,24.13,30.61q.06,27.92,0,55.81c0,2,0,4-.07,6-.51,9.94-2.21,11.35-12.36,10.28l-2-.24c-15.82-2-17.6-4-17.67-20.24C3147.81,1068.27,3147.86,1056.64,3147.86,1045Z"/><path class="cls-17" d="M3224.07,199.05c1.83,0,3.24.64,3.51,2.6.24,1.78-.41,3.32-2.28,3.76-2.38.56-3.83-.8-4.09-3C3221,200.57,3222.23,199.42,3224.07,199.05Z"/><path class="cls-18" d="M3180.25,121.8c-.17,2.27-1.3,3.79-3.61,3.7a3.42,3.42,0,0,1-3.45-3.84,3.08,3.08,0,0,1,3.1-3.11A3.34,3.34,0,0,1,3180.25,121.8Z"/><path class="cls-18" d="M3227.58,282.75c-.31,1.89-1.49,3-3.34,2.79-2.31-.26-3.47-1.82-2.91-4.12a3,3,0,0,1,3.77-2.28C3227,279.53,3227.72,280.88,3227.58,282.75Z"/><path class="cls-18" d="M3176.33,479c2.7.31,3.94,1.65,3.88,3.9a3.09,3.09,0,0,1-3,3.19c-2.25.2-3.85-.87-4-3.2S3174.68,479.52,3176.33,479Z"/><path class="cls-18" d="M3227.61,362.44c-.15,1.88-1.11,3.17-3,3.13-2.32-.05-3.7-1.51-3.35-3.81a3.11,3.11,0,0,1,3.55-2.66C3226.75,359.26,3227.53,360.59,3227.61,362.44Z"/><path class="cls-18" d="M3227.59,242.59c-.25,1.88-1.34,3.09-3.2,2.95a3.11,3.11,0,0,1-3.1-4,3,3,0,0,1,3.68-2.43C3226.92,239.37,3227.68,240.71,3227.59,242.59Z"/><path class="cls-18" d="M3224.44,319a3.1,3.1,0,0,1,3.16,3.07c.14,1.88-.74,3.26-2.68,3.42-2.34.2-3.82-1.08-3.71-3.44A3.2,3.2,0,0,1,3224.44,319Z"/><path class="cls-17" d="M3084.47,122.58c-.46,1.77-1.58,3-3.4,2.87-2.45-.14-3.33-1.87-2.93-4.1.34-1.95,1.88-2.61,3.68-2.28A3.13,3.13,0,0,1,3084.47,122.58Z"/><path class="cls-17" d="M3221.21,482.76a3.2,3.2,0,0,1,2.74-3.47,2.79,2.79,0,0,1,3.6,2.37c.43,2.29-.59,3.86-3,4C3222.71,485.74,3221.62,484.54,3221.21,482.76Z"/><path class="cls-17" d="M3224.48,119c1.84.15,3,1.08,3.16,3s-.71,3.29-2.63,3.45c-2.29.19-3.8-1-3.71-3.41A3.07,3.07,0,0,1,3224.48,119Z"/><path class="cls-17" d="M3176.85,445.66a3.07,3.07,0,0,1-3.36-2.83c-.25-2.39,1.23-3.67,3.51-3.63,2,0,2.88,1.45,2.85,3.29A3,3,0,0,1,3176.85,445.66Z"/><path class="cls-17" d="M3084.44,362.48c-.3,1.77-1.15,3.15-3.09,3.13-2.38,0-3.58-1.46-3.29-3.79a2.87,2.87,0,0,1,3.44-2.63A3.15,3.15,0,0,1,3084.44,362.48Z"/><path class="cls-17" d="M3084.47,442.12c0,1.88-.9,3.18-2.77,3.45s-3.31-.47-3.6-2.41c-.34-2.26.67-3.9,3.08-4C3083,439.1,3084.08,440.36,3084.47,442.12Z"/><path class="cls-17" d="M3084.46,482.82c-.47,1.76-1.54,2.95-3.41,2.81-2.44-.17-3.36-1.79-2.88-4.05a2.79,2.79,0,0,1,3.66-2.29A3.15,3.15,0,0,1,3084.46,482.82Z"/><path class="cls-17" d="M3176.38,399.15c1.87,0,3.23.8,3.48,2.66.3,2.33-.92,3.77-3.29,3.81-2,0-2.94-1.36-3.05-3.14S3174.54,399.5,3176.38,399.15Z"/><path class="cls-17" d="M3224.68,439.12a3,3,0,0,1,3,3.22c.06,1.87-.86,3.2-2.81,3.26-2.32.07-3.76-1.2-3.51-3.57C3221.51,440.25,3222.85,439.28,3224.68,439.12Z"/><path class="cls-17" d="M3084.46,402.18c-.17,1.95-1,3.27-2.92,3.42s-3.27-.7-3.48-2.61c-.26-2.27.83-3.83,3.25-3.81C3083.2,399.19,3084.12,400.54,3084.46,402.18Z"/><path class="cls-17" d="M3084.48,162.39c-.38,1.85-1.43,3.12-3.27,3.08-2.41-.06-3.44-1.69-3.12-3.95.27-2,1.77-2.68,3.58-2.47S3084.38,160.62,3084.48,162.39Z"/><path class="cls-18" d="M3129,486.16c-2.66-.41-3.76-1.82-3.43-4.09a3.17,3.17,0,0,1,3.23-3,3.35,3.35,0,0,1,3.65,3.58C3132.41,485,3130.84,486,3129,486.16Z"/><path class="cls-17" d="M3224.85,405.62c-1.88.08-3.29-.81-3.55-2.59-.34-2.3,1-3.77,3.31-3.86,1.89-.07,2.93,1.26,3,3.11A2.92,2.92,0,0,1,3224.85,405.62Z"/><path class="cls-17" d="M3227.66,162.52c-.28,1.84-1.34,3.08-3.2,2.94a3.08,3.08,0,0,1-3.07-4,3,3,0,0,1,3.65-2.4C3227,159.34,3227.77,160.63,3227.66,162.52Z"/><path class="cls-17" d="M3179.9,162.33c-.21,1.82-1.12,3.17-3,3.13-2.3-.06-3.66-1.46-3.29-3.8a3,3,0,0,1,3.48-2.64C3179,159.21,3179.85,160.46,3179.9,162.33Z"/><path class="cls-17" d="M3084.44,202.13a3.12,3.12,0,0,1-2.9,3.31,2.87,2.87,0,0,1-3.47-2.6c-.31-2.32.85-3.78,3.24-3.82C3083.26,199,3084.1,200.38,3084.44,202.13Z"/><path class="cls-19" d="M3319.55,159.31a2.92,2.92,0,0,1,3.25,2.88,2.72,2.72,0,0,1-2.15,2.92,2.8,2.8,0,0,1-3.68-2.26C3316.57,161,3317.72,159.81,3319.55,159.31Z"/><path class="cls-20" d="M3036.71,202.38c-.39,1.76-1.36,3.11-3.28,2.84a2.86,2.86,0,0,1-2.55-3.5,2.72,2.72,0,0,1,2.7-2.36C3035.54,199.3,3036.45,200.55,3036.71,202.38Z"/><path class="cls-11" d="M3132.18,202.05a3,3,0,0,1-2.75,3.42,2.91,2.91,0,0,1-3.61-2.45c-.4-2.31.76-3.83,3.12-3.93C3130.78,199,3131.87,200.22,3132.18,202.05Z"/><path class="cls-20" d="M3176.42,205.51a3,3,0,0,1-2.83-3.31,2.91,2.91,0,0,1,3-3.09c2.37,0,3.57,1.44,3.24,3.74C3179.61,204.67,3178.29,205.55,3176.42,205.51Z"/><path class="cls-18" d="M3132.17,442.45c-.24,1.83-1.18,3.05-3.09,3.11a2.93,2.93,0,0,1-3.3-2.82c-.17-2.34,1.16-3.7,3.51-3.58C3131.19,439.26,3132.08,440.59,3132.17,442.45Z"/><path class="cls-20" d="M3036.74,401.93a3,3,0,0,1-2.76,3.33,2.55,2.55,0,0,1-2.95-2,2.75,2.75,0,0,1,2-3.75C3035,399.06,3036.06,400.25,3036.74,401.93Z"/><path class="cls-19" d="M3272.17,445.31c-2-.07-3.12-1.12-3.13-3a2.82,2.82,0,0,1,2.3-2.82,2.79,2.79,0,0,1,3.53,2.47C3275.21,443.88,3274,444.91,3272.17,445.31Z"/><path class="cls-19" d="M3319.94,445.32c-2-.26-3.15-1.27-3-3.22a2.93,2.93,0,0,1,5.84,0C3323,444.1,3321.65,445,3319.94,445.32Z"/><path class="cls-19" d="M3367.55,439.19c1.86.26,3.06,1.38,3.06,3.17,0,2.36-1.48,3.56-3.81,3.21a2.85,2.85,0,0,1-2.55-3.48A3.2,3.2,0,0,1,3367.55,439.19Z"/><path class="cls-20" d="M3370.68,362.72c-.61,1.76-1.72,2.93-3.6,2.49a2.79,2.79,0,0,1-2.1-3.74,2.56,2.56,0,0,1,2.91-2.05A3,3,0,0,1,3370.68,362.72Z"/><path class="cls-20" d="M3275,481.89a3,3,0,0,1-2.71,3.39,2.65,2.65,0,0,1-3-1.95,2.76,2.76,0,0,1,2.06-3.76C3273.15,479,3274.32,480.18,3275,481.89Z"/><path class="cls-20" d="M3316.87,482.68a3,3,0,0,1,2.89-3.23,2.71,2.71,0,0,1,2.91,2.14,2.77,2.77,0,0,1-2.25,3.66C3318.58,485.63,3317.37,484.53,3316.87,482.68Z"/><path class="cls-19" d="M3370.67,482.69c-.35,1.78-1.36,3-3.22,3-2.36-.05-3.53-1.54-3.17-3.84a2.89,2.89,0,0,1,3.54-2.5A3.15,3.15,0,0,1,3370.67,482.69Z"/><path class="cls-20" d="M3084.37,321.89a3.16,3.16,0,0,1-2.57,3.55,2.77,2.77,0,0,1-3.67-2.2c-.47-2.2.34-3.92,2.81-4.1C3082.76,319,3083.89,320.13,3084.37,321.89Z"/><path class="cls-19" d="M3370.69,162.42c-.56,1.92-1.67,3.14-3.48,3-2.36-.22-3.37-1.86-2.86-4.11a2.86,2.86,0,0,1,3.72-2.21A3.14,3.14,0,0,1,3370.69,162.42Z"/><path class="cls-20" d="M3368,279.34c1.71.5,3,1.59,2.6,3.46a2.82,2.82,0,0,1-3.6,2.37,2.69,2.69,0,0,1-2.16-2.87A2.83,2.83,0,0,1,3368,279.34Z"/><path class="cls-19" d="M3316.88,282.69a2.94,2.94,0,0,1,2.91-3.31,2.7,2.7,0,0,1,2.93,2.15,2.83,2.83,0,0,1-2.29,3.69C3318.56,285.63,3317.41,284.41,3316.88,282.69Z"/><path class="cls-19" d="M3274.92,402.6c-.42,1.79-1.47,3-3.4,2.65a2.94,2.94,0,0,1,.42-5.84C3273.84,399.47,3274.87,400.63,3274.92,402.6Z"/><path class="cls-19" d="M3269,282.61a3,3,0,0,1,3-3.23,2.66,2.66,0,0,1,2.9,2.16,2.84,2.84,0,0,1-2.3,3.68C3270.64,285.61,3269.49,284.39,3269,282.61Z"/><path class="cls-20" d="M3180,282.41c-.2,1.82-1.13,3.12-3,3.1-2.32,0-3.61-1.47-3.29-3.76a3,3,0,0,1,3.48-2.62C3179.05,279.27,3179.87,280.56,3180,282.41Z"/><path class="cls-20" d="M3084.38,282.51c-.35,1.81-1.36,3.07-3.22,3-2.39-.07-3.43-1.63-3.09-3.89a2.83,2.83,0,0,1,3.53-2.46A3.07,3.07,0,0,1,3084.38,282.51Z"/><path class="cls-20" d="M3033.73,285.29c-1.88-.29-3-1.31-2.86-3.24a2.77,2.77,0,0,1,2.42-2.67,2.8,2.8,0,0,1,3.34,2.71C3036.82,284,3035.55,285,3033.73,285.29Z"/><path class="cls-19" d="M3322.88,402a3,3,0,0,1-2.93,3.3,2.66,2.66,0,0,1-2.91-2.14,2.86,2.86,0,0,1,2.3-3.7C3321.21,399,3322.33,400.27,3322.88,402Z"/><path class="cls-19" d="M3319.51,359.32a3,3,0,0,1,3.3,2.94,2.66,2.66,0,0,1-2.16,2.9,2.82,2.82,0,0,1-3.68-2.29C3316.58,361,3317.79,359.86,3319.51,359.32Z"/><path class="cls-19" d="M3274.94,362c-.09,2.14-1.14,3.27-3.05,3.28a2.76,2.76,0,0,1-2.83-2.29,2.87,2.87,0,0,1,2.5-3.57C3273.53,359,3274.46,360.43,3274.94,362Z"/><path class="cls-20" d="M3179.93,362.76c-.35,1.85-1.5,2.92-3.34,2.76-2.39-.21-3.37-1.82-2.87-4.06a2.9,2.9,0,0,1,3.71-2.25C3179.26,359.58,3180.06,360.9,3179.93,362.76Z"/><path class="cls-11" d="M3132.2,362.63c-.43,1.94-1.58,3.05-3.42,2.91-2.41-.19-3.41-1.81-2.92-4.08a2.88,2.88,0,0,1,3.72-2.26A3.09,3.09,0,0,1,3132.2,362.63Z"/><path class="cls-20" d="M3033.41,365.31c-1.85-.53-2.93-1.74-2.51-3.58a2.75,2.75,0,0,1,3.67-2.2,2.69,2.69,0,0,1,2.09,2.94A2.93,2.93,0,0,1,3033.41,365.31Z"/><path class="cls-20" d="M3319.92,119.31c1.85.33,3.14,1.32,2.85,3.26a2.87,2.87,0,0,1-3.47,2.6,2.8,2.8,0,0,1-2.37-2.74C3316.87,120.47,3318.05,119.5,3319.92,119.31Z"/><path class="cls-20" d="M3370.72,242.48c-.58,1.82-1.66,3.11-3.53,2.73a2.84,2.84,0,0,1-2.26-3.68,2.63,2.63,0,0,1,2.86-2.15A3,3,0,0,1,3370.72,242.48Z"/><path class="cls-18" d="M3132.14,402.58c-.28,1.84-1.35,3.05-3.2,3-2.35-.1-3.51-1.62-3.12-3.93a2.92,2.92,0,0,1,3.59-2.46A3,3,0,0,1,3132.14,402.58Z"/><path class="cls-19" d="M3322.87,242.38c-.34,1.83-1.35,3.12-3.29,2.87a2.87,2.87,0,0,1-2.64-3.48,2.8,2.8,0,0,1,2.73-2.4C3321.63,239.29,3322.61,240.51,3322.87,242.38Z"/><path class="cls-19" d="M3274.94,242.6c-.49,1.78-1.6,3-3.49,2.63a2.85,2.85,0,0,1-2.35-3.66,2.74,2.74,0,0,1,2.9-2.19A2.9,2.9,0,0,1,3274.94,242.6Z"/><path class="cls-19" d="M3128.47,279.12c1.83-.08,3.28.61,3.58,2.49.37,2.29-.77,3.83-3.13,3.92a3,3,0,0,1-3.16-3A3,3,0,0,1,3128.47,279.12Z"/><path class="cls-17" d="M3129.13,119a3,3,0,0,1,3,3.16,2.9,2.9,0,0,1-2.87,3.26c-2.36.12-3.66-1.25-3.46-3.6C3126,120,3127.27,119.11,3129.13,119Z"/><path class="cls-20" d="M3370.67,402.23c-.2,1.88-1.15,3.09-3.08,3a2.71,2.71,0,0,1-2.72-2.33,2.81,2.81,0,0,1,2.48-3.5C3369.27,399.16,3370.22,400.53,3370.67,402.23Z"/><path class="cls-20" d="M3272.26,119.31c1.8.46,3,1.58,2.61,3.46a2.93,2.93,0,0,1-5.81-.58A2.85,2.85,0,0,1,3272.26,119.31Z"/><path class="cls-19" d="M3370.67,122.44c-.42,1.75-1.48,3-3.3,2.94-2.32-.13-3.47-1.7-3.06-4,.33-1.88,1.83-2.65,3.63-2.37A3.05,3.05,0,0,1,3370.67,122.44Z"/><path class="cls-20" d="M3370.73,322.52c-.59,1.85-1.67,3.1-3.55,2.71a2.81,2.81,0,0,1-2.24-3.67,2.62,2.62,0,0,1,2.85-2.15A3,3,0,0,1,3370.73,322.52Z"/><path class="cls-20" d="M3033.54,165.3c-2-.61-3-1.8-2.63-3.64a2.76,2.76,0,0,1,3.68-2.18,2.64,2.64,0,0,1,2.07,2.92A3.1,3.1,0,0,1,3033.54,165.3Z"/><path class="cls-19" d="M3322.87,322.43c-.38,1.81-1.39,3.09-3.33,2.82a2.84,2.84,0,0,1-2.58-3.5,2.78,2.78,0,0,1,2.76-2.37C3321.67,319.34,3322.67,320.53,3322.87,322.43Z"/><path class="cls-20" d="M3034,319.34c1.73.51,3,1.6,2.61,3.47a2.84,2.84,0,0,1-3.61,2.37,2.68,2.68,0,0,1-2.16-2.88A2.85,2.85,0,0,1,3034,319.34Z"/><path class="cls-19" d="M3176.44,245.52a3,3,0,0,1-2.85-3.3,2.92,2.92,0,0,1,3-3.11c2.38,0,3.57,1.46,3.26,3.76C3179.65,244.71,3178.31,245.57,3176.44,245.52Z"/><path class="cls-18" d="M3128.59,165.51a3,3,0,0,1-2.83-3.34,2.88,2.88,0,0,1,3-3.09c2.35,0,3.62,1.47,3.29,3.78C3131.82,164.67,3130.45,165.55,3128.59,165.51Z"/><path class="cls-19" d="M3177,319.07a3,3,0,0,1,3,3.19c0,1.85-.93,3.18-2.85,3.24-2.32.06-3.71-1.22-3.46-3.59C3173.82,320.09,3175.13,319.16,3177,319.07Z"/><path class="cls-18" d="M3129,319.05c1.85.19,3.08,1.2,3.16,3.05.11,2.41-1.34,3.61-3.67,3.37a2.88,2.88,0,0,1-2.69-3.41A3.15,3.15,0,0,1,3129,319.05Z"/><path class="cls-18" d="M3132.15,242.57c-.31,1.83-1.38,3.05-3.23,3-2.35-.11-3.49-1.67-3.11-4,.31-1.89,1.78-2.69,3.6-2.43A3,3,0,0,1,3132.15,242.57Z"/><path class="cls-20" d="M3084.34,242.66c-.41,1.78-1.52,3-3.34,2.85-2.4-.15-3.33-1.8-2.92-4,.35-1.91,1.83-2.64,3.63-2.28A3.06,3.06,0,0,1,3084.34,242.66Z"/><path class="cls-20" d="M3036.71,242.58c-.56,1.72-1.63,3-3.5,2.62a2.82,2.82,0,0,1-2.26-3.66,2.64,2.64,0,0,1,2.86-2.16A2.92,2.92,0,0,1,3036.71,242.58Z"/><path class="cls-20" d="M3367.58,205.29c-1.89-.46-3.06-1.54-2.73-3.44a2.79,2.79,0,0,1,3.54-2.43,2.71,2.71,0,0,1,2.23,2.82A3,3,0,0,1,3367.58,205.29Z"/><path class="cls-19" d="M3322.89,201.81a3.08,3.08,0,0,1-2.75,3.44,2.63,2.63,0,0,1-3-2,2.74,2.74,0,0,1,2.05-3.79C3321,199,3322.24,200.06,3322.89,201.81Z"/><path class="cls-19" d="M3274.94,202.59c-.49,1.76-1.57,3-3.47,2.62a2.87,2.87,0,0,1-2.36-3.65,2.71,2.71,0,0,1,2.89-2.18C3273.9,199.47,3274.92,200.62,3274.94,202.59Z"/><path class="cls-19" d="M3272,159.31c1.89.34,3.14,1.37,2.85,3.31a2.79,2.79,0,0,1-3.47,2.57,2.86,2.86,0,0,1-2.37-2.77C3269,160.47,3270.18,159.5,3272,159.31Z"/><path class="cls-19" d="M3272.07,319.33c1.82.37,3.09,1.39,2.81,3.34a2.83,2.83,0,0,1-3.5,2.57,2.8,2.8,0,0,1-2.37-2.77C3269,320.54,3270.17,319.53,3272.07,319.33Z"/><path class="cls-19" d="M3036.6,122c-.15,1.92-1.15,3.07-3,3.06a2.66,2.66,0,0,1-2.72-2.29,2.81,2.81,0,0,1,2.48-3.49C3035.26,119,3036.2,120.31,3036.6,122Z"/><path class="cls-19" d="M3033.89,485.36c-2-.08-3.06-1.12-3.08-3a2.66,2.66,0,0,1,2.24-2.76,2.79,2.79,0,0,1,3.48,2.46C3036.83,483.93,3035.63,485,3033.89,485.36Z"/><path class="cls-19" d="M3033.65,445.36c-1.87-.28-3-1.29-2.84-3.22a2.86,2.86,0,0,1,5.72.08C3036.71,444.11,3035.52,445.15,3033.65,445.36Z"/><path class="cls-3" d="M1028.08,2479.88c-5-.1-10-.28-14.95-.28q-126.61,0-253.25.11l0,0c-4.48-3.55-4.89-8.47-4.88-13.68,0-25.91.16-51.81-.06-77.72-.17-19.42-4.16-23.44-23.45-23.6-25.91-.22-51.83-.06-77.74-.05-5.7,0-11.27-.31-16.58-2.57-5.71-4-6.16-9.89-6.16-16.08,0-27,.13-53.94-.05-80.91-.14-20.27-4-24.3-23.81-24.35q-92.93-.22-185.85,0c-.67,0-1.33,0-2,0-17.66.44-22,4.48-22.18,21.93-.31,27-.08,53.94-.09,80.91,0,5.35-.09,10.65-2.18,15.69a5,5,0,0,1-2.25,2.83c-5.14,2.33-10.61,2.58-16.15,2.57-26.29,0-52.59-.2-78.89.06-18.08.19-22.27,4.42-22.45,22.62-.26,26.29-.08,52.58-.07,78.86,0,5.13-.23,10.09-5.13,13.29h0q-129.42,0-258.85.07c-2.33,0-4.65-.18-7-.27l-.21-211.94c4.12-4.35,8.16-8.78,12.39-13q190.1-190.08,380.2-380.13c4-4,7.77-8.22,11.66-12.34l2-2.29c3.79-2.23,6.6-5.57,9.66-8.62q299.81-299.64,599.56-599.32c3.05-3.06,5.87-6.36,8.8-9.54,2-5.47,1.64-11.17,1.64-16.82q0-72.94,0-145.89c0-18.88.42-19.32,18.77-19.32H2251c18.3,0,18.72.4,18.73,18.27,0,49,.71,97.93-.11,146.88-3.46,206.49-.48,413-1.53,619.47,0,5-.22,10-.33,15-4.92,3.17-7.57-1.76-10.84-3.45-3.76-1.94-6.44-5.65-9.49-8.7q-256.15-256.23-512.36-512.39c-3.06-3.07-6-6.24-9.74-8.55-1.23-10.61-6.52-17.18-17.79-17.78-16.77-18.83-35.39-35.84-52.94-53.89-4.71-4.85-8.84-2.55-12.79,1.42-11.47,11.5-23.14,22.83-34.32,34.61-5.65,5.95-12.71,10.23-18.1,16.39-8.37,2.88-15.36,7-15.42,17.28-5.32,4-9.58,9.08-14.24,13.75q-255.2,255.39-510.57,510.58c-5.5,5.51-14.35,9-13.38,19.2-1,8-.79,16-.79,24q0,284.28-.08,568.54c0,6.52,2,13.87-5.15,18.54C1029.19,2479.4,1028.63,2479.63,1028.08,2479.88Z"/><path class="cls-4" d="M718.94,134.08c75.65-2.7,139.8,63.53,139.51,138.35-.28,70.92-55.41,139-139.31,139.08-82.56.12-138.92-66.82-139-138.42C580.12,189.84,649.59,131.48,718.94,134.08Z"/><path class="cls-21" d="M1027.69,2.6c.62,0,1.25,0,1.87-.06.13,6.33.38,12.65.38,19q0,289.71,0,579.41c0,7,0,14,.09,21,4.81,3.76,4.93,9.05,4.93,14.5-.1,97.23.18,194.46-.16,291.69.29,38.49.1,77,.14,115.47,0,5.49-.24,10.7-5,14.49-2.35,5.71-2,11.74-2,17.73q0,72.38,0,144.75c0,6-.16,12-.25,18-14.21-14.07-28.34-28.21-42.65-42.18-4.84-4.72-7.34-10.15-7.14-16.9.11-3.66,0-7.33,0-11q0-261.88,0-523.78c0-4.33-.14-8.69.27-13,.61-6.56,2.8-8.87,9.45-9.26,7.64-.45,15.33-.2,23-.3,3,0,6-.08,9-.33,5.09-.44,7.82-3.36,8.1-8.43.21-3.66.27-7.33.27-11q0-293.39,0-586.76C1027.94,11.26,1027.78,6.93,1027.69,2.6Z"/><path class="cls-21" d="M930.05,881.84q0,120.35-.08,240.7c0,4.49,2.22,11.16-2,13-5.17,2.26-7.94-4.59-11.33-7.82-10.35-9.88-20.16-20.33-30.52-30.21-5.73-5.47-8.49-11.71-8.07-19.54.16-3,0-6,0-9q0-212.23,0-424.48c0-4.33-.13-8.68.27-13,.58-6.3,2.53-8.78,8.52-9,11.3-.45,22.64-.44,33.94,0,6.12.21,8.23,2.63,8.92,8.68a103.78,103.78,0,0,1,.34,12Q930.06,762.49,930.05,881.84Z"/><path class="cls-21" d="M831.92,833.38q0,96-.11,191.93c0,4.35,2.47,10.75-2.61,12.59-3.94,1.43-6.83-4.4-9.84-7.34-10.71-10.48-21.13-21.28-31.9-31.72-5.11-5-7.85-10.62-7.5-17.76.08-1.66,0-3.33,0-5q0-167.94,0-335.87c0-17.15.94-18,18.12-18.09,5.66,0,11.33,0,17,0,15.66.12,16.75,1.24,16.85,17.33,0,3,0,6,0,9Z"/><path class="cls-21" d="M732.12,783q0,71.38-.06,142.76c0,4.15,1.93,10.08-2.19,12-4.45,2.05-7-3.81-9.93-6.64-9.82-9.48-19-19.65-29.13-28.74-8.18-7.33-10.94-15.77-10.84-26.5.4-38.93.16-77.86.16-116.8q0-59.9,0-119.79c0-15.95,1.2-17.09,16.94-17.17,8,0,16-.18,24,.17,8.29.36,10.38,2.64,10.93,11,.24,3.65.14,7.32.14,11Q732.14,713.67,732.12,783Z"/><path class="cls-21" d="M634,734c0,31.93,0,63.86-.06,95.79,0,3.5,1.57,8.37-2.05,10.13-4,1.94-6.13-2.94-8.57-5.31-11.19-10.92-22-22.22-33.29-33C584.35,796.07,582,789.83,582,782c.13-48.56,0-97.12.1-145.68,0-12.13,2-14,13.87-14.16,8.32-.15,16.64-.17,25,0,10.76.26,12.91,2.27,13,13,.2,19.95.09,39.91.1,59.86Q634,714.52,634,734Z"/><path class="cls-21" d="M535.9,685.18q0,23,0,46a60.66,60.66,0,0,1-.36,8c-.55,3.92-2.73,4.2-5.56,2a45.18,45.18,0,0,1-3.65-3.41c-11.56-11.53-23-23.22-34.7-34.57a24.07,24.07,0,0,1-7.75-18.69c.2-16.33-.08-32.65.11-49,.13-10.93,2.19-13,12.83-13.23,9-.22,18-.23,27,0,9.57.28,11.83,2.41,12,12,.25,17,.07,34,.07,51Z"/><path class="cls-21" d="M436,636a24.64,24.64,0,0,1-.43,3.91c-.54,2.34-2.25,3.65-4.32,2.08a88.18,88.18,0,0,1-14.78-14.63c-1.55-1.88-1-3.7,1.47-4.63C428.31,618.89,436.11,624.17,436,636Z"/><path class="cls-4" d="M407.91,994.05q0-14.94,0-29.9l1.71-.06a232.65,232.65,0,0,1,0,30Z"/><path class="cls-3" d="M2271.74,2479.33h-.93l-.92-.16c.05-6.33.14-12.66.14-19q0-287.73,0-575.45c0-4.33-.14-8.67.16-13,.52-7.35,2.42-9.42,9.89-9.65,13.32-.41,26.65-.36,40-.5,1.94,4.08,1.6,8.46,1.6,12.77q0,271.41.14,542.81c0,8.34-2.65,14.46-8.58,20.22C2299.11,2451.1,2285.53,2465.33,2271.74,2479.33Z"/><path class="cls-3" d="M2369.78,2378.79c-2.78-5.07-1.75-9.81-1.75-14.31q-.09-229.79-.05-459.57c0-10.66-.13-21.32.09-32,.2-9.61,1.66-11.1,11.1-11.29,10.33-.21,20.66-.24,31,0,7.82.23,9.28,1.86,9.8,9.46.23,3.32.13,6.66.13,10q0,216.3,0,432.6c0,3.33-.09,6.66-.08,10a14.45,14.45,0,0,1-4.24,10.83q-21.24,21.16-42.45,42.33C2372.65,2377.56,2371.61,2377.83,2369.78,2378.79Z"/><path class="cls-3" d="M2466.38,2071.35q0-93.37,0-186.75c0-25.9-.39-22.86,23.55-23,6.66,0,13.33-.16,20,.14,7,.31,8.63,2,9.25,9,.3,3.31.19,6.66.19,10q0,166.79,0,333.56c0,3.33-.13,6.66-.11,10a16.59,16.59,0,0,1-5.38,12.42c-13,12.88-25.92,25.88-38.88,38.82a22.62,22.62,0,0,1-3,2.62c-2.68,1.89-4.64.8-5.06-2.06a75.42,75.42,0,0,1-.5-11Q2466.35,2168.23,2466.38,2071.35Z"/><path class="cls-3" d="M2567.29,2180.69c-2.21-4.33-1.57-8.06-1.57-11.66q-.06-145.4,0-290.78c0-.66,0-1.33,0-2,.16-13.91.79-14.59,14.82-14.68,9.32,0,18.66-.17,28,.16,7,.26,8.56,2,9.12,9.13.24,3,.15,6,.15,9,0,79.27-.18,158.55.22,237.82.05,10.92-3.05,18.95-11.1,26.23-10.86,9.82-20.83,20.62-31.24,30.93C2573.36,2177.1,2571.41,2180,2567.29,2180.69Z"/><path class="cls-3" d="M2665.89,2082.1c-2.68-2.84-1.69-6.34-1.7-9.51q-.09-98.3,0-196.59c0-2,.08-4,.16-6,.21-5.08,2.58-8.23,7.93-8.26q18-.1,35.92,0c5.33,0,7.75,3.14,7.86,8.28.05,2.66.16,5.32.16,8,0,47.57-.21,95.14.19,142.7.09,9.81-2.83,17-10,23.64-11.23,10.39-21.71,21.58-32.62,32.3C2671.54,2078.89,2669.87,2082.2,2665.89,2082.1Z"/><path class="cls-3" d="M2763.41,1924c0-16.65-.14-33.3.05-49.94.11-10.81,1.56-12.23,12.09-12.42,10-.17,20-.2,30,.07,7.69.2,9.73,2,9.83,9.43.27,19.31.07,38.62.06,57.93a14.61,14.61,0,0,1-4.63,10.69q-19.8,19.76-39.55,39.56a17.33,17.33,0,0,1-3.06,2.56c-2.31,1.42-3.92.44-4.31-2a51.43,51.43,0,0,1-.47-8q-.06-24,0-48Z"/><path class="cls-22" d="M2862.18,1862l25.17-.2c-5.24,8.1-12.94,13.91-19.51,20.78-1.1,1.16-2.5,2.47-4.28,1.52s-1.64-2.74-1.63-4.36C2862,1873.87,2862.09,1868,2862.18,1862Z"/><path class="cls-5" d="M1030.12,928.31q0-153.19-.07-306.41l277.86.11a43.72,43.72,0,0,0,5-.18c6.66-.79,8.39-2.58,8.86-9.66.26-4,.14-8,.14-12q0-289.28,0-578.54c0-6.32.22-12.65.34-19l1.93.07c3.43,2.72,4.7,6.35,4.72,10.63,0,4,0,8,0,11.95q0,278.28,0,556.56c0,6.32-.3,12.67.52,19,1.37,10.46,5.88,14.76,16.45,14.81,4.81,0,8.94.54,12,4.55,5.4,2.29,11.12,1.8,16.76,1.8q65.94.06,131.89,0H2249c6.33,0,12.66.09,19,.13,0,95.16-1,190.34.43,285.48q1,66.83,1.57,133.66c0,5.65.26,11.35-2.07,16.71-4.84-3.74-4.94-9-5-14.49,0-27,0-54,0-80.94a88,88,0,0,0-.63-14c-1.48-9.18-5.64-13.4-14.93-14.82-7.27-1.12-14.63-.68-22-.68q-587.33,0-1174.65-.08C1043.63,933,1035.82,935,1030.12,928.31Z"/><path class="cls-20" d="M1729.87,1324c4.41,4,9,7.94,13.21,12.17q255.78,255.61,511.52,511.28c4.23,4.23,8.76,8.16,13.15,12.23l.18,1.93c-2.56,3.57-6.17,5-10.42,5.12-4,.09-8,.1-12,.1q-286.59,0-573.17.06c-7.46,0-15.14-2-22.31,1.81-10.2-2.16-20.55-1.87-30.88-1.87l-569.89,0c-6.82,0-14.15,1.42-19.35-5,4.08-4.38,8-8.9,12.25-13.13q256.8-256.8,513.62-513.55c4.23-4.24,8.14-8.79,12.2-13.19,2.88-2.57,5-1.54,7.38,1,3.63,3.89,8.25,6.08,13.06,2.4,5.29-4.06,3.77-9.32.76-14a8.25,8.25,0,0,1-1.27-7.32c17.58-19.62,36.86-37.56,55.46-56.18,4.44-4.44,6.65-4.44,11.09,0,18.59,18.62,37.89,36.55,55.45,56.19,3.37,3.25.93,5.7-.94,8.49-2.78,4.18-3.65,8.72.5,12.54,3.74,3.45,8,2.55,11.84,0C1724.12,1323.17,1726.57,1320.63,1729.87,1324Z"/><path class="cls-1" d="M1650.24,1862c6.66-.13,13.32-.35,20-.35q298.85,0,597.71,0,0,111.45.1,222.9,0,188.42,0,376.83c0,6,.15,12,.23,18l-2.55.17c-9.15-3.23-15.91-9.63-22.62-16.35q-291.92-292.11-584-584c-2.82-2.82-5.61-5.68-8.33-8.61S1647,1865,1650.24,1862Z"/><path class="cls-1" d="M1030.12,928.31c5.67,0,11.33-.11,17-.11H2238.77c5.66,0,11.35-.12,17,.35,9.08.77,11.66,3.52,12.11,12.55.28,5.65.15,11.32.14,17q0,50-.12,99.93l-1237.87,0Q1030.05,993.18,1030.12,928.31Z"/><path class="cls-23" d="M2401.82,246.06c-14.67.12-29.33.33-44,.34q-91,.06-182,0c-17.19,0-18.06-.9-18.08-18.11q-.06-43,0-86a72.64,72.64,0,0,1,.29-9c.76-6.06,2.74-8,9-8.68a119.56,119.56,0,0,1,12-.28l223-.06Q2401.9,185.19,2401.82,246.06Z"/><path class="cls-1" d="M1390.26,311.27q0-142.38,0-284.76c0-4-.16-8,.21-12,.58-6.26,2.43-8,8.26-7.08,6.89,1.12,13.66,2.94,20.46,4.58,4.94,1.19,7,4.59,7,9.54,0,3.33.12,6.66.12,10q0,279.77,0,559.53c0,19.12,0,19.12-19.11,23.27-15.45,3.35-16.94,2.26-17-13.33Q1390.24,456.15,1390.26,311.27Z"/><path class="cls-1" d="M1358,620.21c-6.63.57-13.26,1.6-19.89,1.61-10.54,0-13.62-3.27-14.07-13.68-.14-3.32-.07-6.66-.07-10q0-289.71,0-579.42c0-5.33.16-10.65.25-16l33.66-.18c.13,5,.37,10,.37,15q0,294.33,0,588.67C1358.22,610.88,1358.05,615.54,1358,620.21Z"/><path class="cls-1" d="M1458.34,312.05q0-134.4,0-268.8c0-17.8,1-18.53,17-10.68,22,10.8,19,9,19,29.84q.15,249.83,0,499.64c0,20,1.89,18.09-17.37,27.83a113.8,113.8,0,0,1-10.88,5c-5.46,2.07-7.15.93-7.67-5.07-.32-3.64-.17-7.32-.17-11Q1458.34,445.46,1458.34,312.05Z"/><path class="cls-1" d="M1526.51,312.18q0-114.88.09-229.75c0-4.7-2.39-11.28,3-13.6,4.65-2,8,3.81,11.38,6.64,5.89,4.87,11.26,10.36,16.9,15.54a16,16,0,0,1,5.35,12.44c0,3.33.12,6.66.12,10,0,131.86-.19,263.72.31,395.57,0,14.08-3.78,24.39-15.06,32.43-5.13,3.66-9.53,8.34-14.57,12.14-4.83,3.64-6.84,2.56-7.36-3.66-.31-3.64-.17-7.32-.17-11Q1526.5,425.54,1526.51,312.18Z"/><path class="cls-23" d="M2401.93,2.42l121.86.09q.06,53.43.09,106.85a62.44,62.44,0,0,1-.34,7c-.5,4.63-3.21,7.23-7.8,7.6-3.64.3-7.31.34-11,.35q-51.45.09-102.89.14Q2401.91,63.42,2401.93,2.42Z"/><path class="cls-23" d="M2034.19,2.67,2156,2.35c.05,35.85.17,71.7.1,107.55,0,12.56-1.83,14.29-14.65,14.33-31.54.11-63.09,0-94.64,0-4.67,0-9.38,0-12.91-3.87Q2034,61.52,2034.19,2.67Z"/><path class="cls-1" d="M1595.4,483V142.37c4.87-1,5.71,1.71,6.87,3.5a294.6,294.6,0,0,1,27.11,53.3,37.06,37.06,0,0,1,2.13,13.72q0,98.83,0,197.68a37,37,0,0,1-2.14,13.72,298,298,0,0,1-27.59,54.18C1600.7,480.1,1599.67,481.82,1595.4,483Z"/><path class="cls-3" d="M3.87,1456.05l.18-6q99.41-.07,198.82-.14,91.41,0,182.83,0c3.66,0,7.34-.09,11,.13,8.51.52,10.57,2.52,11.16,10.77.22,3,.15,6,.15,9q0,184.77,0,369.54c0,6.31.55,12.69-2.06,18.72-3.83-3.7-7.73-7.34-11.5-11.1Q204.69,1657.25,15,1467.56C11.2,1463.79,7.57,1459.89,3.87,1456.05Z"/><path class="cls-19" d="M58.83,1703.82a6.75,6.75,0,0,1-7,6.82c-3.84-.32-6.1-2.62-6.24-6.43s2-6.22,5.86-6.75A6.61,6.61,0,0,1,58.83,1703.82Z"/><path class="cls-19" d="M52.17,1570.94c3.41.19,5.87,2,6.45,5.81a6.54,6.54,0,0,1-6.21,7.38c-3.84.07-6.21-2-6.78-5.73A6.74,6.74,0,0,1,52.17,1570.94Z"/><path class="cls-19" d="M52.64,1886.89c3.49.49,5.79,2.53,6,6.37a6.58,6.58,0,0,1-6.83,6.85c-3.85-.26-6-2.5-6.24-6.34A6.69,6.69,0,0,1,52.64,1886.89Z"/><path class="cls-19" d="M58.69,2020.4c-.27,3.49-2.35,5.77-6.11,6.2a6.5,6.5,0,0,1-7-6.66c.1-3.84,2.21-6.14,6-6.53S58.66,2016.31,58.69,2020.4Z"/><path class="cls-24" d="M58.64,2083.1c-.44,3.78-2.58,6-6.41,6.06s-6.27-1.83-6.68-5.73a6.31,6.31,0,0,1,6.8-6.7C56.15,2077,58.23,2079.25,58.64,2083.1Z"/><path class="cls-24" d="M51.94,1760.73c3.34.15,6,1.76,6.53,5.57s-1.58,6.21-5.35,6.82a6.45,6.45,0,0,1-7.5-5.9C45.45,1763.88,48.13,1761,51.94,1760.73Z"/><path class="cls-24" d="M58.62,1830c-.09,3.85-2.06,6.16-5.77,6.77s-7.43-2.46-7.27-6.11c.18-3.85,2.51-6,6.26-6.2S58,1826.21,58.62,1830Z"/><path class="cls-24" d="M45.54,2146.38c.53-3.73,2.72-5.88,6.48-6s6.2,1.89,6.54,5.75a6.3,6.3,0,0,1-6.85,6.59C48,2152.4,45.82,2150.27,45.54,2146.38Z"/><path class="cls-24" d="M52.06,1963c-3.83-.35-6.42-2.29-6.42-6.21s2.53-6.14,6.39-6.15,6.42,2.21,6.43,6.11S55.87,1962.6,52.06,1963Z"/><path class="cls-22" d="M52.12,1647.06c-3.93-.19-6.86-3.18-6.51-6.54.42-3.94,2.92-5.86,6.76-5.83a6.11,6.11,0,0,1,6.11,6.47C58.06,1645.11,55.49,1646.83,52.12,1647.06Z"/><path class="cls-1" d="M1290.2,311.24V596.93c0,3.66.1,7.33-.08,11-.38,7.74-1.68,9.07-9,7.86-6.56-1.09-13-2.82-19.48-4.39-4.81-1.17-7.36-4.26-7.38-9.31,0-3.33-.14-6.65-.14-10V31.7c0-18.28,0-18.28,17.8-22.29s18.24-3.66,18.24,14.14Q1290.22,167.4,1290.2,311.24Z"/><path class="cls-1" d="M1222.15,312q0,134.85,0,269.7c0,16.2-.72,16.67-15.09,9.81-4.8-2.29-9.48-4.86-14.22-7.28s-6.79-6.12-6.68-11.31c.07-3.33-.09-6.66-.09-10q0-251.22,0-502.43c0-19-1.69-17.18,16.41-26.37a100.16,100.16,0,0,1,11.79-5.4c4.87-1.72,7-.41,7.54,4.6a106.14,106.14,0,0,1,.31,12Q1222.16,178.67,1222.15,312Z"/><path class="cls-1" d="M1154.06,312.34q0,114.93-.1,229.85c0,4.38,2.42,10.59-2.5,12.75-4.08,1.79-7.34-3.56-10.58-6.2-5.15-4.22-9.81-9-14.93-13.28-6.15-5.11-8.1-11.47-8.1-19.37q.23-204.36,0-408.72c0-8.35,2.22-14.84,8.68-20.13s12.51-11,18.91-16.31c1.91-1.58,3.89-4.45,6.85-2.83,2.32,1.26,1.63,4.14,1.72,6.4.13,3.33.07,6.66.07,10Z"/><path class="cls-1" d="M1084.21,140c2.71,9.93,2.34,335.35-.3,342.74-3.5-.58-4.41-3.77-5.92-6.17a296.24,296.24,0,0,1-24.68-47.86,45.88,45.88,0,0,1-3.49-17.47q.09-99.36,0-198.71c0-5,.41-9.94,2.29-14.7a311.08,311.08,0,0,1,27.8-54.08A7.69,7.69,0,0,1,1084.21,140Z"/><path class="cls-4" d="M408,850.17l-406-.1C4.9,847.89,8.21,848,11.58,848q189.84.12,379.68.18C396.92,848.14,402.6,848,408,850.17Z"/><path class="cls-4" d="M408,964.15l-360.91-.08q-21.5,0-43-.06c4.76-1.84,9.75-1.91,14.76-1.91h374.4C398.28,962.1,403.27,962.2,408,964.15Z"/><path class="cls-23" d="M1650.24,1862c4.07,4.38,8,8.91,12.23,13.14q295.58,295.56,591.19,591.08c4.23,4.23,8.85,8.13,12.06,13.28q-61,.06-122,.11-237.43,0-474.87,0c-6.33,0-12.66.21-19,.33-6.32-.12-12.64-.33-19-.33q-291.11,0-582.22,0c-6.32,0-12.64-.26-19-.39q0-298.72.06-597.45c0-6.66.09-13.32.14-20l600.31,0C1636.92,1861.76,1643.58,1861.89,1650.24,1862Z"/><path class="cls-3" d="M636.12,2479.78q-92.49-.09-185-.2-29.49,0-59-.17h0c-4.2-2.78-5-6.93-5.05-11.61-.3-32.25,0-64.51-.14-96.77a14.17,14.17,0,0,1,5.07-11.46l-.13.12c3.24-3.84,7.46-5.15,12.37-5.14,73.14.2,146.28-.11,219.43.21,12.07,0,19,7.11,19.1,18.92.24,30.58.06,61.16.13,91.73,0,6.14-1.68,10.89-6.77,14.34Z"/><path class="cls-1" d="M636.18,2479.75c.07-35.6.2-71.19.16-106.79,0-12.45-1.31-13.75-13.82-13.76q-94.85-.12-189.69,0c-13.63,0-27.28-.61-40.91.51q.15-53.43.31-106.88c0-16.55.29-16.83,16.76-16.83q104.92,0,209.85,0c1.66,0,3.33,0,5,0,11.12.32,12.52,1.57,12.57,13,.11,31.3,0,62.6.07,93.9,0,5.65-.32,11.34,1.45,16.85,3.93,2.51,5,6.48,5,10.71,0,32.89.32,65.79-.06,98.69-.05,4.51-1.89,7.62-4.84,10.51l-.9.08Z"/><path class="cls-1" d="M638,2479.69q0-60-.05-119.91c5-.22,10-.63,15-.64q44.94-.09,89.87,0c3.33,0,6.66.12,10,.38,3.88.3,6.09,2.69,6.5,6.39a100.22,100.22,0,0,1,.44,11q.14,51.42.19,102.83Z"/><path class="cls-1" d="M392.05,2359.57l.12,119.84-122.29.07V2378.55c0-2.33,0-4.66,0-7,.32-10.8,1.53-12.27,12.19-12.36,21.66-.19,43.32-.14,65-.07C362.07,2359.17,377.06,2359.41,392.05,2359.57Z"/><path class="cls-23" d="M1588,1303.94c2.85,1.68,5.61,3.45,7.53,6.27,4.56,6.67,3.88,15-1.67,19.77a15.38,15.38,0,0,1-20.69-.87c-2-2.08-3.42-4.81-5.1-7.24C1571.29,1307.83,1574,1305.36,1588,1303.94Z"/><path class="cls-23" d="M1453.07,1177.8c-8.75,0-14.69-5.72-14.59-14.13a14.76,14.76,0,0,1,14.52-14.73c7.84-.19,14.35,6.35,14.53,14.59S1461.77,1177.77,1453.07,1177.8Z"/><path class="cls-23" d="M1729.87,1324a60.79,60.79,0,0,1-5.33,5.87c-5.86,5.06-14.72,5-20,.15-5.48-5.1-5.78-14.53-.47-20.69A64.8,64.8,0,0,1,1710,1304C1725.15,1305.43,1728.57,1308.87,1729.87,1324Z"/><path class="cls-23" d="M1975.76,1333.55c-8.28,0-14.76-6.43-14.65-14.42a14.82,14.82,0,0,1,14.68-14.57,14.61,14.61,0,0,1,14.48,14.69C1990.37,1327.61,1984.28,1333.61,1975.76,1333.55Z"/><path class="cls-23" d="M1337.24,1318.81a14.68,14.68,0,0,1-14.25,14.85c-8.51.24-14.56-5.5-14.73-14a14.5,14.5,0,1,1,29-.86Z"/><path class="cls-23" d="M1859.52,1164c-.07,8.34-6.23,14-14.82,13.74-8.23-.3-14.5-6.82-14.18-14.75a14.77,14.77,0,0,1,15-14.06C1853.37,1149.09,1859.59,1155.8,1859.52,1164Z"/><path class="cls-23" d="M1859.59,1319.47a14.49,14.49,0,1,1-14.17-14.79A14.58,14.58,0,0,1,1859.59,1319.47Z"/><path class="cls-23" d="M1453.49,1333.62a14.48,14.48,0,1,1,14.12-14.87A14.54,14.54,0,0,1,1453.49,1333.62Z"/><path class="cls-23" d="M1990.48,1163.82c.08,8.09-6.24,14.11-14.73,14-8.32-.08-14.7-6.32-14.61-14.32.08-7.44,7.37-14.59,14.84-14.54S1990.41,1156.09,1990.48,1163.82Z"/><path class="cls-23" d="M1598.48,1164c0,8.13-6.35,14-14.87,13.89-8.29-.15-14.64-6.49-14.48-14.46.15-7.43,7.56-14.54,15-14.39S1598.5,1156.23,1598.48,1164Z"/><path class="cls-23" d="M1715,1177.76c-8.52.24-14.52-5.41-14.72-13.87-.19-8.14,6.09-14.87,13.92-14.9s14.95,6.5,15.07,14.07A14.59,14.59,0,0,1,1715,1177.76Z"/><path class="cls-23" d="M1337.18,1164.05a14.44,14.44,0,0,1-15.2,13.7c-8.46-.29-14-6.34-13.73-14.85.31-8.11,7.1-14.42,14.92-13.88C1331.28,1149.59,1337.63,1156.41,1337.18,1164.05Z"/><path class="cls-25" d="M686.77,1998.59a7.25,7.25,0,0,1,14.49-.41,7.13,7.13,0,0,1-6.53,7.29A7.27,7.27,0,0,1,686.77,1998.59Z"/><path class="cls-26" d="M856.17,1923a7.33,7.33,0,0,1,7.39,7.55,7,7,0,0,1-7,6.85,7.33,7.33,0,0,1-7.46-6.46A7.5,7.5,0,0,1,856.17,1923Z"/><path class="cls-26" d="M863.55,1862a7.13,7.13,0,0,1-6.47,7.39,7.4,7.4,0,0,1-8-7,7.59,7.59,0,0,1,6.57-7.46A7.32,7.32,0,0,1,863.55,1862Z"/><path class="cls-26" d="M694.06,1786.77a7.22,7.22,0,1,1-7.24,6.7A7.36,7.36,0,0,1,694.06,1786.77Z"/><path class="cls-25" d="M1018.55,1718.73a7.23,7.23,0,0,1,.25,14.46,7.23,7.23,0,0,1-.25-14.46Z"/><path class="cls-25" d="M945,1726.08a7.42,7.42,0,0,1-6.92,7,7.23,7.23,0,1,1,.36-14.43A7.48,7.48,0,0,1,945,1726.08Z"/><path class="cls-25" d="M693.66,1718.68a7.23,7.23,0,1,1-6.83,8.07A7.38,7.38,0,0,1,693.66,1718.68Z"/><path class="cls-25" d="M1100.14,1718.67a7.23,7.23,0,1,1-7.39,7.55A7.35,7.35,0,0,1,1100.14,1718.67Z"/><path class="cls-25" d="M1107.2,1658.25a7.24,7.24,0,1,1-6.3-7.61A7.34,7.34,0,0,1,1107.2,1658.25Z"/><path class="cls-25" d="M945,1658.14a7.22,7.22,0,1,1-6.39-7.53A7.45,7.45,0,0,1,945,1658.14Z"/><path class="cls-25" d="M701.24,1658.13a7.23,7.23,0,1,1-7.39-7.54A7.34,7.34,0,0,1,701.24,1658.13Z"/><path class="cls-25" d="M1188.48,1658.18a7.22,7.22,0,0,1-7,6.87,7.24,7.24,0,0,1-.27-14.48A7.28,7.28,0,0,1,1188.48,1658.18Z"/><path class="cls-26" d="M775.54,1869.35a6.89,6.89,0,0,1-7.25-6.48,7.15,7.15,0,1,1,7.25,6.48Z"/><path class="cls-26" d="M701.26,1862.15a7.23,7.23,0,0,1-14.45-.07,7.48,7.48,0,0,1,7.78-7.17A7.35,7.35,0,0,1,701.26,1862.15Z"/><path class="cls-26" d="M1025.71,1657.43a7.07,7.07,0,0,1-6.21,7.52,7.23,7.23,0,0,1-1.7-14.35A7.14,7.14,0,0,1,1025.71,1657.43Z"/><path class="cls-25" d="M1025.68,1794.31a6.94,6.94,0,0,1-6.74,7,7.33,7.33,0,0,1-7.43-7.44,7.09,7.09,0,1,1,14.17.45Z"/><path class="cls-25" d="M937.24,1786.76a7.54,7.54,0,0,1,7.68,7.31,7.26,7.26,0,0,1-6.72,7.15,7.25,7.25,0,0,1-1-14.46Z"/><path class="cls-26" d="M782.54,1794.1a7.38,7.38,0,0,1-7.71,7.2,7,7,0,0,1-6.54-7.22,7.25,7.25,0,0,1,7.61-7.23A7.36,7.36,0,0,1,782.54,1794.1Z"/><path class="cls-25" d="M849.09,1726a7.52,7.52,0,0,1,7.65-7.32,7.23,7.23,0,0,1-.9,14.43A7.24,7.24,0,0,1,849.09,1726Z"/><path class="cls-26" d="M782.56,1725.66a7.32,7.32,0,0,1-7.39,7.5,7.07,7.07,0,0,1-6.84-7,7.29,7.29,0,0,1,7.35-7.52A7.19,7.19,0,0,1,782.56,1725.66Z"/><path class="cls-25" d="M856.6,1665a7.45,7.45,0,0,1-7.51-7.44,7.19,7.19,0,1,1,14.38.4A7.34,7.34,0,0,1,856.6,1665Z"/><path class="cls-26" d="M775.43,1665a7.35,7.35,0,0,1-7.11-7.78,7,7,0,0,1,7.1-6.7,7.24,7.24,0,0,1,0,14.48Z"/><path class="cls-25" d="M775.31,1937.39a6.87,6.87,0,0,1-7-6.88,7.22,7.22,0,0,1,6.57-7.46,7.49,7.49,0,0,1,7.65,7.51A7.15,7.15,0,0,1,775.31,1937.39Z"/><path class="cls-26" d="M686.88,2066.71a7,7,0,0,1,7-6.84,6.88,6.88,0,1,1,0,13.71A7,7,0,0,1,686.88,2066.71Z"/><path class="cls-25" d="M775.33,1991.32a7.29,7.29,0,0,1,7.23,6.82,7.08,7.08,0,0,1-7.6,7.34,6.86,6.86,0,0,1-6.65-7.23A7,7,0,0,1,775.33,1991.32Z"/><path class="cls-25" d="M863.47,1794a7.3,7.3,0,0,1-7.67,7.18,7.21,7.21,0,0,1-6.7-7.14,7.59,7.59,0,0,1,7.73-7.24A7.26,7.26,0,0,1,863.47,1794Z"/><path class="cls-25" d="M937.16,1854.9a7.61,7.61,0,0,1,7.74,7.24,7.2,7.2,0,0,1-6.67,7.15,7.22,7.22,0,0,1-1.07-14.39Z"/><path class="cls-26" d="M694.14,1937.33a7.22,7.22,0,0,1-7.32-7.47,7.22,7.22,0,1,1,7.32,7.47Z"/><path class="cls-1" d="M649.92,272c.17-38.26,31.62-69.58,69.57-69.3s69.6,32.12,69.52,69.76c-.08,38.32-32.06,70-70.45,69.68C680.58,341.84,649.75,310.34,649.92,272Z"/><path class="cls-23" d="M1583.72,1489.38a14.49,14.49,0,1,1,0-29c8.28-.07,14.47,6.13,14.48,14.5A14,14,0,0,1,1583.72,1489.38Z"/><path class="cls-23" d="M1729.23,1475a14.77,14.77,0,0,1-14.72,14.39c-7.89,0-14.21-6.52-14.23-14.73,0-8.57,6-14.47,14.36-14.21C1722.78,1460.67,1729.26,1467.14,1729.23,1475Z"/><path class="cls-23" d="M1453.85,1489.35a14.52,14.52,0,0,1-1.42-29,14.55,14.55,0,0,1,15.11,13.84A14.37,14.37,0,0,1,1453.85,1489.35Z"/><path class="cls-23" d="M1859.55,1474.85a14.34,14.34,0,0,1-14.36,14.51,14.52,14.52,0,1,1,14.36-14.51Z"/><path class="cls-23" d="M1859.54,1008c0,8.27-6.12,14.78-14.07,14.88a14.83,14.83,0,0,1-15-15.12c.2-8,6.47-14.09,14.79-14.26C1853.31,993.36,1859.5,999.65,1859.54,1008Z"/><path class="cls-23" d="M1568.94,1008.29c-.13-7.51,6.76-14.51,14.53-14.76a14.76,14.76,0,0,1,15,14.06c.29,8.13-6.89,15.62-14.8,15.46C1576.27,1022.9,1569.06,1015.68,1568.94,1008.29Z"/><path class="cls-23" d="M1467.55,1007.93c.1,8.32-6.15,14.93-14.18,15a14.91,14.91,0,0,1-14.9-14.45,14.54,14.54,0,1,1,29.08-.54Z"/><path class="cls-23" d="M1714.49,1022.9c-8.08,0-14.3-6.38-14.33-14.73s6.13-14.82,14.25-14.63c7.72.17,14.63,7.05,14.79,14.75S1722.3,1022.89,1714.49,1022.9Z"/><path class="cls-3" d="M1339.91,2193.74q50.46,0,100.93,0a68.43,68.43,0,0,1,8,.25c6.16.75,7.91,2.62,8.76,8.87a14.57,14.57,0,0,1,.13,2c0,32,.13,63.93-.09,95.9-.06,8.44-2.46,10.78-10.92,10.84q-47.46.32-94.93,0c-9.46,0-11.77-2.46-11.88-12.07-.24-20.64-.15-41.29-.12-61.93,0-14.66.16-29.31.25-44Z"/><path class="cls-3" d="M1340,2193.62q-52.43.06-104.86.1c-2.33,0-4.67-.09-7-.32-4.67-.46-7.16-3.24-7.64-7.78-.27-2.64-.34-5.31-.35-8q0-42.93,0-85.86a57.94,57.94,0,0,1,.25-7c.78-6.36,2.48-8.1,8.68-8.86a56,56,0,0,1,7-.25q43.94,0,87.88,0c1.67,0,3.34,0,5,.11,8.35.61,10.17,2.45,10.69,11.11.2,3.32.12,6.66.12,10q.07,48.43.12,96.85Z"/><path class="cls-3" d="M1279.71,2187.64c-14.65,0-29.31.15-44,0-11.46-.14-13.61-2.17-13.68-13.44q-.25-41.46,0-82.92c.07-11.27,2.22-13.38,13.68-13.43q44.48-.22,89,0c10.8.06,13.09,2.29,13.16,12.92q.27,42,0,83.92c-.07,10.63-2.36,12.77-13.16,12.93C1309.7,2187.8,1294.7,2187.64,1279.71,2187.64Z"/></svg>