<svg id="Layer_1" data-name="Layer 1" xmlns="http://www.w3.org/2000/svg" viewBox="0 0 841.92 595.68"><defs><style>.cls-1{fill:#383838;}.cls-2{fill:#2d2d2d;}.cls-3{fill:#4d4d4d;}.cls-4{fill:#474747;}.cls-5{fill:#262626;}.cls-6{fill:#242424;}.cls-7{fill:#3c3c3c;}.cls-8{fill:#3f3f3f;}.cls-9{fill:#333;}.cls-10{fill:#464646;}.cls-11{fill:#424242;}.cls-12{fill:#252525;}</style></defs><path class="cls-1" d="M203.06,595.58H105.62a6.57,6.57,0,0,1-.61-.68,5.39,5.39,0,0,1-.58-2.55c0-4.63-.14-9.26.12-13.89,0-.76,0-1.53,0-2.3-.17-8.34-.19-16.68,0-25,0-.77,0-1.54,0-2.31q-.27-12.72,0-25.43c0-.74,0-1.48,0-2.22a78.77,78.77,0,0,1,1.19-19.33,24,24,0,0,1,1.8-5.86,1.65,1.65,0,0,1,.5-1.41c.59-3.43,2.52-6.3,4.15-9.25a38.5,38.5,0,0,1,6.1-8.34c1.16.08,1.17-.93,1.54-1.6a3.75,3.75,0,0,0,2-1.35,15.28,15.28,0,0,1,6.49-4.86c1.37-.48,1.26-2.5,2.95-2.21,1.8.49,2.15-1.29,3.16-2,3.1-.68,6-2,9-2.91a18.31,18.31,0,0,1,3.93-.88c.28,0,.55,0,.82-.06,6-1.9,12.26-1.74,18.46-1.41a23,23,0,0,1,6.82,1.06c.82-.14,1.5.52,2.32.43,3.4.4,6.49,1.86,9.7,2.87a26.8,26.8,0,0,0,3.18.9c1,.78,1.38,2.53,3.2,2,2.73,2.13,6,3.47,8.34,6a7.27,7.27,0,0,0,2.17,1.54,1.81,1.81,0,0,0,1.8,1.64c2.9,3.9,6.08,7.58,8.28,12s3.93,8.86,4,14.33c-1.18-11.87-.62-23.28-.54-34.69,0-.72,0-1.44,0-2.16q-.3-12.71,0-25.39c0-.77,0-1.54,0-2.31q-.27-12.52,0-25.06c0-.78,0-1.56,0-2.34-.19-5.06-.06-10.12-.07-15.18a3.32,3.32,0,0,1,.49-2.27c1.6-.75,2.22,0,2.32,1.54.08,1.11,0,2.24,0,3.36q0,55.19,0,110.37a54.43,54.43,0,0,0,50.16,54.38c3.76.32,7.5.42,11.26.42q43.32,0,86.64,0c1.94,0,3.84.63,5.77.36a110.9,110.9,0,0,1,16-.81c11.68-.53,21.89-4.91,30.86-12.2a53.18,53.18,0,0,0,18.8-31.41,17,17,0,0,0,.34-3.34c0-5.44.37-10.87,0-16.29-.15-2.38.79-4.55.7-7-.49-12.83-.24-25.69-.19-38.53a2.35,2.35,0,0,1,.49-1.8,27.54,27.54,0,0,1,9.5-1.21c2.93-.69,5.68.88,8.53.76,11.12-.47,22.25-.25,33.38-.27,21,0,42.06,0,63.1,0a44.1,44.1,0,0,0,6.7-.31,13.49,13.49,0,0,1,6.24.54c2,.79,4.31.23,6.47,0a50.51,50.51,0,0,1,5.22-.22c30.38,0,60.76-.08,91.14,0a94,94,0,0,1,39.7,8.93c30.2,14.09,50,37.58,60.9,68.72A97,97,0,0,1,776,563c-.15,9.75,0,19.5,0,29.25,0,1.24.23,2.65-1.47,3.13q-174.29,0-348.57,0h-220A5.64,5.64,0,0,0,203.06,595.58Z"/><path class="cls-2" d="M448.89,452.11c-2.91-.13-5.78.65-8.69.44-1.07,0-1.06-.79-1.15-1.49a26.72,26.72,0,0,1-.08-3.35V128.78a25.68,25.68,0,0,1,.13-3.82c.26-1.13,1.18-1,1.9-.82s.76,1.13.84,1.84A106.72,106.72,0,0,0,446,145.4a110.82,110.82,0,0,0,22.1,39.46,109.26,109.26,0,0,0,32.42,25.48,108.12,108.12,0,0,0,37.86,11.58c23.26,2.73,45.17-1.66,65.78-12.62a107.1,107.1,0,0,0,22.18-15.84,110,110,0,0,0,29.22-44.13,113.15,113.15,0,0,0,6.12-29,83,83,0,0,0,0-18.17c-.29-1.19-.48-2.31.64-3.29a2.59,2.59,0,0,0,.72-1.71c.23-11.47,5.61-20.82,12.68-29.19a55.65,55.65,0,0,1,35.07-19.44,26.3,26.3,0,0,1,4.06-.28H835a24.06,24.06,0,0,1,4.06.31,3.79,3.79,0,0,1,2.87,1.85v179a3.08,3.08,0,0,1-2.58,1.2c-1,0-2.08,0-3.12,0q-57.33,0-114.67,0c-12.11,0-23.51,2.76-33.49,9.94-15,10.79-23.09,25.43-23.44,44-.27,14.06,0,28.14-.06,42.21a10.58,10.58,0,0,1-.31,3.8c-1.6.91-2.33.22-2.61-1.39-.72-4.17-1.28-8.37-2.23-12.51a107.61,107.61,0,0,0-23.86-47.28C616.7,247.68,593,235,564.41,231.51a122.65,122.65,0,0,0-14.59-.93c-27.59,0-55.19,0-82.79,0-4.73,0-9.39-.82-14.11-.79,14.55.09,27.71,5,40.36,11.66a111.06,111.06,0,0,1,37.3,32.19,108.4,108.4,0,0,1,21.72,56.1c2.42,26.23-3.1,50.66-17.64,72.68-16.73,25.34-40,41.69-69.67,48.52A53.25,53.25,0,0,1,448.89,452.11Z"/><path class="cls-3" d="M663.34,330.08c0-15.75-.2-31.51.06-47.26.21-13,5.12-24.33,13.59-34a54.72,54.72,0,0,1,33.74-18.59,59.33,59.33,0,0,1,8.84-.73l119.95-.08,2.4,0V595.58h-67.2c-.35-.15-.36-.31,0-.48,0-12.08.13-24.16,0-36.23a93.44,93.44,0,0,0-3.29-22,115.14,115.14,0,0,0-22.19-44A109.06,109.06,0,0,0,716,464.92a100.66,100.66,0,0,0-40.65-12c-3.12-.23-6.22-.35-9.34-.35l-104.86,0c-.95-1.55.29-1.53,1.22-1.66,4-.54,7.92-1,11.84-1.83a110.33,110.33,0,0,0,81.85-71.74,113.47,113.47,0,0,0,5.71-26.88c.53-5.84.25-11.66.41-17.48C662.2,331.86,662,330.67,663.34,330.08Z"/><path class="cls-4" d="M0,274V45.6c1.6-1.14,1.89.24,2.3,1.23C4.11,51.2,6,55.51,8.22,59.69a109.29,109.29,0,0,0,42.32,44,105.6,105.6,0,0,0,46.58,14.43c29.7,2.06,56.37-6.19,79.26-25.37,22.58-18.93,35.45-43.29,39-72.57.16-1.34.43-2.68.46-4,0-1.07.45-1.67,1.62-1.5a1.3,1.3,0,0,1,.8.3,6.53,6.53,0,0,1,.43,3.29q0,92.67,0,185.34c0,1.66-.29,3.29-.37,4.93a4.55,4.55,0,0,0,.68,3.36c1.06,1.35,0,2.93.18,4.4a28.78,28.78,0,0,1-.41,5.24,30.45,30.45,0,0,0-.18,10.73,17.8,17.8,0,0,1,.1,3.35V383.23c0,1,0,2.08-.06,3.11-.07,1.39-.72,2-2.14,1.71a1,1,0,0,1-1-.63,10.41,10.41,0,0,1-.69-1.89,3.89,3.89,0,0,0-.23-1.44,1,1,0,0,1-.32-.62c-1-5-3.28-9.47-5.64-13.93-1.19-2.26-3-4.16-4-6.55-.34-.79-1.3-.64-1.84-1.16-.18-.84,0-1.91-1.42-1.85a4.12,4.12,0,0,1-2.19-2.28c0-1.16-.91-1.11-1.66-1.27-.39-1.36-1.61-1.81-2.58-2.56-5.6-4.39-12-7.17-18.58-9.71a3.3,3.3,0,0,0-.95-.08,4.56,4.56,0,0,0-2.24-.46c-6.67-1.34-13.42-1.26-20.17-1.2a41.7,41.7,0,0,1-5-.15c-.6,0-1.19,0-1.79,0-8.48.23-17,.2-25.44,0h-2.31c-8.51.18-17,.2-25.53,0H90.54c-8.35.18-16.7.2-25.05,0H63.18c-8.51.18-17,.2-25.53,0H35.34c-8.51.16-17,.23-25.52,0-.62,0-1.24,0-1.87,0-1.74.15-3.49.11-5.24.12A3.48,3.48,0,0,1,0,341.23V288c.89-1.2,2.19-1.2,3.5-1.2H83.18a12,12,0,0,0,4-.35c.53-.19,1-.5,1-1.2a1.23,1.23,0,0,0-1-1,13.12,13.12,0,0,0-4.28-.35H5.68c-1,0-1.92,0-2.88,0A3.25,3.25,0,0,1,0,282.68v-3.36c.89-1.21,2.19-1.21,3.5-1.21H83.18a12,12,0,0,0,4-.35c.53-.19,1-.5,1-1.2a1.23,1.23,0,0,0-1-1,13.12,13.12,0,0,0-4.28-.35H5.68c-1,0-1.92,0-2.88,0A3.25,3.25,0,0,1,0,274Z"/><path class="cls-3" d="M217.94,216.44a11.6,11.6,0,0,1-.48-4.5q0-35,0-70,0-63.3,0-126.59a3.11,3.11,0,0,1-1.63-3.12c0-2.84.08-5.69,0-8.54A4.11,4.11,0,0,1,217.46,0H439.69a6,6,0,0,1,.63.7c.78,1.5.56,3.13.56,4.71q0,52.56,0,105.13a51.69,51.69,0,0,0,.27,6.93c.26,3-.29,3.69-3.66,3.66a89.8,89.8,0,0,0-16.22,1.49,108.21,108.21,0,0,0-40.84,15.91,119.82,119.82,0,0,0-16.83,13.08,112.82,112.82,0,0,0-16.51,20.19,102.79,102.79,0,0,0-12.67,27.57,119.71,119.71,0,0,0-4.38,22.08,1.94,1.94,0,0,1,0,.24c-.14,1.14.15,2.86-1.44,2.82-1.75-.05-1.42-1.84-1.43-3.06-.05-4.87,0-9.75,0-14.63q0-39.71,0-79.4c0-5.82-.72-6.65-6.5-6.17-19.59,1.59-37.69,7.53-54,18.71a110.35,110.35,0,0,0-47.08,72.93C219.34,214.13,219.84,215.9,217.94,216.44Z"/><path class="cls-2" d="M217,15.39a109.19,109.19,0,0,1-9.68,38.86,107.23,107.23,0,0,1-16.5,26.05,112,112,0,0,1-40,29.94,108.63,108.63,0,0,1-35.37,9.11,111.35,111.35,0,0,1-53.67-8.54,111.45,111.45,0,0,1-38.6-27.45A110.93,110.93,0,0,1,2,49.39c-.53-1.33-.88-2.76-2-3.79V.49A4.87,4.87,0,0,1,2.61.26q106,0,211.94,0c3.06,0,2.69-.29,2.65,2.7C217.14,7.1,217.47,11.25,217,15.39Z"/><path class="cls-4" d="M439.71.51l0-.5H841.92V50.4a39.22,39.22,0,0,0-9-1c-38.7,0-77.41,0-116.11,0-11.87,0-22.41,4.24-31.71,11.41-12.38,9.55-19.47,22.24-21.52,37.73-.17,1.34-.14,2.71-.2,4.07-1,.78-1.36.11-1.66-.74a23.63,23.63,0,0,1-.79-4.72,107.76,107.76,0,0,0-26.76-57.95c-18-20.11-40.54-32.11-67.31-36a126,126,0,0,0-16-1.05c-35.82-.59-71.64-.41-107.46-.45C442,1.68,440.64,1.8,439.71.51Z"/><path class="cls-5" d="M35.55,341.25h1.91a3.21,3.21,0,0,1,1.2,2.89c0,2.15-.09,4.3.07,6.44.2,2.62,1.12,3.67,3.69,3.76q8,.3,16,0c2.58-.09,3.5-1.14,3.7-3.76.16-2.14.05-4.29.07-6.44a3.21,3.21,0,0,1,1.2-2.89h1.9a3.16,3.16,0,0,1,1.22,2.87c0,2.15-.1,4.31.06,6.45.19,2.63,1.12,3.67,3.7,3.76q7.77.3,15.54,0c2.56-.1,3.48-1.15,3.67-3.79.15-2.15.07-4.3,0-6.46a3.14,3.14,0,0,1,1.22-2.83l1.91,0a3.28,3.28,0,0,1,1.2,2.9c0,2.23-.13,4.48.1,6.71s1.16,3.37,3.5,3.47c5.43.24,10.87.22,16.3,0,2.44-.1,3.35-1.15,3.55-3.67.17-2.15.07-4.31.07-6.47a3.23,3.23,0,0,1,1.21-2.94h1.91a3.28,3.28,0,0,1,1.21,2.94c0,2.16-.1,4.32.06,6.47.2,2.52,1.11,3.57,3.55,3.67,5.43.21,10.87.23,16.31,0,2.33-.1,3.26-1.15,3.49-3.47s.09-4.48.1-6.71a3.28,3.28,0,0,1,1.2-2.9h1.44a3.28,3.28,0,0,1,1.2,2.9c0,2.23-.13,4.47.09,6.7s1.16,3.39,3.47,3.49c5.5.23,11,.24,16.52,0,2.21-.1,3.09-1.12,3.34-3.33.22-2,.06-4,.12-6,0-1,.06-1.91,1.18-2.31l1.92.45a3.29,3.29,0,0,1,1.18,2.79c0,1.43,0,2.87.07,4.31.22,2.94,1.22,4,4.18,4.13,4.07.17,8.15.07,12.22.05a11.78,11.78,0,0,1,5.39,1.21l1.48,1.42c.53,2-1,1.64-2,1.66-4.63.1-9.27,0-13.9,0a34.76,34.76,0,0,0-4.08.13,3.23,3.23,0,0,0-3.21,3.25c-.25,5.43-.26,10.87,0,16.3a3.15,3.15,0,0,0,3.23,3.22,167.71,167.71,0,0,0,16.78,0c2.33-.13,3.23-1.37,3.31-4.16.15-5,0-10.07.06-15.11a19.15,19.15,0,0,1,.08-2.39c.13-1,.63-1.41,1.63-1a4.92,4.92,0,0,1,1.47,1.88,11.09,11.09,0,0,1,1.16,5.64c-.07,3.1,0,6.2,0,9.31,0,5.18.8,6,5.93,6,.71,0,1.43,0,2.14,0a2.29,2.29,0,0,1,2.78,2.08c.48,1.5-.29,2-1.63,2.14-1.84.15-3.68,0-5.51.14-2.47.24-3.52,1.14-3.61,3.6-.2,5.43-.23,10.86,0,16.29.1,2.33,1.14,3.23,3.49,3.47,1.91.19,3.83.08,5.75.09a3.2,3.2,0,0,1,2.88,1.2v1.91a3.22,3.22,0,0,1-2.89,1.2c-1.91,0-3.83-.1-5.73.08-2.35.23-3.39,1.12-3.5,3.43q-.34,8,0,16c.1,2.32,1.13,3.23,3.47,3.45,1.9.18,3.82.09,5.73.08a3.16,3.16,0,0,1,2.9,1.23l0,1.9a3.27,3.27,0,0,1-2.89,1.19c-1.91,0-3.83-.1-5.74.09-2.35.23-3.4,1.12-3.5,3.43q-.34,8.24,0,16.48c.1,2.32,1.14,3.21,3.49,3.44,1.91.19,3.82.08,5.73.09A3.2,3.2,0,0,1,217,466v1.91a3.26,3.26,0,0,1-2.9,1.2c-1.84,0-3.68-.08-5.51.07-2.6.22-3.51,1.15-3.76,3.75-.1,1,0,2.08-.15,3.11s-.58,1.44-1.59,1l-1.45-1.45a10.28,10.28,0,0,1-1.26-3.43,3.35,3.35,0,0,0-3.49-3,21.4,21.4,0,0,1-5.81-1.26l-3.32-1.46c-.65-1.54.51-1.59,1.45-1.63,2.23-.12,4.47,0,6.7-.08,3.4-.13,4.43-1.11,4.5-4.51q.15-7.18,0-14.37c-.07-3.44-1.07-4.48-4.44-4.56q-7.31-.16-14.61,0c-3.26.08-4.29,1.11-4.38,4.37-.13,4.55,0,9.1-.06,13.65,0,1.07.18,2.29-1.19,2.81l-1.93-.46a3.37,3.37,0,0,1-1.19-3.07c0-4.15.06-8.3,0-12.45-.08-3.81-1.08-4.81-4.91-4.87-4.63-.07-9.27-.09-13.9,0-3.49.08-4.55,1.15-4.64,4.66-.11,4.31,0,8.62,0,12.94,0,1.22-.08,2.42-1.2,3.23l-.47,0c-2.11.5-2.11-1-2.14-2.34-.08-4.07,0-8.14,0-12.21,0-5.68-.68-6.34-6.33-6.35-4.15,0-8.31-.06-12.46,0-3.58.08-4.62,1.06-4.69,4.56q-.15,7.19,0,14.36c.07,3.41,1.1,4.39,4.49,4.53,2.55.1,5.11,0,7.66.08.93,0,2.1.08,1.45,1.62L132,467.94a22,22,0,0,1-6.24,1.24c-2.82.11-3.65.93-4.05,3.7a10.09,10.09,0,0,1-1.24,3.68L119.07,478c-1.23.48-1.54-.23-1.63-1.25-.11-1.35,0-2.71-.14-4.06-.27-2.35-1.15-3.39-3.48-3.48-5.5-.23-11-.25-16.52,0-2.2.1-3.22,1.13-3.31,3.34-.25,5.51-.26,11,0,16.52.1,2.36,1.23,3.28,3.77,3.45,3,.21,6.06,0,9.09.11,1.34.05,2.65.2,2.14,2.13l-.49,1a3.61,3.61,0,0,1-3,1.2c-2.48,0-5-.08-7.44,0-3,.15-4.1,1.1-4.19,4.06-.14,5-.15,9.92,0,14.88.09,2.86,1.12,3.81,4,4,1.68.11,3.36.06,5,0a3,3,0,0,1,2.65,1.21v1.92a3.24,3.24,0,0,1-2.9,1.19c-1.75,0-3.5-.09-5.25.08-2.36.24-3.4,1.12-3.49,3.44q-.36,8.24,0,16.48c.09,2.32,1.13,3.2,3.49,3.44,1.74.17,3.5.08,5.25.08a3.25,3.25,0,0,1,2.9,1.2v1.91a3.19,3.19,0,0,1-2.9,1.2c-1.75,0-3.51-.09-5.25.09-2.36.23-3.39,1.11-3.5,3.43q-.34,8,0,16c.1,2.32,1.14,3.21,3.49,3.44,1.74.18,3.5.08,5.25.09a3.18,3.18,0,0,1,2.9,1.2l0,1.92a3.23,3.23,0,0,1-2.83,1.19c-1.68,0-3.35-.07-5,.07-2.7.22-3.68,1.18-3.85,3.91s0,5.74-.08,8.61c0,1.15,0,2.31-1,3.11a4.87,4.87,0,0,1-2.08.08c-1.16-.68-1.16-1.82-1.18-2.95,0-2.79.06-5.58,0-8.37-.13-3.28-1.11-4.33-4.33-4.41-4.77-.12-9.56-.12-14.33,0-3.14.08-4.14,1.12-4.29,4.21-.13,2.78,0,5.57-.06,8.36,0,1.14,0,2.3-1,3.09a5,5,0,0,1-2.07.07c-1.17-.68-1.16-1.84-1.18-3,0-2.8.07-5.6,0-8.4-.14-3.26-1.14-4.29-4.41-4.36-4.88-.11-9.76-.12-14.64,0-3.27.08-4.25,1.11-4.39,4.38-.11,2.72,0,5.44-.05,8.16,0,1.14,0,2.32-1,3.11a4.87,4.87,0,0,1-2.08.08c-1.17-.67-1.16-1.82-1.17-3,0-2.79.06-5.59-.06-8.38-.13-3.28-1.11-4.32-4.37-4.39-4.87-.11-9.74-.12-14.61,0-3.35.08-4.34,1.14-4.46,4.57-.1,2.72,0,5.43,0,8.15a3.39,3.39,0,0,1-1,2.91,3,3,0,0,1-1.64.1C7,594.61,7,593.47,7,592.34c0-2.7,0-5.41,0-8.12-.11-3.48-.89-4.33-4.32-4.68A3.41,3.41,0,0,1,0,578.3v-1.44a3.58,3.58,0,0,1,3.15-1.75c2.81-.17,3.68-1.1,3.76-3.9.13-5,.11-9.9,0-14.84-.06-3.09-.92-3.94-4-4.19C1.8,552.08.73,552,0,551V549c.77-1.15,2-1.14,3.16-1.25,2.76-.26,3.67-1.13,3.75-3.93q.2-7.79,0-15.55c-.08-2.8-1-3.68-3.75-3.94C2,524.25.79,524.26,0,523.11v-1.92c.71-1,1.78-1.13,2.92-1.23,3.08-.25,3.93-1.1,4-4.19q.16-7.29,0-14.59c-.07-3.09-.92-3.94-4-4.19-1.14-.1-2.21-.19-2.92-1.23v-1.92c.71-1,1.78-1.14,2.92-1.23,3.05-.27,3.93-1.14,4-4.21.11-5.1.12-10.2,0-15.3-.08-2.8-1-3.68-3.75-3.93C2,469.06.79,469.07,0,467.92V466c.77-1.14,2-1.13,3.16-1.24,2.76-.26,3.67-1.14,3.75-3.94q.2-7.77,0-15.55c-.08-2.8-1-3.68-3.75-3.94C2,441.22.79,441.23,0,440.09v-1.44a3.54,3.54,0,0,1,3.15-1.75c2.81-.18,3.68-1.11,3.76-3.91.13-4.94.11-9.89,0-14.84-.06-3.09-.92-3.94-4-4.19-1.14-.09-2.21-.19-2.92-1.23v-1.92c.77-1.14,2-1.13,3.16-1.24,2.76-.26,3.67-1.14,3.75-3.94q.2-7.77,0-15.55c-.08-2.8-1-3.68-3.75-3.94C2,386,.79,386,0,384.9V383c.71-1,1.78-1.14,2.92-1.23,3.08-.25,3.93-1.11,4-4.19q.16-7.31,0-14.6c-.07-3.08-.92-3.94-4-4.19-1.14-.09-2.21-.19-2.92-1.23v-1.92c.72-1,1.78-1.13,2.92-1.23,3-.27,3.86-1.18,4-4.25.1-2,0-4,0-6a3.17,3.17,0,0,1,1.2-2.92H9.62a3.29,3.29,0,0,1,1.2,2.89c0,2.15-.09,4.3.07,6.45.2,2.62,1.11,3.68,3.68,3.77q8,.3,16,0c2.57-.09,3.49-1.14,3.68-3.77.16-2.14.08-4.3.06-6.45A3.19,3.19,0,0,1,35.55,341.25Z"/><path class="cls-6" d="M0,282.68l87.35,0c.4,0,.8,0,1.2,0A2.74,2.74,0,0,1,91,286.86a1.66,1.66,0,0,1-1.28,1,13.53,13.53,0,0,1-1.91.14L.5,288,0,288Z"/><path class="cls-6" d="M0,274q17,0,34.08,0H86.17c.88,0,1.77,0,2.64,0,1.94.13,2.5.78,2.45,2.75s-.56,2.37-2.45,2.52c-.47,0-1,0-1.44,0H0Z"/><path class="cls-7" d="M774.71,595.1v.48H203.06a5.26,5.26,0,0,1,2.57-.47H774.71Z"/><path class="cls-2" d="M0,384.9c1.84,0,3.67,0,5.5,0,2,.1,2.59.64,2.61,2.64q.09,10.28,0,20.56c0,2-.62,2.54-2.61,2.63-1.83.08-3.66,0-5.5,0Z"/><path class="cls-2" d="M0,523.11c1.84,0,3.67,0,5.5,0,2,.09,2.59.63,2.61,2.63q.09,10.28,0,20.56c0,2-.62,2.54-2.61,2.63-1.83.09-3.66,0-5.5,0Z"/><path class="cls-2" d="M0,440.09c1.84,0,3.67,0,5.5.05,2,.09,2.59.63,2.61,2.63q.09,10.28,0,20.56c0,2-.62,2.54-2.61,2.63-1.83.08-3.66,0-5.5,0Z"/><path class="cls-2" d="M0,467.92c1.83,0,3.67,0,5.49.05,2,.09,2.55.62,2.62,2.61.09,2.38,0,4.77,0,7.16,0,4.21,0,8.43,0,12.64,0,2.82-.6,3.36-3.36,3.44-1.59,0-3.18,0-4.78,0Z"/><path class="cls-2" d="M0,412.73c1.84,0,3.68,0,5.51,0,2,.09,2.58.63,2.6,2.64q.09,10.05,0,20.1c0,2-.62,2.51-2.64,2.61a25.17,25.17,0,0,0-5.47.52Z"/><path class="cls-2" d="M0,551c1.84,0,3.68,0,5.51,0,2,.1,2.58.64,2.6,2.64q.09,10.07,0,20.11c0,2-.62,2.5-2.64,2.61a25.8,25.8,0,0,0-5.47.51Z"/><path class="cls-2" d="M0,495.76c1.84,0,3.67-.05,5.5,0,2,.09,2.59.63,2.61,2.63q.09,10.05,0,20.09c0,2-.62,2.54-2.61,2.63-1.83.09-3.66,0-5.5,0Z"/><path class="cls-2" d="M0,357.54c1.84,0,3.67,0,5.5,0,2,.1,2.59.64,2.61,2.64q.09,10,0,20.08c0,2-.62,2.54-2.61,2.64-1.83.08-3.66,0-5.5,0Z"/><path class="cls-2" d="M0,578.3c1.75,0,3.5,0,5.25.05,2.2.1,2.83.69,2.87,2.93.07,4.6,0,9.22,0,13.83a28.6,28.6,0,0,1-8.16,0Z"/><path class="cls-2" d="M8.19,341.23c0,3.65,0,7.31,0,11,0,2.8-.6,3.33-3.37,3.41-1.59,0-3.18,0-4.77,0V341.23Z"/><path class="cls-8" d="M217,15.39c0-3.84,0-7.68-.05-11.52C217,1,216.5.56,213.61.5c-1,0-2.08,0-3.12,0H0C.13.34-.22,0,.26,0,.9,0,1.54,0,2.18,0H217.46q0,7.67,0,15.34Z"/><path class="cls-9" d="M0,595.1H9.64a3.14,3.14,0,0,1,2.81-1.18c6.77-.07,13.55,0,20.33,0a3.46,3.46,0,0,1,2.77,1.19h1.91a3.65,3.65,0,0,1,3-1.22q10,0,19.9,0a3.63,3.63,0,0,1,3,1.22h1.91a3.63,3.63,0,0,1,3-1.21q9.75,0,19.5,0a3.61,3.61,0,0,1,3,1.21l1.92,0c2-1.75,10.89-1.76,13,0v.48q-51.84,0-103.68,0C1.31,595.55.47,596,0,595.1Z"/><path class="cls-10" d="M217.94,216.44a58,58,0,0,1,2.18-12.26,110,110,0,0,1,12.41-30A113.55,113.55,0,0,1,261.63,142a109.64,109.64,0,0,1,37.23-18.28A93.88,93.88,0,0,1,324.18,120c.56,0,1.13,0,1.68,0,1.76.17,2.27.64,2.42,2.35.09,1,.05,2.08.05,3.12q0,46.67,0,93.32v3.32h.32c.17-1.39.34-2.78.52-4.17a110.88,110.88,0,0,1,14-42.28,127.33,127.33,0,0,1,13.63-18.8,96,96,0,0,1,15.85-14.59,111.43,111.43,0,0,1,57.91-22.19c2.15-.18,4.32-.12,6.48-.16,1.32,0,2.36-.42,2.62-1.91.46-.24.89-.29,1.23.2.92,1.32.46,5.27-.76,6.53q0,36.12,0,72.23,0,125.37,0,250.74c0,1.6,0,3.2.05,4.8l0,59.85a12,12,0,0,1-.46,4.5c-1.56,0-1.17-1.29-1.19-2.1-.07-3.51,0-7,0-10.52,0-11.18-4.24-20.76-11.05-29.37a2,2,0,0,1-.68-1.68c.39-2.18-.62-3.09-2.74-3-.35,0-.52-.32-.74-.53-9.75-8.9-21-14.48-34.29-15.5-15.41-1.19-28.81,3.54-40.48,13.47a3.84,3.84,0,0,0-1.36,1.65c-.12.2-.23.57-.35.57-2.62,0-3.35,1.94-4,4-7.31,8.06-10.88,17.74-12.26,28.36a51.49,51.49,0,0,0,8.25,35.69c10.3,15.75,25.12,24.15,44.11,24.8,1.6.06,3.2,0,4.79,0,.78,0,1.69,0,1.61,1.19a9.67,9.67,0,0,1-3.55.45c-37.51,0-75,.22-112.54-.1-20.33-.18-36.32-9.25-47.39-26.35a51.48,51.48,0,0,1-8.41-28.6q.1-55.41,0-110.84a14.47,14.47,0,0,0-.43-5c-1.83-1.29-2.12-4.92-.5-6.2a3.32,3.32,0,0,0,.91-2.41c0-.88,0-1.76,0-2.64V236.9a32,32,0,0,0-.58-5.93c-.52-2.84.1-5.73.41-8.58A42.3,42.3,0,0,0,217.94,216.44Z"/><path class="cls-4" d="M663.34,330.08c0,5.67.21,11.35-.05,17a106.87,106.87,0,0,1-4.15,24.76,110,110,0,0,1-18.79,37.2,114.58,114.58,0,0,1-23.51,22.72,112.35,112.35,0,0,1-39.66,18A105.82,105.82,0,0,1,564,452a10.71,10.71,0,0,0-2.81.57H452.44a9.29,9.29,0,0,1-3.55-.46,98.82,98.82,0,0,0,24.45-4.61A108.19,108.19,0,0,0,513.43,425c20.63-18.24,33.17-41,37.05-68.29a110.84,110.84,0,0,0-30-93,112.28,112.28,0,0,0-29.24-21.91,110.63,110.63,0,0,0-36.44-11.43c-1-.13-2.06-.28-3.09-.43a1.21,1.21,0,0,1-.91-.51h2.73c33.27,0,66.54-.14,99.81,0A111.46,111.46,0,0,1,634,265.63a110.41,110.41,0,0,1,28.42,60.49A15.41,15.41,0,0,0,663.34,330.08Z"/><path class="cls-3" d="M427.62,474.12a5.93,5.93,0,0,1,2.87,2.43,57.39,57.39,0,0,1,8.86,20.76,22,22,0,0,1,.34,4.28q0,7.67,0,15.31a49.59,49.59,0,0,1-7.4,20.57c-8.95,14.35-21.86,22.95-38.46,26a24.62,24.62,0,0,1-4.53.41c-2.31,0-4.63-.06-6.95,0-7.26.15-14-1.79-20.63-4.65a55.06,55.06,0,0,1-23.13-19.18,52.47,52.47,0,0,1-6.54-13,54.12,54.12,0,0,1-3.23-19.27,56,56,0,0,1,7.35-27,36.27,36.27,0,0,1,4-6,5.33,5.33,0,0,1,2-1.62,9.11,9.11,0,0,1,1.39-.18c2.43.09,2.79-.27,2.58-2.64a2,2,0,0,1,.4-1.52,2.73,2.73,0,0,1,1.33-2.4A56,56,0,0,1,379.55,453c13.3-1.27,25.34,2.16,36.43,9.3a41.33,41.33,0,0,1,7.87,6.61c.1.11.29.26.26.37C423.49,472.16,425.26,473.35,427.62,474.12Z"/><path class="cls-2" d="M135.34,466.47a10.09,10.09,0,0,0-3.78-.47c-2.79,0-5.59,0-8.38,0-2-.07-2.61-.63-2.63-2.62q-.09-10.29,0-20.59c0-2,.63-2.59,2.64-2.61,6.86-.05,13.73-.06,20.59,0,2.05,0,2.58.65,2.6,2.89.06,5.19,0,10.37,0,15.56,0,1.28-.07,2.59,1,3.59C143.33,463.51,139.17,464.53,135.34,466.47Z"/><path class="cls-2" d="M175.7,462.16V444.92c0-.72,0-1.44,0-2.15.14-2,.64-2.49,2.63-2.65.24,0,.48,0,.72,0,6.39,0,12.77,0,19.15,0,2.87,0,3.35.51,3.37,3.37q0,9.58,0,19.15c0,2.86-.51,3.31-3.39,3.36-2.39,0-4.79,0-7.18,0a8.61,8.61,0,0,0-3.3.47C183.9,464.53,179.74,463.51,175.7,462.16Z"/><path class="cls-2" d="M109,494.8c-.93-1-2.15-.95-3.35-1-3.11,0-6.22,0-9.33,0s-3.61-.56-3.63-3.67q0-9.45,0-18.91c0-2.76.52-3.28,3.2-3.29,6.46-.05,12.93,0,19.39,0,2.81,0,3.21.52,3.31,3.44.08,2.22-.3,4.48.49,6.65A54.44,54.44,0,0,0,109,494.8Z"/><path class="cls-2" d="M147.86,462.16q0-8.73,0-17.46a20.71,20.71,0,0,1,.13-2.62,2,2,0,0,1,1.87-1.87,13.26,13.26,0,0,1,1.67-.11H170.2a13.25,13.25,0,0,1,1.67.1,1.93,1.93,0,0,1,1.82,1.89c.07.71.09,1.43.09,2.15q0,8.73,0,17.46c-1.51-.16-3-.28-4.52-.49A65.67,65.67,0,0,0,147.86,462.16Z"/><path class="cls-2" d="M105.61,521.2c-3.27,0-6.54,0-9.81,0-2.56,0-3.09-.56-3.11-3.13q-.06-9.57,0-19.14c0-2.56.56-3.09,3.13-3.12,4.22,0,8.45,0,12.68,0-.45,1.85-.94,3.69-1.34,5.55a78.79,78.79,0,0,0-1.53,17.27C105.64,519.45,105.62,520.33,105.61,521.2Z"/><path class="cls-2" d="M217,466c-3.35,0-6.71,0-10.05,0-2.86,0-3.35-.51-3.37-3.38q0-9.57,0-19.14c0-2.86.51-3.33,3.38-3.36,3.35,0,6.7,0,10,0Q217,453.05,217,466Z"/><path class="cls-2" d="M216.52,387.3c.17,2.06.33,4.13.5,6.2q0,8.65-.05,17.32c-3.35,0-6.71,0-10.06,0-2.86,0-3.34-.52-3.36-3.4q0-9.58,0-19.17c0-2.82.51-3.26,3.42-3.32,1.84,0,3.68,0,5.52,0a3.91,3.91,0,0,0,3.09-1l.47,1.05c.38.41,0,1,.42,1.45Z"/><path class="cls-2" d="M217,438.19c-3.35,0-6.7,0-10,0-2.85,0-3.34-.52-3.36-3.39q0-9.33,0-18.65c0-2.86.51-3.33,3.37-3.37,3.35,0,6.7,0,10.05,0Q217,425.45,217,438.19Z"/><path class="cls-2" d="M105.62,549c-3.27,0-6.54,0-9.81,0-2.56,0-3.1-.55-3.12-3.12q-.06-9.81,0-19.62c0-2.56.56-3.08,3.12-3.12,3.27-.06,6.54,0,9.81,0Z"/><path class="cls-2" d="M105.61,576.39c-3.27,0-6.54,0-9.81,0-2.56,0-3.09-.56-3.11-3.13q-.06-9.57,0-19.13c0-2.57.56-3.09,3.12-3.13,3.27-.05,6.54,0,9.81,0Q105.6,563.67,105.61,576.39Z"/><path class="cls-2" d="M203.06,477.06c.7-1.86.42-3.8.48-5.7.09-2.91.51-3.38,3.35-3.42,3.36-.05,6.72,0,10.08,0v36.85l-.32.06c-.19-.86-.4-1.71-.57-2.57A51.76,51.76,0,0,0,203.06,477.06Z"/><path class="cls-2" d="M105.62,595.1h-13c0-4.47,0-8.94,0-13.41,0-2.87.5-3.34,3.37-3.38,3.19,0,6.38,0,9.58,0Q105.62,586.69,105.62,595.1Z"/><path class="cls-2" d="M120.5,476.56c0-2,0-4,0-6s.63-2.55,2.63-2.61c2.95-.08,5.9,0,8.85,0A78.14,78.14,0,0,0,120.5,476.56Z"/><path class="cls-2" d="M191.05,467.94c2.55,0,5.1-.05,7.65,0,2.28.06,2.8.6,2.89,2.87.06,1.59,0,3.18,0,4.78A84.35,84.35,0,0,0,191.05,467.94Z"/><path class="cls-6" d="M446,468.75a3,3,0,1,1-.16,6,3.07,3.07,0,0,1-3-3.11A3,3,0,0,1,446,468.75Z"/><path class="cls-6" d="M502.43,567.3a3,3,0,1,1-6,.15,3,3,0,0,1,6-.15Z"/><path class="cls-6" d="M553,474.77a3,3,0,1,1,3-3A3,3,0,0,1,553,474.77Z"/><path class="cls-6" d="M636.31,503.68a2.93,2.93,0,0,1-3,2.95,3,3,0,0,1-2.89-3.14,2.81,2.81,0,0,1,2.91-2.81A3,3,0,0,1,636.31,503.68Z"/><path class="cls-6" d="M609.48,503.5a3,3,0,0,1-2.9,3.13,2.94,2.94,0,0,1-3-3,3,3,0,0,1,3.05-3A2.82,2.82,0,0,1,609.48,503.5Z"/><path class="cls-6" d="M445.83,538.39a2.8,2.8,0,0,1-3-2.77,3.12,3.12,0,0,1,2.94-3.15,3.06,3.06,0,0,1,3.1,3A2.94,2.94,0,0,1,445.83,538.39Z"/><path class="cls-6" d="M553,532.47a3.13,3.13,0,0,1,3.06,3,3,3,0,0,1-6,0A3.05,3.05,0,0,1,553,532.47Z"/><path class="cls-6" d="M636.3,567.5a3.16,3.16,0,0,1-3.2,2.92,3,3,0,0,1-2.73-3.08,3,3,0,0,1,5.93.16Z"/><path class="cls-6" d="M502.43,471.85a3,3,0,1,1-2.95-3.13A3.13,3.13,0,0,1,502.43,471.85Z"/><path class="cls-6" d="M660.25,538.39a2.79,2.79,0,0,1-3-2.94,2.85,2.85,0,0,1,2.8-3,3.21,3.21,0,0,1,3.12,3A2.83,2.83,0,0,1,660.25,538.39Z"/><path class="cls-6" d="M529.25,503.67a3.16,3.16,0,0,1-3.18,2.94,2.89,2.89,0,0,1-2.77-3,2.85,2.85,0,0,1,3.11-2.9A2.94,2.94,0,0,1,529.25,503.67Z"/><path class="cls-6" d="M499.45,506.63a2.94,2.94,0,0,1-2.95-3.1,2.86,2.86,0,0,1,2.92-2.85,3,3,0,0,1,3,3.09A2.92,2.92,0,0,1,499.45,506.63Z"/><path class="cls-6" d="M609.47,471.8a3,3,0,1,1-6-.2,3.17,3.17,0,0,1,3-2.88A3.12,3.12,0,0,1,609.47,471.8Z"/><path class="cls-6" d="M472.72,506.61a3.13,3.13,0,0,1-3.07-3.05,3,3,0,0,1,2.94-2.88,3,3,0,0,1,.13,5.93Z"/><path class="cls-6" d="M579.74,532.47a2.84,2.84,0,0,1,2.91,2.86,2.79,2.79,0,0,1-2.93,3.06,2.84,2.84,0,0,1-3-2.78A3.2,3.2,0,0,1,579.74,532.47Z"/><path class="cls-6" d="M606.52,570.43a3.16,3.16,0,0,1-3-3.17,3,3,0,0,1,5.92.31A3,3,0,0,1,606.52,570.43Z"/><path class="cls-6" d="M579.79,506.61a3.18,3.18,0,0,1-3.06-3.06,2.9,2.9,0,0,1,2.91-2.87,3,3,0,0,1,.15,5.93Z"/><path class="cls-6" d="M552.93,506.65a3.08,3.08,0,0,1-2.94-3.11,3,3,0,0,1,2.93-2.85,3,3,0,1,1,0,6Z"/><path class="cls-6" d="M606.49,538.39a2.87,2.87,0,0,1-2.93-2.84,3.17,3.17,0,0,1,3-3.08,2.91,2.91,0,0,1,2.88,3.14A2.86,2.86,0,0,1,606.49,538.39Z"/><path class="cls-6" d="M636.29,535.74a2.91,2.91,0,0,1-3.36,2.62,2.95,2.95,0,0,1,.51-5.87A3.14,3.14,0,0,1,636.29,535.74Z"/><path class="cls-6" d="M660,468.76a3,3,0,0,1,.21,6,2.91,2.91,0,0,1-3-3A2.79,2.79,0,0,1,660,468.76Z"/><path class="cls-6" d="M475.57,567.46a2.88,2.88,0,0,1-2.84,2.93,3.18,3.18,0,0,1-3.08-3,2.88,2.88,0,0,1,3.14-2.87A2.84,2.84,0,0,1,475.57,567.46Z"/><path class="cls-6" d="M526.11,474.75a2.93,2.93,0,0,1-2.79-3.19,3,3,0,0,1,2.95-2.84,3.09,3.09,0,0,1,3,3.1A3.06,3.06,0,0,1,526.11,474.75Z"/><path class="cls-6" d="M475.57,535.44a2.95,2.95,0,0,1-5.89.07,3.21,3.21,0,0,1,3.09-3A2.88,2.88,0,0,1,475.57,535.44Z"/><path class="cls-6" d="M526.22,538.38a2.81,2.81,0,0,1-2.89-2.85,2.89,2.89,0,0,1,2.94-3.06,3.23,3.23,0,0,1,3,3.18A2.82,2.82,0,0,1,526.22,538.38Z"/><path class="cls-6" d="M526.33,564.47a2.83,2.83,0,0,1,2.89,2.86,3.21,3.21,0,0,1-3.07,3.06,3,3,0,0,1,.18-5.92Z"/><path class="cls-6" d="M553,570.39a2.95,2.95,0,1,1-.06-5.89,3,3,0,0,1,3,2.78A3.08,3.08,0,0,1,553,570.39Z"/><path class="cls-6" d="M582.64,567.56a2.81,2.81,0,0,1-2.9,2.83,3.21,3.21,0,0,1-3-3.11,2.89,2.89,0,0,1,3-2.78A2.85,2.85,0,0,1,582.64,567.56Z"/><path class="cls-6" d="M659.94,570.39a2.95,2.95,0,0,1,.37-5.88,2.86,2.86,0,0,1,2.81,2.94A3.21,3.21,0,0,1,659.94,570.39Z"/><path class="cls-6" d="M582.62,471.77a2.9,2.9,0,0,1-2.81,3,3,3,0,1,1,0-6A2.9,2.9,0,0,1,582.62,471.77Z"/><path class="cls-6" d="M630.38,471.67a2.95,2.95,0,1,1,3,3.13A3.11,3.11,0,0,1,630.38,471.67Z"/><path class="cls-6" d="M445.91,500.69a3,3,0,0,1,0,6,3,3,0,1,1,0-6Z"/><path class="cls-6" d="M502.42,535.47a3,3,0,0,1-5.94.09,3,3,0,1,1,5.94-.09Z"/><path class="cls-6" d="M660.05,500.69a3,3,0,0,1,3,3,3.11,3.11,0,0,1-2.91,2.92,2.9,2.9,0,0,1-2.95-3A2.83,2.83,0,0,1,660.05,500.69Z"/><path class="cls-6" d="M475.56,471.83a2.94,2.94,0,1,1-5.88-.17,2.94,2.94,0,1,1,5.88.17Z"/><path class="cls-6" d="M445.77,570.39a3.09,3.09,0,0,1-2.88-3.18,3,3,0,0,1,3.31-2.7,2.74,2.74,0,0,1,2.53,3.13A2.81,2.81,0,0,1,445.77,570.39Z"/><path class="cls-1" d="M440.17,124.78c-.14-2.24.29-4.53-.47-6.73q0-58.77,0-117.54H506.4c5.12,0,10.24-.18,15.35,0,12.15.53,24.31.12,36.45.5a98.85,98.85,0,0,1,26.36,4.77,108.68,108.68,0,0,1,37.21,19.89q34.68,28.59,40.64,73.22a11.07,11.07,0,0,0,.93,3.7,136,136,0,0,1-2.78,34.09A111.7,111.7,0,0,1,651,163a114,114,0,0,1-13.85,21,111.67,111.67,0,0,1-44.7,32.16A113.74,113.74,0,0,1,558,223.74a111.19,111.19,0,0,1-41.6-5.39,107,107,0,0,1-30.42-15.55,111.14,111.14,0,0,1-39.09-51.07,106.59,106.59,0,0,1-6.17-24.61C440.58,126.33,440.34,125.56,440.17,124.78Z"/><path class="cls-11" d="M719.11,341.54c0-1.12-.08-2.25,0-3.36.14-1.5.62-2.06,2.08-2.13a65.1,65.1,0,0,1,6.7,0c1.47.07,2,.63,2.09,2.12.1,2.31.11,4.63,0,6.94-.06,1.63-.61,2.2-2.19,2.28-2.15.1-4.32.1-6.47,0-1.59-.08-2.1-.65-2.23-2.25-.09-1.19,0-2.4,0-3.59Z"/><path class="cls-11" d="M719.1,286.38c0-1.11-.07-2.24,0-3.34.13-1.51.61-2.1,2-2.17,2.23-.12,4.46-.07,6.69,0A2,2,0,0,1,730,283c.07,2.38.06,4.78,0,7.16a1.88,1.88,0,0,1-1.94,2q-3.46.09-6.93,0a1.89,1.89,0,0,1-2-2c-.06-1.28,0-2.55,0-3.83Z"/><path class="cls-11" d="M719.11,360c0-1.2-.08-2.4,0-3.59.13-1.48.62-2,2.1-2.1,2.14-.11,4.3-.11,6.45,0,1.58.08,2.22.68,2.29,2.21.11,2.39.07,4.78,0,7.17a1.89,1.89,0,0,1-2,2c-2.23.05-4.47.1-6.7,0-1.56-.08-2-.66-2.19-2.29a3.85,3.85,0,0,1,0-.48V360Z"/><path class="cls-11" d="M719.1,396.77c0-1.11-.07-2.24,0-3.34.12-1.51.6-2.12,2-2.18,2.3-.12,4.62-.08,6.93,0a1.87,1.87,0,0,1,1.92,2c0,2.39,0,4.78,0,7.17a2,2,0,0,1-2.15,2.11c-2.22.06-4.46.1-6.69,0-1.41-.07-1.89-.67-2-2.18C719,399.17,719.1,398,719.1,396.77Z"/><path class="cls-11" d="M730,323.23c0,1.12.08,2.24,0,3.35-.14,1.47-.65,2-2.13,2.09-2.15.11-4.32.11-6.47,0-1.61-.08-2.19-.64-2.26-2.22a63.47,63.47,0,0,1,0-6.47c.07-1.59.65-2.14,2.25-2.22q3.12-.15,6.24,0c1.75.07,2.26.62,2.4,2.34.08,1,0,2.08,0,3.12Z"/><path class="cls-11" d="M719.11,378.23c0-1-.08-2.08,0-3.11.14-1.49.62-2.06,2.08-2.13q3.36-.17,6.71,0c1.46.07,2,.64,2.07,2.14.11,2.15.11,4.32,0,6.47-.07,1.61-.63,2.19-2.21,2.27-2.15.1-4.32.1-6.47,0-1.57-.08-2.08-.67-2.21-2.28-.09-1.11,0-2.24,0-3.36Z"/><path class="cls-11" d="M724.55,310.47c-1,0-2.09.07-3.12,0-1.64-.14-2.22-.62-2.3-2.19q-.17-3.22,0-6.47c.07-1.6.64-2.18,2.22-2.26,2.15-.1,4.32-.1,6.47,0,1.5.07,2.09.61,2.16,2,.12,2.23.12,4.48,0,6.71-.07,1.49-.62,2-2.09,2.13-1.11.1-2.23,0-3.35,0Z"/><path class="cls-2" d="M202.13,358.93a9.47,9.47,0,0,0-.51,3.77v15.8c0,.72,0,1.44-.06,2.15-.17,1.59-.66,2.09-2.24,2.27a17.33,17.33,0,0,1-1.91.06H179.93c-.72,0-1.44,0-2.15-.08a2,2,0,0,1-2-2c-.05-.63-.07-1.27-.08-1.91V361.52c0-.63,0-1.27.08-1.91a2,2,0,0,1,2-2c.79-.06,1.59-.08,2.39-.08,5.42,0,10.85,0,16.28,0a9.83,9.83,0,0,0,3.77-.5Z"/><path class="cls-2" d="M63.39,341.24c0,3.67,0,7.34,0,11,0,2.86-.51,3.35-3.38,3.36q-9.57.06-19.13,0c-2.87,0-3.35-.5-3.38-3.36,0-3.66,0-7.33,0-11Z"/><path class="cls-2" d="M35.55,341.25c0,3.67,0,7.33,0,11,0,2.85-.51,3.34-3.39,3.35q-9.57.06-19.13,0c-2.86,0-3.33-.5-3.36-3.37-.05-3.67,0-7.34,0-11Z"/><path class="cls-2" d="M146.42,341.23c0,3.6,0,7.2,0,10.8,0,3-.57,3.55-3.5,3.57q-9.48.06-19,0c-3,0-3.41-.48-3.44-3.56,0-3.6,0-7.2,0-10.8Z"/><path class="cls-2" d="M118.59,341.24c0,3.6,0,7.2,0,10.8,0,3.08-.46,3.55-3.44,3.56q-9.47.06-18.95,0c-2.93,0-3.46-.58-3.5-3.57,0-3.6,0-7.2,0-10.8Z"/><path class="cls-2" d="M173.78,342.68c0,3.12,0,6.24,0,9.36s-.46,3.55-3.44,3.56q-9.48.06-19,0c-2.92,0-3.45-.59-3.49-3.58,0-3.6,0-7.2,0-10.8,5.26,0,10.52-.07,15.78,0A35.91,35.91,0,0,1,173.78,342.68Z"/><path class="cls-2" d="M90.75,341.25c0,3.67,0,7.34,0,11,0,2.85-.51,3.34-3.39,3.35q-9.32.06-18.65,0c-2.86,0-3.34-.5-3.37-3.35,0-3.67,0-7.34,0-11Z"/><path class="cls-2" d="M198.74,355.62H180.29c-.63,0-1.28,0-1.91,0-2-.15-2.58-.64-2.63-2.64-.09-3.27,0-6.54-.05-9.82A51.85,51.85,0,0,1,198.74,355.62Z"/><path class="cls-2" d="M215.52,383.46a15.7,15.7,0,0,0-5.2-.48c-7.35,0-6.78.52-6.78-6.9,0-5.09,0-10.18.06-15.27a25.22,25.22,0,0,1,4.88,6.19A53.24,53.24,0,0,1,215.52,383.46Z"/><path class="cls-6" d="M141.38,288c-3.59,0-7.18,0-10.78,0-2.46,0-3.15-.88-2.91-3.22a2,2,0,0,1,1.93-2c.63-.05,1.27-.07,1.91-.07h20.11c.4,0,.8,0,1.2,0,2.14.11,2.72.71,2.68,2.75,0,1.86-.53,2.46-2.41,2.52-2.63.08-5.27,0-7.9.05h-3.83Z"/><path class="cls-6" d="M141.59,279.32c-3.67,0-7.34,0-11,0-2.45,0-3.14-.91-2.89-3.26a1.93,1.93,0,0,1,2-2c.63,0,1.27-.06,1.91-.06h20.11c.4,0,.8,0,1.2,0,2.12.12,2.7.73,2.65,2.79,0,1.84-.54,2.43-2.44,2.49-2.79.08-5.58,0-8.38,0h-3.11Z"/><path class="cls-10" d="M216.48,386.39l-.42-1.45Z"/><path class="cls-10" d="M317.29,15.88c0,3.92,0,7.84,0,11.75,0,3.06-.48,3.49-3.45,3.56-4.35.1-4.68-.22-4.69-4.48q0-10.9,0-21.82c0-.56,0-1.12,0-1.68.14-2,.63-2.55,2.59-2.69a23.06,23.06,0,0,1,2.88,0c2,.13,2.54.64,2.61,2.66.08,2.71,0,5.43,0,8.15,0,1.52,0,3,0,4.55Z"/><path class="cls-10" d="M359.05,15.71c0,4,0,8,0,12,0,3-.48,3.43-3.52,3.49-4.3.08-4.62-.22-4.62-4.55q0-10.79,0-21.58a21.31,21.31,0,0,1,.07-2.4c.18-1.46.66-1.9,2.14-2.12,5.05-.75,5.94,0,5.94,5.1V15.71Z"/><path class="cls-10" d="M387.84,15.91c0,3.91,0,7.82,0,11.73,0,3-.58,3.47-3.53,3.55-4.25.11-4.6-.23-4.6-4.56q0-10.77,0-21.56c0-.72,0-1.44,0-2.15.17-1.73.66-2.24,2.38-2.38a21.3,21.3,0,0,1,2.88,0c2.24.11,2.78.61,2.82,2.94.05,4.15,0,8.31,0,12.46Z"/><path class="cls-10" d="M395.06,15.78c0-3.83,0-7.66,0-11.5,0-3.35.44-3.75,3.69-3.8,4.14,0,4.45.25,4.46,4.48q0,10.79,0,21.56c0,.64,0,1.28,0,1.91-.16,2-.69,2.55-2.62,2.71a21,21,0,0,1-2.63,0c-2.26-.11-2.8-.61-2.83-2.93-.06-4.15,0-8.31,0-12.46Z"/><path class="cls-10" d="M273.13,15.63c0,3.91,0,7.82,0,11.73,0,3.28-.54,3.78-3.72,3.83-3.93.06-4.41-.39-4.42-4.33q0-11.13,0-22.26c0-.56,0-1.12,0-1.67.18-1.73.66-2.24,2.37-2.39a21.15,21.15,0,0,1,2.87,0c2.25.11,2.8.61,2.84,2.92.06,4.07,0,8.13,0,12.2Z"/><path class="cls-10" d="M288.49,15.78c0,4,0,8,0,12,0,2.81-.61,3.34-3.38,3.43-4.22.14-4.74-.32-4.74-4.48q0-11,0-22c0-.72,0-1.44.08-2.15a2,2,0,0,1,2-2,28.53,28.53,0,0,1,3.58,0c1.83.12,2.36.65,2.44,2.56.09,2.23,0,4.47,0,6.7,0,2,0,4,0,6Z"/><path class="cls-10" d="M322.11,15.58c0-3.9,0-7.81,0-11.72,0-2.85.52-3.3,3.37-3.37,4.44-.11,4.76.19,4.76,4.64q0,10.65,0,21.29a21.06,21.06,0,0,1-.07,2.39c-.18,1.57-.71,2.13-2.25,2.3a17.82,17.82,0,0,1-3.1,0c-2-.13-2.57-.69-2.67-2.64s-.05-3.66-.06-5.5c0-2.47,0-4.94,0-7.42Z"/><path class="cls-10" d="M346.08,15.94c0,3.9,0,7.81,0,11.72,0,2.95-.6,3.46-3.54,3.53-4.08.09-4.58-.37-4.59-4.4q0-11.13,0-22.25A15.71,15.71,0,0,1,338,2.86c.17-1.63.63-2.1,2.19-2.32,5.06-.72,5.91,0,5.91,5.11V15.94Z"/><path class="cls-10" d="M259.7,16c0,3.92,0,7.84,0,11.76,0,3-.51,3.44-3.53,3.48-3.71,0-4.13-.35-4.14-4.07q0-11.28,0-22.55a15.18,15.18,0,0,1,.07-1.91c.2-1.47.67-1.9,2.14-2.12,4.54-.66,5.46.11,5.47,4.62,0,3.6,0,7.2,0,10.79Z"/><path class="cls-10" d="M301.45,16.08c0,3.92,0,7.84,0,11.76,0,2.83-.54,3.29-3.41,3.35-.4,0-.8,0-1.2,0-2.45-.1-3-.57-3-3q-.06-12.36,0-24.71c0-2.41.59-2.88,3-3,4.13-.17,4.6.26,4.61,4.32,0,3.76,0,7.52,0,11.27Z"/><path class="cls-10" d="M374.41,15.84c0,4,0,8,0,12,0,2.84-.54,3.3-3.41,3.36-.4,0-.8,0-1.2,0-2.45-.1-3-.57-3-3q-.06-12.34,0-24.7c0-2.42.58-2.89,3-3,4.13-.19,4.61.25,4.62,4.31,0,3.67,0,7.35,0,11Z"/><path class="cls-10" d="M408.5,15.6c0-3.92,0-7.83,0-11.75,0-2.84.54-3.3,3.4-3.36.4,0,.8,0,1.2,0,2.45.1,3,.56,3,3q.08,12.36,0,24.71c0,2.43-.57,2.89-3,3-4.13.18-4.61-.25-4.62-4.3,0-3.76,0-7.52,0-11.28Z"/><path class="cls-2" d="M50.19,466c-3.2,0-6.4,0-9.6,0-2.56,0-3.09-.56-3.1-3.16q-.06-9.82,0-19.66c0-2.47.55-3,3-3q9.95-.06,19.91,0c2.42,0,3,.57,3,3q.07,9.84,0,19.67c0,2.6-.55,3.12-3.1,3.16C56.9,466,53.54,466,50.19,466Z"/><path class="cls-2" d="M201.61,398.1c0,3.19,0,6.39,0,9.59,0,2.55-.56,3.08-3.16,3.1q-9.83.06-19.67,0c-2.46,0-3-.55-3-3q-.07-10,0-19.91c0-2.42.57-2.95,3-3q9.84-.07,19.67,0c2.6,0,3.12.55,3.16,3.1C201.65,391.38,201.61,394.74,201.61,398.1Z"/><path class="cls-2" d="M147.88,397.86c0-3.28,0-6.56,0-9.84,0-2.55.56-3.08,3.16-3.1q9.82-.06,19.67,0c2.46,0,3,.55,3,3q.08,10,0,19.91c0,2.42-.57,3-3,3q-9.84.08-19.67,0c-2.6,0-3.12-.54-3.16-3.1C147.84,404.41,147.88,401.13,147.88,397.86Z"/><path class="cls-2" d="M133.59,410.8c-3.28,0-6.56,0-9.83,0-2.73,0-3.22-.52-3.24-3.27q-.06-9.7,0-19.42c0-2.61.54-3.15,3.09-3.17q9.84-.07,19.67,0c2.56,0,3.1.55,3.11,3.14.05,6.48,0,12.95,0,19.43,0,2.81-.52,3.26-3.45,3.3C139.83,410.83,136.71,410.81,133.59,410.8Z"/><path class="cls-2" d="M118.57,398.1c0,3.2,0,6.39,0,9.59,0,2.55-.57,3.08-3.16,3.1q-9.84.06-19.67,0c-2.46,0-3-.55-3-3q-.08-9.94,0-19.9c0-2.43.56-3,3-3q9.84-.07,19.67,0c2.58,0,3.12.57,3.16,3.11C118.61,391.38,118.57,394.74,118.57,398.1Z"/><path class="cls-2" d="M22.6,410.8c-3.28,0-6.56,0-9.83,0-2.57,0-3.1-.56-3.12-3.15q-.06-9.83,0-19.66c0-2.48.55-3,3-3.05q9.94-.07,19.91,0c2.43,0,3,.56,3,3q.06,9.82,0,19.66c0,2.67-.55,3.15-3.32,3.18-3.2,0-6.4,0-9.6,0Z"/><path class="cls-2" d="M50.49,523.13c3.2,0,6.4,0,9.6,0,2.75,0,3.25.52,3.27,3.24q.06,9.71,0,19.43c0,2.7-.53,3.19-3.29,3.21-6.48,0-13,0-19.43,0-2.59,0-3.13-.55-3.15-3.11q-.06-9.82,0-19.66c0-2.55.56-3.05,3.17-3.09C43.94,523.09,47.21,523.13,50.49,523.13Z"/><path class="cls-2" d="M22.66,523.12c3.2,0,6.4,0,9.6,0,2.74,0,3.25.52,3.26,3.25q.06,9.71,0,19.42c0,2.7-.53,3.19-3.3,3.21q-9.59.06-19.19,0c-2.88,0-3.37-.5-3.38-3.36q-.06-9.6,0-19.19c0-2.84.51-3.29,3.42-3.33C16.27,523.09,19.47,523.12,22.66,523.12Z"/><path class="cls-2" d="M63.38,480.9c0,3.12,0,6.24,0,9.35s-.47,3.55-3.44,3.57q-9.59,0-19.19,0c-2.74,0-3.24-.51-3.26-3.24,0-6.48,0-12.95,0-19.43,0-2.69.53-3.18,3.3-3.2q9.6,0,19.19,0c2.88,0,3.35.5,3.39,3.37C63.41,474.5,63.37,477.7,63.38,480.9Z"/><path class="cls-2" d="M22.57,493.83c-3.12,0-6.24,0-9.36,0s-3.55-.46-3.56-3.43q-.06-9.6,0-19.19c0-2.74.51-3.24,3.24-3.26,6.48,0,13,0,19.43,0,2.69,0,3.19.53,3.21,3.3q0,9.58,0,19.18c0,2.88-.5,3.35-3.37,3.39C29,493.86,25.76,493.83,22.57,493.83Z"/><path class="cls-2" d="M118.57,453.05c0,3.27,0,6.55,0,9.83,0,2.55-.57,3.08-3.16,3.1q-9.84.06-19.67,0c-2.46,0-3-.55-3-3q-.08-9.94,0-19.9c0-2.43.56-3,3-3q9.83-.08,19.66,0c2.61,0,3.12.54,3.17,3.09C118.61,446.49,118.57,449.77,118.57,453.05Z"/><path class="cls-2" d="M50.21,410.8c-3.2,0-6.4,0-9.6,0-2.57,0-3.1-.56-3.12-3.14q-.06-9.82,0-19.66c0-2.54.56-3.05,3.19-3.07q9.72-.06,19.43,0c2.74,0,3.23.52,3.25,3.26q.06,9.7,0,19.42c0,2.68-.54,3.16-3.32,3.19C56.77,410.84,53.49,410.8,50.21,410.8Z"/><path class="cls-2" d="M22.83,440.1c3.19,0,6.39,0,9.58,0,2.56,0,3.09.56,3.11,3.14q.06,9.83,0,19.65c0,2.54-.57,3-3.19,3.07q-9.7.06-19.41,0c-2.75,0-3.25-.51-3.27-3.23q-.06-9.58,0-19.17c0-2.91.59-3.43,3.59-3.47,3.2,0,6.39,0,9.59,0Z"/><path class="cls-2" d="M160.82,438.16c-3.28,0-6.56,0-9.83,0-2.56,0-3.08-.57-3.1-3.17q-.06-9.59,0-19.18c0-2.47.55-3,3-3q10-.06,19.91,0c2.42,0,2.95.57,3,3q.08,9.58,0,19.19c0,2.59-.55,3.11-3.1,3.16C167.38,438.2,164.1,438.16,160.82,438.16Z"/><path class="cls-2" d="M133.42,438.16c-3.2,0-6.4,0-9.6,0-2.76,0-3.28-.51-3.3-3.21q-.06-9.46,0-18.95c0-2.72.52-3.22,3.27-3.24,6.47,0,13,0,19.43,0,2.61,0,3.15.53,3.17,3.08q.08,9.59,0,19.19c0,2.56-.56,3.08-3.14,3.12C140,438.2,136.7,438.16,133.42,438.16Z"/><path class="cls-2" d="M105.62,438.16c-3.28,0-6.56,0-9.84,0-2.55,0-3.07-.57-3.09-3.17q-.06-9.59,0-19.19c0-2.46.55-3,3-3q10-.06,19.91,0c2.42,0,3,.57,3,3q.08,9.6,0,19.19c0,2.59-.55,3.11-3.1,3.16C112.18,438.2,108.9,438.16,105.62,438.16Z"/><path class="cls-2" d="M22.82,412.74c3.2,0,6.4,0,9.6,0,2.56,0,3.08.56,3.1,3.16q.06,9.58,0,19.18c0,2.47-.56,3-3,3q-9.94.08-19.91,0c-2.42,0-3-.57-3-3q-.08-9.6,0-19.19c0-2.6.55-3.12,3.1-3.16C16.11,412.7,19.47,412.74,22.82,412.74Z"/><path class="cls-2" d="M65.31,535.83c0-3.2,0-6.4,0-9.59,0-2.56.56-3.08,3.16-3.1q9.6-.06,19.19,0c2.47,0,3,.55,3,3q.08,10,0,19.91c0,2.42-.57,3-3,3q-9.6.07-19.2,0c-2.59,0-3.11-.54-3.15-3.1C65.27,542.55,65.31,539.19,65.31,535.83Z"/><path class="cls-2" d="M50.27,576.38c-3.2,0-6.4,0-9.6,0-2.61,0-3.16-.54-3.18-3.08q-.08-9.6,0-19.19c0-2.57.56-3.11,3.13-3.13q9.84-.06,19.67,0c2.54,0,3.05.56,3.07,3.19q.06,9.47,0,19c0,2.73-.52,3.21-3.26,3.25C56.83,576.41,53.55,576.38,50.27,576.38Z"/><path class="cls-2" d="M22.58,576.38c-3.27,0-6.55,0-9.83,0-2.55,0-3.08-.56-3.1-3.16q-.06-9.6,0-19.19c0-2.47.55-3,3-3q10-.08,19.91,0c2.42,0,3,.57,3,3q.06,9.59,0,19.18c0,2.6-.55,3.12-3.1,3.16C29.14,576.42,25.86,576.38,22.58,576.38Z"/><path class="cls-2" d="M50.48,495.76c3.2,0,6.4,0,9.6,0,2.75,0,3.26.52,3.28,3.23q.06,9.48,0,19c0,2.71-.53,3.21-3.28,3.23q-9.72,0-19.43,0c-2.6,0-3.14-.55-3.16-3.1q-.06-9.6,0-19.19c0-2.55.56-3.06,3.16-3.1C43.93,495.73,47.21,495.76,50.48,495.76Z"/><path class="cls-2" d="M22.52,521.19c-3.2,0-6.4,0-9.6,0-2.74,0-3.25-.52-3.27-3.24q-.06-9.48,0-19c0-2.7.54-3.2,3.29-3.22q9.72,0,19.43,0c2.59,0,3.13.55,3.15,3.11q.06,9.6,0,19.19c0,2.55-.57,3-3.17,3.09C29.08,521.22,25.8,521.19,22.52,521.19Z"/><path class="cls-2" d="M90.74,481.05c0,3.19,0,6.39,0,9.59,0,2.61-.54,3.15-3.09,3.17q-9.59.06-19.19,0c-2.56,0-3.1-.57-3.12-3.15q-.06-9.82,0-19.66c0-2.47.55-3,3-3q9.72-.07,19.44,0c2.43,0,2.94.56,3,3,.06,3.36,0,6.72,0,10.08Z"/><path class="cls-2" d="M65.31,397.69c0-3.2,0-6.4,0-9.6,0-2.6.55-3.14,3.1-3.16q9.58-.07,19.19,0c2.56,0,3.09.56,3.11,3.14q.06,9.84,0,19.67c0,2.47-.56,3-3,3q-9.72.08-19.43,0c-2.44,0-2.95-.56-3-3-.06-3.36,0-6.72,0-10.07Z"/><path class="cls-2" d="M50.26,438.16c-3.2,0-6.4,0-9.6,0-2.61,0-3.15-.54-3.17-3.09q-.06-9.6,0-19.19c0-2.56.57-3.1,3.15-3.11q9.82-.06,19.67,0c2.47,0,3,.55,3,3q.07,9.7,0,19.42c0,2.44-.56,3-3,3-3.36.06-6.72,0-10.07,0Z"/><path class="cls-2" d="M90.74,453.21c0,3.2,0,6.39,0,9.59,0,2.61-.54,3.16-3.08,3.18q-9.6.06-19.19,0c-2.57,0-3.11-.56-3.12-3.13q-.08-9.84,0-19.67c0-2.47.55-3,3-3.05,6.48-.06,13-.05,19.43,0,2.43,0,3,.57,3,3,.07,3.36,0,6.72,0,10.08Z"/><path class="cls-2" d="M9.64,370.26c0-3.2,0-6.4,0-9.6,0-2.55.57-3.08,3.16-3.1q9.84-.06,19.67,0c2.47,0,3,.55,3,3q.08,9.7,0,19.43c0,2.42-.57,2.95-3,3q-9.84.07-19.67,0c-2.59,0-3.11-.55-3.16-3.11C9.6,376.65,9.64,373.46,9.64,370.26Z"/><path class="cls-2" d="M50.3,383c-3.2,0-6.4,0-9.6,0-2.7,0-3.2-.53-3.22-3.29,0-6.32,0-12.64,0-18.95,0-2.59.55-3.14,3.1-3.16q9.84-.06,19.68,0c2.54,0,3.07.56,3.09,3.16q.06,9.6,0,19.19c0,2.46-.55,3-3,3-3.36.06-6.71,0-10.07,0Z"/><path class="cls-2" d="M188.72,412.74c3.2,0,6.4,0,9.6,0,2.75,0,3.26.52,3.28,3.23q.06,9.48,0,18.95c0,2.71-.54,3.21-3.29,3.22q-9.7.06-19.43,0c-2.59,0-3.14-.55-3.15-3.11q-.07-9.59,0-19.19c0-2.55.56-3.06,3.16-3.1C182.16,412.7,185.44,412.74,188.72,412.74Z"/><path class="cls-2" d="M105.86,357.55c3.2,0,6.4,0,9.6,0,2.55.05,3.08.57,3.1,3.16q.06,9.6,0,19.19c0,2.47-.55,3-3,3q-10,.07-19.91,0c-2.43,0-3-.57-3-3q-.06-9.6,0-19.19c0-2.6.54-3.13,3.1-3.17C99.14,357.51,102.5,357.55,105.86,357.55Z"/><path class="cls-2" d="M133.33,383c-3.12,0-6.24,0-9.36,0-2.93,0-3.43-.49-3.45-3.31q-.06-9.46,0-19c0-2.58.55-3.13,3.1-3.15q9.84-.06,19.68,0c2.54,0,3.07.56,3.08,3.17q.06,9.58,0,19.19c0,2.46-.55,3-3,3-3.35.06-6.71,0-10.07,0Z"/><path class="cls-2" d="M161.06,357.55c3.2,0,6.4,0,9.6,0,2.55.05,3.08.57,3.1,3.16q.06,9.6,0,19.19c0,2.47-.55,3-3,3q-10,.07-19.91,0c-2.43,0-3-.57-3-3q-.06-9.6,0-19.19c0-2.6.54-3.13,3.09-3.17C154.34,357.51,157.7,357.55,161.06,357.55Z"/><path class="cls-2" d="M77.78,576.38c-3.12,0-6.24,0-9.35,0-2.56,0-3.09-.56-3.11-3.16q-.06-9.59,0-19.19c0-2.46.55-3,3-3q9.7-.08,19.43,0c2.42,0,3,.57,3,3q.06,9.6,0,19.19c0,2.6-.55,3.12-3.1,3.16C84.34,576.42,81.06,576.38,77.78,576.38Z"/><path class="cls-2" d="M78.09,357.55c3.11,0,6.23,0,9.35,0,2.75,0,3.27.52,3.28,3.23q.06,9.46,0,18.95c0,2.7-.53,3.2-3.28,3.22q-9.48.06-19,0c-2.59,0-3.14-.55-3.15-3.11q-.08-9.59,0-19.19c0-2.55.56-3.06,3.16-3.1C71.69,357.51,74.89,357.55,78.09,357.55Z"/><path class="cls-2" d="M78,412.74c3.2,0,6.4,0,9.6,0,2.55,0,3.08.56,3.1,3.15q.06,9.6,0,19.2c0,2.46-.56,3-3,3q-9.72.08-19.43,0c-2.43,0-3-.57-3-3q-.08-9.6,0-19.19c0-2.6.55-3.12,3.1-3.16C71.62,412.7,74.82,412.74,78,412.74Z"/><path class="cls-2" d="M78,495.77c3.2,0,6.4,0,9.6,0,2.55,0,3.08.57,3.1,3.16q.06,9.6,0,19.19c0,2.46-.56,3-3,3q-9.72.08-19.43,0c-2.43,0-3-.57-3-3q-.08-9.6,0-19.19c0-2.59.55-3.12,3.1-3.16C71.62,495.72,74.82,495.77,78,495.77Z"/><path class="cls-2" d="M63.38,595.1H37.46q0-6.35,0-12.68c0-.72,0-1.44.09-2.15a1.92,1.92,0,0,1,1.86-1.86c.63-.07,1.27-.09,1.91-.1H59.52c.64,0,1.28,0,1.91.1a1.92,1.92,0,0,1,1.85,1.86,19.23,19.23,0,0,1,.1,2.15C63.39,586.64,63.38,590.87,63.38,595.1Z"/><path class="cls-2" d="M35.55,595.09l-25.91,0q0-6.21,0-12.43c0-.71,0-1.43.09-2.15a2.1,2.1,0,0,1,2.14-2.13c1.35-.08,2.71-.09,4.06-.09h15.3a23.75,23.75,0,0,1,2.39.1,1.92,1.92,0,0,1,1.84,1.87c.07.71.09,1.43.09,2.15Q35.55,588.76,35.55,595.09Z"/><path class="cls-2" d="M90.75,595.09H65.29c0-4.22,0-8.45,0-12.68,0-.71,0-1.44.09-2.15a1.92,1.92,0,0,1,1.86-1.85c.63-.07,1.27-.09,1.91-.1h17.7c.64,0,1.28,0,1.91.1a1.91,1.91,0,0,1,1.86,1.85,19.23,19.23,0,0,1,.1,2.15Q90.76,588.74,90.75,595.09Z"/><path class="cls-12" d="M288.55,280.52a3,3,0,0,1,3.06-3,3,3,0,0,1,0,6A3,3,0,0,1,288.55,280.52Z"/><path class="cls-12" d="M374.81,440a2.89,2.89,0,0,1-2.88,2.91,3,3,0,1,1,2.88-2.91Z"/><path class="cls-12" d="M267.74,344.41a3,3,0,1,1-2.93-3.13A3,3,0,0,1,267.74,344.41Z"/><path class="cls-12" d="M321.37,471.87a3.08,3.08,0,0,1-3.14,2.91,2.9,2.9,0,0,1-2.84-3.14,2.82,2.82,0,0,1,3.05-2.9A3.08,3.08,0,0,1,321.37,471.87Z"/><path class="cls-12" d="M348,248.66a2.94,2.94,0,0,1-3,3,3.13,3.13,0,0,1-2.93-3.19,3.07,3.07,0,0,1,3-2.89A2.93,2.93,0,0,1,348,248.66Z"/><path class="cls-12" d="M267.76,376.05a3,3,0,0,1-6,.24,3.14,3.14,0,0,1,2.9-3.21A3,3,0,0,1,267.76,376.05Z"/><path class="cls-12" d="M425.3,251.68a3,3,0,0,1,.12-6.08,3.05,3.05,0,0,1,3,3.08A3.13,3.13,0,0,1,425.3,251.68Z"/><path class="cls-12" d="M374.81,376.42a3,3,0,0,1-6-.5,3.14,3.14,0,0,1,3.27-2.83A3,3,0,0,1,374.81,376.42Z"/><path class="cls-12" d="M395.63,344a3,3,0,0,1,6,.51,3.15,3.15,0,0,1-3.28,2.83A3,3,0,0,1,395.63,344Z"/><path class="cls-12" d="M374.81,280.38a3,3,0,1,1-3.17-2.86A2.94,2.94,0,0,1,374.81,280.38Z"/><path class="cls-12" d="M237.92,436.87a3,3,0,0,1,.18,6,3,3,0,0,1-3.18-2.89A3.15,3.15,0,0,1,237.92,436.87Z"/><path class="cls-12" d="M345,405.08a2.84,2.84,0,0,1,3,3,2.92,2.92,0,0,1-2.77,3,3.19,3.19,0,0,1-3.21-3.16A2.92,2.92,0,0,1,345,405.08Z"/><path class="cls-12" d="M398.64,373.08a3.15,3.15,0,0,1,3,3.13,2.94,2.94,0,0,1-3.16,2.87,2.9,2.9,0,0,1-2.84-2.94A3,3,0,0,1,398.64,373.08Z"/><path class="cls-6" d="M267.75,471.78a3,3,0,1,1-3.05-3.07A3.1,3.1,0,0,1,267.75,471.78Z"/><path class="cls-12" d="M291.23,506.64a3,3,0,0,1-2.66-3.36,2.92,2.92,0,0,1,3.15-2.63,3,3,0,0,1,2.83,3.22A3.15,3.15,0,0,1,291.23,506.64Z"/><path class="cls-12" d="M237.89,506.65a3.14,3.14,0,0,1-3-3.15,3,3,0,0,1,3.21-2.85,2.91,2.91,0,0,1,2.79,3A3,3,0,0,1,237.89,506.65Z"/><path class="cls-12" d="M291.5,442.88a3,3,0,0,1-.06-6,3.15,3.15,0,0,1,3.13,3A3,3,0,0,1,291.5,442.88Z"/><path class="cls-12" d="M318.29,251.64a2.82,2.82,0,0,1-2.9-2.86,3,3,0,0,1,2.87-3.17,3,3,0,1,1,0,6Z"/><path class="cls-6" d="M267.72,440.21a3,3,0,1,1-2.69-3.33A3,3,0,0,1,267.72,440.21Z"/><path class="cls-6" d="M264.67,283.51a3,3,0,1,1,3.07-3A3,3,0,0,1,264.67,283.51Z"/><path class="cls-6" d="M371.92,347.29a3.15,3.15,0,0,1-3.11-3,3,3,0,0,1,3.07-3,2.87,2.87,0,0,1,2.93,2.83A3,3,0,0,1,371.92,347.29Z"/><path class="cls-12" d="M345.08,309.34a2.88,2.88,0,0,1,2.9,3.11,2.8,2.8,0,0,1-2.89,2.84,2.89,2.89,0,0,1-3.08-2.93A3.12,3.12,0,0,1,345.08,309.34Z"/><path class="cls-6" d="M401.63,280.62a3,3,0,1,1-2.95-3.11A3,3,0,0,1,401.63,280.62Z"/><path class="cls-12" d="M238,283.5a3.12,3.12,0,0,1-3.08-3,3.08,3.08,0,0,1,3.1-3,3,3,0,0,1,0,6Z"/><path class="cls-6" d="M401.63,440a3,3,0,1,1-3-3.1A3,3,0,0,1,401.63,440Z"/><path class="cls-12" d="M294.57,344.31a3.16,3.16,0,0,1-3.14,3,3,3,0,0,1-2.86-3.18,2.87,2.87,0,0,1,2.95-2.81A3,3,0,0,1,294.57,344.31Z"/><path class="cls-12" d="M318.42,309.31a3.13,3.13,0,0,1,2.92,3.18,2.92,2.92,0,0,1-3.21,2.8,2.85,2.85,0,0,1-2.73-3.24A2.9,2.9,0,0,1,318.42,309.31Z"/><path class="cls-12" d="M294.56,376.11a2.94,2.94,0,0,1-3.05,3,2.89,2.89,0,0,1-2.94-2.84,3,3,0,0,1,2.88-3.15A3.16,3.16,0,0,1,294.56,376.11Z"/><path class="cls-12" d="M240.93,344.22a2.94,2.94,0,0,1-3,3.07,3.14,3.14,0,0,1-3-3.09,3,3,0,0,1,2.89-2.9A2.9,2.9,0,0,1,240.93,344.22Z"/><path class="cls-6" d="M264.78,500.66a3,3,0,1,1-3,3A3,3,0,0,1,264.78,500.66Z"/><path class="cls-6" d="M346.57,468.88a8.57,8.57,0,0,1,.92,1.09,3.16,3.16,0,0,1-.51,4.1,3,3,0,0,1-3.93,0,7.4,7.4,0,0,1-.85-.83C341.71,469.74,343,468.51,346.57,468.88Z"/><path class="cls-12" d="M425.48,341.29a3,3,0,0,1,2.95,3.08,3.18,3.18,0,0,1-3.21,2.9,3,3,0,0,1,.26-6Z"/><path class="cls-12" d="M238.1,532.46a3,3,0,0,1,2.81,3.2,2.89,2.89,0,0,1-3,2.78,2.92,2.92,0,0,1-3-3A3.2,3.2,0,0,1,238.1,532.46Z"/><path class="cls-12" d="M288.57,535.47a3,3,0,0,1,3-3,3.19,3.19,0,0,1,3,3.16,3,3,0,0,1-6-.14Z"/><path class="cls-12" d="M321.34,535.41a2.93,2.93,0,0,1-3,3,2.78,2.78,0,0,1-2.94-2.77,2.92,2.92,0,0,1,2.81-3.19A3.14,3.14,0,0,1,321.34,535.41Z"/><path class="cls-6" d="M261.74,248.43a3,3,0,0,1,6,.29,3,3,0,1,1-6-.29Z"/><path class="cls-12" d="M318.38,277.5a3,3,0,1,1-.29,6,3,3,0,0,1,.29-6Z"/><path class="cls-12" d="M425.32,277.5a3,3,0,0,1,3.08,3,3.13,3.13,0,0,1-3.06,3,3,3,0,0,1,0-6Z"/><path class="cls-12" d="M428.43,312.5a2.94,2.94,0,0,1-3.21,2.79,2.8,2.8,0,0,1-2.76-3,2.94,2.94,0,0,1,3-3A3.13,3.13,0,0,1,428.43,312.5Z"/><path class="cls-12" d="M425.42,373.1a3.19,3.19,0,0,1,3,3.11,3,3,0,0,1-3.16,2.86,3,3,0,0,1,.15-6Z"/><path class="cls-12" d="M238,405.09a2.89,2.89,0,0,1,3,3,3,3,0,0,1-2.84,2.94,3.17,3.17,0,0,1-3.13-3.22A2.89,2.89,0,0,1,238,405.09Z"/><path class="cls-12" d="M315.4,407.77a2.81,2.81,0,0,1,3.28-2.65,2.9,2.9,0,0,1,2.65,3.1,3.13,3.13,0,0,1-3.23,2.84A2.93,2.93,0,0,1,315.4,407.77Z"/><path class="cls-12" d="M425.48,405.08a2.9,2.9,0,0,1,2.95,2.81,3.19,3.19,0,0,1-3.18,3.18,3,3,0,0,1-2.78-3A2.88,2.88,0,0,1,425.48,405.08Z"/><path class="cls-12" d="M240.92,471.73a3,3,0,0,1-3,3,3,3,0,0,1,0-6A2.94,2.94,0,0,1,240.92,471.73Z"/><path class="cls-12" d="M427.62,474.12a11.38,11.38,0,0,1-1.08.47,3,3,0,0,1-3.43-.88A3.16,3.16,0,0,1,423,470a8.32,8.32,0,0,1,.89-1.09,8.45,8.45,0,0,1,1.66-.13,3,3,0,0,1,2.72,4.09A8.41,8.41,0,0,1,427.62,474.12Z"/><path class="cls-12" d="M238,245.64a2.9,2.9,0,0,1,2.91,3.12,3,3,0,0,1-3.16,2.91,3.14,3.14,0,0,1-2.82-3A3,3,0,0,1,238,245.64Z"/><path class="cls-12" d="M345.2,283.52a3,3,0,1,1-.17-6,3,3,0,0,1,.17,6Z"/><path class="cls-12" d="M395.63,248.63a3,3,0,0,1,3.06-3,3,3,0,0,1,2.93,3.13,3,3,0,0,1-6-.14Z"/><path class="cls-6" d="M291.44,474.77a3,3,0,0,1-2.87-3.18,3,3,0,0,1,2.95-2.85,3,3,0,1,1-.08,6Z"/><path class="cls-12" d="M318.11,506.64a3,3,0,0,1-2.8-3.25,3,3,0,0,1,3.3-2.72,3.12,3.12,0,0,1,2.72,3.12A3.09,3.09,0,0,1,318.11,506.64Z"/><path class="cls-12" d="M348,344.4a2.9,2.9,0,0,1-2.88,2.87,3.13,3.13,0,0,1-3.08-3,3,3,0,0,1,3.06-3A2.91,2.91,0,0,1,348,344.4Z"/><path class="cls-12" d="M398.3,411a3,3,0,0,1-2.66-3.36,3,3,0,0,1,6,.64A3.08,3.08,0,0,1,398.3,411Z"/><path class="cls-6" d="M294.54,248.56a3.1,3.1,0,0,1-3,3.11,3,3,0,0,1-3-3.07,3,3,0,0,1,6,0Z"/><path class="cls-12" d="M318.32,341.3a3,3,0,0,1,3,3,3.1,3.1,0,0,1-3.16,2.93,3,3,0,0,1,.15-6Z"/><path class="cls-12" d="M371.75,411a3.08,3.08,0,0,1-2.93-3.13,2.93,2.93,0,0,1,3.19-2.81,2.88,2.88,0,0,1,2.8,3A3,3,0,0,1,371.75,411Z"/><path class="cls-12" d="M294.54,408a3.13,3.13,0,0,1-3,3.05,3,3,0,0,1-2.93-3.08,3,3,0,0,1,6,0Z"/><path class="cls-12" d="M264.71,405.08a2.91,2.91,0,0,1,3,3,3,3,0,0,1-6,.07A2.9,2.9,0,0,1,264.71,405.08Z"/><path class="cls-12" d="M345,436.87a3,3,0,0,1,3,3.06,2.92,2.92,0,0,1-2.82,2.95A3,3,0,0,1,342,440,3.1,3.1,0,0,1,345,436.87Z"/><path class="cls-12" d="M318.27,436.87a3.08,3.08,0,0,1,3.06,3,3.13,3.13,0,0,1-2.88,3,3,3,0,1,1-.18-6Z"/><path class="cls-12" d="M371.81,315.29a2.94,2.94,0,0,1-3-3,3.12,3.12,0,0,1,2.9-2.93,3,3,0,0,1,3.1,2.94A2.89,2.89,0,0,1,371.81,315.29Z"/><path class="cls-12" d="M264.65,315.29a2.9,2.9,0,0,1-2.91-3.08,3,3,0,0,1,6,.18A2.91,2.91,0,0,1,264.65,315.29Z"/><path class="cls-12" d="M238.08,379.07a3,3,0,0,1-3.13-2.88,3.19,3.19,0,0,1,3-3.09,2.94,2.94,0,0,1,2.95,2.83A2.87,2.87,0,0,1,238.08,379.07Z"/><path class="cls-12" d="M240.91,312.45a3,3,0,0,1-6-.1,3.13,3.13,0,0,1,3.07-3A2.94,2.94,0,0,1,240.91,312.45Z"/><path class="cls-12" d="M425.28,442.88a3,3,0,0,1,.12-6,3.1,3.1,0,0,1,3,3.07A3.06,3.06,0,0,1,425.28,442.88Z"/><path class="cls-12" d="M321.31,376.38a3,3,0,1,1-2.79-3.27A3.08,3.08,0,0,1,321.31,376.38Z"/><path class="cls-12" d="M348,376.4a2.89,2.89,0,0,1-3.31,2.65,2.93,2.93,0,0,1-2.62-3.12,3.16,3.16,0,0,1,3.26-2.83A2.93,2.93,0,0,1,348,376.4Z"/><path class="cls-12" d="M371.88,251.66a3.08,3.08,0,0,1-3.05-3,3,3,0,0,1,6-.12A3.1,3.1,0,0,1,371.88,251.66Z"/><path class="cls-12" d="M294.54,312.51a2.9,2.9,0,0,1-3.2,2.77,2.86,2.86,0,0,1-2.77-3,3,3,0,0,1,3.07-3A3.11,3.11,0,0,1,294.54,312.51Z"/><path class="cls-12" d="M401.63,312.24a3,3,0,0,1-2.95,3.05,2.92,2.92,0,0,1-3.05-2.7,3,3,0,1,1,6-.35Z"/><path class="cls-12" d="M267.75,535.45a2.9,2.9,0,0,1-3,3,2.94,2.94,0,0,1-3-2.77,3.07,3.07,0,0,1,2.87-3.17A3.12,3.12,0,0,1,267.75,535.45Z"/><path class="cls-10" d="M370.11,532.74a10.59,10.59,0,0,0-2.29-2.09,27.91,27.91,0,0,1,16.3-50.1,27.21,27.21,0,0,1,18.16,6.31,29.69,29.69,0,0,1,7.08,8.64c5.16,9.34,4,23.61-4.7,32.44a39.08,39.08,0,0,1-3.09,2.64c-.71.57-1.35,1.15-1.25,2.17a31.72,31.72,0,0,1-4.86,3.34,2.06,2.06,0,0,0-2.68-.92,27.16,27.16,0,0,1-15.37.19,1.89,1.89,0,0,0-2.5,1.19C373.29,535.3,371.8,533.9,370.11,532.74Z"/><path class="cls-12" d="M425.34,538.46a2.9,2.9,0,0,1-2.9-3.13,3,3,0,0,1,2.93-2.88,3.2,3.2,0,0,1,3.08,3.07A3,3,0,0,1,425.34,538.46Z"/><path class="cls-12" d="M370.11,532.74c3.44-.63,4.5.2,4.8,3.81a3.48,3.48,0,0,0-.28.39,3.29,3.29,0,0,1-4.78.83c-1.33-1.18-1.36-2.72,0-4.65C369.9,533,370,532.87,370.11,532.74Z"/><path class="cls-12" d="M348,535.54a2.89,2.89,0,0,1-3.11,2.91,3,3,0,0,1-2.88-2.93,3.15,3.15,0,0,1,3-3.08A3,3,0,0,1,348,535.54Z"/><path class="cls-12" d="M425.27,506.66a3,3,0,0,1-2.84-3.2,2.92,2.92,0,0,1,3-2.83,3.07,3.07,0,0,1,3,3.07A3.11,3.11,0,0,1,425.27,506.66Z"/><path class="cls-12" d="M395.46,536.09c.66-3.26,1.61-3.91,4.86-3.34a8.35,8.35,0,0,1,.85,1.13,3,3,0,0,1-.74,4,3.17,3.17,0,0,1-4.26-.59A7.34,7.34,0,0,1,395.46,536.09Z"/><path class="cls-12" d="M348,503.69a3,3,0,0,1-3.07,3,3,3,0,0,1,.11-6A2.92,2.92,0,0,1,348,503.69Z"/><path class="cls-6" d="M374.83,471.65a3,3,0,1,1-3.17-2.91A3,3,0,0,1,374.83,471.65Z"/><path class="cls-6" d="M398.57,474.75a3,3,0,0,1-3-3.1,3,3,0,0,1,3.16-2.91,3.06,3.06,0,0,1,2.85,3A3,3,0,0,1,398.57,474.75Z"/><path class="cls-6" d="M455.59,157.37a7.87,7.87,0,0,1-1.68-5.14c.34-7.35.13-14.71.13-22.07,0-2.43-.54-2.85-3-3a13.82,13.82,0,0,1-3.34-.23.81.81,0,0,1-.64-.64c-.08-.49.28-.74.67-.86a14.37,14.37,0,0,1,3.34-.21c2.48-.12,3-.54,3-3q.06-9.82,0-19.67c0-2.58-.57-3.06-3.11-3.19-1,0-2.07-.09-3.11-.19a.81.81,0,0,1-.79-.76.76.76,0,0,1,.76-.78,25.64,25.64,0,0,1,2.62-.19c3.24-.09,3.66-.43,3.64-3.6,0-7.28.22-14.56-.16-21.83a5.85,5.85,0,0,1,1.39-4c1.81,2,1.81,2,4.61,2q8.88,0,17.76,0a17.33,17.33,0,0,0,1.91-.09,1.91,1.91,0,0,0,1.83-1.88c.05-.56.08-1.12.08-1.68V47.93a11.49,11.49,0,0,0-.05-1.44c-.17-1.6-.65-2.15-2.24-2.24-1.92-.11-3.84,0-5.76-.1-.73,0-2,.35-2-.67s1.22-1.1,2.06-1.14c1.6-.1,3.2-.05,4.8-.1,2.62-.07,3.08-.53,3.17-3.09,0-1.44,0-2.88,0-4.32a4.48,4.48,0,0,1,.43-2.1c.19-.36.46-.69.92-.55a.74.74,0,0,1,.46.77c0,1.68.05,3.36.08,5,0,.64,0,1.28,0,1.91.17,1.63.64,2.12,2.21,2.3a15.63,15.63,0,0,0,1.68,0h18c.64,0,1.28,0,1.92-.07a2,2,0,0,0,2-2c.05-.55.07-1.12.07-1.67q0-9,0-18c0-2.69,0-2.69-2-4.39a6,6,0,0,1,4.19-1.42c7.35.37,14.71.12,22.07.14,2.61,0,3.06-.52,3.17-3.08,0-1,.05-1.92.13-2.87,0-.48.2-1,.79-1.05s.82.49.86,1c.1,1,.1,2.07.16,3.11.14,2.29.63,2.9,2.88,2.92q10.08.07,20.16,0c2.29,0,2.71-.55,2.83-2.92,0-1,0-2.08.15-3.11,0-.47.24-1,.85-1s.77.56.8,1c.09,1.11.08,2.23.15,3.35.14,2,.61,2.59,2.65,2.59,7.36,0,14.72,0,22.07-.1a8.43,8.43,0,0,1,5.22,1.49c-2.36,1-2.17,3-2.17,4.87,0,5.67,0,11.35,0,17,0,.72,0,1.44.09,2.16a1.93,1.93,0,0,0,1.81,1.9,7.77,7.77,0,0,0,1,.08c6.56,0,13.11,0,19.67,0,2.4,0,2.87-.58,2.94-3.07,0-1.92,0-3.84.06-5.76,0-.54,0-1.3.67-1.37.83-.09,1,.72,1.06,1.33.1,1.6.12,3.2.14,4.8,0,3.81.29,4.07,4.1,4.1l3.84,0a4.14,4.14,0,0,1,1.87.36c.36.18.76.4.73.86s-.5.58-.89.6c-.8,0-1.6.06-2.4.07-1.68,0-3.37,0-5,.07-1.5.1-2,.61-2.14,2.08a9.72,9.72,0,0,0-.06,1.43q0,9.36,0,18.72a15.56,15.56,0,0,0,.08,1.67A1.91,1.91,0,0,0,623.59,70c.48,0,1,.07,1.44.07q9.6,0,19.2,0c1.46,0,3,.08,3.54-2.19a6.65,6.65,0,0,1,1.74,4.6c0,6.56-.06,13.12-.08,19.68,0,.64,0,1.28,0,1.92.07,2.89.48,3.29,3.37,3.4,1,0,1.91.11,2.86.22a.8.8,0,0,1,.78.77.76.76,0,0,1-.77.76c-.95.1-1.91.14-2.87.17-2.91.1-3.34.48-3.36,3.38q0,9.6,0,19.2c0,2.78.48,3.2,3.2,3.3,1,0,2.08.09,3.11.2a.75.75,0,0,1,.74.79.8.8,0,0,1-.79.76c-1,.1-1.91.15-2.87.18-2.92.09-3.38.48-3.39,3.36,0,7.11,0,14.23.06,21.35a9.34,9.34,0,0,1-1.37,5C646.46,155,646.46,155,644,155c-6.23,0-12.47,0-18.71,0a15.76,15.76,0,0,0-1.68.09,1.92,1.92,0,0,0-1.85,1.86,17.61,17.61,0,0,0-.08,1.92q0,8.88,0,17.75c0,.48,0,1,0,1.44.17,1.74.64,2.28,2.38,2.37,2,.1,4,0,6,.08.74,0,2-.33,2.06.61s-1.17,1.15-2,1.2c-1.67.09-3.35.06-5,.09-2.95.06-3.35.45-3.42,3.32,0,1.28,0,2.56,0,3.84a9.72,9.72,0,0,1-.08,1.43c-.11.78-.17,1.93-1.1,1.87s-.67-1.25-.69-2c-.07-1.84,0-3.68,0-5.52-.08-2.45-.54-2.94-3-3q-9.72-.06-19.43,0c-2.44,0-3,.55-3,3,0,5.2,0,10.4,0,15.6,0,1.36,0,2.72,0,4.08s0,3,2.25,3.39a7.77,7.77,0,0,1-5,1.75c-7,0-13.92,0-20.88-.06h-.48c-3.25.05-3.59.38-3.68,3.56,0,.87-.07,1.75-.15,2.62a.88.88,0,0,1-.71.87c-.61.07-.85-.42-.9-.9-.1-1-.11-2.07-.16-3.11-.11-2.48-.54-3-3-3-3.92-.06-7.84,0-11.76,0-2.56,0-5.12,0-7.68,0-3,0-3.38.41-3.46,3.52,0,.64,0,1.28-.05,1.92s0,1.46-.81,1.53-.88-.79-1-1.4a17.33,17.33,0,0,1-.09-1.91c-.09-3.31-.42-3.66-3.83-3.67-7,0-13.91,0-20.87.08a7.85,7.85,0,0,1-4.63-1.41c.48-.81,1.63-.94,1.73-1.91.07-.79.17-1.59.17-2.38,0-6.16,0-12.32,0-18.47,0-.56,0-1.12-.07-1.68a2,2,0,0,0-2-2c-.48,0-1-.06-1.44-.06H486.32c-2.34.11-2.83.56-2.91,2.84-.06,1.76,0,3.52-.05,5.28,0,.82.39,2.25-.58,2.29-1.3.05-1.2-1.44-1.26-2.44-.08-1.51,0-3-.06-4.55,0-2.94-.46-3.36-3.32-3.43-1.12,0-2.24,0-3.36,0a11.33,11.33,0,0,1-1.43,0c-.83-.12-2.11,0-2.06-1.1s1.25-.71,2-.74c1.83-.06,3.68,0,5.51-.06,2-.09,2.62-.62,2.64-2.62q.07-10.08,0-20.15c0-2-.62-2.62-2.62-2.63-6.72-.06-13.43,0-20.15,0A2.89,2.89,0,0,0,455.59,157.37Z"/><path class="cls-12" d="M371.78,506.66a3,3,0,1,1,.2-6,2.92,2.92,0,0,1,2.84,3A3,3,0,0,1,371.78,506.66Z"/><path class="cls-12" d="M401.63,503.75a3,3,0,1,1-6-.32,3,3,0,0,1,3-2.79A3,3,0,0,1,401.63,503.75Z"/><path class="cls-1" d="M509.27,57.11c0,3.28,0,6.56,0,9.84,0,2.59-.51,3.07-3.14,3.09-6.56,0-13.12,0-19.67,0-2.5,0-3-.5-3-3q-.06-10,0-19.92c0-2.45.52-2.94,3-3q9.84-.06,19.67,0c2.64,0,3.11.5,3.15,3.08C509.3,50.56,509.26,53.84,509.27,57.11Z"/><path class="cls-1" d="M496.31,153.07c-3.12,0-6.24,0-9.36,0s-3.54-.41-3.55-3.41q0-9.6,0-19.19c0-2.78.47-3.24,3.23-3.25q9.72-.06,19.43,0c2.73,0,3.18.49,3.2,3.28q0,9.72,0,19.44c0,2.61-.5,3.08-3.1,3.12-3.28,0-6.56,0-9.84,0Z"/><path class="cls-1" d="M634.33,153.06c-3.2,0-6.4,0-9.6,0-2.59,0-3.07-.51-3.09-3.14,0-6.56,0-13.12,0-19.67,0-2.5.51-3,3-3q10-.07,19.91,0c2.45,0,3,.52,3,3q.06,9.84,0,19.67c0,2.63-.5,3.1-3.09,3.14C641,153.1,637.69,153.06,634.33,153.06Z"/><path class="cls-1" d="M592.3,195.33c0,3.28,0,6.56,0,9.84,0,2.58-.52,3.07-3.15,3.08q-9.84.06-19.68,0c-2.49,0-3-.51-3-3q-.06-10,0-19.91c0-2.45.53-2.94,3-3q9.84-.06,19.68,0c2.63,0,3.11.5,3.15,3.09C592.33,188.78,592.3,192.05,592.3,195.33Z"/><path class="cls-1" d="M592.3,57.07c0,3.28,0,6.55,0,9.83,0,2.62-.51,3.12-3.1,3.14q-9.83.06-19.67,0c-2.56,0-3.07-.54-3.09-3.15q0-9.84,0-19.67c0-2.49.51-3,3-3q10-.08,19.91,0c2.45,0,2.91.52,2.95,3C592.33,50.51,592.3,53.79,592.3,57.07Z"/><path class="cls-1" d="M496.09,125.26c-3.2,0-6.4,0-9.59,0-2.58,0-3.08-.53-3.09-3.14q-.06-9.72,0-19.42c0-2.72.55-3.27,3.25-3.28q9.7-.07,19.42,0c2.65,0,3.15.49,3.17,3q.06,9.83,0,19.66c0,2.61-.51,3.1-3.09,3.14C502.8,125.29,499.45,125.26,496.09,125.26Z"/><path class="cls-1" d="M579.31,127.2c3.28,0,6.55,0,9.83,0,2.63,0,3.13.5,3.14,3.08q.06,9.83,0,19.66c0,2.52-.6,3.08-3.18,3.1q-9.84.06-19.67,0c-2.47,0-3-.52-3-3q-.06-10,0-19.9c0-2.43.54-2.91,3-3C572.76,127.16,576,127.2,579.31,127.2Z"/><path class="cls-1" d="M579.37,125.26c-3.28,0-6.56,0-9.83,0-2.59,0-3.09-.53-3.1-3.14q-.06-9.83,0-19.66c0-2.49.51-3,2.93-3q9.95-.07,19.9,0c2.42,0,3,.59,3,3q.08,10,0,19.9c0,2.39-.57,2.87-3.08,2.91C585.92,125.29,582.64,125.26,579.37,125.26Z"/><path class="cls-1" d="M564.49,112.3c0,3.28,0,6.56,0,9.83,0,2.59-.53,3.1-3.13,3.11q-9.83.06-19.66,0c-2.56,0-3.05-.52-3.07-3.16q-.06-9.7,0-19.42c0-2.71.55-3.24,3.27-3.26q9.71-.06,19.42,0c2.69,0,3.13.52,3.17,3.31,0,3.2,0,6.4,0,9.59Z"/><path class="cls-1" d="M647.5,112.25c0,3.28,0,6.55,0,9.83,0,2.64-.5,3.15-3.07,3.16q-9.82.06-19.66,0c-2.6,0-3.1-.52-3.12-3.12q-.06-9.7,0-19.41c0-2.74.55-3.29,3.22-3.31q9.84-.07,19.66,0c2.46,0,2.93.52,3,3C647.54,105.7,647.5,109,647.5,112.25Z"/><path class="cls-1" d="M551.53,153.06c-3.2,0-6.4,0-9.6,0-2.73,0-3.28-.54-3.3-3.22q-.07-9.83,0-19.66c0-2.44.54-2.94,3-3q9.95-.06,19.9,0c2.34,0,2.9.55,2.92,2.82q.07,10.07,0,20.14c0,2.29-.57,2.82-2.87,2.86-3.36.06-6.72,0-10.07,0Z"/><path class="cls-1" d="M564.49,57.12c0,3.27,0,6.54,0,9.82,0,2.58-.53,3.08-3.13,3.1q-9.71.06-19.41,0c-2.73,0-3.29-.55-3.31-3.22q-.07-9.7,0-19.4c0-2.67.57-3.2,3.31-3.22q9.7-.06,19.4,0c2.61,0,3.1.52,3.14,3.09C564.53,50.57,564.49,53.84,564.49,57.12Z"/><path class="cls-1" d="M551.53,208.26c-3.2,0-6.39,0-9.59,0-2.73,0-3.29-.55-3.31-3.21q-.07-9.71,0-19.4c0-2.68.57-3.21,3.3-3.22q9.71-.06,19.41,0c2.61,0,3.12.51,3.14,3.08q.06,9.83,0,19.65c0,2.58-.53,3.07-3.13,3.1C558.08,208.3,554.8,208.26,551.53,208.26Z"/><path class="cls-1" d="M536.68,112.27c0,3.28,0,6.56,0,9.83,0,2.6-.54,3.13-3.11,3.14-6.4.05-12.79,0-19.19,0-2.62,0-3.14-.52-3.15-3.08q-.08-9.84,0-19.66c0-2.59.53-3.09,3.13-3.11q9.84-.06,19.67,0c2.52,0,2.79.46,2.76,3,0,3.28,0,6.56,0,9.83Z"/><path class="cls-1" d="M456,140.19c0-3.27,0-6.55,0-9.82,0-2.62.52-3.14,3.08-3.16q9.71-.06,19.41,0c2.43,0,2.94.55,3,3q.06,9.94,0,19.89c0,2.33-.54,2.88-2.83,2.9q-9.94.08-19.89,0c-2.13,0-2.66-.6-2.71-2.77-.06-3.36,0-6.71,0-10.07Z"/><path class="cls-1" d="M536.68,140.26c0,3.19,0,6.39,0,9.58,0,2.73-.5,3.2-3.28,3.22q-9.46,0-18.93,0c-2.77,0-3.23-.48-3.25-3.23q-.06-9.71,0-19.41c0-2.73.49-3.2,3.27-3.21q9.46-.06,18.93,0c2.75,0,3.22.49,3.26,3.23C536.72,133.71,536.68,137,536.68,140.26Z"/><path class="cls-1" d="M619.7,140.38c0,3.2,0,6.39,0,9.59,0,2.56-.54,3.07-3.15,3.08q-9.59.06-19.17,0c-2.6,0-3.11-.53-3.13-3.11q-.06-9.81,0-19.64c0-2.56.54-3.07,3.15-3.09q9.58-.06,19.17,0c2.59,0,3.09.53,3.13,3.11C619.74,133.68,619.7,137,619.7,140.38Z"/><path class="cls-1" d="M496.34,180.47c-3.28,0-6.56,0-9.83,0-2.58,0-3.09-.53-3.1-3.13q-.06-9.58,0-19.16c0-2.61.52-3.13,3.09-3.15q9.83-.06,19.65,0c2.57,0,3.09.54,3.1,3.13q.06,9.59,0,19.17c0,2.61-.52,3.11-3.09,3.14C502.89,180.5,499.61,180.47,496.34,180.47Z"/><path class="cls-1" d="M551.31,180.47c-3.2,0-6.4,0-9.59,0-2.57,0-3.08-.53-3.1-3.14q-.06-9.58,0-19.17c0-2.61.53-3.12,3.1-3.14q9.82-.06,19.65,0c2.57,0,3.09.55,3.11,3.14q.06,9.58,0,19.17c0,2.59-.53,3.1-3.11,3.13C558,180.5,554.66,180.47,551.31,180.47Z"/><path class="cls-1" d="M579.3,180.46c-3.27,0-6.55,0-9.82,0-2.48,0-3-.53-3-2.95q-.06-9.83,0-19.65c0-2.27.58-2.81,2.91-2.83q10.07-.08,20.13,0c2.18,0,2.76.58,2.78,2.71q.08,10.07,0,20.13c0,2-.61,2.53-2.66,2.58-3.43.06-6.86,0-10.3,0Z"/><path class="cls-1" d="M536.68,195.48c0,3.12,0,6.23,0,9.34,0,3-.47,3.42-3.31,3.44q-9.47,0-18.93,0c-2.75,0-3.22-.48-3.23-3.24q-.06-9.7,0-19.41c0-2.71.5-3.17,3.29-3.19q9.46,0,18.93,0c2.74,0,3.2.5,3.24,3.25C536.71,188.93,536.68,192.21,536.68,195.48Z"/><path class="cls-1" d="M551.57,16.78c3.27,0,6.55,0,9.82,0,2.56,0,3.07.55,3.09,3.15q.06,9.59,0,19.17c0,2.58-.54,3.1-3.13,3.11q-9.83.06-19.65,0c-2.56,0-3.06-.53-3.08-3.15q-.06-9.59,0-19.17c0-2.59.52-3.08,3.11-3.12C545,16.74,548.29,16.78,551.57,16.78Z"/><path class="cls-1" d="M579.36,42.25c-3.28,0-6.55,0-9.83,0-2.57,0-3.08-.53-3.09-3.13q-.06-9.59,0-19.17c0-2.59.53-3.12,3.1-3.13q9.83-.07,19.65,0c2.57,0,3.08.53,3.09,3.14q.06,9.58,0,19.17c0,2.6-.52,3.09-3.1,3.13C585.91,42.28,582.63,42.25,579.36,42.25Z"/><path class="cls-1" d="M511.2,56.92c0-3.19,0-6.39,0-9.58,0-2.61.51-3.12,3.1-3.14q9.59-.06,19.17,0c2.63,0,3.17.52,3.18,3q.08,9.82,0,19.65c0,2.6-.53,3.12-3.11,3.13q-9.59.07-19.17,0c-2.7,0-3.15-.51-3.18-3.3C511.17,63.47,511.2,60.2,511.2,56.92Z"/><path class="cls-1" d="M619.7,57.13c0,3.27,0,6.55,0,9.82,0,2.57-.54,3.07-3.15,3.09q-9.59.06-19.17,0c-2.59,0-3.11-.54-3.13-3.11q-.06-9.83,0-19.65c0-2.56.54-3.06,3.15-3.08q9.58-.06,19.17,0c2.6,0,3.09.52,3.13,3.11C619.74,50.58,619.7,53.85,619.7,57.13Z"/><path class="cls-1" d="M496.32,97.45c-3.27,0-6.55,0-9.82,0-2.56,0-3.08-.54-3.09-3.15q-.06-9.58,0-19.16c0-2.61.52-3.12,3.1-3.13q9.83-.06,19.65,0c2.57,0,3.08.53,3.09,3.14q.06,9.57,0,19.16c0,2.6-.53,3.1-3.1,3.14C502.88,97.49,499.6,97.45,496.32,97.45Z"/><path class="cls-1" d="M551.76,72c3.19,0,6.39,0,9.59,0,2.59,0,3.11.53,3.13,3.1q.06,9.59,0,19.17c0,2.61-.53,3.15-3.08,3.17q-9.82.06-19.65,0c-2.59,0-3.11-.52-3.12-3.11q-.07-9.58,0-19.17c0-2.69.52-3.14,3.31-3.17C545.21,72,548.48,72,551.76,72Z"/><path class="cls-1" d="M579.43,72c3.28,0,6.56,0,9.83,0,2.48,0,3,.52,3,3q.08,9.71,0,19.41c0,2.56-.53,3.06-3.16,3.07q-9.72.06-19.42,0c-2.76,0-3.25-.49-3.27-3.21q-.06-9.47,0-18.93c0-2.85.48-3.28,3.42-3.31,3.19,0,6.39,0,9.58,0Z"/><path class="cls-1" d="M634.56,97.45c-3.28,0-6.55,0-9.83,0-2.56,0-3.07-.54-3.09-3.15q-.06-9.58,0-19.17c0-2.6.53-3.11,3.11-3.12q9.82-.06,19.65,0c2.57,0,3.07.53,3.09,3.14q.06,9.58,0,19.17c0,2.59-.53,3.09-3.11,3.13C641.11,97.49,637.83,97.45,634.56,97.45Z"/><path class="cls-1" d="M481.46,112.33c0,3.27,0,6.55,0,9.82,0,2.57-.54,3.08-3.14,3.09q-9.58.06-19.17,0c-2.59,0-3.12-.53-3.14-3.1q-.06-9.83,0-19.65c0-2.56.54-3.07,3.15-3.09q9.59-.06,19.17,0c2.6,0,3.09.53,3.13,3.1C481.5,105.78,481.46,109.05,481.46,112.33Z"/><path class="cls-1" d="M594.23,112.32c0-3.28,0-6.55,0-9.82,0-2.57.54-3.08,3.14-3.1q9.58-.06,19.17,0c2.61,0,3.12.53,3.14,3.1q.06,9.82,0,19.65c0,2.57-.54,3.08-3.14,3.09q-9.59.06-19.17,0c-2.59,0-3.1-.53-3.14-3.1C594.19,118.87,594.23,115.59,594.23,112.32Z"/><path class="cls-1" d="M594.23,84.71c0-3.2,0-6.4,0-9.59,0-2.58.55-3.11,3.13-3.12q9.6-.06,19.2,0c2.58,0,3.1.54,3.12,3.12q.06,9.6,0,19.19c0,2.58-.55,3.11-3.13,3.13q-9.6.06-19.2,0c-2.57,0-3.08-.56-3.12-3.13C594.19,91.11,594.23,87.91,594.23,84.71Z"/><path class="cls-1" d="M536.68,29.52c0,3.2,0,6.4,0,9.59,0,2.58-.56,3.11-3.14,3.12q-9.6.06-19.19,0c-2.59,0-3.11-.53-3.13-3.12q-.06-9.6,0-19.19c0-2.58.55-3.11,3.13-3.12q9.6-.07,19.19,0c2.58,0,3.09.55,3.14,3.12C536.72,23.12,536.68,26.32,536.68,29.52Z"/><path class="cls-1" d="M481.46,84.69c0,3.2,0,6.4,0,9.59,0,2.6-.54,3.14-3.1,3.16q-9.59.06-19.19,0c-2.6,0-3.14-.54-3.15-3.1q-.08-9.6,0-19.19c0-2.6.53-3.13,3.1-3.15q9.58-.06,19.19,0c2.59,0,3.12.54,3.16,3.1C481.5,78.29,481.46,81.49,481.46,84.69Z"/><path class="cls-1" d="M524.09,97.45c-3.28,0-6.56,0-9.83,0-2.48,0-3-.55-3-3q-.08-9.72,0-19.43c0-2.49.53-3,3-3q9.72-.06,19.43,0c2.48,0,3,.54,3,3q.08,9.72,0,19.43c0,2.53-.57,3-3.21,3-3.12,0-6.24,0-9.36,0Z"/><path class="cls-1" d="M536.68,167.87c0,3.12,0,6.24,0,9.36,0,2.72-.52,3.21-3.28,3.23q-9.46,0-18.95,0c-2.74,0-3.21-.5-3.23-3.27q-.06-9.47,0-18.95c0-2.73.51-3.22,3.26-3.23q9.48-.06,19,0c2.72,0,3.2.52,3.24,3.27C536.72,161.47,536.68,164.67,536.68,167.87Z"/><path class="cls-1" d="M607,180.48h-7.91c-4.81,0-4.89-.08-4.89-4.77q0-8,0-16.07c0-4.54.12-4.65,4.77-4.65q7.9,0,15.83,0c4.86,0,4.89,0,4.89,5v15.35c0,5.12,0,5.12-5.25,5.13Z"/></svg>